G04*
G04 #@! TF.GenerationSoftware,Altium Limited,Altium Designer,20.0.13 (296)*
G04*
G04 Layer_Physical_Order=1*
G04 Layer_Color=255*
%FSTAX24Y24*%
%MOIN*%
G70*
G01*
G75*
%ADD12C,0.0300*%
%ADD19C,0.0100*%
%ADD21R,0.0433X0.0472*%
%ADD22O,0.0709X0.0217*%
%ADD23R,0.0472X0.0433*%
%ADD24R,0.0500X0.0550*%
%ADD25R,0.0315X0.0433*%
G04:AMPARAMS|DCode=26|XSize=196.9mil|YSize=100mil|CornerRadius=25mil|HoleSize=0mil|Usage=FLASHONLY|Rotation=180.000|XOffset=0mil|YOffset=0mil|HoleType=Round|Shape=RoundedRectangle|*
%AMROUNDEDRECTD26*
21,1,0.1969,0.0500,0,0,180.0*
21,1,0.1468,0.1000,0,0,180.0*
1,1,0.0500,-0.0734,0.0250*
1,1,0.0500,0.0734,0.0250*
1,1,0.0500,0.0734,-0.0250*
1,1,0.0500,-0.0734,-0.0250*
%
%ADD26ROUNDEDRECTD26*%
%ADD27O,0.0787X0.0217*%
%ADD41C,0.0120*%
%ADD42C,0.0200*%
%ADD43C,0.0080*%
%ADD44C,0.0400*%
%ADD45C,0.0500*%
%ADD46C,0.0060*%
%ADD47C,0.0512*%
%ADD48C,0.0945*%
%ADD49C,0.1575*%
%ADD50R,0.0512X0.0512*%
%ADD51C,0.0500*%
%ADD52C,0.1969*%
G36*
X0722Y0664D02*
X072194Y066399D01*
X07219Y066396D01*
X072187Y066391D01*
X072185Y066385D01*
X072185Y066376D01*
X072186Y066366D01*
X072188Y066354D01*
X072195Y066323D01*
X072201Y066305D01*
X072182Y066047D01*
X072176Y066064D01*
X07217Y066077D01*
X072165Y066086D01*
X072161Y066092D01*
X072158Y066093D01*
X072155Y066091D01*
X072153Y066084D01*
X07215Y06606D01*
X07215Y066042D01*
X07205D01*
X07205Y06606D01*
X072049Y066074D01*
X072047Y066084D01*
X072045Y066091D01*
X072042Y066093D01*
X072039Y066092D01*
X072035Y066086D01*
X072024Y066064D01*
X072018Y066047D01*
X071999Y066305D01*
X072004Y066323D01*
X072006Y066339D01*
X072006Y066354D01*
X072003Y066366D01*
X071998Y066376D01*
X07199Y066385D01*
X071979Y066391D01*
X071965Y066396D01*
X071949Y066399D01*
X071931Y0664D01*
X0721Y0665D01*
X0722Y0664D01*
D02*
G37*
G36*
X042711Y064997D02*
X042727Y064987D01*
X042746Y064978D01*
X042767Y06497D01*
X042791Y064964D01*
X042817Y064959D01*
X042846Y064954D01*
X042911Y06495D01*
X042948Y06495D01*
X0427Y064703D01*
X0427Y064739D01*
X042696Y064804D01*
X042691Y064833D01*
X042686Y064859D01*
X04268Y064883D01*
X042672Y064904D01*
X042663Y064923D01*
X042653Y064939D01*
X042641Y064952D01*
X042698Y065009D01*
X042711Y064997D01*
D02*
G37*
G36*
X05435Y0645D02*
X054303Y064482D01*
X054294Y064494D01*
X054143Y064622D01*
X053974Y064726D01*
X053791Y064802D01*
X053598Y064848D01*
X0534Y064864D01*
X053202Y064848D01*
X053009Y064802D01*
X052826Y064726D01*
X052657Y064622D01*
X052506Y064494D01*
X052378Y064343D01*
X052274Y064174D01*
X052198Y063991D01*
X052152Y063798D01*
X052136Y0636D01*
X052152Y063402D01*
X052198Y063209D01*
X052274Y063026D01*
X052378Y062857D01*
X052506Y062706D01*
X052657Y062578D01*
X052826Y062474D01*
X053009Y062398D01*
X053202Y062352D01*
X0534Y062336D01*
X053598Y062352D01*
X053791Y062398D01*
X053974Y062474D01*
X054143Y062578D01*
X054294Y062706D01*
X054303Y062718D01*
X05435Y0627D01*
Y029068D01*
X0543Y029045D01*
X05418Y029147D01*
X054011Y029251D01*
X053828Y029327D01*
X053635Y029373D01*
X053437Y029389D01*
X05324Y029373D01*
X053047Y029327D01*
X052864Y029251D01*
X052694Y029147D01*
X052544Y029019D01*
X052415Y028868D01*
X052311Y028699D01*
X052235Y028516D01*
X052189Y028323D01*
X052174Y028125D01*
X052189Y027927D01*
X052235Y027735D01*
X052311Y027551D01*
X052377Y027444D01*
X052353Y0274D01*
X018994D01*
X01897Y02745D01*
X019063Y027601D01*
X019139Y027785D01*
X019185Y027977D01*
X019201Y028175D01*
X019185Y028373D01*
X019139Y028566D01*
X019063Y028749D01*
X01896Y028918D01*
X018831Y029069D01*
X01868Y029197D01*
X018511Y029301D01*
X018328Y029377D01*
X018135Y029423D01*
X017937Y029439D01*
X01774Y029423D01*
X017547Y029377D01*
X017364Y029301D01*
X017194Y029197D01*
X017044Y029069D01*
X016915Y028918D01*
X016811Y028749D01*
X016791Y028699D01*
X016742Y028709D01*
X016725Y031826D01*
X016775Y031846D01*
X019211Y029411D01*
X019281Y029357D01*
X019362Y029323D01*
X01945Y029312D01*
X023024D01*
X023037Y029303D01*
Y029158D01*
X024703D01*
Y030142D01*
X024726Y030149D01*
Y031251D01*
X023674D01*
Y031125D01*
X023402D01*
X023404Y031102D01*
X023409Y031072D01*
X023416Y031046D01*
X023425Y031024D01*
X023436Y031006D01*
X023449Y030992D01*
X023464Y030982D01*
X023481Y030976D01*
X0235Y030974D01*
X023375D01*
Y0307D01*
Y030275D01*
X023674D01*
Y030149D01*
X023627Y030142D01*
X023037D01*
Y029997D01*
X023024Y029988D01*
X01959D01*
X017338Y03224D01*
Y036032D01*
X017388Y036042D01*
X017403Y036006D01*
X017465Y035926D01*
X017545Y035865D01*
X017638Y035826D01*
X017636Y035776D01*
X01762Y03565D01*
X017627Y035599D01*
X017594Y035562D01*
X017558D01*
Y034538D01*
X017683D01*
Y034425D01*
X01805D01*
X018264D01*
X018264Y03445D01*
X018266Y034431D01*
X018268Y034425D01*
X018417D01*
Y034538D01*
X018542D01*
Y035298D01*
X018609Y035385D01*
X018662Y035513D01*
X01868Y03565D01*
X018662Y035787D01*
X018609Y035915D01*
X018592Y035938D01*
X018645Y036006D01*
X018683Y0361D01*
X018697Y0362D01*
X018683Y0363D01*
X018645Y036394D01*
X018601Y03645D01*
X018645Y036506D01*
X018683Y0366D01*
X018697Y0367D01*
X018683Y0368D01*
X018645Y036894D01*
X018601Y03695D01*
X018645Y037006D01*
X018683Y0371D01*
X018697Y0372D01*
X018683Y0373D01*
X018645Y037394D01*
X018583Y037474D01*
X018535Y037511D01*
X018528Y037561D01*
X018535Y03757D01*
X018548Y0376D01*
X018337Y037596D01*
Y037625D01*
X018024D01*
X01749D01*
X017513Y03757D01*
X017514Y037568D01*
X017489Y037518D01*
X017434D01*
X017429Y037522D01*
X017394Y037553D01*
X017385Y037562D01*
X017375Y037575D01*
X017265Y037659D01*
X017137Y037712D01*
X017Y03773D01*
X016863Y037712D01*
X016744Y037663D01*
X016694Y037684D01*
X016691Y03837D01*
X016741Y038404D01*
X016768Y038393D01*
X01685Y038382D01*
X017353D01*
X017381Y03834D01*
X017365Y0383D01*
X017351Y0382D01*
X017365Y0381D01*
X017403Y038006D01*
X017465Y037926D01*
X017513Y037889D01*
X01752Y037839D01*
X017513Y03783D01*
X01749Y037775D01*
X018024D01*
X018337D01*
Y037804D01*
X018341Y037803D01*
X018349Y037803D01*
X018395Y037801D01*
X018548Y0378D01*
X018535Y03783D01*
X018534Y037832D01*
X018559Y037882D01*
X0189D01*
X018982Y037893D01*
X019059Y037924D01*
X019125Y037975D01*
X019439Y038288D01*
X019486Y038265D01*
X019477Y0382D01*
X019491Y0381D01*
X019529Y038006D01*
X019573Y03795D01*
X019529Y037894D01*
X019491Y0378D01*
X019477Y0377D01*
X019491Y0376D01*
X019529Y037506D01*
X019573Y03745D01*
X019529Y037394D01*
X019491Y0373D01*
X019477Y0372D01*
X019491Y0371D01*
X019529Y037006D01*
X019573Y03695D01*
X019529Y036894D01*
X019491Y0368D01*
X019477Y0367D01*
X019491Y0366D01*
X019529Y036506D01*
X019573Y03645D01*
X019529Y036394D01*
X019491Y0363D01*
X019477Y0362D01*
X019491Y0361D01*
X019529Y036006D01*
X019591Y035926D01*
X019671Y035865D01*
X019764Y035826D01*
X019865Y035813D01*
X020231D01*
X020234Y035763D01*
X020229Y035762D01*
X020101Y035709D01*
X019991Y035625D01*
X019907Y035515D01*
X019854Y035387D01*
X019836Y03525D01*
Y03475D01*
X019854Y034613D01*
X019907Y034485D01*
X019991Y034375D01*
X020101Y034291D01*
X020229Y034238D01*
X020366Y03422D01*
X021834D01*
X021971Y034238D01*
X022099Y034291D01*
X022209Y034375D01*
X022293Y034485D01*
X022346Y034613D01*
X022364Y03475D01*
Y03525D01*
X022346Y035387D01*
X022293Y035515D01*
X022216Y035616D01*
X02222Y035672D01*
X022265Y035691D01*
X022375Y035775D01*
X022459Y035885D01*
X022512Y036013D01*
X022528Y036136D01*
X02265Y03612D01*
X022787Y036138D01*
X022915Y036191D01*
X023025Y036275D01*
X023109Y036385D01*
X023162Y036513D01*
X02318Y03665D01*
X023162Y036787D01*
X023109Y036915D01*
X023025Y037025D01*
X022915Y037109D01*
X022787Y037162D01*
X022677Y037177D01*
X02263Y0372D01*
X022612Y037337D01*
X022559Y037465D01*
X022475Y037575D01*
X022365Y037659D01*
X022252Y037706D01*
X022241Y037747D01*
X022242Y037762D01*
X022301Y037806D01*
X022353Y037801D01*
X022363Y037794D01*
X022411Y037731D01*
X022581Y037561D01*
X022651Y037507D01*
X022733Y037473D01*
X02282Y037462D01*
X023037D01*
Y037308D01*
X024703D01*
Y038099D01*
X024726D01*
Y038367D01*
X024727Y038376D01*
X024726Y038385D01*
Y039201D01*
X023674D01*
Y039075D01*
X023375D01*
Y03865D01*
X023225D01*
Y038924D01*
X023179D01*
X023186Y038925D01*
X023193Y038927D01*
X023199Y038931D01*
X023204Y038937D01*
X023209Y038944D01*
X023212Y038953D01*
X023215Y038963D01*
X023217Y038975D01*
X023218Y038989D01*
X023219Y039004D01*
X023225D01*
Y039075D01*
X0229D01*
Y039049D01*
X02285Y039029D01*
X022439Y039439D01*
X022369Y039493D01*
X022288Y039527D01*
X0222Y039538D01*
X020695D01*
X020669Y039588D01*
X020674Y0396D01*
X020463Y039596D01*
Y039625D01*
X02015D01*
Y039775D01*
X020463D01*
Y039804D01*
X020467Y039803D01*
X020475Y039803D01*
X020521Y039801D01*
X020674Y0398D01*
X020661Y03983D01*
X02062Y039884D01*
X020573Y03992D01*
X020576Y039948D01*
X020587Y03997D01*
X021834D01*
X021971Y039988D01*
X022099Y040041D01*
X022209Y040125D01*
X022293Y040235D01*
X022346Y040363D01*
X022364Y0405D01*
Y041D01*
X022346Y041137D01*
X022293Y041265D01*
X022209Y041375D01*
X022099Y041459D01*
X021971Y041512D01*
X021834Y04153D01*
X020366D01*
X020229Y041512D01*
X020101Y041459D01*
X019991Y041375D01*
X019907Y041265D01*
X019854Y041137D01*
X019836Y041D01*
Y0405D01*
X019854Y040363D01*
X019907Y040235D01*
X019991Y040125D01*
X020101Y040041D01*
X020174Y04001D01*
X020164Y03996D01*
X019865D01*
X019808Y039953D01*
X019758Y039983D01*
Y04376D01*
X019747Y043842D01*
X019716Y043919D01*
X019665Y043985D01*
X017198Y046452D01*
Y051656D01*
X017248Y051684D01*
X017258Y051678D01*
Y050688D01*
X017383D01*
Y050575D01*
X017535D01*
X017536Y05058D01*
Y050575D01*
X01775D01*
X018117D01*
Y050688D01*
X018241D01*
X018363Y050638D01*
X0185Y05062D01*
X018612Y050635D01*
X018662Y050599D01*
Y0461D01*
X018673Y046012D01*
X018707Y045931D01*
X018761Y045861D01*
X019261Y045361D01*
X019331Y045307D01*
X019412Y045273D01*
X0195Y045262D01*
X023137D01*
Y045108D01*
X024371D01*
Y040926D01*
X024385Y040815D01*
X024428Y040711D01*
X024496Y040622D01*
X024672Y040446D01*
X024761Y040378D01*
X024865Y040335D01*
X024865Y040335D01*
X024907Y040235D01*
X024991Y040125D01*
X025101Y040041D01*
X025229Y039988D01*
X025366Y03997D01*
X026834D01*
X026971Y039988D01*
X027099Y040041D01*
X027126Y040062D01*
X027171Y04004D01*
Y03571D01*
X027126Y035688D01*
X027099Y035709D01*
X026971Y035762D01*
X026834Y03578D01*
X025366D01*
X025229Y035762D01*
X025101Y035709D01*
X024991Y035625D01*
X024907Y035515D01*
X024854Y035387D01*
X024836Y03525D01*
Y03475D01*
X024854Y034613D01*
X024907Y034485D01*
X024991Y034375D01*
X025101Y034291D01*
X025229Y034238D01*
X025366Y03422D01*
X026834D01*
X026971Y034238D01*
X027099Y034291D01*
X027126Y034312D01*
X027171Y03429D01*
Y03371D01*
X027126Y033688D01*
X027099Y033709D01*
X026971Y033762D01*
X026834Y03378D01*
X025366D01*
X025229Y033762D01*
X025101Y033709D01*
X024991Y033625D01*
X024907Y033515D01*
X024854Y033387D01*
X024836Y03325D01*
Y03275D01*
X024854Y032613D01*
X024907Y032485D01*
X024991Y032375D01*
X025101Y032291D01*
X025229Y032238D01*
X025366Y03222D01*
X026834D01*
X026971Y032238D01*
X027099Y032291D01*
X027126Y032312D01*
X027171Y03229D01*
Y028417D01*
X027184Y028319D01*
X027222Y028228D01*
X027282Y028149D01*
X027399Y028032D01*
X027399Y028032D01*
X027478Y027972D01*
X027569Y027934D01*
X027667Y027921D01*
X04235D01*
X04235Y027921D01*
X04235Y027921D01*
X04805D01*
X048148Y027934D01*
X048239Y027972D01*
X048318Y028032D01*
X050218Y029932D01*
X050278Y030011D01*
X050316Y030102D01*
X050329Y0302D01*
X050329Y0302D01*
Y03222D01*
X050684D01*
X050821Y032238D01*
X050949Y032291D01*
X051059Y032375D01*
X051143Y032485D01*
X051196Y032613D01*
X051214Y03275D01*
Y03325D01*
X051196Y033387D01*
X051143Y033515D01*
X051059Y033625D01*
X050949Y033709D01*
X050821Y033762D01*
X050684Y03378D01*
X049216D01*
X049079Y033762D01*
X048951Y033709D01*
X048841Y033625D01*
X048757Y033515D01*
X048704Y033387D01*
X048686Y03325D01*
Y03275D01*
X048704Y032613D01*
X048757Y032485D01*
X048841Y032375D01*
X048951Y032291D01*
X049079Y032238D01*
X049216Y03222D01*
X049571D01*
Y030357D01*
X04844Y029226D01*
X048403Y02926D01*
Y029956D01*
X048405Y029965D01*
X048404Y029973D01*
X048404Y029982D01*
X048403Y029985D01*
Y030199D01*
X048426D01*
Y030467D01*
X048427Y030476D01*
X048426Y030485D01*
Y031301D01*
X047374D01*
Y031175D01*
X047075D01*
Y031129D01*
X047087Y031099D01*
X047104Y031072D01*
X047123Y031051D01*
X047146Y031036D01*
X047172Y031027D01*
X0472Y031024D01*
X047075D01*
Y03075D01*
X046925D01*
Y031024D01*
X046751D01*
X046751Y031027D01*
X046751Y031036D01*
X04675Y031324D01*
X046788D01*
Y036687D01*
X04681Y036713D01*
X046813Y036716D01*
X046825Y036725D01*
X046909Y036835D01*
X046962Y036963D01*
X04698Y0371D01*
X046962Y037237D01*
X046952Y037263D01*
X046979Y037304D01*
X04705D01*
X047078Y037308D01*
X047525D01*
X047585Y037261D01*
X047689Y037218D01*
X0478Y037204D01*
X047911Y037218D01*
X048015Y037261D01*
X048075Y037308D01*
X048283D01*
Y038004D01*
X048284Y038012D01*
X048284Y038014D01*
X048284Y038015D01*
X048283Y038024D01*
Y038099D01*
X048376D01*
Y038367D01*
X048377Y038376D01*
X048376Y038385D01*
Y039201D01*
X047324D01*
Y039075D01*
X047063D01*
X047063Y039071D01*
X047074Y039032D01*
X047087Y038999D01*
X047104Y038972D01*
X047123Y038951D01*
X047145Y038936D01*
X047171Y038927D01*
X047199Y038924D01*
X047025D01*
Y03865D01*
X04695D01*
Y038575D01*
X04655D01*
Y038225D01*
X046617D01*
Y038163D01*
X045727D01*
X045537Y038354D01*
X045448Y038422D01*
X045344Y038465D01*
X045233Y038479D01*
X045104D01*
X045065Y038509D01*
X044937Y038562D01*
X0448Y03858D01*
X044663Y038562D01*
X044535Y038509D01*
X044425Y038425D01*
X044341Y038315D01*
X044288Y038187D01*
X04427Y03805D01*
X044288Y037913D01*
X044341Y037785D01*
X044425Y037675D01*
X044535Y037591D01*
X044663Y037538D01*
X0448Y03752D01*
X044937Y037538D01*
X045065Y037591D01*
X045076Y0376D01*
X045246Y03743D01*
X045246Y03743D01*
X045335Y037362D01*
X045439Y037319D01*
X04555Y037304D01*
X04555Y037304D01*
X045921D01*
X045948Y037263D01*
X045938Y037237D01*
X04592Y0371D01*
X045938Y036963D01*
X045991Y036835D01*
X046075Y036725D01*
X046087Y036716D01*
X046093Y03671D01*
X046103Y036699D01*
X04611Y03669D01*
X046112Y036687D01*
Y035634D01*
X046064Y035618D01*
X046059Y035625D01*
X045949Y035709D01*
X045821Y035762D01*
X045684Y03578D01*
X044216D01*
X044163Y035773D01*
X043879Y036057D01*
Y04004D01*
X043924Y040062D01*
X043951Y040041D01*
X044079Y039988D01*
X044216Y03997D01*
X045684D01*
X045821Y039988D01*
X045949Y040041D01*
X046059Y040125D01*
X046143Y040235D01*
X046196Y040363D01*
X046214Y0405D01*
Y041D01*
X046196Y041137D01*
X046143Y041265D01*
X046059Y041375D01*
X045949Y041459D01*
X045821Y041512D01*
X045684Y04153D01*
X044216D01*
X044079Y041512D01*
X043951Y041459D01*
X043924Y041438D01*
X043879Y04146D01*
Y04204D01*
X043924Y042062D01*
X043951Y042041D01*
X044079Y041988D01*
X044216Y04197D01*
X045684D01*
X045821Y041988D01*
X045949Y042041D01*
X046059Y042125D01*
X046143Y042235D01*
X046196Y042363D01*
X046214Y0425D01*
Y043D01*
X046196Y043137D01*
X046143Y043265D01*
X046059Y043375D01*
X045949Y043459D01*
X045821Y043512D01*
X045684Y04353D01*
X044459D01*
X044445Y043549D01*
X043925Y044069D01*
X043914Y044082D01*
X043906Y044095D01*
X043898Y044108D01*
X043892Y044121D01*
X043888Y044134D01*
X043884Y044148D01*
X043881Y044163D01*
X043879Y04418D01*
Y04789D01*
X043924Y047912D01*
X043951Y047891D01*
X044079Y047838D01*
X044216Y04782D01*
X045684D01*
X045821Y047838D01*
X045949Y047891D01*
X046059Y047975D01*
X046143Y048085D01*
X046196Y048213D01*
X046214Y04835D01*
Y04885D01*
X046196Y048987D01*
X046143Y049115D01*
X046059Y049225D01*
X045949Y049309D01*
X045821Y049362D01*
X045684Y04938D01*
X044216D01*
X044079Y049362D01*
X043951Y049309D01*
X043924Y049288D01*
X043879Y04931D01*
Y04989D01*
X043924Y049912D01*
X043951Y049891D01*
X044079Y049838D01*
X044216Y04982D01*
X045684D01*
X045821Y049838D01*
X045949Y049891D01*
X046059Y049975D01*
X046143Y050085D01*
X046196Y050213D01*
X046214Y05035D01*
Y05085D01*
X046196Y050987D01*
X046143Y051115D01*
X046059Y051225D01*
X045949Y051309D01*
X045821Y051362D01*
X045684Y05138D01*
X044216D01*
X044173Y051375D01*
X044171Y051377D01*
X044029Y051518D01*
X043951Y051578D01*
X043879Y051608D01*
Y055828D01*
X043926Y055844D01*
X043941Y055825D01*
X044051Y055741D01*
X044179Y055688D01*
X044316Y05567D01*
X045784D01*
X045921Y055688D01*
X046049Y055741D01*
X046159Y055825D01*
X046243Y055935D01*
X046296Y056063D01*
X046314Y0562D01*
Y0567D01*
X046296Y056837D01*
X046243Y056965D01*
X046159Y057075D01*
X046049Y057159D01*
X045921Y057212D01*
X045784Y05723D01*
X044316D01*
X044179Y057212D01*
X044051Y057159D01*
X043941Y057075D01*
X043926Y057056D01*
X043879Y057072D01*
Y0577D01*
Y057828D01*
X043926Y057844D01*
X043941Y057825D01*
X044051Y057741D01*
X044179Y057688D01*
X044316Y05767D01*
X045784D01*
X045921Y057688D01*
X046049Y057741D01*
X046159Y057825D01*
X046243Y057935D01*
X046296Y058063D01*
X046314Y0582D01*
Y0587D01*
X046296Y058837D01*
X046243Y058965D01*
X046159Y059075D01*
X046049Y059159D01*
X045921Y059212D01*
X045784Y05923D01*
X044316D01*
X044179Y059212D01*
X044051Y059159D01*
X043941Y059075D01*
X043857Y058965D01*
X043804Y058837D01*
X043803Y058829D01*
X043676D01*
X043578Y058816D01*
X043486Y058778D01*
X043408Y058718D01*
X043311Y058621D01*
X043264Y05864D01*
Y05885D01*
X043246Y058987D01*
X043193Y059115D01*
X043109Y059225D01*
X042999Y059309D01*
X042953Y059328D01*
X042952Y059383D01*
X043016Y059432D01*
X043757Y060173D01*
X04472D01*
X04472Y060173D01*
X044831Y060087D01*
X04496Y060034D01*
X045099Y060015D01*
X045238Y060034D01*
X045367Y060087D01*
X045478Y060173D01*
X045525Y060233D01*
X045575D01*
X045622Y060173D01*
X045733Y060087D01*
X045862Y060034D01*
X046001Y060015D01*
X04614Y060034D01*
X046269Y060087D01*
X04638Y060173D01*
X046465Y060284D01*
X046519Y060413D01*
X046537Y060552D01*
X046519Y06069D01*
X046465Y06082D01*
X046387Y060921D01*
X046402Y060971D01*
X047943D01*
X048321Y060593D01*
Y056034D01*
X048334Y055936D01*
X048337Y055929D01*
Y054962D01*
X048292Y05494D01*
X04826Y054965D01*
X048157Y055008D01*
X048046Y055022D01*
X047935Y055008D01*
X047831Y054965D01*
X047747Y054901D01*
X047384D01*
Y054775D01*
X047084D01*
Y05435D01*
X047009D01*
Y054275D01*
X046761D01*
X046762Y05415D01*
X046759Y054179D01*
X04675Y054204D01*
X046734Y054226D01*
X046713Y054246D01*
X046702Y054253D01*
X046702Y05415D01*
X046699Y054179D01*
X04669Y054204D01*
X046675Y054226D01*
X046654Y054246D01*
X046627Y054262D01*
X046609Y05427D01*
Y053925D01*
X04671D01*
X046747Y053892D01*
Y05367D01*
X046743Y053643D01*
Y052533D01*
X046691Y052465D01*
X046638Y052337D01*
X04662Y0522D01*
X046638Y052063D01*
X046691Y051935D01*
X046775Y051825D01*
X046885Y051741D01*
X047013Y051688D01*
X04715Y05167D01*
X047287Y051688D01*
X047415Y051741D01*
X047525Y051825D01*
X047609Y051935D01*
X047662Y052063D01*
X04768Y0522D01*
X047662Y052337D01*
X047609Y052465D01*
X047603Y052473D01*
X047601Y052493D01*
Y052908D01*
X048337D01*
Y04935D01*
X04835Y049252D01*
X048388Y049161D01*
X048448Y049082D01*
X048674Y048856D01*
X048686Y048843D01*
Y04835D01*
X048704Y048213D01*
X048757Y048085D01*
X048841Y047975D01*
X048951Y047891D01*
X049079Y047838D01*
X049216Y04782D01*
X050684D01*
X050821Y047838D01*
X050949Y047891D01*
X051059Y047975D01*
X051143Y048085D01*
X051196Y048213D01*
X051214Y04835D01*
Y04885D01*
X051196Y048987D01*
X051143Y049115D01*
X051059Y049225D01*
X050949Y049309D01*
X050821Y049362D01*
X050684Y04938D01*
X049224D01*
X049208Y049394D01*
X049095Y049507D01*
Y049798D01*
X049132Y049831D01*
X049216Y04982D01*
X050684D01*
X050821Y049838D01*
X050949Y049891D01*
X051059Y049975D01*
X051143Y050085D01*
X051196Y050213D01*
X051214Y05035D01*
Y05085D01*
X051196Y050987D01*
X051143Y051115D01*
X051059Y051225D01*
X050949Y051309D01*
X050821Y051362D01*
X050684Y05138D01*
X049216D01*
X049132Y051369D01*
X049095Y051402D01*
Y055678D01*
X049136Y055705D01*
X049179Y055688D01*
X049316Y05567D01*
X050784D01*
X050921Y055688D01*
X051049Y055741D01*
X051159Y055825D01*
X051243Y055935D01*
X051296Y056063D01*
X051298Y056079D01*
X051368Y056132D01*
X051968Y056732D01*
X052028Y056811D01*
X052066Y056902D01*
X052079Y057D01*
Y06005D01*
Y061D01*
X052079Y061D01*
X052066Y061098D01*
X052028Y061189D01*
X051968Y061268D01*
X051318Y061918D01*
X051239Y061978D01*
X051148Y062016D01*
X05105Y062029D01*
X046707D01*
X0467Y062079D01*
X046786Y062105D01*
X046916Y062175D01*
X04703Y062268D01*
X047124Y062382D01*
X047193Y062512D01*
X047236Y062653D01*
X04725Y0628D01*
X047236Y062946D01*
X047193Y063087D01*
X047124Y063217D01*
X04703Y063331D01*
X046916Y063425D01*
X046786Y063494D01*
X046706Y063518D01*
X046688Y063565D01*
X04675Y063666D01*
X046814Y063821D01*
X046853Y063983D01*
X046866Y06415D01*
X046853Y064317D01*
X046814Y064479D01*
X04675Y064634D01*
X046663Y064777D01*
X046554Y064904D01*
X046427Y065013D01*
X046284Y0651D01*
X046129Y065164D01*
X045967Y065203D01*
X0458Y065216D01*
X045633Y065203D01*
X04547Y065164D01*
X045316Y0651D01*
X045173Y065013D01*
X045046Y064904D01*
X044937Y064777D01*
X04485Y064634D01*
X044786Y064479D01*
X044747Y064317D01*
X044734Y06415D01*
X044747Y063983D01*
X044786Y063821D01*
X044834Y063705D01*
X044856D01*
X044856Y063655D01*
X044891Y0636D01*
X044866Y063556D01*
X044865D01*
X044865Y063552D01*
X044872Y063513D01*
X044882Y06348D01*
X044893Y063453D01*
X044907Y063432D01*
X044923Y063417D01*
X04494Y063408D01*
X04496Y063405D01*
X044781D01*
Y063225D01*
X045111D01*
Y06328D01*
X045157Y063301D01*
X045173Y063287D01*
X045316Y0632D01*
X04547Y063136D01*
X045633Y063097D01*
X045752Y063087D01*
X045788Y063034D01*
X045762Y062946D01*
X045747Y0628D01*
X045762Y062653D01*
X045804Y062512D01*
X045874Y062382D01*
X045967Y062268D01*
X046081Y062175D01*
X046211Y062105D01*
X046298Y062079D01*
X046291Y062029D01*
X044704D01*
X04469Y062079D01*
X044768Y062181D01*
X044822Y06231D01*
X04484Y062449D01*
X044822Y062588D01*
X044778Y062694D01*
X044807Y062744D01*
X045111D01*
Y063075D01*
X044706D01*
Y06315D01*
X044631D01*
Y063405D01*
X044451D01*
X044471Y063408D01*
X044489Y063417D01*
X044504Y063432D01*
X044518Y063453D01*
X044529Y06348D01*
X044539Y063513D01*
X044546Y063552D01*
X044547Y063556D01*
X0443D01*
Y063377D01*
X044289Y063372D01*
X04425Y063364D01*
X044192Y063439D01*
X044107Y063505D01*
X044008Y063545D01*
X043977Y06355D01*
Y06315D01*
X043827D01*
Y063579D01*
X043819Y063586D01*
Y064749D01*
X043808Y064832D01*
X043776Y064908D01*
X043726Y064974D01*
X043175Y065525D01*
X043109Y065576D01*
X043032Y065607D01*
X04295Y065618D01*
X0295D01*
X029418Y065607D01*
X029341Y065576D01*
X029275Y065525D01*
X028543Y064793D01*
X028057D01*
X027375Y065475D01*
X027309Y065526D01*
X027232Y065557D01*
X02715Y065568D01*
X02465D01*
X024568Y065557D01*
X024491Y065526D01*
X024425Y065475D01*
X024175Y065225D01*
X024124Y065159D01*
X024093Y065082D01*
X024082Y065D01*
Y064182D01*
X023768Y063868D01*
X023194D01*
X023166Y06391D01*
X023183Y06395D01*
X023196Y06405D01*
X023183Y06415D01*
X023144Y064244D01*
X023083Y064324D01*
X023034Y064361D01*
X023028Y064411D01*
X023035Y06442D01*
X023058Y064475D01*
X022563D01*
X022068D01*
X022091Y06442D01*
X022092Y064418D01*
X022068Y064368D01*
X021068D01*
X021041Y06441D01*
X021057Y06445D01*
X02107Y06455D01*
X021057Y06465D01*
X021018Y064744D01*
X020957Y064824D01*
X020877Y064885D01*
X020783Y064924D01*
X020683Y064937D01*
X020191D01*
X020091Y064924D01*
X019997Y064885D01*
X019975Y064868D01*
X0198D01*
X019718Y064857D01*
X019641Y064826D01*
X019575Y064775D01*
X019175Y064375D01*
X019124Y064309D01*
X019093Y064232D01*
X019088Y064195D01*
X019036Y064184D01*
X018955Y064316D01*
X018826Y064467D01*
X018676Y064595D01*
X018506Y064699D01*
X018323Y064775D01*
X01813Y064821D01*
X017933Y064837D01*
X017735Y064821D01*
X017542Y064775D01*
X017359Y064699D01*
X01719Y064595D01*
X017039Y064467D01*
X01691Y064316D01*
X016807Y064147D01*
X016731Y063963D01*
X016685Y063771D01*
X016669Y063573D01*
X016685Y063375D01*
X016731Y063182D01*
X016807Y062999D01*
X01691Y06283D01*
X017039Y062679D01*
X01719Y062551D01*
X017359Y062447D01*
X017542Y062371D01*
X017735Y062325D01*
X017933Y062309D01*
X01813Y062325D01*
X018293Y062364D01*
X018318Y062318D01*
X018125Y062125D01*
X018074Y062059D01*
X018043Y061982D01*
X018032Y0619D01*
Y055945D01*
X018022Y055937D01*
X017818D01*
Y056346D01*
X017875Y056516D01*
X017889Y056552D01*
X01789Y056553D01*
X01789Y056554D01*
X017894Y056569D01*
X017912Y056613D01*
X01793Y05675D01*
X017912Y056887D01*
X017859Y057015D01*
X017775Y057125D01*
X017665Y057209D01*
X017568Y057249D01*
X01755Y057308D01*
X017609Y057385D01*
X017662Y057513D01*
X01768Y05765D01*
X017662Y057787D01*
X017609Y057915D01*
X017525Y058025D01*
X017415Y058109D01*
X017287Y058162D01*
X01715Y05818D01*
X017013Y058162D01*
X016885Y058109D01*
X016775Y058025D01*
X016691Y057915D01*
X016638Y057787D01*
X016589Y057794D01*
X016546Y065965D01*
X016581Y066D01*
X05435D01*
Y0645D01*
D02*
G37*
G36*
X02012Y064471D02*
X020119Y064478D01*
X020116Y064485D01*
X02011Y064491D01*
X020103Y064496D01*
X020093Y0645D01*
X020081Y064504D01*
X020067Y064506D01*
X020051Y064508D01*
X020032Y06451D01*
X020012Y06451D01*
Y06459D01*
X020032Y06459D01*
X020067Y064594D01*
X020081Y064596D01*
X020093Y0646D01*
X020103Y064604D01*
X02011Y064609D01*
X020116Y064615D01*
X020119Y064622D01*
X02012Y064629D01*
Y064471D01*
D02*
G37*
G36*
X02852Y064435D02*
X028505Y064434D01*
X028491Y064432D01*
X028479Y064428D01*
X028469Y064422D01*
X02846Y064415D01*
X028453Y064406D01*
X028447Y064396D01*
X028443Y064384D01*
X028441Y06437D01*
X02844Y064355D01*
X02836D01*
X028359Y06437D01*
X028357Y064384D01*
X028353Y064396D01*
X028347Y064406D01*
X02834Y064415D01*
X028331Y064422D01*
X028321Y064428D01*
X028309Y064432D01*
X028295Y064434D01*
X02828Y064435D01*
X0284Y064515D01*
X02852Y064435D01*
D02*
G37*
G36*
X022246Y063971D02*
X022245Y063978D01*
X022242Y063985D01*
X022236Y063991D01*
X022229Y063996D01*
X022219Y064D01*
X022207Y064004D01*
X022193Y064006D01*
X022177Y064008D01*
X022158Y06401D01*
X022138Y06401D01*
Y06409D01*
X022158Y06409D01*
X022193Y064094D01*
X022207Y064096D01*
X022219Y0641D01*
X022229Y064104D01*
X022236Y064109D01*
X022242Y064115D01*
X022245Y064122D01*
X022246Y064129D01*
Y063971D01*
D02*
G37*
G36*
X020755Y064122D02*
X020758Y064115D01*
X020764Y064109D01*
X020771Y064104D01*
X020781Y0641D01*
X020793Y064096D01*
X020807Y064094D01*
X020823Y064092D01*
X020842Y06409D01*
X020862Y06409D01*
Y06401D01*
X020842Y06401D01*
X020807Y064006D01*
X020793Y064004D01*
X020781Y064D01*
X020771Y063996D01*
X020764Y063991D01*
X020758Y063985D01*
X020755Y063978D01*
X020754Y063971D01*
Y064129D01*
X020755Y064122D01*
D02*
G37*
G36*
X035335Y064935D02*
X034203Y063803D01*
X034161Y063832D01*
X034198Y063983D01*
X034211Y06415D01*
X034198Y064317D01*
X034159Y064479D01*
X034095Y064634D01*
X034007Y064777D01*
X033898Y064904D01*
X033862Y064935D01*
X03388Y064982D01*
X035316D01*
X035335Y064935D01*
D02*
G37*
G36*
X037266Y064752D02*
X037194Y064634D01*
X03713Y064479D01*
X037091Y064317D01*
X037078Y06415D01*
X037091Y063983D01*
X03713Y063821D01*
X037171Y063723D01*
X037143Y063682D01*
X036518D01*
Y063667D01*
X036469Y063633D01*
X036386Y063668D01*
X036247Y063686D01*
X036108Y063668D01*
X035979Y063614D01*
X035879Y063538D01*
X035845Y063533D01*
X035811Y063538D01*
X035712Y063614D01*
X035582Y063668D01*
X035444Y063686D01*
X035305Y063668D01*
X035176Y063614D01*
X035065Y063529D01*
X03502D01*
X034942Y063589D01*
X034939Y063639D01*
X036102Y064802D01*
X037238D01*
X037266Y064752D01*
D02*
G37*
G36*
X022881Y063622D02*
X022884Y063615D01*
X02289Y063609D01*
X022897Y063604D01*
X022907Y0636D01*
X022919Y063596D01*
X022933Y063594D01*
X022949Y063592D01*
X022968Y06359D01*
X022988Y06359D01*
Y06351D01*
X022968Y06351D01*
X022933Y063506D01*
X022919Y063504D01*
X022907Y0635D01*
X022897Y063496D01*
X02289Y063491D01*
X022884Y063485D01*
X022881Y063478D01*
X02288Y063471D01*
Y063629D01*
X022881Y063622D01*
D02*
G37*
G36*
X02012Y063471D02*
X020119Y063478D01*
X020116Y063485D01*
X02011Y063491D01*
X020103Y063496D01*
X020093Y0635D01*
X020081Y063504D01*
X020067Y063506D01*
X020051Y063508D01*
X020032Y06351D01*
X020012Y06351D01*
Y06359D01*
X020032Y06359D01*
X020067Y063594D01*
X020081Y063596D01*
X020093Y0636D01*
X020103Y063604D01*
X02011Y063609D01*
X020116Y063615D01*
X020119Y063622D01*
X02012Y063629D01*
Y063471D01*
D02*
G37*
G36*
X021959Y06369D02*
X021943Y06365D01*
X02193Y06355D01*
X021943Y06345D01*
X021959Y06341D01*
X021932Y063368D01*
X021068D01*
X021041Y06341D01*
X021057Y06345D01*
X02107Y06355D01*
X021057Y06365D01*
X021041Y06369D01*
X021068Y063732D01*
X021932D01*
X021959Y06369D01*
D02*
G37*
G36*
X032427Y064935D02*
X032391Y064904D01*
X032282Y064777D01*
X032194Y064634D01*
X03213Y064479D01*
X032091Y064317D01*
X032078Y06415D01*
X032091Y063983D01*
X03213Y063821D01*
X032194Y063666D01*
X032256Y063565D01*
X032238Y063518D01*
X032158Y063494D01*
X032028Y063425D01*
X031922Y063338D01*
X031816Y063425D01*
X031686Y063494D01*
X031606Y063518D01*
X031588Y063565D01*
X03165Y063666D01*
X031714Y063821D01*
X031753Y063983D01*
X031766Y06415D01*
X031753Y064317D01*
X031714Y064479D01*
X03165Y064634D01*
X031563Y064777D01*
X031454Y064904D01*
X031418Y064935D01*
X031435Y064982D01*
X032409D01*
X032427Y064935D01*
D02*
G37*
G36*
X044451Y062895D02*
X044448Y062915D01*
X044439Y062933D01*
X044424Y062949D01*
X044403Y062962D01*
X044376Y062974D01*
X044343Y062983D01*
X044304Y062991D01*
X044259Y062996D01*
X044217Y062998D01*
X044144Y062993D01*
X044127Y06299D01*
X044113Y062986D01*
X044101Y062981D01*
X044092Y062976D01*
X044085Y062971D01*
Y063329D01*
X044092Y063324D01*
X044101Y063319D01*
X044113Y063314D01*
X044127Y06331D01*
X044144Y063307D01*
X044163Y063305D01*
X044208Y063301D01*
X044209Y063301D01*
X044304Y063309D01*
X044343Y063317D01*
X044376Y063326D01*
X044403Y063338D01*
X044424Y063351D01*
X044439Y063367D01*
X044448Y063385D01*
X044451Y063405D01*
Y062895D01*
D02*
G37*
G36*
X039922Y064752D02*
X03985Y064634D01*
X039786Y064479D01*
X039747Y064317D01*
X039734Y06415D01*
X039747Y063983D01*
X039786Y063821D01*
X03985Y063666D01*
X039912Y063565D01*
X039894Y063518D01*
X039814Y063494D01*
X039684Y063425D01*
X03957Y063331D01*
X039505Y063252D01*
X03944D01*
X039375Y063331D01*
X039261Y063425D01*
X039131Y063494D01*
X039051Y063518D01*
X039033Y063565D01*
X039095Y063666D01*
X039159Y063821D01*
X039198Y063983D01*
X039211Y06415D01*
X039198Y064317D01*
X039159Y064479D01*
X039095Y064634D01*
X039022Y064752D01*
X03905Y064802D01*
X039894D01*
X039922Y064752D01*
D02*
G37*
G36*
X042418Y064782D02*
X042419Y064776D01*
X042422Y064729D01*
X042422Y064716D01*
X04242Y0647D01*
X042438Y064563D01*
X042491Y064435D01*
X042575Y064325D01*
X042685Y064241D01*
X042813Y064188D01*
X04295Y06417D01*
X043087Y064188D01*
X043141Y06421D01*
X043182Y064182D01*
Y063586D01*
X043174Y063579D01*
Y06315D01*
X043024D01*
Y06355D01*
X042993Y063545D01*
X042895Y063505D01*
X04281Y063439D01*
X042804Y063432D01*
X042745Y063438D01*
X042675Y063529D01*
X042564Y063614D01*
X042435Y063668D01*
X042296Y063686D01*
X042157Y063668D01*
X042028Y063614D01*
X041917Y063529D01*
X041832Y063418D01*
X041778Y063289D01*
X04176Y06315D01*
X041778Y063011D01*
X041779Y063009D01*
X041744Y062962D01*
X041626Y062913D01*
X041515Y062828D01*
X04143Y062717D01*
X041377Y062588D01*
X041358Y062449D01*
X041377Y06231D01*
X04143Y062181D01*
X041509Y062079D01*
X041495Y062029D01*
X040309D01*
X040302Y062079D01*
X040389Y062105D01*
X040519Y062175D01*
X040633Y062268D01*
X040726Y062382D01*
X040796Y062512D01*
X040838Y062653D01*
X040853Y0628D01*
X040838Y062946D01*
X040812Y063034D01*
X040848Y063087D01*
X040967Y063097D01*
X041129Y063136D01*
X041284Y0632D01*
X041427Y063287D01*
X041554Y063396D01*
X041663Y063523D01*
X04175Y063666D01*
X041814Y063821D01*
X041853Y063983D01*
X041866Y06415D01*
X041853Y064317D01*
X041814Y064479D01*
X04175Y064634D01*
X041678Y064752D01*
X041706Y064802D01*
X042398D01*
X042418Y064782D01*
D02*
G37*
G36*
X0277Y06425D02*
X027766Y064199D01*
X027843Y064168D01*
X027925Y064157D01*
X028082D01*
Y063586D01*
X028074Y06358D01*
Y06315D01*
X027924D01*
Y06355D01*
X027893Y063545D01*
X027833Y06352D01*
X027823Y063533D01*
X027585Y063771D01*
X027519Y063822D01*
X027442Y063853D01*
X02736Y063864D01*
X026765D01*
X026734Y063903D01*
X026753Y063983D01*
X026766Y06415D01*
X026753Y064317D01*
X026714Y064479D01*
X02665Y064634D01*
X026563Y064777D01*
X026473Y064882D01*
X026496Y064932D01*
X027018D01*
X0277Y06425D01*
D02*
G37*
G36*
X022246Y062971D02*
X022245Y062978D01*
X022242Y062985D01*
X022236Y062991D01*
X022229Y062996D01*
X022219Y063D01*
X022207Y063004D01*
X022193Y063006D01*
X022177Y063008D01*
X022158Y06301D01*
X022138Y06301D01*
Y06309D01*
X022158Y06309D01*
X022193Y063094D01*
X022207Y063096D01*
X022219Y0631D01*
X022229Y063104D01*
X022236Y063109D01*
X022242Y063115D01*
X022245Y063122D01*
X022246Y063129D01*
Y062971D01*
D02*
G37*
G36*
X020755Y063122D02*
X020758Y063115D01*
X020764Y063109D01*
X020771Y063104D01*
X020781Y0631D01*
X020793Y063096D01*
X020807Y063094D01*
X020823Y063092D01*
X020842Y06309D01*
X020862Y06309D01*
Y06301D01*
X020842Y06301D01*
X020807Y063006D01*
X020793Y063004D01*
X020781Y063D01*
X020771Y062996D01*
X020764Y062991D01*
X020758Y062985D01*
X020755Y062978D01*
X020754Y062971D01*
Y063129D01*
X020755Y063122D01*
D02*
G37*
G36*
X024684Y063828D02*
X024686Y063821D01*
X02475Y063666D01*
X024812Y063565D01*
X024794Y063518D01*
X024714Y063494D01*
X024584Y063425D01*
X02447Y063331D01*
X024376Y063217D01*
X024307Y063087D01*
X024264Y062946D01*
X02425Y0628D01*
X024252Y06277D01*
X024203Y062758D01*
X024159Y062865D01*
X024075Y062975D01*
X023965Y063059D01*
X023837Y063112D01*
X0237Y06313D01*
X023563Y063112D01*
X023435Y063059D01*
X023325Y062975D01*
X02327Y062904D01*
X02326Y062892D01*
X023249Y062876D01*
X023243Y062868D01*
X023194D01*
X023166Y06291D01*
X023183Y06295D01*
X023196Y06305D01*
X023183Y06315D01*
X023166Y06319D01*
X023194Y063232D01*
X0239D01*
X023982Y063243D01*
X024059Y063274D01*
X024125Y063325D01*
X024625Y063825D01*
X024635Y063838D01*
X024684Y063828D01*
D02*
G37*
G36*
X043542Y062838D02*
X043546Y062819D01*
X043553Y062799D01*
X043563Y062778D01*
X043576Y062756D01*
X043591Y062733D01*
X043609Y062709D01*
X043653Y062659D01*
X04368Y062632D01*
X043322D01*
X043348Y062659D01*
X043393Y062709D01*
X043411Y062733D01*
X043426Y062756D01*
X043439Y062778D01*
X043448Y062799D01*
X043455Y062819D01*
X043459Y062838D01*
X043461Y062856D01*
X043541D01*
X043542Y062838D01*
D02*
G37*
G36*
X027639D02*
X027643Y062819D01*
X02765Y062799D01*
X02766Y062778D01*
X027672Y062756D01*
X027688Y062733D01*
X027706Y062709D01*
X02775Y062659D01*
X027777Y062632D01*
X027418D01*
X027445Y062659D01*
X027489Y062709D01*
X027508Y062733D01*
X027523Y062756D01*
X027535Y062778D01*
X027545Y062799D01*
X027552Y062819D01*
X027556Y062838D01*
X027558Y062856D01*
X027638D01*
X027639Y062838D01*
D02*
G37*
G36*
X028441Y062838D02*
X028446Y062819D01*
X028453Y062799D01*
X028462Y062778D01*
X028475Y062756D01*
X02849Y062733D01*
X028508Y06271D01*
X028553Y062659D01*
X028579Y062633D01*
X028221Y062631D01*
X028247Y062658D01*
X028292Y062709D01*
X02831Y062733D01*
X028325Y062756D01*
X028338Y062778D01*
X028347Y062799D01*
X028354Y062819D01*
X028359Y062837D01*
X02836Y062855D01*
X02844Y062856D01*
X028441Y062838D01*
D02*
G37*
G36*
X022881Y062622D02*
X022884Y062615D01*
X02289Y062609D01*
X022897Y062604D01*
X022907Y0626D01*
X022919Y062596D01*
X022933Y062594D01*
X022949Y062592D01*
X022968Y06259D01*
X022988Y06259D01*
Y06251D01*
X022968Y06251D01*
X022933Y062506D01*
X022919Y062504D01*
X022907Y0625D01*
X022897Y062496D01*
X02289Y062491D01*
X022884Y062485D01*
X022881Y062478D01*
X02288Y062471D01*
Y062629D01*
X022881Y062622D01*
D02*
G37*
G36*
X02012Y062471D02*
X020119Y062478D01*
X020116Y062485D01*
X02011Y062491D01*
X020103Y062496D01*
X020093Y0625D01*
X020081Y062504D01*
X020067Y062506D01*
X020051Y062508D01*
X020032Y06251D01*
X020012Y06251D01*
Y06259D01*
X020032Y06259D01*
X020067Y062594D01*
X020081Y062596D01*
X020093Y0626D01*
X020103Y062604D01*
X02011Y062609D01*
X020116Y062615D01*
X020119Y062622D01*
X02012Y062629D01*
Y062471D01*
D02*
G37*
G36*
X02356Y062393D02*
X023526Y062415D01*
X023413Y062481D01*
X023389Y062491D01*
X023368Y062499D01*
X023349Y062505D01*
X023332Y062509D01*
X023317Y06251D01*
X0233Y06259D01*
X023319Y062591D01*
X023338Y062596D01*
X023357Y062603D01*
X023376Y062613D01*
X023395Y062626D01*
X023414Y062642D01*
X023433Y062661D01*
X023452Y062683D01*
X023471Y062708D01*
X02349Y062736D01*
X02356Y062393D01*
D02*
G37*
G36*
X021959Y06269D02*
X021943Y06265D01*
X02193Y06255D01*
X021943Y06245D01*
X021959Y06241D01*
X021932Y062368D01*
X021068D01*
X021041Y06241D01*
X021057Y06245D01*
X02107Y06255D01*
X021057Y06265D01*
X021041Y06269D01*
X021068Y062732D01*
X021932D01*
X021959Y06269D01*
D02*
G37*
G36*
X029982Y064935D02*
X029946Y064904D01*
X029837Y064777D01*
X02975Y064634D01*
X029686Y064479D01*
X029647Y064317D01*
X029634Y06415D01*
X029647Y063983D01*
X029686Y063821D01*
X02975Y063666D01*
X029791Y0636D01*
X029766Y063556D01*
X029681D01*
Y063225D01*
X030011D01*
Y06328D01*
X030057Y063301D01*
X030073Y063287D01*
X030216Y0632D01*
X030371Y063136D01*
X030533Y063097D01*
X030652Y063087D01*
X030688Y063034D01*
X030662Y062946D01*
X030647Y0628D01*
X030662Y062653D01*
X030704Y062512D01*
X030774Y062382D01*
X030789Y062364D01*
X030768Y062318D01*
X029785D01*
X029742Y062361D01*
X029741Y06237D01*
X029738Y062419D01*
X029738Y062433D01*
X02974Y062449D01*
X029722Y062588D01*
X029678Y062694D01*
X029707Y062744D01*
X030011D01*
Y063075D01*
X029606D01*
Y06315D01*
X029531D01*
Y063556D01*
X0292D01*
Y063377D01*
X029189Y063372D01*
X02915Y063364D01*
X029092Y063439D01*
X029007Y063505D01*
X028908Y063545D01*
X028877Y06355D01*
Y06315D01*
X028727D01*
Y063578D01*
X028718Y063586D01*
Y064162D01*
X028757Y064168D01*
X028834Y064199D01*
X0289Y06425D01*
X029632Y064982D01*
X029965D01*
X029982Y064935D01*
D02*
G37*
G36*
X02946Y062409D02*
X029464Y062342D01*
X029468Y062312D01*
X029474Y062285D01*
X02948Y062261D01*
X029488Y062239D01*
X029497Y06222D01*
X029508Y062204D01*
X02952Y06219D01*
X029463Y062134D01*
X029449Y062145D01*
X029433Y062156D01*
X029414Y062165D01*
X029392Y062173D01*
X029368Y062179D01*
X029341Y062185D01*
X029311Y062189D01*
X029244Y062193D01*
X029207Y062193D01*
X02946Y062447D01*
X02946Y062409D01*
D02*
G37*
G36*
X036905Y062425D02*
X036908Y062403D01*
X036912Y062382D01*
X036918Y062361D01*
X036926Y062341D01*
X036936Y062321D01*
X036948Y062301D01*
X036962Y062282D01*
X036977Y062263D01*
X036994Y062245D01*
X036853Y062103D01*
X036834Y062121D01*
X036816Y062136D01*
X036796Y06215D01*
X036777Y062161D01*
X036757Y062171D01*
X036736Y062179D01*
X036716Y062186D01*
X036695Y06219D01*
X036673Y062193D01*
X036651Y062193D01*
X036904Y062447D01*
X036905Y062425D01*
D02*
G37*
G36*
X024307Y062512D02*
X024376Y062382D01*
X02447Y062268D01*
X024584Y062175D01*
X024673Y062127D01*
X024683Y062065D01*
X024486Y061868D01*
X023194D01*
X023166Y06191D01*
X023183Y06195D01*
X023196Y06205D01*
X023183Y06215D01*
X023166Y06219D01*
X023194Y062232D01*
X023288D01*
X02338Y062179D01*
X023407Y062161D01*
X023407Y062161D01*
X023407Y062161D01*
X023412Y062158D01*
X023435Y062141D01*
X023563Y062088D01*
X0237Y06207D01*
X023837Y062088D01*
X023965Y062141D01*
X024075Y062225D01*
X024159Y062335D01*
X024212Y062463D01*
X02423Y0626D01*
X024279Y062604D01*
X024307Y062512D01*
D02*
G37*
G36*
X036009Y06225D02*
X035996Y062233D01*
X035984Y062215D01*
X035974Y062196D01*
X035965Y062176D01*
X035958Y062155D01*
X035952Y062133D01*
X035948Y06211D01*
X035946Y062085D01*
X035945Y06206D01*
X035745D01*
X035744Y062085D01*
X035742Y06211D01*
X035738Y062133D01*
X035733Y062155D01*
X035725Y062176D01*
X035717Y062196D01*
X035707Y062215D01*
X035695Y062233D01*
X035681Y06225D01*
X035666Y062266D01*
X036024D01*
X036009Y06225D01*
D02*
G37*
G36*
X026959D02*
X026945Y062233D01*
X026933Y062215D01*
X026923Y062196D01*
X026914Y062176D01*
X026907Y062155D01*
X026902Y062133D01*
X026898Y06211D01*
X026895Y062085D01*
X026894Y06206D01*
X026694D01*
X026694Y062085D01*
X026691Y06211D01*
X026687Y062133D01*
X026682Y062155D01*
X026675Y062176D01*
X026666Y062196D01*
X026656Y062215D01*
X026644Y062233D01*
X02663Y06225D01*
X026615Y062266D01*
X026974D01*
X026959Y06225D01*
D02*
G37*
G36*
X035174Y06223D02*
X035156Y062218D01*
X035141Y062205D01*
X035127Y06219D01*
X035115Y062174D01*
X035105Y062156D01*
X035097Y062136D01*
X035091Y062115D01*
X035086Y062093D01*
X035083Y062069D01*
X035082Y062043D01*
X034882Y062096D01*
X034882Y062121D01*
X034877Y062168D01*
X034873Y062191D01*
X034868Y062213D01*
X034862Y062235D01*
X034854Y062255D01*
X034846Y062275D01*
X034836Y062295D01*
X034825Y062313D01*
X035174Y06223D01*
D02*
G37*
G36*
X03766Y0632D02*
X037815Y063136D01*
X037978Y063097D01*
X038097Y063087D01*
X038133Y063034D01*
X038106Y062946D01*
X038092Y0628D01*
X038106Y062653D01*
X038149Y062512D01*
X038218Y062382D01*
X038312Y062268D01*
X038426Y062175D01*
X038556Y062105D01*
X038642Y062079D01*
X038635Y062029D01*
X037605D01*
X037184Y062449D01*
X037185Y062449D01*
X037169Y062568D01*
X037202Y062618D01*
X037582D01*
Y063197D01*
X037625Y063222D01*
X03766Y0632D01*
D02*
G37*
G36*
X022246Y061971D02*
X022245Y061978D01*
X022242Y061985D01*
X022236Y061991D01*
X022229Y061996D01*
X022219Y062D01*
X022207Y062004D01*
X022193Y062006D01*
X022177Y062008D01*
X022158Y06201D01*
X022138Y06201D01*
Y06209D01*
X022158Y06209D01*
X022193Y062094D01*
X022207Y062096D01*
X022219Y0621D01*
X022229Y062104D01*
X022236Y062109D01*
X022242Y062115D01*
X022245Y062122D01*
X022246Y062129D01*
Y061971D01*
D02*
G37*
G36*
X020755Y062122D02*
X020758Y062115D01*
X020764Y062109D01*
X020771Y062104D01*
X020781Y0621D01*
X020793Y062096D01*
X020807Y062094D01*
X020823Y062092D01*
X020842Y06209D01*
X020862Y06209D01*
Y06201D01*
X020842Y06201D01*
X020807Y062006D01*
X020793Y062004D01*
X020781Y062D01*
X020771Y061996D01*
X020764Y061991D01*
X020758Y061985D01*
X020755Y061978D01*
X020754Y061971D01*
Y062129D01*
X020755Y062122D01*
D02*
G37*
G36*
X033716Y062352D02*
X033721Y06231D01*
X033775Y062181D01*
X03386Y06207D01*
X033971Y061985D01*
X0341Y061931D01*
X034239Y061913D01*
X034264Y061916D01*
X034286Y061872D01*
X033993Y061579D01*
X028568D01*
X02847Y061566D01*
X028379Y061528D01*
X0283Y061468D01*
X027981Y061148D01*
X027931Y061152D01*
X027875Y061225D01*
X027765Y061309D01*
X027637Y061362D01*
X027506Y061379D01*
X027173Y061712D01*
Y062047D01*
X027203Y062062D01*
X027223Y062066D01*
X02733Y061985D01*
X027459Y061931D01*
X027598Y061913D01*
X027736Y061931D01*
X027866Y061985D01*
X027965Y062061D01*
X027999Y062067D01*
X028033Y062061D01*
X028133Y061985D01*
X028262Y061931D01*
X028401Y061913D01*
X02854Y061931D01*
X028669Y061985D01*
X02878Y06207D01*
X028825D01*
X028936Y061985D01*
X029065Y061931D01*
X029204Y061913D01*
X02922Y061915D01*
X029234Y061915D01*
X029284Y061912D01*
X029292Y061911D01*
X029428Y061775D01*
X029494Y061724D01*
X029571Y061693D01*
X029653Y061682D01*
X03285D01*
X032932Y061693D01*
X033009Y061724D01*
X033075Y061775D01*
X033668Y062368D01*
X033716Y062352D01*
D02*
G37*
G36*
X020469Y061447D02*
X020469Y061444D01*
X020568Y061443D01*
X020549Y061441D01*
X020533Y061435D01*
X020517Y061425D01*
X020505Y061411D01*
X020494Y061393D01*
X020484Y061371D01*
X020478Y061347D01*
X02048Y061335D01*
X020485Y061317D01*
X020491Y061303D01*
X020498Y061293D01*
X020506Y061287D01*
X020515Y061285D01*
X02047D01*
X02047Y06128D01*
X020468Y061242D01*
X020268D01*
X020268Y061281D01*
X020267Y061285D01*
X020168D01*
X020187Y061287D01*
X020205Y061293D01*
X02022Y061303D01*
X020233Y061317D01*
X020243Y061335D01*
X020252Y061357D01*
X020255Y061365D01*
X020253Y061372D01*
X020244Y061395D01*
X020233Y061413D01*
X02022Y061427D01*
X020205Y061438D01*
X020188Y061444D01*
X020169Y061446D01*
X020267Y061445D01*
X020268Y061447D01*
X020268Y061485D01*
X020468D01*
X020469Y061447D01*
D02*
G37*
G36*
X02089Y061408D02*
X020885Y061411D01*
X020877Y061414D01*
X020866Y061417D01*
X020853Y061419D01*
X020819Y061422D01*
X020776Y061424D01*
X020721Y061425D01*
X020683Y061725D01*
X020712Y061725D01*
X020781Y06173D01*
X0208Y061733D01*
X020815Y061736D01*
X020829Y06174D01*
X02084Y061745D01*
X020849Y06175D01*
X020855Y061756D01*
X02089Y061408D01*
D02*
G37*
G36*
X022881Y061622D02*
X022884Y061615D01*
X02289Y061609D01*
X022897Y061604D01*
X022907Y0616D01*
X022919Y061596D01*
X022933Y061594D01*
X022949Y061592D01*
X022968Y06159D01*
X022988Y06159D01*
Y06151D01*
X022968Y06151D01*
X022933Y061506D01*
X02292Y061504D01*
X022928Y061493D01*
X022938Y06148D01*
X02295Y061466D01*
X022964Y061451D01*
X022908Y061395D01*
X022893Y061409D01*
X022866Y061431D01*
X022854Y061439D01*
X022844Y061445D01*
X022834Y061449D01*
X022825Y061451D01*
X022817Y06145D01*
X02281Y061448D01*
X022804Y061443D01*
X02288Y06152D01*
Y061629D01*
X022881Y061622D01*
D02*
G37*
G36*
X02309Y06103D02*
X023092Y061016D01*
X023094Y061004D01*
X023096Y060993D01*
X0231Y060984D01*
X023104Y060977D01*
X02311Y060971D01*
X023116Y060967D01*
X023122Y060965D01*
X02313Y060964D01*
X02297D01*
X022978Y060965D01*
X022984Y060967D01*
X02299Y060971D01*
X022996Y060977D01*
X023Y060984D01*
X023004Y060993D01*
X023006Y061004D01*
X023008Y061016D01*
X02301Y06103D01*
X02301Y061045D01*
X02309D01*
X02309Y06103D01*
D02*
G37*
G36*
X027321Y061172D02*
X027339Y061156D01*
X027358Y061143D01*
X027377Y061131D01*
X027396Y061122D01*
X027416Y061114D01*
X027436Y061108D01*
X027456Y061103D01*
X027477Y061101D01*
X027497Y0611D01*
X02725Y060852D01*
X027249Y060873D01*
X027247Y060894D01*
X027242Y060914D01*
X027236Y060934D01*
X027228Y060954D01*
X027219Y060973D01*
X027207Y060992D01*
X027194Y061011D01*
X027178Y061029D01*
X027161Y061047D01*
X027303Y061189D01*
X027321Y061172D01*
D02*
G37*
G36*
X023286Y060653D02*
X023288Y060646D01*
X023292Y06064D01*
X023298Y060635D01*
X023305Y06063D01*
X023314Y060627D01*
X023324Y060624D01*
X023336Y060622D01*
X02335Y060621D01*
X023365Y06062D01*
Y06054D01*
X02335Y06054D01*
X023288Y060537D01*
X023286Y060536D01*
X023285Y060535D01*
Y06066D01*
X023286Y060653D01*
D02*
G37*
G36*
X044916Y060372D02*
X0449Y060387D01*
X044883Y060401D01*
X044865Y060413D01*
X044846Y060423D01*
X044826Y060432D01*
X044805Y060439D01*
X044783Y060444D01*
X04476Y060448D01*
X044735Y060451D01*
X04471Y060452D01*
Y060652D01*
X044735Y060652D01*
X04476Y060655D01*
X044783Y060659D01*
X044805Y060664D01*
X044826Y060671D01*
X044846Y06068D01*
X044865Y06069D01*
X044883Y060702D01*
X0449Y060716D01*
X044916Y060731D01*
Y060372D01*
D02*
G37*
G36*
X032761D02*
X032745Y060387D01*
X032728Y060401D01*
X03271Y060413D01*
X032691Y060423D01*
X032671Y060432D01*
X032649Y060439D01*
X032627Y060444D01*
X032604Y060448D01*
X03258Y060451D01*
X032555Y060452D01*
Y060652D01*
X03258Y060652D01*
X032604Y060655D01*
X032627Y060659D01*
X032649Y060664D01*
X032671Y060671D01*
X032691Y06068D01*
X03271Y06069D01*
X032728Y060702D01*
X032745Y060716D01*
X032761Y060731D01*
Y060372D01*
D02*
G37*
G36*
X026411Y062822D02*
X02633Y062717D01*
X026277Y062588D01*
X026258Y062449D01*
X026277Y06231D01*
X02633Y062181D01*
X026415Y06207D01*
X026416Y06207D01*
Y061556D01*
X026429Y061457D01*
X026466Y061366D01*
X026527Y061288D01*
X026971Y060844D01*
X026988Y060713D01*
X027041Y060585D01*
X027125Y060475D01*
X027158Y06045D01*
X027161Y0604D01*
X02699Y060229D01*
X02688D01*
X026858Y060274D01*
X026865Y060284D01*
X026919Y060413D01*
X026937Y060552D01*
X026919Y06069D01*
X026865Y06082D01*
X02678Y060931D01*
X026669Y061016D01*
X02654Y061069D01*
X026401Y061088D01*
X026262Y061069D01*
X026133Y061016D01*
X026022Y060931D01*
X025975Y06087D01*
X025925D01*
X025878Y060931D01*
X025767Y061016D01*
X025638Y061069D01*
X025499Y061088D01*
X02536Y061069D01*
X025231Y061016D01*
X02512Y060931D01*
X025035Y06082D01*
X024981Y06069D01*
X024963Y060552D01*
X024981Y060413D01*
X025035Y060284D01*
X025042Y060274D01*
X02502Y060229D01*
X02475D01*
X024639Y060215D01*
X024535Y060172D01*
X024446Y060104D01*
X024146Y059804D01*
X024078Y059715D01*
X024035Y059611D01*
X024021Y0595D01*
Y058475D01*
X023971Y058471D01*
X023962Y058537D01*
X023909Y058665D01*
X023825Y058775D01*
X023812Y058785D01*
X023803Y058794D01*
X023772Y058829D01*
X023768Y058834D01*
Y06058D01*
X023757Y060663D01*
X023726Y060739D01*
X023675Y060805D01*
X023609Y060856D01*
X023562Y060876D01*
Y061232D01*
X024618D01*
X0247Y061243D01*
X024777Y061274D01*
X024843Y061325D01*
X026373Y062855D01*
X026411Y062822D01*
D02*
G37*
G36*
X027912Y060402D02*
X0277Y060182D01*
X02755Y060332D01*
X027554Y060334D01*
X027562Y06034D01*
X027589Y060366D01*
X02777Y060544D01*
X027912Y060402D01*
D02*
G37*
G36*
X039661Y060356D02*
X039648Y06034D01*
X039637Y060323D01*
X039627Y060304D01*
X039619Y060285D01*
X039612Y060264D01*
X039607Y060242D01*
X039603Y06022D01*
X039601Y060196D01*
X0396Y060171D01*
X0394D01*
X039399Y060196D01*
X039397Y06022D01*
X039393Y060242D01*
X039388Y060264D01*
X039381Y060285D01*
X039373Y060304D01*
X039363Y060323D01*
X039352Y06034D01*
X039339Y060356D01*
X039325Y060371D01*
X039675D01*
X039661Y060356D01*
D02*
G37*
G36*
X03765Y060397D02*
X03764Y060378D01*
X037631Y060358D01*
X037624Y060337D01*
X037618Y060316D01*
X037613Y060294D01*
X037609Y060271D01*
X037606Y060247D01*
X037603Y060198D01*
X037403Y060147D01*
X037402Y060172D01*
X0374Y060196D01*
X037395Y060218D01*
X037389Y060239D01*
X037381Y060258D01*
X037371Y060276D01*
X037359Y060292D01*
X037345Y060307D01*
X037329Y06032D01*
X037312Y060332D01*
X037661Y060416D01*
X03765Y060397D01*
D02*
G37*
G36*
X04353Y060921D02*
X043502Y060918D01*
X043411Y06088D01*
X043332Y060819D01*
X042592Y060079D01*
X04184D01*
X041823Y060129D01*
X04188Y060173D01*
X041965Y060284D01*
X042019Y060413D01*
X042037Y060552D01*
X042019Y06069D01*
X041965Y06082D01*
X041887Y060921D01*
X041902Y060971D01*
X043527D01*
X04353Y060921D01*
D02*
G37*
G36*
X032085Y060771D02*
X031343Y060029D01*
X031158D01*
X031148Y060079D01*
X031169Y060087D01*
X03128Y060173D01*
X031365Y060284D01*
X031419Y060413D01*
X031437Y060552D01*
X031419Y06069D01*
X031385Y060771D01*
X031419Y060821D01*
X032065D01*
X032085Y060771D01*
D02*
G37*
G36*
X029515Y060771D02*
X029481Y06069D01*
X029463Y060552D01*
X029481Y060413D01*
X029535Y060284D01*
X02962Y060173D01*
X029731Y060087D01*
X029752Y060079D01*
X029742Y060029D01*
X028008D01*
X027987Y060079D01*
X028081Y060177D01*
X028725Y060821D01*
X029481D01*
X029515Y060771D01*
D02*
G37*
G36*
X035466Y062034D02*
Y0618D01*
X035479Y061702D01*
X035517Y061611D01*
X035577Y061532D01*
X036027Y061082D01*
X036106Y061022D01*
X036197Y060984D01*
X036295Y060971D01*
X037042D01*
X037057Y060921D01*
X036979Y06082D01*
X036926Y06069D01*
X036908Y060552D01*
X036926Y060413D01*
X036979Y060284D01*
X037065Y060173D01*
X037127Y060124D01*
X037137Y060049D01*
X037175Y059957D01*
X037235Y059879D01*
X037532Y059582D01*
X037611Y059522D01*
X037702Y059484D01*
X0378Y059471D01*
X038043D01*
X040082Y057432D01*
X040161Y057372D01*
X040252Y057334D01*
X04035Y057321D01*
X040934D01*
X040951Y057271D01*
X040891Y057225D01*
X040807Y057115D01*
X040754Y056987D01*
X040736Y05685D01*
Y05635D01*
X040754Y056213D01*
X040807Y056085D01*
X040891Y055975D01*
X041001Y055891D01*
X041129Y055838D01*
X041266Y05582D01*
X042734D01*
X042871Y055838D01*
X042999Y055891D01*
X043071Y055946D01*
X043121Y055921D01*
Y051279D01*
X043071Y051254D01*
X042999Y051309D01*
X042871Y051362D01*
X042734Y05138D01*
X041266D01*
X041129Y051362D01*
X041001Y051309D01*
X040891Y051225D01*
X040807Y051115D01*
X040754Y050987D01*
X040736Y05085D01*
Y05035D01*
X040754Y050213D01*
X040807Y050085D01*
X040891Y049975D01*
X041001Y049891D01*
X041129Y049838D01*
X041266Y04982D01*
X042734D01*
X042871Y049838D01*
X042999Y049891D01*
X043071Y049946D01*
X043121Y049921D01*
Y049279D01*
X043071Y049254D01*
X042999Y049309D01*
X042871Y049362D01*
X042734Y04938D01*
X041266D01*
X041129Y049362D01*
X041001Y049309D01*
X040891Y049225D01*
X040807Y049115D01*
X040754Y048987D01*
X040736Y04885D01*
Y04835D01*
X040754Y048213D01*
X040807Y048085D01*
X040891Y047975D01*
X041001Y047891D01*
X041129Y047838D01*
X041266Y04782D01*
X042734D01*
X042871Y047838D01*
X042999Y047891D01*
X043071Y047946D01*
X043121Y047921D01*
Y043958D01*
Y043429D01*
X043071Y043404D01*
X042999Y043459D01*
X042871Y043512D01*
X042734Y04353D01*
X041266D01*
X041129Y043512D01*
X041001Y043459D01*
X040891Y043375D01*
X040807Y043265D01*
X040754Y043137D01*
X040736Y043D01*
Y0425D01*
X040754Y042363D01*
X040807Y042235D01*
X040891Y042125D01*
X041001Y042041D01*
X041129Y041988D01*
X041266Y04197D01*
X042734D01*
X042871Y041988D01*
X042999Y042041D01*
X043071Y042096D01*
X043121Y042071D01*
Y041429D01*
X043071Y041404D01*
X042999Y041459D01*
X042871Y041512D01*
X042734Y04153D01*
X041266D01*
X041129Y041512D01*
X041001Y041459D01*
X040891Y041375D01*
X040807Y041265D01*
X040754Y041137D01*
X040736Y041D01*
Y0405D01*
X040754Y040363D01*
X040807Y040235D01*
X040891Y040125D01*
X041001Y040041D01*
X041129Y039988D01*
X041266Y03997D01*
X042734D01*
X042871Y039988D01*
X042999Y040041D01*
X043071Y040096D01*
X043121Y040071D01*
Y0359D01*
X043134Y035802D01*
X043172Y035711D01*
X043232Y035632D01*
X043686Y035179D01*
Y03475D01*
X043704Y034613D01*
X043757Y034485D01*
X043841Y034375D01*
X043951Y034291D01*
X044079Y034238D01*
X044216Y03422D01*
X045684D01*
X045821Y034238D01*
X045949Y034291D01*
X046059Y034375D01*
X046064Y034382D01*
X046112Y034366D01*
Y033634D01*
X046064Y033618D01*
X046059Y033625D01*
X045949Y033709D01*
X045821Y033762D01*
X045684Y03378D01*
X044216D01*
X044079Y033762D01*
X043951Y033709D01*
X043841Y033625D01*
X043757Y033515D01*
X043704Y033387D01*
X043686Y03325D01*
Y03275D01*
X043704Y032613D01*
X043757Y032485D01*
X043841Y032375D01*
X043951Y032291D01*
X044079Y032238D01*
X044216Y03222D01*
X045684D01*
X045821Y032238D01*
X045949Y032291D01*
X046059Y032375D01*
X046064Y032382D01*
X046112Y032366D01*
Y03D01*
X046123Y029912D01*
X046157Y029831D01*
X046211Y029761D01*
X046461Y02951D01*
X046531Y029457D01*
X046613Y029423D01*
X0467Y029411D01*
X046737D01*
Y029258D01*
X048401D01*
X048435Y029221D01*
X047893Y028679D01*
X042679D01*
Y03222D01*
X042734D01*
X042871Y032238D01*
X042999Y032291D01*
X043109Y032375D01*
X043193Y032485D01*
X043246Y032613D01*
X043264Y03275D01*
Y03325D01*
X043246Y033387D01*
X043193Y033515D01*
X043109Y033625D01*
X042999Y033709D01*
X042871Y033762D01*
X042734Y03378D01*
X041266D01*
X041129Y033762D01*
X041001Y033709D01*
X040891Y033625D01*
X040807Y033515D01*
X040754Y033387D01*
X040736Y03325D01*
Y03275D01*
X040754Y032613D01*
X040807Y032485D01*
X040891Y032375D01*
X041001Y032291D01*
X041129Y032238D01*
X041266Y03222D01*
X041921D01*
Y028679D01*
X034929D01*
Y032241D01*
X035049Y032291D01*
X035159Y032375D01*
X035243Y032485D01*
X035296Y032613D01*
X035314Y03275D01*
Y03325D01*
X035296Y033387D01*
X035243Y033515D01*
X035159Y033625D01*
X035049Y033709D01*
X034921Y033762D01*
X034784Y03378D01*
X033316D01*
X033179Y033762D01*
X033051Y033709D01*
X032941Y033625D01*
X032857Y033515D01*
X032804Y033387D01*
X032786Y03325D01*
Y03275D01*
X032804Y032613D01*
X032857Y032485D01*
X032941Y032375D01*
X033051Y032291D01*
X033179Y032238D01*
X033316Y03222D01*
X034171D01*
Y028679D01*
X027929D01*
Y032321D01*
X027979Y032346D01*
X028051Y032291D01*
X028179Y032238D01*
X028316Y03222D01*
X029784D01*
X029921Y032238D01*
X030049Y032291D01*
X030067Y032304D01*
X030112Y032282D01*
Y0302D01*
X030123Y030112D01*
X030157Y030031D01*
X030211Y029961D01*
X030711Y029461D01*
X030781Y029407D01*
X030862Y029373D01*
X030937Y029363D01*
Y029208D01*
X032603D01*
Y029906D01*
X032605Y029915D01*
X032603Y029923D01*
X032604Y029932D01*
X032603Y029935D01*
Y030192D01*
X032626Y030199D01*
Y030467D01*
X032627Y030476D01*
X032626Y030485D01*
Y031301D01*
X031574D01*
Y031175D01*
X031359D01*
X031359Y031171D01*
X031366Y031132D01*
X031375Y031099D01*
X031386Y031072D01*
X031398Y031051D01*
X031413Y031036D01*
X03143Y031027D01*
X031449Y031024D01*
X031275D01*
Y03075D01*
X031125D01*
Y031024D01*
X030951D01*
X03097Y031027D01*
X030987Y031036D01*
X031002Y031051D01*
X031014Y031072D01*
X031025Y031099D01*
X031034Y031132D01*
X031041Y031171D01*
X031042Y031175D01*
X0308D01*
X030788Y03122D01*
Y035737D01*
X03081Y035763D01*
X030813Y035766D01*
X030825Y035775D01*
X030909Y035885D01*
X030962Y036013D01*
X03098Y03615D01*
X030962Y036287D01*
X030909Y036415D01*
X030825Y036525D01*
X030715Y036609D01*
X030587Y036662D01*
X03045Y03668D01*
X030313Y036662D01*
X030185Y036609D01*
X030075Y036525D01*
X029991Y036415D01*
X029938Y036287D01*
X02992Y03615D01*
X029938Y036013D01*
X029991Y035885D01*
X030075Y035775D01*
X030087Y035766D01*
X03009Y035763D01*
X030093Y035758D01*
X030091Y03574D01*
X030071Y035726D01*
X030041Y035713D01*
X029921Y035762D01*
X029784Y03578D01*
X029479D01*
Y038472D01*
X029584Y038577D01*
X029631Y038561D01*
X029638Y038508D01*
X029691Y03838D01*
X029775Y038271D01*
X029787Y038261D01*
X029793Y038256D01*
X029803Y038245D01*
X02981Y038236D01*
X029812Y038233D01*
Y03805D01*
X029823Y037962D01*
X029857Y037881D01*
X029911Y037811D01*
X030161Y037561D01*
X030231Y037507D01*
X030312Y037473D01*
X0304Y037462D01*
X030867D01*
Y037308D01*
X031981D01*
X032018Y037293D01*
X0321Y037282D01*
X032182Y037293D01*
X032219Y037308D01*
X032533D01*
Y038006D01*
X032534Y038015D01*
X032534Y038018D01*
X032534Y038021D01*
X032534Y038049D01*
X032573Y038099D01*
X032676D01*
Y038367D01*
X032677Y038376D01*
X032676Y038385D01*
Y039201D01*
X031624D01*
Y039089D01*
X031711Y039074D01*
X031646Y039007D01*
X031545Y038889D01*
X03151Y038838D01*
X031483Y038793D01*
X031467Y038754D01*
X03146Y038719D01*
X031464Y038691D01*
X031476Y038667D01*
X031499Y03865D01*
X031325Y038745D01*
Y03865D01*
X03125D01*
Y038575D01*
X03085D01*
Y038225D01*
X030867D01*
Y038138D01*
X03054D01*
X030488Y03819D01*
Y038233D01*
X03051Y038258D01*
X030513Y038261D01*
X030525Y038271D01*
X030609Y03838D01*
X030662Y038508D01*
X03068Y038646D01*
X030662Y038783D01*
X030609Y038911D01*
X030525Y03902D01*
X030415Y039105D01*
X030287Y039158D01*
X030235Y039165D01*
X030219Y039212D01*
X031104Y040096D01*
X031172Y040185D01*
X031197Y040246D01*
X031215Y040289D01*
X031229Y0404D01*
X031229Y0404D01*
Y0421D01*
X031215Y042211D01*
X031172Y042315D01*
X031104Y042404D01*
X030604Y042904D01*
X030515Y042972D01*
X030411Y043015D01*
X030311Y043028D01*
X030296Y043137D01*
X030243Y043265D01*
X030159Y043375D01*
X030049Y043459D01*
X029921Y043512D01*
X029784Y04353D01*
X029454D01*
Y044996D01*
X030754Y046297D01*
X0308Y046278D01*
Y046075D01*
X030867D01*
Y045214D01*
X030791Y045115D01*
X030738Y044987D01*
X03072Y04485D01*
X030738Y044713D01*
X030791Y044585D01*
X030875Y044475D01*
X030985Y044391D01*
X031113Y044338D01*
X03125Y04432D01*
X031387Y044338D01*
X031515Y044391D01*
X031625Y044475D01*
X031709Y044585D01*
X031762Y044713D01*
X03178Y04485D01*
X031762Y044987D01*
X031729Y045066D01*
X031757Y045108D01*
X032533D01*
Y045949D01*
X032626D01*
Y046217D01*
X032627Y046226D01*
X032626Y046235D01*
Y047051D01*
X032375D01*
X032315Y047097D01*
X032211Y04714D01*
X0321Y047154D01*
X031989Y04714D01*
X031885Y047097D01*
X031825Y047051D01*
X031574D01*
Y046925D01*
X031359D01*
X031359Y046921D01*
X031366Y046882D01*
X031375Y046849D01*
X031386Y046822D01*
X031398Y046801D01*
X031413Y046786D01*
X03143Y046777D01*
X031449Y046774D01*
X031275D01*
Y0465D01*
X031125D01*
Y046774D01*
X030951D01*
X03097Y046777D01*
X030987Y046786D01*
X031002Y046801D01*
X031014Y046822D01*
X031025Y046849D01*
X031034Y046882D01*
X031041Y046921D01*
X031042Y046925D01*
X031029D01*
Y0506D01*
X031015Y050711D01*
X030972Y050815D01*
X030904Y050904D01*
X030815Y050972D01*
X030711Y051015D01*
X0306Y051029D01*
X03029D01*
X030278Y05103D01*
X030243Y051115D01*
X030159Y051225D01*
X030049Y051309D01*
X029921Y051362D01*
X029784Y05138D01*
X029479D01*
Y051522D01*
X030732Y052775D01*
X030791Y052763D01*
X030828Y052672D01*
X030913Y052563D01*
X031022Y052478D01*
X03115Y052425D01*
X031288Y052407D01*
X031425Y052425D01*
X031553Y052478D01*
X031662Y052563D01*
X031747Y052672D01*
X0318Y0528D01*
X031814Y052908D01*
X032533D01*
Y053606D01*
X032534Y053615D01*
X032533Y053624D01*
Y05363D01*
X032533Y053637D01*
X032533Y053638D01*
Y053799D01*
X032626D01*
Y054901D01*
X032235D01*
X032198Y054916D01*
X0321Y054929D01*
X032002Y054916D01*
X031965Y054901D01*
X031574D01*
Y054775D01*
X031449D01*
X031449Y054624D01*
X031275D01*
Y05435D01*
X031125D01*
Y054624D01*
X031D01*
X031028Y054627D01*
X031054Y054636D01*
X031077Y054651D01*
X031096Y054672D01*
X031112Y054699D01*
X031125Y054729D01*
Y054775D01*
X031029D01*
Y056884D01*
X03103Y056897D01*
X031059Y056935D01*
X031112Y057063D01*
X03113Y0572D01*
X031112Y057337D01*
X031059Y057465D01*
X03103Y057503D01*
X031029Y057516D01*
Y057675D01*
Y058424D01*
X031015Y058535D01*
X030972Y058639D01*
X030904Y058728D01*
X030728Y058904D01*
X030639Y058972D01*
X030535Y059015D01*
X030424Y059029D01*
X03029D01*
X030278Y05903D01*
X030243Y059115D01*
X030162Y059221D01*
X030167Y059248D01*
X030175Y059271D01*
X0315D01*
X031598Y059284D01*
X031689Y059322D01*
X031768Y059382D01*
X032527Y060141D01*
X032565Y060173D01*
X032676Y060087D01*
X032805Y060034D01*
X032944Y060015D01*
X033082Y060034D01*
X033212Y060087D01*
X033323Y060173D01*
X033369Y060233D01*
X033419D01*
X033466Y060173D01*
X033577Y060087D01*
X033707Y060034D01*
X033845Y060015D01*
X033984Y060034D01*
X034113Y060087D01*
X034224Y060173D01*
X03431Y060284D01*
X034363Y060413D01*
X034381Y060552D01*
X034363Y06069D01*
X03431Y06082D01*
X034322Y060865D01*
X034339Y060872D01*
X034418Y060932D01*
X03525Y061765D01*
X035311Y061843D01*
X035348Y061934D01*
X03536Y062023D01*
X03541Y062061D01*
X035423Y062064D01*
X035466Y062034D01*
D02*
G37*
G36*
X051321Y060843D02*
Y06005D01*
Y058908D01*
X051271Y058898D01*
X051243Y058965D01*
X051159Y059075D01*
X051049Y059159D01*
X050921Y059212D01*
X050784Y05923D01*
X049316D01*
X049179Y059212D01*
X04912Y059188D01*
X049079Y059216D01*
Y06075D01*
X049066Y060848D01*
X049028Y060939D01*
X048968Y061018D01*
X048761Y061225D01*
X04878Y061271D01*
X050893D01*
X051321Y060843D01*
D02*
G37*
G36*
X023491Y058779D02*
X023495Y058761D01*
X023502Y058741D01*
X023512Y058721D01*
X023524Y058699D01*
X023539Y058677D01*
X023556Y058654D01*
X023599Y058605D01*
X023625Y058579D01*
X023275D01*
X023301Y058605D01*
X023344Y058654D01*
X023361Y058677D01*
X023376Y058699D01*
X023388Y058721D01*
X023398Y058741D01*
X023405Y058761D01*
X023409Y058779D01*
X02341Y058797D01*
X02349D01*
X023491Y058779D01*
D02*
G37*
G36*
X030031Y058871D02*
X03004Y058846D01*
X030055Y058823D01*
X030077Y058804D01*
X030105Y058787D01*
X030138Y058774D01*
X030178Y058763D01*
X030224Y058756D01*
X030276Y058752D01*
X030334Y05875D01*
Y05845D01*
X030276Y058449D01*
X030224Y058444D01*
X030178Y058437D01*
X030138Y058426D01*
X030105Y058413D01*
X030077Y058396D01*
X030055Y058377D01*
X03004Y058354D01*
X030031Y058329D01*
X030028Y0583D01*
Y0589D01*
X030031Y058871D01*
D02*
G37*
G36*
X044067Y05825D02*
X044065Y058269D01*
X044059Y058286D01*
X044049Y058301D01*
X044035Y058314D01*
X044017Y058325D01*
X043995Y058334D01*
X043968Y058341D01*
X043938Y058346D01*
X043904Y058349D01*
X043866Y05835D01*
Y05855D01*
X043904Y058551D01*
X043938Y058554D01*
X043968Y058559D01*
X043995Y058566D01*
X044017Y058575D01*
X044035Y058586D01*
X044049Y058599D01*
X044059Y058614D01*
X044065Y058631D01*
X044067Y05865D01*
Y05825D01*
D02*
G37*
G36*
X039117Y060948D02*
X039122Y060921D01*
X039041Y060815D01*
X038988Y060687D01*
X03897Y06055D01*
X038988Y060413D01*
X039041Y060285D01*
X039121Y06018D01*
Y0599D01*
X039134Y059802D01*
X039172Y059711D01*
X039232Y059632D01*
X039432Y059432D01*
X039432Y059432D01*
X039511Y059372D01*
X039602Y059334D01*
X0397Y059321D01*
X0397Y059321D01*
X040934D01*
X040951Y059271D01*
X040891Y059225D01*
X040807Y059115D01*
X040754Y058987D01*
X040736Y05885D01*
Y05835D01*
X040754Y058213D01*
X040788Y058129D01*
X040755Y058079D01*
X040507D01*
X038564Y060022D01*
X038574Y060071D01*
X038613Y060087D01*
X038724Y060173D01*
X03881Y060284D01*
X038863Y060413D01*
X038881Y060552D01*
X038863Y06069D01*
X03881Y06082D01*
X038732Y060921D01*
X038747Y060971D01*
X039109D01*
X039117Y060948D01*
D02*
G37*
G36*
X051321Y057992D02*
Y057157D01*
X051221Y057056D01*
X051171Y05706D01*
X051159Y057075D01*
X051049Y057159D01*
X050921Y057212D01*
X050784Y05723D01*
X049316D01*
X049179Y057212D01*
X04912Y057188D01*
X049079Y057216D01*
Y057684D01*
X04912Y057712D01*
X049179Y057688D01*
X049316Y05767D01*
X050784D01*
X050921Y057688D01*
X051049Y057741D01*
X051159Y057825D01*
X051243Y057935D01*
X051271Y058002D01*
X051321Y057992D01*
D02*
G37*
G36*
X017081Y05741D02*
X017075Y05741D01*
X017069Y057409D01*
X017061Y057405D01*
X017052Y0574D01*
X017042Y057393D01*
X01703Y057384D01*
X017003Y05736D01*
X016971Y057329D01*
X016829Y057471D01*
X016846Y057487D01*
X016893Y057542D01*
X0169Y057552D01*
X016905Y057561D01*
X016909Y057569D01*
X01691Y057575D01*
X01691Y057581D01*
X017081Y05741D01*
D02*
G37*
G36*
X0436Y0577D02*
X0434Y0574D01*
X043398Y057438D01*
X043392Y057472D01*
X043382Y057502D01*
X043368Y057528D01*
X04335Y05755D01*
X043328Y057568D01*
X043302Y057582D01*
X043272Y057592D01*
X043238Y057598D01*
X0432Y0576D01*
Y0578D01*
X043238Y057802D01*
X043272Y057808D01*
X043302Y057818D01*
X043328Y057832D01*
X04335Y05785D01*
X043368Y057872D01*
X043382Y057898D01*
X043392Y057928D01*
X043398Y057962D01*
X0434Y058D01*
X0436Y0577D01*
D02*
G37*
G36*
X028051Y057891D02*
X028179Y057838D01*
X028316Y05782D01*
X029784D01*
X029921Y057838D01*
X030049Y057891D01*
X030121Y057946D01*
X030171Y057921D01*
Y057504D01*
X030141Y057465D01*
X03009Y057341D01*
X030083Y057334D01*
X030035Y057315D01*
X029921Y057362D01*
X029784Y05738D01*
X028316D01*
X028179Y057362D01*
X028051Y057309D01*
X027979Y057254D01*
X027929Y057279D01*
Y057921D01*
X027979Y057946D01*
X028051Y057891D01*
D02*
G37*
G36*
X024991Y057975D02*
X025101Y057891D01*
X025229Y057838D01*
X025366Y05782D01*
X026834D01*
X026971Y057838D01*
X027099Y057891D01*
X027126Y057912D01*
X027171Y05789D01*
Y05731D01*
X027126Y057288D01*
X027099Y057309D01*
X026971Y057362D01*
X026834Y05738D01*
X025366D01*
X025229Y057362D01*
X025101Y057309D01*
X024991Y057225D01*
X024929Y057145D01*
X024879Y057162D01*
Y058038D01*
X024929Y058055D01*
X024991Y057975D01*
D02*
G37*
G36*
X03075Y057522D02*
X030756Y057434D01*
X030759Y057418D01*
X030762Y057404D01*
X030766Y057393D01*
X03077Y057385D01*
X030775Y057379D01*
X0306Y0572D01*
X030775Y057021D01*
X03077Y057015D01*
X030766Y057007D01*
X030762Y056996D01*
X030759Y056982D01*
X030756Y056966D01*
X03075Y056878D01*
X03075Y05685D01*
X03045D01*
X03045Y056878D01*
X030448Y056927D01*
X030444Y056966D01*
X030441Y056982D01*
X030438Y056996D01*
X030434Y057007D01*
X03043Y057015D01*
X030425Y057021D01*
X0306Y0572D01*
X030425Y057379D01*
X03043Y057385D01*
X030434Y057393D01*
X030438Y057404D01*
X030441Y057418D01*
X030444Y057434D01*
X030448Y057473D01*
X03045Y057522D01*
X03045Y05755D01*
X03075D01*
X03075Y057522D01*
D02*
G37*
G36*
X017614Y056612D02*
X017544Y056402D01*
X017541Y056385D01*
X01754Y056371D01*
X01746Y056357D01*
X017459Y056377D01*
X017454Y056396D01*
X017447Y056415D01*
X017436Y056432D01*
X017423Y056448D01*
X017406Y056464D01*
X017387Y056478D01*
X017365Y056492D01*
X017339Y056505D01*
X017311Y056516D01*
X017632Y056656D01*
X017614Y056612D01*
D02*
G37*
G36*
X050344Y056561D02*
X05036Y056548D01*
X050377Y056537D01*
X050396Y056527D01*
X050415Y056519D01*
X050436Y056512D01*
X050458Y056507D01*
X05048Y056503D01*
X050504Y056501D01*
X050529Y0565D01*
Y0563D01*
X050504Y056299D01*
X05048Y056297D01*
X050458Y056293D01*
X050436Y056288D01*
X050415Y056281D01*
X050396Y056273D01*
X050377Y056263D01*
X05036Y056252D01*
X050344Y056239D01*
X050329Y056225D01*
Y056575D01*
X050344Y056561D01*
D02*
G37*
G36*
X01754Y055722D02*
X017542Y055708D01*
X017544Y055696D01*
X017546Y055685D01*
X01755Y055676D01*
X017554Y055669D01*
X01756Y055664D01*
X017566Y05566D01*
X017572Y055657D01*
X01758Y055657D01*
X01742Y055652D01*
X017428Y055653D01*
X017435Y055656D01*
X017441Y05566D01*
X017446Y055666D01*
X01745Y055674D01*
X017454Y055683D01*
X017456Y055695D01*
X017458Y055707D01*
X01746Y055722D01*
X01746Y055738D01*
X01754D01*
X01754Y055722D01*
D02*
G37*
G36*
X020212Y055137D02*
X020223Y055131D01*
X020235Y055126D01*
X020248Y055122D01*
X020263Y055118D01*
X020279Y055115D01*
X020316Y055111D01*
X020336Y05511D01*
X020357Y05511D01*
Y05499D01*
X020336Y05499D01*
X020297Y054987D01*
X020279Y054985D01*
X020248Y054978D01*
X020235Y054974D01*
X020223Y054969D01*
X020212Y054963D01*
X020202Y054956D01*
Y055144D01*
X020212Y055137D01*
D02*
G37*
G36*
X017424Y054946D02*
X01742Y054947D01*
X017412Y054947D01*
X017366Y054949D01*
X017213Y05495D01*
Y05515D01*
X017424Y055154D01*
Y054946D01*
D02*
G37*
G36*
X018094Y054622D02*
X018098Y054615D01*
X018103Y054609D01*
X018111Y054604D01*
X01812Y0546D01*
X018132Y054596D01*
X018146Y054594D01*
X018163Y054592D01*
X018181Y05459D01*
X018202Y05459D01*
Y05451D01*
X018181Y05451D01*
X018146Y054506D01*
X018132Y054504D01*
X01812Y0545D01*
X018111Y054496D01*
X018103Y054491D01*
X018098Y054485D01*
X018094Y054478D01*
X018093Y054471D01*
Y054629D01*
X018094Y054622D01*
D02*
G37*
G36*
X020212Y054637D02*
X020223Y054631D01*
X020235Y054626D01*
X020248Y054622D01*
X020263Y054618D01*
X020279Y054615D01*
X020316Y054611D01*
X020336Y05461D01*
X020357Y05461D01*
Y05449D01*
X020336Y05449D01*
X020297Y054487D01*
X020279Y054485D01*
X020248Y054478D01*
X020235Y054474D01*
X020223Y054469D01*
X020212Y054463D01*
X020202Y054456D01*
Y054644D01*
X020212Y054637D01*
D02*
G37*
G36*
X017381Y053971D02*
X01738Y053978D01*
X017376Y053985D01*
X017371Y053991D01*
X017363Y053996D01*
X017354Y054D01*
X017342Y054004D01*
X017328Y054006D01*
X017311Y054008D01*
X017293Y05401D01*
X017272Y05401D01*
Y05409D01*
X017293Y05409D01*
X017328Y054094D01*
X017342Y054096D01*
X017354Y0541D01*
X017363Y054104D01*
X017371Y054109D01*
X017376Y054115D01*
X01738Y054122D01*
X017381Y054129D01*
Y053971D01*
D02*
G37*
G36*
X020212Y054137D02*
X020223Y054131D01*
X020235Y054126D01*
X020248Y054122D01*
X020263Y054118D01*
X020279Y054115D01*
X020316Y054111D01*
X020336Y05411D01*
X020357Y05411D01*
Y05399D01*
X020336Y05399D01*
X020297Y053987D01*
X020279Y053985D01*
X020248Y053978D01*
X020235Y053974D01*
X020223Y053969D01*
X020212Y053963D01*
X020202Y053956D01*
Y054144D01*
X020212Y054137D01*
D02*
G37*
G36*
X048158Y054076D02*
X048165Y054074D01*
X048172Y054068D01*
X048177Y054058D01*
X048182Y054044D01*
X048186Y054027D01*
X04819Y054005D01*
X048194Y053949D01*
X048196Y053878D01*
X047896D01*
X047895Y053916D01*
X047888Y054005D01*
X047884Y054027D01*
X047878Y054045D01*
X047872Y054059D01*
X047865Y054069D01*
X047856Y054075D01*
X047847Y054077D01*
X048158Y054076D01*
D02*
G37*
G36*
X032281Y054075D02*
X032264Y054069D01*
X032249Y054059D01*
X032236Y054045D01*
X032225Y054027D01*
X032216Y054005D01*
X032209Y053979D01*
X032204Y053949D01*
X032201Y053914D01*
X0322Y053876D01*
X032D01*
X031999Y053914D01*
X031996Y053949D01*
X031991Y053979D01*
X031984Y054005D01*
X031975Y054027D01*
X031964Y054045D01*
X031951Y054059D01*
X031936Y054069D01*
X031919Y054075D01*
X0319Y054077D01*
X0323D01*
X032281Y054075D01*
D02*
G37*
G36*
X024431Y054075D02*
X024414Y054069D01*
X024399Y054059D01*
X024386Y054045D01*
X024375Y054027D01*
X024366Y054005D01*
X024359Y053979D01*
X024354Y053949D01*
X024351Y053914D01*
X02435Y053876D01*
X02415D01*
X024149Y053914D01*
X024146Y053948D01*
X024141Y053978D01*
X024134Y054004D01*
X024125Y054026D01*
X024114Y054044D01*
X024102Y054058D01*
X024087Y054068D01*
X02407Y054074D01*
X024051Y054076D01*
X02445Y054077D01*
X024431Y054075D01*
D02*
G37*
G36*
X048136Y053615D02*
X047823D01*
X047826Y053617D01*
X047828Y053623D01*
X04783Y053634D01*
X047832Y053648D01*
X047835Y053689D01*
X047837Y053819D01*
X048137D01*
X048136Y053615D01*
D02*
G37*
G36*
X032201Y053777D02*
X032205Y053713D01*
X032209Y053687D01*
X032214Y053665D01*
X03222Y053647D01*
X032228Y053633D01*
X032236Y053623D01*
X032246Y053617D01*
X032256Y053615D01*
X031944D01*
X031954Y053617D01*
X031964Y053623D01*
X031972Y053633D01*
X03198Y053647D01*
X031986Y053665D01*
X031991Y053687D01*
X031995Y053713D01*
X031998Y053743D01*
X032Y053815D01*
X0322D01*
X032201Y053777D01*
D02*
G37*
G36*
X024351Y053777D02*
X024354Y053743D01*
X024359Y053713D01*
X024366Y053687D01*
X024375Y053665D01*
X024386Y053647D01*
X024399Y053632D01*
X024414Y053622D01*
X024431Y053616D01*
X02445Y053614D01*
X024214Y053615D01*
X024202Y053617D01*
X024191Y053623D01*
X024181Y053633D01*
X024173Y053647D01*
X024166Y053665D01*
X02416Y053687D01*
X024156Y053713D01*
X024153Y053743D01*
X02415Y053815D01*
X02435D01*
X024351Y053777D01*
D02*
G37*
G36*
X017381Y053471D02*
X01738Y053478D01*
X017376Y053485D01*
X017371Y053491D01*
X017363Y053496D01*
X017354Y0535D01*
X017342Y053504D01*
X017328Y053506D01*
X017311Y053508D01*
X017293Y05351D01*
X017272Y05351D01*
Y05359D01*
X017293Y05359D01*
X017328Y053594D01*
X017342Y053596D01*
X017354Y0536D01*
X017363Y053604D01*
X017371Y053609D01*
X017376Y053615D01*
X01738Y053622D01*
X017381Y053629D01*
Y053471D01*
D02*
G37*
G36*
X023415Y05328D02*
X023414Y053291D01*
X02341Y053302D01*
X023404Y053311D01*
X023396Y053318D01*
X023385Y053325D01*
X023372Y05333D01*
X023356Y053335D01*
X023338Y053338D01*
X023317Y053339D01*
X023295Y05334D01*
Y05328D01*
X023294Y053291D01*
X02329Y053302D01*
X023284Y053311D01*
X023276Y053318D01*
X023265Y053325D01*
X023251Y05333D01*
X023236Y053335D01*
X023217Y053338D01*
X023197Y053339D01*
X023174Y05334D01*
Y05346D01*
X023197Y053461D01*
X023217Y053462D01*
X023236Y053465D01*
X023251Y05347D01*
X023265Y053475D01*
X023276Y053482D01*
X023284Y053489D01*
X02329Y053498D01*
X023294Y053509D01*
X023295Y05352D01*
Y05346D01*
X023317Y053461D01*
X023338Y053462D01*
X023356Y053465D01*
X023372Y05347D01*
X023385Y053475D01*
X023396Y053482D01*
X023404Y053489D01*
X02341Y053498D01*
X023414Y053509D01*
X023415Y05352D01*
Y05328D01*
D02*
G37*
G36*
X020212Y053637D02*
X020223Y053631D01*
X020235Y053626D01*
X020248Y053622D01*
X020263Y053618D01*
X020279Y053615D01*
X020316Y053611D01*
X020336Y05361D01*
X020357Y05361D01*
Y05349D01*
X020336Y05349D01*
X020297Y053487D01*
X020279Y053485D01*
X020248Y053478D01*
X020235Y053474D01*
X020223Y053469D01*
X020212Y053463D01*
X020202Y053456D01*
Y053644D01*
X020212Y053637D01*
D02*
G37*
G36*
X019812Y061991D02*
X019817Y06195D01*
X019856Y061856D01*
X019899Y0618D01*
X019856Y061744D01*
X019817Y06165D01*
X019804Y06155D01*
X019808Y061519D01*
Y060538D01*
X019933D01*
Y060425D01*
X0203D01*
X020667D01*
Y060538D01*
X020792D01*
Y061093D01*
X020834Y061121D01*
X020913Y061088D01*
X02105Y06107D01*
X021187Y061088D01*
X021315Y061141D01*
X021425Y061225D01*
X021509Y061335D01*
X021562Y061463D01*
X02158Y0616D01*
X021568Y061694D01*
X021601Y061732D01*
X021932D01*
X021959Y06169D01*
X021943Y06165D01*
X02193Y06155D01*
X021943Y06145D01*
X021982Y061356D01*
X022043Y061276D01*
X022123Y061215D01*
X022217Y061176D01*
X022289Y061167D01*
X022286Y061117D01*
X021964D01*
Y060825D01*
X02235D01*
Y06075D01*
X022425D01*
Y060535D01*
X022585D01*
X022569Y060532D01*
X022554Y060523D01*
X022542Y060508D01*
X022531Y060487D01*
X022521Y06046D01*
X022514Y060427D01*
X022508Y060388D01*
X022507Y060383D01*
X022538D01*
Y060258D01*
X023132D01*
Y058834D01*
X023128Y058829D01*
X023097Y058794D01*
X023088Y058785D01*
X023075Y058775D01*
X022991Y058665D01*
X022938Y058537D01*
X02292Y0584D01*
X022938Y058263D01*
X022991Y058135D01*
X023075Y058025D01*
X023185Y057941D01*
X023313Y057888D01*
X02345Y05787D01*
X023587Y057888D01*
X023715Y057941D01*
X023825Y058025D01*
X023909Y058135D01*
X023962Y058263D01*
X023971Y058329D01*
X024021Y058325D01*
Y05615D01*
X024035Y056039D01*
X024078Y055935D01*
X024146Y055846D01*
X025871Y054122D01*
Y053328D01*
X025735Y053192D01*
X025685Y053201D01*
X025659Y053265D01*
X025575Y053375D01*
X025465Y053459D01*
X025337Y053512D01*
X0252Y05353D01*
X025063Y053512D01*
X024935Y053459D01*
X024853Y053397D01*
X024803Y053421D01*
Y053799D01*
X024826D01*
Y054901D01*
X023774D01*
Y054775D01*
X023475D01*
Y054622D01*
X023506Y054611D01*
X023543Y054605D01*
X023575Y054609D01*
X0236Y054624D01*
X023475Y054512D01*
Y05435D01*
X0234D01*
Y054275D01*
X023208D01*
X023151Y054225D01*
X023168Y054248D01*
X023175Y054275D01*
X023D01*
Y053994D01*
X022954Y053975D01*
X021639Y055289D01*
X021569Y055343D01*
X021488Y055377D01*
X0214Y055388D01*
X020408D01*
X020382Y055438D01*
X020397Y055475D01*
X019863D01*
X019329D01*
X01935Y055423D01*
X019351Y055423D01*
X019351Y055417D01*
X019332Y055364D01*
X019281Y055343D01*
X019263Y05533D01*
X019218Y055352D01*
Y061468D01*
X019759Y062009D01*
X019812Y061991D01*
D02*
G37*
G36*
X03136Y053327D02*
X031361Y053307D01*
X031364Y053286D01*
X03137Y053265D01*
X031378Y053244D01*
X031388Y053222D01*
X0314Y0532D01*
X03141Y053185D01*
X03142D01*
X031411Y053184D01*
X031414Y053177D01*
X031431Y053154D01*
X031471Y053107D01*
X031363Y053112D01*
X031362Y053108D01*
X031361Y053087D01*
X03136Y053065D01*
X03124D01*
X031239Y053087D01*
X031238Y053108D01*
X031236Y053119D01*
X031122Y053125D01*
X031144Y053146D01*
X031164Y053166D01*
X031182Y053187D01*
X031197Y053208D01*
X03121Y053229D01*
X031221Y05325D01*
X031229Y053271D01*
X031235Y053292D01*
X031239Y053312D01*
X03124Y053333D01*
X03136Y053327D01*
D02*
G37*
G36*
X018094Y053122D02*
X018098Y053115D01*
X018103Y053109D01*
X018111Y053104D01*
X01812Y0531D01*
X018132Y053096D01*
X018146Y053094D01*
X018163Y053092D01*
X018181Y05309D01*
X018202Y05309D01*
Y05301D01*
X018181Y05301D01*
X018146Y053006D01*
X018132Y053004D01*
X01812Y053D01*
X018111Y052996D01*
X018103Y052991D01*
X018098Y052985D01*
X018094Y052978D01*
X018093Y052971D01*
Y053129D01*
X018094Y053122D01*
D02*
G37*
G36*
X020212Y053137D02*
X020223Y053131D01*
X020235Y053126D01*
X020248Y053122D01*
X020263Y053118D01*
X020279Y053115D01*
X020316Y053111D01*
X020336Y05311D01*
X020357Y05311D01*
Y05299D01*
X020336Y05299D01*
X020297Y052987D01*
X020279Y052985D01*
X020248Y052978D01*
X020235Y052974D01*
X020223Y052969D01*
X020212Y052963D01*
X020202Y052956D01*
Y053144D01*
X020212Y053137D01*
D02*
G37*
G36*
X047333Y053182D02*
X047331Y053173D01*
X047329Y053158D01*
X047326Y05311D01*
X047322Y052885D01*
X047022D01*
X047023Y053185D01*
X047336D01*
X047333Y053182D01*
D02*
G37*
G36*
X025021Y052825D02*
X024999Y052847D01*
X024955Y052884D01*
X024933Y052899D01*
X024912Y052911D01*
X02489Y052922D01*
X024869Y05293D01*
X024848Y052935D01*
X024828Y052939D01*
X024807Y05294D01*
Y05306D01*
X024828Y053061D01*
X024848Y053065D01*
X024869Y05307D01*
X02489Y053078D01*
X024912Y053089D01*
X024933Y053101D01*
X024955Y053116D01*
X024977Y053134D01*
X024999Y053153D01*
X025021Y053175D01*
Y052825D01*
D02*
G37*
G36*
X018086Y052637D02*
X018097Y052631D01*
X018109Y052626D01*
X018122Y052622D01*
X018137Y052618D01*
X018153Y052615D01*
X01819Y052611D01*
X01821Y05261D01*
X018231Y05261D01*
Y05249D01*
X01821Y05249D01*
X018171Y052487D01*
X018153Y052485D01*
X018122Y052478D01*
X018109Y052474D01*
X018097Y052469D01*
X018086Y052463D01*
X018076Y052456D01*
Y052644D01*
X018086Y052637D01*
D02*
G37*
G36*
X020208Y052626D02*
X020212Y052616D01*
X020219Y052607D01*
X02023Y0526D01*
X020244Y052593D01*
X020263Y052588D01*
X020285Y052584D01*
X02031Y052581D01*
X02034Y052579D01*
X020373Y052578D01*
X020325Y052458D01*
X020302Y052458D01*
X020203Y052452D01*
X020192Y05245D01*
X020183Y052448D01*
X020176Y052446D01*
X020208Y052638D01*
X020208Y052626D01*
D02*
G37*
G36*
X023471Y052375D02*
X023449Y052397D01*
X023405Y052434D01*
X023383Y052449D01*
X023362Y052461D01*
X02334Y052472D01*
X023319Y05248D01*
X023298Y052485D01*
X023278Y052489D01*
X023257Y05249D01*
Y05261D01*
X023278Y052611D01*
X023298Y052615D01*
X023319Y05262D01*
X02334Y052628D01*
X023362Y052639D01*
X023383Y052651D01*
X023405Y052666D01*
X023427Y052684D01*
X023449Y052703D01*
X023471Y052725D01*
Y052375D01*
D02*
G37*
G36*
X047322Y052531D02*
X047322Y052503D01*
X047329Y052399D01*
X047331Y052386D01*
X047334Y052376D01*
X047337Y052368D01*
X04734Y052362D01*
X046992Y052393D01*
X046997Y0524D01*
X047003Y052408D01*
X047007Y052419D01*
X047011Y052433D01*
X047015Y052449D01*
X047017Y052467D01*
X047021Y052511D01*
X047022Y052565D01*
X047322Y052531D01*
D02*
G37*
G36*
X020212Y052137D02*
X020223Y052131D01*
X020235Y052126D01*
X020248Y052122D01*
X020263Y052118D01*
X020279Y052115D01*
X020316Y052111D01*
X020336Y05211D01*
X020357Y05211D01*
Y05199D01*
X020336Y05199D01*
X020297Y051987D01*
X020279Y051985D01*
X020248Y051978D01*
X020235Y051974D01*
X020223Y051969D01*
X020212Y051963D01*
X020202Y051956D01*
Y052144D01*
X020212Y052137D01*
D02*
G37*
G36*
X023971Y051875D02*
X023949Y051897D01*
X023905Y051934D01*
X023883Y051949D01*
X023862Y051961D01*
X02384Y051972D01*
X023819Y05198D01*
X023798Y051985D01*
X023778Y051989D01*
X023757Y05199D01*
Y05211D01*
X023778Y052111D01*
X023798Y052115D01*
X023819Y05212D01*
X02384Y052128D01*
X023862Y052139D01*
X023883Y052151D01*
X023905Y052166D01*
X023927Y052184D01*
X023949Y052203D01*
X023971Y052225D01*
Y051875D01*
D02*
G37*
G36*
X018017Y051943D02*
X017991Y051934D01*
X017969Y051919D01*
X017949Y051897D01*
X017933Y05187D01*
X017919Y051836D01*
X017909Y051797D01*
X017901Y051751D01*
X017897Y0517D01*
X017895Y051642D01*
X017595D01*
X017594Y051699D01*
X017589Y051751D01*
X017582Y051796D01*
X017571Y051836D01*
X017558Y051869D01*
X017542Y051896D01*
X017522Y051917D01*
X0175Y051932D01*
X017474Y051941D01*
X017446Y051944D01*
X018045Y051946D01*
X018017Y051943D01*
D02*
G37*
G36*
X027171Y05589D02*
Y05131D01*
X027126Y051288D01*
X027099Y051309D01*
X026971Y051362D01*
X026834Y05138D01*
X025366D01*
X025267Y051367D01*
X025229Y0514D01*
Y051472D01*
X026604Y052846D01*
X026672Y052935D01*
X02669Y052978D01*
X026715Y053039D01*
X026729Y05315D01*
Y0543D01*
X026715Y054411D01*
X026672Y054515D01*
X026604Y054604D01*
X025433Y055774D01*
X025453Y05582D01*
X026834D01*
X026971Y055838D01*
X027099Y055891D01*
X027126Y055912D01*
X027171Y05589D01*
D02*
G37*
G36*
X028051Y055891D02*
X028179Y055838D01*
X028316Y05582D01*
X029784D01*
X029921Y055838D01*
X030049Y055891D01*
X030121Y055946D01*
X030171Y055921D01*
Y053428D01*
X028746Y052004D01*
X028678Y051915D01*
X028635Y051811D01*
X028621Y0517D01*
Y05138D01*
X028316D01*
X028179Y051362D01*
X028051Y051309D01*
X027979Y051254D01*
X027929Y051279D01*
Y055921D01*
X027979Y055946D01*
X028051Y055891D01*
D02*
G37*
G36*
X029202Y051343D02*
X029206Y051292D01*
X029214Y051246D01*
X029224Y051207D01*
X029237Y051174D01*
X029254Y051147D01*
X029274Y051126D01*
X029296Y051111D01*
X029321Y051102D01*
X02935Y051099D01*
X02875D01*
X028779Y051102D01*
X028804Y051111D01*
X028826Y051126D01*
X028846Y051147D01*
X028863Y051174D01*
X028876Y051207D01*
X028886Y051246D01*
X028894Y051292D01*
X028898Y051343D01*
X0289Y0514D01*
X0292D01*
X029202Y051343D01*
D02*
G37*
G36*
X018365Y051036D02*
X018289Y051036D01*
X018065Y051018D01*
X018029Y051011D01*
X018001Y051001D01*
X017981Y050991D01*
X017969Y050979D01*
X017965Y050965D01*
Y051435D01*
X018365Y051436D01*
Y051036D01*
D02*
G37*
G36*
X043602Y051512D02*
X043606Y051478D01*
X043615Y051448D01*
X043626Y051422D01*
X04364Y0514D01*
X043658Y051382D01*
X043679Y051368D01*
X043703Y051358D01*
X043731Y051352D01*
X043762Y05135D01*
Y05115D01*
X043731Y051148D01*
X043703Y051142D01*
X043679Y051132D01*
X043658Y051118D01*
X04364Y0511D01*
X043626Y051078D01*
X043615Y051052D01*
X043606Y051022D01*
X043602Y050988D01*
X0436Y05095D01*
X0434Y05125D01*
X0436Y05155D01*
X043602Y051512D01*
D02*
G37*
G36*
X043984Y05117D02*
X04405Y051115D01*
X044079Y051096D01*
X044106Y051083D01*
X044129Y051074D01*
X04415Y051072D01*
X044168Y051075D01*
X044184Y051083D01*
X044196Y051097D01*
X043967Y050763D01*
X043976Y050781D01*
X04398Y050801D01*
X043979Y050823D01*
X043972Y050847D01*
X043961Y050874D01*
X043945Y050903D01*
X043924Y050934D01*
X043897Y050967D01*
X043866Y051003D01*
X043829Y051041D01*
X043947Y051206D01*
X043984Y05117D01*
D02*
G37*
G36*
X030031Y050871D02*
X03004Y050846D01*
X030055Y050823D01*
X030077Y050804D01*
X030105Y050787D01*
X030138Y050774D01*
X030178Y050763D01*
X030224Y050756D01*
X030276Y050752D01*
X030334Y05075D01*
Y05045D01*
X030276Y050448D01*
X030224Y050444D01*
X030178Y050437D01*
X030138Y050426D01*
X030105Y050413D01*
X030077Y050396D01*
X030055Y050377D01*
X03004Y050354D01*
X030031Y050329D01*
X030028Y0503D01*
Y0509D01*
X030031Y050871D01*
D02*
G37*
G36*
X027171Y04989D02*
Y04931D01*
X027126Y049288D01*
X027099Y049309D01*
X026971Y049362D01*
X026834Y04938D01*
X025366D01*
X025267Y049367D01*
X025229Y0494D01*
Y0498D01*
X025267Y049833D01*
X025366Y04982D01*
X026834D01*
X026971Y049838D01*
X027099Y049891D01*
X027126Y049912D01*
X027171Y04989D01*
D02*
G37*
G36*
X028051Y049891D02*
X028179Y049838D01*
X028316Y04982D01*
X029784D01*
X029921Y049838D01*
X030049Y049891D01*
X030121Y049946D01*
X030171Y049921D01*
Y049279D01*
X030121Y049254D01*
X030049Y049309D01*
X029921Y049362D01*
X029784Y04938D01*
X028316D01*
X028179Y049362D01*
X028051Y049309D01*
X027979Y049254D01*
X027929Y049279D01*
Y049921D01*
X027979Y049946D01*
X028051Y049891D01*
D02*
G37*
G36*
X019477Y051676D02*
X019578Y051663D01*
X020148D01*
X020249Y051676D01*
X02029Y051693D01*
X020293Y051694D01*
X020302Y051698D01*
X020333Y051711D01*
X020343Y051712D01*
X021547D01*
X021828Y05143D01*
X021808Y05138D01*
X020366D01*
X020229Y051362D01*
X020101Y051309D01*
X019991Y051225D01*
X019907Y051115D01*
X019854Y050987D01*
X019836Y05085D01*
Y05035D01*
X019854Y050213D01*
X019907Y050085D01*
X019991Y049975D01*
X020101Y049891D01*
X020229Y049838D01*
X020366Y04982D01*
X021834D01*
X021971Y049838D01*
X022099Y049891D01*
X022209Y049975D01*
X02228Y050068D01*
X02233Y050051D01*
Y049149D01*
X02228Y049132D01*
X022209Y049225D01*
X022099Y049309D01*
X021971Y049362D01*
X021834Y04938D01*
X020366D01*
X020229Y049362D01*
X020101Y049309D01*
X019991Y049225D01*
X019907Y049115D01*
X019854Y048987D01*
X019836Y04885D01*
Y04835D01*
X019854Y048213D01*
X019907Y048085D01*
X019991Y047975D01*
X020101Y047891D01*
X020229Y047838D01*
X020366Y04782D01*
X021834D01*
X021971Y047838D01*
X022099Y047891D01*
X022209Y047975D01*
X02228Y048068D01*
X02233Y048051D01*
Y047515D01*
X022327Y047502D01*
X022326Y0475D01*
X022292Y047416D01*
X022291Y047415D01*
X022285Y047402D01*
X022277Y047384D01*
X022277Y047384D01*
X022277Y047384D01*
X022271Y047367D01*
X022238Y047287D01*
X02222Y04715D01*
X022238Y047013D01*
X022291Y046885D01*
X022375Y046775D01*
X022485Y046691D01*
X022613Y046638D01*
X02275Y04662D01*
X022887Y046638D01*
X022958Y046667D01*
X023Y04664D01*
Y046575D01*
X023152D01*
X023152Y046578D01*
X023149Y046584D01*
X023145Y04659D01*
X023139Y046596D01*
X023132Y0466D01*
X023123Y046604D01*
X023113Y046606D01*
X0231Y046608D01*
X023087Y04661D01*
X023071Y04661D01*
Y04669D01*
X023087Y04669D01*
X0231Y046692D01*
X023113Y046694D01*
X023123Y046696D01*
X023132Y0467D01*
X023139Y046704D01*
X023145Y04671D01*
X023149Y046716D01*
X023152Y046722D01*
X023152Y04673D01*
Y046575D01*
X023325D01*
Y046925D01*
X023271D01*
X023243Y046967D01*
X023262Y047013D01*
X02328Y04715D01*
X023277Y047177D01*
X023316Y047207D01*
X023363Y047188D01*
X0235Y04717D01*
X023637Y047188D01*
X023765Y047241D01*
X023875Y047325D01*
X023959Y047435D01*
X024012Y047563D01*
X02403Y0477D01*
X024012Y047837D01*
X023959Y047965D01*
X023916Y048022D01*
X023938Y048075D01*
X024037Y048088D01*
X024165Y048141D01*
X024275Y048225D01*
X024321Y048285D01*
X024371Y048268D01*
Y047108D01*
X024333Y047075D01*
X0243Y047079D01*
X024189Y047065D01*
X024155Y047051D01*
X023774D01*
Y046925D01*
X023475D01*
Y0465D01*
X0234D01*
Y046425D01*
X023D01*
Y046075D01*
X023137D01*
Y045938D01*
X01964D01*
X019338Y04624D01*
Y051693D01*
X019352Y0517D01*
X019388Y051713D01*
X019477Y051676D01*
D02*
G37*
G36*
X023763Y05169D02*
X023766Y051687D01*
X023775Y051675D01*
X023885Y051591D01*
X024013Y051538D01*
X02415Y05152D01*
X024287Y051538D01*
X024329Y051555D01*
X024371Y051528D01*
Y048932D01*
X024321Y048915D01*
X024275Y048975D01*
X024263Y048984D01*
X024257Y04899D01*
X024247Y049001D01*
X02424Y04901D01*
X024238Y049013D01*
Y0505D01*
X024227Y050588D01*
X024193Y050669D01*
X024139Y050739D01*
X023213Y051665D01*
X023233Y051712D01*
X023737D01*
X023763Y05169D01*
D02*
G37*
G36*
X049021Y049187D02*
X049089Y049131D01*
X049119Y04911D01*
X049147Y049095D01*
X049173Y049085D01*
X049195Y049081D01*
X049216Y049081D01*
X049233Y049087D01*
X049249Y049099D01*
X048967Y048817D01*
X048978Y048832D01*
X048984Y04885D01*
X048985Y04887D01*
X048981Y048893D01*
X048971Y048919D01*
X048956Y048946D01*
X048935Y048977D01*
X048909Y049009D01*
X048878Y049045D01*
X048842Y049082D01*
X048983Y049224D01*
X049021Y049187D01*
D02*
G37*
G36*
X023961Y048972D02*
X023965Y048952D01*
X02397Y048931D01*
X023978Y04891D01*
X023989Y048888D01*
X024001Y048867D01*
X024016Y048845D01*
X024034Y048823D01*
X024053Y048801D01*
X024075Y048779D01*
X023725D01*
X023747Y048801D01*
X023784Y048845D01*
X023799Y048867D01*
X023811Y048888D01*
X023822Y04891D01*
X02383Y048931D01*
X023835Y048952D01*
X023839Y048972D01*
X02384Y048993D01*
X02396D01*
X023961Y048972D01*
D02*
G37*
G36*
X049934Y048551D02*
X04965Y0485D01*
X049571Y0487D01*
X049598Y048701D01*
X049621Y048702D01*
X049642Y048706D01*
X04966Y04871D01*
X049675Y048716D01*
X049686Y048722D01*
X049695Y04873D01*
X049701Y04874D01*
X049703Y04875D01*
X049703Y048762D01*
X049934Y048551D01*
D02*
G37*
G36*
X027171Y04789D02*
Y04346D01*
X027126Y043438D01*
X027099Y043459D01*
X026971Y043512D01*
X026834Y04353D01*
X025366D01*
X025267Y043517D01*
X025229Y04355D01*
Y0478D01*
X025267Y047833D01*
X025366Y04782D01*
X026834D01*
X026971Y047838D01*
X027099Y047891D01*
X027126Y047912D01*
X027171Y04789D01*
D02*
G37*
G36*
X023255Y047931D02*
X023268Y047921D01*
X023282Y047913D01*
X023295Y047908D01*
X023308Y047904D01*
X023322Y047903D01*
X023336Y047903D01*
X023349Y047906D01*
X023363Y047911D01*
X023377Y047918D01*
X02325Y047685D01*
X023249Y047702D01*
X023245Y047719D01*
X02324Y047736D01*
X023233Y047753D01*
X023225Y047771D01*
X023215Y047788D01*
X023203Y047805D01*
X023189Y047823D01*
X023174Y04784D01*
X023158Y047858D01*
X023242Y047942D01*
X023255Y047931D01*
D02*
G37*
G36*
X02273Y047527D02*
X022734Y047506D01*
X02274Y047486D01*
X022749Y047468D01*
X022761Y04745D01*
X022775Y047433D01*
X022792Y047417D01*
X022811Y047402D01*
X022833Y047389D01*
X022857Y047376D01*
X022526Y047262D01*
X022542Y047294D01*
X022588Y047405D01*
X022595Y047429D01*
X022605Y047471D01*
X022608Y047489D01*
X022609Y047506D01*
X022729Y047549D01*
X02273Y047527D01*
D02*
G37*
G36*
X03233Y046223D02*
X032313Y046214D01*
X032298Y046199D01*
X032286Y046178D01*
X032275Y046151D01*
X032266Y046118D01*
X032259Y046079D01*
X032254Y046034D01*
X03225Y045926D01*
X03195D01*
X031949Y045983D01*
X031941Y046079D01*
X031934Y046118D01*
X031925Y046151D01*
X031914Y046178D01*
X031902Y046199D01*
X031887Y046214D01*
X03187Y046223D01*
X031851Y046226D01*
X032349D01*
X03233Y046223D01*
D02*
G37*
G36*
X02453D02*
X024513Y046214D01*
X024498Y046199D01*
X024486Y046178D01*
X024475Y046151D01*
X024466Y046118D01*
X024459Y046079D01*
X024454Y046034D01*
X024454Y046025D01*
X024462Y045923D01*
X024469Y04589D01*
X024478Y045863D01*
X024488Y045842D01*
X024499Y045827D01*
X024512Y045818D01*
X024527Y045815D01*
X024214D01*
X024202Y045818D01*
X024191Y045827D01*
X024181Y045842D01*
X024173Y045863D01*
X024166Y04589D01*
X02416Y045923D01*
X02416Y045926D01*
X02415D01*
X024149Y045983D01*
X024141Y046079D01*
X024134Y046118D01*
X024125Y046151D01*
X024114Y046178D01*
X024102Y046199D01*
X024087Y046214D01*
X02407Y046223D01*
X024051Y046226D01*
X024549D01*
X02453Y046223D01*
D02*
G37*
G36*
X023415Y04548D02*
X023414Y045491D01*
X02341Y045502D01*
X023404Y045511D01*
X023396Y045518D01*
X023385Y045525D01*
X023372Y04553D01*
X023356Y045535D01*
X023338Y045538D01*
X023317Y045539D01*
X023294Y04554D01*
Y04566D01*
X023317Y045661D01*
X023338Y045662D01*
X023356Y045665D01*
X023372Y04567D01*
X023385Y045675D01*
X023396Y045682D01*
X023404Y045689D01*
X02341Y045698D01*
X023414Y045709D01*
X023415Y04572D01*
Y04548D01*
D02*
G37*
G36*
X031384Y045383D02*
X031373Y04538D01*
X031364Y045374D01*
X031357Y045365D01*
X03135Y045355D01*
X031345Y045341D01*
X03134Y045326D01*
X031337Y045308D01*
X031336Y045287D01*
X031335Y045265D01*
X031215D01*
X031214Y045287D01*
X031213Y045308D01*
X03121Y045326D01*
X031205Y045341D01*
X0312Y045355D01*
X031193Y045365D01*
X031186Y045374D01*
X031177Y04538D01*
X031166Y045383D01*
X031155Y045385D01*
X031395D01*
X031384Y045383D01*
D02*
G37*
G36*
X031335Y045235D02*
X031336Y045215D01*
X031339Y045195D01*
X031345Y045174D01*
X031352Y045153D01*
X031362Y045131D01*
X031374Y045108D01*
X031387Y045084D01*
X031403Y04506D01*
X031442Y04501D01*
X031094Y045045D01*
X031117Y045065D01*
X031137Y045084D01*
X031156Y045104D01*
X031171Y045124D01*
X031185Y045144D01*
X031196Y045165D01*
X031204Y045185D01*
X03121Y045206D01*
X031214Y045227D01*
X031215Y045248D01*
X031335Y045235D01*
D02*
G37*
G36*
X043601Y04416D02*
X043606Y044122D01*
X043613Y044085D01*
X043623Y044049D01*
X043635Y044014D01*
X043651Y043981D01*
X043669Y043948D01*
X043691Y043917D01*
X043715Y043887D01*
X043741Y043858D01*
Y043575D01*
X043715Y0436D01*
X043691Y043618D01*
X043669Y043629D01*
X043651Y043634D01*
X043635Y043631D01*
X043623Y043622D01*
X043613Y043606D01*
X043606Y043583D01*
X043601Y043553D01*
X0436Y043517D01*
X0434Y043958D01*
X0436Y0442D01*
X043601Y04416D01*
D02*
G37*
G36*
X018133Y043552D02*
X018112Y043549D01*
X018092Y043544D01*
X018072Y043537D01*
X018053Y043529D01*
X018033Y04352D01*
X018014Y043509D01*
X017996Y043496D01*
X017977Y043482D01*
X017959Y043467D01*
X017941Y04345D01*
X017777Y043569D01*
X017795Y043587D01*
X01781Y043606D01*
X017822Y043625D01*
X017833Y043644D01*
X017842Y043663D01*
X017848Y043682D01*
X017853Y043702D01*
X017855Y043722D01*
X017855Y043742D01*
X017853Y043762D01*
X018133Y043552D01*
D02*
G37*
G36*
X028051Y047891D02*
X028179Y047838D01*
X028316Y04782D01*
X029784D01*
X029921Y047838D01*
X030049Y047891D01*
X030121Y047946D01*
X030171Y047921D01*
Y046928D01*
X028721Y045478D01*
X028653Y045389D01*
X02861Y045285D01*
X028595Y045174D01*
Y04353D01*
X028316D01*
X028179Y043512D01*
X028051Y043459D01*
X027979Y043404D01*
X027929Y043429D01*
Y047921D01*
X027979Y047946D01*
X028051Y047891D01*
D02*
G37*
G36*
X029176Y043493D02*
X02918Y043442D01*
X029188Y043396D01*
X029198Y043357D01*
X029212Y043324D01*
X029228Y043297D01*
X029248Y043276D01*
X02927Y043261D01*
X029296Y043252D01*
X029324Y043249D01*
X028724D01*
X028753Y043252D01*
X028778Y043261D01*
X028801Y043276D01*
X02882Y043297D01*
X028837Y043324D01*
X02885Y043357D01*
X028861Y043396D01*
X028868Y043442D01*
X028873Y043493D01*
X028874Y04355D01*
X029174D01*
X029176Y043493D01*
D02*
G37*
G36*
X030033Y042844D02*
X030039Y042824D01*
X030051Y042807D01*
X030069Y042792D01*
X030093Y042779D01*
X030122Y042769D01*
X030158Y04276D01*
X030199Y042755D01*
X030247Y042751D01*
X0303Y04275D01*
Y04245D01*
X03024Y042449D01*
X030137Y04244D01*
X030095Y042432D01*
X030059Y042421D01*
X030029Y042409D01*
X030005Y042394D01*
X029987Y042376D01*
X029975Y042357D01*
X029969Y042335D01*
X030033Y042866D01*
X030033Y042844D01*
D02*
G37*
G36*
X030371Y041922D02*
Y040618D01*
X030364Y040613D01*
X030314Y04064D01*
Y041D01*
X030296Y041137D01*
X030243Y041265D01*
X030159Y041375D01*
X030049Y041459D01*
X029921Y041512D01*
X029784Y04153D01*
X028316D01*
X028179Y041512D01*
X028051Y041459D01*
X027979Y041404D01*
X027929Y041429D01*
Y042071D01*
X027979Y042096D01*
X028051Y042041D01*
X028179Y041988D01*
X028316Y04197D01*
X029784D01*
X029921Y041988D01*
X030049Y042041D01*
X030159Y042125D01*
X030167Y042126D01*
X030371Y041922D01*
D02*
G37*
G36*
X027171Y04204D02*
Y04146D01*
X027126Y041438D01*
X027099Y041459D01*
X026971Y041512D01*
X026834Y04153D01*
X025366D01*
X025267Y041517D01*
X025229Y04155D01*
Y04195D01*
X025267Y041983D01*
X025366Y04197D01*
X026834D01*
X026971Y041988D01*
X027099Y042041D01*
X027126Y042062D01*
X027171Y04204D01*
D02*
G37*
G36*
X019122Y043628D02*
Y040259D01*
X019084Y040226D01*
X01905Y04023D01*
X018913Y040212D01*
X018785Y040159D01*
X018675Y040075D01*
X018666Y040063D01*
X01866Y040057D01*
X018649Y040047D01*
X01864Y04004D01*
X018637Y040038D01*
X0185D01*
X018499Y040039D01*
X018494Y040039D01*
X018463Y040052D01*
X018454Y040056D01*
X018451Y040057D01*
X01841Y040074D01*
X018309Y040087D01*
X017739D01*
X017679Y040079D01*
X017629Y040122D01*
Y042743D01*
X01815Y043264D01*
X018151Y043265D01*
X018157Y04327D01*
X018161Y043272D01*
X018164Y043274D01*
X018167Y043275D01*
X018168Y043276D01*
X018169Y043276D01*
X018169Y043276D01*
X01818Y043278D01*
X018192Y043282D01*
X018237Y043288D01*
X018365Y043341D01*
X018475Y043425D01*
X018559Y043535D01*
X018612Y043663D01*
X01863Y0438D01*
X018612Y043937D01*
X018559Y044065D01*
X018475Y044175D01*
X018365Y044259D01*
X018237Y044312D01*
X0181Y04433D01*
X017963Y044312D01*
X017835Y044259D01*
X017725Y044175D01*
X017641Y044065D01*
X017588Y043937D01*
X01757Y0438D01*
X017575Y043761D01*
X017065Y04325D01*
X017018Y043269D01*
Y045666D01*
X017065Y045685D01*
X019122Y043628D01*
D02*
G37*
G36*
X018373Y039787D02*
X018384Y039781D01*
X018396Y039776D01*
X018409Y039772D01*
X018424Y039768D01*
X01844Y039765D01*
X018477Y039761D01*
X018497Y03976D01*
X018518Y03976D01*
Y03964D01*
X018497Y03964D01*
X018458Y039637D01*
X01844Y039635D01*
X018409Y039628D01*
X018396Y039624D01*
X018384Y039619D01*
X018373Y039613D01*
X018363Y039606D01*
Y039794D01*
X018373Y039787D01*
D02*
G37*
G36*
X018871Y039525D02*
X018849Y039547D01*
X018805Y039584D01*
X018783Y039599D01*
X018762Y039611D01*
X01874Y039622D01*
X018719Y03963D01*
X018698Y039635D01*
X018678Y039639D01*
X018657Y03964D01*
Y03976D01*
X018678Y039761D01*
X018698Y039765D01*
X018719Y03977D01*
X01874Y039778D01*
X018762Y039789D01*
X018783Y039801D01*
X018805Y039816D01*
X018827Y039834D01*
X018849Y039853D01*
X018871Y039875D01*
Y039525D01*
D02*
G37*
G36*
X020499Y039287D02*
X02051Y039281D01*
X020522Y039276D01*
X020535Y039272D01*
X02055Y039268D01*
X020566Y039265D01*
X020603Y039261D01*
X020623Y03926D01*
X020644Y03926D01*
Y03914D01*
X020623Y03914D01*
X020584Y039137D01*
X020566Y039135D01*
X020535Y039128D01*
X020522Y039124D01*
X02051Y039119D01*
X020499Y039113D01*
X020489Y039106D01*
Y039294D01*
X020499Y039287D01*
D02*
G37*
G36*
X017711Y039096D02*
X017707Y039097D01*
X017699Y039097D01*
X017653Y039099D01*
X0175Y0391D01*
Y0393D01*
X017711Y039304D01*
Y039096D01*
D02*
G37*
G36*
X017668Y038621D02*
X017667Y038628D01*
X017663Y038635D01*
X017658Y038641D01*
X01765Y038646D01*
X017641Y03865D01*
X017629Y038654D01*
X017615Y038656D01*
X017598Y038658D01*
X01758Y03866D01*
X017559Y03866D01*
Y03874D01*
X01758Y03874D01*
X017615Y038744D01*
X017629Y038746D01*
X017641Y03875D01*
X01765Y038754D01*
X017658Y038759D01*
X017663Y038765D01*
X017667Y038772D01*
X017668Y038779D01*
Y038621D01*
D02*
G37*
G36*
X020499Y038787D02*
X02051Y038781D01*
X020522Y038776D01*
X020535Y038772D01*
X02055Y038768D01*
X020566Y038765D01*
X020603Y038761D01*
X020623Y03876D01*
X020644Y03876D01*
Y03864D01*
X020623Y03864D01*
X020584Y038637D01*
X020566Y038635D01*
X020535Y038628D01*
X020522Y038624D01*
X02051Y038619D01*
X020499Y038613D01*
X020489Y038606D01*
Y038794D01*
X020499Y038787D01*
D02*
G37*
G36*
X02114Y038514D02*
X021124Y038538D01*
X021106Y03856D01*
X021089Y038578D01*
X021071Y038595D01*
X021052Y038609D01*
X021033Y03862D01*
X021013Y038629D01*
X020993Y038635D01*
X020972Y038639D01*
X02095Y03864D01*
X020975Y03876D01*
X020994Y038761D01*
X021014Y038764D01*
X021035Y038769D01*
X021057Y038776D01*
X021079Y038784D01*
X021103Y038795D01*
X021155Y038822D01*
X021182Y038839D01*
X02121Y038857D01*
X02114Y038514D01*
D02*
G37*
G36*
X030303Y038445D02*
X030266Y0384D01*
X030251Y038379D01*
X030239Y038357D01*
X030228Y038336D01*
X03022Y038315D01*
X030215Y038294D01*
X030211Y038273D01*
X03021Y038253D01*
X03009D01*
X030089Y038273D01*
X030085Y038294D01*
X03008Y038315D01*
X030072Y038336D01*
X030061Y038357D01*
X030049Y038379D01*
X030034Y0384D01*
X030016Y038422D01*
X029997Y038445D01*
X029975Y038467D01*
X030325D01*
X030303Y038445D01*
D02*
G37*
G36*
X018381Y038272D02*
X018385Y038265D01*
X01839Y038259D01*
X018398Y038254D01*
X018407Y03825D01*
X018419Y038246D01*
X018433Y038244D01*
X01845Y038242D01*
X018468Y03824D01*
X018489Y03824D01*
Y03816D01*
X018468Y03816D01*
X018433Y038156D01*
X018419Y038154D01*
X018407Y03815D01*
X018398Y038146D01*
X01839Y038141D01*
X018385Y038135D01*
X018381Y038128D01*
X01838Y038121D01*
Y038279D01*
X018381Y038272D01*
D02*
G37*
G36*
X020499Y038287D02*
X02051Y038281D01*
X020522Y038276D01*
X020535Y038272D01*
X02055Y038268D01*
X020566Y038265D01*
X020603Y038261D01*
X020623Y03826D01*
X020644Y03826D01*
Y03814D01*
X020623Y03814D01*
X020584Y038137D01*
X020566Y038135D01*
X020535Y038128D01*
X020522Y038124D01*
X02051Y038119D01*
X020499Y038113D01*
X020489Y038106D01*
Y038294D01*
X020499Y038287D01*
D02*
G37*
G36*
X024421Y038373D02*
X024395Y038364D01*
X024373Y038349D01*
X024354Y038328D01*
X024337Y038301D01*
X024324Y038268D01*
X024313Y038229D01*
X024306Y038184D01*
X024301Y038133D01*
X0243Y038076D01*
X024D01*
X024Y038133D01*
X023988Y038301D01*
X023982Y038328D01*
X023976Y038349D01*
X023969Y038364D01*
X02396Y038373D01*
X023951Y038376D01*
X024449D01*
X024421Y038373D01*
D02*
G37*
G36*
X021771Y038025D02*
X021749Y038047D01*
X021705Y038084D01*
X021683Y038099D01*
X021662Y038111D01*
X02164Y038122D01*
X021619Y03813D01*
X021598Y038135D01*
X021578Y038139D01*
X021557Y03814D01*
Y03826D01*
X021578Y038261D01*
X021598Y038265D01*
X021619Y03827D01*
X02164Y038278D01*
X021662Y038289D01*
X021683Y038301D01*
X021705Y038316D01*
X021727Y038334D01*
X021749Y038353D01*
X021771Y038375D01*
Y038025D01*
D02*
G37*
G36*
X048071Y038373D02*
X048045Y038364D01*
X048023Y038349D01*
X048004Y038328D01*
X047987Y038301D01*
X047974Y038268D01*
X047963Y038229D01*
X047956Y038184D01*
X047956Y038179D01*
X047959Y038123D01*
X047964Y03809D01*
X04797Y038063D01*
X047978Y038042D01*
X047986Y038027D01*
X047996Y038018D01*
X048006Y038015D01*
X047694D01*
X047685Y038018D01*
X047678Y038027D01*
X047671Y038042D01*
X047666Y038063D01*
X047663Y038076D01*
X04765D01*
X04765Y038133D01*
X047638Y038301D01*
X047632Y038328D01*
X047626Y038349D01*
X047619Y038364D01*
X04761Y038373D01*
X047601Y038376D01*
X048099D01*
X048071Y038373D01*
D02*
G37*
G36*
X032371D02*
X032345Y038364D01*
X032323Y038349D01*
X032304Y038328D01*
X032287Y038301D01*
X032274Y038268D01*
X032263Y038229D01*
X032256Y038184D01*
X032253Y038155D01*
X032256Y038015D01*
X031944D01*
X031945Y038018D01*
X031946Y038027D01*
X031947Y038042D01*
X031948Y038153D01*
X031938Y038301D01*
X031932Y038328D01*
X031926Y038349D01*
X031919Y038364D01*
X03191Y038373D01*
X031901Y038376D01*
X032399D01*
X032371Y038373D01*
D02*
G37*
G36*
X044985Y03822D02*
X044993Y038216D01*
X045004Y038212D01*
X045018Y038209D01*
X045034Y038206D01*
X045073Y038202D01*
X045122Y0382D01*
X04515Y0382D01*
Y0379D01*
X045122Y0379D01*
X045034Y037894D01*
X045018Y037891D01*
X045004Y037888D01*
X044993Y037884D01*
X044985Y03788D01*
X044979Y037875D01*
Y038225D01*
X044985Y03822D01*
D02*
G37*
G36*
X031145Y03768D02*
X031144Y037691D01*
X03114Y037702D01*
X031134Y037711D01*
X031126Y037718D01*
X031115Y037725D01*
X031101Y03773D01*
X031086Y037735D01*
X031067Y037738D01*
X031047Y037739D01*
X031024Y03774D01*
Y03786D01*
X031047Y037861D01*
X031067Y037862D01*
X031086Y037865D01*
X031101Y03787D01*
X031115Y037875D01*
X031126Y037882D01*
X031134Y037889D01*
X03114Y037898D01*
X031144Y037909D01*
X031145Y03792D01*
Y03768D01*
D02*
G37*
G36*
X023315D02*
X023314Y037691D01*
X02331Y037702D01*
X023304Y037711D01*
X023296Y037718D01*
X023285Y037725D01*
X023272Y03773D01*
X023256Y037735D01*
X023238Y037738D01*
X023217Y037739D01*
X023194Y03774D01*
Y03786D01*
X023217Y037861D01*
X023238Y037862D01*
X023256Y037865D01*
X023272Y03787D01*
X023285Y037875D01*
X023296Y037882D01*
X023304Y037889D01*
X02331Y037898D01*
X023314Y037909D01*
X023315Y03792D01*
Y03768D01*
D02*
G37*
G36*
X047841Y037889D02*
X047843Y037877D01*
X047847Y037863D01*
X047853Y037849D01*
X04786Y037833D01*
X047869Y037817D01*
X047873Y03781D01*
X04792D01*
X047905Y037789D01*
X047895Y037775D01*
X04792Y03774D01*
X047873D01*
X047869Y037733D01*
X04786Y037717D01*
X047853Y037701D01*
X047847Y037687D01*
X047843Y037673D01*
X047841Y037661D01*
X04784Y03765D01*
X04776D01*
X047759Y037661D01*
X047757Y037673D01*
X047753Y037687D01*
X047747Y037701D01*
X04774Y037717D01*
X047731Y037733D01*
X047727Y03774D01*
X04768D01*
X047695Y037761D01*
X047705Y037775D01*
X04768Y03781D01*
X047727D01*
X047731Y037817D01*
X04774Y037833D01*
X047747Y037849D01*
X047753Y037863D01*
X047757Y037877D01*
X047759Y037889D01*
X04776Y0379D01*
X04784D01*
X047841Y037889D01*
D02*
G37*
G36*
X020499Y037787D02*
X02051Y037781D01*
X020522Y037776D01*
X020535Y037772D01*
X02055Y037768D01*
X020566Y037765D01*
X020603Y037761D01*
X020623Y03776D01*
X020644Y03776D01*
Y03764D01*
X020623Y03764D01*
X020584Y037637D01*
X020566Y037635D01*
X020535Y037628D01*
X020522Y037624D01*
X02051Y037619D01*
X020499Y037613D01*
X020489Y037606D01*
Y037794D01*
X020499Y037787D01*
D02*
G37*
G36*
X046894Y037585D02*
X046594Y037583D01*
Y037883D01*
X046651Y037885D01*
X046702Y037889D01*
X046747Y037895D01*
X046786Y037905D01*
X046819Y037916D01*
X046846Y037931D01*
X046867Y037948D01*
X046882Y037968D01*
X046891Y03799D01*
X046894Y038015D01*
Y037585D01*
D02*
G37*
G36*
X021021Y037525D02*
X020999Y037547D01*
X020955Y037584D01*
X020933Y037599D01*
X020912Y037611D01*
X02089Y037622D01*
X020869Y03763D01*
X020848Y037635D01*
X020828Y037639D01*
X020807Y03764D01*
Y03776D01*
X020828Y037761D01*
X020848Y037765D01*
X020869Y03777D01*
X02089Y037778D01*
X020912Y037789D01*
X020933Y037801D01*
X020955Y037816D01*
X020977Y037834D01*
X020999Y037853D01*
X021021Y037875D01*
Y037525D01*
D02*
G37*
G36*
X017668Y037121D02*
X017667Y037128D01*
X017663Y037135D01*
X017658Y037141D01*
X01765Y037146D01*
X017641Y03715D01*
X017629Y037154D01*
X017615Y037156D01*
X017598Y037158D01*
X01758Y03716D01*
X017559Y03716D01*
Y03724D01*
X01758Y03724D01*
X017615Y037244D01*
X017629Y037246D01*
X017641Y03725D01*
X01765Y037254D01*
X017658Y037259D01*
X017663Y037265D01*
X017667Y037272D01*
X017668Y037279D01*
Y037121D01*
D02*
G37*
G36*
X020499Y037287D02*
X02051Y037281D01*
X020522Y037276D01*
X020535Y037272D01*
X02055Y037268D01*
X020566Y037265D01*
X020603Y037261D01*
X020623Y03726D01*
X020644Y03726D01*
Y03714D01*
X020623Y03714D01*
X020584Y037137D01*
X020566Y037135D01*
X020535Y037128D01*
X020522Y037124D01*
X02051Y037119D01*
X020499Y037113D01*
X020489Y037106D01*
Y037294D01*
X020499Y037287D01*
D02*
G37*
G36*
X021921Y037025D02*
X021899Y037047D01*
X021855Y037084D01*
X021833Y037099D01*
X021812Y037111D01*
X02179Y037122D01*
X021769Y03713D01*
X021748Y037135D01*
X021728Y037139D01*
X021707Y03714D01*
Y03726D01*
X021728Y037261D01*
X021748Y037265D01*
X021769Y03727D01*
X02179Y037278D01*
X021812Y037289D01*
X021833Y037301D01*
X021855Y037316D01*
X021877Y037334D01*
X021899Y037353D01*
X021921Y037375D01*
Y037025D01*
D02*
G37*
G36*
X017205Y037349D02*
X017254Y037306D01*
X017277Y037289D01*
X017299Y037274D01*
X017321Y037262D01*
X017341Y037252D01*
X017361Y037245D01*
X017379Y037241D01*
X017397Y03724D01*
Y03716D01*
X017379Y037159D01*
X017361Y037155D01*
X017341Y037148D01*
X017321Y037138D01*
X017299Y037126D01*
X017277Y037111D01*
X017254Y037094D01*
X017205Y037051D01*
X017179Y037025D01*
Y037375D01*
X017205Y037349D01*
D02*
G37*
G36*
X046603Y036899D02*
X046566Y036855D01*
X046551Y036833D01*
X046539Y036812D01*
X046528Y03679D01*
X04652Y036769D01*
X046515Y036748D01*
X046511Y036728D01*
X04651Y036707D01*
X04639D01*
X046389Y036728D01*
X046385Y036748D01*
X04638Y036769D01*
X046372Y03679D01*
X046361Y036812D01*
X046349Y036833D01*
X046334Y036855D01*
X046316Y036877D01*
X046297Y036899D01*
X046275Y036921D01*
X046625D01*
X046603Y036899D01*
D02*
G37*
G36*
X020499Y036787D02*
X02051Y036781D01*
X020522Y036776D01*
X020535Y036772D01*
X02055Y036768D01*
X020566Y036765D01*
X020603Y036761D01*
X020623Y03676D01*
X020644Y03676D01*
Y03664D01*
X020623Y03664D01*
X020584Y036637D01*
X020566Y036635D01*
X020535Y036628D01*
X020522Y036624D01*
X02051Y036619D01*
X020499Y036613D01*
X020489Y036606D01*
Y036794D01*
X020499Y036787D01*
D02*
G37*
G36*
X017685Y036606D02*
X017675Y036613D01*
X017664Y036619D01*
X017652Y036624D01*
X017639Y036628D01*
X017624Y036632D01*
X017608Y036635D01*
X017571Y036639D01*
X017551Y03664D01*
X01753Y03664D01*
Y03676D01*
X017551Y03676D01*
X01759Y036763D01*
X017608Y036765D01*
X017639Y036772D01*
X017652Y036776D01*
X017664Y036781D01*
X017675Y036787D01*
X017685Y036794D01*
Y036606D01*
D02*
G37*
G36*
X02244Y036514D02*
X022424Y036538D01*
X022406Y03656D01*
X022389Y036578D01*
X022371Y036595D01*
X022352Y036609D01*
X022333Y03662D01*
X022313Y036629D01*
X022293Y036635D01*
X022272Y036639D01*
X02225Y03664D01*
X022276Y03676D01*
X022294Y036761D01*
X022314Y036764D01*
X022335Y036769D01*
X022357Y036776D01*
X02238Y036784D01*
X022403Y036795D01*
X022455Y036822D01*
X022482Y036839D01*
X02251Y036857D01*
X02244Y036514D01*
D02*
G37*
G36*
X020499Y036287D02*
X02051Y036281D01*
X020522Y036276D01*
X020535Y036272D01*
X02055Y036268D01*
X020566Y036265D01*
X020603Y036261D01*
X020623Y03626D01*
X020644Y03626D01*
Y03614D01*
X020623Y03614D01*
X020584Y036137D01*
X020566Y036135D01*
X020535Y036128D01*
X020522Y036124D01*
X02051Y036119D01*
X020499Y036113D01*
X020489Y036106D01*
Y036294D01*
X020499Y036287D01*
D02*
G37*
G36*
X02179Y036014D02*
X021774Y036038D01*
X021756Y03606D01*
X021739Y036078D01*
X021721Y036095D01*
X021702Y036109D01*
X021683Y03612D01*
X021663Y036129D01*
X021643Y036135D01*
X021622Y036139D01*
X0216Y03614D01*
X021625Y03626D01*
X021644Y036261D01*
X021664Y036264D01*
X021685Y036269D01*
X021707Y036276D01*
X02173Y036284D01*
X021753Y036295D01*
X021805Y036322D01*
X021832Y036339D01*
X02186Y036357D01*
X02179Y036014D01*
D02*
G37*
G36*
X030603Y035949D02*
X030566Y035905D01*
X030551Y035883D01*
X030539Y035862D01*
X030528Y03584D01*
X03052Y035819D01*
X030515Y035798D01*
X030511Y035778D01*
X03051Y035757D01*
X03039D01*
X030389Y035778D01*
X030385Y035798D01*
X03038Y035819D01*
X030372Y03584D01*
X030361Y035862D01*
X030349Y035883D01*
X030334Y035905D01*
X030316Y035927D01*
X030297Y035949D01*
X030275Y035971D01*
X030625D01*
X030603Y035949D01*
D02*
G37*
G36*
X018218Y036091D02*
X018201Y036085D01*
X018186Y036075D01*
X018173Y036061D01*
X018162Y036043D01*
X018153Y036021D01*
X018146Y035995D01*
X018144Y035983D01*
X018145Y035979D01*
X018151Y03596D01*
X018159Y035943D01*
X018169Y035928D01*
X01818Y035915D01*
X018194Y035904D01*
X018209Y035895D01*
X018225Y035888D01*
X017915Y035736D01*
X017919Y035749D01*
X017923Y035763D01*
X017929Y035796D01*
X017932Y035814D01*
X017936Y03588D01*
X017937Y035907D01*
X017936Y03593D01*
X017933Y035964D01*
X017928Y035995D01*
X017921Y036021D01*
X017912Y036043D01*
X017901Y036061D01*
X017888Y036075D01*
X017873Y036085D01*
X017856Y036091D01*
X017837Y036093D01*
X018237D01*
X018218Y036091D01*
D02*
G37*
G36*
X028051Y040041D02*
X028179Y039988D01*
X028316Y03997D01*
X029697D01*
X029717Y039924D01*
X028746Y038954D01*
X028678Y038865D01*
X028635Y038761D01*
X028621Y03865D01*
Y03578D01*
X028316D01*
X028179Y035762D01*
X028051Y035709D01*
X027979Y035654D01*
X027929Y035679D01*
Y040071D01*
X027979Y040096D01*
X028051Y040041D01*
D02*
G37*
G36*
X029202Y035743D02*
X029206Y035692D01*
X029214Y035646D01*
X029224Y035607D01*
X029237Y035574D01*
X029254Y035547D01*
X029274Y035526D01*
X029296Y035511D01*
X029321Y035502D01*
X02935Y035499D01*
X02875D01*
X028779Y035502D01*
X028804Y035511D01*
X028826Y035526D01*
X028846Y035547D01*
X028863Y035574D01*
X028876Y035607D01*
X028886Y035646D01*
X028894Y035692D01*
X028898Y035743D01*
X0289Y0358D01*
X0292D01*
X029202Y035743D01*
D02*
G37*
G36*
X018081Y035485D02*
X01815D01*
X018151Y035455D01*
X018239Y035416D01*
X018222Y035409D01*
X018207Y035399D01*
X018194Y035387D01*
X018182Y035373D01*
X018172Y035358D01*
X018169Y03535D01*
X018175Y035335D01*
X018186Y035317D01*
X018199Y035303D01*
X018214Y035293D01*
X018231Y035287D01*
X01825Y035285D01*
X018152D01*
X018151Y035276D01*
X01815Y03525D01*
X01808Y035285D01*
X01785D01*
X017869Y035287D01*
X017886Y035293D01*
X017901Y035303D01*
X017914Y035317D01*
X017925Y035335D01*
X017934Y035357D01*
X017941Y035383D01*
X017946Y035413D01*
X017947Y03542D01*
X017945Y035445D01*
X017942Y035466D01*
X017935Y035505D01*
X01793Y035523D01*
X017918Y035556D01*
X018081Y035485D01*
D02*
G37*
G36*
X028051Y034291D02*
X028179Y034238D01*
X028316Y03422D01*
X029784D01*
X029921Y034238D01*
X030049Y034291D01*
X030067Y034304D01*
X030112Y034282D01*
Y033718D01*
X030067Y033696D01*
X030049Y033709D01*
X029921Y033762D01*
X029784Y03378D01*
X028316D01*
X028179Y033762D01*
X028051Y033709D01*
X027979Y033654D01*
X027929Y033679D01*
Y034321D01*
X027979Y034346D01*
X028051Y034291D01*
D02*
G37*
G36*
X027085Y033181D02*
X027091Y033164D01*
X027101Y033149D01*
X027115Y033136D01*
X027133Y033125D01*
X027155Y033116D01*
X027182Y033109D01*
X027212Y033104D01*
X027246Y033101D01*
X027284Y0331D01*
Y0329D01*
X027246Y032899D01*
X027212Y032896D01*
X027182Y032891D01*
X027155Y032884D01*
X027133Y032875D01*
X027115Y032864D01*
X027101Y032851D01*
X027091Y032836D01*
X027085Y032819D01*
X027083Y0328D01*
Y0332D01*
X027085Y033181D01*
D02*
G37*
G36*
X02765Y033176D02*
X02745Y032734D01*
X02745Y032836D01*
X027448Y032914D01*
X027447Y032923D01*
X027446Y032928D01*
X027445Y032929D01*
X027309Y033076D01*
X027335Y033105D01*
X027359Y033135D01*
X027381Y033166D01*
X027399Y033198D01*
X027415Y033232D01*
X027427Y033267D01*
X027437Y033302D01*
X027444Y03334D01*
X027449Y033378D01*
X02745Y033417D01*
X02765Y033176D01*
D02*
G37*
G36*
X050131Y032499D02*
X050114Y032493D01*
X050099Y032483D01*
X050086Y032469D01*
X050075Y032451D01*
X050066Y032429D01*
X050059Y032403D01*
X050054Y032372D01*
X050051Y032338D01*
X05005Y0323D01*
X04985D01*
X049849Y032338D01*
X049846Y032372D01*
X049841Y032403D01*
X049834Y032429D01*
X049825Y032451D01*
X049814Y032469D01*
X049801Y032483D01*
X049786Y032493D01*
X049769Y032499D01*
X04975Y032501D01*
X05015D01*
X050131Y032499D01*
D02*
G37*
G36*
X042481D02*
X042464Y032493D01*
X042449Y032483D01*
X042436Y032469D01*
X042425Y032451D01*
X042416Y032429D01*
X042409Y032403D01*
X042404Y032372D01*
X042401Y032338D01*
X0424Y0323D01*
X0422D01*
X042199Y032338D01*
X042196Y032372D01*
X042191Y032403D01*
X042184Y032429D01*
X042175Y032451D01*
X042164Y032469D01*
X042151Y032483D01*
X042136Y032493D01*
X042119Y032499D01*
X0421Y032501D01*
X0425D01*
X042481Y032499D01*
D02*
G37*
G36*
X034731D02*
X034714Y032493D01*
X034699Y032483D01*
X034686Y032469D01*
X034675Y032451D01*
X034666Y032429D01*
X034659Y032403D01*
X034654Y032372D01*
X034651Y032338D01*
X03465Y0323D01*
X03445D01*
X034449Y032338D01*
X034446Y032372D01*
X034441Y032403D01*
X034434Y032429D01*
X034425Y032451D01*
X034414Y032469D01*
X034401Y032483D01*
X034386Y032493D01*
X034369Y032499D01*
X03435Y032501D01*
X03475D01*
X034731Y032499D01*
D02*
G37*
G36*
X024331Y030425D02*
X024314Y030419D01*
X024299Y030409D01*
X024286Y030395D01*
X024275Y030377D01*
X024266Y030355D01*
X024259Y030329D01*
X024254Y030299D01*
X024251Y030264D01*
X02425Y030226D01*
X02405D01*
X024049Y030264D01*
X024046Y030298D01*
X024041Y030328D01*
X024034Y030354D01*
X024025Y030376D01*
X024014Y030394D01*
X024002Y030408D01*
X023987Y030418D01*
X02397Y030424D01*
X023951Y030426D01*
X02435Y030427D01*
X024331Y030425D01*
D02*
G37*
G36*
X04813Y030473D02*
X048113Y030464D01*
X048098Y030449D01*
X048086Y030428D01*
X048075Y030401D01*
X048066Y030368D01*
X048059Y030329D01*
X048054Y030284D01*
X048051Y030205D01*
X048062Y030073D01*
X048069Y03004D01*
X048078Y030013D01*
X048088Y029992D01*
X048099Y029977D01*
X048112Y029968D01*
X048127Y029965D01*
X047814D01*
X047802Y029968D01*
X047791Y029977D01*
X047781Y029992D01*
X047773Y030013D01*
X047766Y03004D01*
X04776Y030073D01*
X047756Y030112D01*
X047752Y030176D01*
X04775D01*
X047749Y030233D01*
X047741Y030329D01*
X047734Y030368D01*
X047725Y030401D01*
X047714Y030428D01*
X047702Y030449D01*
X047687Y030464D01*
X04767Y030473D01*
X047651Y030476D01*
X048149D01*
X04813Y030473D01*
D02*
G37*
G36*
X03233D02*
X032313Y030464D01*
X032298Y030449D01*
X032286Y030428D01*
X032275Y030401D01*
X032266Y030368D01*
X032259Y030329D01*
X032254Y030284D01*
X03225Y030187D01*
X032251Y030158D01*
X032262Y030023D01*
X032269Y02999D01*
X032278Y029963D01*
X032288Y029942D01*
X032299Y029927D01*
X032312Y029918D01*
X032327Y029915D01*
X032014D01*
X032002Y029918D01*
X031991Y029927D01*
X031981Y029942D01*
X031973Y029963D01*
X031966Y02999D01*
X03196Y030023D01*
X031956Y030062D01*
X031951Y030158D01*
X03195Y030176D01*
X03195D01*
X031949Y030233D01*
X031941Y030329D01*
X031934Y030368D01*
X031925Y030401D01*
X031914Y030428D01*
X031902Y030449D01*
X031887Y030464D01*
X03187Y030473D01*
X031851Y030476D01*
X032349D01*
X03233Y030473D01*
D02*
G37*
G36*
X024251Y030027D02*
X024254Y029993D01*
X024259Y029963D01*
X024266Y029937D01*
X024275Y029915D01*
X024286Y029897D01*
X024299Y029882D01*
X024314Y029872D01*
X024331Y029866D01*
X02435Y029864D01*
X024114Y029865D01*
X024102Y029867D01*
X024091Y029873D01*
X024081Y029883D01*
X024073Y029897D01*
X024066Y029915D01*
X02406Y029937D01*
X024056Y029963D01*
X024053Y029993D01*
X02405Y030065D01*
X02425D01*
X024251Y030027D01*
D02*
G37*
G36*
X047015Y02963D02*
X047014Y029641D01*
X04701Y029652D01*
X047004Y029661D01*
X046996Y029668D01*
X046995Y029669D01*
Y02963D01*
X046994Y029641D01*
X04699Y029652D01*
X046984Y029661D01*
X046976Y029668D01*
X046965Y029675D01*
X046951Y02968D01*
X046936Y029685D01*
X046917Y029688D01*
X046897Y029689D01*
X046874Y02969D01*
Y02981D01*
X046897Y029811D01*
X046917Y029812D01*
X046936Y029815D01*
X046951Y02982D01*
X046965Y029825D01*
X046976Y029832D01*
X046984Y029839D01*
X04699Y029848D01*
X046994Y029859D01*
X046995Y02987D01*
Y029831D01*
X046996Y029832D01*
X047004Y029839D01*
X04701Y029848D01*
X047014Y029859D01*
X047015Y02987D01*
Y02963D01*
D02*
G37*
G36*
X031215Y02958D02*
X031214Y029591D01*
X03121Y029602D01*
X031204Y029611D01*
X031196Y029618D01*
X031185Y029625D01*
X031172Y02963D01*
X031156Y029635D01*
X031145Y029636D01*
Y02958D01*
X031144Y029591D01*
X03114Y029602D01*
X031134Y029611D01*
X031126Y029618D01*
X031115Y029625D01*
X031101Y02963D01*
X031086Y029635D01*
X031067Y029638D01*
X031047Y029639D01*
X031024Y02964D01*
Y02976D01*
X031047Y029761D01*
X031067Y029762D01*
X031086Y029765D01*
X031101Y02977D01*
X031115Y029775D01*
X031126Y029782D01*
X031134Y029789D01*
X03114Y029798D01*
X031144Y029809D01*
X031145Y02982D01*
Y029764D01*
X031156Y029765D01*
X031172Y02977D01*
X031185Y029775D01*
X031196Y029782D01*
X031204Y029789D01*
X03121Y029798D01*
X031214Y029809D01*
X031215Y02982D01*
Y02958D01*
D02*
G37*
G36*
X023315Y02953D02*
X023314Y029541D01*
X02331Y029552D01*
X023304Y029561D01*
X023296Y029568D01*
X023285Y029575D01*
X023272Y02958D01*
X023256Y029585D01*
X023238Y029588D01*
X023217Y029589D01*
X023195Y02959D01*
Y02953D01*
X023194Y029541D01*
X02319Y029552D01*
X023184Y029561D01*
X023176Y029568D01*
X023165Y029575D01*
X023151Y02958D01*
X023136Y029585D01*
X023117Y029588D01*
X023097Y029589D01*
X023074Y02959D01*
Y02971D01*
X023097Y029711D01*
X023117Y029712D01*
X023136Y029715D01*
X023151Y02972D01*
X023165Y029725D01*
X023176Y029732D01*
X023184Y029739D01*
X02319Y029748D01*
X023194Y029759D01*
X023195Y02977D01*
Y02971D01*
X023217Y029711D01*
X023238Y029712D01*
X023256Y029715D01*
X023272Y02972D01*
X023285Y029725D01*
X023296Y029732D01*
X023304Y029739D01*
X02331Y029748D01*
X023314Y029759D01*
X023315Y02977D01*
Y02953D01*
D02*
G37*
G36*
X0344Y0283D02*
Y0282D01*
X034159Y0284D01*
X034198Y028401D01*
X034235Y028405D01*
X034271Y028411D01*
X034306Y028419D01*
X034339Y02843D01*
X03437Y028443D01*
X0344Y028459D01*
X034428Y028477D01*
X034454Y028498D01*
X034479Y028521D01*
X0344Y0283D01*
D02*
G37*
G36*
X07215Y02694D02*
X072151Y026926D01*
X072153Y026916D01*
X072155Y026909D01*
X072158Y026907D01*
X072161Y026908D01*
X072165Y026914D01*
X072176Y026936D01*
X072182Y026953D01*
X072201Y026695D01*
X072191Y026661D01*
X072188Y026646D01*
X072186Y026634D01*
X072185Y026624D01*
X072185Y026615D01*
X072187Y026609D01*
X07219Y026604D01*
X072194Y026601D01*
X0722Y0266D01*
X0721Y0265D01*
X071931Y0266D01*
X071949Y026601D01*
X071965Y026604D01*
X071979Y026609D01*
X07199Y026615D01*
X071998Y026624D01*
X072003Y026634D01*
X072006Y026646D01*
X072006Y026661D01*
X072004Y026677D01*
X071999Y026695D01*
X072018Y026953D01*
X072024Y026936D01*
X07203Y026923D01*
X072035Y026914D01*
X072039Y026908D01*
X072042Y026907D01*
X072045Y026909D01*
X072047Y026916D01*
X07205Y02694D01*
X07205Y026958D01*
X07215D01*
X07215Y02694D01*
D02*
G37*
%LPC*%
G36*
X022809Y064811D02*
X022638D01*
Y064625D01*
X023058D01*
X023035Y06468D01*
X022993Y064734D01*
X022939Y064776D01*
X022876Y064802D01*
X022809Y064811D01*
D02*
G37*
G36*
X022488D02*
X022317D01*
X02225Y064802D01*
X022187Y064776D01*
X022133Y064734D01*
X022091Y06468D01*
X022068Y064625D01*
X022488D01*
Y064811D01*
D02*
G37*
G36*
X046934Y054775D02*
X046609D01*
Y05461D01*
X046689Y054615D01*
X046698Y054619D01*
X046701Y054624D01*
X046701Y054612D01*
X046749Y054615D01*
X046758Y054619D01*
X046761Y054624D01*
X046761Y054425D01*
X046934D01*
Y054775D01*
D02*
G37*
G36*
X017675Y050425D02*
X017536D01*
Y05042D01*
X017535Y050425D01*
X017399D01*
X017397Y050421D01*
X017393Y050409D01*
X017391Y050395D01*
X01739Y05038D01*
X017383D01*
Y050114D01*
X017675D01*
Y050425D01*
D02*
G37*
G36*
X018117D02*
X017825D01*
Y050114D01*
X018117D01*
Y050425D01*
D02*
G37*
G36*
X046842Y046925D02*
X0466D01*
Y046575D01*
X046925D01*
Y046774D01*
X046751D01*
X04677Y046777D01*
X046787Y046786D01*
X046802Y046801D01*
X046814Y046822D01*
X046825Y046849D01*
X046834Y046882D01*
X046841Y046921D01*
X046842Y046925D01*
D02*
G37*
G36*
X048426Y047051D02*
X047374D01*
Y046925D01*
X047159D01*
X047159Y046921D01*
X047166Y046882D01*
X047175Y046849D01*
X047186Y046822D01*
X047198Y046801D01*
X047213Y046786D01*
X04723Y046777D01*
X047249Y046774D01*
X047075D01*
Y0465D01*
X047D01*
Y046425D01*
X0466D01*
Y046096D01*
X046148D01*
X046065Y046159D01*
X045937Y046212D01*
X0458Y04623D01*
X045663Y046212D01*
X045535Y046159D01*
X045425Y046075D01*
X045341Y045965D01*
X045288Y045837D01*
X04527Y0457D01*
X045288Y045563D01*
X045341Y045435D01*
X045425Y045325D01*
X045535Y045241D01*
X045663Y045188D01*
X0458Y04517D01*
X045937Y045188D01*
X046053Y045236D01*
X046079Y045237D01*
X046747D01*
Y045108D01*
X047014D01*
X047023Y045107D01*
X047032Y045108D01*
X048413D01*
Y045949D01*
X048426D01*
Y046217D01*
X048427Y046225D01*
X048426Y046235D01*
Y046593D01*
X048429Y046621D01*
X048426Y046649D01*
Y047051D01*
D02*
G37*
G36*
X050684Y04353D02*
X049216D01*
X049079Y043512D01*
X048951Y043459D01*
X048841Y043375D01*
X048757Y043265D01*
X048704Y043137D01*
X048686Y043D01*
Y0425D01*
X048704Y042363D01*
X048757Y042235D01*
X048841Y042125D01*
X048951Y042041D01*
X049079Y041988D01*
X049216Y04197D01*
X050684D01*
X050821Y041988D01*
X050949Y042041D01*
X051059Y042125D01*
X051143Y042235D01*
X051196Y042363D01*
X051214Y0425D01*
Y043D01*
X051196Y043137D01*
X051143Y043265D01*
X051059Y043375D01*
X050949Y043459D01*
X050821Y043512D01*
X050684Y04353D01*
D02*
G37*
G36*
X021834D02*
X020366D01*
X020229Y043512D01*
X020101Y043459D01*
X019991Y043375D01*
X019907Y043265D01*
X019854Y043137D01*
X019836Y043D01*
Y0425D01*
X019854Y042363D01*
X019907Y042235D01*
X019991Y042125D01*
X020101Y042041D01*
X020229Y041988D01*
X020366Y04197D01*
X021834D01*
X021971Y041988D01*
X022099Y042041D01*
X022209Y042125D01*
X022293Y042235D01*
X022346Y042363D01*
X022364Y0425D01*
Y043D01*
X022346Y043137D01*
X022293Y043265D01*
X022209Y043375D01*
X022099Y043459D01*
X021971Y043512D01*
X021834Y04353D01*
D02*
G37*
G36*
X050684Y04153D02*
X049216D01*
X049079Y041512D01*
X048951Y041459D01*
X048841Y041375D01*
X048757Y041265D01*
X048704Y041137D01*
X048686Y041D01*
Y0405D01*
X048704Y040363D01*
X048757Y040235D01*
X048841Y040125D01*
X048951Y040041D01*
X049079Y039988D01*
X049216Y03997D01*
X050684D01*
X050821Y039988D01*
X050949Y040041D01*
X051059Y040125D01*
X051143Y040235D01*
X051196Y040363D01*
X051214Y0405D01*
Y041D01*
X051196Y041137D01*
X051143Y041265D01*
X051059Y041375D01*
X050949Y041459D01*
X050821Y041512D01*
X050684Y04153D01*
D02*
G37*
G36*
X020674Y039799D02*
Y039775D01*
X020684D01*
X020674Y039799D01*
D02*
G37*
G36*
X020684Y039625D02*
X020674D01*
Y039601D01*
X020684Y039625D01*
D02*
G37*
G36*
X046745Y039075D02*
X04655D01*
Y038725D01*
X046875D01*
Y038924D01*
X046701D01*
X04671Y038927D01*
X046719Y038936D01*
X046726Y038951D01*
X046732Y038972D01*
X046738Y038999D01*
X046742Y039032D01*
X046745Y039075D01*
D02*
G37*
G36*
X018548Y037799D02*
Y037775D01*
X018558D01*
X018548Y037799D01*
D02*
G37*
G36*
X018558Y037625D02*
X018548D01*
Y037601D01*
X018558Y037625D01*
D02*
G37*
G36*
X050684Y03578D02*
X049216D01*
X049079Y035762D01*
X048951Y035709D01*
X048841Y035625D01*
X048757Y035515D01*
X048704Y035387D01*
X048686Y03525D01*
Y03475D01*
X048704Y034613D01*
X048757Y034485D01*
X048841Y034375D01*
X048951Y034291D01*
X049079Y034238D01*
X049216Y03422D01*
X050684D01*
X050821Y034238D01*
X050949Y034291D01*
X051059Y034375D01*
X051143Y034485D01*
X051196Y034613D01*
X051214Y03475D01*
Y03525D01*
X051196Y035387D01*
X051143Y035515D01*
X051059Y035625D01*
X050949Y035709D01*
X050821Y035762D01*
X050684Y03578D01*
D02*
G37*
G36*
X018265Y034275D02*
X018125D01*
Y033964D01*
X018417D01*
Y034149D01*
X018315Y034141D01*
X018297Y034137D01*
X018283Y034133D01*
X018273Y034128D01*
X018267Y034122D01*
X018265Y034115D01*
X018265Y034275D01*
D02*
G37*
G36*
X017975D02*
X017683D01*
Y033964D01*
X017975D01*
Y034275D01*
D02*
G37*
G36*
X021834Y03378D02*
X020366D01*
X020229Y033762D01*
X020101Y033709D01*
X019991Y033625D01*
X019907Y033515D01*
X019854Y033387D01*
X019836Y03325D01*
Y03275D01*
X019854Y032613D01*
X019907Y032485D01*
X019991Y032375D01*
X020101Y032291D01*
X020229Y032238D01*
X020366Y03222D01*
X021834D01*
X021971Y032238D01*
X022099Y032291D01*
X022209Y032375D01*
X022293Y032485D01*
X022346Y032613D01*
X022364Y03275D01*
Y03325D01*
X022346Y033387D01*
X022293Y033515D01*
X022209Y033625D01*
X022099Y033709D01*
X021971Y033762D01*
X021834Y03378D01*
D02*
G37*
G36*
X023198Y031125D02*
X0229D01*
Y030775D01*
X023225D01*
Y030974D01*
X0231D01*
X023119Y030976D01*
X023136Y030982D01*
X023151Y030992D01*
X023164Y031006D01*
X023175Y031024D01*
X023184Y031046D01*
X023191Y031072D01*
X023196Y031102D01*
X023198Y031125D01*
D02*
G37*
G36*
X023225Y030625D02*
X0229D01*
Y030275D01*
X023225D01*
Y030625D01*
D02*
G37*
%LPD*%
G36*
X048149Y046226D02*
X048145Y046223D01*
X048142Y046215D01*
X048139Y046201D01*
X048137Y046182D01*
X048133Y046127D01*
X04813Y045951D01*
X04783D01*
X047829Y046003D01*
X047825Y04605D01*
X047819Y046092D01*
X04781Y046128D01*
X047799Y046158D01*
X047785Y046183D01*
X047769Y046202D01*
X04775Y046216D01*
X047729Y046225D01*
X047705Y046227D01*
X048149Y046226D01*
D02*
G37*
G36*
X046006Y045843D02*
X046015Y045838D01*
X046026Y045833D01*
X04604Y045828D01*
X046055Y045825D01*
X046074Y045822D01*
X046118Y045818D01*
X046171Y045817D01*
X04612Y045517D01*
X046091Y045516D01*
X045976Y04551D01*
X045966Y045508D01*
X045958Y045505D01*
X045953Y045503D01*
X046Y04585D01*
X046006Y045843D01*
D02*
G37*
G36*
X047023Y045815D02*
Y045385D01*
X04702Y04541D01*
X047011Y045432D01*
X046996Y045452D01*
X046975Y045469D01*
X046948Y045484D01*
X046915Y045495D01*
X046876Y045505D01*
X046831Y045511D01*
X04678Y045515D01*
X046723Y045517D01*
Y045817D01*
X047023Y045815D01*
D02*
G37*
%LPC*%
G36*
X037734Y05938D02*
X036266D01*
X036129Y059362D01*
X036001Y059309D01*
X035891Y059225D01*
X035807Y059115D01*
X03576Y059003D01*
X035685Y058972D01*
X035596Y058904D01*
X035361Y058668D01*
X035314Y058687D01*
Y05885D01*
X035296Y058987D01*
X035243Y059115D01*
X035159Y059225D01*
X035049Y059309D01*
X034921Y059362D01*
X034784Y05938D01*
X033316D01*
X033179Y059362D01*
X033051Y059309D01*
X032941Y059225D01*
X032857Y059115D01*
X032804Y058987D01*
X032786Y05885D01*
Y05835D01*
X032804Y058213D01*
X032857Y058085D01*
X032941Y057975D01*
X033051Y057891D01*
X033179Y057838D01*
X033316Y05782D01*
X034784D01*
X034921Y057838D01*
X035049Y057891D01*
X035076Y057911D01*
X035121Y057889D01*
Y057311D01*
X035076Y057289D01*
X035049Y057309D01*
X034921Y057362D01*
X034784Y05738D01*
X033316D01*
X033179Y057362D01*
X033051Y057309D01*
X032941Y057225D01*
X032857Y057115D01*
X032804Y056987D01*
X032786Y05685D01*
Y05635D01*
X032804Y056213D01*
X032857Y056085D01*
X032941Y055975D01*
X033051Y055891D01*
X033179Y055838D01*
X033316Y05582D01*
X034784D01*
X034921Y055838D01*
X035049Y055891D01*
X035076Y055911D01*
X035121Y055889D01*
Y051311D01*
X035076Y051289D01*
X035049Y051309D01*
X034921Y051362D01*
X034784Y05138D01*
X033316D01*
X033179Y051362D01*
X033051Y051309D01*
X032941Y051225D01*
X032857Y051115D01*
X032804Y050987D01*
X032786Y05085D01*
Y05035D01*
X032804Y050213D01*
X032857Y050085D01*
X032941Y049975D01*
X033051Y049891D01*
X033179Y049838D01*
X033316Y04982D01*
X034784D01*
X034921Y049838D01*
X035049Y049891D01*
X035076Y049911D01*
X035121Y049889D01*
Y049311D01*
X035076Y049289D01*
X035049Y049309D01*
X034921Y049362D01*
X034784Y04938D01*
X033316D01*
X033179Y049362D01*
X033051Y049309D01*
X032941Y049225D01*
X032857Y049115D01*
X032804Y048987D01*
X032786Y04885D01*
Y04835D01*
X032804Y048213D01*
X032857Y048085D01*
X032941Y047975D01*
X033051Y047891D01*
X033179Y047838D01*
X033316Y04782D01*
X034784D01*
X034921Y047838D01*
X035049Y047891D01*
X035076Y047911D01*
X035121Y047889D01*
Y043461D01*
X035076Y043439D01*
X035049Y043459D01*
X034921Y043512D01*
X034784Y04353D01*
X033316D01*
X033179Y043512D01*
X033051Y043459D01*
X032941Y043375D01*
X032857Y043265D01*
X032804Y043137D01*
X032786Y043D01*
Y0425D01*
X032804Y042363D01*
X032857Y042235D01*
X032941Y042125D01*
X033051Y042041D01*
X033179Y041988D01*
X033316Y04197D01*
X034784D01*
X034921Y041988D01*
X035049Y042041D01*
X035076Y042061D01*
X035121Y042039D01*
Y041461D01*
X035076Y041439D01*
X035049Y041459D01*
X034921Y041512D01*
X034784Y04153D01*
X033316D01*
X033179Y041512D01*
X033051Y041459D01*
X032941Y041375D01*
X032857Y041265D01*
X032804Y041137D01*
X032786Y041D01*
Y0405D01*
X032804Y040363D01*
X032857Y040235D01*
X032941Y040125D01*
X033051Y040041D01*
X033179Y039988D01*
X033316Y03997D01*
X034784D01*
X034921Y039988D01*
X035049Y040041D01*
X035076Y040061D01*
X035121Y040039D01*
Y03785D01*
X035135Y037739D01*
X035178Y037635D01*
X035246Y037546D01*
X036571Y036222D01*
Y03578D01*
X036266D01*
X036129Y035762D01*
X036001Y035709D01*
X035891Y035625D01*
X035807Y035515D01*
X035754Y035387D01*
X035736Y03525D01*
Y03475D01*
X035754Y034613D01*
X035807Y034485D01*
X035891Y034375D01*
X036001Y034291D01*
X036129Y034238D01*
X036266Y03422D01*
X037734D01*
X037871Y034238D01*
X03792Y034258D01*
X037962Y03423D01*
Y03377D01*
X03792Y033742D01*
X037871Y033762D01*
X037734Y03378D01*
X036266D01*
X036129Y033762D01*
X036001Y033709D01*
X035891Y033625D01*
X035807Y033515D01*
X035754Y033387D01*
X035736Y03325D01*
Y03275D01*
X035754Y032613D01*
X035807Y032485D01*
X035891Y032375D01*
X036001Y032291D01*
X036129Y032238D01*
X036266Y03222D01*
X037734D01*
X037871Y032238D01*
X03792Y032258D01*
X037962Y03223D01*
Y02985D01*
X037973Y029762D01*
X038007Y029681D01*
X038061Y029611D01*
X038261Y029411D01*
X038331Y029357D01*
X038412Y029323D01*
X0385Y029312D01*
X038824D01*
X038839Y029302D01*
X038856Y029289D01*
X03887Y029284D01*
X038882Y029276D01*
X038887Y029274D01*
Y029208D01*
X040553D01*
Y029906D01*
X040555Y029915D01*
X040553Y029923D01*
X040554Y029932D01*
X040553Y029935D01*
Y030192D01*
X040576Y030199D01*
Y030467D01*
X040577Y030476D01*
X040576Y030485D01*
Y031301D01*
X039524D01*
Y031175D01*
X039309D01*
X039309Y031171D01*
X039316Y031132D01*
X039325Y031099D01*
X039336Y031072D01*
X039348Y031051D01*
X039363Y031036D01*
X03938Y031027D01*
X039399Y031024D01*
X039225D01*
Y03075D01*
Y030325D01*
X039524D01*
Y030199D01*
X039477Y030192D01*
X038887D01*
Y030026D01*
X038882Y030024D01*
X03887Y030016D01*
X038856Y030011D01*
X038839Y029998D01*
X038824Y029988D01*
X03864D01*
X038638Y02999D01*
Y036287D01*
X03866Y036313D01*
X038663Y036316D01*
X038675Y036325D01*
X038759Y036435D01*
X038812Y036563D01*
X03883Y0367D01*
X038812Y036837D01*
X038759Y036965D01*
X038675Y037075D01*
X038565Y037159D01*
X038437Y037212D01*
X0383Y03723D01*
X038163Y037212D01*
X038035Y037159D01*
X037925Y037075D01*
X037841Y036965D01*
X037788Y036837D01*
X03777Y0367D01*
X037788Y036563D01*
X037841Y036435D01*
X037925Y036325D01*
X037937Y036316D01*
X037943Y03631D01*
X037953Y036299D01*
X03796Y03629D01*
X037962Y036287D01*
Y03577D01*
X03792Y035742D01*
X037871Y035762D01*
X037734Y03578D01*
X037429D01*
Y0364D01*
X037429Y0364D01*
X037415Y036511D01*
X037397Y036554D01*
X037372Y036615D01*
X037304Y036704D01*
X035979Y038028D01*
Y039997D01*
X036029Y040029D01*
X036129Y039988D01*
X036266Y03997D01*
X037734D01*
X037871Y039988D01*
X037999Y040041D01*
X038109Y040125D01*
X038193Y040235D01*
X038246Y040363D01*
X038264Y0405D01*
Y041D01*
X038246Y041137D01*
X038193Y041265D01*
X038109Y041375D01*
X037999Y041459D01*
X037871Y041512D01*
X037734Y04153D01*
X036266D01*
X036129Y041512D01*
X036029Y041471D01*
X035979Y041503D01*
Y041997D01*
X036029Y042029D01*
X036129Y041988D01*
X036266Y04197D01*
X037734D01*
X037871Y041988D01*
X037999Y042041D01*
X038109Y042125D01*
X038193Y042235D01*
X038246Y042363D01*
X038264Y0425D01*
Y043D01*
X038246Y043137D01*
X038193Y043265D01*
X038109Y043375D01*
X037999Y043459D01*
X037871Y043512D01*
X037734Y04353D01*
X036266D01*
X036129Y043512D01*
X036029Y043471D01*
X035979Y043503D01*
Y047847D01*
X036029Y047879D01*
X036129Y047838D01*
X036266Y04782D01*
X037734D01*
X037871Y047838D01*
X037999Y047891D01*
X038109Y047975D01*
X038193Y048085D01*
X038246Y048213D01*
X038264Y04835D01*
Y04885D01*
X038246Y048987D01*
X038193Y049115D01*
X038109Y049225D01*
X037999Y049309D01*
X037871Y049362D01*
X037734Y04938D01*
X036266D01*
X036129Y049362D01*
X036029Y049321D01*
X035979Y049353D01*
Y049847D01*
X036029Y049879D01*
X036129Y049838D01*
X036266Y04982D01*
X037734D01*
X037871Y049838D01*
X037999Y049891D01*
X038109Y049975D01*
X038193Y050085D01*
X038246Y050213D01*
X038264Y05035D01*
Y05085D01*
X038246Y050987D01*
X038193Y051115D01*
X038109Y051225D01*
X037999Y051309D01*
X037871Y051362D01*
X037734Y05138D01*
X036266D01*
X036129Y051362D01*
X036029Y051321D01*
X035979Y051353D01*
Y055847D01*
X036029Y055879D01*
X036129Y055838D01*
X036266Y05582D01*
X037734D01*
X037871Y055838D01*
X037999Y055891D01*
X038109Y055975D01*
X038193Y056085D01*
X038246Y056213D01*
X038264Y05635D01*
Y05685D01*
X038246Y056987D01*
X038193Y057115D01*
X038109Y057225D01*
X037999Y057309D01*
X037871Y057362D01*
X037734Y05738D01*
X036266D01*
X036129Y057362D01*
X036029Y057321D01*
X035979Y057353D01*
Y057847D01*
X036029Y057879D01*
X036129Y057838D01*
X036266Y05782D01*
X037734D01*
X037871Y057838D01*
X037999Y057891D01*
X038109Y057975D01*
X038193Y058085D01*
X038246Y058213D01*
X038264Y05835D01*
Y05885D01*
X038246Y058987D01*
X038193Y059115D01*
X038109Y059225D01*
X037999Y059309D01*
X037871Y059362D01*
X037734Y05938D01*
D02*
G37*
G36*
X038975Y054775D02*
X03865D01*
Y054425D01*
X038975D01*
Y054775D01*
D02*
G37*
G36*
X040476Y054901D02*
X039424D01*
Y054775D01*
X039125D01*
Y05435D01*
X03905D01*
Y054275D01*
X03865D01*
Y053925D01*
X038751D01*
X038787Y053892D01*
Y053194D01*
X038786Y053185D01*
X038787Y053176D01*
Y053168D01*
X038787Y053162D01*
X038787Y053161D01*
Y052975D01*
X038741Y052915D01*
X038688Y052787D01*
X03867Y05265D01*
X038688Y052513D01*
X038741Y052385D01*
X038825Y052275D01*
X038935Y052191D01*
X039063Y052138D01*
X0392Y05212D01*
X039337Y052138D01*
X039465Y052191D01*
X039575Y052275D01*
X039659Y052385D01*
X039712Y052513D01*
X03973Y05265D01*
X03972Y05273D01*
X039729Y052804D01*
Y052908D01*
X040453D01*
Y053522D01*
X040466Y053552D01*
X040479Y05365D01*
Y0542D01*
X040476Y054225D01*
Y054901D01*
D02*
G37*
G36*
X038842Y046925D02*
X0386D01*
Y046575D01*
X038925D01*
Y046774D01*
X038751D01*
X03877Y046777D01*
X038787Y046786D01*
X038802Y046801D01*
X038814Y046822D01*
X038825Y046849D01*
X038834Y046882D01*
X038841Y046921D01*
X038842Y046925D01*
D02*
G37*
G36*
X040426Y047051D02*
X039374D01*
Y046925D01*
X039159D01*
X039159Y046921D01*
X039166Y046882D01*
X039175Y046849D01*
X039186Y046822D01*
X039198Y046801D01*
X039213Y046786D01*
X03923Y046777D01*
X039249Y046774D01*
X039075D01*
Y0465D01*
X039D01*
Y046425D01*
X0386D01*
Y046075D01*
X038697D01*
X038697Y046074D01*
X038714Y046025D01*
X038712Y046023D01*
X038697Y046012D01*
X038687Y045998D01*
X038674Y045986D01*
X038672Y045982D01*
X038639Y045979D01*
X038232D01*
X038004Y046208D01*
X037959Y046315D01*
X037875Y046425D01*
X037765Y046509D01*
X037637Y046562D01*
X0375Y04658D01*
X037363Y046562D01*
X037235Y046509D01*
X037125Y046425D01*
X037041Y046315D01*
X036988Y046187D01*
X03697Y04605D01*
X036988Y045913D01*
X037041Y045785D01*
X037125Y045675D01*
X037235Y045591D01*
X037363Y045538D01*
X037474Y045523D01*
X037751Y045246D01*
X037839Y045178D01*
X037943Y045135D01*
X038054Y045121D01*
X038736D01*
X038737Y045121D01*
Y045108D01*
X038885D01*
X038894Y045107D01*
X038896Y045107D01*
X038898Y045107D01*
X038906Y045108D01*
X039005D01*
X039014Y045107D01*
X039016Y045107D01*
X039018Y045107D01*
X039026Y045108D01*
X039822D01*
X03985Y045104D01*
X039878Y045108D01*
X040403D01*
Y045806D01*
X040405Y045815D01*
X040403Y045824D01*
Y045949D01*
X040426D01*
Y046217D01*
X040427Y046226D01*
X040426Y046235D01*
Y047051D01*
D02*
G37*
G36*
X039233Y039075D02*
X039225D01*
Y039068D01*
X039233Y039075D01*
D02*
G37*
G36*
X039075D02*
X03875D01*
Y038725D01*
X039075D01*
Y038811D01*
X038901Y038924D01*
X038939Y038926D01*
X038976Y038932D01*
X039015Y038943D01*
X039054Y038958D01*
X039075Y038968D01*
Y039075D01*
D02*
G37*
G36*
X031175D02*
X03085D01*
Y038725D01*
X031175D01*
Y038828D01*
X031001Y038924D01*
X031029Y038926D01*
X031058Y038932D01*
X031089Y038943D01*
X031122Y038958D01*
X031156Y038977D01*
X031175Y038989D01*
Y039075D01*
D02*
G37*
G36*
X040576Y039201D02*
X039524D01*
Y039075D01*
X039468D01*
X039611Y039024D01*
X039548Y038958D01*
X039449Y038843D01*
X039414Y038792D01*
X039388Y038747D01*
X039371Y038708D01*
X039364Y038673D01*
X039366Y038643D01*
X039378Y038619D01*
X039399Y0386D01*
X039225Y038713D01*
Y03865D01*
X03915D01*
Y038575D01*
X03875D01*
Y038225D01*
X038887D01*
Y038138D01*
X03784D01*
X0376Y038378D01*
X037579Y038402D01*
X037578Y038403D01*
X037519Y038494D01*
X037515Y0385D01*
X037509Y038515D01*
X037425Y038625D01*
X037315Y038709D01*
X037187Y038762D01*
X03705Y03878D01*
X036913Y038762D01*
X036785Y038709D01*
X036675Y038625D01*
X036591Y038515D01*
X036538Y038387D01*
X03652Y03825D01*
X036538Y038113D01*
X036591Y037985D01*
X036675Y037875D01*
X036785Y037791D01*
X036913Y037738D01*
X03705Y03772D01*
X037187Y037738D01*
X037255Y037766D01*
X037461Y037561D01*
X037531Y037507D01*
X037612Y037473D01*
X0377Y037462D01*
X038887D01*
Y037308D01*
X040553D01*
Y038099D01*
X040576D01*
Y038367D01*
X040577Y038376D01*
X040576Y038385D01*
Y039201D01*
D02*
G37*
G36*
X042734Y03578D02*
X041266D01*
X041129Y035762D01*
X041001Y035709D01*
X040891Y035625D01*
X040807Y035515D01*
X040754Y035387D01*
X040736Y03525D01*
Y03475D01*
X040754Y034613D01*
X040807Y034485D01*
X040891Y034375D01*
X041001Y034291D01*
X041129Y034238D01*
X041266Y03422D01*
X042734D01*
X042871Y034238D01*
X042999Y034291D01*
X043109Y034375D01*
X043193Y034485D01*
X043246Y034613D01*
X043264Y03475D01*
Y03525D01*
X043246Y035387D01*
X043193Y035515D01*
X043109Y035625D01*
X042999Y035709D01*
X042871Y035762D01*
X042734Y03578D01*
D02*
G37*
G36*
X034784D02*
X033316D01*
X033179Y035762D01*
X033051Y035709D01*
X032941Y035625D01*
X032857Y035515D01*
X032804Y035387D01*
X032786Y03525D01*
Y03475D01*
X032804Y034613D01*
X032857Y034485D01*
X032941Y034375D01*
X033051Y034291D01*
X033179Y034238D01*
X033316Y03422D01*
X034784D01*
X034921Y034238D01*
X035049Y034291D01*
X035159Y034375D01*
X035243Y034485D01*
X035296Y034613D01*
X035314Y03475D01*
Y03525D01*
X035296Y035387D01*
X035243Y035515D01*
X035159Y035625D01*
X035049Y035709D01*
X034921Y035762D01*
X034784Y03578D01*
D02*
G37*
G36*
X038992Y031175D02*
X03875D01*
Y030825D01*
X039075D01*
Y031024D01*
X038901D01*
X03892Y031027D01*
X038937Y031036D01*
X038952Y031051D01*
X038964Y031072D01*
X038975Y031099D01*
X038984Y031132D01*
X038991Y031171D01*
X038992Y031175D01*
D02*
G37*
G36*
X039075Y030675D02*
X03875D01*
Y030325D01*
X039075D01*
Y030675D01*
D02*
G37*
%LPD*%
G36*
X036485Y05877D02*
X036493Y058766D01*
X036504Y058762D01*
X036518Y058759D01*
X036534Y058756D01*
X036573Y058752D01*
X036622Y05875D01*
X03665Y05875D01*
Y05845D01*
X036622Y05845D01*
X036534Y058444D01*
X036518Y058441D01*
X036504Y058438D01*
X036493Y058434D01*
X036485Y05843D01*
X036479Y058425D01*
X0363Y0586D01*
X036479Y058775D01*
X036485Y05877D01*
D02*
G37*
G36*
X0363Y0586D02*
X036121Y058425D01*
X036115Y05843D01*
X036107Y058434D01*
X036096Y058438D01*
X036082Y058441D01*
X036066Y058444D01*
X035978Y05845D01*
X03595Y05845D01*
Y05875D01*
X035978Y05875D01*
X036027Y058752D01*
X036066Y058756D01*
X036082Y058759D01*
X036096Y058762D01*
X036107Y058766D01*
X036115Y05877D01*
X036121Y058775D01*
X0363Y0586D01*
D02*
G37*
G36*
X036022Y0503D02*
X036019Y050329D01*
X03601Y050354D01*
X035995Y050377D01*
X035973Y050396D01*
X035945Y050413D01*
X035912Y050426D01*
X035872Y050437D01*
X035826Y050444D01*
X035774Y050448D01*
X035716Y05045D01*
Y05075D01*
X035774Y050752D01*
X035826Y050756D01*
X035872Y050763D01*
X035912Y050774D01*
X035945Y050787D01*
X035973Y050804D01*
X035995Y050823D01*
X03601Y050846D01*
X036019Y050871D01*
X036022Y0509D01*
Y0503D01*
D02*
G37*
G36*
X035703Y043143D02*
X035712Y043092D01*
X035727Y043047D01*
X035748Y043008D01*
X035775Y042975D01*
X035808Y042948D01*
X035847Y042927D01*
X035881Y042916D01*
X035912Y042924D01*
X035945Y042937D01*
X035973Y042954D01*
X035995Y042973D01*
X03601Y042996D01*
X036019Y043021D01*
X036022Y04305D01*
Y04245D01*
X036019Y042479D01*
X03601Y042504D01*
X035995Y042527D01*
X035973Y042546D01*
X035945Y042563D01*
X035912Y042576D01*
X035881Y042584D01*
X035847Y042573D01*
X035808Y042552D01*
X035775Y042525D01*
X035748Y042492D01*
X035727Y042453D01*
X035712Y042408D01*
X035703Y042357D01*
X0357Y0423D01*
X0354Y04275D01*
X0357Y0432D01*
X035703Y043143D01*
D02*
G37*
G36*
X038453Y036499D02*
X038416Y036455D01*
X038401Y036433D01*
X038389Y036412D01*
X038378Y03639D01*
X03837Y036369D01*
X038365Y036348D01*
X038361Y036328D01*
X03836Y036307D01*
X03824D01*
X038239Y036328D01*
X038235Y036348D01*
X03823Y036369D01*
X038222Y03639D01*
X038211Y036412D01*
X038199Y036433D01*
X038184Y036455D01*
X038166Y036477D01*
X038147Y036499D01*
X038125Y036521D01*
X038475D01*
X038453Y036499D01*
D02*
G37*
G36*
X037152Y035743D02*
X037156Y035692D01*
X037164Y035646D01*
X037174Y035607D01*
X037188Y035574D01*
X037204Y035547D01*
X037223Y035526D01*
X037246Y035511D01*
X037271Y035502D01*
X0373Y035499D01*
X0367D01*
X036728Y035502D01*
X036754Y035511D01*
X036776Y035526D01*
X036796Y035547D01*
X036813Y035574D01*
X036826Y035607D01*
X036837Y035646D01*
X036844Y035692D01*
X036848Y035743D01*
X03685Y0358D01*
X03715D01*
X037152Y035743D01*
D02*
G37*
G36*
X04028Y030473D02*
X040263Y030464D01*
X040248Y030449D01*
X040236Y030428D01*
X040225Y030401D01*
X040216Y030368D01*
X040209Y030329D01*
X040204Y030284D01*
X0402Y030187D01*
X040201Y030158D01*
X040212Y030023D01*
X040219Y02999D01*
X040228Y029963D01*
X040238Y029942D01*
X040249Y029927D01*
X040262Y029918D01*
X040277Y029915D01*
X039964D01*
X039952Y029918D01*
X039941Y029927D01*
X039931Y029942D01*
X039923Y029963D01*
X039916Y02999D01*
X03991Y030023D01*
X039906Y030062D01*
X039901Y030158D01*
X0399Y030176D01*
X0399D01*
X039899Y030233D01*
X039891Y030329D01*
X039884Y030368D01*
X039875Y030401D01*
X039864Y030428D01*
X039852Y030449D01*
X039837Y030464D01*
X03982Y030473D01*
X039801Y030476D01*
X040299D01*
X04028Y030473D01*
D02*
G37*
G36*
X038995Y02953D02*
X038994Y029541D01*
X03899Y029552D01*
X038984Y029561D01*
X038976Y029568D01*
X038965Y029575D01*
X038951Y02958D01*
X038936Y029585D01*
X038917Y029588D01*
X038897Y029589D01*
X038874Y02959D01*
Y02971D01*
X038897Y029711D01*
X038917Y029712D01*
X038936Y029715D01*
X038951Y02972D01*
X038965Y029725D01*
X038976Y029732D01*
X038984Y029739D01*
X03899Y029748D01*
X038994Y029759D01*
X038995Y02977D01*
Y02953D01*
D02*
G37*
G36*
X040199Y054076D02*
X040199Y054074D01*
X040199Y054068D01*
X0402Y053876D01*
X04D01*
X039999Y053914D01*
X039996Y053948D01*
X039991Y053979D01*
X039984Y054005D01*
X039975Y054027D01*
X039964Y054045D01*
X039951Y054059D01*
X039936Y054069D01*
X039919Y054075D01*
X0399Y054077D01*
X040199Y054076D01*
D02*
G37*
G36*
X040165Y053572D02*
X04016Y053561D01*
X040155Y053547D01*
X040151Y053529D01*
X040148Y053509D01*
X040143Y053458D01*
X04014Y053395D01*
X04014Y053358D01*
X04006D01*
X04006Y053395D01*
X040052Y053509D01*
X040049Y053529D01*
X040045Y053547D01*
X04004Y053561D01*
X040035Y053572D01*
X040029Y053579D01*
X040171D01*
X040165Y053572D01*
D02*
G37*
G36*
X039391Y053182D02*
X039403Y053173D01*
X039414Y053158D01*
X039424Y053137D01*
X039432Y05311D01*
X039438Y053077D01*
X039443Y053038D01*
X039444Y053029D01*
X03945Y053029D01*
X039447Y052981D01*
X039449Y052942D01*
X03945Y052885D01*
X039441D01*
X039432Y052744D01*
X039111Y052884D01*
X039118Y052888D01*
X039125Y052895D01*
X039131Y052904D01*
X039136Y052917D01*
X03914Y052931D01*
X039144Y052949D01*
X039146Y052969D01*
X039147Y052974D01*
X039142Y053038D01*
X039136Y053077D01*
X039129Y05311D01*
X039119Y053137D01*
X039108Y053158D01*
X039095Y053173D01*
X03908Y053182D01*
X039064Y053185D01*
X039377D01*
X039391Y053182D01*
D02*
G37*
G36*
X040121Y046223D02*
X040095Y046214D01*
X040073Y046199D01*
X040054Y046178D01*
X040037Y046151D01*
X040024Y046118D01*
X040013Y046079D01*
X040006Y046034D01*
X040005Y046023D01*
X040011Y045962D01*
X04002Y045923D01*
X040032Y04589D01*
X040046Y045863D01*
X040062Y045842D01*
X040081Y045827D01*
X040103Y045818D01*
X040127Y045815D01*
X039814D01*
X039792Y045818D01*
X039773Y045827D01*
X039756Y045842D01*
X039741Y045863D01*
X039729Y04589D01*
X039718Y045923D01*
X039718Y045926D01*
X0397D01*
X0397Y045983D01*
X039688Y046151D01*
X039682Y046178D01*
X039676Y046199D01*
X039669Y046214D01*
X03966Y046223D01*
X039651Y046226D01*
X040149D01*
X040121Y046223D01*
D02*
G37*
G36*
X039014Y045385D02*
X039011Y045388D01*
X039002Y04539D01*
X038987Y045392D01*
X038966Y045394D01*
X038894Y045398D01*
Y045385D01*
X038891Y045388D01*
X038882Y04539D01*
X038867Y045392D01*
X038846Y045394D01*
X038747Y045399D01*
X038594Y0454D01*
Y0457D01*
X038651Y045701D01*
X038747Y04571D01*
X038786Y045718D01*
X038819Y045729D01*
X038846Y045742D01*
X038867Y045757D01*
X038882Y045774D01*
X038891Y045793D01*
X038894Y045815D01*
Y045716D01*
X038906Y045718D01*
X038939Y045729D01*
X038966Y045742D01*
X038987Y045757D01*
X039002Y045774D01*
X039011Y045793D01*
X039014Y045815D01*
Y045385D01*
D02*
G37*
G36*
X037749Y046081D02*
X037753Y046074D01*
X037758Y046066D01*
X037766Y046056D01*
X037802Y046016D01*
X037856Y045961D01*
X037685Y045707D01*
X037665Y045726D01*
X037612Y045772D01*
X037597Y045783D01*
X037584Y045791D01*
X037571Y045798D01*
X03756Y045802D01*
X03755Y045804D01*
X037541Y045803D01*
X037747Y046086D01*
X037749Y046081D01*
D02*
G37*
G36*
X04028Y038374D02*
X040263Y038366D01*
X040248Y038352D01*
X040236Y038333D01*
X040225Y038309D01*
X040216Y03828D01*
X040209Y038245D01*
X040204Y038205D01*
X040201Y03816D01*
X0402Y038109D01*
X0399D01*
X039899Y03816D01*
X039891Y038245D01*
X039884Y03828D01*
X039875Y038309D01*
X039864Y038333D01*
X039852Y038352D01*
X039837Y038366D01*
X03982Y038374D01*
X039801Y038376D01*
X040299D01*
X04028Y038374D01*
D02*
G37*
G36*
X037282Y038348D02*
X037352Y038242D01*
X037365Y038225D01*
X037403Y038182D01*
X037381Y038034D01*
X037364Y03805D01*
X037347Y038062D01*
X037329Y03807D01*
X037311Y038076D01*
X037292Y038079D01*
X037273Y038078D01*
X037254Y038075D01*
X037234Y038068D01*
X037214Y038058D01*
X037193Y038045D01*
X037267Y038374D01*
X037282Y038348D01*
D02*
G37*
G36*
X039165Y03768D02*
X039164Y037691D01*
X03916Y037702D01*
X039154Y037711D01*
X039146Y037718D01*
X039135Y037725D01*
X039122Y03773D01*
X039106Y037735D01*
X039088Y037738D01*
X039067Y037739D01*
X039044Y03774D01*
Y03786D01*
X039067Y037861D01*
X039088Y037862D01*
X039106Y037865D01*
X039122Y03787D01*
X039135Y037875D01*
X039146Y037882D01*
X039154Y037889D01*
X03916Y037898D01*
X039164Y037909D01*
X039165Y03792D01*
Y03768D01*
D02*
G37*
%LPC*%
G36*
X022275Y060675D02*
X021964D01*
Y060383D01*
X022193D01*
X022192Y060388D01*
X022186Y060427D01*
X022179Y06046D01*
X022169Y060487D01*
X022158Y060508D01*
X022146Y060523D01*
X022131Y060532D01*
X022115Y060535D01*
X022275D01*
Y060675D01*
D02*
G37*
G36*
X020667Y060275D02*
X020375D01*
Y059964D01*
X020667D01*
Y060275D01*
D02*
G37*
G36*
X020225D02*
X019933D01*
Y059964D01*
X020225D01*
Y060275D01*
D02*
G37*
G36*
X021834Y05938D02*
X020366D01*
X020229Y059362D01*
X020101Y059309D01*
X019991Y059225D01*
X019907Y059115D01*
X019854Y058987D01*
X019836Y05885D01*
Y05835D01*
X019854Y058213D01*
X019907Y058085D01*
X019991Y057975D01*
X020101Y057891D01*
X020229Y057838D01*
X020366Y05782D01*
X021834D01*
X021971Y057838D01*
X022099Y057891D01*
X022209Y057975D01*
X022293Y058085D01*
X022346Y058213D01*
X022364Y05835D01*
Y05885D01*
X022346Y058987D01*
X022293Y059115D01*
X022209Y059225D01*
X022099Y059309D01*
X021971Y059362D01*
X021834Y05938D01*
D02*
G37*
G36*
Y05738D02*
X020366D01*
X020229Y057362D01*
X020101Y057309D01*
X019991Y057225D01*
X019907Y057115D01*
X019854Y056987D01*
X019836Y05685D01*
Y05635D01*
X019854Y056213D01*
X019907Y056085D01*
X019991Y055975D01*
X020101Y055891D01*
X020185Y055856D01*
X020171Y055807D01*
X020148Y05581D01*
X019938D01*
Y055625D01*
X020397D01*
X020374Y05568D01*
X020333Y055734D01*
X020279Y055776D01*
X02026Y055783D01*
X020273Y055832D01*
X020366Y05582D01*
X021834D01*
X021971Y055838D01*
X022099Y055891D01*
X022209Y055975D01*
X022293Y056085D01*
X022346Y056213D01*
X022364Y05635D01*
Y05685D01*
X022346Y056987D01*
X022293Y057115D01*
X022209Y057225D01*
X022099Y057309D01*
X021971Y057362D01*
X021834Y05738D01*
D02*
G37*
G36*
X019788Y05581D02*
X019761D01*
X019763Y055793D01*
X019774Y055752D01*
X019787Y055718D01*
X019788Y055717D01*
Y05581D01*
D02*
G37*
G36*
Y055636D02*
X019728Y055625D01*
X019788D01*
Y055636D01*
D02*
G37*
G36*
X019452Y055778D02*
X019447Y055776D01*
X019393Y055734D01*
X019352Y05568D01*
X019329Y055625D01*
X019458D01*
X019454Y055688D01*
X019452Y055778D01*
D02*
G37*
G36*
X023325Y054775D02*
X023256D01*
X023325Y054716D01*
Y054775D01*
D02*
G37*
G36*
X023Y054579D02*
Y054425D01*
X023118D01*
X0231Y054454D01*
X023055Y054514D01*
X023Y054579D01*
D02*
G37*
%LPD*%
D12*
X02295Y05695D02*
Y05958D01*
X0306Y0572D02*
Y057675D01*
Y0572D02*
Y058424D01*
Y05325D02*
Y057675D01*
X030424Y0586D02*
X0306Y058424D01*
X04515Y05445D02*
X047D01*
X04175Y05435D02*
Y0546D01*
X02295Y05485D02*
Y05695D01*
X02905Y0586D02*
X030424D01*
X03985Y04645D02*
X0399Y0465D01*
X03985Y045533D02*
Y04645D01*
X02875Y06515D02*
Y0657D01*
X02885Y0658D01*
X0248Y040926D02*
Y05165D01*
X02475Y0598D02*
X027168D01*
X02755Y060182D01*
X02445Y0595D02*
X02475Y0598D01*
X02445Y05615D02*
Y0595D01*
X0263Y05315D02*
Y0543D01*
X02445Y05615D02*
X0263Y0543D01*
X0248Y05165D02*
X0263Y05315D01*
X02905Y035D02*
Y03865D01*
Y04275D02*
X0292Y0426D01*
X0303D01*
X0308Y0421D01*
Y0404D02*
Y0421D01*
X02905Y03865D02*
X0308Y0404D01*
X03365Y0528D02*
Y05415D01*
X0324Y05155D02*
X03365Y0528D01*
X0324Y0484D02*
Y05155D01*
X0313Y05445D02*
Y055124D01*
X031476Y0553D01*
X033474D01*
X03365Y05415D02*
Y055124D01*
X033474Y0553D02*
X03365Y055124D01*
X0312Y05435D02*
X0313Y05445D01*
X02235Y0602D02*
Y06075D01*
Y0602D02*
X022447Y060103D01*
X024Y0658D02*
X02885D01*
X02365Y06545D02*
X024Y0658D01*
X043902Y06315D02*
X044706D01*
X0439Y0658D02*
X044706Y064994D01*
Y06315D02*
Y064994D01*
X02885Y0658D02*
X0439D01*
X022563Y06455D02*
X02365D01*
Y06545D01*
Y0641D02*
Y06455D01*
X02905Y0517D02*
X0306Y05325D01*
X02905Y0506D02*
Y0517D01*
Y0506D02*
X0306D01*
X029024Y042776D02*
Y045174D01*
X0306Y04675D02*
Y0506D01*
X029024Y045174D02*
X0306Y04675D01*
X029024Y042776D02*
X02905Y04275D01*
X03225Y039825D02*
Y04375D01*
X03325Y04475D02*
Y04755D01*
X03225Y04375D02*
X03325Y04475D01*
X03555Y03785D02*
X037Y0364D01*
Y035D02*
Y0364D01*
X03555Y03785D02*
Y04275D01*
X025Y0365D02*
Y03905D01*
X023375Y034875D02*
X025Y0365D01*
X0237Y04035D02*
X025Y03905D01*
X023375Y031775D02*
Y034875D01*
X017745Y051455D02*
X017875Y051325D01*
X017745Y051455D02*
Y052008D01*
X038054Y04555D02*
X03905D01*
X045833Y045667D02*
X047187D01*
X047172Y052222D02*
Y053643D01*
X0196Y0596D02*
X020103Y060103D01*
X019642Y05555D02*
X0197D01*
X0196Y055592D02*
X019642Y05555D01*
X0196Y055592D02*
Y0596D01*
X047Y0477D02*
X0477Y0484D01*
X04815D01*
X047Y0465D02*
Y0477D01*
X047172Y053643D02*
X04718Y05365D01*
X04715Y0522D02*
X047172Y052222D01*
X039Y04735D02*
X0395Y04785D01*
X0405D01*
X039Y0465D02*
Y04735D01*
X0312Y04785D02*
X03175Y0484D01*
X0324D01*
X0312Y0465D02*
Y04785D01*
X03915Y0558D02*
X04055D01*
X03915Y05465D02*
Y0558D01*
X04055D02*
X04175Y0546D01*
X0243Y045716D02*
Y04665D01*
X023403Y04035D02*
X0237D01*
X04555Y037733D02*
X04705D01*
X045233Y03805D02*
X04555Y037733D01*
X0448Y03805D02*
X045233D01*
X024976Y04075D02*
X0261D01*
X0248Y040926D02*
X024976Y04075D01*
X03915Y0347D02*
X04155Y0371D01*
X0312Y038775D02*
X03225Y039825D01*
X0478Y0379D02*
Y038493D01*
Y037633D02*
Y0379D01*
X0458Y0457D02*
X045833Y045667D01*
X04798Y046601D02*
X048Y046621D01*
X04798Y045951D02*
Y046601D01*
X04798Y04595D02*
X04798Y045951D01*
X037554Y04605D02*
X038054Y04555D01*
X0452Y0532D02*
X04815Y05025D01*
X0452Y0532D02*
Y054259D01*
X047943Y029757D02*
X04795Y02975D01*
X047943Y029757D02*
Y029919D01*
X0479Y029962D02*
X047943Y029919D01*
X0479Y029962D02*
Y03075D01*
X0469Y030769D02*
Y03385D01*
X04895Y0359D01*
X024057Y037897D02*
Y037967D01*
X02415Y038059D01*
Y038747D01*
X0469Y0402D02*
X04745Y04075D01*
X0469Y038774D02*
Y0402D01*
X0321Y046475D02*
Y046725D01*
X047987Y053583D02*
Y053819D01*
X048046Y053878D02*
Y054593D01*
X047987Y053819D02*
X048046Y053878D01*
X03905Y05455D02*
X03915Y05465D01*
X02295Y05485D02*
X02325Y05455D01*
X0375Y04605D02*
X037554D01*
X0321Y0379D02*
Y03875D01*
X04005Y038109D02*
Y03875D01*
X0399Y037959D02*
X04005Y038109D01*
X0399Y0379D02*
Y037959D01*
X04745Y04075D02*
X04895Y03925D01*
Y0359D02*
Y03925D01*
X04005Y029859D02*
Y03075D01*
X03995Y029759D02*
X04005Y029859D01*
X03995Y0297D02*
Y029759D01*
X0321Y0297D02*
Y03075D01*
X0393Y052804D02*
Y05365D01*
X0392Y052704D02*
X0393Y052804D01*
X0392Y05265D02*
Y052704D01*
X020183Y060483D02*
X02025Y06055D01*
X020183Y060183D02*
Y060483D01*
X020103Y060103D02*
X020183Y060183D01*
X020103Y060103D02*
X022447D01*
X0225Y06005D01*
Y06003D02*
Y06005D01*
X021025Y061575D02*
X02105Y0616D01*
X020462Y061575D02*
X021025D01*
X04175Y0536D02*
Y0543D01*
X03225Y0397D02*
Y039825D01*
X0312Y03875D02*
Y038775D01*
X0324Y0484D02*
X03325Y04755D01*
X03225Y0397D02*
X03335Y0386D01*
X0312Y03465D02*
X03335Y0368D01*
Y0386D01*
X0312Y03075D02*
Y03465D01*
X03915Y03875D02*
Y038775D01*
X0401Y039725D01*
Y03985D01*
X0405Y04785D02*
Y05235D01*
X04175Y0536D01*
X04105Y04535D02*
Y0473D01*
X0405Y04785D02*
X04105Y0473D01*
X0401Y03985D02*
Y0444D01*
X04105Y04535D01*
X04155Y0371D02*
Y0384D01*
X0401Y03985D02*
X04155Y0384D01*
X03915Y03075D02*
Y0347D01*
X04815Y0484D02*
Y05025D01*
Y0484D02*
X0489Y04765D01*
Y0456D02*
Y04765D01*
X04745Y04415D02*
X0489Y0456D01*
X04745Y04075D02*
Y04415D01*
X0225Y06003D02*
X02295Y05958D01*
X0321Y045833D02*
Y046625D01*
X03555Y04275D02*
Y05055D01*
Y04275D02*
X037D01*
X03555Y05055D02*
Y05825D01*
X0356Y0506D02*
X037D01*
X03555Y05055D02*
X0356Y0506D01*
X0359Y0586D02*
X037D01*
X03555Y05825D02*
X0359Y0586D01*
X020437Y06155D02*
X020462Y061575D01*
D19*
X0719Y02715D02*
X0721Y02655D01*
X0723Y02715D01*
X0721Y06645D02*
X0723Y06585D01*
X0719D02*
X0721Y06645D01*
Y02655D02*
Y04463D01*
Y04805D02*
Y06645D01*
X055048Y02655D02*
X0722D01*
X05495Y06645D02*
X0722D01*
D21*
X01775Y0505D02*
D03*
Y0512D02*
D03*
X01805Y03505D02*
D03*
Y03435D02*
D03*
X0203Y06105D02*
D03*
Y06035D02*
D03*
D22*
X020437Y06455D02*
D03*
Y06405D02*
D03*
Y06355D02*
D03*
Y06305D02*
D03*
Y06255D02*
D03*
Y06205D02*
D03*
Y06155D02*
D03*
X022563Y06455D02*
D03*
Y06405D02*
D03*
Y06355D02*
D03*
Y06305D02*
D03*
Y06255D02*
D03*
Y06205D02*
D03*
Y06155D02*
D03*
D23*
X02305Y06075D02*
D03*
X02235D02*
D03*
D24*
X0233Y0307D02*
D03*
X0242D02*
D03*
X0234Y05435D02*
D03*
X0243D02*
D03*
X047009D02*
D03*
X047909D02*
D03*
X04695Y03865D02*
D03*
X04785D02*
D03*
X047Y0465D02*
D03*
X0479D02*
D03*
X039D02*
D03*
X0399D02*
D03*
X0312D02*
D03*
X0321D02*
D03*
X03905Y05435D02*
D03*
X03995D02*
D03*
X0233Y03865D02*
D03*
X0242D02*
D03*
X047Y03075D02*
D03*
X0479D02*
D03*
X03915D02*
D03*
X04005D02*
D03*
X0312D02*
D03*
X0321D02*
D03*
X03125Y03865D02*
D03*
X03215D02*
D03*
X03915D02*
D03*
X04005D02*
D03*
X0234Y0465D02*
D03*
X0243D02*
D03*
X0312Y05435D02*
D03*
X0321D02*
D03*
D25*
X02347Y02965D02*
D03*
X02427D02*
D03*
X02357Y0534D02*
D03*
X02437D02*
D03*
X04718D02*
D03*
X04798D02*
D03*
X04705Y0378D02*
D03*
X04785D02*
D03*
X03917Y0456D02*
D03*
X03997D02*
D03*
X02357D02*
D03*
X02437D02*
D03*
X0313D02*
D03*
X0321D02*
D03*
X0313Y0534D02*
D03*
X0321D02*
D03*
X04717Y02975D02*
D03*
X04797D02*
D03*
X03932Y0297D02*
D03*
X04012D02*
D03*
X03137D02*
D03*
X03217D02*
D03*
X0313Y0378D02*
D03*
X0321D02*
D03*
X03932D02*
D03*
X04012D02*
D03*
X02347D02*
D03*
X02427D02*
D03*
X04718Y0456D02*
D03*
X04798D02*
D03*
X03922Y0534D02*
D03*
X04002D02*
D03*
D26*
X0211Y0566D02*
D03*
Y0586D02*
D03*
X0261D02*
D03*
Y0566D02*
D03*
X0211Y033D02*
D03*
Y035D02*
D03*
X0261D02*
D03*
Y033D02*
D03*
X037D02*
D03*
Y035D02*
D03*
X042D02*
D03*
Y033D02*
D03*
X02905D02*
D03*
Y035D02*
D03*
X03405D02*
D03*
Y033D02*
D03*
X02905Y0566D02*
D03*
Y0586D02*
D03*
X03405D02*
D03*
Y0566D02*
D03*
X037D02*
D03*
Y0586D02*
D03*
X042D02*
D03*
Y0566D02*
D03*
X0211Y0486D02*
D03*
Y0506D02*
D03*
X0261D02*
D03*
Y0486D02*
D03*
X02905D02*
D03*
Y0506D02*
D03*
X03405D02*
D03*
Y0486D02*
D03*
X037D02*
D03*
Y0506D02*
D03*
X042D02*
D03*
Y0486D02*
D03*
X04495D02*
D03*
Y0506D02*
D03*
X04995D02*
D03*
Y0486D02*
D03*
X0211Y04075D02*
D03*
Y04275D02*
D03*
X0261D02*
D03*
Y04075D02*
D03*
X02905D02*
D03*
Y04275D02*
D03*
X03405D02*
D03*
Y04075D02*
D03*
X037D02*
D03*
Y04275D02*
D03*
X042D02*
D03*
Y04075D02*
D03*
X04495D02*
D03*
Y04275D02*
D03*
X04995D02*
D03*
Y04075D02*
D03*
X04495Y033D02*
D03*
Y035D02*
D03*
X04995D02*
D03*
Y033D02*
D03*
X04505Y05645D02*
D03*
Y05845D02*
D03*
X05005D02*
D03*
Y05645D02*
D03*
D27*
X018024Y0397D02*
D03*
Y0392D02*
D03*
Y0387D02*
D03*
Y0382D02*
D03*
Y0377D02*
D03*
Y0372D02*
D03*
Y0367D02*
D03*
Y0362D02*
D03*
X02015Y0397D02*
D03*
Y0392D02*
D03*
Y0387D02*
D03*
Y0382D02*
D03*
Y0377D02*
D03*
Y0372D02*
D03*
Y0367D02*
D03*
Y0362D02*
D03*
X017737Y05555D02*
D03*
Y05505D02*
D03*
Y05455D02*
D03*
Y05405D02*
D03*
Y05355D02*
D03*
Y05305D02*
D03*
Y05255D02*
D03*
Y05205D02*
D03*
X019863Y05555D02*
D03*
Y05505D02*
D03*
Y05455D02*
D03*
Y05405D02*
D03*
Y05355D02*
D03*
Y05305D02*
D03*
Y05255D02*
D03*
Y05205D02*
D03*
D41*
X0195Y0456D02*
X02357D01*
X0377Y0378D02*
X03932D01*
X02265Y03797D02*
X02282Y0378D01*
X02347D01*
X0304D02*
X0313D01*
X03015Y03805D02*
Y038646D01*
Y03805D02*
X0304Y0378D01*
X02275Y053D02*
X0252D01*
X0212Y05455D02*
X02275Y053D01*
X03045Y0302D02*
X03095Y0297D01*
X03045Y0302D02*
Y03615D01*
X03705Y03825D02*
X03725D01*
X0377Y0378D01*
X02265Y03797D02*
Y03875D01*
X0222Y0392D02*
X02265Y03875D01*
X019876Y0392D02*
X0222D01*
X017Y0321D02*
X01945Y02965D01*
X017Y0321D02*
Y03645D01*
X01725Y0367D02*
X018024D01*
X017Y03645D02*
X01725Y0367D01*
X01945Y02965D02*
X02335D01*
X018024Y0397D02*
X01905D01*
X019876Y0382D02*
X02195D01*
X02015Y0387D02*
X0213D01*
X02135Y03865D01*
X019876Y0377D02*
X0212D01*
X02015Y0372D02*
X0221D01*
X02015Y0367D02*
X0226D01*
X0383Y02985D02*
Y0367D01*
X0226D02*
X02265Y03665D01*
X02015Y0362D02*
X02195D01*
X022Y03615D01*
X0214Y05505D02*
X02305Y0534D01*
X02345D01*
X019513Y05505D02*
X0197D01*
X01945D02*
X019513D01*
X0197D02*
X0214D01*
X01893Y05255D02*
X019Y05248D01*
Y0461D02*
X0195Y0456D01*
X019Y0461D02*
Y05248D01*
X017324Y05255D02*
X01893D01*
X019863D02*
X019895Y052518D01*
X021532D01*
X0313Y0534D02*
Y053552D01*
Y05295D02*
Y0534D01*
X0239Y0486D02*
Y0505D01*
X02285Y05255D02*
X02365D01*
X0227Y05205D02*
X02415D01*
X0212Y05355D02*
X0227Y05205D01*
X02335Y04775D02*
X02345D01*
X0235Y0477D01*
X0232Y0479D02*
Y050861D01*
Y0479D02*
X02335Y04775D01*
X022669Y047231D02*
Y051069D01*
Y047231D02*
X02275Y04715D01*
X021687Y05205D02*
X022669Y051069D01*
X021532Y052518D02*
X02208Y05197D01*
X019863Y05205D02*
X021687D01*
X02208Y05197D02*
X022091D01*
X0232Y050861D01*
X031275Y044875D02*
Y045575D01*
X0313Y0456D01*
X03125Y04485D02*
X031275Y044875D01*
X04645Y03D02*
X0467Y02975D01*
X046813Y02975D02*
X04715D01*
X046812Y02975D02*
X046813Y02975D01*
X0467Y02975D02*
X046812D01*
X04645Y03D02*
Y0371D01*
X0391Y02965D02*
X03915Y0297D01*
X0385Y02965D02*
X0391D01*
X0383Y02985D02*
X0385Y02965D01*
X03095Y0297D02*
X0313D01*
X02135Y05405D02*
X02285Y05255D01*
X02135Y05305D02*
X0239Y0505D01*
X031288Y052937D02*
X0313Y05295D01*
X019863Y05305D02*
X02135D01*
X019863Y05355D02*
X0212D01*
X019513Y05405D02*
X02135D01*
X019863Y05455D02*
X0212D01*
D42*
X0203Y06105D02*
X020368Y061118D01*
Y061542D01*
X020376Y06155D01*
X020437D01*
X02775Y05965D02*
X0315D01*
X02755Y033176D02*
Y05945D01*
X02775Y05965D01*
X02755Y028417D02*
Y033176D01*
X027667Y0283D02*
X0344D01*
X02755Y028417D02*
X027667Y0283D01*
X0436Y060552D02*
X045099D01*
X0397Y0597D02*
X042748D01*
X0436Y060552D01*
X0395Y0599D02*
Y06055D01*
Y0599D02*
X0397Y0597D01*
X03995Y05435D02*
X0401Y0542D01*
Y05365D02*
Y0542D01*
X02425Y0543D02*
X0243Y05435D01*
X02425Y053455D02*
Y0543D01*
X032402Y060552D02*
X032944D01*
X0315Y05965D02*
X032402Y060552D01*
X026794Y061556D02*
Y062449D01*
Y061556D02*
X0275Y06085D01*
X03415Y0612D02*
X034982Y062032D01*
X02755Y060182D02*
X028568Y0612D01*
X03415D01*
X0481Y06135D02*
X0487Y06075D01*
X048716Y04935D02*
X049466Y0486D01*
X0487Y056034D02*
Y06075D01*
X048716Y04935D02*
Y056019D01*
X0487Y056034D02*
X048716Y056019D01*
X036295Y06135D02*
X0481D01*
X05105Y06165D02*
X0517Y061D01*
X036648Y062449D02*
X037448Y06165D01*
X05105D01*
X035845Y0618D02*
X036295Y06135D01*
X035845Y0618D02*
Y062449D01*
X0435Y0577D02*
Y058274D01*
Y05125D02*
Y0577D01*
X037444Y060552D02*
X037503Y060492D01*
Y060147D02*
Y060492D01*
Y060147D02*
X0378Y05985D01*
X0382D02*
X04035Y0577D01*
X0378Y05985D02*
X0382D01*
X04035Y0577D02*
X0435D01*
X0517Y06005D02*
Y061D01*
X034982Y06239D02*
X035042Y062449D01*
X034982Y062032D02*
Y06239D01*
X018024Y03565D02*
X01805Y035624D01*
X0233Y0307D02*
Y03185D01*
X0202Y03085D02*
X02165D01*
X01945Y0316D02*
X0202Y03085D01*
X01945Y0316D02*
Y03425D01*
Y0373D01*
X01805Y03435D02*
X01815Y03425D01*
X01945D01*
X01725Y0429D02*
X0181Y04375D01*
Y0438D01*
X01725Y03935D02*
Y0429D01*
Y03935D02*
X0174Y0392D01*
X018024D01*
X01805Y03525D02*
Y035624D01*
X018024Y0362D02*
X018029D01*
X018037Y036192D01*
Y035663D02*
Y036192D01*
X018024Y03565D02*
X018037Y035663D01*
X018024Y0377D02*
X01905D01*
X01945Y0373D01*
X023259Y040206D02*
X023403Y04035D01*
X022753Y0397D02*
X023259Y040206D01*
X02015Y0397D02*
X022753D01*
X0435Y0359D02*
X044Y0354D01*
X0435Y0359D02*
Y043958D01*
X044412Y035D02*
X04495D01*
X044012Y0354D02*
X044412Y035D01*
X044Y0354D02*
X044012D01*
X049466Y0486D02*
X04995D01*
X0233Y03185D02*
X023375Y031775D01*
X02415Y02975D02*
Y030796D01*
X04995Y0302D02*
Y033D01*
X0169Y0574D02*
X01715Y05765D01*
X0169Y055167D02*
Y0574D01*
X0321Y053534D02*
Y05455D01*
X0435Y058274D02*
X043676Y05845D01*
X0344Y0283D02*
X04235D01*
X0261Y033D02*
X027374D01*
X02755Y033176D01*
X017017Y05505D02*
X017574D01*
X0169Y055167D02*
X017017Y05505D01*
X0435Y043958D02*
Y05125D01*
X044412Y0506D02*
X04495D01*
X043762Y05125D02*
X044412Y0506D01*
X0435Y05125D02*
X043762D01*
X04805Y0283D02*
X04995Y0302D01*
X04235Y0283D02*
X04805D01*
X04452Y04275D02*
X04495D01*
X044177Y043092D02*
X04452Y04275D01*
X0435Y043958D02*
X044177Y043281D01*
Y043092D02*
Y043281D01*
X043676Y05845D02*
X04505D01*
X05015Y0564D02*
X0511D01*
X0517Y057D01*
Y06005D01*
X0423Y02835D02*
X04235Y0283D01*
X03455Y02845D02*
Y032658D01*
X0344Y0283D02*
X03455Y02845D01*
X03405Y033D02*
X034208D01*
X03455Y032658D01*
X042Y033D02*
X0423Y0327D01*
Y02835D02*
Y0327D01*
D43*
X023403Y04035D02*
Y043847D01*
X028675Y064475D02*
X0295Y0653D01*
X0284Y064475D02*
X028675D01*
X027925D02*
X0284D01*
Y06245D02*
Y064475D01*
X02715Y06525D02*
X027925Y064475D01*
X02465Y06525D02*
X02715D01*
X0244Y065D02*
X02465Y06525D01*
X0244Y06405D02*
Y065D01*
X0295Y0653D02*
X04295D01*
X022809Y06155D02*
X024618D01*
X026614Y063546D02*
X02736D01*
X027598Y062449D02*
Y063308D01*
X024618Y06155D02*
X026614Y063546D01*
X02736D02*
X027598Y063308D01*
X03285Y062D02*
X03597Y06512D01*
X029653Y062D02*
X03285D01*
X029204Y062449D02*
X029653Y062D01*
X02305Y06075D02*
X02322Y06058D01*
X02345D01*
X02305Y06075D02*
Y061309D01*
X022809Y06155D02*
X02305Y061309D01*
X022563Y06155D02*
X022809D01*
X0284Y06245D02*
X028401Y062449D01*
X022563Y06355D02*
X0239D01*
X0244Y06405D01*
X043501Y062449D02*
Y064749D01*
X04295Y0653D02*
X043501Y064749D01*
X04253Y06512D02*
X04295Y0647D01*
X03597Y06512D02*
X04253D01*
X017Y0372D02*
X018024D01*
Y0382D02*
X0189D01*
X01944Y03874D01*
Y04376D01*
X01688Y04632D02*
X01944Y04376D01*
X0167Y03885D02*
Y0544D01*
X01685Y0387D02*
X018024D01*
X0167Y03885D02*
X01685Y0387D01*
X017737Y05405D02*
X01815D01*
X023259Y038659D02*
Y040206D01*
X01688Y04632D02*
Y053891D01*
X0167Y0544D02*
X01685Y05455D01*
X01688Y053891D02*
X017039Y05405D01*
X01706Y05074D02*
X0173Y0505D01*
X01706Y05346D02*
X01715Y05355D01*
X01706Y05074D02*
Y05346D01*
X01715Y05355D02*
X017574D01*
X01735Y0505D02*
X01775D01*
X0173D02*
X01735D01*
Y04695D02*
Y0505D01*
X0185Y05305D02*
X0189Y05345D01*
Y0616D02*
X0196Y0623D01*
X0189Y05345D02*
Y0616D01*
X0186Y0545D02*
Y061895D01*
X01815Y05405D02*
X0186Y0545D01*
Y061895D02*
X019627Y062923D01*
X01835Y0619D02*
X0194Y06295D01*
X017574Y05455D02*
X018303D01*
X01835Y054597D02*
Y0619D01*
X018303Y05455D02*
X01835Y054597D01*
X017335Y054539D02*
X017574D01*
X017039Y05405D02*
X017737D01*
X017574Y05305D02*
X0185D01*
X02325Y03865D02*
X023259Y038659D01*
X0478Y03765D02*
Y0379D01*
X0201Y04665D02*
X02325D01*
X02005Y0466D02*
X0201Y04665D01*
X0321Y0376D02*
Y0378D01*
X017387Y05555D02*
X017437D01*
X0175Y055613D01*
Y056536D01*
X0174Y056636D02*
X0175Y056536D01*
X0174Y056636D02*
Y05675D01*
X0196Y0623D02*
Y0623D01*
X01985Y06255D01*
X02345Y0584D02*
Y06058D01*
X023356Y0438D02*
X023403Y043847D01*
X01985Y06255D02*
X020296D01*
X01975Y06355D02*
X020437D01*
X019627Y062923D02*
Y063427D01*
X01975Y06355D01*
X0198Y06455D02*
X020378D01*
X0194Y06415D02*
X0198Y06455D01*
X0194Y06295D02*
Y06415D01*
X0205Y0438D02*
X023356D01*
X01735Y04695D02*
X0205Y0438D01*
X01685Y05455D02*
X017324D01*
X017335Y054539D01*
X020437Y06405D02*
X022563D01*
X020437Y06205D02*
X022563D01*
X02365Y06255D02*
X0237Y0626D01*
X022563Y06255D02*
X02365D01*
X0401Y05335D02*
Y05365D01*
X0321Y046475D02*
Y0465D01*
X0478Y03765D02*
X04785Y0376D01*
X020437Y06305D02*
X022563D01*
D44*
X017767Y051236D02*
X018414D01*
X0185Y05115D01*
X01775Y05122D02*
X017767Y051236D01*
X01775Y0512D02*
Y05122D01*
D45*
X03405Y0486D02*
X0342D01*
X0343Y0487D01*
X0261Y0486D02*
X0265D01*
X02655Y04865D01*
D46*
X07246Y044791D02*
Y04499D01*
Y04489D01*
X07186D01*
X07196Y044791D01*
Y04529D02*
X07186Y04539D01*
Y04559D01*
X07196Y04569D01*
X07236D01*
X07246Y04559D01*
Y04539D01*
X07236Y04529D01*
X07196D01*
X07246Y04589D02*
Y04609D01*
Y04599D01*
X07186D01*
X07196Y04589D01*
X07246Y04639D02*
X07236D01*
Y04649D01*
X07246D01*
Y04639D01*
X07196Y04689D02*
X07186Y04699D01*
Y04719D01*
X07196Y04729D01*
X07206D01*
X07216Y04719D01*
Y04709D01*
Y04719D01*
X07226Y04729D01*
X07236D01*
X07246Y04719D01*
Y04699D01*
X07236Y04689D01*
X07186Y047889D02*
Y04749D01*
X07216D01*
X07206Y04769D01*
Y04779D01*
X07216Y047889D01*
X07236D01*
X07246Y04779D01*
Y04759D01*
X07236Y04749D01*
D47*
X032944Y060552D02*
D03*
X033845D02*
D03*
X038345D02*
D03*
X037444D02*
D03*
X034239Y062449D02*
D03*
X034641Y06315D02*
D03*
X035042Y062449D02*
D03*
X035444Y06315D02*
D03*
X035845Y062449D02*
D03*
X036247Y06315D02*
D03*
X036648Y062449D02*
D03*
X025499Y060552D02*
D03*
X026401D02*
D03*
X030901D02*
D03*
X029999D02*
D03*
X026794Y062449D02*
D03*
X027196Y06315D02*
D03*
X027598Y062449D02*
D03*
X027999Y06315D02*
D03*
X028401Y062449D02*
D03*
X028802Y06315D02*
D03*
X029204Y062449D02*
D03*
X040599Y060552D02*
D03*
X041501D02*
D03*
X046001D02*
D03*
X045099D02*
D03*
X041894Y062449D02*
D03*
X042296Y06315D02*
D03*
X042698Y062449D02*
D03*
X043099Y06315D02*
D03*
X043501Y062449D02*
D03*
X043902Y06315D02*
D03*
X044304Y062449D02*
D03*
D48*
X038843Y0628D02*
D03*
X032446D02*
D03*
X031399D02*
D03*
X025001D02*
D03*
X046499D02*
D03*
X040101D02*
D03*
D49*
X033144Y06415D02*
D03*
X038144D02*
D03*
X0257D02*
D03*
X0307D02*
D03*
X0408D02*
D03*
X0458D02*
D03*
D50*
X03705Y06315D02*
D03*
X029606D02*
D03*
X044706D02*
D03*
D51*
X0306Y0572D02*
D03*
X0363Y0586D02*
D03*
X02895Y0641D02*
D03*
X0282Y06495D02*
D03*
X02875Y06515D02*
D03*
X0275Y06085D02*
D03*
X0252Y053D02*
D03*
X03015Y038646D02*
D03*
X03365Y05415D02*
D03*
X0395Y06055D02*
D03*
X04295Y0647D02*
D03*
X03045Y03615D02*
D03*
X01815Y03565D02*
D03*
X03705Y03825D02*
D03*
X017Y0372D02*
D03*
X01905Y0397D02*
D03*
X0181Y0438D02*
D03*
X02195Y0382D02*
D03*
X02135Y03865D02*
D03*
X0212Y0377D02*
D03*
X0221Y0372D02*
D03*
X0383Y0367D02*
D03*
X02265Y03665D02*
D03*
X022Y03615D02*
D03*
X02365Y0641D02*
D03*
X0185Y05115D02*
D03*
X04715Y0522D02*
D03*
X0239Y0486D02*
D03*
X02365Y05255D02*
D03*
X0235Y0477D02*
D03*
X02275Y04715D02*
D03*
X02315Y0415D02*
D03*
X0232Y04295D02*
D03*
X02315Y0443D02*
D03*
X0448Y03805D02*
D03*
X04645Y0371D02*
D03*
X02165Y03085D02*
D03*
X02005Y0466D02*
D03*
X04515Y05445D02*
D03*
X0228Y05695D02*
D03*
X031288Y052937D02*
D03*
X0174Y05675D02*
D03*
X01715Y05765D02*
D03*
X02345Y0584D02*
D03*
X03125Y04485D02*
D03*
X02415Y05205D02*
D03*
X02105Y0616D02*
D03*
X04205Y05435D02*
D03*
X0237Y0626D02*
D03*
X0458Y0457D02*
D03*
X0375Y04605D02*
D03*
X0392Y05265D02*
D03*
X02135Y0586D02*
D03*
X02155Y0506D02*
D03*
X0215Y0428D02*
D03*
X04195Y05645D02*
D03*
X0342Y0564D02*
D03*
X0421Y04865D02*
D03*
X0343Y0487D02*
D03*
X0419Y041D02*
D03*
X03415D02*
D03*
X05015Y0564D02*
D03*
X0261Y0565D02*
D03*
X04985Y04075D02*
D03*
X02635Y04095D02*
D03*
X04995Y0488D02*
D03*
X02655Y04865D02*
D03*
X0209Y0351D02*
D03*
D52*
X053437Y028125D02*
D03*
X017937Y028175D02*
D03*
X017933Y063573D02*
D03*
X0534Y0636D02*
D03*
M02*
