G04*
G04 #@! TF.GenerationSoftware,Altium Limited,Altium Designer,20.0.13 (296)*
G04*
G04 Layer_Color=65535*
%FSTAX24Y24*%
%MOIN*%
G70*
G01*
G75*
%ADD10C,0.0236*%
%ADD11C,0.0098*%
%ADD12C,0.0300*%
%ADD13C,0.0079*%
%ADD14C,0.0050*%
%ADD15C,0.0040*%
%ADD16C,0.0039*%
%ADD17C,0.0010*%
%ADD18C,0.0070*%
%ADD19C,0.0100*%
%ADD20R,0.1010X0.1060*%
D10*
X021835Y061751D02*
G03*
X021835Y061751I-000118J0D01*
G01*
X019422Y036395D02*
G03*
X019422Y036395I-000118J0D01*
G01*
X019135Y052245D02*
G03*
X019135Y052245I-000118J0D01*
G01*
D11*
X022612Y061225D02*
G03*
X022612Y061225I-000049J0D01*
G01*
X020199Y035875D02*
G03*
X020199Y035875I-000049J0D01*
G01*
X019912Y051725D02*
G03*
X019912Y051725I-000049J0D01*
G01*
D12*
X02634Y06415D02*
G03*
X02634Y06415I-00064J0D01*
G01*
X044901Y057667D02*
G03*
X044901Y057667I-000098J0D01*
G01*
X038784Y06415D02*
G03*
X038784Y06415I-00064J0D01*
G01*
X033784D02*
G03*
X033784Y06415I-00064J0D01*
G01*
X034468Y057667D02*
G03*
X034468Y057667I-000098J0D01*
G01*
X03134Y06415D02*
G03*
X03134Y06415I-00064J0D01*
G01*
X026594Y057667D02*
G03*
X026594Y057667I-000098J0D01*
G01*
X044901Y049793D02*
G03*
X044901Y049793I-000098J0D01*
G01*
Y041919D02*
G03*
X044901Y041919I-000098J0D01*
G01*
Y034045D02*
G03*
X044901Y034045I-000098J0D01*
G01*
X034468Y049793D02*
G03*
X034468Y049793I-000098J0D01*
G01*
Y041919D02*
G03*
X034468Y041919I-000098J0D01*
G01*
Y034045D02*
G03*
X034468Y034045I-000098J0D01*
G01*
X026594Y049793D02*
G03*
X026594Y049793I-000098J0D01*
G01*
Y041919D02*
G03*
X026594Y041919I-000098J0D01*
G01*
Y034045D02*
G03*
X026594Y034045I-000098J0D01*
G01*
X050216Y057667D02*
G03*
X050216Y057667I-000098J0D01*
G01*
X048346Y055207D02*
G03*
X048346Y055207I-000098J0D01*
G01*
X046771D02*
G03*
X046771Y055207I-000098J0D01*
G01*
X042342Y057667D02*
G03*
X042342Y057667I-000098J0D01*
G01*
X040472Y055207D02*
G03*
X040472Y055207I-000098J0D01*
G01*
X038897D02*
G03*
X038897Y055207I-000098J0D01*
G01*
X037027Y057667D02*
G03*
X037027Y057667I-000098J0D01*
G01*
X032598Y055207D02*
G03*
X032598Y055207I-000098J0D01*
G01*
X031023D02*
G03*
X031023Y055207I-000098J0D01*
G01*
X029153Y057667D02*
G03*
X029153Y057667I-000098J0D01*
G01*
X024724Y055207D02*
G03*
X024724Y055207I-000098J0D01*
G01*
X023149D02*
G03*
X023149Y055207I-000098J0D01*
G01*
X021279Y057667D02*
G03*
X021279Y057667I-000098J0D01*
G01*
X050216Y049793D02*
G03*
X050216Y049793I-000098J0D01*
G01*
Y041919D02*
G03*
X050216Y041919I-000098J0D01*
G01*
Y034045D02*
G03*
X050216Y034045I-000098J0D01*
G01*
X048346Y060128D02*
G03*
X048346Y060128I-000098J0D01*
G01*
Y052254D02*
G03*
X048346Y052254I-000098J0D01*
G01*
Y047333D02*
G03*
X048346Y047333I-000098J0D01*
G01*
Y04438D02*
G03*
X048346Y04438I-000098J0D01*
G01*
Y039459D02*
G03*
X048346Y039459I-000098J0D01*
G01*
Y036506D02*
G03*
X048346Y036506I-000098J0D01*
G01*
Y031585D02*
G03*
X048346Y031585I-000098J0D01*
G01*
X046771Y060128D02*
G03*
X046771Y060128I-000098J0D01*
G01*
Y052254D02*
G03*
X046771Y052254I-000098J0D01*
G01*
Y047333D02*
G03*
X046771Y047333I-000098J0D01*
G01*
Y04438D02*
G03*
X046771Y04438I-000098J0D01*
G01*
Y039459D02*
G03*
X046771Y039459I-000098J0D01*
G01*
Y036506D02*
G03*
X046771Y036506I-000098J0D01*
G01*
Y031585D02*
G03*
X046771Y031585I-000098J0D01*
G01*
X042342Y049793D02*
G03*
X042342Y049793I-000098J0D01*
G01*
Y041919D02*
G03*
X042342Y041919I-000098J0D01*
G01*
Y034045D02*
G03*
X042342Y034045I-000098J0D01*
G01*
X040472Y060128D02*
G03*
X040472Y060128I-000098J0D01*
G01*
Y052254D02*
G03*
X040472Y052254I-000098J0D01*
G01*
Y047333D02*
G03*
X040472Y047333I-000098J0D01*
G01*
Y04438D02*
G03*
X040472Y04438I-000098J0D01*
G01*
Y039459D02*
G03*
X040472Y039459I-000098J0D01*
G01*
Y036506D02*
G03*
X040472Y036506I-000098J0D01*
G01*
Y031585D02*
G03*
X040472Y031585I-000098J0D01*
G01*
X038897Y060128D02*
G03*
X038897Y060128I-000098J0D01*
G01*
Y052254D02*
G03*
X038897Y052254I-000098J0D01*
G01*
Y047333D02*
G03*
X038897Y047333I-000098J0D01*
G01*
Y04438D02*
G03*
X038897Y04438I-000098J0D01*
G01*
Y039459D02*
G03*
X038897Y039459I-000098J0D01*
G01*
Y036506D02*
G03*
X038897Y036506I-000098J0D01*
G01*
Y031585D02*
G03*
X038897Y031585I-000098J0D01*
G01*
X037027Y049793D02*
G03*
X037027Y049793I-000098J0D01*
G01*
Y041919D02*
G03*
X037027Y041919I-000098J0D01*
G01*
Y034045D02*
G03*
X037027Y034045I-000098J0D01*
G01*
X032598Y060128D02*
G03*
X032598Y060128I-000098J0D01*
G01*
Y052254D02*
G03*
X032598Y052254I-000098J0D01*
G01*
Y047333D02*
G03*
X032598Y047333I-000098J0D01*
G01*
Y04438D02*
G03*
X032598Y04438I-000098J0D01*
G01*
Y039459D02*
G03*
X032598Y039459I-000098J0D01*
G01*
Y036506D02*
G03*
X032598Y036506I-000098J0D01*
G01*
Y031585D02*
G03*
X032598Y031585I-000098J0D01*
G01*
X031023Y060128D02*
G03*
X031023Y060128I-000098J0D01*
G01*
Y052254D02*
G03*
X031023Y052254I-000098J0D01*
G01*
Y047333D02*
G03*
X031023Y047333I-000098J0D01*
G01*
Y04438D02*
G03*
X031023Y04438I-000098J0D01*
G01*
Y039459D02*
G03*
X031023Y039459I-000098J0D01*
G01*
Y036506D02*
G03*
X031023Y036506I-000098J0D01*
G01*
Y031585D02*
G03*
X031023Y031585I-000098J0D01*
G01*
X029153Y049793D02*
G03*
X029153Y049793I-000098J0D01*
G01*
Y041919D02*
G03*
X029153Y041919I-000098J0D01*
G01*
Y034045D02*
G03*
X029153Y034045I-000098J0D01*
G01*
X024724Y060128D02*
G03*
X024724Y060128I-000098J0D01*
G01*
Y052254D02*
G03*
X024724Y052254I-000098J0D01*
G01*
Y047333D02*
G03*
X024724Y047333I-000098J0D01*
G01*
Y04438D02*
G03*
X024724Y04438I-000098J0D01*
G01*
Y039459D02*
G03*
X024724Y039459I-000098J0D01*
G01*
Y036506D02*
G03*
X024724Y036506I-000098J0D01*
G01*
Y031585D02*
G03*
X024724Y031585I-000098J0D01*
G01*
X023149Y060128D02*
G03*
X023149Y060128I-000098J0D01*
G01*
Y052254D02*
G03*
X023149Y052254I-000098J0D01*
G01*
Y047333D02*
G03*
X023149Y047333I-000098J0D01*
G01*
Y04438D02*
G03*
X023149Y04438I-000098J0D01*
G01*
Y039459D02*
G03*
X023149Y039459I-000098J0D01*
G01*
Y036506D02*
G03*
X023149Y036506I-000098J0D01*
G01*
Y031585D02*
G03*
X023149Y031585I-000098J0D01*
G01*
X021279Y049793D02*
G03*
X021279Y049793I-000098J0D01*
G01*
Y041919D02*
G03*
X021279Y041919I-000098J0D01*
G01*
Y034045D02*
G03*
X021279Y034045I-000098J0D01*
G01*
X037224Y06003D02*
X041948D01*
X036929Y057667D02*
X042244D01*
X037224Y055305D02*
X041948D01*
X037224Y052156D02*
X041948D01*
X036929Y049793D02*
X042244D01*
X037224Y047431D02*
X041948D01*
X037224Y044282D02*
X041948D01*
X036929Y041919D02*
X042244D01*
X037224Y039557D02*
X041948D01*
X037224Y036408D02*
X041948D01*
X036929Y034045D02*
X042244D01*
X037224Y031683D02*
X041948D01*
X045098Y06003D02*
X049822D01*
X044803Y057667D02*
X050118D01*
X045098Y055305D02*
X049822D01*
X045098Y052156D02*
X049822D01*
X044803Y049793D02*
X050118D01*
X045098Y047431D02*
X049822D01*
X045098Y044282D02*
X049822D01*
X044803Y041919D02*
X050118D01*
X045098Y039557D02*
X049822D01*
X045098Y036408D02*
X049822D01*
X044803Y034045D02*
X050118D01*
X045098Y031683D02*
X049822D01*
X02935Y06003D02*
X034074D01*
X029055Y057667D02*
X03437D01*
X02935Y055305D02*
X034074D01*
X02935Y052156D02*
X034074D01*
X029055Y049793D02*
X03437D01*
X02935Y047431D02*
X034074D01*
X02935Y044282D02*
X034074D01*
X029055Y041919D02*
X03437D01*
X02935Y039557D02*
X034074D01*
X02935Y036408D02*
X034074D01*
X029055Y034045D02*
X03437D01*
X02935Y031683D02*
X034074D01*
X021476Y06003D02*
X0262D01*
X021181Y057667D02*
X026496D01*
X021476Y055305D02*
X0262D01*
X021476Y052156D02*
X0262D01*
X021181Y049793D02*
X026496D01*
X021476Y047431D02*
X0262D01*
X021476Y044282D02*
X0262D01*
X021181Y041919D02*
X026496D01*
X021476Y039557D02*
X0262D01*
X021476Y036408D02*
X0262D01*
X021181Y034045D02*
X026496D01*
X021476Y031683D02*
X0262D01*
X02935Y039557D02*
Y044282D01*
D13*
X017593Y05083D02*
Y05087D01*
X017907Y05083D02*
Y05087D01*
X02089Y064743D02*
X02211D01*
X02089Y061357D02*
X02211D01*
X02089D02*
Y064743D01*
X02211Y061357D02*
Y064743D01*
X018207Y03468D02*
Y03472D01*
X017893Y03468D02*
Y03472D01*
X020457Y06068D02*
Y06072D01*
X020143Y06068D02*
Y06072D01*
X02268Y060593D02*
X02272D01*
X02268Y060907D02*
X02272D01*
X018477Y039899D02*
X019697D01*
X018477Y036001D02*
X019697D01*
X018477D02*
Y039899D01*
X019697Y036001D02*
Y039899D01*
X01819Y055749D02*
X01941D01*
X01819Y051851D02*
X01941D01*
X01819D02*
Y055749D01*
X01941Y051851D02*
Y055749D01*
D14*
X01745Y0502D02*
X01805D01*
X01745Y0515D02*
X01805D01*
Y0502D02*
Y0515D01*
X01745Y0502D02*
Y0515D01*
X01775Y03405D02*
Y03535D01*
X01835Y03405D02*
Y03535D01*
X01775D02*
X01835D01*
X01775Y03405D02*
X01835D01*
X02Y06005D02*
Y06135D01*
X0206Y06005D02*
Y06135D01*
X02D02*
X0206D01*
X02Y06005D02*
X0206D01*
X02205Y06105D02*
X02335D01*
X02205Y06045D02*
X02335D01*
Y06105D01*
X02205Y06045D02*
Y06105D01*
D15*
X0242Y031D02*
Y03105D01*
X0233D02*
X0242D01*
X0233Y031D02*
Y03105D01*
X0242Y03035D02*
Y0304D01*
X0233Y03035D02*
X0242D01*
X0233D02*
Y0304D01*
X0243Y05465D02*
Y0547D01*
X0234D02*
X0243D01*
X0234Y05465D02*
Y0547D01*
X0243Y054D02*
Y05405D01*
X0234Y054D02*
X0243D01*
X0234D02*
Y05405D01*
X047909Y05465D02*
Y0547D01*
X047009D02*
X047909D01*
X047009Y05465D02*
Y0547D01*
X047909Y054D02*
Y05405D01*
X047009Y054D02*
X047909D01*
X047009D02*
Y05405D01*
X04785Y03895D02*
Y039D01*
X04695D02*
X04785D01*
X04695Y03895D02*
Y039D01*
X04785Y0383D02*
Y03835D01*
X04695Y0383D02*
X04785D01*
X04695D02*
Y03835D01*
X0479Y0468D02*
Y04685D01*
X047D02*
X0479D01*
X047Y0468D02*
Y04685D01*
X0479Y04615D02*
Y0462D01*
X047Y04615D02*
X0479D01*
X047D02*
Y0462D01*
X0399Y0468D02*
Y04685D01*
X039D02*
X0399D01*
X039Y0468D02*
Y04685D01*
X0399Y04615D02*
Y0462D01*
X039Y04615D02*
X0399D01*
X039D02*
Y0462D01*
X0321Y0468D02*
Y04685D01*
X0312D02*
X0321D01*
X0312Y0468D02*
Y04685D01*
X0321Y04615D02*
Y0462D01*
X0312Y04615D02*
X0321D01*
X0312D02*
Y0462D01*
X03995Y05465D02*
Y0547D01*
X03905D02*
X03995D01*
X03905Y05465D02*
Y0547D01*
X03995Y054D02*
Y05405D01*
X03905Y054D02*
X03995D01*
X03905D02*
Y05405D01*
X0242Y03895D02*
Y039D01*
X0233D02*
X0242D01*
X0233Y03895D02*
Y039D01*
X0242Y0383D02*
Y03835D01*
X0233Y0383D02*
X0242D01*
X0233D02*
Y03835D01*
X0479Y03105D02*
Y0311D01*
X047D02*
X0479D01*
X047Y03105D02*
Y0311D01*
X0479Y0304D02*
Y03045D01*
X047Y0304D02*
X0479D01*
X047D02*
Y03045D01*
X04005Y03105D02*
Y0311D01*
X03915D02*
X04005D01*
X03915Y03105D02*
Y0311D01*
X04005Y0304D02*
Y03045D01*
X03915Y0304D02*
X04005D01*
X03915D02*
Y03045D01*
X0321Y03105D02*
Y0311D01*
X0312D02*
X0321D01*
X0312Y03105D02*
Y0311D01*
X0321Y0304D02*
Y03045D01*
X0312Y0304D02*
X0321D01*
X0312D02*
Y03045D01*
X03215Y03895D02*
Y039D01*
X03125D02*
X03215D01*
X03125Y03895D02*
Y039D01*
X03215Y0383D02*
Y03835D01*
X03125Y0383D02*
X03215D01*
X03125D02*
Y03835D01*
X04005Y03895D02*
Y039D01*
X03915D02*
X04005D01*
X03915Y03895D02*
Y039D01*
X04005Y0383D02*
Y03835D01*
X03915Y0383D02*
X04005D01*
X03915D02*
Y03835D01*
X0243Y0468D02*
Y04685D01*
X0234D02*
X0243D01*
X0234Y0468D02*
Y04685D01*
X0243Y04615D02*
Y0462D01*
X0234Y04615D02*
X0243D01*
X0234D02*
Y0462D01*
X0321Y05465D02*
Y0547D01*
X0312D02*
X0321D01*
X0312Y05465D02*
Y0547D01*
X0321Y054D02*
Y05405D01*
X0312Y054D02*
X0321D01*
X0312D02*
Y05405D01*
D16*
X02327Y02935D02*
Y02995D01*
Y02935D02*
X02407D01*
X02447D01*
Y02995D01*
X02327D02*
X02447D01*
X02372Y02945D02*
Y02985D01*
Y02945D02*
X02402D01*
Y02985D01*
X02372D02*
X02402D01*
X02337Y0531D02*
Y0537D01*
Y0531D02*
X02417D01*
X02457D01*
Y0537D01*
X02337D02*
X02457D01*
X02382Y0532D02*
Y0536D01*
Y0532D02*
X02412D01*
Y0536D01*
X02382D02*
X02412D01*
X04698Y0531D02*
Y0537D01*
Y0531D02*
X04778D01*
X04818D01*
Y0537D01*
X04698D02*
X04818D01*
X04743Y0532D02*
Y0536D01*
Y0532D02*
X04773D01*
Y0536D01*
X04743D02*
X04773D01*
X04685Y0375D02*
Y0381D01*
Y0375D02*
X04765D01*
X04805D01*
Y0381D01*
X04685D02*
X04805D01*
X0473Y0376D02*
Y038D01*
Y0376D02*
X0476D01*
Y038D01*
X0473D02*
X0476D01*
X03897Y0453D02*
Y0459D01*
Y0453D02*
X03977D01*
X04017D01*
Y0459D01*
X03897D02*
X04017D01*
X03942Y0454D02*
Y0458D01*
Y0454D02*
X03972D01*
Y0458D01*
X03942D02*
X03972D01*
X02337Y0453D02*
Y0459D01*
Y0453D02*
X02417D01*
X02457D01*
Y0459D01*
X02337D02*
X02457D01*
X02382Y0454D02*
Y0458D01*
Y0454D02*
X02412D01*
Y0458D01*
X02382D02*
X02412D01*
X0311Y0453D02*
Y0459D01*
Y0453D02*
X0319D01*
X0323D01*
Y0459D01*
X0311D02*
X0323D01*
X03155Y0454D02*
Y0458D01*
Y0454D02*
X03185D01*
Y0458D01*
X03155D02*
X03185D01*
X0311Y0531D02*
Y0537D01*
Y0531D02*
X0319D01*
X0323D01*
Y0537D01*
X0311D02*
X0323D01*
X03155Y0532D02*
Y0536D01*
Y0532D02*
X03185D01*
Y0536D01*
X03155D02*
X03185D01*
X04697Y02945D02*
Y03005D01*
Y02945D02*
X04777D01*
X04817D01*
Y03005D01*
X04697D02*
X04817D01*
X04742Y02955D02*
Y02995D01*
Y02955D02*
X04772D01*
Y02995D01*
X04742D02*
X04772D01*
X03912Y0294D02*
Y03D01*
Y0294D02*
X03992D01*
X04032D01*
Y03D01*
X03912D02*
X04032D01*
X03957Y0295D02*
Y0299D01*
Y0295D02*
X03987D01*
Y0299D01*
X03957D02*
X03987D01*
X03117Y0294D02*
Y03D01*
Y0294D02*
X03197D01*
X03237D01*
Y03D01*
X03117D02*
X03237D01*
X03162Y0295D02*
Y0299D01*
Y0295D02*
X03192D01*
Y0299D01*
X03162D02*
X03192D01*
X0311Y0375D02*
Y0381D01*
Y0375D02*
X0319D01*
X0323D01*
Y0381D01*
X0311D02*
X0323D01*
X03155Y0376D02*
Y038D01*
Y0376D02*
X03185D01*
Y038D01*
X03155D02*
X03185D01*
X03912Y0375D02*
Y0381D01*
Y0375D02*
X03992D01*
X04032D01*
Y0381D01*
X03912D02*
X04032D01*
X03957Y0376D02*
Y038D01*
Y0376D02*
X03987D01*
Y038D01*
X03957D02*
X03987D01*
X02327Y0375D02*
Y0381D01*
Y0375D02*
X02407D01*
X02447D01*
Y0381D01*
X02327D02*
X02447D01*
X02372Y0376D02*
Y038D01*
Y0376D02*
X02402D01*
Y038D01*
X02372D02*
X02402D01*
X04698Y0453D02*
Y0459D01*
Y0453D02*
X04778D01*
X04818D01*
Y0459D01*
X04698D02*
X04818D01*
X04743Y0454D02*
Y0458D01*
Y0454D02*
X04773D01*
Y0458D01*
X04743D02*
X04773D01*
X03902Y0531D02*
Y0537D01*
Y0531D02*
X03982D01*
X04022D01*
Y0537D01*
X03902D02*
X04022D01*
X03947Y0532D02*
Y0536D01*
Y0532D02*
X03977D01*
Y0536D01*
X03947D02*
X03977D01*
D17*
X019182Y04905D02*
Y04912D01*
Y04897D02*
Y04904D01*
Y04889D02*
Y04896D01*
Y04881D02*
Y04888D01*
Y04873D02*
Y0488D01*
Y04865D02*
Y04872D01*
Y04857D02*
Y04864D01*
Y04849D02*
Y04856D01*
Y04841D02*
Y04848D01*
Y04833D02*
Y0484D01*
Y04825D02*
Y04832D01*
Y04817D02*
Y04824D01*
Y04809D02*
Y04816D01*
Y04801D02*
Y04808D01*
Y04793D02*
Y048D01*
Y04785D02*
Y04792D01*
Y04777D02*
Y04784D01*
Y04769D02*
Y04776D01*
Y04761D02*
Y04768D01*
Y04753D02*
Y0476D01*
Y04745D02*
Y04752D01*
Y04737D02*
Y04744D01*
Y04729D02*
Y04736D01*
Y04721D02*
Y04728D01*
Y04713D02*
Y0472D01*
Y04705D02*
Y04712D01*
Y04697D02*
Y04704D01*
Y04689D02*
Y04696D01*
Y04681D02*
Y04688D01*
Y04673D02*
Y0468D01*
Y04665D02*
Y04672D01*
Y04657D02*
Y04664D01*
Y04649D02*
Y04656D01*
Y04641D02*
Y04648D01*
Y04633D02*
Y0464D01*
Y04625D02*
Y04632D01*
Y04617D02*
Y04624D01*
Y04609D02*
Y04616D01*
Y04601D02*
Y04608D01*
Y04593D02*
Y046D01*
Y04585D02*
Y04592D01*
Y04577D02*
Y04584D01*
Y04569D02*
Y04576D01*
Y04561D02*
Y04568D01*
Y04553D02*
Y0456D01*
Y04545D02*
Y04552D01*
Y04537D02*
Y04544D01*
Y04529D02*
Y04536D01*
Y04521D02*
Y04528D01*
Y04513D02*
Y0452D01*
Y04505D02*
Y04512D01*
Y04497D02*
Y04504D01*
Y04489D02*
Y04496D01*
Y04481D02*
Y04488D01*
Y04473D02*
Y0448D01*
Y04465D02*
Y04472D01*
Y04457D02*
Y04464D01*
Y04449D02*
Y04456D01*
Y04441D02*
Y04448D01*
Y04433D02*
Y0444D01*
Y04425D02*
Y04432D01*
Y04417D02*
Y04424D01*
Y04409D02*
Y04416D01*
Y04401D02*
Y04408D01*
Y04393D02*
Y044D01*
Y04385D02*
Y04392D01*
Y04377D02*
Y04384D01*
Y04369D02*
Y04376D01*
X019172Y04364D02*
Y04916D01*
X019162Y04361D02*
Y04919D01*
X019152Y04359D02*
Y04921D01*
X019142Y04358D02*
Y04922D01*
X019132Y04356D02*
Y04924D01*
X019122Y04355D02*
Y04925D01*
X019112Y04354D02*
Y04926D01*
X019102Y04921D02*
Y04928D01*
Y04913D02*
Y0492D01*
Y04905D02*
Y04912D01*
Y04897D02*
Y04904D01*
Y04889D02*
Y04896D01*
Y04881D02*
Y04888D01*
Y04873D02*
Y0488D01*
Y04865D02*
Y04872D01*
Y04857D02*
Y04864D01*
Y04849D02*
Y04856D01*
Y04841D02*
Y04848D01*
Y04833D02*
Y0484D01*
Y04825D02*
Y04832D01*
Y04817D02*
Y04824D01*
Y04809D02*
Y04816D01*
Y04801D02*
Y04808D01*
Y04793D02*
Y048D01*
Y04785D02*
Y04792D01*
Y04777D02*
Y04784D01*
Y04769D02*
Y04776D01*
Y04761D02*
Y04768D01*
Y04753D02*
Y0476D01*
Y04745D02*
Y04752D01*
Y04737D02*
Y04744D01*
Y04729D02*
Y04736D01*
Y04721D02*
Y04728D01*
Y04713D02*
Y0472D01*
Y04705D02*
Y04712D01*
Y04697D02*
Y04704D01*
Y04689D02*
Y04696D01*
Y04681D02*
Y04688D01*
Y04673D02*
Y0468D01*
Y04665D02*
Y04672D01*
Y04657D02*
Y04664D01*
Y04649D02*
Y04656D01*
Y04641D02*
Y04648D01*
Y04633D02*
Y0464D01*
Y04625D02*
Y04632D01*
Y04617D02*
Y04624D01*
Y04609D02*
Y04616D01*
Y04601D02*
Y04608D01*
Y04593D02*
Y046D01*
Y04585D02*
Y04592D01*
Y04577D02*
Y04584D01*
Y04569D02*
Y04576D01*
Y04561D02*
Y04568D01*
Y04553D02*
Y0456D01*
Y04545D02*
Y04552D01*
Y04537D02*
Y04544D01*
Y04529D02*
Y04536D01*
Y04521D02*
Y04528D01*
Y04513D02*
Y0452D01*
Y04505D02*
Y04512D01*
Y04497D02*
Y04504D01*
Y04489D02*
Y04496D01*
Y04481D02*
Y04488D01*
Y04473D02*
Y0448D01*
Y04465D02*
Y04472D01*
Y04457D02*
Y04464D01*
Y04449D02*
Y04456D01*
Y04441D02*
Y04448D01*
Y04433D02*
Y0444D01*
Y04425D02*
Y04432D01*
Y04417D02*
Y04424D01*
Y04409D02*
Y04416D01*
Y04401D02*
Y04408D01*
Y04393D02*
Y044D01*
Y04385D02*
Y04392D01*
Y04377D02*
Y04384D01*
Y04369D02*
Y04376D01*
Y04361D02*
Y04368D01*
Y04353D02*
Y0436D01*
X019092Y04352D02*
Y04928D01*
X019082Y04351D02*
Y04929D01*
X019072Y0435D02*
Y0493D01*
X019062Y04908D02*
Y04931D01*
Y04862D02*
Y04882D01*
Y04829D02*
Y04836D01*
Y04788D02*
Y04803D01*
Y04738D02*
Y04762D01*
Y04717D02*
Y04722D01*
Y04664D02*
Y04701D01*
Y04615D02*
Y04636D01*
Y04552D02*
Y04586D01*
Y04475D02*
Y04525D01*
Y04398D02*
Y04449D01*
Y04349D02*
Y04372D01*
X019052Y04907D02*
Y04931D01*
Y04862D02*
Y04882D01*
Y04829D02*
Y04836D01*
Y04788D02*
Y04803D01*
Y04739D02*
Y04762D01*
Y04717D02*
Y04722D01*
Y04665D02*
Y047D01*
Y04615D02*
Y04636D01*
Y04552D02*
Y04586D01*
Y04475D02*
Y04525D01*
Y04398D02*
Y04449D01*
Y04349D02*
Y04372D01*
X019042Y04907D02*
Y04932D01*
Y04862D02*
Y04882D01*
Y04829D02*
Y04836D01*
Y04788D02*
Y04803D01*
Y0474D02*
Y04762D01*
Y04717D02*
Y04722D01*
Y04665D02*
Y04699D01*
Y04615D02*
Y04636D01*
Y04552D02*
Y04586D01*
Y04475D02*
Y04525D01*
Y04398D02*
Y04449D01*
Y04348D02*
Y04372D01*
X019032Y04907D02*
Y04933D01*
Y04862D02*
Y04881D01*
Y04829D02*
Y04836D01*
Y04788D02*
Y04803D01*
Y04741D02*
Y04762D01*
Y04717D02*
Y04722D01*
Y04665D02*
Y04698D01*
Y04615D02*
Y04636D01*
Y04552D02*
Y04586D01*
Y04475D02*
Y04525D01*
Y04398D02*
Y04449D01*
Y04347D02*
Y04372D01*
X019022Y04929D02*
Y04933D01*
Y04921D02*
Y04928D01*
Y04913D02*
Y0492D01*
Y04906D02*
Y04912D01*
Y04873D02*
Y0488D01*
Y04865D02*
Y04872D01*
Y04862D02*
Y04864D01*
Y04833D02*
Y04836D01*
Y04829D02*
Y04832D01*
Y04801D02*
Y04803D01*
Y04793D02*
Y048D01*
Y04788D02*
Y04792D01*
Y04761D02*
Y04762D01*
Y04753D02*
Y0476D01*
Y04745D02*
Y04752D01*
Y04742D02*
Y04744D01*
Y04721D02*
Y04722D01*
Y04717D02*
Y0472D01*
Y04689D02*
Y04696D01*
Y04681D02*
Y04688D01*
Y04673D02*
Y0468D01*
Y04665D02*
Y04672D01*
Y04633D02*
Y04636D01*
Y04625D02*
Y04632D01*
Y04617D02*
Y04624D01*
Y04615D02*
Y04616D01*
Y04585D02*
Y04586D01*
Y04577D02*
Y04584D01*
Y04569D02*
Y04576D01*
Y04561D02*
Y04568D01*
Y04553D02*
Y0456D01*
Y04521D02*
Y04525D01*
Y04513D02*
Y0452D01*
Y04505D02*
Y04512D01*
Y04497D02*
Y04504D01*
Y04489D02*
Y04496D01*
Y04481D02*
Y04488D01*
Y04475D02*
Y0448D01*
Y04441D02*
Y04448D01*
Y04433D02*
Y0444D01*
Y04425D02*
Y04432D01*
Y04417D02*
Y04424D01*
Y04409D02*
Y04416D01*
Y04401D02*
Y04408D01*
Y04398D02*
Y044D01*
Y04369D02*
Y04372D01*
Y04361D02*
Y04368D01*
Y04353D02*
Y0436D01*
Y04347D02*
Y04352D01*
X019012Y04906D02*
Y04934D01*
Y04862D02*
Y04881D01*
Y04829D02*
Y04836D01*
Y04788D02*
Y04803D01*
Y04743D02*
Y04762D01*
Y04717D02*
Y04722D01*
Y04665D02*
Y04696D01*
Y04615D02*
Y04636D01*
Y04552D02*
Y04586D01*
Y04475D02*
Y04525D01*
Y04398D02*
Y04449D01*
Y04346D02*
Y04372D01*
X019002Y04906D02*
Y04934D01*
Y04862D02*
Y0488D01*
Y04829D02*
Y04836D01*
Y04788D02*
Y04803D01*
Y04744D02*
Y04762D01*
Y04717D02*
Y04722D01*
Y04665D02*
Y04695D01*
Y04615D02*
Y04636D01*
Y04552D02*
Y04586D01*
Y04475D02*
Y04525D01*
Y04398D02*
Y04449D01*
Y04346D02*
Y04372D01*
X018992Y04905D02*
Y04934D01*
Y04862D02*
Y0488D01*
Y04829D02*
Y04836D01*
Y04788D02*
Y04803D01*
Y04745D02*
Y04762D01*
Y04717D02*
Y04722D01*
Y04665D02*
Y04694D01*
Y04616D02*
Y04636D01*
Y04552D02*
Y04586D01*
Y04475D02*
Y04525D01*
Y04398D02*
Y04449D01*
Y04346D02*
Y04372D01*
X018982Y04905D02*
Y04935D01*
Y04862D02*
Y0488D01*
Y04829D02*
Y04836D01*
Y04788D02*
Y04803D01*
Y04746D02*
Y04762D01*
Y04717D02*
Y04722D01*
Y04665D02*
Y04693D01*
Y04616D02*
Y04636D01*
Y04552D02*
Y04585D01*
Y04475D02*
Y04525D01*
Y04398D02*
Y04449D01*
Y04345D02*
Y04372D01*
X018972Y04904D02*
Y04935D01*
Y04862D02*
Y04879D01*
Y04829D02*
Y04836D01*
Y04788D02*
Y04803D01*
Y04747D02*
Y04762D01*
Y04717D02*
Y04722D01*
Y04666D02*
Y04692D01*
Y04616D02*
Y04635D01*
Y04552D02*
Y04585D01*
Y04475D02*
Y04525D01*
Y04398D02*
Y04449D01*
Y04345D02*
Y04372D01*
X018962Y04904D02*
Y04935D01*
Y04862D02*
Y04879D01*
Y04829D02*
Y04836D01*
Y04788D02*
Y04803D01*
Y04748D02*
Y04762D01*
Y04717D02*
Y04722D01*
Y04666D02*
Y04691D01*
Y04616D02*
Y04635D01*
Y04552D02*
Y04585D01*
Y04475D02*
Y04525D01*
Y04398D02*
Y04449D01*
Y04345D02*
Y04372D01*
X018952Y04904D02*
Y04935D01*
Y04862D02*
Y04879D01*
Y04829D02*
Y04836D01*
Y04788D02*
Y04803D01*
Y04749D02*
Y04762D01*
Y04717D02*
Y04722D01*
Y04666D02*
Y0469D01*
Y04616D02*
Y04635D01*
Y04552D02*
Y04585D01*
Y04475D02*
Y04525D01*
Y04398D02*
Y04449D01*
Y04345D02*
Y04372D01*
X018942Y04929D02*
Y04936D01*
Y04921D02*
Y04928D01*
Y04913D02*
Y0492D01*
Y04905D02*
Y04912D01*
Y04903D02*
Y04904D01*
Y04873D02*
Y04878D01*
Y04865D02*
Y04872D01*
Y04862D02*
Y04864D01*
Y04833D02*
Y04836D01*
Y04829D02*
Y04832D01*
Y04801D02*
Y04803D01*
Y04793D02*
Y048D01*
Y04788D02*
Y04792D01*
Y04761D02*
Y04762D01*
Y04753D02*
Y0476D01*
Y0475D02*
Y04752D01*
Y04721D02*
Y04722D01*
Y04717D02*
Y0472D01*
Y04681D02*
Y04688D01*
Y04673D02*
Y0468D01*
Y04666D02*
Y04672D01*
Y04633D02*
Y04635D01*
Y04625D02*
Y04632D01*
Y04617D02*
Y04624D01*
Y04577D02*
Y04584D01*
Y04569D02*
Y04576D01*
Y04561D02*
Y04568D01*
Y04553D02*
Y0456D01*
Y04521D02*
Y04525D01*
Y04513D02*
Y0452D01*
Y04505D02*
Y04512D01*
Y04497D02*
Y04504D01*
Y04489D02*
Y04496D01*
Y04481D02*
Y04488D01*
Y04475D02*
Y0448D01*
Y04441D02*
Y04448D01*
Y04433D02*
Y0444D01*
Y04425D02*
Y04432D01*
Y04417D02*
Y04424D01*
Y04409D02*
Y04416D01*
Y04401D02*
Y04408D01*
Y04398D02*
Y044D01*
Y04369D02*
Y04372D01*
Y04361D02*
Y04368D01*
Y04353D02*
Y0436D01*
Y04345D02*
Y04352D01*
X018932Y04903D02*
Y04936D01*
Y04862D02*
Y04878D01*
Y04829D02*
Y04836D01*
Y04788D02*
Y04803D01*
Y04751D02*
Y04762D01*
Y04717D02*
Y04722D01*
Y04666D02*
Y04688D01*
Y04616D02*
Y04635D01*
Y04552D02*
Y04585D01*
Y04475D02*
Y04525D01*
Y04398D02*
Y04449D01*
Y04344D02*
Y04372D01*
X018922Y04903D02*
Y04936D01*
Y04862D02*
Y04878D01*
Y04829D02*
Y04836D01*
Y04788D02*
Y04803D01*
Y04752D02*
Y04762D01*
Y04717D02*
Y04722D01*
Y04666D02*
Y04687D01*
Y04616D02*
Y04635D01*
Y04552D02*
Y04585D01*
Y04475D02*
Y04525D01*
Y04398D02*
Y04449D01*
Y04344D02*
Y04372D01*
X018912Y04902D02*
Y04936D01*
Y04862D02*
Y04877D01*
Y04829D02*
Y04836D01*
Y04788D02*
Y04803D01*
Y04753D02*
Y04762D01*
Y04717D02*
Y04722D01*
Y04666D02*
Y04686D01*
Y04616D02*
Y04635D01*
Y04552D02*
Y04585D01*
Y04475D02*
Y04525D01*
Y04398D02*
Y04449D01*
Y04344D02*
Y04372D01*
X018902Y04902D02*
Y04936D01*
Y04862D02*
Y04877D01*
Y04829D02*
Y04836D01*
Y04788D02*
Y04803D01*
Y04753D02*
Y04762D01*
Y04717D02*
Y04722D01*
Y04666D02*
Y04686D01*
Y04616D02*
Y04635D01*
Y04552D02*
Y04584D01*
Y04475D02*
Y04525D01*
Y04398D02*
Y04449D01*
Y04344D02*
Y04372D01*
X018892Y04902D02*
Y04936D01*
Y04862D02*
Y04877D01*
Y04829D02*
Y04836D01*
Y04788D02*
Y04803D01*
Y04753D02*
Y04762D01*
Y04717D02*
Y04722D01*
Y04667D02*
Y04686D01*
Y04616D02*
Y04635D01*
Y04552D02*
Y04584D01*
Y04475D02*
Y04525D01*
Y04398D02*
Y04449D01*
Y04344D02*
Y04372D01*
X018882Y04901D02*
Y04936D01*
Y04862D02*
Y04876D01*
Y04829D02*
Y04836D01*
Y04788D02*
Y04803D01*
Y04753D02*
Y04762D01*
Y04717D02*
Y04722D01*
Y04667D02*
Y04686D01*
Y04616D02*
Y04635D01*
Y04552D02*
Y04584D01*
Y04475D02*
Y04525D01*
Y04398D02*
Y04449D01*
Y04344D02*
Y04372D01*
X018872Y04901D02*
Y04936D01*
Y04862D02*
Y04876D01*
Y04829D02*
Y04836D01*
Y04788D02*
Y04803D01*
Y04753D02*
Y04762D01*
Y04717D02*
Y04722D01*
Y04667D02*
Y04686D01*
Y04617D02*
Y04635D01*
Y04552D02*
Y04584D01*
Y04475D02*
Y04525D01*
Y04398D02*
Y04449D01*
Y04344D02*
Y04372D01*
X018862Y04929D02*
Y04936D01*
Y04921D02*
Y04928D01*
Y04913D02*
Y0492D01*
Y04905D02*
Y04912D01*
Y049D02*
Y04904D01*
Y04873D02*
Y04876D01*
Y04865D02*
Y04872D01*
Y04862D02*
Y04864D01*
Y04833D02*
Y04836D01*
Y04829D02*
Y04832D01*
Y04801D02*
Y04803D01*
Y04793D02*
Y048D01*
Y04788D02*
Y04792D01*
Y04761D02*
Y04762D01*
Y04753D02*
Y0476D01*
Y04721D02*
Y04722D01*
Y04717D02*
Y0472D01*
Y04681D02*
Y04686D01*
Y04673D02*
Y0468D01*
Y04667D02*
Y04672D01*
Y04633D02*
Y04635D01*
Y04625D02*
Y04632D01*
Y04617D02*
Y04624D01*
Y04577D02*
Y04584D01*
Y04569D02*
Y04576D01*
Y04561D02*
Y04568D01*
Y04553D02*
Y0456D01*
Y04521D02*
Y04525D01*
Y04513D02*
Y0452D01*
Y04505D02*
Y04512D01*
Y04497D02*
Y04504D01*
Y04489D02*
Y04496D01*
Y04481D02*
Y04488D01*
Y04475D02*
Y0448D01*
Y04441D02*
Y04448D01*
Y04433D02*
Y0444D01*
Y04425D02*
Y04432D01*
Y04417D02*
Y04424D01*
Y04409D02*
Y04416D01*
Y04401D02*
Y04408D01*
Y04398D02*
Y044D01*
Y04369D02*
Y04372D01*
Y04361D02*
Y04368D01*
Y04353D02*
Y0436D01*
Y04345D02*
Y04352D01*
X018852Y049D02*
Y04936D01*
Y04862D02*
Y04875D01*
Y04829D02*
Y04836D01*
Y04788D02*
Y04803D01*
Y04753D02*
Y04762D01*
Y04717D02*
Y04722D01*
Y04667D02*
Y04686D01*
Y04617D02*
Y04634D01*
Y04552D02*
Y04584D01*
Y04475D02*
Y04525D01*
Y04398D02*
Y04449D01*
Y04344D02*
Y04372D01*
X018842Y049D02*
Y04936D01*
Y04862D02*
Y04875D01*
Y04829D02*
Y04836D01*
Y04788D02*
Y04803D01*
Y04753D02*
Y04762D01*
Y04717D02*
Y04722D01*
Y04667D02*
Y04686D01*
Y04617D02*
Y04634D01*
Y04598D02*
Y04602D01*
Y04552D02*
Y04584D01*
Y04475D02*
Y04525D01*
Y04398D02*
Y04449D01*
Y04344D02*
Y04372D01*
X018832Y04899D02*
Y04936D01*
Y04862D02*
Y04874D01*
Y04829D02*
Y04836D01*
Y04788D02*
Y04803D01*
Y04753D02*
Y04762D01*
Y04712D02*
Y04727D01*
Y04667D02*
Y04686D01*
Y04617D02*
Y04634D01*
Y04596D02*
Y04604D01*
Y04552D02*
Y04584D01*
Y04475D02*
Y04525D01*
Y04398D02*
Y04449D01*
Y04344D02*
Y04372D01*
X018822Y04899D02*
Y04936D01*
Y04862D02*
Y04874D01*
Y04829D02*
Y04836D01*
Y04788D02*
Y04803D01*
Y04753D02*
Y04762D01*
Y04712D02*
Y04727D01*
Y04667D02*
Y04686D01*
Y04617D02*
Y04634D01*
Y04595D02*
Y04606D01*
Y04552D02*
Y04583D01*
Y04475D02*
Y04525D01*
Y04398D02*
Y04449D01*
Y04344D02*
Y04372D01*
X018812Y04899D02*
Y04936D01*
Y04862D02*
Y04874D01*
Y04829D02*
Y04836D01*
Y04788D02*
Y04803D01*
Y04753D02*
Y04762D01*
Y04712D02*
Y04727D01*
Y04668D02*
Y04686D01*
Y04617D02*
Y04634D01*
Y04594D02*
Y04606D01*
Y04552D02*
Y04583D01*
Y04475D02*
Y04525D01*
Y04398D02*
Y04449D01*
Y04344D02*
Y04372D01*
X018802Y04898D02*
Y04936D01*
Y04862D02*
Y04873D01*
Y04829D02*
Y04836D01*
Y04788D02*
Y04803D01*
Y04753D02*
Y04762D01*
Y04712D02*
Y04727D01*
Y04668D02*
Y04686D01*
Y04617D02*
Y04634D01*
Y04593D02*
Y04607D01*
Y04552D02*
Y04583D01*
Y04475D02*
Y04525D01*
Y04398D02*
Y04449D01*
Y04344D02*
Y04372D01*
X018792Y04898D02*
Y04936D01*
Y04862D02*
Y04873D01*
Y04829D02*
Y04836D01*
Y04788D02*
Y04803D01*
Y04753D02*
Y04762D01*
Y04712D02*
Y04727D01*
Y04668D02*
Y04686D01*
Y04617D02*
Y04634D01*
Y04344D02*
Y04608D01*
X018782Y04929D02*
Y04936D01*
Y04921D02*
Y04928D01*
Y04913D02*
Y0492D01*
Y04905D02*
Y04912D01*
Y04897D02*
Y04904D01*
Y04865D02*
Y04872D01*
Y04862D02*
Y04864D01*
Y04833D02*
Y04836D01*
Y04829D02*
Y04832D01*
Y04801D02*
Y04803D01*
Y04793D02*
Y048D01*
Y04788D02*
Y04792D01*
Y04761D02*
Y04762D01*
Y04753D02*
Y0476D01*
Y04721D02*
Y04727D01*
Y04713D02*
Y0472D01*
Y04681D02*
Y04686D01*
Y04673D02*
Y0468D01*
Y04668D02*
Y04672D01*
Y04633D02*
Y04634D01*
Y04625D02*
Y04632D01*
Y04617D02*
Y04624D01*
Y04601D02*
Y04608D01*
Y04593D02*
Y046D01*
Y04585D02*
Y04592D01*
Y04577D02*
Y04584D01*
Y04569D02*
Y04576D01*
Y04561D02*
Y04568D01*
Y04553D02*
Y0456D01*
Y04545D02*
Y04552D01*
Y04537D02*
Y04544D01*
Y04529D02*
Y04536D01*
Y04521D02*
Y04528D01*
Y04513D02*
Y0452D01*
Y04505D02*
Y04512D01*
Y04497D02*
Y04504D01*
Y04489D02*
Y04496D01*
Y04481D02*
Y04488D01*
Y04473D02*
Y0448D01*
Y04465D02*
Y04472D01*
Y04457D02*
Y04464D01*
Y04449D02*
Y04456D01*
Y04441D02*
Y04448D01*
Y04433D02*
Y0444D01*
Y04425D02*
Y04432D01*
Y04417D02*
Y04424D01*
Y04409D02*
Y04416D01*
Y04401D02*
Y04408D01*
Y04393D02*
Y044D01*
Y04385D02*
Y04392D01*
Y04377D02*
Y04384D01*
Y04369D02*
Y04376D01*
Y04361D02*
Y04368D01*
Y04353D02*
Y0436D01*
Y04345D02*
Y04352D01*
X018772Y04897D02*
Y04936D01*
Y04862D02*
Y04872D01*
Y04829D02*
Y04836D01*
Y04788D02*
Y04803D01*
Y04753D02*
Y04762D01*
Y04712D02*
Y04727D01*
Y04668D02*
Y04686D01*
Y04617D02*
Y04634D01*
Y04344D02*
Y04608D01*
X018762Y04897D02*
Y04936D01*
Y04862D02*
Y04872D01*
Y04829D02*
Y04836D01*
Y04788D02*
Y04803D01*
Y04753D02*
Y04762D01*
Y04712D02*
Y04727D01*
Y04668D02*
Y04686D01*
Y04618D02*
Y04634D01*
Y04344D02*
Y04608D01*
X018752Y04896D02*
Y04936D01*
Y04862D02*
Y04872D01*
Y04829D02*
Y04836D01*
Y04788D02*
Y04803D01*
Y04753D02*
Y04762D01*
Y04712D02*
Y04727D01*
Y04668D02*
Y04686D01*
Y04618D02*
Y04634D01*
Y04344D02*
Y04608D01*
X018742Y04896D02*
Y04936D01*
Y04862D02*
Y04871D01*
Y04829D02*
Y04836D01*
Y04788D02*
Y04803D01*
Y04753D02*
Y04762D01*
Y04712D02*
Y04727D01*
Y04668D02*
Y04686D01*
Y04618D02*
Y04634D01*
Y04344D02*
Y04608D01*
X018732Y04896D02*
Y04936D01*
Y04862D02*
Y04871D01*
Y04829D02*
Y04836D01*
Y04788D02*
Y04803D01*
Y04753D02*
Y04762D01*
Y04712D02*
Y04727D01*
Y04669D02*
Y04686D01*
Y04618D02*
Y04633D01*
Y04593D02*
Y04607D01*
Y04552D02*
Y04582D01*
Y04475D02*
Y04525D01*
Y04398D02*
Y04449D01*
Y04344D02*
Y04372D01*
X018722Y04895D02*
Y04936D01*
Y04862D02*
Y04871D01*
Y04829D02*
Y04836D01*
Y04788D02*
Y04803D01*
Y04753D02*
Y04762D01*
Y04712D02*
Y04727D01*
Y04669D02*
Y04686D01*
Y04618D02*
Y04633D01*
Y04594D02*
Y04606D01*
Y04552D02*
Y04582D01*
Y04475D02*
Y04525D01*
Y04398D02*
Y04449D01*
Y04344D02*
Y04372D01*
X018712Y04895D02*
Y04936D01*
Y04862D02*
Y0487D01*
Y04829D02*
Y04836D01*
Y04788D02*
Y04803D01*
Y04753D02*
Y04762D01*
Y04712D02*
Y04727D01*
Y04669D02*
Y04686D01*
Y04618D02*
Y04633D01*
Y04595D02*
Y04606D01*
Y04552D02*
Y04582D01*
Y04475D02*
Y04525D01*
Y04398D02*
Y04449D01*
Y04344D02*
Y04372D01*
X018702Y04929D02*
Y04936D01*
Y04921D02*
Y04928D01*
Y04913D02*
Y0492D01*
Y04905D02*
Y04912D01*
Y04897D02*
Y04904D01*
Y04894D02*
Y04896D01*
Y04865D02*
Y0487D01*
Y04862D02*
Y04864D01*
Y04833D02*
Y04836D01*
Y04829D02*
Y04832D01*
Y04801D02*
Y04803D01*
Y04793D02*
Y048D01*
Y04788D02*
Y04792D01*
Y04761D02*
Y04762D01*
Y04753D02*
Y0476D01*
Y04721D02*
Y04727D01*
Y04713D02*
Y0472D01*
Y04681D02*
Y04686D01*
Y04673D02*
Y0468D01*
Y04669D02*
Y04672D01*
Y04625D02*
Y04632D01*
Y04618D02*
Y04624D01*
Y04601D02*
Y04604D01*
Y04596D02*
Y046D01*
Y04577D02*
Y04582D01*
Y04569D02*
Y04576D01*
Y04561D02*
Y04568D01*
Y04553D02*
Y0456D01*
Y04521D02*
Y04525D01*
Y04513D02*
Y0452D01*
Y04505D02*
Y04512D01*
Y04497D02*
Y04504D01*
Y04489D02*
Y04496D01*
Y04481D02*
Y04488D01*
Y04475D02*
Y0448D01*
Y04441D02*
Y04448D01*
Y04433D02*
Y0444D01*
Y04425D02*
Y04432D01*
Y04417D02*
Y04424D01*
Y04409D02*
Y04416D01*
Y04401D02*
Y04408D01*
Y04398D02*
Y044D01*
Y04369D02*
Y04372D01*
Y04361D02*
Y04368D01*
Y04353D02*
Y0436D01*
Y04345D02*
Y04352D01*
X018692Y04894D02*
Y04936D01*
Y04862D02*
Y0487D01*
Y04829D02*
Y04836D01*
Y04788D02*
Y04803D01*
Y04753D02*
Y04762D01*
Y04712D02*
Y04727D01*
Y04669D02*
Y04686D01*
Y04618D02*
Y04633D01*
Y04598D02*
Y04602D01*
Y04552D02*
Y04582D01*
Y04475D02*
Y04525D01*
Y04398D02*
Y04449D01*
Y04344D02*
Y04372D01*
X018682Y04894D02*
Y04936D01*
Y04862D02*
Y04869D01*
Y04829D02*
Y04836D01*
Y04788D02*
Y04803D01*
Y04753D02*
Y04762D01*
Y04712D02*
Y04727D01*
Y04669D02*
Y04686D01*
Y04618D02*
Y04633D01*
Y04552D02*
Y04582D01*
Y04475D02*
Y04525D01*
Y04398D02*
Y04449D01*
Y04344D02*
Y04372D01*
X018672Y04893D02*
Y04936D01*
Y04862D02*
Y04869D01*
Y04829D02*
Y04836D01*
Y04788D02*
Y04803D01*
Y04753D02*
Y04762D01*
Y04712D02*
Y04727D01*
Y04669D02*
Y04686D01*
Y04618D02*
Y04633D01*
Y04552D02*
Y04582D01*
Y04475D02*
Y04525D01*
Y04398D02*
Y04449D01*
Y04344D02*
Y04372D01*
X018662Y04893D02*
Y04936D01*
Y04862D02*
Y04869D01*
Y04829D02*
Y04836D01*
Y04788D02*
Y04803D01*
Y04753D02*
Y04762D01*
Y04712D02*
Y04727D01*
Y04669D02*
Y04686D01*
Y04618D02*
Y04633D01*
Y04552D02*
Y04581D01*
Y04475D02*
Y04525D01*
Y04398D02*
Y04449D01*
Y04344D02*
Y04372D01*
X018652Y04893D02*
Y04936D01*
Y04862D02*
Y04868D01*
Y04829D02*
Y04836D01*
Y04788D02*
Y04803D01*
Y04753D02*
Y04762D01*
Y04712D02*
Y04727D01*
Y0467D02*
Y04686D01*
Y04618D02*
Y04633D01*
Y04552D02*
Y04581D01*
Y04475D02*
Y04525D01*
Y04398D02*
Y04449D01*
Y04344D02*
Y04372D01*
X018642Y04892D02*
Y04936D01*
Y04862D02*
Y04868D01*
Y04829D02*
Y04836D01*
Y04788D02*
Y04803D01*
Y04753D02*
Y04762D01*
Y04712D02*
Y04727D01*
Y0467D02*
Y04686D01*
Y04619D02*
Y04633D01*
Y04552D02*
Y04581D01*
Y04475D02*
Y04525D01*
Y04398D02*
Y04449D01*
Y04344D02*
Y04372D01*
X018632Y04892D02*
Y04936D01*
Y04862D02*
Y04868D01*
Y04829D02*
Y04836D01*
Y04788D02*
Y04803D01*
Y04753D02*
Y04762D01*
Y04712D02*
Y04727D01*
Y0467D02*
Y04686D01*
Y04619D02*
Y04633D01*
Y04552D02*
Y04581D01*
Y04475D02*
Y04525D01*
Y04398D02*
Y04449D01*
Y04344D02*
Y04372D01*
X018622Y04929D02*
Y04936D01*
Y04921D02*
Y04928D01*
Y04913D02*
Y0492D01*
Y04905D02*
Y04912D01*
Y04897D02*
Y04904D01*
Y04892D02*
Y04896D01*
Y04865D02*
Y04867D01*
Y04862D02*
Y04864D01*
Y04833D02*
Y04836D01*
Y04829D02*
Y04832D01*
Y04801D02*
Y04803D01*
Y04793D02*
Y048D01*
Y04788D02*
Y04792D01*
Y04761D02*
Y04762D01*
Y04753D02*
Y0476D01*
Y04721D02*
Y04727D01*
Y04713D02*
Y0472D01*
Y04681D02*
Y04686D01*
Y04673D02*
Y0468D01*
Y0467D02*
Y04672D01*
Y04625D02*
Y04632D01*
Y04619D02*
Y04624D01*
Y04577D02*
Y04581D01*
Y04569D02*
Y04576D01*
Y04561D02*
Y04568D01*
Y04553D02*
Y0456D01*
Y04521D02*
Y04525D01*
Y04513D02*
Y0452D01*
Y04505D02*
Y04512D01*
Y04497D02*
Y04504D01*
Y04489D02*
Y04496D01*
Y04481D02*
Y04488D01*
Y04475D02*
Y0448D01*
Y04441D02*
Y04448D01*
Y04433D02*
Y0444D01*
Y04425D02*
Y04432D01*
Y04417D02*
Y04424D01*
Y04409D02*
Y04416D01*
Y04401D02*
Y04408D01*
Y04398D02*
Y044D01*
Y04369D02*
Y04372D01*
Y04361D02*
Y04368D01*
Y04353D02*
Y0436D01*
Y04345D02*
Y04352D01*
X018612Y04891D02*
Y04936D01*
Y04862D02*
Y04867D01*
Y04829D02*
Y04836D01*
Y04788D02*
Y04803D01*
Y04753D02*
Y04762D01*
Y04712D02*
Y04727D01*
Y0467D02*
Y04686D01*
Y04619D02*
Y04632D01*
Y04552D02*
Y04581D01*
Y04475D02*
Y04525D01*
Y04398D02*
Y04449D01*
Y04344D02*
Y04372D01*
X018602Y04891D02*
Y04936D01*
Y04862D02*
Y04867D01*
Y04829D02*
Y04836D01*
Y04788D02*
Y04803D01*
Y04753D02*
Y04762D01*
Y04712D02*
Y04727D01*
Y0467D02*
Y04686D01*
Y04619D02*
Y04632D01*
Y04344D02*
Y04611D01*
X018592Y0489D02*
Y04936D01*
Y04862D02*
Y04866D01*
Y04829D02*
Y04836D01*
Y04788D02*
Y04803D01*
Y04753D02*
Y04762D01*
Y04712D02*
Y04727D01*
Y0467D02*
Y04686D01*
Y04619D02*
Y04632D01*
Y04344D02*
Y04611D01*
X018582Y0489D02*
Y04936D01*
Y04862D02*
Y04866D01*
Y04828D02*
Y04836D01*
Y04788D02*
Y04803D01*
Y04753D02*
Y04762D01*
Y04712D02*
Y04727D01*
Y0467D02*
Y04686D01*
Y04619D02*
Y04632D01*
Y04344D02*
Y04612D01*
X018572Y0489D02*
Y04936D01*
Y04862D02*
Y04865D01*
Y04827D02*
Y04836D01*
Y04788D02*
Y04803D01*
Y04753D02*
Y04762D01*
Y04712D02*
Y04727D01*
Y04671D02*
Y04686D01*
Y04619D02*
Y04632D01*
Y04344D02*
Y04612D01*
X018562Y04889D02*
Y04936D01*
Y04862D02*
Y04865D01*
Y04826D02*
Y04836D01*
Y04788D02*
Y04792D01*
Y04753D02*
Y04762D01*
Y04712D02*
Y04727D01*
Y04671D02*
Y04686D01*
Y04619D02*
Y04632D01*
Y04344D02*
Y04612D01*
X018552Y04889D02*
Y04936D01*
Y04862D02*
Y04865D01*
Y04825D02*
Y04836D01*
Y04788D02*
Y04792D01*
Y04753D02*
Y04762D01*
Y04712D02*
Y04727D01*
Y04671D02*
Y04686D01*
Y04619D02*
Y04632D01*
Y04607D02*
Y04612D01*
Y04552D02*
Y0458D01*
Y04475D02*
Y04525D01*
Y04398D02*
Y04449D01*
Y04344D02*
Y04372D01*
X018542Y04929D02*
Y04936D01*
Y04921D02*
Y04928D01*
Y04913D02*
Y0492D01*
Y04905D02*
Y04912D01*
Y04897D02*
Y04904D01*
Y04889D02*
Y04896D01*
Y04862D02*
Y04864D01*
Y04833D02*
Y04836D01*
Y04825D02*
Y04832D01*
Y04788D02*
Y04792D01*
Y04761D02*
Y04762D01*
Y04753D02*
Y0476D01*
Y04721D02*
Y04727D01*
Y04713D02*
Y0472D01*
Y04681D02*
Y04686D01*
Y04673D02*
Y0468D01*
Y04671D02*
Y04672D01*
Y04625D02*
Y04632D01*
Y04619D02*
Y04624D01*
Y04609D02*
Y04612D01*
Y04607D02*
Y04608D01*
Y04577D02*
Y0458D01*
Y04569D02*
Y04576D01*
Y04561D02*
Y04568D01*
Y04553D02*
Y0456D01*
Y04521D02*
Y04525D01*
Y04513D02*
Y0452D01*
Y04505D02*
Y04512D01*
Y04497D02*
Y04504D01*
Y04489D02*
Y04496D01*
Y04481D02*
Y04488D01*
Y04475D02*
Y0448D01*
Y04441D02*
Y04448D01*
Y04433D02*
Y0444D01*
Y04425D02*
Y04432D01*
Y04417D02*
Y04424D01*
Y04409D02*
Y04416D01*
Y04401D02*
Y04408D01*
Y04398D02*
Y044D01*
Y04369D02*
Y04372D01*
Y04361D02*
Y04368D01*
Y04353D02*
Y0436D01*
Y04345D02*
Y04352D01*
X018532Y04888D02*
Y04936D01*
Y04862D02*
Y04864D01*
Y04823D02*
Y04836D01*
Y04788D02*
Y04792D01*
Y04753D02*
Y04762D01*
Y04712D02*
Y04727D01*
Y04671D02*
Y04686D01*
Y0462D02*
Y04632D01*
Y04607D02*
Y04612D01*
Y04552D02*
Y0458D01*
Y04475D02*
Y04525D01*
Y04398D02*
Y04449D01*
Y04344D02*
Y04372D01*
X018522Y04888D02*
Y04936D01*
Y04862D02*
Y04864D01*
Y04822D02*
Y04836D01*
Y04788D02*
Y04792D01*
Y04753D02*
Y04762D01*
Y04712D02*
Y04727D01*
Y04671D02*
Y04686D01*
Y0462D02*
Y04632D01*
Y04607D02*
Y04612D01*
Y04552D02*
Y0458D01*
Y04475D02*
Y04525D01*
Y04398D02*
Y04449D01*
Y04344D02*
Y04372D01*
X018512Y04887D02*
Y04936D01*
Y04862D02*
Y04863D01*
Y04821D02*
Y04836D01*
Y04788D02*
Y04792D01*
Y04753D02*
Y04762D01*
Y04712D02*
Y04727D01*
Y04671D02*
Y04686D01*
Y0462D02*
Y04632D01*
Y04607D02*
Y04612D01*
Y04552D02*
Y0458D01*
Y04475D02*
Y04525D01*
Y04398D02*
Y04449D01*
Y04344D02*
Y04372D01*
X018502Y04887D02*
Y04936D01*
Y04862D02*
Y04863D01*
Y0482D02*
Y04836D01*
Y04788D02*
Y04792D01*
Y04753D02*
Y04762D01*
Y04712D02*
Y04727D01*
Y04671D02*
Y04686D01*
Y0462D02*
Y04631D01*
Y04607D02*
Y04612D01*
Y04552D02*
Y04579D01*
Y04475D02*
Y04525D01*
Y04398D02*
Y04449D01*
Y04344D02*
Y04372D01*
X018492Y04887D02*
Y04936D01*
Y04862D02*
Y04863D01*
Y04819D02*
Y04836D01*
Y04788D02*
Y04792D01*
Y04753D02*
Y04762D01*
Y04712D02*
Y04727D01*
Y04672D02*
Y04686D01*
Y0462D02*
Y04631D01*
Y04607D02*
Y04613D01*
Y04552D02*
Y04579D01*
Y04475D02*
Y04525D01*
Y04398D02*
Y04449D01*
Y04344D02*
Y04372D01*
X018482Y04886D02*
Y04936D01*
Y04818D02*
Y04836D01*
Y04788D02*
Y04792D01*
Y04753D02*
Y04762D01*
Y04712D02*
Y04727D01*
Y04672D02*
Y04686D01*
Y0462D02*
Y04631D01*
Y04608D02*
Y04613D01*
Y04552D02*
Y04579D01*
Y04475D02*
Y04525D01*
Y04398D02*
Y04449D01*
Y04344D02*
Y04372D01*
X018472Y04886D02*
Y04936D01*
Y04817D02*
Y04836D01*
Y04788D02*
Y04792D01*
Y04753D02*
Y04762D01*
Y04712D02*
Y04727D01*
Y04672D02*
Y04686D01*
Y0462D02*
Y04631D01*
Y04608D02*
Y04613D01*
Y04552D02*
Y04579D01*
Y04538D02*
Y04543D01*
Y04475D02*
Y04525D01*
Y04398D02*
Y04449D01*
Y04344D02*
Y04372D01*
X018462Y04929D02*
Y04936D01*
Y04921D02*
Y04928D01*
Y04913D02*
Y0492D01*
Y04905D02*
Y04912D01*
Y04897D02*
Y04904D01*
Y04889D02*
Y04896D01*
Y04886D02*
Y04888D01*
Y04833D02*
Y04836D01*
Y04825D02*
Y04832D01*
Y04817D02*
Y04824D01*
Y04788D02*
Y04792D01*
Y04761D02*
Y04762D01*
Y04753D02*
Y0476D01*
Y04721D02*
Y04727D01*
Y04713D02*
Y0472D01*
Y04681D02*
Y04686D01*
Y04673D02*
Y0468D01*
Y04625D02*
Y04631D01*
Y0462D02*
Y04624D01*
Y04609D02*
Y04613D01*
Y04577D02*
Y04579D01*
Y04569D02*
Y04576D01*
Y04561D02*
Y04568D01*
Y04553D02*
Y0456D01*
Y04537D02*
Y04544D01*
Y04521D02*
Y04525D01*
Y04513D02*
Y0452D01*
Y04505D02*
Y04512D01*
Y04497D02*
Y04504D01*
Y04489D02*
Y04496D01*
Y04481D02*
Y04488D01*
Y04475D02*
Y0448D01*
Y04441D02*
Y04448D01*
Y04433D02*
Y0444D01*
Y04425D02*
Y04432D01*
Y04417D02*
Y04424D01*
Y04409D02*
Y04416D01*
Y04401D02*
Y04408D01*
Y04398D02*
Y044D01*
Y04369D02*
Y04372D01*
Y04361D02*
Y04368D01*
Y04353D02*
Y0436D01*
Y04345D02*
Y04352D01*
X018452Y04885D02*
Y04936D01*
Y04818D02*
Y04836D01*
Y04788D02*
Y04792D01*
Y04753D02*
Y04762D01*
Y04712D02*
Y04727D01*
Y04672D02*
Y04686D01*
Y0462D02*
Y04631D01*
Y04608D02*
Y04613D01*
Y04552D02*
Y04579D01*
Y04535D02*
Y04546D01*
Y04475D02*
Y04525D01*
Y04398D02*
Y04449D01*
Y04344D02*
Y04372D01*
X018442Y04885D02*
Y04936D01*
Y04819D02*
Y04836D01*
Y04788D02*
Y04792D01*
Y04753D02*
Y04762D01*
Y04712D02*
Y04727D01*
Y04672D02*
Y04686D01*
Y0462D02*
Y04631D01*
Y04608D02*
Y04613D01*
Y04552D02*
Y04579D01*
Y04534D02*
Y04547D01*
Y04475D02*
Y04525D01*
Y04398D02*
Y04449D01*
Y04344D02*
Y04372D01*
X018432Y04884D02*
Y04936D01*
Y0482D02*
Y04836D01*
Y04788D02*
Y04792D01*
Y04753D02*
Y04762D01*
Y04712D02*
Y04727D01*
Y04672D02*
Y04686D01*
Y0462D02*
Y04631D01*
Y04608D02*
Y04613D01*
Y04552D02*
Y04579D01*
Y04534D02*
Y04548D01*
Y04475D02*
Y04525D01*
Y04398D02*
Y04449D01*
Y04344D02*
Y04372D01*
X018422Y04884D02*
Y04936D01*
Y04821D02*
Y04836D01*
Y04788D02*
Y04792D01*
Y04753D02*
Y04762D01*
Y04712D02*
Y04727D01*
Y04672D02*
Y04686D01*
Y0462D02*
Y04631D01*
Y04608D02*
Y04613D01*
Y04552D02*
Y04578D01*
Y04344D02*
Y04548D01*
X018412Y04884D02*
Y04936D01*
Y04822D02*
Y04836D01*
Y04788D02*
Y04792D01*
Y04753D02*
Y04762D01*
Y04712D02*
Y04727D01*
Y04673D02*
Y04686D01*
Y04621D02*
Y04631D01*
Y04608D02*
Y04613D01*
Y04552D02*
Y04578D01*
Y04344D02*
Y04548D01*
X018402Y04883D02*
Y04936D01*
Y04823D02*
Y04836D01*
Y04788D02*
Y04792D01*
Y04753D02*
Y04762D01*
Y04712D02*
Y04727D01*
Y04673D02*
Y04686D01*
Y04621D02*
Y04631D01*
Y04608D02*
Y04614D01*
Y04552D02*
Y04578D01*
Y04344D02*
Y04549D01*
X018392Y04884D02*
Y04936D01*
Y04824D02*
Y04836D01*
Y04788D02*
Y04792D01*
Y04753D02*
Y04762D01*
Y04712D02*
Y04727D01*
Y04673D02*
Y04686D01*
Y04621D02*
Y0463D01*
Y04609D02*
Y04614D01*
Y04552D02*
Y04578D01*
Y04344D02*
Y04549D01*
X018382Y04929D02*
Y04936D01*
Y04921D02*
Y04928D01*
Y04913D02*
Y0492D01*
Y04905D02*
Y04912D01*
Y04897D02*
Y04904D01*
Y04889D02*
Y04896D01*
Y04884D02*
Y04888D01*
Y04833D02*
Y04836D01*
Y04825D02*
Y04832D01*
Y04788D02*
Y04792D01*
Y04761D02*
Y04762D01*
Y04753D02*
Y0476D01*
Y04721D02*
Y04727D01*
Y04713D02*
Y0472D01*
Y04681D02*
Y04686D01*
Y04673D02*
Y0468D01*
Y04625D02*
Y0463D01*
Y04621D02*
Y04624D01*
Y04609D02*
Y04614D01*
Y04577D02*
Y04578D01*
Y04569D02*
Y04576D01*
Y04561D02*
Y04568D01*
Y04553D02*
Y0456D01*
Y04545D02*
Y04548D01*
Y04537D02*
Y04544D01*
Y04529D02*
Y04536D01*
Y04521D02*
Y04528D01*
Y04513D02*
Y0452D01*
Y04505D02*
Y04512D01*
Y04497D02*
Y04504D01*
Y04489D02*
Y04496D01*
Y04481D02*
Y04488D01*
Y04473D02*
Y0448D01*
Y04465D02*
Y04472D01*
Y04457D02*
Y04464D01*
Y04449D02*
Y04456D01*
Y04441D02*
Y04448D01*
Y04433D02*
Y0444D01*
Y04425D02*
Y04432D01*
Y04417D02*
Y04424D01*
Y04409D02*
Y04416D01*
Y04401D02*
Y04408D01*
Y04393D02*
Y044D01*
Y04385D02*
Y04392D01*
Y04377D02*
Y04384D01*
Y04369D02*
Y04376D01*
Y04361D02*
Y04368D01*
Y04353D02*
Y0436D01*
Y04345D02*
Y04352D01*
X018372Y04884D02*
Y04936D01*
Y04826D02*
Y04836D01*
Y04788D02*
Y04792D01*
Y04753D02*
Y04762D01*
Y04712D02*
Y04727D01*
Y04673D02*
Y04686D01*
Y04621D02*
Y0463D01*
Y04609D02*
Y04614D01*
Y04552D02*
Y04578D01*
Y04344D02*
Y04548D01*
X018362Y04885D02*
Y04936D01*
Y04827D02*
Y04836D01*
Y04788D02*
Y04792D01*
Y04753D02*
Y04762D01*
Y04712D02*
Y04727D01*
Y04673D02*
Y04686D01*
Y04621D02*
Y0463D01*
Y04609D02*
Y04614D01*
Y04552D02*
Y04578D01*
Y04534D02*
Y04548D01*
Y04475D02*
Y04525D01*
Y04398D02*
Y04449D01*
Y04344D02*
Y04372D01*
X018352Y04885D02*
Y04936D01*
Y04828D02*
Y04836D01*
Y04788D02*
Y04792D01*
Y04753D02*
Y04762D01*
Y04712D02*
Y04727D01*
Y04673D02*
Y04686D01*
Y04621D02*
Y0463D01*
Y04609D02*
Y04614D01*
Y04552D02*
Y04576D01*
Y04534D02*
Y04547D01*
Y04475D02*
Y04525D01*
Y04398D02*
Y04449D01*
Y04344D02*
Y04372D01*
X018342Y04886D02*
Y04936D01*
Y04829D02*
Y04836D01*
Y04788D02*
Y04792D01*
Y04753D02*
Y04762D01*
Y04712D02*
Y04727D01*
Y04673D02*
Y04686D01*
Y04621D02*
Y0463D01*
Y04609D02*
Y04614D01*
Y04552D02*
Y0457D01*
Y04535D02*
Y04546D01*
Y04475D02*
Y04525D01*
Y04398D02*
Y04449D01*
Y04344D02*
Y04372D01*
X018332Y04886D02*
Y04936D01*
Y04829D02*
Y04836D01*
Y04788D02*
Y04803D01*
Y04753D02*
Y04762D01*
Y04712D02*
Y04727D01*
Y04674D02*
Y04686D01*
Y04621D02*
Y0463D01*
Y04609D02*
Y04614D01*
Y04552D02*
Y0457D01*
Y04536D02*
Y04545D01*
Y04475D02*
Y04525D01*
Y04398D02*
Y04449D01*
Y04344D02*
Y04372D01*
X018322Y04886D02*
Y04936D01*
Y04829D02*
Y04836D01*
Y04788D02*
Y04803D01*
Y04753D02*
Y04762D01*
Y04712D02*
Y04727D01*
Y04674D02*
Y04686D01*
Y04621D02*
Y0463D01*
Y04609D02*
Y04614D01*
Y04552D02*
Y0457D01*
Y04538D02*
Y04543D01*
Y04475D02*
Y04525D01*
Y04398D02*
Y04449D01*
Y04344D02*
Y04372D01*
X018312Y04887D02*
Y04936D01*
Y04862D02*
Y04863D01*
Y04829D02*
Y04836D01*
Y04788D02*
Y04803D01*
Y04753D02*
Y04762D01*
Y04712D02*
Y04727D01*
Y04674D02*
Y04686D01*
Y04621D02*
Y0463D01*
Y04609D02*
Y04615D01*
Y04552D02*
Y0457D01*
Y04475D02*
Y04525D01*
Y04398D02*
Y04449D01*
Y04344D02*
Y04372D01*
X018302Y04929D02*
Y04936D01*
Y04921D02*
Y04928D01*
Y04913D02*
Y0492D01*
Y04905D02*
Y04912D01*
Y04897D02*
Y04904D01*
Y04889D02*
Y04896D01*
Y04887D02*
Y04888D01*
Y04862D02*
Y04863D01*
Y04833D02*
Y04836D01*
Y04829D02*
Y04832D01*
Y04801D02*
Y04803D01*
Y04793D02*
Y048D01*
Y04788D02*
Y04792D01*
Y04761D02*
Y04762D01*
Y04753D02*
Y0476D01*
Y04721D02*
Y04727D01*
Y04713D02*
Y0472D01*
Y04681D02*
Y04686D01*
Y04674D02*
Y0468D01*
Y04625D02*
Y0463D01*
Y04621D02*
Y04624D01*
Y0461D02*
Y04615D01*
Y04569D02*
Y0457D01*
Y04561D02*
Y04568D01*
Y04553D02*
Y0456D01*
Y04521D02*
Y04525D01*
Y04513D02*
Y0452D01*
Y04505D02*
Y04512D01*
Y04497D02*
Y04504D01*
Y04489D02*
Y04496D01*
Y04481D02*
Y04488D01*
Y04475D02*
Y0448D01*
Y04441D02*
Y04448D01*
Y04433D02*
Y0444D01*
Y04425D02*
Y04432D01*
Y04417D02*
Y04424D01*
Y04409D02*
Y04416D01*
Y04401D02*
Y04408D01*
Y04398D02*
Y044D01*
Y04369D02*
Y04372D01*
Y04361D02*
Y04368D01*
Y04353D02*
Y0436D01*
Y04345D02*
Y04352D01*
X018292Y04887D02*
Y04936D01*
Y04862D02*
Y04863D01*
Y04829D02*
Y04836D01*
Y04788D02*
Y04803D01*
Y04753D02*
Y04762D01*
Y04712D02*
Y04727D01*
Y04674D02*
Y04686D01*
Y04622D02*
Y0463D01*
Y0461D02*
Y04615D01*
Y04552D02*
Y04569D01*
Y04475D02*
Y04525D01*
Y04398D02*
Y04449D01*
Y04344D02*
Y04372D01*
X018282Y04888D02*
Y04936D01*
Y04862D02*
Y04864D01*
Y04829D02*
Y04836D01*
Y04788D02*
Y04803D01*
Y04753D02*
Y04762D01*
Y04712D02*
Y04727D01*
Y04674D02*
Y04686D01*
Y04622D02*
Y0463D01*
Y0461D02*
Y04615D01*
Y04552D02*
Y04569D01*
Y04475D02*
Y04525D01*
Y04398D02*
Y04449D01*
Y04344D02*
Y04372D01*
X018272Y04888D02*
Y04936D01*
Y04862D02*
Y04864D01*
Y04829D02*
Y04836D01*
Y04788D02*
Y04803D01*
Y04753D02*
Y04762D01*
Y04712D02*
Y04727D01*
Y04674D02*
Y04686D01*
Y04622D02*
Y04629D01*
Y0461D02*
Y04615D01*
Y04552D02*
Y04569D01*
Y04475D02*
Y04525D01*
Y04398D02*
Y04449D01*
Y04344D02*
Y04372D01*
X018262Y04889D02*
Y04936D01*
Y04862D02*
Y04865D01*
Y04829D02*
Y04836D01*
Y04788D02*
Y04803D01*
Y04753D02*
Y04762D01*
Y04712D02*
Y04727D01*
Y04674D02*
Y04686D01*
Y04622D02*
Y04629D01*
Y0461D02*
Y04615D01*
Y04552D02*
Y04569D01*
Y04475D02*
Y04525D01*
Y04398D02*
Y04449D01*
Y04344D02*
Y04372D01*
X018252Y04889D02*
Y04936D01*
Y04862D02*
Y04865D01*
Y04829D02*
Y04836D01*
Y04788D02*
Y04803D01*
Y04753D02*
Y04762D01*
Y04712D02*
Y04727D01*
Y04675D02*
Y04686D01*
Y04622D02*
Y04629D01*
Y0461D02*
Y04615D01*
Y04552D02*
Y04569D01*
Y04475D02*
Y04525D01*
Y04398D02*
Y04449D01*
Y04344D02*
Y04372D01*
X018242Y04889D02*
Y04936D01*
Y04862D02*
Y04865D01*
Y04829D02*
Y04836D01*
Y04788D02*
Y04803D01*
Y04753D02*
Y04762D01*
Y04712D02*
Y04727D01*
Y04675D02*
Y04686D01*
Y04622D02*
Y04629D01*
Y0461D02*
Y04615D01*
Y04552D02*
Y04568D01*
Y04475D02*
Y04525D01*
Y04398D02*
Y04449D01*
Y04344D02*
Y04372D01*
X018232Y0489D02*
Y04936D01*
Y04862D02*
Y04866D01*
Y04829D02*
Y04836D01*
Y04788D02*
Y04803D01*
Y04753D02*
Y04762D01*
Y04712D02*
Y04727D01*
Y04675D02*
Y04686D01*
Y04622D02*
Y04629D01*
Y0461D02*
Y04616D01*
Y04552D02*
Y04569D01*
Y04475D02*
Y04525D01*
Y04398D02*
Y04449D01*
Y04344D02*
Y04372D01*
X018222Y04929D02*
Y04936D01*
Y04921D02*
Y04928D01*
Y04913D02*
Y0492D01*
Y04905D02*
Y04912D01*
Y04897D02*
Y04904D01*
Y0489D02*
Y04896D01*
Y04865D02*
Y04866D01*
Y04862D02*
Y04864D01*
Y04833D02*
Y04836D01*
Y04829D02*
Y04832D01*
Y04801D02*
Y04803D01*
Y04793D02*
Y048D01*
Y04788D02*
Y04792D01*
Y04761D02*
Y04762D01*
Y04753D02*
Y0476D01*
Y04721D02*
Y04727D01*
Y04713D02*
Y0472D01*
Y04681D02*
Y04686D01*
Y04675D02*
Y0468D01*
Y04625D02*
Y04629D01*
Y04622D02*
Y04624D01*
Y0461D02*
Y04616D01*
Y04569D02*
Y04571D01*
Y04561D02*
Y04568D01*
Y04553D02*
Y0456D01*
Y04521D02*
Y04525D01*
Y04513D02*
Y0452D01*
Y04505D02*
Y04512D01*
Y04497D02*
Y04504D01*
Y04489D02*
Y04496D01*
Y04481D02*
Y04488D01*
Y04475D02*
Y0448D01*
Y04441D02*
Y04448D01*
Y04433D02*
Y0444D01*
Y04425D02*
Y04432D01*
Y04417D02*
Y04424D01*
Y04409D02*
Y04416D01*
Y04401D02*
Y04408D01*
Y04398D02*
Y044D01*
Y04369D02*
Y04372D01*
Y04361D02*
Y04368D01*
Y04353D02*
Y0436D01*
Y04345D02*
Y04352D01*
X018212Y04891D02*
Y04936D01*
Y04862D02*
Y04866D01*
Y04829D02*
Y04836D01*
Y04788D02*
Y04803D01*
Y04753D02*
Y04762D01*
Y04712D02*
Y04727D01*
Y04675D02*
Y04686D01*
Y04622D02*
Y04629D01*
Y04611D02*
Y04616D01*
Y04552D02*
Y04573D01*
Y04475D02*
Y04525D01*
Y04398D02*
Y04449D01*
Y04344D02*
Y04372D01*
X018202Y04891D02*
Y04936D01*
Y04862D02*
Y04867D01*
Y04829D02*
Y04836D01*
Y04788D02*
Y04803D01*
Y04753D02*
Y04762D01*
Y04712D02*
Y04727D01*
Y04675D02*
Y04686D01*
Y04622D02*
Y04629D01*
Y04611D02*
Y04616D01*
Y04552D02*
Y04575D01*
Y04475D02*
Y04525D01*
Y04398D02*
Y04449D01*
Y04344D02*
Y04372D01*
X018192Y04891D02*
Y04936D01*
Y04862D02*
Y04867D01*
Y04829D02*
Y04836D01*
Y04788D02*
Y04803D01*
Y04753D02*
Y04762D01*
Y04712D02*
Y04727D01*
Y04675D02*
Y04686D01*
Y04622D02*
Y04629D01*
Y04611D02*
Y04616D01*
Y04552D02*
Y04576D01*
Y04475D02*
Y04525D01*
Y04398D02*
Y04449D01*
Y04344D02*
Y04372D01*
X018182Y04892D02*
Y04936D01*
Y04862D02*
Y04867D01*
Y04829D02*
Y04836D01*
Y04788D02*
Y04803D01*
Y04753D02*
Y04762D01*
Y04712D02*
Y04727D01*
Y04675D02*
Y04686D01*
Y04623D02*
Y04629D01*
Y04611D02*
Y04616D01*
Y04552D02*
Y04575D01*
Y04475D02*
Y04525D01*
Y04398D02*
Y04449D01*
Y04344D02*
Y04372D01*
X018172Y04892D02*
Y04936D01*
Y04862D02*
Y04868D01*
Y04829D02*
Y04836D01*
Y04788D02*
Y04803D01*
Y04753D02*
Y04762D01*
Y04712D02*
Y04727D01*
Y04676D02*
Y04686D01*
Y04623D02*
Y04629D01*
Y04611D02*
Y04616D01*
Y04552D02*
Y04575D01*
Y04475D02*
Y04525D01*
Y04398D02*
Y04449D01*
Y04344D02*
Y04372D01*
X018162Y04892D02*
Y04936D01*
Y04862D02*
Y04868D01*
Y04829D02*
Y04836D01*
Y04788D02*
Y04803D01*
Y04753D02*
Y04762D01*
Y04712D02*
Y04727D01*
Y04676D02*
Y04686D01*
Y04623D02*
Y04629D01*
Y04611D02*
Y04616D01*
Y04552D02*
Y04575D01*
Y04475D02*
Y04525D01*
Y04398D02*
Y04449D01*
Y04344D02*
Y04372D01*
X018152Y04893D02*
Y04936D01*
Y04862D02*
Y04868D01*
Y04829D02*
Y04836D01*
Y04788D02*
Y04803D01*
Y04753D02*
Y04762D01*
Y04712D02*
Y04727D01*
Y04676D02*
Y04686D01*
Y04623D02*
Y04628D01*
Y04611D02*
Y04616D01*
Y04562D02*
Y04575D01*
Y04475D02*
Y04525D01*
Y04398D02*
Y04449D01*
Y04344D02*
Y04372D01*
X018142Y04929D02*
Y04936D01*
Y04921D02*
Y04928D01*
Y04913D02*
Y0492D01*
Y04905D02*
Y04912D01*
Y04897D02*
Y04904D01*
Y04893D02*
Y04896D01*
Y04865D02*
Y04869D01*
Y04862D02*
Y04864D01*
Y04833D02*
Y04836D01*
Y04829D02*
Y04832D01*
Y04801D02*
Y04803D01*
Y04793D02*
Y048D01*
Y04788D02*
Y04792D01*
Y04761D02*
Y04762D01*
Y04753D02*
Y0476D01*
Y04721D02*
Y04727D01*
Y04713D02*
Y0472D01*
Y04681D02*
Y04686D01*
Y04676D02*
Y0468D01*
Y04625D02*
Y04628D01*
Y04623D02*
Y04624D01*
Y04611D02*
Y04616D01*
Y04569D02*
Y04575D01*
Y04562D02*
Y04568D01*
Y04521D02*
Y04525D01*
Y04513D02*
Y0452D01*
Y04505D02*
Y04512D01*
Y04497D02*
Y04504D01*
Y04489D02*
Y04496D01*
Y04481D02*
Y04488D01*
Y04475D02*
Y0448D01*
Y04441D02*
Y04448D01*
Y04433D02*
Y0444D01*
Y04425D02*
Y04432D01*
Y04417D02*
Y04424D01*
Y04409D02*
Y04416D01*
Y04401D02*
Y04408D01*
Y04398D02*
Y044D01*
Y04369D02*
Y04372D01*
Y04361D02*
Y04368D01*
Y04353D02*
Y0436D01*
Y04345D02*
Y04352D01*
X018132Y04894D02*
Y04936D01*
Y04862D02*
Y04869D01*
Y04829D02*
Y04836D01*
Y04788D02*
Y04803D01*
Y04753D02*
Y04762D01*
Y04712D02*
Y04727D01*
Y04676D02*
Y04686D01*
Y04623D02*
Y04628D01*
Y04611D02*
Y04617D01*
Y04562D02*
Y04575D01*
Y04475D02*
Y04525D01*
Y04398D02*
Y04449D01*
Y04344D02*
Y04372D01*
X018122Y04894D02*
Y04936D01*
Y04862D02*
Y0487D01*
Y04829D02*
Y04836D01*
Y04788D02*
Y04803D01*
Y04753D02*
Y04762D01*
Y04712D02*
Y04727D01*
Y04676D02*
Y04686D01*
Y04623D02*
Y04628D01*
Y04612D02*
Y04617D01*
Y04563D02*
Y04575D01*
Y04475D02*
Y04525D01*
Y04398D02*
Y04449D01*
Y04344D02*
Y04372D01*
X018112Y04894D02*
Y04936D01*
Y04862D02*
Y0487D01*
Y04829D02*
Y04836D01*
Y04788D02*
Y04803D01*
Y04753D02*
Y04762D01*
Y04712D02*
Y04727D01*
Y04676D02*
Y04686D01*
Y04623D02*
Y04628D01*
Y04612D02*
Y04617D01*
Y04563D02*
Y04575D01*
Y04475D02*
Y04525D01*
Y04398D02*
Y04449D01*
Y04344D02*
Y04372D01*
X018102Y04895D02*
Y04936D01*
Y04862D02*
Y0487D01*
Y04829D02*
Y04836D01*
Y04788D02*
Y04803D01*
Y04753D02*
Y04762D01*
Y04712D02*
Y04727D01*
Y04676D02*
Y04686D01*
Y04623D02*
Y04628D01*
Y04612D02*
Y04617D01*
Y04563D02*
Y04574D01*
Y04475D02*
Y04525D01*
Y04398D02*
Y04449D01*
Y04344D02*
Y04372D01*
X018092Y04895D02*
Y04936D01*
Y04862D02*
Y04871D01*
Y04829D02*
Y04836D01*
Y04788D02*
Y04803D01*
Y04753D02*
Y04762D01*
Y04712D02*
Y04727D01*
Y04677D02*
Y04686D01*
Y04623D02*
Y04628D01*
Y04612D02*
Y04617D01*
Y04563D02*
Y04574D01*
Y04475D02*
Y04525D01*
Y04398D02*
Y04449D01*
Y04344D02*
Y04372D01*
X018082Y04896D02*
Y04936D01*
Y04862D02*
Y04871D01*
Y04829D02*
Y04836D01*
Y04788D02*
Y04803D01*
Y04753D02*
Y04762D01*
Y04712D02*
Y04727D01*
Y04677D02*
Y04686D01*
Y04623D02*
Y04628D01*
Y04612D02*
Y04617D01*
Y04564D02*
Y04574D01*
Y04475D02*
Y04525D01*
Y04398D02*
Y04449D01*
Y04344D02*
Y04372D01*
X018072Y04896D02*
Y04936D01*
Y04862D02*
Y04871D01*
Y04829D02*
Y04836D01*
Y04788D02*
Y04803D01*
Y04753D02*
Y04762D01*
Y04712D02*
Y04727D01*
Y04677D02*
Y04686D01*
Y04623D02*
Y04628D01*
Y04612D02*
Y04617D01*
Y04564D02*
Y04574D01*
Y04475D02*
Y04525D01*
Y04398D02*
Y04449D01*
Y04344D02*
Y04372D01*
X018062Y04929D02*
Y04936D01*
Y04921D02*
Y04928D01*
Y04913D02*
Y0492D01*
Y04905D02*
Y04912D01*
Y04897D02*
Y04904D01*
Y04865D02*
Y04872D01*
Y04862D02*
Y04864D01*
Y04833D02*
Y04836D01*
Y04829D02*
Y04832D01*
Y04801D02*
Y04803D01*
Y04793D02*
Y048D01*
Y04788D02*
Y04792D01*
Y04761D02*
Y04762D01*
Y04753D02*
Y0476D01*
Y04721D02*
Y04727D01*
Y04713D02*
Y0472D01*
Y04681D02*
Y04686D01*
Y04677D02*
Y0468D01*
Y04625D02*
Y04628D01*
Y04612D02*
Y04616D01*
Y04569D02*
Y04574D01*
Y04564D02*
Y04568D01*
Y04521D02*
Y04525D01*
Y04513D02*
Y0452D01*
Y04505D02*
Y04512D01*
Y04497D02*
Y04504D01*
Y04489D02*
Y04496D01*
Y04481D02*
Y04488D01*
Y04475D02*
Y0448D01*
Y04441D02*
Y04448D01*
Y04433D02*
Y0444D01*
Y04425D02*
Y04432D01*
Y04417D02*
Y04424D01*
Y04409D02*
Y04416D01*
Y04401D02*
Y04408D01*
Y04398D02*
Y044D01*
Y04369D02*
Y04372D01*
Y04361D02*
Y04368D01*
Y04353D02*
Y0436D01*
Y04345D02*
Y04352D01*
X018052Y04897D02*
Y04936D01*
Y04862D02*
Y04872D01*
Y04829D02*
Y04836D01*
Y04788D02*
Y04803D01*
Y04753D02*
Y04762D01*
Y04712D02*
Y04727D01*
Y04677D02*
Y04686D01*
Y04624D02*
Y04628D01*
Y04612D02*
Y04618D01*
Y04564D02*
Y04574D01*
Y04475D02*
Y04525D01*
Y04398D02*
Y04449D01*
Y04344D02*
Y04372D01*
X018042Y04897D02*
Y04936D01*
Y04862D02*
Y04872D01*
Y04829D02*
Y04836D01*
Y04788D02*
Y04803D01*
Y04753D02*
Y04762D01*
Y04712D02*
Y04727D01*
Y04677D02*
Y04686D01*
Y04624D02*
Y04627D01*
Y04612D02*
Y04618D01*
Y04565D02*
Y04574D01*
Y04475D02*
Y04525D01*
Y04398D02*
Y04449D01*
Y04344D02*
Y04372D01*
X018032Y04898D02*
Y04936D01*
Y04862D02*
Y04873D01*
Y04829D02*
Y04836D01*
Y04788D02*
Y04803D01*
Y04753D02*
Y04762D01*
Y04712D02*
Y04727D01*
Y04677D02*
Y04686D01*
Y04624D02*
Y04627D01*
Y04613D02*
Y04618D01*
Y04605D02*
Y04606D01*
Y04563D02*
Y04574D01*
Y04475D02*
Y04525D01*
Y04398D02*
Y04449D01*
Y04344D02*
Y04372D01*
X018022Y04898D02*
Y04936D01*
Y04862D02*
Y04873D01*
Y04829D02*
Y04836D01*
Y04788D02*
Y04803D01*
Y04753D02*
Y04762D01*
Y04712D02*
Y04727D01*
Y04677D02*
Y04686D01*
Y04624D02*
Y04627D01*
Y04613D02*
Y04618D01*
Y04604D02*
Y04606D01*
Y04561D02*
Y04573D01*
Y04475D02*
Y04525D01*
Y04398D02*
Y04449D01*
Y04344D02*
Y04372D01*
X018012Y04898D02*
Y04936D01*
Y04862D02*
Y04874D01*
Y04829D02*
Y04836D01*
Y04788D02*
Y04803D01*
Y04753D02*
Y04762D01*
Y04712D02*
Y04727D01*
Y04678D02*
Y04686D01*
Y04645D02*
Y04646D01*
Y04624D02*
Y04627D01*
Y04613D02*
Y04618D01*
Y04604D02*
Y04606D01*
Y0456D02*
Y04573D01*
Y04475D02*
Y04525D01*
Y04398D02*
Y04449D01*
Y04344D02*
Y04372D01*
X018002Y04899D02*
Y04936D01*
Y04862D02*
Y04874D01*
Y04829D02*
Y04836D01*
Y04788D02*
Y04803D01*
Y04753D02*
Y04762D01*
Y04712D02*
Y04727D01*
Y04678D02*
Y04686D01*
Y04645D02*
Y04647D01*
Y04624D02*
Y04627D01*
Y04613D02*
Y04618D01*
Y04604D02*
Y04606D01*
Y04558D02*
Y04573D01*
Y04475D02*
Y04525D01*
Y04398D02*
Y04449D01*
Y04344D02*
Y04372D01*
X017992Y04899D02*
Y04936D01*
Y04862D02*
Y04874D01*
Y04829D02*
Y04836D01*
Y04788D02*
Y04803D01*
Y04753D02*
Y04762D01*
Y04712D02*
Y04727D01*
Y04678D02*
Y04686D01*
Y04645D02*
Y04647D01*
Y04624D02*
Y04627D01*
Y04613D02*
Y04618D01*
Y04604D02*
Y04606D01*
Y04557D02*
Y04573D01*
Y04475D02*
Y04525D01*
Y04398D02*
Y04449D01*
Y04344D02*
Y04372D01*
X017982Y04929D02*
Y04936D01*
Y04921D02*
Y04928D01*
Y04913D02*
Y0492D01*
Y04905D02*
Y04912D01*
Y04899D02*
Y04904D01*
Y04873D02*
Y04875D01*
Y04865D02*
Y04872D01*
Y04862D02*
Y04864D01*
Y04833D02*
Y04836D01*
Y04829D02*
Y04832D01*
Y04761D02*
Y04762D01*
Y04753D02*
Y0476D01*
Y04721D02*
Y04722D01*
Y04717D02*
Y0472D01*
Y04681D02*
Y04686D01*
Y04678D02*
Y0468D01*
Y04645D02*
Y04647D01*
Y04625D02*
Y04627D01*
Y04617D02*
Y04618D01*
Y04613D02*
Y04616D01*
Y04604D02*
Y04606D01*
Y04569D02*
Y04573D01*
Y04561D02*
Y04568D01*
Y04555D02*
Y0456D01*
Y04521D02*
Y04525D01*
Y04513D02*
Y0452D01*
Y04505D02*
Y04512D01*
Y04497D02*
Y04504D01*
Y04489D02*
Y04496D01*
Y04481D02*
Y04488D01*
Y04475D02*
Y0448D01*
Y04441D02*
Y04448D01*
Y04433D02*
Y0444D01*
Y04425D02*
Y04432D01*
Y04417D02*
Y04424D01*
Y04409D02*
Y04416D01*
Y04401D02*
Y04408D01*
Y04398D02*
Y044D01*
Y04369D02*
Y04372D01*
Y04361D02*
Y04368D01*
Y04353D02*
Y0436D01*
Y04345D02*
Y04352D01*
X017972Y049D02*
Y04936D01*
Y04862D02*
Y04875D01*
Y04829D02*
Y04836D01*
Y04753D02*
Y04762D01*
Y04717D02*
Y04722D01*
Y04678D02*
Y04686D01*
Y04645D02*
Y04647D01*
Y04624D02*
Y04627D01*
Y04613D02*
Y04618D01*
Y04604D02*
Y04606D01*
Y04553D02*
Y04573D01*
Y04475D02*
Y04525D01*
Y04398D02*
Y04449D01*
Y04344D02*
Y04372D01*
X017962Y049D02*
Y04936D01*
Y04862D02*
Y04875D01*
Y04829D02*
Y04836D01*
Y04753D02*
Y04762D01*
Y04717D02*
Y04722D01*
Y04678D02*
Y04686D01*
Y04645D02*
Y04647D01*
Y04624D02*
Y04627D01*
Y04613D02*
Y04619D01*
Y04604D02*
Y04606D01*
Y04552D02*
Y04567D01*
Y04475D02*
Y04525D01*
Y04398D02*
Y04449D01*
Y04344D02*
Y04372D01*
X017952Y04901D02*
Y04936D01*
Y04862D02*
Y04876D01*
Y04829D02*
Y04836D01*
Y04753D02*
Y04762D01*
Y04717D02*
Y04722D01*
Y04678D02*
Y04686D01*
Y04645D02*
Y04647D01*
Y04625D02*
Y04627D01*
Y04613D02*
Y04619D01*
Y04604D02*
Y04606D01*
Y04552D02*
Y04565D01*
Y04475D02*
Y04525D01*
Y04398D02*
Y04449D01*
Y04344D02*
Y04372D01*
X017942Y04901D02*
Y04936D01*
Y04862D02*
Y04876D01*
Y04829D02*
Y04836D01*
Y04753D02*
Y04762D01*
Y04717D02*
Y04722D01*
Y04678D02*
Y04686D01*
Y04645D02*
Y04647D01*
Y04625D02*
Y04627D01*
Y04614D02*
Y04619D01*
Y04604D02*
Y04606D01*
Y04552D02*
Y04564D01*
Y04475D02*
Y04525D01*
Y04398D02*
Y04449D01*
Y04344D02*
Y04372D01*
X017932Y04901D02*
Y04936D01*
Y04862D02*
Y04876D01*
Y04829D02*
Y04836D01*
Y04753D02*
Y04762D01*
Y04717D02*
Y04722D01*
Y04679D02*
Y04686D01*
Y04645D02*
Y04647D01*
Y04625D02*
Y04627D01*
Y04614D02*
Y04619D01*
Y04604D02*
Y04607D01*
Y04552D02*
Y04564D01*
Y04475D02*
Y04525D01*
Y04398D02*
Y04449D01*
Y04344D02*
Y04372D01*
X017922Y04902D02*
Y04936D01*
Y04862D02*
Y04877D01*
Y04829D02*
Y04836D01*
Y04753D02*
Y04762D01*
Y04717D02*
Y04722D01*
Y04679D02*
Y04686D01*
Y04645D02*
Y04647D01*
Y04625D02*
Y04626D01*
Y04614D02*
Y04619D01*
Y04604D02*
Y04607D01*
Y04552D02*
Y04564D01*
Y04475D02*
Y04525D01*
Y04398D02*
Y04449D01*
Y04344D02*
Y04372D01*
X017912Y04902D02*
Y04936D01*
Y04862D02*
Y04877D01*
Y04829D02*
Y04836D01*
Y04753D02*
Y04762D01*
Y04717D02*
Y04722D01*
Y04679D02*
Y04686D01*
Y04644D02*
Y04647D01*
Y04625D02*
Y04626D01*
Y04614D02*
Y04619D01*
Y04603D02*
Y04607D01*
Y04552D02*
Y04564D01*
Y04475D02*
Y04525D01*
Y04398D02*
Y04449D01*
Y04344D02*
Y04372D01*
X017902Y04929D02*
Y04936D01*
Y04921D02*
Y04928D01*
Y04913D02*
Y0492D01*
Y04905D02*
Y04912D01*
Y04903D02*
Y04904D01*
Y04873D02*
Y04877D01*
Y04865D02*
Y04872D01*
Y04862D02*
Y04864D01*
Y04833D02*
Y04836D01*
Y04828D02*
Y04832D01*
Y04761D02*
Y04763D01*
Y04753D02*
Y0476D01*
Y04721D02*
Y04722D01*
Y04717D02*
Y0472D01*
Y04681D02*
Y04687D01*
Y04679D02*
Y0468D01*
Y04644D02*
Y04648D01*
Y04625D02*
Y04626D01*
Y04617D02*
Y04619D01*
Y04614D02*
Y04616D01*
Y04603D02*
Y04607D01*
Y04561D02*
Y04564D01*
Y04553D02*
Y0456D01*
Y04521D02*
Y04525D01*
Y04513D02*
Y0452D01*
Y04505D02*
Y04512D01*
Y04497D02*
Y04504D01*
Y04489D02*
Y04496D01*
Y04481D02*
Y04488D01*
Y04475D02*
Y0448D01*
Y04441D02*
Y04448D01*
Y04433D02*
Y0444D01*
Y04425D02*
Y04432D01*
Y04417D02*
Y04424D01*
Y04409D02*
Y04416D01*
Y04401D02*
Y04408D01*
Y04398D02*
Y044D01*
Y04369D02*
Y04372D01*
Y04361D02*
Y04368D01*
Y04353D02*
Y0436D01*
Y04345D02*
Y04352D01*
X017892Y04903D02*
Y04936D01*
Y04862D02*
Y04878D01*
Y04827D02*
Y04836D01*
Y04751D02*
Y04764D01*
Y04717D02*
Y04722D01*
Y04679D02*
Y04688D01*
Y04644D02*
Y04648D01*
Y04625D02*
Y04626D01*
Y04614D02*
Y04619D01*
Y04603D02*
Y04607D01*
Y04552D02*
Y04563D01*
Y04475D02*
Y04525D01*
Y04398D02*
Y04448D01*
Y04344D02*
Y04372D01*
X017882Y04903D02*
Y04936D01*
Y04862D02*
Y04878D01*
Y04826D02*
Y04836D01*
Y0475D02*
Y04765D01*
Y04717D02*
Y04722D01*
Y04679D02*
Y04689D01*
Y04644D02*
Y04648D01*
Y04625D02*
Y04626D01*
Y04614D02*
Y04619D01*
Y04603D02*
Y04607D01*
Y04552D02*
Y04563D01*
Y04475D02*
Y04525D01*
Y04399D02*
Y04448D01*
Y04344D02*
Y04372D01*
X017872Y04904D02*
Y04936D01*
Y04862D02*
Y04879D01*
Y04825D02*
Y04836D01*
Y04749D02*
Y04766D01*
Y04717D02*
Y04722D01*
Y04679D02*
Y0469D01*
Y04644D02*
Y04648D01*
Y04614D02*
Y0462D01*
Y04603D02*
Y04607D01*
Y04552D02*
Y04563D01*
Y04475D02*
Y04525D01*
Y04399D02*
Y04448D01*
Y04344D02*
Y04372D01*
X017862Y04904D02*
Y04936D01*
Y04862D02*
Y04879D01*
Y04824D02*
Y04836D01*
Y04748D02*
Y04767D01*
Y04717D02*
Y04722D01*
Y04679D02*
Y04691D01*
Y04644D02*
Y04648D01*
Y04614D02*
Y0462D01*
Y04603D02*
Y04607D01*
Y04553D02*
Y04563D01*
Y04476D02*
Y04525D01*
Y04399D02*
Y04448D01*
Y04344D02*
Y04372D01*
X017852Y04904D02*
Y04936D01*
Y04862D02*
Y04879D01*
Y04823D02*
Y04836D01*
Y04747D02*
Y04768D01*
Y04717D02*
Y04722D01*
Y0468D02*
Y04692D01*
Y04644D02*
Y04648D01*
Y04615D02*
Y0462D01*
Y04603D02*
Y04607D01*
Y04555D02*
Y04563D01*
Y04476D02*
Y04525D01*
Y04399D02*
Y04448D01*
Y04344D02*
Y04372D01*
X017842Y04905D02*
Y04936D01*
Y04862D02*
Y0488D01*
Y04822D02*
Y04836D01*
Y04746D02*
Y04769D01*
Y04717D02*
Y04722D01*
Y0468D02*
Y04693D01*
Y04644D02*
Y04648D01*
Y04615D02*
Y0462D01*
Y04603D02*
Y04607D01*
Y04556D02*
Y04564D01*
Y04476D02*
Y04524D01*
Y04399D02*
Y04447D01*
Y04344D02*
Y04372D01*
X017832Y04905D02*
Y04936D01*
Y04862D02*
Y0488D01*
Y04821D02*
Y04836D01*
Y04745D02*
Y0477D01*
Y04717D02*
Y04722D01*
Y0468D02*
Y04694D01*
Y04644D02*
Y04648D01*
Y04615D02*
Y0462D01*
Y04603D02*
Y04607D01*
Y04558D02*
Y04566D01*
Y04476D02*
Y04524D01*
Y044D02*
Y04447D01*
Y04344D02*
Y04372D01*
X017822Y04929D02*
Y04936D01*
Y04921D02*
Y04928D01*
Y04913D02*
Y0492D01*
Y04906D02*
Y04912D01*
Y04873D02*
Y0488D01*
Y04865D02*
Y04872D01*
Y04862D02*
Y04864D01*
Y04833D02*
Y04836D01*
Y04825D02*
Y04832D01*
Y04819D02*
Y04824D01*
Y04769D02*
Y04771D01*
Y04761D02*
Y04768D01*
Y04753D02*
Y0476D01*
Y04745D02*
Y04752D01*
Y04743D02*
Y04744D01*
Y04721D02*
Y04722D01*
Y04717D02*
Y0472D01*
Y04689D02*
Y04695D01*
Y04681D02*
Y04688D01*
Y04644D02*
Y04648D01*
Y04617D02*
Y0462D01*
Y04615D02*
Y04616D01*
Y04603D02*
Y04608D01*
Y04561D02*
Y04568D01*
Y04521D02*
Y04524D01*
Y04513D02*
Y0452D01*
Y04505D02*
Y04512D01*
Y04497D02*
Y04504D01*
Y04489D02*
Y04496D01*
Y04481D02*
Y04488D01*
Y04477D02*
Y0448D01*
Y04441D02*
Y04447D01*
Y04433D02*
Y0444D01*
Y04425D02*
Y04432D01*
Y04417D02*
Y04424D01*
Y04409D02*
Y04416D01*
Y04401D02*
Y04408D01*
Y04369D02*
Y04372D01*
Y04361D02*
Y04368D01*
Y04353D02*
Y0436D01*
Y04345D02*
Y04352D01*
X017812Y04906D02*
Y04936D01*
Y04862D02*
Y04881D01*
Y04818D02*
Y04836D01*
Y04742D02*
Y04772D01*
Y04717D02*
Y04722D01*
Y0468D02*
Y04696D01*
Y04644D02*
Y04648D01*
Y04615D02*
Y0462D01*
Y04602D02*
Y04608D01*
Y04562D02*
Y0457D01*
Y04477D02*
Y04523D01*
Y044D02*
Y04447D01*
Y04344D02*
Y04372D01*
X017802Y04906D02*
Y04936D01*
Y04862D02*
Y04881D01*
Y04817D02*
Y04836D01*
Y04741D02*
Y04773D01*
Y04717D02*
Y04722D01*
Y0468D02*
Y04697D01*
Y04643D02*
Y04648D01*
Y04615D02*
Y0462D01*
Y04602D02*
Y04608D01*
Y04563D02*
Y04571D01*
Y04478D02*
Y04523D01*
Y04401D02*
Y04446D01*
Y04344D02*
Y04372D01*
X017792Y04907D02*
Y04936D01*
Y04862D02*
Y04881D01*
Y04816D02*
Y04836D01*
Y0474D02*
Y04774D01*
Y04717D02*
Y04722D01*
Y0468D02*
Y04698D01*
Y04643D02*
Y04649D01*
Y04615D02*
Y0462D01*
Y04602D02*
Y04608D01*
Y04565D02*
Y04571D01*
Y04478D02*
Y04522D01*
Y04401D02*
Y04445D01*
Y04344D02*
Y04372D01*
X017782Y04907D02*
Y04936D01*
Y04862D02*
Y04882D01*
Y04815D02*
Y04836D01*
Y04739D02*
Y04775D01*
Y04717D02*
Y04722D01*
Y0468D02*
Y04699D01*
Y04643D02*
Y04649D01*
Y04615D02*
Y04621D01*
Y04602D02*
Y04608D01*
Y04567D02*
Y0457D01*
Y04479D02*
Y04522D01*
Y04402D02*
Y04445D01*
Y04344D02*
Y04372D01*
X017772Y04908D02*
Y04936D01*
Y04862D02*
Y04882D01*
Y04814D02*
Y04836D01*
Y04738D02*
Y04776D01*
Y04717D02*
Y04722D01*
Y04681D02*
Y047D01*
Y04643D02*
Y04649D01*
Y04615D02*
Y04621D01*
Y04602D02*
Y04608D01*
Y04567D02*
Y0457D01*
Y04479D02*
Y04521D01*
Y04402D02*
Y04444D01*
Y04344D02*
Y04372D01*
X017762Y04681D02*
Y04936D01*
Y04643D02*
Y04649D01*
Y04616D02*
Y04621D01*
Y04602D02*
Y04608D01*
Y04566D02*
Y0457D01*
Y0448D02*
Y0452D01*
Y04403D02*
Y04444D01*
Y04344D02*
Y04372D01*
X017752Y04681D02*
Y04936D01*
Y04643D02*
Y04649D01*
Y04616D02*
Y04621D01*
Y04602D02*
Y04608D01*
Y04566D02*
Y0457D01*
Y04481D02*
Y0452D01*
Y04404D02*
Y04443D01*
Y04344D02*
Y04372D01*
X017742Y04929D02*
Y04936D01*
Y04921D02*
Y04928D01*
Y04913D02*
Y0492D01*
Y04905D02*
Y04912D01*
Y04897D02*
Y04904D01*
Y04889D02*
Y04896D01*
Y04881D02*
Y04888D01*
Y04873D02*
Y0488D01*
Y04865D02*
Y04872D01*
Y04857D02*
Y04864D01*
Y04849D02*
Y04856D01*
Y04841D02*
Y04848D01*
Y04833D02*
Y0484D01*
Y04825D02*
Y04832D01*
Y04817D02*
Y04824D01*
Y04809D02*
Y04816D01*
Y04801D02*
Y04808D01*
Y04793D02*
Y048D01*
Y04785D02*
Y04792D01*
Y04777D02*
Y04784D01*
Y04769D02*
Y04776D01*
Y04761D02*
Y04768D01*
Y04753D02*
Y0476D01*
Y04745D02*
Y04752D01*
Y04737D02*
Y04744D01*
Y04729D02*
Y04736D01*
Y04721D02*
Y04728D01*
Y04713D02*
Y0472D01*
Y04705D02*
Y04712D01*
Y04697D02*
Y04704D01*
Y04689D02*
Y04696D01*
Y04681D02*
Y04688D01*
Y04643D02*
Y04648D01*
Y04617D02*
Y04621D01*
Y04602D02*
Y04608D01*
Y04569D02*
Y0457D01*
Y04566D02*
Y04568D01*
Y04513D02*
Y04519D01*
Y04505D02*
Y04512D01*
Y04497D02*
Y04504D01*
Y04489D02*
Y04496D01*
Y04482D02*
Y04488D01*
Y04441D02*
Y04442D01*
Y04433D02*
Y0444D01*
Y04425D02*
Y04432D01*
Y04417D02*
Y04424D01*
Y04409D02*
Y04416D01*
Y04405D02*
Y04408D01*
Y04369D02*
Y04373D01*
Y04361D02*
Y04368D01*
Y04353D02*
Y0436D01*
Y04345D02*
Y04352D01*
X017732Y04681D02*
Y04936D01*
Y04643D02*
Y04649D01*
Y04616D02*
Y04621D01*
Y04602D02*
Y04608D01*
Y04565D02*
Y0457D01*
Y04482D02*
Y04518D01*
Y04406D02*
Y04441D01*
Y04344D02*
Y04373D01*
X017722Y04681D02*
Y04936D01*
Y04643D02*
Y04649D01*
Y04616D02*
Y04621D01*
Y04602D02*
Y04609D01*
Y04565D02*
Y0457D01*
Y04484D02*
Y04517D01*
Y04407D02*
Y0444D01*
Y04344D02*
Y04373D01*
X017712Y04681D02*
Y04936D01*
Y04643D02*
Y04649D01*
Y04616D02*
Y04621D01*
Y04601D02*
Y04609D01*
Y04565D02*
Y0457D01*
Y04485D02*
Y04516D01*
Y04408D02*
Y04439D01*
Y04344D02*
Y04373D01*
X017702Y04681D02*
Y04936D01*
Y04642D02*
Y04649D01*
Y04616D02*
Y04621D01*
Y04601D02*
Y04609D01*
Y04565D02*
Y04569D01*
Y04486D02*
Y04514D01*
Y04409D02*
Y04438D01*
Y04344D02*
Y04373D01*
X017692Y04682D02*
Y04936D01*
Y04642D02*
Y0465D01*
Y04616D02*
Y04622D01*
Y04601D02*
Y04609D01*
Y04564D02*
Y04569D01*
Y04488D02*
Y04513D01*
Y04411D02*
Y04436D01*
Y04344D02*
Y04374D01*
X017682Y04682D02*
Y04936D01*
Y04642D02*
Y0465D01*
Y04616D02*
Y04622D01*
Y04601D02*
Y04609D01*
Y04564D02*
Y04569D01*
Y04489D02*
Y04511D01*
Y04413D02*
Y04434D01*
Y04344D02*
Y04374D01*
X017672Y04929D02*
Y04936D01*
Y04921D02*
Y04928D01*
Y04913D02*
Y0492D01*
Y04905D02*
Y04912D01*
Y04897D02*
Y04904D01*
Y04889D02*
Y04896D01*
Y04881D02*
Y04888D01*
Y04873D02*
Y0488D01*
Y04865D02*
Y04872D01*
Y04857D02*
Y04864D01*
Y04849D02*
Y04856D01*
Y04841D02*
Y04848D01*
Y04833D02*
Y0484D01*
Y04825D02*
Y04832D01*
Y04817D02*
Y04824D01*
Y04809D02*
Y04816D01*
Y04801D02*
Y04808D01*
Y04793D02*
Y048D01*
Y04785D02*
Y04792D01*
Y04777D02*
Y04784D01*
Y04769D02*
Y04776D01*
Y04761D02*
Y04768D01*
Y04753D02*
Y0476D01*
Y04745D02*
Y04752D01*
Y04737D02*
Y04744D01*
Y04729D02*
Y04736D01*
Y04721D02*
Y04728D01*
Y04713D02*
Y0472D01*
Y04705D02*
Y04712D01*
Y04697D02*
Y04704D01*
Y04689D02*
Y04696D01*
Y04682D02*
Y04688D01*
Y04649D02*
Y0465D01*
Y04642D02*
Y04648D01*
Y04617D02*
Y04622D01*
Y04601D02*
Y04608D01*
Y04564D02*
Y04568D01*
Y04505D02*
Y04509D01*
Y04497D02*
Y04504D01*
Y04491D02*
Y04496D01*
Y04425D02*
Y04432D01*
Y04417D02*
Y04424D01*
Y04415D02*
Y04416D01*
Y04369D02*
Y04374D01*
Y04361D02*
Y04368D01*
Y04353D02*
Y0436D01*
Y04345D02*
Y04352D01*
X017662Y04682D02*
Y04936D01*
Y04642D02*
Y0465D01*
Y04617D02*
Y04622D01*
Y04601D02*
Y04609D01*
Y04549D02*
Y04569D01*
Y04495D02*
Y04506D01*
Y04418D02*
Y04429D01*
Y04344D02*
Y04374D01*
X017652Y04682D02*
Y04936D01*
Y04642D02*
Y0465D01*
Y04617D02*
Y04622D01*
Y04601D02*
Y04609D01*
Y04549D02*
Y04569D01*
Y04344D02*
Y04375D01*
X017642Y04682D02*
Y04936D01*
Y04642D02*
Y0465D01*
Y04617D02*
Y04622D01*
Y04601D02*
Y04609D01*
Y04548D02*
Y04569D01*
Y04344D02*
Y04375D01*
X017632Y04682D02*
Y04936D01*
Y04642D02*
Y0465D01*
Y04617D02*
Y04622D01*
Y04601D02*
Y04609D01*
Y04548D02*
Y04569D01*
Y04344D02*
Y04376D01*
X017622Y04682D02*
Y04936D01*
Y04642D02*
Y0465D01*
Y04617D02*
Y04622D01*
Y04601D02*
Y04609D01*
Y04548D02*
Y04568D01*
Y04344D02*
Y04376D01*
X017612Y04683D02*
Y04936D01*
Y04642D02*
Y0465D01*
Y04617D02*
Y04622D01*
Y04601D02*
Y0461D01*
Y04547D02*
Y04568D01*
Y04344D02*
Y04376D01*
X017602Y04683D02*
Y04936D01*
Y04642D02*
Y0465D01*
Y04617D02*
Y04623D01*
Y046D02*
Y0461D01*
Y04547D02*
Y04568D01*
Y04344D02*
Y04377D01*
X017592Y04929D02*
Y04936D01*
Y04921D02*
Y04928D01*
Y04913D02*
Y0492D01*
Y04905D02*
Y04912D01*
Y04897D02*
Y04904D01*
Y04889D02*
Y04896D01*
Y04881D02*
Y04888D01*
Y04873D02*
Y0488D01*
Y04865D02*
Y04872D01*
Y04857D02*
Y04864D01*
Y04849D02*
Y04856D01*
Y04841D02*
Y04848D01*
Y04833D02*
Y0484D01*
Y04825D02*
Y04832D01*
Y04817D02*
Y04824D01*
Y04809D02*
Y04816D01*
Y04801D02*
Y04808D01*
Y04793D02*
Y048D01*
Y04785D02*
Y04792D01*
Y04777D02*
Y04784D01*
Y04769D02*
Y04776D01*
Y04761D02*
Y04768D01*
Y04753D02*
Y0476D01*
Y04745D02*
Y04752D01*
Y04737D02*
Y04744D01*
Y04729D02*
Y04736D01*
Y04721D02*
Y04728D01*
Y04713D02*
Y0472D01*
Y04705D02*
Y04712D01*
Y04697D02*
Y04704D01*
Y04689D02*
Y04696D01*
Y04683D02*
Y04688D01*
Y04649D02*
Y04651D01*
Y04641D02*
Y04648D01*
Y04617D02*
Y04623D01*
Y04609D02*
Y0461D01*
Y04601D02*
Y04608D01*
Y04561D02*
Y04568D01*
Y04553D02*
Y0456D01*
Y04546D02*
Y04552D01*
Y04377D02*
Y04378D01*
Y04369D02*
Y04376D01*
Y04361D02*
Y04368D01*
Y04353D02*
Y0436D01*
Y04345D02*
Y04352D01*
X017582Y04683D02*
Y04936D01*
Y04641D02*
Y04651D01*
Y04618D02*
Y04623D01*
Y046D02*
Y0461D01*
Y04546D02*
Y04568D01*
Y04344D02*
Y04378D01*
X017572Y04683D02*
Y04936D01*
Y04641D02*
Y04651D01*
Y04618D02*
Y04623D01*
Y046D02*
Y0461D01*
Y04545D02*
Y04559D01*
Y04344D02*
Y04379D01*
X017562Y04683D02*
Y04936D01*
Y04641D02*
Y04651D01*
Y04618D02*
Y04623D01*
Y046D02*
Y0461D01*
Y04545D02*
Y04559D01*
Y04344D02*
Y04379D01*
X017552Y04683D02*
Y04936D01*
Y04641D02*
Y04651D01*
Y04618D02*
Y04623D01*
Y046D02*
Y0461D01*
Y04546D02*
Y04559D01*
Y04344D02*
Y0438D01*
X017542Y04683D02*
Y04936D01*
Y04641D02*
Y04651D01*
Y04618D02*
Y04623D01*
Y046D02*
Y0461D01*
Y04546D02*
Y04559D01*
Y04344D02*
Y0438D01*
X017532Y04684D02*
Y04936D01*
Y04641D02*
Y04651D01*
Y04618D02*
Y04623D01*
Y046D02*
Y0461D01*
Y04547D02*
Y04558D01*
Y04344D02*
Y04381D01*
X017522Y04684D02*
Y04936D01*
Y04641D02*
Y04651D01*
Y04618D02*
Y04623D01*
Y046D02*
Y0461D01*
Y04548D02*
Y04558D01*
Y04344D02*
Y04382D01*
X017512Y04929D02*
Y04936D01*
Y04921D02*
Y04928D01*
Y04913D02*
Y0492D01*
Y04905D02*
Y04912D01*
Y04897D02*
Y04904D01*
Y04889D02*
Y04896D01*
Y04881D02*
Y04888D01*
Y04873D02*
Y0488D01*
Y04865D02*
Y04872D01*
Y04857D02*
Y04864D01*
Y04849D02*
Y04856D01*
Y04841D02*
Y04848D01*
Y04833D02*
Y0484D01*
Y04825D02*
Y04832D01*
Y04817D02*
Y04824D01*
Y04809D02*
Y04816D01*
Y04801D02*
Y04808D01*
Y04793D02*
Y048D01*
Y04785D02*
Y04792D01*
Y04777D02*
Y04784D01*
Y04769D02*
Y04776D01*
Y04761D02*
Y04768D01*
Y04753D02*
Y0476D01*
Y04745D02*
Y04752D01*
Y04737D02*
Y04744D01*
Y04729D02*
Y04736D01*
Y04721D02*
Y04728D01*
Y04713D02*
Y0472D01*
Y04705D02*
Y04712D01*
Y04697D02*
Y04704D01*
Y04689D02*
Y04696D01*
Y04684D02*
Y04688D01*
Y04649D02*
Y04651D01*
Y04641D02*
Y04648D01*
Y04618D02*
Y04624D01*
Y04609D02*
Y04611D01*
Y04601D02*
Y04608D01*
Y04553D02*
Y04558D01*
Y04548D02*
Y04552D01*
Y04377D02*
Y04382D01*
Y04369D02*
Y04376D01*
Y04361D02*
Y04368D01*
Y04353D02*
Y0436D01*
Y04345D02*
Y04352D01*
X017502Y04684D02*
Y04936D01*
Y04641D02*
Y04651D01*
Y04618D02*
Y04624D01*
Y04599D02*
Y04611D01*
Y04549D02*
Y04558D01*
Y04344D02*
Y04383D01*
X017492Y04684D02*
Y04936D01*
Y0464D02*
Y04651D01*
Y04619D02*
Y04624D01*
Y04599D02*
Y04611D01*
Y04549D02*
Y04558D01*
Y04344D02*
Y04384D01*
X017482Y04684D02*
Y04936D01*
Y0464D02*
Y04652D01*
Y04619D02*
Y04624D01*
Y04599D02*
Y04611D01*
Y0455D02*
Y04557D01*
Y04344D02*
Y04385D01*
X017472Y04684D02*
Y04936D01*
Y0464D02*
Y04652D01*
Y04619D02*
Y04624D01*
Y04599D02*
Y04611D01*
Y0455D02*
Y04557D01*
Y04461D02*
Y04462D01*
Y04344D02*
Y04386D01*
X017462Y04684D02*
Y04936D01*
Y0464D02*
Y04652D01*
Y04619D02*
Y04624D01*
Y04599D02*
Y04611D01*
Y04551D02*
Y04557D01*
Y0446D02*
Y04463D01*
Y04344D02*
Y04387D01*
X017452Y04685D02*
Y04936D01*
Y0464D02*
Y04652D01*
Y04619D02*
Y04624D01*
Y04599D02*
Y04611D01*
Y04552D02*
Y04559D01*
Y04459D02*
Y04464D01*
Y04344D02*
Y04388D01*
X017442Y04685D02*
Y04936D01*
Y0464D02*
Y04652D01*
Y04619D02*
Y04624D01*
Y04599D02*
Y04611D01*
Y04552D02*
Y04561D01*
Y04458D02*
Y04465D01*
Y04344D02*
Y04389D01*
X017432Y04929D02*
Y04936D01*
Y04921D02*
Y04928D01*
Y04913D02*
Y0492D01*
Y04905D02*
Y04912D01*
Y04897D02*
Y04904D01*
Y04889D02*
Y04896D01*
Y04881D02*
Y04888D01*
Y04873D02*
Y0488D01*
Y04865D02*
Y04872D01*
Y04857D02*
Y04864D01*
Y04849D02*
Y04856D01*
Y04841D02*
Y04848D01*
Y04833D02*
Y0484D01*
Y04825D02*
Y04832D01*
Y04817D02*
Y04824D01*
Y04809D02*
Y04816D01*
Y04801D02*
Y04808D01*
Y04793D02*
Y048D01*
Y04785D02*
Y04792D01*
Y04777D02*
Y04784D01*
Y04769D02*
Y04776D01*
Y04761D02*
Y04768D01*
Y04753D02*
Y0476D01*
Y04745D02*
Y04752D01*
Y04737D02*
Y04744D01*
Y04729D02*
Y04736D01*
Y04721D02*
Y04728D01*
Y04713D02*
Y0472D01*
Y04705D02*
Y04712D01*
Y04697D02*
Y04704D01*
Y04689D02*
Y04696D01*
Y04685D02*
Y04688D01*
Y04649D02*
Y04652D01*
Y04641D02*
Y04648D01*
Y04619D02*
Y04624D01*
Y04609D02*
Y04611D01*
Y04601D02*
Y04608D01*
Y04599D02*
Y046D01*
Y04561D02*
Y04563D01*
Y04553D02*
Y0456D01*
Y04465D02*
Y04467D01*
Y04457D02*
Y04464D01*
Y04385D02*
Y0439D01*
Y04377D02*
Y04384D01*
Y04369D02*
Y04376D01*
Y04361D02*
Y04368D01*
Y04353D02*
Y0436D01*
Y04345D02*
Y04352D01*
X017422Y04685D02*
Y04936D01*
Y0464D02*
Y04652D01*
Y04619D02*
Y04625D01*
Y04599D02*
Y04611D01*
Y04552D02*
Y04565D01*
Y04456D02*
Y04468D01*
Y04344D02*
Y04391D01*
X017412Y04685D02*
Y04936D01*
Y0464D02*
Y04652D01*
Y04619D02*
Y04625D01*
Y04599D02*
Y04611D01*
Y04551D02*
Y04566D01*
Y04531D02*
Y04533D01*
Y04455D02*
Y04469D01*
Y04344D02*
Y04392D01*
X017402Y04685D02*
Y04936D01*
Y0464D02*
Y04652D01*
Y0462D02*
Y04625D01*
Y04599D02*
Y04612D01*
Y0455D02*
Y04566D01*
Y0453D02*
Y04535D01*
Y04453D02*
Y04471D01*
Y04344D02*
Y04394D01*
X017392Y04685D02*
Y04936D01*
Y0464D02*
Y04652D01*
Y0462D02*
Y04625D01*
Y04598D02*
Y04612D01*
Y04549D02*
Y04566D01*
Y04529D02*
Y04537D01*
Y04452D02*
Y04472D01*
Y04344D02*
Y04395D01*
X017382Y04685D02*
Y04936D01*
Y04639D02*
Y04653D01*
Y0462D02*
Y04625D01*
Y04598D02*
Y04612D01*
Y04548D02*
Y04565D01*
Y04527D02*
Y04539D01*
Y0445D02*
Y04474D01*
Y04344D02*
Y04397D01*
X017372Y04686D02*
Y04936D01*
Y04639D02*
Y04653D01*
Y0462D02*
Y04625D01*
Y04598D02*
Y04612D01*
Y04547D02*
Y04565D01*
Y04525D02*
Y04541D01*
Y04448D02*
Y04474D01*
Y04344D02*
Y04399D01*
X017362Y04686D02*
Y04936D01*
Y04639D02*
Y04653D01*
Y0462D02*
Y04625D01*
Y04598D02*
Y04612D01*
Y04546D02*
Y04565D01*
Y04523D02*
Y04543D01*
Y04446D02*
Y04474D01*
Y04344D02*
Y04401D01*
X017352Y04929D02*
Y04936D01*
Y04921D02*
Y04928D01*
Y04913D02*
Y0492D01*
Y04905D02*
Y04912D01*
Y04897D02*
Y04904D01*
Y04889D02*
Y04896D01*
Y04881D02*
Y04888D01*
Y04873D02*
Y0488D01*
Y04865D02*
Y04872D01*
Y04857D02*
Y04864D01*
Y04849D02*
Y04856D01*
Y04841D02*
Y04848D01*
Y04833D02*
Y0484D01*
Y04825D02*
Y04832D01*
Y04817D02*
Y04824D01*
Y04809D02*
Y04816D01*
Y04801D02*
Y04808D01*
Y04793D02*
Y048D01*
Y04785D02*
Y04792D01*
Y04777D02*
Y04784D01*
Y04769D02*
Y04776D01*
Y04761D02*
Y04768D01*
Y04753D02*
Y0476D01*
Y04745D02*
Y04752D01*
Y04737D02*
Y04744D01*
Y04729D02*
Y04736D01*
Y04721D02*
Y04728D01*
Y04713D02*
Y0472D01*
Y04705D02*
Y04712D01*
Y04697D02*
Y04704D01*
Y04689D02*
Y04696D01*
Y04686D02*
Y04688D01*
Y04649D02*
Y04653D01*
Y04641D02*
Y04648D01*
Y04639D02*
Y0464D01*
Y0462D02*
Y04624D01*
Y04609D02*
Y04612D01*
Y04601D02*
Y04608D01*
Y04598D02*
Y046D01*
Y04561D02*
Y04565D01*
Y04553D02*
Y0456D01*
Y04545D02*
Y04552D01*
Y04537D02*
Y04544D01*
Y04529D02*
Y04536D01*
Y04523D02*
Y04528D01*
Y04473D02*
Y04474D01*
Y04465D02*
Y04472D01*
Y04457D02*
Y04464D01*
Y04449D02*
Y04456D01*
Y04444D02*
Y04448D01*
Y04401D02*
Y04403D01*
Y04393D02*
Y044D01*
Y04385D02*
Y04392D01*
Y04377D02*
Y04384D01*
Y04369D02*
Y04376D01*
Y04361D02*
Y04368D01*
Y04353D02*
Y0436D01*
Y04345D02*
Y04352D01*
X017342Y04686D02*
Y04936D01*
Y04639D02*
Y04653D01*
Y0462D02*
Y04626D01*
Y04598D02*
Y04612D01*
Y04523D02*
Y04565D01*
Y04442D02*
Y04474D01*
Y04344D02*
Y04405D01*
X017332Y04686D02*
Y04936D01*
Y04639D02*
Y04653D01*
Y0462D02*
Y04626D01*
Y04598D02*
Y04612D01*
Y04523D02*
Y04565D01*
Y04439D02*
Y04474D01*
Y04344D02*
Y04408D01*
X017322Y04686D02*
Y04936D01*
Y04639D02*
Y04653D01*
Y0462D02*
Y04626D01*
Y04598D02*
Y04612D01*
Y04523D02*
Y04565D01*
Y04435D02*
Y04474D01*
Y04344D02*
Y04412D01*
X017312Y04686D02*
Y04936D01*
Y04639D02*
Y04653D01*
Y04621D02*
Y04626D01*
Y04598D02*
Y04612D01*
Y04523D02*
Y04565D01*
Y0443D02*
Y04474D01*
Y04344D02*
Y04417D01*
X017302Y04686D02*
Y04936D01*
Y04639D02*
Y04653D01*
Y04621D02*
Y04626D01*
Y04598D02*
Y04613D01*
Y04523D02*
Y04564D01*
Y04494D02*
Y04504D01*
Y04344D02*
Y04474D01*
X017292Y04687D02*
Y04936D01*
Y04639D02*
Y04653D01*
Y04621D02*
Y04626D01*
Y04597D02*
Y04613D01*
Y04523D02*
Y04564D01*
Y04494D02*
Y04504D01*
Y04344D02*
Y04474D01*
X017282Y04687D02*
Y04936D01*
Y04638D02*
Y04653D01*
Y04621D02*
Y04626D01*
Y04597D02*
Y04613D01*
Y04523D02*
Y04564D01*
Y04493D02*
Y04505D01*
Y04344D02*
Y04474D01*
X017272Y04929D02*
Y04936D01*
Y04921D02*
Y04928D01*
Y04913D02*
Y0492D01*
Y04905D02*
Y04912D01*
Y04897D02*
Y04904D01*
Y04889D02*
Y04896D01*
Y04881D02*
Y04888D01*
Y04873D02*
Y0488D01*
Y04865D02*
Y04872D01*
Y04857D02*
Y04864D01*
Y04849D02*
Y04856D01*
Y04841D02*
Y04848D01*
Y04833D02*
Y0484D01*
Y04825D02*
Y04832D01*
Y04817D02*
Y04824D01*
Y04809D02*
Y04816D01*
Y04801D02*
Y04808D01*
Y04793D02*
Y048D01*
Y04785D02*
Y04792D01*
Y04777D02*
Y04784D01*
Y04769D02*
Y04776D01*
Y04761D02*
Y04768D01*
Y04753D02*
Y0476D01*
Y04745D02*
Y04752D01*
Y04737D02*
Y04744D01*
Y04729D02*
Y04736D01*
Y04721D02*
Y04728D01*
Y04713D02*
Y0472D01*
Y04705D02*
Y04712D01*
Y04697D02*
Y04704D01*
Y04689D02*
Y04696D01*
Y04687D02*
Y04688D01*
Y04649D02*
Y04654D01*
Y04641D02*
Y04648D01*
Y04638D02*
Y0464D01*
Y04625D02*
Y04626D01*
Y04621D02*
Y04624D01*
Y04609D02*
Y04613D01*
Y04601D02*
Y04608D01*
Y04597D02*
Y046D01*
Y04561D02*
Y04564D01*
Y04553D02*
Y0456D01*
Y04545D02*
Y04552D01*
Y04537D02*
Y04544D01*
Y04529D02*
Y04536D01*
Y04523D02*
Y04528D01*
Y04505D02*
Y04506D01*
Y04497D02*
Y04504D01*
Y04492D02*
Y04496D01*
Y04473D02*
Y04474D01*
Y04465D02*
Y04472D01*
Y04457D02*
Y04464D01*
Y04449D02*
Y04456D01*
Y04441D02*
Y04448D01*
Y04433D02*
Y0444D01*
Y04425D02*
Y04432D01*
Y04417D02*
Y04424D01*
Y04409D02*
Y04416D01*
Y04401D02*
Y04408D01*
Y04393D02*
Y044D01*
Y04385D02*
Y04392D01*
Y04377D02*
Y04384D01*
Y04369D02*
Y04376D01*
Y04361D02*
Y04368D01*
Y04353D02*
Y0436D01*
Y04345D02*
Y04352D01*
X017262Y04687D02*
Y04936D01*
Y04638D02*
Y04654D01*
Y04621D02*
Y04626D01*
Y04597D02*
Y04613D01*
Y04523D02*
Y04564D01*
Y04492D02*
Y04506D01*
Y04344D02*
Y04474D01*
X017252Y04687D02*
Y04936D01*
Y04638D02*
Y04654D01*
Y04621D02*
Y04627D01*
Y04597D02*
Y04613D01*
Y04523D02*
Y04564D01*
Y04491D02*
Y04507D01*
Y04344D02*
Y04474D01*
X017242Y04687D02*
Y04936D01*
Y04638D02*
Y04654D01*
Y04621D02*
Y04627D01*
Y04597D02*
Y04613D01*
Y04523D02*
Y04564D01*
Y04491D02*
Y04507D01*
Y04344D02*
Y04474D01*
X017232Y04687D02*
Y04936D01*
Y04638D02*
Y04654D01*
Y04621D02*
Y04627D01*
Y04597D02*
Y04613D01*
Y04523D02*
Y04564D01*
Y0449D02*
Y04508D01*
Y04344D02*
Y04474D01*
X017222Y04687D02*
Y04936D01*
Y04638D02*
Y04654D01*
Y04622D02*
Y04627D01*
Y04597D02*
Y04613D01*
Y04523D02*
Y04563D01*
Y04489D02*
Y04509D01*
Y04344D02*
Y04474D01*
X017212Y04688D02*
Y04936D01*
Y04638D02*
Y04654D01*
Y04622D02*
Y04627D01*
Y04597D02*
Y04613D01*
Y04523D02*
Y04563D01*
Y04489D02*
Y04509D01*
Y04344D02*
Y04474D01*
X017202Y04688D02*
Y04936D01*
Y04638D02*
Y04654D01*
Y04622D02*
Y04627D01*
Y04597D02*
Y04614D01*
Y04522D02*
Y04563D01*
Y04488D02*
Y0451D01*
Y04344D02*
Y04474D01*
X017192Y04929D02*
Y04936D01*
Y04921D02*
Y04928D01*
Y04913D02*
Y0492D01*
Y04905D02*
Y04912D01*
Y04897D02*
Y04904D01*
Y04889D02*
Y04896D01*
Y04881D02*
Y04888D01*
Y04873D02*
Y0488D01*
Y04865D02*
Y04872D01*
Y04857D02*
Y04864D01*
Y04849D02*
Y04856D01*
Y04841D02*
Y04848D01*
Y04833D02*
Y0484D01*
Y04825D02*
Y04832D01*
Y04817D02*
Y04824D01*
Y04809D02*
Y04816D01*
Y04801D02*
Y04808D01*
Y04793D02*
Y048D01*
Y04785D02*
Y04792D01*
Y04777D02*
Y04784D01*
Y04769D02*
Y04776D01*
Y04761D02*
Y04768D01*
Y04753D02*
Y0476D01*
Y04745D02*
Y04752D01*
Y04737D02*
Y04744D01*
Y04729D02*
Y04736D01*
Y04721D02*
Y04728D01*
Y04713D02*
Y0472D01*
Y04705D02*
Y04712D01*
Y04697D02*
Y04704D01*
Y04689D02*
Y04696D01*
Y04649D02*
Y04654D01*
Y04641D02*
Y04648D01*
Y04638D02*
Y0464D01*
Y04625D02*
Y04627D01*
Y04622D02*
Y04624D01*
Y04609D02*
Y04614D01*
Y04601D02*
Y04608D01*
Y04597D02*
Y046D01*
Y04561D02*
Y04562D01*
Y04553D02*
Y0456D01*
Y04545D02*
Y04552D01*
Y04537D02*
Y04544D01*
Y04529D02*
Y04536D01*
Y04521D02*
Y04528D01*
Y04518D02*
Y0452D01*
Y04505D02*
Y04511D01*
Y04497D02*
Y04504D01*
Y04489D02*
Y04496D01*
Y04473D02*
Y04474D01*
Y04465D02*
Y04472D01*
Y04457D02*
Y04464D01*
Y04449D02*
Y04456D01*
Y04441D02*
Y04448D01*
Y04433D02*
Y0444D01*
Y04425D02*
Y04432D01*
Y04417D02*
Y04424D01*
Y04409D02*
Y04416D01*
Y04401D02*
Y04408D01*
Y04393D02*
Y044D01*
Y04385D02*
Y04392D01*
Y04377D02*
Y04384D01*
Y04369D02*
Y04376D01*
Y04361D02*
Y04368D01*
Y04353D02*
Y0436D01*
Y04345D02*
Y04352D01*
X017182Y04688D02*
Y04936D01*
Y04637D02*
Y04654D01*
Y04622D02*
Y04627D01*
Y04596D02*
Y04614D01*
Y04514D02*
Y04553D01*
Y04487D02*
Y04511D01*
Y04344D02*
Y04475D01*
X017172Y04688D02*
Y04936D01*
Y04637D02*
Y04655D01*
Y04622D02*
Y04627D01*
Y04596D02*
Y04614D01*
Y04487D02*
Y04553D01*
Y04344D02*
Y04479D01*
X017162Y04688D02*
Y04936D01*
Y04637D02*
Y04655D01*
Y04622D02*
Y04628D01*
Y04596D02*
Y04614D01*
Y04486D02*
Y04553D01*
Y04344D02*
Y04482D01*
X017152Y04688D02*
Y04936D01*
Y04637D02*
Y04655D01*
Y04622D02*
Y04628D01*
Y04596D02*
Y04614D01*
Y04344D02*
Y04553D01*
X017142Y04688D02*
Y04936D01*
Y04637D02*
Y04655D01*
Y04622D02*
Y04628D01*
Y04596D02*
Y04614D01*
Y04344D02*
Y04553D01*
X017132Y04689D02*
Y04936D01*
Y04637D02*
Y04655D01*
Y04622D02*
Y0463D01*
Y04596D02*
Y04614D01*
Y04344D02*
Y04552D01*
X017122Y04689D02*
Y04936D01*
Y04637D02*
Y04655D01*
Y04621D02*
Y04631D01*
Y04596D02*
Y04614D01*
Y04344D02*
Y04552D01*
X017112Y04929D02*
Y04936D01*
Y04921D02*
Y04928D01*
Y04913D02*
Y0492D01*
Y04905D02*
Y04912D01*
Y04897D02*
Y04904D01*
Y04889D02*
Y04896D01*
Y04881D02*
Y04888D01*
Y04873D02*
Y0488D01*
Y04865D02*
Y04872D01*
Y04857D02*
Y04864D01*
Y04849D02*
Y04856D01*
Y04841D02*
Y04848D01*
Y04833D02*
Y0484D01*
Y04825D02*
Y04832D01*
Y04817D02*
Y04824D01*
Y04809D02*
Y04816D01*
Y04801D02*
Y04808D01*
Y04793D02*
Y048D01*
Y04785D02*
Y04792D01*
Y04777D02*
Y04784D01*
Y04769D02*
Y04776D01*
Y04761D02*
Y04768D01*
Y04753D02*
Y0476D01*
Y04745D02*
Y04752D01*
Y04737D02*
Y04744D01*
Y04729D02*
Y04736D01*
Y04721D02*
Y04728D01*
Y04713D02*
Y0472D01*
Y04705D02*
Y04712D01*
Y04697D02*
Y04704D01*
Y04689D02*
Y04696D01*
Y04649D02*
Y04655D01*
Y04641D02*
Y04648D01*
Y04637D02*
Y0464D01*
Y04625D02*
Y04632D01*
Y0462D02*
Y04624D01*
Y04609D02*
Y04614D01*
Y04601D02*
Y04608D01*
Y04596D02*
Y046D01*
Y04545D02*
Y04552D01*
Y04537D02*
Y04544D01*
Y04529D02*
Y04536D01*
Y04521D02*
Y04528D01*
Y04513D02*
Y0452D01*
Y04505D02*
Y04512D01*
Y04497D02*
Y04504D01*
Y04489D02*
Y04496D01*
Y04481D02*
Y04488D01*
Y04473D02*
Y0448D01*
Y04465D02*
Y04472D01*
Y04457D02*
Y04464D01*
Y04449D02*
Y04456D01*
Y04441D02*
Y04448D01*
Y04433D02*
Y0444D01*
Y04425D02*
Y04432D01*
Y04417D02*
Y04424D01*
Y04409D02*
Y04416D01*
Y04401D02*
Y04408D01*
Y04393D02*
Y044D01*
Y04385D02*
Y04392D01*
Y04377D02*
Y04384D01*
Y04369D02*
Y04376D01*
Y04361D02*
Y04368D01*
Y04353D02*
Y0436D01*
Y04345D02*
Y04352D01*
X017102Y04689D02*
Y04936D01*
Y04637D02*
Y04655D01*
Y04619D02*
Y04633D01*
Y04596D02*
Y04614D01*
Y04344D02*
Y04552D01*
X017092Y04689D02*
Y04936D01*
Y04637D02*
Y04655D01*
Y04619D02*
Y04634D01*
Y04596D02*
Y04615D01*
Y04344D02*
Y04552D01*
X017082Y04689D02*
Y04936D01*
Y04637D02*
Y04655D01*
Y04618D02*
Y04634D01*
Y04595D02*
Y04615D01*
Y04344D02*
Y04551D01*
X017072Y04689D02*
Y04936D01*
Y04636D02*
Y04655D01*
Y04618D02*
Y04634D01*
Y04595D02*
Y04615D01*
Y04344D02*
Y04551D01*
X017062Y04689D02*
Y04936D01*
Y04636D02*
Y04656D01*
Y04618D02*
Y04634D01*
Y04595D02*
Y04615D01*
Y04344D02*
Y04553D01*
X017052Y0469D02*
Y04936D01*
Y04636D02*
Y04656D01*
Y04618D02*
Y04634D01*
Y04595D02*
Y04615D01*
Y04344D02*
Y04555D01*
X017042Y0469D02*
Y04936D01*
Y04636D02*
Y04656D01*
Y04619D02*
Y04634D01*
Y04595D02*
Y04615D01*
Y04344D02*
Y04557D01*
X017032Y04929D02*
Y04936D01*
Y04921D02*
Y04928D01*
Y04913D02*
Y0492D01*
Y04905D02*
Y04912D01*
Y04897D02*
Y04904D01*
Y04889D02*
Y04896D01*
Y04881D02*
Y04888D01*
Y04873D02*
Y0488D01*
Y04865D02*
Y04872D01*
Y04857D02*
Y04864D01*
Y04849D02*
Y04856D01*
Y04841D02*
Y04848D01*
Y04833D02*
Y0484D01*
Y04825D02*
Y04832D01*
Y04817D02*
Y04824D01*
Y04809D02*
Y04816D01*
Y04801D02*
Y04808D01*
Y04793D02*
Y048D01*
Y04785D02*
Y04792D01*
Y04777D02*
Y04784D01*
Y04769D02*
Y04776D01*
Y04761D02*
Y04768D01*
Y04753D02*
Y0476D01*
Y04745D02*
Y04752D01*
Y04737D02*
Y04744D01*
Y04729D02*
Y04736D01*
Y04721D02*
Y04728D01*
Y04713D02*
Y0472D01*
Y04705D02*
Y04712D01*
Y04697D02*
Y04704D01*
Y0469D02*
Y04696D01*
Y04649D02*
Y04656D01*
Y04641D02*
Y04648D01*
Y04636D02*
Y0464D01*
Y04625D02*
Y04632D01*
Y04619D02*
Y04624D01*
Y04609D02*
Y04615D01*
Y04601D02*
Y04608D01*
Y04595D02*
Y046D01*
Y04553D02*
Y04559D01*
Y04545D02*
Y04552D01*
Y04537D02*
Y04544D01*
Y04529D02*
Y04536D01*
Y04521D02*
Y04528D01*
Y04513D02*
Y0452D01*
Y04505D02*
Y04512D01*
Y04497D02*
Y04504D01*
Y04489D02*
Y04496D01*
Y04481D02*
Y04488D01*
Y04473D02*
Y0448D01*
Y04465D02*
Y04472D01*
Y04457D02*
Y04464D01*
Y04449D02*
Y04456D01*
Y04441D02*
Y04448D01*
Y04433D02*
Y0444D01*
Y04425D02*
Y04432D01*
Y04417D02*
Y04424D01*
Y04409D02*
Y04416D01*
Y04401D02*
Y04408D01*
Y04393D02*
Y044D01*
Y04385D02*
Y04392D01*
Y04377D02*
Y04384D01*
Y04369D02*
Y04376D01*
Y04361D02*
Y04368D01*
Y04353D02*
Y0436D01*
Y04345D02*
Y04352D01*
X017022Y0469D02*
Y04936D01*
Y04636D02*
Y04656D01*
Y0462D02*
Y04633D01*
Y04595D02*
Y04615D01*
Y04344D02*
Y04561D01*
X017012Y0469D02*
Y04936D01*
Y04636D02*
Y04656D01*
Y0462D02*
Y04632D01*
Y04595D02*
Y04615D01*
Y04344D02*
Y04561D01*
X017002Y0469D02*
Y04936D01*
Y04636D02*
Y04656D01*
Y04622D02*
Y04631D01*
Y04595D02*
Y04615D01*
Y04344D02*
Y04561D01*
X016992Y0469D02*
Y04936D01*
Y04636D02*
Y04656D01*
Y04623D02*
Y0463D01*
Y04595D02*
Y04616D01*
Y04344D02*
Y04561D01*
X016982Y0469D02*
Y04936D01*
Y04636D02*
Y04656D01*
Y04594D02*
Y04616D01*
Y04344D02*
Y0456D01*
X016972Y04691D02*
Y04936D01*
Y04635D02*
Y04656D01*
Y04594D02*
Y04616D01*
Y04344D02*
Y0456D01*
X016962Y04691D02*
Y04936D01*
Y04635D02*
Y04657D01*
Y04594D02*
Y04616D01*
Y04344D02*
Y0456D01*
X016952Y04929D02*
Y04935D01*
Y04921D02*
Y04928D01*
Y04913D02*
Y0492D01*
Y04905D02*
Y04912D01*
Y04897D02*
Y04904D01*
Y04889D02*
Y04896D01*
Y04881D02*
Y04888D01*
Y04873D02*
Y0488D01*
Y04865D02*
Y04872D01*
Y04857D02*
Y04864D01*
Y04849D02*
Y04856D01*
Y04841D02*
Y04848D01*
Y04833D02*
Y0484D01*
Y04825D02*
Y04832D01*
Y04817D02*
Y04824D01*
Y04809D02*
Y04816D01*
Y04801D02*
Y04808D01*
Y04793D02*
Y048D01*
Y04785D02*
Y04792D01*
Y04777D02*
Y04784D01*
Y04769D02*
Y04776D01*
Y04761D02*
Y04768D01*
Y04753D02*
Y0476D01*
Y04745D02*
Y04752D01*
Y04737D02*
Y04744D01*
Y04729D02*
Y04736D01*
Y04721D02*
Y04728D01*
Y04713D02*
Y0472D01*
Y04705D02*
Y04712D01*
Y04697D02*
Y04704D01*
Y04691D02*
Y04696D01*
Y04649D02*
Y04656D01*
Y04641D02*
Y04648D01*
Y04635D02*
Y0464D01*
Y04609D02*
Y04616D01*
Y04601D02*
Y04608D01*
Y04594D02*
Y046D01*
Y04553D02*
Y0456D01*
Y04545D02*
Y04552D01*
Y04537D02*
Y04544D01*
Y04529D02*
Y04536D01*
Y04521D02*
Y04528D01*
Y04513D02*
Y0452D01*
Y04505D02*
Y04512D01*
Y04497D02*
Y04504D01*
Y04489D02*
Y04496D01*
Y04481D02*
Y04488D01*
Y04473D02*
Y0448D01*
Y04465D02*
Y04472D01*
Y04457D02*
Y04464D01*
Y04449D02*
Y04456D01*
Y04441D02*
Y04448D01*
Y04433D02*
Y0444D01*
Y04425D02*
Y04432D01*
Y04417D02*
Y04424D01*
Y04409D02*
Y04416D01*
Y04401D02*
Y04408D01*
Y04393D02*
Y044D01*
Y04385D02*
Y04392D01*
Y04377D02*
Y04384D01*
Y04369D02*
Y04376D01*
Y04361D02*
Y04368D01*
Y04353D02*
Y0436D01*
Y04345D02*
Y04352D01*
X016942Y04691D02*
Y04935D01*
Y04635D02*
Y04657D01*
Y04594D02*
Y04616D01*
Y04345D02*
Y0456D01*
X016932Y04691D02*
Y04935D01*
Y04635D02*
Y04657D01*
Y04594D02*
Y04616D01*
Y04345D02*
Y0456D01*
X016922Y04691D02*
Y04935D01*
Y04635D02*
Y04657D01*
Y04594D02*
Y04616D01*
Y04345D02*
Y0456D01*
X016912Y04691D02*
Y04934D01*
Y04635D02*
Y04657D01*
Y04594D02*
Y04616D01*
Y04346D02*
Y0456D01*
X016902Y04691D02*
Y04934D01*
Y04635D02*
Y04657D01*
Y04594D02*
Y04616D01*
Y04346D02*
Y04559D01*
X016892Y04692D02*
Y04934D01*
Y04635D02*
Y04657D01*
Y04594D02*
Y04616D01*
Y04346D02*
Y04559D01*
X016882Y04692D02*
Y04933D01*
Y04635D02*
Y04657D01*
Y04594D02*
Y04617D01*
Y04347D02*
Y04559D01*
X016872Y04929D02*
Y04933D01*
Y04921D02*
Y04928D01*
Y04913D02*
Y0492D01*
Y04905D02*
Y04912D01*
Y04897D02*
Y04904D01*
Y04889D02*
Y04896D01*
Y04881D02*
Y04888D01*
Y04873D02*
Y0488D01*
Y04865D02*
Y04872D01*
Y04857D02*
Y04864D01*
Y04849D02*
Y04856D01*
Y04841D02*
Y04848D01*
Y04833D02*
Y0484D01*
Y04825D02*
Y04832D01*
Y04817D02*
Y04824D01*
Y04809D02*
Y04816D01*
Y04801D02*
Y04808D01*
Y04793D02*
Y048D01*
Y04785D02*
Y04792D01*
Y04777D02*
Y04784D01*
Y04769D02*
Y04776D01*
Y04761D02*
Y04768D01*
Y04753D02*
Y0476D01*
Y04745D02*
Y04752D01*
Y04737D02*
Y04744D01*
Y04729D02*
Y04736D01*
Y04721D02*
Y04728D01*
Y04713D02*
Y0472D01*
Y04705D02*
Y04712D01*
Y04697D02*
Y04704D01*
Y04692D02*
Y04696D01*
Y04649D02*
Y04656D01*
Y04641D02*
Y04648D01*
Y04635D02*
Y0464D01*
Y04609D02*
Y04616D01*
Y04601D02*
Y04608D01*
Y04593D02*
Y046D01*
Y04553D02*
Y04559D01*
Y04545D02*
Y04552D01*
Y04537D02*
Y04544D01*
Y04529D02*
Y04536D01*
Y04521D02*
Y04528D01*
Y04513D02*
Y0452D01*
Y04505D02*
Y04512D01*
Y04497D02*
Y04504D01*
Y04489D02*
Y04496D01*
Y04481D02*
Y04488D01*
Y04473D02*
Y0448D01*
Y04465D02*
Y04472D01*
Y04457D02*
Y04464D01*
Y04449D02*
Y04456D01*
Y04441D02*
Y04448D01*
Y04433D02*
Y0444D01*
Y04425D02*
Y04432D01*
Y04417D02*
Y04424D01*
Y04409D02*
Y04416D01*
Y04401D02*
Y04408D01*
Y04393D02*
Y044D01*
Y04385D02*
Y04392D01*
Y04377D02*
Y04384D01*
Y04369D02*
Y04376D01*
Y04361D02*
Y04368D01*
Y04353D02*
Y0436D01*
Y04347D02*
Y04352D01*
X016862Y04692D02*
Y04932D01*
Y04634D02*
Y04658D01*
Y04593D02*
Y04617D01*
Y04348D02*
Y04559D01*
X016852Y04692D02*
Y04932D01*
Y04634D02*
Y04658D01*
Y04593D02*
Y04617D01*
Y04348D02*
Y04559D01*
X016842Y04692D02*
Y04931D01*
Y04634D02*
Y04658D01*
Y04593D02*
Y04617D01*
Y04349D02*
Y04559D01*
X016832Y0435D02*
Y0493D01*
X016822Y04351D02*
Y04929D01*
X016812Y04352D02*
Y04928D01*
X016802Y04352D02*
Y04928D01*
X016792Y04921D02*
Y04926D01*
Y04913D02*
Y0492D01*
Y04905D02*
Y04912D01*
Y04897D02*
Y04904D01*
Y04889D02*
Y04896D01*
Y04881D02*
Y04888D01*
Y04873D02*
Y0488D01*
Y04865D02*
Y04872D01*
Y04857D02*
Y04864D01*
Y04849D02*
Y04856D01*
Y04841D02*
Y04848D01*
Y04833D02*
Y0484D01*
Y04825D02*
Y04832D01*
Y04817D02*
Y04824D01*
Y04809D02*
Y04816D01*
Y04801D02*
Y04808D01*
Y04793D02*
Y048D01*
Y04785D02*
Y04792D01*
Y04777D02*
Y04784D01*
Y04769D02*
Y04776D01*
Y04761D02*
Y04768D01*
Y04753D02*
Y0476D01*
Y04745D02*
Y04752D01*
Y04737D02*
Y04744D01*
Y04729D02*
Y04736D01*
Y04721D02*
Y04728D01*
Y04713D02*
Y0472D01*
Y04705D02*
Y04712D01*
Y04697D02*
Y04704D01*
Y04689D02*
Y04696D01*
Y04681D02*
Y04688D01*
Y04673D02*
Y0468D01*
Y04665D02*
Y04672D01*
Y04657D02*
Y04664D01*
Y04649D02*
Y04656D01*
Y04641D02*
Y04648D01*
Y04633D02*
Y0464D01*
Y04625D02*
Y04632D01*
Y04617D02*
Y04624D01*
Y04609D02*
Y04616D01*
Y04601D02*
Y04608D01*
Y04593D02*
Y046D01*
Y04585D02*
Y04592D01*
Y04577D02*
Y04584D01*
Y04569D02*
Y04576D01*
Y04561D02*
Y04568D01*
Y04553D02*
Y0456D01*
Y04545D02*
Y04552D01*
Y04537D02*
Y04544D01*
Y04529D02*
Y04536D01*
Y04521D02*
Y04528D01*
Y04513D02*
Y0452D01*
Y04505D02*
Y04512D01*
Y04497D02*
Y04504D01*
Y04489D02*
Y04496D01*
Y04481D02*
Y04488D01*
Y04473D02*
Y0448D01*
Y04465D02*
Y04472D01*
Y04457D02*
Y04464D01*
Y04449D02*
Y04456D01*
Y04441D02*
Y04448D01*
Y04433D02*
Y0444D01*
Y04425D02*
Y04432D01*
Y04417D02*
Y04424D01*
Y04409D02*
Y04416D01*
Y04401D02*
Y04408D01*
Y04393D02*
Y044D01*
Y04385D02*
Y04392D01*
Y04377D02*
Y04384D01*
Y04369D02*
Y04376D01*
Y04361D02*
Y04368D01*
Y04354D02*
Y0436D01*
X016782Y04355D02*
Y04925D01*
X016772Y04356D02*
Y04924D01*
X016762Y04358D02*
Y04922D01*
X016752Y04359D02*
Y04921D01*
X016742Y04361D02*
Y04919D01*
X016732Y04364D02*
Y04916D01*
X016722Y04368D02*
Y04912D01*
D18*
X02585Y05535D02*
Y05605D01*
Y05715D02*
Y05805D01*
Y05915D02*
Y05985D01*
X02135Y05915D02*
Y05985D01*
Y05715D02*
Y05805D01*
Y05535D02*
Y05605D01*
X0246Y0566D02*
Y0586D01*
X0226D02*
X0246D01*
X0226Y0566D02*
Y0586D01*
Y0566D02*
X0246D01*
X02135Y05535D02*
X02585D01*
X02135Y05985D02*
X02585D01*
Y03175D02*
Y03245D01*
Y03355D02*
Y03445D01*
Y03555D02*
Y03625D01*
X02135Y03555D02*
Y03625D01*
Y03355D02*
Y03445D01*
Y03175D02*
Y03245D01*
X0246Y033D02*
Y035D01*
X0226D02*
X0246D01*
X0226Y033D02*
Y035D01*
Y033D02*
X0246D01*
X02135Y03175D02*
X02585D01*
X02135Y03625D02*
X02585D01*
X04175Y03175D02*
Y03245D01*
Y03355D02*
Y03445D01*
Y03555D02*
Y03625D01*
X03725Y03555D02*
Y03625D01*
Y03355D02*
Y03445D01*
Y03175D02*
Y03245D01*
X0405Y033D02*
Y035D01*
X0385D02*
X0405D01*
X0385Y033D02*
Y035D01*
Y033D02*
X0405D01*
X03725Y03175D02*
X04175D01*
X03725Y03625D02*
X04175D01*
X0338Y03175D02*
Y03245D01*
Y03355D02*
Y03445D01*
Y03555D02*
Y03625D01*
X0293Y03555D02*
Y03625D01*
Y03355D02*
Y03445D01*
Y03175D02*
Y03245D01*
X03255Y033D02*
Y035D01*
X03055D02*
X03255D01*
X03055Y033D02*
Y035D01*
Y033D02*
X03255D01*
X0293Y03175D02*
X0338D01*
X0293Y03625D02*
X0338D01*
Y05535D02*
Y05605D01*
Y05715D02*
Y05805D01*
Y05915D02*
Y05985D01*
X0293Y05915D02*
Y05985D01*
Y05715D02*
Y05805D01*
Y05535D02*
Y05605D01*
X03255Y0566D02*
Y0586D01*
X03055D02*
X03255D01*
X03055Y0566D02*
Y0586D01*
Y0566D02*
X03255D01*
X0293Y05535D02*
X0338D01*
X0293Y05985D02*
X0338D01*
X04175Y05535D02*
Y05605D01*
Y05715D02*
Y05805D01*
Y05915D02*
Y05985D01*
X03725Y05915D02*
Y05985D01*
Y05715D02*
Y05805D01*
Y05535D02*
Y05605D01*
X0405Y0566D02*
Y0586D01*
X0385D02*
X0405D01*
X0385Y0566D02*
Y0586D01*
Y0566D02*
X0405D01*
X03725Y05535D02*
X04175D01*
X03725Y05985D02*
X04175D01*
X02585Y04735D02*
Y04805D01*
Y04915D02*
Y05005D01*
Y05115D02*
Y05185D01*
X02135Y05115D02*
Y05185D01*
Y04915D02*
Y05005D01*
Y04735D02*
Y04805D01*
X0246Y0486D02*
Y0506D01*
X0226D02*
X0246D01*
X0226Y0486D02*
Y0506D01*
Y0486D02*
X0246D01*
X02135Y04735D02*
X02585D01*
X02135Y05185D02*
X02585D01*
X0338Y04735D02*
Y04805D01*
Y04915D02*
Y05005D01*
Y05115D02*
Y05185D01*
X0293Y05115D02*
Y05185D01*
Y04915D02*
Y05005D01*
Y04735D02*
Y04805D01*
X03255Y0486D02*
Y0506D01*
X03055D02*
X03255D01*
X03055Y0486D02*
Y0506D01*
Y0486D02*
X03255D01*
X0293Y04735D02*
X0338D01*
X0293Y05185D02*
X0338D01*
X04175Y04735D02*
Y04805D01*
Y04915D02*
Y05005D01*
Y05115D02*
Y05185D01*
X03725Y05115D02*
Y05185D01*
Y04915D02*
Y05005D01*
Y04735D02*
Y04805D01*
X0405Y0486D02*
Y0506D01*
X0385D02*
X0405D01*
X0385Y0486D02*
Y0506D01*
Y0486D02*
X0405D01*
X03725Y04735D02*
X04175D01*
X03725Y05185D02*
X04175D01*
X0497Y04735D02*
Y04805D01*
Y04915D02*
Y05005D01*
Y05115D02*
Y05185D01*
X0452Y05115D02*
Y05185D01*
Y04915D02*
Y05005D01*
Y04735D02*
Y04805D01*
X04845Y0486D02*
Y0506D01*
X04645D02*
X04845D01*
X04645Y0486D02*
Y0506D01*
Y0486D02*
X04845D01*
X0452Y04735D02*
X0497D01*
X0452Y05185D02*
X0497D01*
X02585Y0395D02*
Y0402D01*
Y0413D02*
Y0422D01*
Y0433D02*
Y044D01*
X02135Y0433D02*
Y044D01*
Y0413D02*
Y0422D01*
Y0395D02*
Y0402D01*
X0246Y04075D02*
Y04275D01*
X0226D02*
X0246D01*
X0226Y04075D02*
Y04275D01*
Y04075D02*
X0246D01*
X02135Y0395D02*
X02585D01*
X02135Y044D02*
X02585D01*
X0338Y0395D02*
Y0402D01*
Y0413D02*
Y0422D01*
Y0433D02*
Y044D01*
X0293Y0433D02*
Y044D01*
Y0413D02*
Y0422D01*
Y0395D02*
Y0402D01*
X03255Y04075D02*
Y04275D01*
X03055D02*
X03255D01*
X03055Y04075D02*
Y04275D01*
Y04075D02*
X03255D01*
X0293Y0395D02*
X0338D01*
X0293Y044D02*
X0338D01*
X04175Y0395D02*
Y0402D01*
Y0413D02*
Y0422D01*
Y0433D02*
Y044D01*
X03725Y0433D02*
Y044D01*
Y0413D02*
Y0422D01*
Y0395D02*
Y0402D01*
X0405Y04075D02*
Y04275D01*
X0385D02*
X0405D01*
X0385Y04075D02*
Y04275D01*
Y04075D02*
X0405D01*
X03725Y0395D02*
X04175D01*
X03725Y044D02*
X04175D01*
X0497Y0395D02*
Y0402D01*
Y0413D02*
Y0422D01*
Y0433D02*
Y044D01*
X0452Y0433D02*
Y044D01*
Y0413D02*
Y0422D01*
Y0395D02*
Y0402D01*
X04845Y04075D02*
Y04275D01*
X04645D02*
X04845D01*
X04645Y04075D02*
Y04275D01*
Y04075D02*
X04845D01*
X0452Y0395D02*
X0497D01*
X0452Y044D02*
X0497D01*
Y03175D02*
Y03245D01*
Y03355D02*
Y03445D01*
Y03555D02*
Y03625D01*
X0452Y03555D02*
Y03625D01*
Y03355D02*
Y03445D01*
Y03175D02*
Y03245D01*
X04845Y033D02*
Y035D01*
X04645D02*
X04845D01*
X04645Y033D02*
Y035D01*
Y033D02*
X04845D01*
X0452Y03175D02*
X0497D01*
X0452Y03625D02*
X0497D01*
X0498Y0552D02*
Y0559D01*
Y057D02*
Y0579D01*
Y059D02*
Y0597D01*
X0453Y059D02*
Y0597D01*
Y057D02*
Y0579D01*
Y0552D02*
Y0559D01*
X04855Y05645D02*
Y05845D01*
X04655D02*
X04855D01*
X04655Y05645D02*
Y05845D01*
Y05645D02*
X04855D01*
X0453Y0552D02*
X0498D01*
X0453Y0597D02*
X0498D01*
D19*
X01845Y0507D02*
X01835Y0506D01*
Y0504D01*
X01845Y0503D01*
X01885D01*
X01895Y0504D01*
Y0506D01*
X01885Y0507D01*
X01845Y0509D02*
X01835Y051D01*
Y0512D01*
X01845Y0513D01*
X01855D01*
X01865Y0512D01*
Y0511D01*
Y0512D01*
X01875Y0513D01*
X01885D01*
X01895Y0512D01*
Y051D01*
X01885Y0509D01*
X0213Y0609D02*
X0212Y061D01*
X021D01*
X0209Y0609D01*
Y0605D01*
X021Y0604D01*
X0212D01*
X0213Y0605D01*
X0219Y061D02*
X0215D01*
Y0607D01*
X0217Y0608D01*
X0218D01*
X0219Y0607D01*
Y0605D01*
X0218Y0604D01*
X0216D01*
X0215Y0605D01*
X01915Y06055D02*
X01905Y06045D01*
Y06025D01*
X01915Y06015D01*
X01955D01*
X01965Y06025D01*
Y06045D01*
X01955Y06055D01*
X01965Y06115D02*
Y06075D01*
X01925Y06115D01*
X01915D01*
X01905Y06105D01*
Y06085D01*
X01915Y06075D01*
X0186Y0346D02*
X0185Y0345D01*
Y0343D01*
X0186Y0342D01*
X019D01*
X0191Y0343D01*
Y0345D01*
X019Y0346D01*
X0191Y0348D02*
Y035D01*
Y0349D01*
X0185D01*
X0186Y0348D01*
X01915Y06225D02*
X01965D01*
X01975Y06235D01*
Y06255D01*
X01965Y06265D01*
X01915D01*
X01975Y06285D02*
Y06305D01*
Y06295D01*
X01915D01*
X01925Y06285D01*
X04095Y0547D02*
X04085Y0548D01*
X04065D01*
X04055Y0547D01*
Y0546D01*
X04065Y0545D01*
X04085D01*
X04095Y0544D01*
Y0543D01*
X04085Y0542D01*
X04065D01*
X04055Y0543D01*
X04145Y0542D02*
Y0548D01*
X04115Y0545D01*
X04155D01*
X0334Y0389D02*
X0333Y039D01*
X0331D01*
X033Y0389D01*
Y0388D01*
X0331Y0387D01*
X0333D01*
X0334Y0386D01*
Y0385D01*
X0333Y0384D01*
X0331D01*
X033Y0385D01*
X0336D02*
X0337Y0384D01*
X0339D01*
X034Y0385D01*
Y0389D01*
X0339Y039D01*
X0337D01*
X0336Y0389D01*
Y0388D01*
X0337Y0387D01*
X034D01*
X0252Y0309D02*
X0251Y031D01*
X0249D01*
X0248Y0309D01*
Y0308D01*
X0249Y0307D01*
X0251D01*
X0252Y0306D01*
Y0305D01*
X0251Y0304D01*
X0249D01*
X0248Y0305D01*
X0258Y031D02*
X0256Y0309D01*
X0254Y0307D01*
Y0305D01*
X0255Y0304D01*
X0257D01*
X0258Y0305D01*
Y0306D01*
X0257Y0307D01*
X0254D01*
X04895Y03885D02*
X04885Y03895D01*
X04865D01*
X04855Y03885D01*
Y03875D01*
X04865Y03865D01*
X04885D01*
X04895Y03855D01*
Y03845D01*
X04885Y03835D01*
X04865D01*
X04855Y03845D01*
X04915Y03885D02*
X04925Y03895D01*
X04945D01*
X04955Y03885D01*
Y03875D01*
X04945Y03865D01*
X04955Y03855D01*
Y03845D01*
X04945Y03835D01*
X04925D01*
X04915Y03845D01*
Y03855D01*
X04925Y03865D01*
X04915Y03875D01*
Y03885D01*
X04925Y03865D02*
X04945D01*
X0253Y0459D02*
X0252Y046D01*
X025D01*
X0249Y0459D01*
Y0458D01*
X025Y0457D01*
X0252D01*
X0253Y0456D01*
Y0455D01*
X0252Y0454D01*
X025D01*
X0249Y0455D01*
X0255Y0454D02*
X0257D01*
X0256D01*
Y046D01*
X0255Y0459D01*
X04095Y0309D02*
X04085Y031D01*
X04065D01*
X04055Y0309D01*
Y0308D01*
X04065Y0307D01*
X04085D01*
X04095Y0306D01*
Y0305D01*
X04085Y0304D01*
X04065D01*
X04055Y0305D01*
X04115Y031D02*
X04155D01*
Y0309D01*
X04115Y0305D01*
Y0304D01*
X040706Y046734D02*
X040606Y046834D01*
X040406D01*
X040306Y046734D01*
Y046634D01*
X040406Y046534D01*
X040606D01*
X040706Y046434D01*
Y046334D01*
X040606Y046234D01*
X040406D01*
X040306Y046334D01*
X041306Y046234D02*
X040906D01*
X041306Y046634D01*
Y046734D01*
X041206Y046834D01*
X041006D01*
X040906Y046734D01*
X049159Y0547D02*
X049059Y0548D01*
X04886D01*
X04876Y0547D01*
Y0546D01*
X04886Y0545D01*
X049059D01*
X049159Y0544D01*
Y0543D01*
X049059Y0542D01*
X04886D01*
X04876Y0543D01*
X049359Y0547D02*
X049459Y0548D01*
X049659D01*
X049759Y0547D01*
Y0546D01*
X049659Y0545D01*
X049559D01*
X049659D01*
X049759Y0544D01*
Y0543D01*
X049659Y0542D01*
X049459D01*
X049359Y0543D01*
X03305Y05445D02*
X03295Y05455D01*
X03275D01*
X03265Y05445D01*
Y05435D01*
X03275Y05425D01*
X03295D01*
X03305Y05415D01*
Y05405D01*
X03295Y05395D01*
X03275D01*
X03265Y05405D01*
X03365Y05455D02*
X03325D01*
Y05425D01*
X03345Y05435D01*
X03355D01*
X03365Y05425D01*
Y05405D01*
X03355Y05395D01*
X03335D01*
X03325Y05405D01*
X03275Y03745D02*
Y03805D01*
X03305D01*
X03315Y03795D01*
Y03775D01*
X03305Y03765D01*
X03275D01*
X03295D02*
X03315Y03745D01*
X03335D02*
X03355D01*
X03345D01*
Y03805D01*
X03335Y03795D01*
X03385Y03805D02*
X03425D01*
Y03795D01*
X03385Y03755D01*
Y03745D01*
X032771Y0294D02*
Y03D01*
X03307D01*
X03317Y0299D01*
Y0297D01*
X03307Y0296D01*
X032771D01*
X03297D02*
X03317Y0294D01*
X03337D02*
X03357D01*
X03347D01*
Y03D01*
X03337Y0299D01*
X03427Y0294D02*
X03387D01*
X03427Y0298D01*
Y0299D01*
X03417Y03D01*
X03397D01*
X03387Y0299D01*
X024621Y02935D02*
Y02995D01*
X02492D01*
X02502Y02985D01*
Y02965D01*
X02492Y02955D01*
X024621D01*
X02482D02*
X02502Y02935D01*
X02522D02*
X02542D01*
X02532D01*
Y02995D01*
X02522Y02985D01*
X02572Y02935D02*
X02592D01*
X02582D01*
Y02995D01*
X02572Y02985D01*
X048421Y02935D02*
Y02995D01*
X04872D01*
X04882Y02985D01*
Y02965D01*
X04872Y02955D01*
X048421D01*
X04862D02*
X04882Y02935D01*
X04902D02*
X04922D01*
X04912D01*
Y02995D01*
X04902Y02985D01*
X04982Y02935D02*
Y02995D01*
X04952Y02965D01*
X04992D01*
X04072Y0532D02*
Y0538D01*
X04102D01*
X04112Y0537D01*
Y0535D01*
X04102Y0534D01*
X04072D01*
X04092D02*
X04112Y0532D01*
X04132Y0537D02*
X04142Y0538D01*
X04162D01*
X04172Y0537D01*
Y0536D01*
X04162Y0535D01*
X04172Y0534D01*
Y0533D01*
X04162Y0532D01*
X04142D01*
X04132Y0533D01*
Y0534D01*
X04142Y0535D01*
X04132Y0536D01*
Y0537D01*
X04142Y0535D02*
X04162D01*
X032694Y052953D02*
Y053553D01*
X032994D01*
X033094Y053453D01*
Y053253D01*
X032994Y053153D01*
X032694D01*
X032894D02*
X033094Y052953D01*
X033294Y053053D02*
X033394Y052953D01*
X033593D01*
X033693Y053053D01*
Y053453D01*
X033593Y053553D01*
X033394D01*
X033294Y053453D01*
Y053353D01*
X033394Y053253D01*
X033693D01*
X04042Y0453D02*
Y0459D01*
X04072D01*
X04082Y0458D01*
Y0456D01*
X04072Y0455D01*
X04042D01*
X04062D02*
X04082Y0453D01*
X04142Y0459D02*
X04102D01*
Y0456D01*
X04122Y0457D01*
X04132D01*
X04142Y0456D01*
Y0454D01*
X04132Y0453D01*
X04112D01*
X04102Y0454D01*
X03255Y04525D02*
Y04585D01*
X03285D01*
X03295Y04575D01*
Y04555D01*
X03285Y04545D01*
X03255D01*
X03275D02*
X03295Y04525D01*
X03345D02*
Y04585D01*
X03315Y04555D01*
X03355D01*
X02497Y0461D02*
Y0467D01*
X02527D01*
X02537Y0466D01*
Y0464D01*
X02527Y0463D01*
X02497D01*
X02517D02*
X02537Y0461D01*
X02557Y0466D02*
X02567Y0467D01*
X02587D01*
X02597Y0466D01*
Y0465D01*
X02587Y0464D01*
X02577D01*
X02587D01*
X02597Y0463D01*
Y0462D01*
X02587Y0461D01*
X02567D01*
X02557Y0462D01*
X0486Y0375D02*
Y0381D01*
X0489D01*
X049Y038D01*
Y0378D01*
X0489Y0377D01*
X0486D01*
X0488D02*
X049Y0375D01*
X0492D02*
X0494D01*
X0493D01*
Y0381D01*
X0492Y038D01*
X0501Y0381D02*
X0497D01*
Y0378D01*
X0499Y0379D01*
X05D01*
X0501Y0378D01*
Y0376D01*
X05Y0375D01*
X0498D01*
X0497Y0376D01*
X040671Y02935D02*
Y02995D01*
X04097D01*
X04107Y02985D01*
Y02965D01*
X04097Y02955D01*
X040671D01*
X04087D02*
X04107Y02935D01*
X04127D02*
X04147D01*
X04137D01*
Y02995D01*
X04127Y02985D01*
X04177D02*
X04187Y02995D01*
X04207D01*
X04217Y02985D01*
Y02975D01*
X04207Y02965D01*
X04197D01*
X04207D01*
X04217Y02955D01*
Y02945D01*
X04207Y02935D01*
X04187D01*
X04177Y02945D01*
X024971Y0373D02*
Y0379D01*
X02527D01*
X02537Y0378D01*
Y0376D01*
X02527Y0375D01*
X024971D01*
X02517D02*
X02537Y0373D01*
X02557D02*
X02577D01*
X02567D01*
Y0379D01*
X02557Y0378D01*
X02607D02*
X02617Y0379D01*
X02637D01*
X02647Y0378D01*
Y0377D01*
X02637Y0376D01*
X02647Y0375D01*
Y0374D01*
X02637Y0373D01*
X02617D01*
X02607Y0374D01*
Y0375D01*
X02617Y0376D01*
X02607Y0377D01*
Y0378D01*
X02617Y0376D02*
X02637D01*
X04915Y0533D02*
Y0539D01*
X04945D01*
X04955Y0538D01*
Y0536D01*
X04945Y0535D01*
X04915D01*
X04935D02*
X04955Y0533D01*
X04975Y0539D02*
X05015D01*
Y0538D01*
X04975Y0534D01*
Y0533D01*
X040621Y03745D02*
Y03805D01*
X04092D01*
X04102Y03795D01*
Y03775D01*
X04092Y03765D01*
X040621D01*
X04082D02*
X04102Y03745D01*
X04122D02*
X04142D01*
X04132D01*
Y03805D01*
X04122Y03795D01*
X04212Y03805D02*
X04192Y03795D01*
X04172Y03775D01*
Y03755D01*
X04182Y03745D01*
X04202D01*
X04212Y03755D01*
Y03765D01*
X04202Y03775D01*
X04172D01*
X024871Y05315D02*
Y05375D01*
X02517D01*
X02527Y05365D01*
Y05345D01*
X02517Y05335D01*
X024871D01*
X02507D02*
X02527Y05315D01*
X02547D02*
X02567D01*
X02557D01*
Y05375D01*
X02547Y05365D01*
X02597D02*
X02607Y05375D01*
X02627D01*
X02637Y05365D01*
Y05325D01*
X02627Y05315D01*
X02607D01*
X02597Y05325D01*
Y05365D01*
X0486Y04525D02*
Y04585D01*
X0489D01*
X049Y04575D01*
Y04555D01*
X0489Y04545D01*
X0486D01*
X0488D02*
X049Y04525D01*
X0496Y04585D02*
X0494Y04575D01*
X0492Y04555D01*
Y04535D01*
X0493Y04525D01*
X0495D01*
X0496Y04535D01*
Y04545D01*
X0495Y04555D01*
X0492D01*
X017677Y04091D02*
X017877D01*
X017777D01*
Y04031D01*
X017677D01*
X017877D01*
X018577Y04081D02*
X018477Y04091D01*
X018277D01*
X018177Y04081D01*
Y04041D01*
X018277Y04031D01*
X018477D01*
X018577Y04041D01*
X019177Y04031D02*
X018777D01*
X019177Y04071D01*
Y04081D01*
X019077Y04091D01*
X018877D01*
X018777Y04081D01*
X017393Y05676D02*
X017593D01*
X017493D01*
Y05616D01*
X017393D01*
X017593D01*
X018293Y05666D02*
X018193Y05676D01*
X017993D01*
X017893Y05666D01*
Y05626D01*
X017993Y05616D01*
X018193D01*
X018293Y05626D01*
X018493Y05616D02*
X018693D01*
X018593D01*
Y05676D01*
X018493Y05666D01*
X032568Y04687D02*
Y04627D01*
X032868D01*
X032968Y04637D01*
Y04677D01*
X032868Y04687D01*
X032568D01*
X033168Y04627D02*
X033368D01*
X033268D01*
Y04687D01*
X033168Y04677D01*
X0327Y0311D02*
Y0305D01*
X033D01*
X0331Y0306D01*
Y031D01*
X033Y0311D01*
X0327D01*
X0336Y0305D02*
Y0311D01*
X0333Y0308D01*
X0337D01*
X04855Y0469D02*
Y0463D01*
X04885D01*
X04895Y0464D01*
Y0468D01*
X04885Y0469D01*
X04855D01*
X04955Y0463D02*
X04915D01*
X04955Y0467D01*
Y0468D01*
X04945Y0469D01*
X04925D01*
X04915Y0468D01*
X04855Y03095D02*
Y03035D01*
X04885D01*
X04895Y03045D01*
Y03085D01*
X04885Y03095D01*
X04855D01*
X04955D02*
X04915D01*
Y03065D01*
X04935Y03075D01*
X04945D01*
X04955Y03065D01*
Y03045D01*
X04945Y03035D01*
X04925D01*
X04915Y03045D01*
X02485Y0546D02*
Y054D01*
X02515D01*
X02525Y0541D01*
Y0545D01*
X02515Y0546D01*
X02485D01*
X02545Y0545D02*
X02555Y0546D01*
X02575D01*
X02585Y0545D01*
Y0544D01*
X02575Y0543D01*
X02565D01*
X02575D01*
X02585Y0542D01*
Y0541D01*
X02575Y054D01*
X02555D01*
X02545Y0541D01*
X0406Y03895D02*
Y03835D01*
X0409D01*
X041Y03845D01*
Y03885D01*
X0409Y03895D01*
X0406D01*
X0416D02*
X0414Y03885D01*
X0412Y03865D01*
Y03845D01*
X0413Y03835D01*
X0415D01*
X0416Y03845D01*
Y03855D01*
X0415Y03865D01*
X0412D01*
X02495Y03895D02*
Y03835D01*
X02525D01*
X02535Y03845D01*
Y03885D01*
X02525Y03895D01*
X02495D01*
X02555D02*
X02595D01*
Y03885D01*
X02555Y03845D01*
Y03835D01*
X02005Y037D02*
X01995Y0371D01*
X01975D01*
X01965Y037D01*
Y0369D01*
X01975Y0368D01*
X01995D01*
X02005Y0367D01*
Y0366D01*
X01995Y0365D01*
X01975D01*
X01965Y0366D01*
X02025Y0371D02*
Y0365D01*
X02045Y0367D01*
X02065Y0365D01*
Y0371D01*
X02085Y0365D02*
X02105D01*
X02095D01*
Y0371D01*
X02085Y037D01*
X02175Y0371D02*
X02155Y037D01*
X02135Y0368D01*
Y0366D01*
X02145Y0365D01*
X02165D01*
X02175Y0366D01*
Y0367D01*
X02165Y0368D01*
X02135D01*
X02895Y03735D02*
X02885Y03745D01*
X02865D01*
X02855Y03735D01*
Y03725D01*
X02865Y03715D01*
X02885D01*
X02895Y03705D01*
Y03695D01*
X02885Y03685D01*
X02865D01*
X02855Y03695D01*
X02915Y03745D02*
Y03685D01*
X02935Y03705D01*
X02955Y03685D01*
Y03745D01*
X02975Y03685D02*
X02995D01*
X02985D01*
Y03745D01*
X02975Y03735D01*
X03065Y03745D02*
X03025D01*
Y03715D01*
X03045Y03725D01*
X03055D01*
X03065Y03715D01*
Y03695D01*
X03055Y03685D01*
X03035D01*
X03025Y03695D01*
X03675Y03735D02*
X03665Y03745D01*
X03645D01*
X03635Y03735D01*
Y03725D01*
X03645Y03715D01*
X03665D01*
X03675Y03705D01*
Y03695D01*
X03665Y03685D01*
X03645D01*
X03635Y03695D01*
X03695Y03745D02*
Y03685D01*
X03715Y03705D01*
X03735Y03685D01*
Y03745D01*
X03755Y03685D02*
X03775D01*
X03765D01*
Y03745D01*
X03755Y03735D01*
X03835Y03685D02*
Y03745D01*
X03805Y03715D01*
X03845D01*
X04443Y03746D02*
X04433Y03756D01*
X04413D01*
X04403Y03746D01*
Y03736D01*
X04413Y03726D01*
X04433D01*
X04443Y03716D01*
Y03706D01*
X04433Y03696D01*
X04413D01*
X04403Y03706D01*
X04463Y03756D02*
Y03696D01*
X04483Y03716D01*
X04503Y03696D01*
Y03756D01*
X04523Y03696D02*
X04543D01*
X04533D01*
Y03756D01*
X04523Y03746D01*
X045729D02*
X045829Y03756D01*
X046029D01*
X046129Y03746D01*
Y03736D01*
X046029Y03726D01*
X045929D01*
X046029D01*
X046129Y03716D01*
Y03706D01*
X046029Y03696D01*
X045829D01*
X045729Y03706D01*
X02058Y04521D02*
X02048Y04531D01*
X02028D01*
X02018Y04521D01*
Y04511D01*
X02028Y04501D01*
X02048D01*
X02058Y04491D01*
Y04481D01*
X02048Y04471D01*
X02028D01*
X02018Y04481D01*
X02078Y04531D02*
Y04471D01*
X02098Y04491D01*
X02118Y04471D01*
Y04531D01*
X02138Y04471D02*
X02158D01*
X02148D01*
Y04531D01*
X02138Y04521D01*
X022279Y04471D02*
X021879D01*
X022279Y04511D01*
Y04521D01*
X022179Y04531D01*
X021979D01*
X021879Y04521D01*
X02853D02*
X02843Y04531D01*
X02823D01*
X02813Y04521D01*
Y04511D01*
X02823Y04501D01*
X02843D01*
X02853Y04491D01*
Y04481D01*
X02843Y04471D01*
X02823D01*
X02813Y04481D01*
X02873Y04531D02*
Y04471D01*
X02893Y04491D01*
X02913Y04471D01*
Y04531D01*
X02933Y04471D02*
X02953D01*
X02943D01*
Y04531D01*
X02933Y04521D01*
X029829Y04471D02*
X030029D01*
X029929D01*
Y04531D01*
X029829Y04521D01*
X03648D02*
X03638Y04531D01*
X03618D01*
X03608Y04521D01*
Y04511D01*
X03618Y04501D01*
X03638D01*
X03648Y04491D01*
Y04481D01*
X03638Y04471D01*
X03618D01*
X03608Y04481D01*
X03668Y04531D02*
Y04471D01*
X03688Y04491D01*
X03708Y04471D01*
Y04531D01*
X03728Y04471D02*
X03748D01*
X03738D01*
Y04531D01*
X03728Y04521D01*
X037779D02*
X037879Y04531D01*
X038079D01*
X038179Y04521D01*
Y04481D01*
X038079Y04471D01*
X037879D01*
X037779Y04481D01*
Y04521D01*
X04443D02*
X04433Y04531D01*
X04413D01*
X04403Y04521D01*
Y04511D01*
X04413Y04501D01*
X04433D01*
X04443Y04491D01*
Y04481D01*
X04433Y04471D01*
X04413D01*
X04403Y04481D01*
X04463Y04531D02*
Y04471D01*
X04483Y04491D01*
X04503Y04471D01*
Y04531D01*
X04523Y04481D02*
X04533Y04471D01*
X04553D01*
X045629Y04481D01*
Y04521D01*
X04553Y04531D01*
X04533D01*
X04523Y04521D01*
Y04511D01*
X04533Y04501D01*
X045629D01*
X02058Y05306D02*
X02048Y05316D01*
X02028D01*
X02018Y05306D01*
Y05296D01*
X02028Y05286D01*
X02048D01*
X02058Y05276D01*
Y05266D01*
X02048Y05256D01*
X02028D01*
X02018Y05266D01*
X02078Y05316D02*
Y05256D01*
X02098Y05276D01*
X02118Y05256D01*
Y05316D01*
X02138Y05306D02*
X02148Y05316D01*
X02168D01*
X021779Y05306D01*
Y05296D01*
X02168Y05286D01*
X021779Y05276D01*
Y05266D01*
X02168Y05256D01*
X02148D01*
X02138Y05266D01*
Y05276D01*
X02148Y05286D01*
X02138Y05296D01*
Y05306D01*
X02148Y05286D02*
X02168D01*
X02853Y05306D02*
X02843Y05316D01*
X02823D01*
X02813Y05306D01*
Y05296D01*
X02823Y05286D01*
X02843D01*
X02853Y05276D01*
Y05266D01*
X02843Y05256D01*
X02823D01*
X02813Y05266D01*
X02873Y05316D02*
Y05256D01*
X02893Y05276D01*
X02913Y05256D01*
Y05316D01*
X02933D02*
X029729D01*
Y05306D01*
X02933Y05266D01*
Y05256D01*
X03648Y05306D02*
X03638Y05316D01*
X03618D01*
X03608Y05306D01*
Y05296D01*
X03618Y05286D01*
X03638D01*
X03648Y05276D01*
Y05266D01*
X03638Y05256D01*
X03618D01*
X03608Y05266D01*
X03668Y05316D02*
Y05256D01*
X03688Y05276D01*
X03708Y05256D01*
Y05316D01*
X037679D02*
X03748Y05306D01*
X03728Y05286D01*
Y05266D01*
X03738Y05256D01*
X03758D01*
X037679Y05266D01*
Y05276D01*
X03758Y05286D01*
X03728D01*
X04443Y05306D02*
X04433Y05316D01*
X04413D01*
X04403Y05306D01*
Y05296D01*
X04413Y05286D01*
X04433D01*
X04443Y05276D01*
Y05266D01*
X04433Y05256D01*
X04413D01*
X04403Y05266D01*
X04463Y05316D02*
Y05256D01*
X04483Y05276D01*
X04503Y05256D01*
Y05316D01*
X045629D02*
X04523D01*
Y05286D01*
X04543Y05296D01*
X04553D01*
X045629Y05286D01*
Y05266D01*
X04553Y05256D01*
X04533D01*
X04523Y05266D01*
X02275Y0594D02*
X02265Y0595D01*
X02245D01*
X02235Y0594D01*
Y0593D01*
X02245Y0592D01*
X02265D01*
X02275Y0591D01*
Y059D01*
X02265Y0589D01*
X02245D01*
X02235Y059D01*
X02295Y0595D02*
Y0589D01*
X02315Y0591D01*
X02335Y0589D01*
Y0595D01*
X02385Y0589D02*
Y0595D01*
X02355Y0592D01*
X02395D01*
X02853Y06106D02*
X02843Y06116D01*
X02823D01*
X02813Y06106D01*
Y06096D01*
X02823Y06086D01*
X02843D01*
X02853Y06076D01*
Y06066D01*
X02843Y06056D01*
X02823D01*
X02813Y06066D01*
X02873Y06116D02*
Y06056D01*
X02893Y06076D01*
X02913Y06056D01*
Y06116D01*
X02933Y06106D02*
X02943Y06116D01*
X02963D01*
X029729Y06106D01*
Y06096D01*
X02963Y06086D01*
X02953D01*
X02963D01*
X029729Y06076D01*
Y06066D01*
X02963Y06056D01*
X02943D01*
X02933Y06066D01*
X03648Y06106D02*
X03638Y06116D01*
X03618D01*
X03608Y06106D01*
Y06096D01*
X03618Y06086D01*
X03638D01*
X03648Y06076D01*
Y06066D01*
X03638Y06056D01*
X03618D01*
X03608Y06066D01*
X03668Y06116D02*
Y06056D01*
X03688Y06076D01*
X03708Y06056D01*
Y06116D01*
X037679Y06056D02*
X03728D01*
X037679Y06096D01*
Y06106D01*
X03758Y06116D01*
X03738D01*
X03728Y06106D01*
X04453Y06091D02*
X04443Y06101D01*
X04423D01*
X04413Y06091D01*
Y06081D01*
X04423Y06071D01*
X04443D01*
X04453Y06061D01*
Y06051D01*
X04443Y06041D01*
X04423D01*
X04413Y06051D01*
X04473Y06101D02*
Y06041D01*
X04493Y06061D01*
X04513Y06041D01*
Y06101D01*
X04533Y06041D02*
X04553D01*
X04543D01*
Y06101D01*
X04533Y06091D01*
D20*
X023605Y05757D02*
D03*
Y03397D02*
D03*
X039505D02*
D03*
X031555D02*
D03*
Y05757D02*
D03*
X039505D02*
D03*
X023605Y04957D02*
D03*
X031555D02*
D03*
X039505D02*
D03*
X047455D02*
D03*
X023605Y04172D02*
D03*
X031555D02*
D03*
X039505D02*
D03*
X047455D02*
D03*
Y03397D02*
D03*
X047555Y05742D02*
D03*
M02*
