G04*
G04 #@! TF.GenerationSoftware,Altium Limited,Altium Designer,20.0.13 (296)*
G04*
G04 Layer_Color=32896*
%FSTAX24Y24*%
%MOIN*%
G70*
G01*
G75*
%ADD13C,0.0079*%
%ADD14C,0.0050*%
%ADD16C,0.0039*%
%ADD19C,0.0100*%
D13*
X04308Y061807D02*
X04312D01*
X04308Y061493D02*
X04312D01*
D14*
X04375Y06135D02*
Y06195D01*
X04245Y06135D02*
Y06195D01*
Y06135D02*
X04375D01*
X04245Y06195D02*
X04375D01*
X038893Y064764D02*
Y0663D01*
X032396D02*
X038893D01*
X032396Y064764D02*
Y0663D01*
Y060099D02*
X038893D01*
Y062166D01*
X032396Y060099D02*
Y062166D01*
X031448Y064764D02*
Y0663D01*
X024952D02*
X031448D01*
X024952Y064764D02*
Y0663D01*
Y060099D02*
X031448D01*
Y062166D01*
X024952Y060099D02*
Y062166D01*
X046548Y064764D02*
Y0663D01*
X040052D02*
X046548D01*
X040052Y064764D02*
Y0663D01*
Y060099D02*
X046548D01*
Y062166D01*
X040052Y060099D02*
Y062166D01*
D16*
X0311Y05835D02*
Y05895D01*
X0303Y05835D02*
X0311D01*
X0299D02*
X0303D01*
X0299D02*
Y05895D01*
X0311D01*
X03065Y05845D02*
Y05885D01*
X03035Y05845D02*
X03065D01*
X03035D02*
Y05885D01*
X03065D01*
X0462Y0579D02*
Y0585D01*
X0454Y0579D02*
X0462D01*
X045D02*
X0454D01*
X045D02*
Y0585D01*
X0462D01*
X04575Y058D02*
Y0584D01*
X04545Y058D02*
X04575D01*
X04545D02*
Y0584D01*
X04575D01*
X0253Y05835D02*
Y05895D01*
X0261D01*
X0265D01*
Y05835D02*
Y05895D01*
X0253Y05835D02*
X0265D01*
X02575Y05845D02*
Y05885D01*
X02605D01*
Y05845D02*
Y05885D01*
X02575Y05845D02*
X02605D01*
X04165Y05815D02*
Y05875D01*
X04085Y05815D02*
X04165D01*
X04045D02*
X04085D01*
X04045D02*
Y05875D01*
X04165D01*
X0412Y05825D02*
Y05865D01*
X0409Y05825D02*
X0412D01*
X0409D02*
Y05865D01*
X0412D01*
X0386Y05835D02*
Y05895D01*
X0378Y05835D02*
X0386D01*
X0374D02*
X0378D01*
X0374D02*
Y05895D01*
X0386D01*
X03815Y05845D02*
Y05885D01*
X03785Y05845D02*
X03815D01*
X03785D02*
Y05885D01*
X03815D01*
X032819Y05835D02*
Y05895D01*
X033619D01*
X034019D01*
Y05835D02*
Y05895D01*
X032819Y05835D02*
X034019D01*
X033269Y05845D02*
Y05885D01*
X033569D01*
Y05845D02*
Y05885D01*
X033269Y05845D02*
X033569D01*
D19*
X03158Y05927D02*
Y05987D01*
X03128D01*
X03118Y05977D01*
Y05957D01*
X03128Y05947D01*
X03158D01*
X03138D02*
X03118Y05927D01*
X03058D02*
X03098D01*
X03058Y05967D01*
Y05977D01*
X03068Y05987D01*
X03088D01*
X03098Y05977D01*
X029981Y05927D02*
X03038D01*
X029981Y05967D01*
Y05977D01*
X03008Y05987D01*
X03028D01*
X03038Y05977D01*
X04668Y05882D02*
Y05942D01*
X04638D01*
X04628Y05932D01*
Y05912D01*
X04638Y05902D01*
X04668D01*
X04648D02*
X04628Y05882D01*
X04568D02*
X04608D01*
X04568Y05922D01*
Y05932D01*
X04578Y05942D01*
X04598D01*
X04608Y05932D01*
X04548D02*
X04538Y05942D01*
X04518D01*
X045081Y05932D01*
Y05892D01*
X04518Y05882D01*
X04538D01*
X04548Y05892D01*
Y05932D01*
X02688Y05927D02*
Y05987D01*
X02658D01*
X02648Y05977D01*
Y05957D01*
X02658Y05947D01*
X02688D01*
X02668D02*
X02648Y05927D01*
X02628D02*
X02608D01*
X02618D01*
Y05987D01*
X02628Y05977D01*
X02578Y05937D02*
X02568Y05927D01*
X02548D01*
X02538Y05937D01*
Y05977D01*
X02548Y05987D01*
X02568D01*
X02578Y05977D01*
Y05967D01*
X02568Y05957D01*
X02538D01*
X04193Y05907D02*
Y05967D01*
X04163D01*
X04153Y05957D01*
Y05937D01*
X04163Y05927D01*
X04193D01*
X04173D02*
X04153Y05907D01*
X04093D02*
X04133D01*
X04093Y05947D01*
Y05957D01*
X04103Y05967D01*
X04123D01*
X04133Y05957D01*
X04073Y05907D02*
X04053D01*
X04063D01*
Y05967D01*
X04073Y05957D01*
X04457Y06128D02*
X04467Y06118D01*
Y06098D01*
X04457Y06088D01*
X04417D01*
X04407Y06098D01*
Y06118D01*
X04417Y06128D01*
X04407Y06178D02*
X04467D01*
X04437Y06148D01*
Y06188D01*
X040284Y065729D02*
Y065529D01*
Y065629D01*
X039784D01*
X039684Y065529D01*
Y065429D01*
X039784Y065329D01*
X039684Y065929D02*
Y066129D01*
Y066029D01*
X040284D01*
X040184Y065929D01*
X033899Y05927D02*
Y05987D01*
X033599D01*
X033499Y05977D01*
Y05957D01*
X033599Y05947D01*
X033899D01*
X033699D02*
X033499Y05927D01*
X0329D02*
X033299D01*
X0329Y05967D01*
Y05977D01*
X033Y05987D01*
X0332D01*
X033299Y05977D01*
X03828Y05927D02*
Y05987D01*
X03798D01*
X03788Y05977D01*
Y05957D01*
X03798Y05947D01*
X03828D01*
X03808D02*
X03788Y05927D01*
X03768D02*
X03748D01*
X03758D01*
Y05987D01*
X03768Y05977D01*
X04651Y067229D02*
X04671D01*
X04661D01*
Y066729D01*
X04671Y066629D01*
X04681D01*
X04691Y066729D01*
X04631Y067129D02*
X04621Y067229D01*
X04601D01*
X04591Y067129D01*
Y067029D01*
X04601Y066929D01*
X04611D01*
X04601D01*
X04591Y066829D01*
Y066729D01*
X04601Y066629D01*
X04621D01*
X04631Y066729D01*
X03284Y065629D02*
Y065429D01*
Y065529D01*
X03234D01*
X03224Y065429D01*
Y065329D01*
X03234Y065229D01*
X03224Y066229D02*
Y065829D01*
X03264Y066229D01*
X03274D01*
X03284Y066129D01*
Y065929D01*
X03274Y065829D01*
M02*
