M48
;Layer_Color=9474304
;FILE_FORMAT=2:4
INCH,LZ
;TYPE=PLATED
T1F00S00C0.0280
T2F00S00C0.0310
T3F00S00C0.0320
T4F00S00C0.0350
T5F00S00C0.0400
T6F00S00C0.0429
T7F00S00C0.0450
T8F00S00C0.1252
T9F00S00C0.1575
%
T01
X064961Y030709
X072047
X074409
X048425
X047244Y028346
X044882
X02415Y03015
Y0311
X015354Y030709
X011811Y028346
Y033071
X0125Y0346
Y03575
X0131Y0355
X0136Y03585
X01375Y03455
X0151Y0348
X015062Y033662
X01505Y0362
X01585Y03575
X0159Y0349
Y03365
X0171Y03615
X02535Y0376
X024803Y040157
X02705Y04
X02915Y03995
X0296Y03175
X0263Y0318
X0331Y0319
X03575Y0316
X0378Y0318
X0404Y03165
X04252Y037795
X04245Y03955
X0429Y0394
X04345Y0389
X044882Y037795
Y04252
X0453Y0438
X043701Y044882
X04195Y04675
X0377Y0399
X03495
X03205Y0398
X05305Y04055
X05395Y0421
X0548Y04475
X05705
X058Y0427
X059055Y04252
X05865Y0403
X0578Y03975
X056462Y040163
X0557Y03965
X05895Y03845
X05905Y0348
X0599
X060768
X0617
X0618Y04445
X0623Y0452
X06105Y04515
X0601
X0527Y03635
X0519Y03475
X05095Y0348
X05
X049
X0634
X0643
X065025Y034825
X066Y0348
X06725Y03775
X066142Y04252
X06378
X07155Y04285
Y04205
Y0447
X0733Y04585
X076772Y040157
Y035433
X0715Y0354
X070866Y047244
X068504
X066142
X06378
X064961Y049606
X067323
X069685
X072047
X074409
X076772
X075591Y051969
X073228
X070866
X068504
X066142
X06378
X064961Y054331
X067323
X069685
X072047
X074409
X076772
X075591Y056693
X073228
X070866
X068504
X066142
X06378
X064961Y059055
X067323
X069685
X072047
X074409
X076772
X075591Y061417
X073228
X070866
X068504
X066142
X06378
X062598Y059055
Y054331
X061417Y056693
Y061417
X059055
X056693
X054331
X051969
X049606
X047244
X049606Y056693
X050787Y054331
X049606Y051969
X051969
X05315Y049606
X050787
X048425
X047244Y051969
X049606Y047244
X051969
X05345Y0473
X05535Y0474
X05815Y04735
X057874Y049606
Y054331
X056693Y056693
X057874Y059055
X061417Y051969
X0623Y04865
X044882Y047244
X0425Y04705
X042Y04745
X041339Y049606
X043701
X044882Y051969
X046063Y054331
X043701
X041339
X038976Y049606
X036614
X034252
X03189
X033071Y061417
X035433
X037795
X040157
X04252
X044882
X030709
X025984
X023622
X02126
X021477Y059707
X0214Y056
X018898Y061417
X016535
X025984Y051969
X024803Y049606
X029528
X015354
X014173Y051969
X015354Y054331
X014173Y056693
X015354Y059055
X014173Y047244
X0132Y0636
X01255Y0643
X017717Y06378
X020079
X022441
X024803
X02735Y0641
X0276Y0633
X0297Y06325
X0308
X03015Y0641
X02905
X030709Y066142
X02285Y0659
Y06695
X02175
X0217Y0658
X018898Y066142
X016535
X033071
X037795
X040157
X04252
X044882
X046063Y06378
X043701
X038976
X036614
X048425
X050787
X05315
X055512
X057874
X056693Y066142
X054331
X051969
X049606
X047244
X061417
X060236Y068504
X062598
X064961
X067323
X069685
X072047
X074409
X073228Y066142
X070866
X068504
X066142
X06378
X064961Y06378
X067323
X069685
X072047
X074409
X076772
X062598
T02
X0267Y03465
X0277
X02965
X03065
Y03765
X02965
X0277
X0267
X02675Y04235
X02775
X02955
X03055
Y04535
X02955
X02775
X02675
X03245Y0454
X03345
X03535
X03635
X0381
X0391
Y0424
X0381
X03635
X03535
X03345
X03245
X0326Y0376
X0336
X0354
X0364
X0381
X0391
X0408
X0418
Y0346
X0408
X0391
X0381
X0364
X0354
X0336
X0326
T03
X0356Y0519
Y0529
Y0539
T04
X062694Y049938
X039433Y06671
T05
X0165Y04
Y041
Y042
Y043
Y044
Y045
Y046
X0175
Y045
Y044
Y043
Y042
Y041
Y04
X0446Y0341
Y0331
Y0321
X0752Y0421
Y0431
Y0441
Y0451
X0762
Y0461
X0752
X0762Y0441
Y0431
Y0421
Y0471
Y0481
X0752
Y0471
X0175Y047
Y048
Y049
Y05
Y051
Y052
Y053
Y054
X0165
Y053
Y052
Y051
Y05
Y049
Y048
Y047
X0165Y055
X0165Y056
X0175
X0175Y055
X0175Y057
X0165
X0165Y058
X0175Y058
X0175Y059
X0165
T06
X062772Y028124
X063862
X064953
X066043
X067134
X068224
X069315
X070406
X071496
X072041Y029242
X070951
X06986
X06877
X067679
X066589
X065498
X064407
X063316
X062226
X061136
X060045
X058955Y029242
X057864
X056774
X055683
X054593
X053502
X052411Y029242
X052957Y028124
X054047
X055138
X056228
X057319
X058409
X0595
X060591Y028124
X061681
X039922Y028131
X038831
X037741
X03665
X035559
X034469
X033378
X033924Y029249
X032833
X035014
X036105
X037195
X038286
X039376
X040462Y029251
X024179
X023093Y029249
X022003
X020912
X019822
X018731
X017641
X01655
X017095Y028131
X018186
X019276
X020367
X021457
X022548
X023639
T07
X04125Y05105
X04025Y05345
X04125Y05585
X04605
Y05105
T08
X074747Y028673
X049668Y02868
X043209Y02869
X030091
X026926
X013808
T09
X076363Y0312
X012587
Y0671
X076363Y06705
M30
