G04*
G04 #@! TF.GenerationSoftware,Altium Limited,Altium Designer,20.0.13 (296)*
G04*
G04 Layer_Color=8421504*
%FSTAX24Y24*%
%MOIN*%
G70*
G01*
G75*
%ADD23R,0.0433X0.0472*%
%ADD24R,0.0472X0.0433*%
%ADD25R,0.0433X0.0315*%
%ADD26R,0.0315X0.0433*%
%ADD27R,0.0433X0.0550*%
%ADD28R,0.0550X0.0394*%
%ADD29R,0.0550X0.0433*%
%ADD30O,0.0217X0.0787*%
%ADD31O,0.0217X0.0709*%
%ADD32R,0.0984X0.1024*%
%ADD33R,0.0945X0.0394*%
%ADD34R,0.0945X0.1299*%
%ADD35O,0.0591X0.1400*%
%ADD36R,0.0591X0.1400*%
%ADD37R,0.0550X0.0500*%
%ADD38R,0.0500X0.0550*%
%ADD39R,0.0591X0.0512*%
%ADD40R,0.1400X0.0591*%
%ADD41O,0.1400X0.0591*%
%ADD42R,0.1024X0.0984*%
D23*
X058Y04095D02*
D03*
Y04165D02*
D03*
X04735Y04555D02*
D03*
Y04625D02*
D03*
X0534Y03885D02*
D03*
Y03815D02*
D03*
X0293Y0656D02*
D03*
Y0649D02*
D03*
X02325Y06505D02*
D03*
Y06575D02*
D03*
D24*
X05415Y04475D02*
D03*
X05345D02*
D03*
X0589Y0448D02*
D03*
X0582D02*
D03*
X05625Y0447D02*
D03*
X05555D02*
D03*
X0616Y04345D02*
D03*
X0623D02*
D03*
X06155Y0477D02*
D03*
X06225D02*
D03*
X06155Y04595D02*
D03*
X06225D02*
D03*
Y0467D02*
D03*
X06155D02*
D03*
X05195Y04165D02*
D03*
X05265D02*
D03*
X06725Y0385D02*
D03*
X06655D02*
D03*
D25*
X0581Y0455D02*
D03*
Y0463D02*
D03*
X05885Y0455D02*
D03*
Y0463D02*
D03*
X05545Y0455D02*
D03*
Y0463D02*
D03*
X0562Y0455D02*
D03*
Y0463D02*
D03*
X05345Y0455D02*
D03*
Y0463D02*
D03*
X05415Y0455D02*
D03*
Y0463D02*
D03*
X04645Y0455D02*
D03*
Y0463D02*
D03*
X06595Y0369D02*
D03*
Y0361D02*
D03*
X06505Y0369D02*
D03*
Y0361D02*
D03*
X06415Y0369D02*
D03*
Y0361D02*
D03*
X06335Y0369D02*
D03*
Y0361D02*
D03*
X04905Y0374D02*
D03*
Y0366D02*
D03*
X04995Y0374D02*
D03*
Y0366D02*
D03*
X05185Y0374D02*
D03*
Y0366D02*
D03*
X05095Y0374D02*
D03*
Y0366D02*
D03*
X0408Y0393D02*
D03*
Y0385D02*
D03*
X0404Y0326D02*
D03*
Y0334D02*
D03*
X0381Y0471D02*
D03*
Y0463D02*
D03*
X0377Y0404D02*
D03*
Y0412D02*
D03*
X0381Y0393D02*
D03*
Y0385D02*
D03*
X0377Y0326D02*
D03*
Y0334D02*
D03*
X03535Y0471D02*
D03*
Y0463D02*
D03*
X03495Y0404D02*
D03*
Y0412D02*
D03*
X0354Y0393D02*
D03*
Y0385D02*
D03*
X035Y0326D02*
D03*
Y0334D02*
D03*
X03245Y0471D02*
D03*
Y0463D02*
D03*
X03205Y0404D02*
D03*
Y0412D02*
D03*
X03255Y0392D02*
D03*
Y0384D02*
D03*
X0322Y0326D02*
D03*
Y0334D02*
D03*
X02955Y04705D02*
D03*
Y04625D02*
D03*
X02915Y04035D02*
D03*
Y04115D02*
D03*
X02965Y03935D02*
D03*
Y03855D02*
D03*
X02925Y03265D02*
D03*
Y03345D02*
D03*
X02675Y04705D02*
D03*
Y04625D02*
D03*
X02635Y04035D02*
D03*
Y04115D02*
D03*
X0267Y03935D02*
D03*
Y03855D02*
D03*
X0263Y03265D02*
D03*
Y03345D02*
D03*
X059Y03615D02*
D03*
Y03695D02*
D03*
X0598Y03615D02*
D03*
Y03695D02*
D03*
X0607Y03615D02*
D03*
Y03695D02*
D03*
X0615Y03615D02*
D03*
Y03695D02*
D03*
D26*
X04905Y0455D02*
D03*
X04825D02*
D03*
X0706Y0421D02*
D03*
X0698D02*
D03*
X07055Y0428D02*
D03*
X06975D02*
D03*
X0706Y04465D02*
D03*
X0698D02*
D03*
X0706Y04375D02*
D03*
X0698D02*
D03*
D27*
X029694Y0538D02*
D03*
X028906D02*
D03*
D28*
X03285Y0516D02*
D03*
Y0525D02*
D03*
X0372Y0545D02*
D03*
Y0536D02*
D03*
X035458Y064676D02*
D03*
Y063776D02*
D03*
D29*
X03375Y051656D02*
D03*
Y052444D02*
D03*
D30*
X05425Y035937D02*
D03*
X05475D02*
D03*
X05525D02*
D03*
X05575D02*
D03*
X05625D02*
D03*
X05675D02*
D03*
X05725D02*
D03*
X05775D02*
D03*
X05425Y038063D02*
D03*
X05475D02*
D03*
X05525D02*
D03*
X05575D02*
D03*
X05625D02*
D03*
X05675D02*
D03*
X05725D02*
D03*
X05775D02*
D03*
X068Y036337D02*
D03*
X0685D02*
D03*
X069D02*
D03*
X0695D02*
D03*
X07D02*
D03*
X0705D02*
D03*
X071D02*
D03*
X0715D02*
D03*
X068Y038463D02*
D03*
X0685D02*
D03*
X069D02*
D03*
X0695D02*
D03*
X07D02*
D03*
X0705D02*
D03*
X071D02*
D03*
X0715D02*
D03*
D31*
X05715Y0431D02*
D03*
X05665D02*
D03*
X05615D02*
D03*
X05565D02*
D03*
X05515D02*
D03*
X05465D02*
D03*
X05415D02*
D03*
X05715Y040974D02*
D03*
X05665D02*
D03*
X05615D02*
D03*
X05565D02*
D03*
X05515D02*
D03*
X05465D02*
D03*
X05415D02*
D03*
X05125Y043763D02*
D03*
X05075D02*
D03*
X05025D02*
D03*
X04975D02*
D03*
X04925D02*
D03*
X04875D02*
D03*
X04825D02*
D03*
X05125Y041637D02*
D03*
X05075D02*
D03*
X05025D02*
D03*
X04975D02*
D03*
X04925D02*
D03*
X04875D02*
D03*
X04825D02*
D03*
D32*
X03365Y05385D02*
D03*
X03205D02*
D03*
D33*
X025208Y066506D02*
D03*
Y0656D02*
D03*
Y064694D02*
D03*
D34*
X027492Y0656D02*
D03*
D35*
X03205Y0669D02*
D03*
D36*
Y064D02*
D03*
D37*
X03546Y067072D02*
D03*
Y066172D02*
D03*
X0598Y03845D02*
D03*
Y03755D02*
D03*
X06595Y0376D02*
D03*
Y0385D02*
D03*
X06505Y0376D02*
D03*
Y0385D02*
D03*
X0642Y0376D02*
D03*
Y0385D02*
D03*
X06335Y0376D02*
D03*
Y0385D02*
D03*
X0615Y03755D02*
D03*
Y03845D02*
D03*
X0607Y03755D02*
D03*
Y03845D02*
D03*
X05895Y03755D02*
D03*
Y03845D02*
D03*
X05185Y03805D02*
D03*
Y03895D02*
D03*
X05095Y03805D02*
D03*
Y03895D02*
D03*
X049948Y03805D02*
D03*
Y03895D02*
D03*
X0491Y03805D02*
D03*
Y03895D02*
D03*
X0372Y0519D02*
D03*
Y0528D02*
D03*
X0419Y03355D02*
D03*
Y03265D02*
D03*
X0392Y04135D02*
D03*
Y04045D02*
D03*
Y03355D02*
D03*
Y03265D02*
D03*
X03655Y04135D02*
D03*
Y04045D02*
D03*
X0365Y03355D02*
D03*
Y03265D02*
D03*
X03355Y04135D02*
D03*
Y04045D02*
D03*
X0337Y03355D02*
D03*
Y03265D02*
D03*
X03065Y0413D02*
D03*
Y0404D02*
D03*
X03075Y0336D02*
D03*
Y0327D02*
D03*
X02785Y0413D02*
D03*
Y0404D02*
D03*
X0278Y0336D02*
D03*
Y0327D02*
D03*
D38*
X069Y04275D02*
D03*
X0681D02*
D03*
X06905Y04205D02*
D03*
X06815D02*
D03*
X06905Y04375D02*
D03*
X06815D02*
D03*
X06905Y0446D02*
D03*
X06815D02*
D03*
D39*
X06045Y047674D02*
D03*
Y046926D02*
D03*
D40*
X0158Y03515D02*
D03*
D41*
X0129D02*
D03*
D42*
X0384Y0523D02*
D03*
Y0539D02*
D03*
X03075Y05205D02*
D03*
Y05365D02*
D03*
M02*
