G04*
G04 #@! TF.GenerationSoftware,Altium Limited,Altium Designer,20.0.13 (296)*
G04*
G04 Layer_Color=8388736*
%FSTAX24Y24*%
%MOIN*%
G70*
G01*
G75*
%ADD28R,0.0513X0.0552*%
%ADD29O,0.0789X0.0297*%
%ADD30R,0.0552X0.0513*%
%ADD31R,0.0580X0.0630*%
%ADD32R,0.0395X0.0513*%
G04:AMPARAMS|DCode=33|XSize=204.9mil|YSize=108mil|CornerRadius=29mil|HoleSize=0mil|Usage=FLASHONLY|Rotation=180.000|XOffset=0mil|YOffset=0mil|HoleType=Round|Shape=RoundedRectangle|*
%AMROUNDEDRECTD33*
21,1,0.2049,0.0500,0,0,180.0*
21,1,0.1468,0.1080,0,0,180.0*
1,1,0.0580,-0.0734,0.0250*
1,1,0.0580,0.0734,0.0250*
1,1,0.0580,0.0734,-0.0250*
1,1,0.0580,-0.0734,-0.0250*
%
%ADD33ROUNDEDRECTD33*%
%ADD34O,0.0867X0.0297*%
%ADD35C,0.0592*%
%ADD36C,0.1025*%
%ADD37C,0.1655*%
%ADD38R,0.0592X0.0592*%
%ADD39C,0.0580*%
%ADD40C,0.2049*%
D28*
X01775Y0505D02*
D03*
Y0512D02*
D03*
X01805Y03505D02*
D03*
Y03435D02*
D03*
X0203Y06105D02*
D03*
Y06035D02*
D03*
D29*
X020437Y06455D02*
D03*
Y06405D02*
D03*
Y06355D02*
D03*
Y06305D02*
D03*
Y06255D02*
D03*
Y06205D02*
D03*
Y06155D02*
D03*
X022563Y06455D02*
D03*
Y06405D02*
D03*
Y06355D02*
D03*
Y06305D02*
D03*
Y06255D02*
D03*
Y06205D02*
D03*
Y06155D02*
D03*
D30*
X02305Y06075D02*
D03*
X02235D02*
D03*
D31*
X0233Y0307D02*
D03*
X0242D02*
D03*
X0234Y05435D02*
D03*
X0243D02*
D03*
X047009D02*
D03*
X047909D02*
D03*
X04695Y03865D02*
D03*
X04785D02*
D03*
X047Y0465D02*
D03*
X0479D02*
D03*
X039D02*
D03*
X0399D02*
D03*
X0312D02*
D03*
X0321D02*
D03*
X03905Y05435D02*
D03*
X03995D02*
D03*
X0233Y03865D02*
D03*
X0242D02*
D03*
X047Y03075D02*
D03*
X0479D02*
D03*
X03915D02*
D03*
X04005D02*
D03*
X0312D02*
D03*
X0321D02*
D03*
X03125Y03865D02*
D03*
X03215D02*
D03*
X03915D02*
D03*
X04005D02*
D03*
X0234Y0465D02*
D03*
X0243D02*
D03*
X0312Y05435D02*
D03*
X0321D02*
D03*
D32*
X02347Y02965D02*
D03*
X02427D02*
D03*
X02357Y0534D02*
D03*
X02437D02*
D03*
X04718D02*
D03*
X04798D02*
D03*
X04705Y0378D02*
D03*
X04785D02*
D03*
X03917Y0456D02*
D03*
X03997D02*
D03*
X02357D02*
D03*
X02437D02*
D03*
X0313D02*
D03*
X0321D02*
D03*
X0313Y0534D02*
D03*
X0321D02*
D03*
X04717Y02975D02*
D03*
X04797D02*
D03*
X03932Y0297D02*
D03*
X04012D02*
D03*
X03137D02*
D03*
X03217D02*
D03*
X0313Y0378D02*
D03*
X0321D02*
D03*
X03932D02*
D03*
X04012D02*
D03*
X02347D02*
D03*
X02427D02*
D03*
X04718Y0456D02*
D03*
X04798D02*
D03*
X03922Y0534D02*
D03*
X04002D02*
D03*
D33*
X0211Y0566D02*
D03*
Y0586D02*
D03*
X0261D02*
D03*
Y0566D02*
D03*
X0211Y033D02*
D03*
Y035D02*
D03*
X0261D02*
D03*
Y033D02*
D03*
X037D02*
D03*
Y035D02*
D03*
X042D02*
D03*
Y033D02*
D03*
X02905D02*
D03*
Y035D02*
D03*
X03405D02*
D03*
Y033D02*
D03*
X02905Y0566D02*
D03*
Y0586D02*
D03*
X03405D02*
D03*
Y0566D02*
D03*
X037D02*
D03*
Y0586D02*
D03*
X042D02*
D03*
Y0566D02*
D03*
X0211Y0486D02*
D03*
Y0506D02*
D03*
X0261D02*
D03*
Y0486D02*
D03*
X02905D02*
D03*
Y0506D02*
D03*
X03405D02*
D03*
Y0486D02*
D03*
X037D02*
D03*
Y0506D02*
D03*
X042D02*
D03*
Y0486D02*
D03*
X04495D02*
D03*
Y0506D02*
D03*
X04995D02*
D03*
Y0486D02*
D03*
X0211Y04075D02*
D03*
Y04275D02*
D03*
X0261D02*
D03*
Y04075D02*
D03*
X02905D02*
D03*
Y04275D02*
D03*
X03405D02*
D03*
Y04075D02*
D03*
X037D02*
D03*
Y04275D02*
D03*
X042D02*
D03*
Y04075D02*
D03*
X04495D02*
D03*
Y04275D02*
D03*
X04995D02*
D03*
Y04075D02*
D03*
X04495Y033D02*
D03*
Y035D02*
D03*
X04995D02*
D03*
Y033D02*
D03*
X04505Y05645D02*
D03*
Y05845D02*
D03*
X05005D02*
D03*
Y05645D02*
D03*
D34*
X018024Y0397D02*
D03*
Y0392D02*
D03*
Y0387D02*
D03*
Y0382D02*
D03*
Y0377D02*
D03*
Y0372D02*
D03*
Y0367D02*
D03*
Y0362D02*
D03*
X02015Y0397D02*
D03*
Y0392D02*
D03*
Y0387D02*
D03*
Y0382D02*
D03*
Y0377D02*
D03*
Y0372D02*
D03*
Y0367D02*
D03*
Y0362D02*
D03*
X017737Y05555D02*
D03*
Y05505D02*
D03*
Y05455D02*
D03*
Y05405D02*
D03*
Y05355D02*
D03*
Y05305D02*
D03*
Y05255D02*
D03*
Y05205D02*
D03*
X019863Y05555D02*
D03*
Y05505D02*
D03*
Y05455D02*
D03*
Y05405D02*
D03*
Y05355D02*
D03*
Y05305D02*
D03*
Y05255D02*
D03*
Y05205D02*
D03*
D35*
X032944Y060552D02*
D03*
X033845D02*
D03*
X038345D02*
D03*
X037444D02*
D03*
X034239Y062449D02*
D03*
X034641Y06315D02*
D03*
X035042Y062449D02*
D03*
X035444Y06315D02*
D03*
X035845Y062449D02*
D03*
X036247Y06315D02*
D03*
X036648Y062449D02*
D03*
X025499Y060552D02*
D03*
X026401D02*
D03*
X030901D02*
D03*
X029999D02*
D03*
X026794Y062449D02*
D03*
X027196Y06315D02*
D03*
X027598Y062449D02*
D03*
X027999Y06315D02*
D03*
X028401Y062449D02*
D03*
X028802Y06315D02*
D03*
X029204Y062449D02*
D03*
X040599Y060552D02*
D03*
X041501D02*
D03*
X046001D02*
D03*
X045099D02*
D03*
X041894Y062449D02*
D03*
X042296Y06315D02*
D03*
X042698Y062449D02*
D03*
X043099Y06315D02*
D03*
X043501Y062449D02*
D03*
X043902Y06315D02*
D03*
X044304Y062449D02*
D03*
D36*
X038843Y0628D02*
D03*
X032446D02*
D03*
X031399D02*
D03*
X025001D02*
D03*
X046499D02*
D03*
X040101D02*
D03*
D37*
X033144Y06415D02*
D03*
X038144D02*
D03*
X0257D02*
D03*
X0307D02*
D03*
X0408D02*
D03*
X0458D02*
D03*
D38*
X03705Y06315D02*
D03*
X029606D02*
D03*
X044706D02*
D03*
D39*
X0306Y0572D02*
D03*
X0363Y0586D02*
D03*
X02895Y0641D02*
D03*
X0282Y06495D02*
D03*
X02875Y06515D02*
D03*
X0275Y06085D02*
D03*
X0252Y053D02*
D03*
X03015Y038646D02*
D03*
X03365Y05415D02*
D03*
X0395Y06055D02*
D03*
X04295Y0647D02*
D03*
X03045Y03615D02*
D03*
X01815Y03565D02*
D03*
X03705Y03825D02*
D03*
X017Y0372D02*
D03*
X01905Y0397D02*
D03*
X0181Y0438D02*
D03*
X02195Y0382D02*
D03*
X02135Y03865D02*
D03*
X0212Y0377D02*
D03*
X0221Y0372D02*
D03*
X0383Y0367D02*
D03*
X02265Y03665D02*
D03*
X022Y03615D02*
D03*
X02365Y0641D02*
D03*
X0185Y05115D02*
D03*
X04715Y0522D02*
D03*
X0239Y0486D02*
D03*
X02365Y05255D02*
D03*
X0235Y0477D02*
D03*
X02275Y04715D02*
D03*
X02315Y0415D02*
D03*
X0232Y04295D02*
D03*
X02315Y0443D02*
D03*
X0448Y03805D02*
D03*
X04645Y0371D02*
D03*
X02165Y03085D02*
D03*
X02005Y0466D02*
D03*
X04515Y05445D02*
D03*
X0228Y05695D02*
D03*
X031288Y052937D02*
D03*
X0174Y05675D02*
D03*
X01715Y05765D02*
D03*
X02345Y0584D02*
D03*
X03125Y04485D02*
D03*
X02415Y05205D02*
D03*
X02105Y0616D02*
D03*
X04205Y05435D02*
D03*
X0237Y0626D02*
D03*
X0458Y0457D02*
D03*
X0375Y04605D02*
D03*
X0392Y05265D02*
D03*
X02135Y0586D02*
D03*
X02155Y0506D02*
D03*
X0215Y0428D02*
D03*
X04195Y05645D02*
D03*
X0342Y0564D02*
D03*
X0421Y04865D02*
D03*
X0343Y0487D02*
D03*
X0419Y041D02*
D03*
X03415D02*
D03*
X05015Y0564D02*
D03*
X0261Y0565D02*
D03*
X04985Y04075D02*
D03*
X02635Y04095D02*
D03*
X04995Y0488D02*
D03*
X02655Y04865D02*
D03*
X0209Y0351D02*
D03*
D40*
X053437Y028125D02*
D03*
X017937Y028175D02*
D03*
X017933Y063573D02*
D03*
X0534Y0636D02*
D03*
M02*
