G04*
G04 #@! TF.GenerationSoftware,Altium Limited,Altium Designer,20.0.13 (296)*
G04*
G04 Layer_Color=16711935*
%FSTAX24Y24*%
%MOIN*%
G70*
G01*
G75*
%ADD30R,0.0552X0.0513*%
%ADD32R,0.0395X0.0513*%
%ADD35C,0.0592*%
%ADD36C,0.1025*%
%ADD37C,0.1655*%
%ADD38R,0.0592X0.0592*%
%ADD39C,0.0580*%
%ADD40C,0.2049*%
D30*
X04345Y06165D02*
D03*
X04275D02*
D03*
D32*
X0309Y05865D02*
D03*
X0301D02*
D03*
X046Y0582D02*
D03*
X0452D02*
D03*
X0255Y05865D02*
D03*
X0263D02*
D03*
X04145Y05845D02*
D03*
X04065D02*
D03*
X0384Y05865D02*
D03*
X0376D02*
D03*
X033019D02*
D03*
X033819D02*
D03*
D35*
X032944Y060552D02*
D03*
X033845D02*
D03*
X038345D02*
D03*
X037444D02*
D03*
X034239Y062449D02*
D03*
X034641Y06315D02*
D03*
X035042Y062449D02*
D03*
X035444Y06315D02*
D03*
X035845Y062449D02*
D03*
X036247Y06315D02*
D03*
X036648Y062449D02*
D03*
X025499Y060552D02*
D03*
X026401D02*
D03*
X030901D02*
D03*
X029999D02*
D03*
X026794Y062449D02*
D03*
X027196Y06315D02*
D03*
X027598Y062449D02*
D03*
X027999Y06315D02*
D03*
X028401Y062449D02*
D03*
X028802Y06315D02*
D03*
X029204Y062449D02*
D03*
X040599Y060552D02*
D03*
X041501D02*
D03*
X046001D02*
D03*
X045099D02*
D03*
X041894Y062449D02*
D03*
X042296Y06315D02*
D03*
X042698Y062449D02*
D03*
X043099Y06315D02*
D03*
X043501Y062449D02*
D03*
X043902Y06315D02*
D03*
X044304Y062449D02*
D03*
D36*
X038843Y0628D02*
D03*
X032446D02*
D03*
X031399D02*
D03*
X025001D02*
D03*
X046499D02*
D03*
X040101D02*
D03*
D37*
X033144Y06415D02*
D03*
X038144D02*
D03*
X0257D02*
D03*
X0307D02*
D03*
X0408D02*
D03*
X0458D02*
D03*
D38*
X03705Y06315D02*
D03*
X029606D02*
D03*
X044706D02*
D03*
D39*
X0306Y0572D02*
D03*
X0363Y0586D02*
D03*
X02895Y0641D02*
D03*
X0282Y06495D02*
D03*
X02875Y06515D02*
D03*
X0275Y06085D02*
D03*
X0252Y053D02*
D03*
X03015Y038646D02*
D03*
X03365Y05415D02*
D03*
X0395Y06055D02*
D03*
X04295Y0647D02*
D03*
X03045Y03615D02*
D03*
X01815Y03565D02*
D03*
X03705Y03825D02*
D03*
X017Y0372D02*
D03*
X01905Y0397D02*
D03*
X0181Y0438D02*
D03*
X02195Y0382D02*
D03*
X02135Y03865D02*
D03*
X0212Y0377D02*
D03*
X0221Y0372D02*
D03*
X0383Y0367D02*
D03*
X02265Y03665D02*
D03*
X022Y03615D02*
D03*
X02365Y0641D02*
D03*
X0185Y05115D02*
D03*
X04715Y0522D02*
D03*
X0239Y0486D02*
D03*
X02365Y05255D02*
D03*
X0235Y0477D02*
D03*
X02275Y04715D02*
D03*
X02315Y0415D02*
D03*
X0232Y04295D02*
D03*
X02315Y0443D02*
D03*
X0448Y03805D02*
D03*
X04645Y0371D02*
D03*
X02165Y03085D02*
D03*
X02005Y0466D02*
D03*
X04515Y05445D02*
D03*
X0228Y05695D02*
D03*
X031288Y052937D02*
D03*
X0174Y05675D02*
D03*
X01715Y05765D02*
D03*
X02345Y0584D02*
D03*
X03125Y04485D02*
D03*
X02415Y05205D02*
D03*
X02105Y0616D02*
D03*
X04205Y05435D02*
D03*
X0237Y0626D02*
D03*
X0458Y0457D02*
D03*
X0375Y04605D02*
D03*
X0392Y05265D02*
D03*
X02135Y0586D02*
D03*
X02155Y0506D02*
D03*
X0215Y0428D02*
D03*
X04195Y05645D02*
D03*
X0342Y0564D02*
D03*
X0421Y04865D02*
D03*
X0343Y0487D02*
D03*
X0419Y041D02*
D03*
X03415D02*
D03*
X05015Y0564D02*
D03*
X0261Y0565D02*
D03*
X04985Y04075D02*
D03*
X02635Y04095D02*
D03*
X04995Y0488D02*
D03*
X02655Y04865D02*
D03*
X0209Y0351D02*
D03*
D40*
X053437Y028125D02*
D03*
X017937Y028175D02*
D03*
X017933Y063573D02*
D03*
X0534Y0636D02*
D03*
M02*
