G04*
G04 #@! TF.GenerationSoftware,Altium Limited,Altium Designer,20.0.13 (296)*
G04*
G04 Layer_Color=8421504*
%FSTAX24Y24*%
%MOIN*%
G70*
G01*
G75*
%ADD21R,0.0433X0.0472*%
%ADD22O,0.0709X0.0217*%
%ADD23R,0.0472X0.0433*%
%ADD24R,0.0500X0.0550*%
%ADD25R,0.0315X0.0433*%
G04:AMPARAMS|DCode=26|XSize=196.9mil|YSize=100mil|CornerRadius=25mil|HoleSize=0mil|Usage=FLASHONLY|Rotation=180.000|XOffset=0mil|YOffset=0mil|HoleType=Round|Shape=RoundedRectangle|*
%AMROUNDEDRECTD26*
21,1,0.1969,0.0500,0,0,180.0*
21,1,0.1468,0.1000,0,0,180.0*
1,1,0.0500,-0.0734,0.0250*
1,1,0.0500,0.0734,0.0250*
1,1,0.0500,0.0734,-0.0250*
1,1,0.0500,-0.0734,-0.0250*
%
%ADD26ROUNDEDRECTD26*%
%ADD27O,0.0787X0.0217*%
D21*
X01775Y0505D02*
D03*
Y0512D02*
D03*
X01805Y03505D02*
D03*
Y03435D02*
D03*
X0203Y06105D02*
D03*
Y06035D02*
D03*
D22*
X020437Y06455D02*
D03*
Y06405D02*
D03*
Y06355D02*
D03*
Y06305D02*
D03*
Y06255D02*
D03*
Y06205D02*
D03*
Y06155D02*
D03*
X022563Y06455D02*
D03*
Y06405D02*
D03*
Y06355D02*
D03*
Y06305D02*
D03*
Y06255D02*
D03*
Y06205D02*
D03*
Y06155D02*
D03*
D23*
X02305Y06075D02*
D03*
X02235D02*
D03*
D24*
X0233Y0307D02*
D03*
X0242D02*
D03*
X0234Y05435D02*
D03*
X0243D02*
D03*
X047009D02*
D03*
X047909D02*
D03*
X04695Y03865D02*
D03*
X04785D02*
D03*
X047Y0465D02*
D03*
X0479D02*
D03*
X039D02*
D03*
X0399D02*
D03*
X0312D02*
D03*
X0321D02*
D03*
X03905Y05435D02*
D03*
X03995D02*
D03*
X0233Y03865D02*
D03*
X0242D02*
D03*
X047Y03075D02*
D03*
X0479D02*
D03*
X03915D02*
D03*
X04005D02*
D03*
X0312D02*
D03*
X0321D02*
D03*
X03125Y03865D02*
D03*
X03215D02*
D03*
X03915D02*
D03*
X04005D02*
D03*
X0234Y0465D02*
D03*
X0243D02*
D03*
X0312Y05435D02*
D03*
X0321D02*
D03*
D25*
X02347Y02965D02*
D03*
X02427D02*
D03*
X02357Y0534D02*
D03*
X02437D02*
D03*
X04718D02*
D03*
X04798D02*
D03*
X04705Y0378D02*
D03*
X04785D02*
D03*
X03917Y0456D02*
D03*
X03997D02*
D03*
X02357D02*
D03*
X02437D02*
D03*
X0313D02*
D03*
X0321D02*
D03*
X0313Y0534D02*
D03*
X0321D02*
D03*
X04717Y02975D02*
D03*
X04797D02*
D03*
X03932Y0297D02*
D03*
X04012D02*
D03*
X03137D02*
D03*
X03217D02*
D03*
X0313Y0378D02*
D03*
X0321D02*
D03*
X03932D02*
D03*
X04012D02*
D03*
X02347D02*
D03*
X02427D02*
D03*
X04718Y0456D02*
D03*
X04798D02*
D03*
X03922Y0534D02*
D03*
X04002D02*
D03*
D26*
X0211Y0566D02*
D03*
Y0586D02*
D03*
X0261D02*
D03*
Y0566D02*
D03*
X0211Y033D02*
D03*
Y035D02*
D03*
X0261D02*
D03*
Y033D02*
D03*
X037D02*
D03*
Y035D02*
D03*
X042D02*
D03*
Y033D02*
D03*
X02905D02*
D03*
Y035D02*
D03*
X03405D02*
D03*
Y033D02*
D03*
X02905Y0566D02*
D03*
Y0586D02*
D03*
X03405D02*
D03*
Y0566D02*
D03*
X037D02*
D03*
Y0586D02*
D03*
X042D02*
D03*
Y0566D02*
D03*
X0211Y0486D02*
D03*
Y0506D02*
D03*
X0261D02*
D03*
Y0486D02*
D03*
X02905D02*
D03*
Y0506D02*
D03*
X03405D02*
D03*
Y0486D02*
D03*
X037D02*
D03*
Y0506D02*
D03*
X042D02*
D03*
Y0486D02*
D03*
X04495D02*
D03*
Y0506D02*
D03*
X04995D02*
D03*
Y0486D02*
D03*
X0211Y04075D02*
D03*
Y04275D02*
D03*
X0261D02*
D03*
Y04075D02*
D03*
X02905D02*
D03*
Y04275D02*
D03*
X03405D02*
D03*
Y04075D02*
D03*
X037D02*
D03*
Y04275D02*
D03*
X042D02*
D03*
Y04075D02*
D03*
X04495D02*
D03*
Y04275D02*
D03*
X04995D02*
D03*
Y04075D02*
D03*
X04495Y033D02*
D03*
Y035D02*
D03*
X04995D02*
D03*
Y033D02*
D03*
X04505Y05645D02*
D03*
Y05845D02*
D03*
X05005D02*
D03*
Y05645D02*
D03*
D27*
X018024Y0397D02*
D03*
Y0392D02*
D03*
Y0387D02*
D03*
Y0382D02*
D03*
Y0377D02*
D03*
Y0372D02*
D03*
Y0367D02*
D03*
Y0362D02*
D03*
X02015Y0397D02*
D03*
Y0392D02*
D03*
Y0387D02*
D03*
Y0382D02*
D03*
Y0377D02*
D03*
Y0372D02*
D03*
Y0367D02*
D03*
Y0362D02*
D03*
X017737Y05555D02*
D03*
Y05505D02*
D03*
Y05455D02*
D03*
Y05405D02*
D03*
Y05355D02*
D03*
Y05305D02*
D03*
Y05255D02*
D03*
Y05205D02*
D03*
X019863Y05555D02*
D03*
Y05505D02*
D03*
Y05455D02*
D03*
Y05405D02*
D03*
Y05355D02*
D03*
Y05305D02*
D03*
Y05255D02*
D03*
Y05205D02*
D03*
M02*
