G04*
G04 #@! TF.GenerationSoftware,Altium Limited,Altium Designer,20.0.13 (296)*
G04*
G04 Layer_Color=32768*
%FSTAX24Y24*%
%MOIN*%
G70*
G01*
G75*
%ADD16C,0.0039*%
%ADD55C,0.0020*%
D16*
X0215Y062853D02*
Y063247D01*
X021303Y06305D02*
X021697D01*
X019087Y037753D02*
Y038147D01*
X01889Y03795D02*
X019284D01*
X0188Y053603D02*
Y053997D01*
X018603Y0538D02*
X018997D01*
D55*
X018045Y0502D02*
Y0515D01*
X01775Y050663D02*
Y051037D01*
X017563Y05085D02*
X017937D01*
X017455Y050245D02*
X0175Y0502D01*
X018045D01*
X017455Y050245D02*
Y0515D01*
X018045D01*
X04245Y061355D02*
X04375D01*
X042913Y06165D02*
X043287D01*
X0431Y061463D02*
Y061837D01*
X043705Y061945D02*
X04375Y0619D01*
Y061355D02*
Y0619D01*
X04245Y061945D02*
X043705D01*
X04245Y061355D02*
Y061945D01*
X02Y064841D02*
X023D01*
X02Y061259D02*
X023D01*
X02D02*
Y064841D01*
X023Y061259D02*
Y064841D01*
X017755Y03535D02*
X018345D01*
X017755Y034095D02*
Y03535D01*
X0178Y03405D02*
X018345D01*
X017755Y034095D02*
X0178Y03405D01*
X017863Y0347D02*
X018237D01*
X01805Y034513D02*
Y034887D01*
X018345Y03405D02*
Y03535D01*
X020005Y06135D02*
X020595D01*
X020005Y060095D02*
Y06135D01*
X02005Y06005D02*
X020595D01*
X020005Y060095D02*
X02005Y06005D01*
X020113Y0607D02*
X020487D01*
X0203Y060513D02*
Y060887D01*
X020595Y06005D02*
Y06135D01*
X02335Y060455D02*
Y061045D01*
X022095D02*
X02335D01*
X02205Y060455D02*
Y061D01*
X022095Y061045D01*
X0227Y060563D02*
Y060937D01*
X022513Y06075D02*
X022887D01*
X02205Y060455D02*
X02335D01*
X017587Y039997D02*
X020587D01*
X017587Y035903D02*
X020587D01*
X017587D02*
Y039997D01*
X020587Y035903D02*
Y039997D01*
X0173Y055847D02*
X0203D01*
X0173Y051753D02*
X0203D01*
X0173D02*
Y055847D01*
X0203Y051753D02*
Y055847D01*
M02*
