G04*
G04 #@! TF.GenerationSoftware,Altium Limited,Altium Designer,20.0.13 (296)*
G04*
G04 Layer_Physical_Order=2*
G04 Layer_Color=16711680*
%FSTAX24Y24*%
%MOIN*%
G70*
G01*
G75*
%ADD12C,0.0300*%
%ADD23R,0.0472X0.0433*%
%ADD25R,0.0315X0.0433*%
%ADD41C,0.0120*%
%ADD42C,0.0200*%
%ADD43C,0.0080*%
%ADD45C,0.0500*%
%ADD47C,0.0512*%
%ADD48C,0.0945*%
%ADD49C,0.1575*%
%ADD50R,0.0512X0.0512*%
%ADD51C,0.0500*%
%ADD52C,0.1969*%
%ADD53C,0.0394*%
G36*
X027519Y065603D02*
X027446Y065601D01*
X027386Y065595D01*
X027337Y065584D01*
X027301Y06557D01*
X027276Y065551D01*
X027264Y065528D01*
X027264Y0655D01*
X027275Y065469D01*
X027299Y065433D01*
X027335Y065393D01*
X026847Y065325D01*
X02679Y065378D01*
X026731Y065425D01*
X026669Y065467D01*
X026606Y065503D01*
X02654Y065534D01*
X026471Y065559D01*
X026401Y065578D01*
X026328Y065592D01*
X026252Y0656D01*
X026175Y065603D01*
X02665Y065997D01*
X027519Y065603D01*
D02*
G37*
G36*
X04182Y064907D02*
Y064597D01*
X04177Y064587D01*
X04175Y064634D01*
X041663Y064777D01*
X041554Y064904D01*
X041427Y065013D01*
X041284Y0651D01*
X041129Y065164D01*
X040967Y065203D01*
X0408Y065216D01*
X040633Y065203D01*
X04047Y065164D01*
X040316Y0651D01*
X040173Y065013D01*
X040046Y064904D01*
X039937Y064777D01*
X03985Y064634D01*
X039786Y064479D01*
X039747Y064317D01*
X039734Y06415D01*
X039747Y063983D01*
X039786Y063821D01*
X03985Y063666D01*
X039912Y063565D01*
X039894Y063518D01*
X039814Y063494D01*
X039684Y063425D01*
X03957Y063331D01*
X039505Y063252D01*
X03944D01*
X039375Y063331D01*
X039261Y063425D01*
X039131Y063494D01*
X039051Y063518D01*
X039033Y063565D01*
X039095Y063666D01*
X039159Y063821D01*
X039198Y063983D01*
X039211Y06415D01*
X039198Y064317D01*
X039159Y064479D01*
X039095Y064634D01*
X039007Y064777D01*
X038898Y064904D01*
X038771Y065013D01*
X038629Y0651D01*
X038474Y065164D01*
X038311Y065203D01*
X038144Y065216D01*
X037978Y065203D01*
X037815Y065164D01*
X03766Y0651D01*
X037518Y065013D01*
X037391Y064904D01*
X037282Y064777D01*
X037194Y064634D01*
X03713Y064479D01*
X037091Y064317D01*
X037078Y06415D01*
X037091Y063983D01*
X03713Y063821D01*
X037171Y063723D01*
X037143Y063682D01*
X036518D01*
Y063667D01*
X036469Y063633D01*
X036386Y063668D01*
X036247Y063686D01*
X036108Y063668D01*
X035979Y063614D01*
X035879Y063538D01*
X035845Y063533D01*
X035811Y063538D01*
X035712Y063614D01*
X035582Y063668D01*
X035444Y063686D01*
X035305Y063668D01*
X035176Y063614D01*
X035065Y063529D01*
X03502D01*
X034909Y063614D01*
X034779Y063668D01*
X034641Y063686D01*
X034502Y063668D01*
X034373Y063614D01*
X034261Y063529D01*
X034261Y063529D01*
X034062D01*
X034037Y063572D01*
X034095Y063666D01*
X034159Y063821D01*
X034198Y063983D01*
X034211Y06415D01*
X034198Y064317D01*
X034159Y064479D01*
X034095Y064634D01*
X034007Y064777D01*
X033898Y064904D01*
X033771Y065013D01*
X033629Y0651D01*
X033474Y065164D01*
X033311Y065203D01*
X033144Y065216D01*
X032978Y065203D01*
X032815Y065164D01*
X03266Y0651D01*
X032518Y065013D01*
X032391Y064904D01*
X032282Y064777D01*
X032194Y064634D01*
X03213Y064479D01*
X032091Y064317D01*
X032078Y06415D01*
X032091Y063983D01*
X03213Y063821D01*
X032194Y063666D01*
X032256Y063565D01*
X032238Y063518D01*
X032158Y063494D01*
X032028Y063425D01*
X031922Y063338D01*
X031816Y063425D01*
X031686Y063494D01*
X031606Y063518D01*
X031588Y063565D01*
X03165Y063666D01*
X031714Y063821D01*
X031753Y063983D01*
X031766Y06415D01*
X031753Y064317D01*
X031714Y064479D01*
X03165Y064634D01*
X031563Y064777D01*
X031454Y064904D01*
X031327Y065013D01*
X031184Y0651D01*
X03103Y065164D01*
X030867Y065203D01*
X0307Y065216D01*
X030533Y065203D01*
X030371Y065164D01*
X030216Y0651D01*
X030073Y065013D01*
X029946Y064904D01*
X029837Y064777D01*
X02975Y064634D01*
X029686Y064479D01*
X029647Y064317D01*
X029634Y06415D01*
X029647Y063983D01*
X029686Y063821D01*
X02975Y063666D01*
X029791Y0636D01*
X029766Y063556D01*
X029681D01*
Y063225D01*
X030011D01*
Y06328D01*
X030057Y063301D01*
X030073Y063287D01*
X030216Y0632D01*
X030371Y063136D01*
X030533Y063097D01*
X030652Y063087D01*
X030688Y063034D01*
X030662Y062946D01*
X030647Y0628D01*
X030662Y062653D01*
X030704Y062512D01*
X030774Y062382D01*
X030867Y062268D01*
X030981Y062175D01*
X031111Y062105D01*
X031252Y062062D01*
X031399Y062048D01*
X031545Y062062D01*
X031686Y062105D01*
X031816Y062175D01*
X031922Y062261D01*
X032028Y062175D01*
X032158Y062105D01*
X032299Y062062D01*
X032311Y062061D01*
X032328Y062014D01*
X032043Y061729D01*
X028999D01*
X02898Y061775D01*
X029116Y061911D01*
X029124Y061912D01*
X029174Y061915D01*
X029188Y061915D01*
X029204Y061913D01*
X029343Y061931D01*
X029472Y061985D01*
X029583Y06207D01*
X029668Y062181D01*
X029722Y06231D01*
X02974Y062449D01*
X029722Y062588D01*
X029678Y062694D01*
X029707Y062744D01*
X030011D01*
Y063075D01*
X029606D01*
Y06315D01*
X029531D01*
Y063556D01*
X0292D01*
Y063377D01*
X029189Y063372D01*
X02915Y063364D01*
X029092Y063439D01*
X029007Y063505D01*
X028908Y063545D01*
X028877Y06355D01*
Y063534D01*
X0289Y06354D01*
X0289Y063512D01*
X028906Y063441D01*
X02891Y063422D01*
X028915Y063406D01*
X02892Y063392D01*
X028926Y063381D01*
X028933Y063372D01*
X02894Y063366D01*
X028877Y063352D01*
Y06315D01*
X028727D01*
Y063321D01*
X02862Y063299D01*
Y062971D01*
X028613Y062976D01*
X028603Y062981D01*
X028592Y062986D01*
X028577Y06299D01*
X028561Y062993D01*
X028542Y062995D01*
X028496Y062999D01*
X028441Y063D01*
Y0633D01*
X02847Y0633D01*
X028561Y063307D01*
X028577Y06331D01*
X028592Y063314D01*
X028595Y063316D01*
X028597Y063342D01*
X0286Y063405D01*
X0286Y06346D01*
X028727Y063494D01*
Y06355D01*
X028696Y063545D01*
X028598Y063505D01*
X028513Y063439D01*
X028448Y063355D01*
X028428Y063307D01*
X028374D01*
X028354Y063355D01*
X028289Y063439D01*
X028204Y063505D01*
X028105Y063545D01*
X028074Y06355D01*
Y06315D01*
X027924D01*
Y06355D01*
X027893Y063545D01*
X027874Y063537D01*
X027832Y063565D01*
Y0649D01*
Y065D01*
X027816Y065123D01*
X027768Y065238D01*
X027737Y065279D01*
X027759Y065323D01*
X041403D01*
X04182Y064907D01*
D02*
G37*
G36*
X026232Y065323D02*
X026286Y065317D01*
X026337Y065307D01*
X026386Y065294D01*
X026433Y065277D01*
X026478Y065256D01*
X026522Y065231D01*
X026566Y065201D01*
X026608Y065167D01*
X026619Y065157D01*
X02672Y065057D01*
Y064597D01*
X02667Y064587D01*
X02665Y064634D01*
X026563Y064777D01*
X026454Y064904D01*
X026327Y065013D01*
X026184Y0651D01*
X02603Y065164D01*
X025867Y065203D01*
X0257Y065216D01*
X025533Y065203D01*
X025371Y065164D01*
X025216Y0651D01*
X025073Y065013D01*
X024946Y064904D01*
X024837Y064777D01*
X02475Y064634D01*
X024686Y064479D01*
X024647Y064317D01*
X024634Y06415D01*
X024647Y063983D01*
X024686Y063821D01*
X02475Y063666D01*
X024812Y063565D01*
X024794Y063518D01*
X024714Y063494D01*
X024584Y063425D01*
X02447Y063331D01*
X024376Y063217D01*
X024307Y063087D01*
X024264Y062946D01*
X02425Y0628D01*
X024252Y06277D01*
X024203Y062758D01*
X024159Y062865D01*
X024075Y062975D01*
X023965Y063059D01*
X023837Y063112D01*
X0237Y06313D01*
X023563Y063112D01*
X023435Y063059D01*
X023325Y062975D01*
X023241Y062865D01*
X023188Y062737D01*
X02317Y0626D01*
X023188Y062463D01*
X023241Y062335D01*
X023325Y062225D01*
X023338Y062215D01*
X023347Y062206D01*
X023378Y062171D01*
X023382Y062166D01*
Y06205D01*
X023393Y061968D01*
X023424Y061891D01*
X023475Y061825D01*
X023572Y061728D01*
X023565Y061694D01*
X023555Y061674D01*
X023482Y061618D01*
X023482Y061618D01*
X021232Y059368D01*
X021172Y059289D01*
X021134Y059198D01*
X021121Y0591D01*
Y059074D01*
X021085Y059059D01*
X020975Y058975D01*
X020891Y058865D01*
X020838Y058737D01*
X02082Y0586D01*
X020838Y058463D01*
X020891Y058335D01*
X020975Y058225D01*
X021085Y058141D01*
X021121Y058126D01*
Y050938D01*
X021121Y050925D01*
X02112Y05092D01*
X021119Y050913D01*
X021117Y050908D01*
X021116Y050904D01*
X021115Y050901D01*
X021114Y050898D01*
X021113Y050897D01*
X021107Y050888D01*
X021106Y050885D01*
X021091Y050865D01*
X021038Y050737D01*
X02102Y0506D01*
X021038Y050463D01*
X021091Y050335D01*
X021106Y050315D01*
X021107Y050312D01*
X021113Y050303D01*
X021114Y050302D01*
X021115Y050299D01*
X021116Y050296D01*
X021117Y050292D01*
X021119Y050287D01*
X021119Y050283D01*
X021121Y050264D01*
Y04317D01*
X021041Y043065D01*
X020988Y042937D01*
X020971Y042806D01*
X020132Y041968D01*
X020072Y041889D01*
X020034Y041798D01*
X020021Y0417D01*
Y0356D01*
X020034Y035502D01*
X020072Y035411D01*
X020132Y035332D01*
X020371Y035094D01*
X020388Y034963D01*
X020441Y034835D01*
X020525Y034725D01*
X020635Y034641D01*
X020763Y034588D01*
X0209Y03457D01*
X021037Y034588D01*
X021165Y034641D01*
X021275Y034725D01*
X021359Y034835D01*
X021412Y034963D01*
X02143Y0351D01*
X021412Y035237D01*
X021359Y035365D01*
X021275Y035475D01*
X021165Y035559D01*
X021037Y035612D01*
X020906Y035629D01*
X020779Y035757D01*
Y037309D01*
X020802Y037317D01*
X020829Y037322D01*
X020935Y037241D01*
X021063Y037188D01*
X0212Y03717D01*
X021337Y037188D01*
X021465Y037241D01*
X021532Y037292D01*
X021578Y037265D01*
X02157Y0372D01*
X021588Y037063D01*
X021641Y036935D01*
X021725Y036825D01*
X021835Y036741D01*
X021894Y036717D01*
X021887Y036665D01*
X021863Y036662D01*
X021735Y036609D01*
X021625Y036525D01*
X021541Y036415D01*
X021488Y036287D01*
X02147Y03615D01*
X021488Y036013D01*
X021541Y035885D01*
X021625Y035775D01*
X021735Y035691D01*
X021863Y035638D01*
X022Y03562D01*
X022137Y035638D01*
X022265Y035691D01*
X022375Y035775D01*
X022384Y035787D01*
X02239Y035793D01*
X022401Y035803D01*
X02241Y03581D01*
X022413Y035812D01*
X030037D01*
X030063Y03579D01*
X030066Y035787D01*
X030075Y035775D01*
X030185Y035691D01*
X030313Y035638D01*
X03045Y03562D01*
X030587Y035638D01*
X030715Y035691D01*
X030825Y035775D01*
X030909Y035885D01*
X030962Y036013D01*
X03098Y03615D01*
X030962Y036287D01*
X030949Y03632D01*
X030976Y036362D01*
X037887D01*
X037913Y03634D01*
X037916Y036337D01*
X037925Y036325D01*
X038035Y036241D01*
X038163Y036188D01*
X0383Y03617D01*
X038437Y036188D01*
X038565Y036241D01*
X038675Y036325D01*
X038759Y036435D01*
X038812Y036563D01*
X03883Y0367D01*
X038815Y036812D01*
X038851Y036862D01*
X044404D01*
X04448Y036852D01*
X045984D01*
X045991Y036835D01*
X046075Y036725D01*
X046185Y036641D01*
X046313Y036588D01*
X04645Y03657D01*
X046587Y036588D01*
X046715Y036641D01*
X046825Y036725D01*
X046909Y036835D01*
X046962Y036963D01*
X04698Y0371D01*
X046962Y037237D01*
X046909Y037365D01*
X046825Y037475D01*
X046715Y037559D01*
X046587Y037612D01*
X04645Y03763D01*
X046313Y037612D01*
X046253Y037587D01*
X046234Y037582D01*
X046234Y037582D01*
X046233Y037582D01*
X046206Y037569D01*
X04613Y037539D01*
X046119Y037536D01*
X046093Y037528D01*
X045045D01*
X045035Y037578D01*
X045065Y037591D01*
X045175Y037675D01*
X045259Y037785D01*
X045312Y037913D01*
X04533Y03805D01*
X045312Y038187D01*
X045259Y038315D01*
X045175Y038425D01*
X045065Y038509D01*
X044937Y038562D01*
X0448Y03858D01*
X044663Y038562D01*
X044535Y038509D01*
X044425Y038425D01*
X044341Y038315D01*
X044288Y038187D01*
X04427Y03805D01*
X04426Y038038D01*
X037576D01*
X037548Y03808D01*
X037562Y038113D01*
X03758Y03825D01*
X037562Y038387D01*
X037509Y038515D01*
X037425Y038625D01*
X037315Y038709D01*
X037187Y038762D01*
X03705Y03878D01*
X036913Y038762D01*
X036785Y038709D01*
X036675Y038625D01*
X036622Y038555D01*
X036611Y038544D01*
X036608Y038538D01*
X030704D01*
X030671Y038576D01*
X03068Y038646D01*
X030662Y038783D01*
X030609Y038911D01*
X030525Y03902D01*
X030415Y039105D01*
X030287Y039158D01*
X03015Y039176D01*
X030013Y039158D01*
X029885Y039105D01*
X029867Y039091D01*
X029866Y039091D01*
X029841Y039075D01*
X029823Y039065D01*
X029787Y039046D01*
X029778Y039042D01*
X029769Y039039D01*
X029769Y039038D01*
X021734D01*
X021727Y039041D01*
X021721Y039044D01*
X021662Y039077D01*
X021642Y03909D01*
X021637Y039092D01*
X021615Y039109D01*
X021487Y039162D01*
X02135Y03918D01*
X021213Y039162D01*
X021085Y039109D01*
X020975Y039025D01*
X020891Y038915D01*
X020838Y038787D01*
X020829Y038718D01*
X020779Y038721D01*
Y041543D01*
X021506Y042271D01*
X021637Y042288D01*
X021765Y042341D01*
X021875Y042425D01*
X021959Y042535D01*
X022012Y042663D01*
X02203Y0428D01*
X022012Y042937D01*
X021959Y043065D01*
X021879Y04317D01*
Y05019D01*
X021925Y050225D01*
X022009Y050335D01*
X022062Y050463D01*
X02208Y0506D01*
X022062Y050737D01*
X022009Y050865D01*
X021925Y050975D01*
X021879Y05101D01*
Y058396D01*
X021866Y058493D01*
X02188Y0586D01*
X021866Y058707D01*
X021879Y058804D01*
Y058943D01*
X023088Y060152D01*
X023136Y060129D01*
X023132Y0601D01*
Y058834D01*
X023128Y058829D01*
X023097Y058794D01*
X023088Y058785D01*
X023075Y058775D01*
X022991Y058665D01*
X022938Y058537D01*
X02292Y0584D01*
X022938Y058263D01*
X022991Y058135D01*
X023075Y058025D01*
X023185Y057941D01*
X023313Y057888D01*
X02345Y05787D01*
X023587Y057888D01*
X023715Y057941D01*
X023825Y058025D01*
X023909Y058135D01*
X023962Y058263D01*
X02398Y0584D01*
X023962Y058537D01*
X023909Y058665D01*
X023825Y058775D01*
X023812Y058785D01*
X023803Y058794D01*
X023772Y058829D01*
X023768Y058834D01*
Y059968D01*
X024033Y060233D01*
X025056D01*
X025063Y060228D01*
X0251Y060195D01*
X02511Y060185D01*
X02512Y060173D01*
X025231Y060087D01*
X02536Y060034D01*
X025499Y060015D01*
X025638Y060034D01*
X025767Y060087D01*
X025826Y060132D01*
X025871Y06011D01*
Y059142D01*
X025867D01*
Y058874D01*
X025866Y058865D01*
X025867Y058856D01*
Y058158D01*
X026733D01*
Y058856D01*
X026734Y058865D01*
X026734Y058868D01*
X026734Y058871D01*
X026733Y058925D01*
Y059142D01*
X026729D01*
Y060134D01*
X02678Y060173D01*
X026865Y060284D01*
X026919Y060413D01*
X026937Y060552D01*
X026919Y06069D01*
X026865Y06082D01*
X026787Y060921D01*
X026802Y060971D01*
X026948D01*
X026981Y060934D01*
X02697Y06085D01*
X026988Y060713D01*
X027041Y060585D01*
X027125Y060475D01*
X027235Y060391D01*
X027363Y060338D01*
X027494Y060321D01*
X027531Y060284D01*
X027531Y060284D01*
X027609Y060223D01*
X0277Y060186D01*
X027798Y060173D01*
X027798Y060173D01*
X02962D01*
X02962Y060173D01*
X029731Y060087D01*
X02986Y060034D01*
X029999Y060015D01*
X030138Y060034D01*
X030267Y060087D01*
X030378Y060173D01*
X030421Y060228D01*
X030447Y060225D01*
X030471Y060211D01*
Y060159D01*
X030469Y060007D01*
X030468Y060004D01*
X030468Y059984D01*
X030466Y059965D01*
X030468Y059948D01*
X030468Y059931D01*
X030471Y059919D01*
Y059753D01*
X030471Y05975D01*
Y059142D01*
X030467D01*
Y058874D01*
X030466Y058865D01*
X030467Y058856D01*
Y058158D01*
X031333D01*
Y058856D01*
X031334Y058865D01*
X031334Y058868D01*
X031334Y058871D01*
X031333Y058925D01*
Y059142D01*
X031329D01*
Y059747D01*
X03133Y05975D01*
Y05993D01*
X03133Y059932D01*
X031334Y059965D01*
X031334Y059968D01*
X031334Y059971D01*
X03133Y060202D01*
Y060236D01*
X03133Y060238D01*
X031365Y060284D01*
X031419Y060413D01*
X031437Y060552D01*
X031419Y06069D01*
X031365Y06082D01*
X031287Y060921D01*
X031302Y060971D01*
X0322D01*
X032298Y060984D01*
X032389Y061022D01*
X032468Y061082D01*
X032553Y061167D01*
X032603Y061146D01*
Y06096D01*
X032565Y060931D01*
X032479Y06082D01*
X032426Y06069D01*
X032408Y060552D01*
X032426Y060413D01*
X032479Y060284D01*
X032565Y060173D01*
X032676Y060087D01*
X032805Y060034D01*
X032944Y060015D01*
X033082Y060034D01*
X033212Y060087D01*
X033323Y060173D01*
X033348Y060205D01*
X033398Y060188D01*
Y059142D01*
X033386D01*
Y058874D01*
X033385Y058865D01*
X033386Y058856D01*
Y058855D01*
X033386Y058846D01*
X033386Y058844D01*
Y058158D01*
X034252D01*
Y05863D01*
X034256Y058657D01*
X034256Y058657D01*
Y060214D01*
X03431Y060284D01*
X034363Y060413D01*
X034381Y060552D01*
X034363Y06069D01*
X03431Y06082D01*
X034224Y060931D01*
X034113Y061016D01*
X033984Y061069D01*
X033845Y061088D01*
X033707Y061069D01*
X033577Y061016D01*
X033466Y060931D01*
X033426Y060878D01*
X033407Y060873D01*
X033381Y060875D01*
X033366Y06088D01*
X033365Y060882D01*
X033364Y060885D01*
X033363Y06089D01*
X033362Y060895D01*
X033361Y060902D01*
X03336Y060905D01*
Y061035D01*
X034239Y061913D01*
X034239Y061913D01*
X034378Y061931D01*
X034507Y061985D01*
X034618Y06207D01*
X034663D01*
X034774Y061985D01*
X034903Y061931D01*
X035042Y061913D01*
X035088Y061919D01*
X035125Y061886D01*
Y058376D01*
X034268Y057518D01*
X031034D01*
X031029Y057522D01*
X030994Y057553D01*
X030985Y057562D01*
X030975Y057575D01*
X030865Y057659D01*
X030737Y057712D01*
X0306Y05773D01*
X030463Y057712D01*
X030335Y057659D01*
X030225Y057575D01*
X030141Y057465D01*
X030088Y057337D01*
X03007Y0572D01*
X030088Y057063D01*
X030141Y056935D01*
X030188Y056874D01*
X030165Y056829D01*
X02651D01*
X026475Y056875D01*
X026365Y056959D01*
X026237Y057012D01*
X0261Y05703D01*
X025963Y057012D01*
X025835Y056959D01*
X025725Y056875D01*
X025641Y056765D01*
X025588Y056637D01*
X02557Y0565D01*
X025588Y056363D01*
X025641Y056235D01*
X025725Y056125D01*
X025835Y056041D01*
X025963Y055988D01*
X0261Y05597D01*
X02618Y05598D01*
X026254Y055971D01*
X033896D01*
X033935Y055941D01*
X034063Y055888D01*
X0342Y05587D01*
X034337Y055888D01*
X034465Y055941D01*
X034503Y05597D01*
X034516Y055971D01*
X041673D01*
X041741Y055968D01*
X041813Y055938D01*
X04195Y05592D01*
X042087Y055938D01*
X042159Y055968D01*
X042227Y055971D01*
X049846D01*
X049885Y055941D01*
X050013Y055888D01*
X05015Y05587D01*
X050287Y055888D01*
X050415Y055941D01*
X050525Y056025D01*
X050609Y056135D01*
X050662Y056263D01*
X05068Y0564D01*
X050662Y056537D01*
X050609Y056665D01*
X050525Y056775D01*
X050415Y056859D01*
X050287Y056912D01*
X05015Y05693D01*
X050013Y056912D01*
X049885Y056859D01*
X049847Y05683D01*
X049834Y056829D01*
X042319D01*
X042215Y056909D01*
X042087Y056962D01*
X04195Y05698D01*
X041813Y056962D01*
X041685Y056909D01*
X041581Y056829D01*
X034521D01*
X034504Y056852D01*
X03452Y056908D01*
X034559Y056924D01*
X034625Y056975D01*
X035669Y058019D01*
X035719Y058085D01*
X035751Y058161D01*
X035762Y058244D01*
Y058395D01*
X035812Y058405D01*
X035841Y058335D01*
X035925Y058225D01*
X036035Y058141D01*
X036163Y058088D01*
X0363Y05807D01*
X036437Y058088D01*
X036565Y058141D01*
X036675Y058225D01*
X036759Y058335D01*
X036812Y058463D01*
X03683Y0586D01*
X036812Y058737D01*
X036759Y058865D01*
X036675Y058975D01*
X036594Y059037D01*
X036587Y059043D01*
X036579Y059048D01*
X036565Y059059D01*
Y061886D01*
X036603Y061919D01*
X036648Y061913D01*
X036787Y061931D01*
X036916Y061985D01*
X037015Y06206D01*
X037065Y062042D01*
Y060931D01*
X037065Y060931D01*
X036979Y06082D01*
X036926Y06069D01*
X036908Y060552D01*
X036926Y060413D01*
X036979Y060284D01*
X037065Y060173D01*
X037176Y060087D01*
X037305Y060034D01*
X037444Y060015D01*
X037582Y060034D01*
X037712Y060087D01*
X037823Y060173D01*
X037865Y060227D01*
X037912Y06022D01*
X037918Y060215D01*
Y059702D01*
X037933Y059591D01*
X037971Y0595D01*
Y059142D01*
X037967D01*
Y058874D01*
X037966Y058865D01*
X037967Y058856D01*
Y058158D01*
X038833D01*
Y058856D01*
X038834Y058865D01*
X038834Y058868D01*
X038834Y058871D01*
X038833Y058925D01*
Y059142D01*
X038829D01*
Y060073D01*
X038815Y060185D01*
X038786Y060253D01*
X03881Y060284D01*
X038863Y060413D01*
X038881Y060552D01*
X038863Y06069D01*
X03881Y06082D01*
X038724Y060931D01*
X038613Y061016D01*
X038484Y061069D01*
X038345Y061088D01*
X038207Y061069D01*
X038077Y061016D01*
X037966Y060931D01*
X037919Y06087D01*
X037869D01*
X037823Y060931D01*
X037823Y060931D01*
Y062756D01*
X03781Y062854D01*
X037772Y062946D01*
X037712Y063024D01*
X037712Y063024D01*
X03763Y063106D01*
X037588Y063151D01*
X03759Y063187D01*
X037591Y06319D01*
X037639Y063213D01*
X03766Y0632D01*
X037815Y063136D01*
X037978Y063097D01*
X038097Y063087D01*
X038133Y063034D01*
X038106Y062946D01*
X038092Y0628D01*
X038106Y062653D01*
X038149Y062512D01*
X038218Y062382D01*
X038312Y062268D01*
X038426Y062175D01*
X038556Y062105D01*
X038697Y062062D01*
X038843Y062048D01*
X03899Y062062D01*
X039131Y062105D01*
X039261Y062175D01*
X039375Y062268D01*
X03944Y062347D01*
X039505D01*
X03957Y062268D01*
X039684Y062175D01*
X039814Y062105D01*
X039955Y062062D01*
X040101Y062048D01*
X040248Y062062D01*
X040389Y062105D01*
X040519Y062175D01*
X04055Y062136D01*
X039494Y061079D01*
X039363Y061062D01*
X039235Y061009D01*
X039125Y060925D01*
X039041Y060815D01*
X038988Y060687D01*
X03897Y06055D01*
X038988Y060413D01*
X039041Y060285D01*
X039125Y060175D01*
X039235Y060091D01*
X039363Y060038D01*
X0395Y06002D01*
X039637Y060038D01*
X039765Y060091D01*
X039875Y060175D01*
X039959Y060285D01*
X040012Y060413D01*
X040022Y060485D01*
X040072D01*
X040081Y060413D01*
X040135Y060284D01*
X04022Y060173D01*
X040331Y060087D01*
X04046Y060034D01*
X040599Y060015D01*
X040738Y060034D01*
X040867Y060087D01*
X040971Y060167D01*
X041021Y060154D01*
Y058942D01*
X041017D01*
Y058674D01*
X041016Y058665D01*
X041017Y058656D01*
Y057958D01*
X041883D01*
Y058656D01*
X041884Y058665D01*
X041884Y058668D01*
X041884Y058671D01*
X041883Y058725D01*
Y058942D01*
X041879D01*
Y060172D01*
X04188Y060173D01*
X041965Y060284D01*
X042019Y060413D01*
X042037Y060552D01*
X042019Y06069D01*
X041965Y06082D01*
X04188Y060931D01*
X041769Y061016D01*
X04164Y061069D01*
X041501Y061088D01*
X041362Y061069D01*
X041233Y061016D01*
X041157Y060958D01*
X041124Y060996D01*
X04134Y061212D01*
X042238D01*
Y061158D01*
X042763D01*
X043061Y060861D01*
X043131Y060807D01*
X043212Y060773D01*
X0433Y060762D01*
X044566D01*
X044594Y06072D01*
X044581Y06069D01*
X044563Y060552D01*
X044581Y060413D01*
X044635Y060284D01*
X04472Y060173D01*
X044831Y060087D01*
X04496Y060034D01*
X045099Y060015D01*
X045238Y060034D01*
X045367Y060087D01*
X045478Y060173D01*
X045507Y06021D01*
X045557Y060193D01*
Y059973D01*
X045535Y05992D01*
X045521Y059809D01*
Y05975D01*
X045535Y059639D01*
X045571Y059553D01*
Y058692D01*
X045567D01*
Y058424D01*
X045566Y058415D01*
X045567Y058406D01*
Y057708D01*
X046433D01*
Y058406D01*
X046434Y058415D01*
X046434Y058418D01*
X046434Y058421D01*
X046433Y058475D01*
Y058692D01*
X046429D01*
Y060087D01*
X046429Y060087D01*
X046416Y060188D01*
Y060219D01*
X046465Y060284D01*
X046519Y060413D01*
X046537Y060552D01*
X046519Y06069D01*
X046506Y06072D01*
X046534Y060762D01*
X05006D01*
X052662Y05816D01*
Y03129D01*
X04976Y028388D01*
X02054D01*
X019638Y02929D01*
Y03945D01*
X019627Y039538D01*
X019593Y039619D01*
X019573Y039646D01*
X01958Y0397D01*
X019562Y039837D01*
X019509Y039965D01*
X019425Y040075D01*
X019315Y040159D01*
X019187Y040212D01*
X01905Y04023D01*
X018913Y040212D01*
X018785Y040159D01*
X018677Y040076D01*
X018658Y040079D01*
X018627Y040089D01*
Y043773D01*
X01863Y0438D01*
X018627Y043827D01*
Y050637D01*
X018637Y050638D01*
X018765Y050691D01*
X018875Y050775D01*
X018959Y050885D01*
X019012Y051013D01*
X01903Y05115D01*
X019012Y051287D01*
X018959Y051415D01*
X018875Y051525D01*
X018765Y051609D01*
X018637Y051662D01*
X018627Y051663D01*
Y057201D01*
X01861Y057324D01*
X018563Y057439D01*
X018487Y057537D01*
X018037Y057987D01*
X017939Y058063D01*
X017824Y05811D01*
X017701Y058127D01*
X017377D01*
Y059646D01*
X018848Y061117D01*
X020842D01*
X020913Y061088D01*
X02105Y06107D01*
X021187Y061088D01*
X021315Y061141D01*
X021425Y061225D01*
X021509Y061335D01*
X021562Y061463D01*
X02158Y0616D01*
X021569Y061683D01*
X021943Y062057D01*
X022019Y062156D01*
X022066Y06227D01*
X022083Y062394D01*
Y064572D01*
X022834Y065323D01*
X026217D01*
X026232Y065323D01*
D02*
G37*
G36*
X054304Y064551D02*
X054254Y064528D01*
X054143Y064622D01*
X053974Y064726D01*
X053791Y064802D01*
X053598Y064848D01*
X0534Y064864D01*
X053202Y064848D01*
X053009Y064802D01*
X052826Y064726D01*
X052657Y064622D01*
X052506Y064494D01*
X052378Y064343D01*
X052274Y064174D01*
X052198Y063991D01*
X052152Y063798D01*
X052136Y0636D01*
X052152Y063402D01*
X052198Y063209D01*
X052274Y063026D01*
X052378Y062857D01*
X052506Y062706D01*
X052657Y062578D01*
X052826Y062474D01*
X053009Y062398D01*
X053202Y062352D01*
X0534Y062336D01*
X053598Y062352D01*
X053791Y062398D01*
X053974Y062474D01*
X054143Y062578D01*
X054254Y062672D01*
X054304Y062649D01*
Y029101D01*
X054258Y029081D01*
X05418Y029147D01*
X054011Y029251D01*
X053828Y029327D01*
X053635Y029373D01*
X053437Y029389D01*
X05324Y029373D01*
X053047Y029327D01*
X052864Y029251D01*
X052694Y029147D01*
X052544Y029019D01*
X052415Y028868D01*
X052311Y028699D01*
X052235Y028516D01*
X052189Y028323D01*
X052174Y028125D01*
X052189Y027927D01*
X052235Y027735D01*
X052311Y027551D01*
X052415Y027382D01*
X052544Y027232D01*
X05268Y027115D01*
X052662Y027065D01*
X018629D01*
X018615Y027113D01*
X01868Y027153D01*
X018831Y027281D01*
X01896Y027432D01*
X019063Y027601D01*
X019139Y027785D01*
X019185Y027977D01*
X019201Y028175D01*
X019185Y028373D01*
X019139Y028566D01*
X019063Y028749D01*
X01896Y028918D01*
X018831Y029069D01*
X01868Y029197D01*
X018511Y029301D01*
X018328Y029377D01*
X018135Y029423D01*
X017937Y029439D01*
X01774Y029423D01*
X017547Y029377D01*
X017364Y029301D01*
X017194Y029197D01*
X017044Y029069D01*
X016915Y028918D01*
X016811Y028749D01*
X016746Y028591D01*
X016696Y028601D01*
X016653Y036747D01*
X016698Y036769D01*
X016735Y036741D01*
X016863Y036688D01*
X017Y03667D01*
X017137Y036688D01*
X017265Y036741D01*
X017375Y036825D01*
X017459Y036935D01*
X017512Y037063D01*
X01753Y0372D01*
X017512Y037337D01*
X017459Y037465D01*
X017375Y037575D01*
X017362Y037585D01*
X017353Y037594D01*
X017322Y037629D01*
X017318Y037634D01*
Y056193D01*
X017356Y056226D01*
X0174Y05622D01*
X017537Y056238D01*
X017623Y056274D01*
X017673Y05624D01*
Y044108D01*
X017641Y044065D01*
X017588Y043937D01*
X01757Y0438D01*
X017588Y043663D01*
X017641Y043535D01*
X017673Y043492D01*
Y035873D01*
X017638Y035787D01*
X01762Y03565D01*
X017638Y035513D01*
X017691Y035385D01*
X017775Y035275D01*
X017885Y035191D01*
X018013Y035138D01*
X01815Y03512D01*
X018287Y035138D01*
X018415Y035191D01*
X018525Y035275D01*
X018609Y035385D01*
X018662Y035513D01*
X01868Y03565D01*
X018662Y035787D01*
X018627Y035873D01*
Y039311D01*
X018658Y039321D01*
X018677Y039324D01*
X018785Y039241D01*
X018913Y039188D01*
X018962Y039182D01*
Y02915D01*
X018973Y029062D01*
X019007Y028981D01*
X019061Y028911D01*
X020161Y027811D01*
X020231Y027757D01*
X020312Y027723D01*
X0204Y027712D01*
X0499D01*
X049988Y027723D01*
X050069Y027757D01*
X050139Y027811D01*
X053239Y030911D01*
X053293Y030981D01*
X053327Y031062D01*
X053338Y03115D01*
Y0583D01*
X053327Y058388D01*
X053293Y058469D01*
X053239Y058539D01*
X050439Y061339D01*
X050369Y061393D01*
X050288Y061427D01*
X0502Y061438D01*
X043836D01*
Y061493D01*
X043793Y06149D01*
X04376Y061484D01*
X043733Y061476D01*
X043712Y061468D01*
X043697Y061458D01*
X043688Y061447D01*
X043685Y061435D01*
Y061575D01*
X04345D01*
Y061725D01*
X043685D01*
Y061865D01*
X043688Y061853D01*
X043697Y061842D01*
X043712Y061832D01*
X043733Y061824D01*
X04376Y061816D01*
X043793Y06181D01*
X043832Y061806D01*
X043836Y061806D01*
Y062017D01*
X043836Y062017D01*
X043836D01*
X043861Y062056D01*
X04388Y06207D01*
X043925D01*
X044036Y061985D01*
X044165Y061931D01*
X044304Y061913D01*
X044443Y061931D01*
X044572Y061985D01*
X044683Y06207D01*
X044768Y062181D01*
X044822Y06231D01*
X04484Y062449D01*
X044822Y062588D01*
X044778Y062694D01*
X044807Y062744D01*
X044897D01*
X044788Y062836D01*
X04474Y06287D01*
X044695Y062895D01*
X044655Y062912D01*
X044619Y062921D01*
X044587D01*
X044559Y062912D01*
X044536Y062895D01*
X044716Y063075D01*
X044706D01*
Y06315D01*
X044631D01*
Y063556D01*
X044622D01*
Y063996D01*
X044611Y064078D01*
X04458Y064155D01*
X044529Y064221D01*
X043825Y064925D01*
X043759Y064976D01*
X043682Y065007D01*
X0436Y065018D01*
X043384D01*
X043379Y065022D01*
X043344Y065053D01*
X043335Y065062D01*
X043325Y065075D01*
X043215Y065159D01*
X043087Y065212D01*
X04295Y06523D01*
X042813Y065212D01*
X042795Y065205D01*
X042756Y065227D01*
X042709Y065342D01*
X042633Y065441D01*
X04222Y065854D01*
X042239Y0659D01*
X054304D01*
Y064551D01*
D02*
G37*
G36*
X043155Y064849D02*
X043204Y064806D01*
X043227Y064789D01*
X043249Y064774D01*
X043271Y064762D01*
X043291Y064752D01*
X043311Y064745D01*
X043329Y064741D01*
X043347Y06474D01*
Y06466D01*
X043329Y064659D01*
X043311Y064655D01*
X043291Y064648D01*
X043271Y064638D01*
X043249Y064626D01*
X043227Y064611D01*
X043204Y064594D01*
X043155Y064551D01*
X043129Y064525D01*
Y064875D01*
X043155Y064849D01*
D02*
G37*
G36*
X043986Y063864D02*
Y063586D01*
X043977Y063579D01*
Y06315D01*
X043827D01*
Y06355D01*
X043796Y063545D01*
X043698Y063505D01*
X043613Y063439D01*
X043548Y063355D01*
X043528Y063307D01*
X043474D01*
X043454Y063355D01*
X043389Y063439D01*
X043304Y063505D01*
X043205Y063545D01*
X043174Y06355D01*
Y06315D01*
X043024D01*
Y06355D01*
X042993Y063545D01*
X042895Y063505D01*
X042823Y063449D01*
X042773Y063468D01*
Y06416D01*
X042823Y064187D01*
X04295Y06417D01*
X043087Y064188D01*
X043215Y064241D01*
X043325Y064325D01*
X043335Y064338D01*
X043344Y064347D01*
X043379Y064378D01*
X043384Y064382D01*
X043468D01*
X043986Y063864D01*
D02*
G37*
G36*
X029351Y062895D02*
X029348Y062915D01*
X029339Y062933D01*
X029324Y062949D01*
X029303Y062962D01*
X029276Y062974D01*
X029243Y062983D01*
X029204Y062991D01*
X029159Y062996D01*
X029117Y062998D01*
X029044Y062993D01*
X029027Y06299D01*
X029013Y062986D01*
X029001Y062981D01*
X028992Y062976D01*
X028985Y062971D01*
Y063329D01*
X028992Y063324D01*
X029001Y063319D01*
X029013Y063314D01*
X029027Y06331D01*
X029044Y063307D01*
X029063Y063305D01*
X029108Y063301D01*
X029109Y063301D01*
X029204Y063309D01*
X029243Y063317D01*
X029276Y063326D01*
X029303Y063338D01*
X029324Y063351D01*
X029339Y063367D01*
X029348Y063385D01*
X029351Y063405D01*
Y062895D01*
D02*
G37*
G36*
X04372Y062971D02*
X043713Y062976D01*
X043703Y062981D01*
X043692Y062986D01*
X043677Y06299D01*
X043661Y062993D01*
X043642Y062995D01*
X043596Y062999D01*
X043541Y063D01*
Y0633D01*
X04357Y0633D01*
X043661Y063307D01*
X043677Y06331D01*
X043692Y063314D01*
X043703Y063319D01*
X043713Y063324D01*
X04372Y063329D01*
Y062971D01*
D02*
G37*
G36*
X043289Y063324D02*
X043298Y063319D01*
X04331Y063314D01*
X043324Y06331D01*
X043341Y063307D01*
X04336Y063305D01*
X043405Y063301D01*
X04346Y0633D01*
Y063D01*
X043431Y063D01*
X043341Y062993D01*
X043324Y06299D01*
X04331Y062986D01*
X043298Y062981D01*
X043289Y062976D01*
X043282Y062971D01*
Y063329D01*
X043289Y063324D01*
D02*
G37*
G36*
X034458Y062971D02*
X034442Y062986D01*
X034425Y062999D01*
X034407Y063011D01*
X034388Y063022D01*
X034367Y06303D01*
X034346Y063037D01*
X034324Y063043D01*
X034301Y063047D01*
X034277Y063049D01*
X034251Y06305D01*
Y06325D01*
X034277Y063251D01*
X034301Y063253D01*
X034324Y063257D01*
X034346Y063263D01*
X034367Y06327D01*
X034388Y063278D01*
X034407Y063289D01*
X034425Y063301D01*
X034442Y063314D01*
X034458Y063329D01*
Y062971D01*
D02*
G37*
G36*
X028189Y063324D02*
X028198Y063319D01*
X02821Y063314D01*
X028224Y06331D01*
X028241Y063307D01*
X02826Y063305D01*
X028305Y063301D01*
X02836Y0633D01*
Y063D01*
X028331Y063D01*
X028241Y062993D01*
X028224Y06299D01*
X02821Y062986D01*
X028198Y062981D01*
X028189Y062976D01*
X028182Y062971D01*
Y063329D01*
X028189Y063324D01*
D02*
G37*
G36*
X037294Y063158D02*
X037289Y06314D01*
X037289Y06312D01*
X037295Y063096D01*
X037306Y06307D01*
X037323Y06304D01*
X037345Y063008D01*
X037373Y062974D01*
X037446Y062895D01*
X037305Y062754D01*
X037264Y062793D01*
X037192Y062855D01*
X03716Y062877D01*
X03713Y062894D01*
X037104Y062905D01*
X03708Y062911D01*
X03706Y062911D01*
X037042Y062906D01*
X037027Y062895D01*
X037305Y063173D01*
X037294Y063158D01*
D02*
G37*
G36*
X0364Y06294D02*
X036355Y06289D01*
X036337Y062866D01*
X036322Y062843D01*
X036309Y062821D01*
X036299Y0628D01*
X036292Y062781D01*
X036288Y062762D01*
X036287Y062744D01*
X036207D01*
X036205Y062762D01*
X036201Y062781D01*
X036194Y0628D01*
X036185Y062821D01*
X036172Y062843D01*
X036157Y062866D01*
X036139Y06289D01*
X036094Y06294D01*
X036068Y062967D01*
X036426D01*
X0364Y06294D01*
D02*
G37*
G36*
X035596D02*
X035552Y06289D01*
X035534Y062866D01*
X035518Y062843D01*
X035506Y062821D01*
X035496Y0628D01*
X035489Y062781D01*
X035485Y062762D01*
X035484Y062744D01*
X035404D01*
X035402Y062762D01*
X035398Y062781D01*
X035391Y0628D01*
X035381Y062821D01*
X035369Y062843D01*
X035354Y062866D01*
X035336Y06289D01*
X035291Y06294D01*
X035265Y062967D01*
X035623D01*
X035596Y06294D01*
D02*
G37*
G36*
X044345Y062838D02*
X044349Y062819D01*
X044356Y062799D01*
X044366Y062778D01*
X044379Y062756D01*
X044394Y062733D01*
X044412Y062709D01*
X044457Y062659D01*
X044483Y062632D01*
X044125D01*
X044151Y062659D01*
X044196Y062709D01*
X044214Y062733D01*
X044229Y062756D01*
X044242Y062778D01*
X044251Y062799D01*
X044258Y062819D01*
X044263Y062838D01*
X044264Y062856D01*
X044344D01*
X044345Y062838D01*
D02*
G37*
G36*
X04182Y063703D02*
Y063388D01*
X041778Y063289D01*
X04176Y06315D01*
X041775Y063036D01*
X041672Y062932D01*
X041626Y062913D01*
X041515Y062828D01*
X041469Y062768D01*
X04134D01*
X041241Y062755D01*
X04115Y062718D01*
X041072Y062657D01*
X040765Y062351D01*
X040726Y062382D01*
X040796Y062512D01*
X040838Y062653D01*
X040853Y0628D01*
X040838Y062946D01*
X040812Y063034D01*
X040848Y063087D01*
X040967Y063097D01*
X041129Y063136D01*
X041284Y0632D01*
X041427Y063287D01*
X041554Y063396D01*
X041663Y063523D01*
X04175Y063666D01*
X04177Y063713D01*
X04182Y063703D01*
D02*
G37*
G36*
X041759Y062232D02*
X04174Y062243D01*
X041721Y062253D01*
X041701Y062262D01*
X04168Y062269D01*
X041659Y062275D01*
X041636Y06228D01*
X041614Y062284D01*
X04159Y062287D01*
X041541Y06229D01*
X041488Y06249D01*
X041514Y06249D01*
X041538Y062493D01*
X041561Y062498D01*
X041582Y062504D01*
X041601Y062512D01*
X041619Y062522D01*
X041635Y062534D01*
X04165Y062548D01*
X041663Y062563D01*
X041675Y062581D01*
X041759Y062232D01*
D02*
G37*
G36*
X023849Y062395D02*
X023806Y062346D01*
X023789Y062323D01*
X023774Y062301D01*
X023762Y062279D01*
X023752Y062259D01*
X023745Y062239D01*
X023741Y062221D01*
X02374Y062203D01*
X02366D01*
X023659Y062221D01*
X023655Y062239D01*
X023648Y062259D01*
X023638Y062279D01*
X023626Y062301D01*
X023611Y062323D01*
X023594Y062346D01*
X023551Y062395D01*
X023525Y062421D01*
X023875D01*
X023849Y062395D01*
D02*
G37*
G36*
X029201Y062193D02*
X029164Y062193D01*
X029096Y062189D01*
X029067Y062185D01*
X02904Y062179D01*
X029016Y062173D01*
X028994Y062165D01*
X028975Y062156D01*
X028959Y062145D01*
X028945Y062134D01*
X028888Y06219D01*
X0289Y062204D01*
X02891Y06222D01*
X02892Y062239D01*
X028927Y062261D01*
X028934Y062285D01*
X028939Y062312D01*
X028943Y062342D01*
X028948Y062409D01*
X028948Y062447D01*
X029201Y062193D01*
D02*
G37*
G36*
X034236D02*
X034214Y062193D01*
X034193Y06219D01*
X034172Y062186D01*
X034151Y062179D01*
X034131Y062171D01*
X034111Y062161D01*
X034091Y06215D01*
X034072Y062136D01*
X034053Y062121D01*
X034035Y062103D01*
X033893Y062245D01*
X03391Y062263D01*
X033926Y062282D01*
X033939Y062301D01*
X033951Y062321D01*
X033961Y062341D01*
X033969Y062361D01*
X033975Y062382D01*
X03398Y062403D01*
X033982Y062425D01*
X033983Y062447D01*
X034236Y062193D01*
D02*
G37*
G36*
X02672Y063703D02*
Y063388D01*
X026678Y063289D01*
X02666Y06315D01*
X026675Y063036D01*
X026572Y062932D01*
X026526Y062913D01*
X026415Y062828D01*
X02633Y062717D01*
X026277Y062588D01*
X026258Y062449D01*
X026277Y06231D01*
X02633Y062181D01*
X026415Y06207D01*
X026483Y062018D01*
X026466Y061968D01*
X024232D01*
X024025Y062175D01*
X024053Y062206D01*
X024062Y062215D01*
X024075Y062225D01*
X024159Y062335D01*
X024212Y062463D01*
X02423Y0626D01*
X024279Y062604D01*
X024307Y062512D01*
X024376Y062382D01*
X02447Y062268D01*
X024584Y062175D01*
X024714Y062105D01*
X024855Y062062D01*
X025001Y062048D01*
X025148Y062062D01*
X025289Y062105D01*
X025419Y062175D01*
X025533Y062268D01*
X025626Y062382D01*
X025696Y062512D01*
X025738Y062653D01*
X025753Y0628D01*
X025738Y062946D01*
X025712Y063034D01*
X025748Y063087D01*
X025867Y063097D01*
X02603Y063136D01*
X026184Y0632D01*
X026327Y063287D01*
X026454Y063396D01*
X026563Y063523D01*
X02665Y063666D01*
X02667Y063713D01*
X02672Y063703D01*
D02*
G37*
G36*
X042896Y062282D02*
X042852Y0622D01*
X042841Y062175D01*
X042825Y062128D01*
X042821Y062107D01*
X042818Y062088D01*
X042817Y062069D01*
X042697Y06204D01*
X042695Y062062D01*
X042691Y062083D01*
X042685Y062104D01*
X042676Y062124D01*
X042664Y062143D01*
X042649Y062162D01*
X042632Y06218D01*
X042613Y062197D01*
X04259Y062214D01*
X042566Y06223D01*
X042914Y062313D01*
X042896Y062282D01*
D02*
G37*
G36*
X035929Y061886D02*
Y05901D01*
X035875Y058915D01*
X035857Y058888D01*
X035857Y058888D01*
X035857Y058888D01*
X035856Y058884D01*
X035841Y058865D01*
X035812Y058795D01*
X035762Y058805D01*
Y061886D01*
X0358Y061919D01*
X035845Y061913D01*
X035891Y061919D01*
X035929Y061886D01*
D02*
G37*
G36*
X042817Y061962D02*
X042819Y061942D01*
X042822Y061924D01*
X042826Y061908D01*
X042832Y061894D01*
X042838Y061884D01*
X042846Y061875D01*
X042855Y061869D01*
X042865Y061865D01*
X042877Y061864D01*
X042637D01*
X042648Y061865D01*
X042658Y061869D01*
X042667Y061875D01*
X042675Y061884D01*
X042682Y061894D01*
X042687Y061908D01*
X042691Y061924D01*
X042694Y061942D01*
X042696Y061962D01*
X042697Y061985D01*
X042817D01*
X042817Y061962D01*
D02*
G37*
G36*
X042516Y061492D02*
X042516Y061498D01*
X042516Y061503D01*
X042515Y061507D01*
X042513Y06151D01*
X042512Y061512D01*
X04251Y061513D01*
X042508Y061513D01*
X042505Y061512D01*
X042502Y06151D01*
X042499Y061508D01*
X04243Y061608D01*
X042446Y061625D01*
X042495Y06168D01*
X042502Y061692D01*
X042508Y061702D01*
X042513Y06171D01*
X042515Y061718D01*
X042516Y061725D01*
Y061492D01*
D02*
G37*
G36*
X042976Y061576D02*
X042972Y061566D01*
X042972Y061554D01*
X042975Y06154D01*
X042982Y061524D01*
X042992Y061506D01*
X043006Y061486D01*
X043024Y061464D01*
X04307Y061415D01*
X042965Y06135D01*
X042941Y061373D01*
X042898Y061409D01*
X042879Y061423D01*
X042861Y061433D01*
X042845Y06144D01*
X042831Y061444D01*
X042817Y061444D01*
X042806Y061442D01*
X042796Y061436D01*
X042984Y061585D01*
X042976Y061576D01*
D02*
G37*
G36*
X037544Y060915D02*
X037547Y060891D01*
X037551Y060868D01*
X037556Y060846D01*
X037563Y060825D01*
X037572Y060805D01*
X037582Y060785D01*
X037594Y060767D01*
X037608Y06075D01*
X037623Y060734D01*
X037265D01*
X03728Y06075D01*
X037293Y060767D01*
X037305Y060785D01*
X037315Y060805D01*
X037324Y060825D01*
X037331Y060846D01*
X037337Y060868D01*
X037341Y060891D01*
X037343Y060915D01*
X037344Y060941D01*
X037544D01*
X037544Y060915D01*
D02*
G37*
G36*
X033082Y060921D02*
X033082Y060896D01*
X033084Y060871D01*
X033088Y060848D01*
X033092Y060825D01*
X033098Y060803D01*
X033105Y060782D01*
X033114Y060762D01*
X033124Y060742D01*
X033135Y060724D01*
X033148Y060706D01*
X032794Y060759D01*
X03281Y060772D01*
X032825Y060787D01*
X032838Y060803D01*
X03285Y060821D01*
X03286Y060839D01*
X032868Y060859D01*
X032874Y060881D01*
X032878Y060904D01*
X032881Y060928D01*
X032882Y060953D01*
X033082Y060921D01*
D02*
G37*
G36*
X04071Y060936D02*
X040711Y060917D01*
X040714Y060897D01*
X040719Y060876D01*
X040726Y060853D01*
X040735Y06083D01*
X040746Y060805D01*
X040775Y060752D01*
X040792Y060724D01*
X040811Y060695D01*
X04046Y060766D01*
X040485Y060783D01*
X040507Y060801D01*
X040526Y060819D01*
X040543Y060838D01*
X040557Y060857D01*
X040569Y060877D01*
X040578Y060897D01*
X040585Y060918D01*
X040589Y060939D01*
X04059Y060961D01*
X04071Y060936D01*
D02*
G37*
G36*
X039839Y060747D02*
X039822Y060729D01*
X039806Y060711D01*
X039793Y060692D01*
X039781Y060673D01*
X039772Y060654D01*
X039764Y060634D01*
X039758Y060614D01*
X039753Y060594D01*
X039751Y060573D01*
X03975Y060553D01*
X039502Y0608D01*
X039523Y060801D01*
X039544Y060803D01*
X039564Y060808D01*
X039584Y060814D01*
X039604Y060822D01*
X039623Y060831D01*
X039642Y060843D01*
X039661Y060856D01*
X039679Y060872D01*
X039697Y060889D01*
X039839Y060747D01*
D02*
G37*
G36*
X027751Y060827D02*
X027753Y060806D01*
X027758Y060786D01*
X027764Y060766D01*
X027772Y060746D01*
X027781Y060727D01*
X027793Y060708D01*
X027806Y060689D01*
X027822Y060671D01*
X027839Y060653D01*
X027697Y060511D01*
X027679Y060528D01*
X027661Y060544D01*
X027642Y060557D01*
X027623Y060569D01*
X027604Y060578D01*
X027584Y060586D01*
X027564Y060592D01*
X027544Y060597D01*
X027523Y060599D01*
X027503Y0606D01*
X02775Y060848D01*
X027751Y060827D01*
D02*
G37*
G36*
X029816Y060372D02*
X0298Y060387D01*
X029783Y060401D01*
X029765Y060413D01*
X029746Y060423D01*
X029726Y060432D01*
X029705Y060439D01*
X029683Y060444D01*
X02966Y060448D01*
X029635Y060451D01*
X02961Y060452D01*
Y060652D01*
X029635Y060652D01*
X02966Y060655D01*
X029683Y060659D01*
X029705Y060664D01*
X029726Y060671D01*
X029746Y06068D01*
X029765Y06069D01*
X029783Y060702D01*
X0298Y060716D01*
X029816Y060731D01*
Y060372D01*
D02*
G37*
G36*
X025316D02*
X02529Y060399D01*
X025239Y060443D01*
X025215Y060461D01*
X025192Y060477D01*
X025171Y060489D01*
X02515Y060499D01*
X02513Y060506D01*
X025111Y06051D01*
X025093Y060512D01*
Y060592D01*
X025111Y060593D01*
X02513Y060597D01*
X02515Y060604D01*
X025171Y060614D01*
X025192Y060626D01*
X025215Y060642D01*
X025239Y06066D01*
X02529Y060704D01*
X025316Y060731D01*
Y060372D01*
D02*
G37*
G36*
X022017Y065854D02*
X021269Y065106D01*
X021193Y065008D01*
X021146Y064893D01*
X02113Y064769D01*
Y062591D01*
X020794Y062256D01*
X020718Y062157D01*
X020682Y06207D01*
X018651D01*
X018527Y062054D01*
X018412Y062006D01*
X018314Y061931D01*
X01658Y060197D01*
X01653Y060217D01*
X0165Y065865D01*
X016535Y0659D01*
X021997D01*
X022017Y065854D01*
D02*
G37*
G36*
X038521Y060364D02*
X038516Y060354D01*
X038512Y060343D01*
X038508Y060328D01*
X038505Y060312D01*
X038502Y060293D01*
X038499Y060247D01*
X038498Y060192D01*
X038198Y060189D01*
X038197Y060218D01*
X03819Y060308D01*
X038187Y060325D01*
X038183Y060339D01*
X038179Y060351D01*
X038173Y06036D01*
X038168Y060367D01*
X038526Y06037D01*
X038521Y060364D01*
D02*
G37*
G36*
X04617Y060359D02*
X046163Y060352D01*
X046158Y060343D01*
X046153Y060331D01*
X046148Y060317D01*
X046145Y0603D01*
X046142Y060281D01*
X046138Y060236D01*
X046137Y060181D01*
X045837Y060202D01*
X045836Y060231D01*
X04583Y060321D01*
X045828Y060338D01*
X045824Y060352D01*
X045821Y060363D01*
X045817Y060372D01*
X045812Y060379D01*
X04617Y060359D01*
D02*
G37*
G36*
X034011Y060356D02*
X034004Y060349D01*
X033999Y06034D01*
X033993Y060328D01*
X033989Y060314D01*
X033985Y060297D01*
X033982Y060279D01*
X033978Y060233D01*
X033977Y060178D01*
X033677Y060205D01*
X033677Y060234D01*
X033671Y060325D01*
X033668Y060341D01*
X033665Y060355D01*
X033662Y060367D01*
X033658Y060376D01*
X033653Y060382D01*
X034011Y060356D01*
D02*
G37*
G36*
X04164Y060337D02*
X041632Y06033D01*
X041626Y060322D01*
X04162Y06031D01*
X041614Y060296D01*
X04161Y06028D01*
X041606Y060262D01*
X041604Y06024D01*
X0416Y060191D01*
X0416Y060162D01*
X0413Y060239D01*
X0413Y060268D01*
X041291Y060403D01*
X041289Y060408D01*
X04164Y060337D01*
D02*
G37*
G36*
X026493Y060313D02*
X026485Y060308D01*
X026478Y060301D01*
X026471Y060291D01*
X026466Y060278D01*
X026461Y060263D01*
X026457Y060245D01*
X026454Y060225D01*
X026452Y060201D01*
X02645Y060147D01*
X02615Y060163D01*
X026164Y060454D01*
X026493Y060313D01*
D02*
G37*
G36*
X03108Y060369D02*
X031074Y060362D01*
X031069Y060352D01*
X031065Y060341D01*
X031061Y060326D01*
X031058Y06031D01*
X031055Y060291D01*
X031052Y060245D01*
X031051Y060226D01*
X031056Y059965D01*
X030744D01*
X030745Y059968D01*
X030746Y059977D01*
X030747Y059992D01*
X03075Y060223D01*
X030743Y06031D01*
X03074Y060327D01*
X030736Y060341D01*
X030732Y060353D01*
X030727Y060362D01*
X030721Y060369D01*
X03108Y060369D01*
D02*
G37*
G36*
X038556Y058865D02*
X038244D01*
X038245Y058868D01*
X038246Y058877D01*
X038247Y058892D01*
X03825Y059165D01*
X03855D01*
X038556Y058865D01*
D02*
G37*
G36*
X033976D02*
X033663D01*
X033666Y058868D01*
X033668Y058877D01*
X03367Y058892D01*
X033673Y05894D01*
X033677Y059165D01*
X033977D01*
X033976Y058865D01*
D02*
G37*
G36*
X031056D02*
X030744D01*
X030745Y058868D01*
X030746Y058877D01*
X030747Y058892D01*
X03075Y059165D01*
X03105D01*
X031056Y058865D01*
D02*
G37*
G36*
X026456D02*
X026144D01*
X026145Y058868D01*
X026146Y058877D01*
X026147Y058892D01*
X02615Y059165D01*
X02645D01*
X026456Y058865D01*
D02*
G37*
G36*
X036288Y05898D02*
X036293Y058961D01*
X0363Y058942D01*
X03631Y058923D01*
X036323Y058905D01*
X036339Y058886D01*
X036358Y058867D01*
X03638Y058849D01*
X036405Y05883D01*
X036433Y058812D01*
X036091Y058737D01*
X036113Y058771D01*
X036178Y058887D01*
X036188Y05891D01*
X036196Y058931D01*
X036202Y05895D01*
X036206Y058967D01*
X036207Y058982D01*
X036287Y059D01*
X036288Y05898D01*
D02*
G37*
G36*
X041606Y058665D02*
X041294D01*
X041295Y058668D01*
X041296Y058677D01*
X041297Y058692D01*
X0413Y058965D01*
X0416D01*
X041606Y058665D01*
D02*
G37*
G36*
X023491Y058779D02*
X023495Y058761D01*
X023502Y058741D01*
X023512Y058721D01*
X023524Y058699D01*
X023539Y058677D01*
X023556Y058654D01*
X023599Y058605D01*
X023625Y058579D01*
X023275D01*
X023301Y058605D01*
X023344Y058654D01*
X023361Y058677D01*
X023376Y058699D01*
X023388Y058721D01*
X023398Y058741D01*
X023405Y058761D01*
X023409Y058779D01*
X02341Y058797D01*
X02349D01*
X023491Y058779D01*
D02*
G37*
G36*
X046156Y058415D02*
X045844D01*
X045845Y058418D01*
X045846Y058427D01*
X045847Y058442D01*
X04585Y058715D01*
X04615D01*
X046156Y058415D01*
D02*
G37*
G36*
X030805Y057349D02*
X030854Y057306D01*
X030877Y057289D01*
X030899Y057274D01*
X030921Y057262D01*
X030941Y057252D01*
X030961Y057245D01*
X030979Y057241D01*
X030997Y05724D01*
Y05716D01*
X030979Y057159D01*
X030961Y057155D01*
X030941Y057148D01*
X030921Y057138D01*
X030899Y057126D01*
X030877Y057111D01*
X030854Y057094D01*
X030805Y057051D01*
X030779Y057025D01*
Y057375D01*
X030805Y057349D01*
D02*
G37*
G36*
X026338Y056582D02*
X026345Y056575D01*
X026354Y056569D01*
X026367Y056564D01*
X026381Y05656D01*
X026399Y056556D01*
X026419Y056554D01*
X026467Y05655D01*
X026495Y05655D01*
X026479Y05625D01*
X026194Y056268D01*
X026334Y056589D01*
X026338Y056582D01*
D02*
G37*
G36*
X042166Y056579D02*
X042174Y056573D01*
X042185Y056568D01*
X042198Y056563D01*
X042214Y056559D01*
X042232Y056556D01*
X042253Y056553D01*
X042301Y05655D01*
X042329Y05655D01*
X04225Y05625D01*
X04209Y056243D01*
X04195Y05638D01*
X04216Y056586D01*
X042166Y056579D01*
D02*
G37*
G36*
X04195Y05638D02*
X04181Y056243D01*
X04165Y05625D01*
X041571Y05655D01*
X041599Y05655D01*
X041647Y056553D01*
X041668Y056556D01*
X041686Y056559D01*
X041702Y056563D01*
X041715Y056568D01*
X041726Y056573D01*
X041734Y056579D01*
X04174Y056586D01*
X04195Y05638D01*
D02*
G37*
G36*
X049971Y056225D02*
X049965Y05623D01*
X049957Y056234D01*
X049946Y056238D01*
X049932Y056241D01*
X049916Y056244D01*
X049877Y056248D01*
X049828Y05625D01*
X0498Y05625D01*
Y05655D01*
X049828Y05655D01*
X049916Y056556D01*
X049932Y056559D01*
X049946Y056562D01*
X049957Y056566D01*
X049965Y05657D01*
X049971Y056575D01*
Y056225D01*
D02*
G37*
G36*
X034385Y05657D02*
X034393Y056566D01*
X034404Y056562D01*
X034418Y056559D01*
X034434Y056556D01*
X034473Y056552D01*
X034522Y05655D01*
X03455Y05655D01*
Y05625D01*
X034522Y05625D01*
X034434Y056244D01*
X034418Y056241D01*
X034404Y056238D01*
X034393Y056234D01*
X034385Y05623D01*
X034379Y056225D01*
Y056575D01*
X034385Y05657D01*
D02*
G37*
G36*
X034021Y056225D02*
X034015Y05623D01*
X034007Y056234D01*
X033996Y056238D01*
X033982Y056241D01*
X033966Y056244D01*
X033927Y056248D01*
X033878Y05625D01*
X03385Y05625D01*
Y05655D01*
X033878Y05655D01*
X033966Y056556D01*
X033982Y056559D01*
X033996Y056562D01*
X034007Y056566D01*
X034015Y05657D01*
X034021Y056575D01*
Y056225D01*
D02*
G37*
G36*
X021601Y05097D02*
X021603Y050946D01*
X021608Y050924D01*
X021614Y050903D01*
X021621Y050884D01*
X021631Y050866D01*
X021642Y05085D01*
X021655Y050835D01*
X021669Y050822D01*
X021686Y05081D01*
X021343Y05074D01*
X021354Y050757D01*
X021363Y050775D01*
X021372Y050794D01*
X021379Y050814D01*
X021386Y050835D01*
X021391Y050856D01*
X021395Y050878D01*
X021398Y050901D01*
X0214Y05095D01*
X0216Y050995D01*
X021601Y05097D01*
D02*
G37*
G36*
X021686Y05039D02*
X021669Y050378D01*
X021655Y050365D01*
X021642Y05035D01*
X021631Y050334D01*
X021621Y050316D01*
X021614Y050297D01*
X021608Y050276D01*
X021603Y050254D01*
X021601Y05023D01*
X0216Y050205D01*
X0214Y05025D01*
X021399Y050275D01*
X021395Y050322D01*
X021391Y050344D01*
X021386Y050365D01*
X021379Y050386D01*
X021372Y050406D01*
X021363Y050425D01*
X021354Y050443D01*
X021343Y05046D01*
X021686Y05039D01*
D02*
G37*
G36*
X021601Y043154D02*
X021603Y04313D01*
X021607Y043108D01*
X021612Y043086D01*
X021619Y043065D01*
X021627Y043046D01*
X021637Y043027D01*
X021648Y04301D01*
X021661Y042994D01*
X021675Y042979D01*
X021325D01*
X021339Y042994D01*
X021352Y04301D01*
X021363Y043027D01*
X021373Y043046D01*
X021381Y043065D01*
X021388Y043086D01*
X021393Y043108D01*
X021397Y04313D01*
X021399Y043154D01*
X0214Y043179D01*
X0216D01*
X021601Y043154D01*
D02*
G37*
G36*
X021497Y04255D02*
X021477Y042549D01*
X021456Y042547D01*
X021436Y042542D01*
X021416Y042536D01*
X021396Y042528D01*
X021377Y042519D01*
X021358Y042507D01*
X021339Y042494D01*
X021321Y042478D01*
X021303Y042461D01*
X021161Y042603D01*
X021178Y042621D01*
X021194Y042639D01*
X021207Y042658D01*
X021219Y042677D01*
X021228Y042696D01*
X021236Y042716D01*
X021242Y042736D01*
X021247Y042756D01*
X021249Y042777D01*
X02125Y042797D01*
X021497Y04255D01*
D02*
G37*
G36*
X016662Y057237D02*
X016777Y05719D01*
X0169Y057173D01*
X016927D01*
X016982Y057151D01*
X017Y057092D01*
X016941Y057015D01*
X016924Y056973D01*
X016874Y056909D01*
X016843Y056832D01*
X016842Y056825D01*
X016775Y056758D01*
X016724Y056692D01*
X016693Y056616D01*
X016682Y056533D01*
Y0408D01*
X016632Y0408D01*
X016545Y057264D01*
X016595Y057289D01*
X016662Y057237D01*
D02*
G37*
G36*
X019287Y039617D02*
X019286Y039604D01*
X019287Y03959D01*
X019289Y039577D01*
X019294Y039563D01*
X0193Y039549D01*
X019308Y039535D01*
X019317Y039521D01*
X019329Y039507D01*
X019342Y039492D01*
X019258Y039408D01*
X019243Y039421D01*
X019229Y039433D01*
X019215Y039442D01*
X019201Y03945D01*
X019187Y039456D01*
X019173Y039461D01*
X01916Y039463D01*
X019146Y039464D01*
X019133Y039463D01*
X019119Y03946D01*
X01929Y039631D01*
X019287Y039617D01*
D02*
G37*
G36*
X021518Y038839D02*
X021597Y038795D01*
X021621Y038784D01*
X021643Y038776D01*
X021665Y038769D01*
X021686Y038764D01*
X021706Y038761D01*
X021725Y03876D01*
X02175Y03864D01*
X021728Y038639D01*
X021707Y038635D01*
X021687Y038629D01*
X021667Y03862D01*
X021648Y038609D01*
X021629Y038595D01*
X021611Y038578D01*
X021594Y03856D01*
X021576Y038538D01*
X02156Y038514D01*
X02149Y038857D01*
X021518Y038839D01*
D02*
G37*
G36*
X029938Y038514D02*
X029922Y038538D01*
X029905Y038559D01*
X029888Y038578D01*
X02987Y038595D01*
X029852Y038608D01*
X029832Y03862D01*
X029813Y038629D01*
X029792Y038635D01*
X029772Y038639D01*
X02975Y03864D01*
X029778Y03876D01*
X029796Y038761D01*
X029816Y038764D01*
X029837Y038769D01*
X029858Y038775D01*
X029881Y038784D01*
X029906Y038794D01*
X029957Y038821D01*
X029985Y038837D01*
X030014Y038855D01*
X029938Y038514D01*
D02*
G37*
G36*
X03691Y038043D02*
X036882Y038061D01*
X036803Y038105D01*
X036779Y038116D01*
X036757Y038124D01*
X036735Y038131D01*
X036714Y038136D01*
X036694Y038139D01*
X036676Y03814D01*
X03665Y03826D01*
X036672Y038261D01*
X036693Y038265D01*
X036713Y038271D01*
X036733Y03828D01*
X036752Y038291D01*
X036771Y038305D01*
X036789Y038322D01*
X036806Y03834D01*
X036824Y038362D01*
X03684Y038386D01*
X03691Y038043D01*
D02*
G37*
G36*
X022151Y038353D02*
X022195Y038316D01*
X022217Y038301D01*
X022238Y038289D01*
X02226Y038278D01*
X022281Y03827D01*
X022302Y038265D01*
X022322Y038261D01*
X022343Y03826D01*
Y03814D01*
X022322Y038139D01*
X022302Y038135D01*
X022281Y03813D01*
X02226Y038122D01*
X022238Y038111D01*
X022217Y038099D01*
X022195Y038084D01*
X022173Y038066D01*
X022151Y038047D01*
X022129Y038025D01*
Y038375D01*
X022151Y038353D01*
D02*
G37*
G36*
X044798Y0378D02*
X044766Y0378D01*
X044709Y037794D01*
X044683Y03779D01*
X044659Y037783D01*
X044636Y037776D01*
X044616Y037766D01*
X044597Y037756D01*
X04458Y037744D01*
X044565Y03773D01*
X04448Y037815D01*
X044494Y03783D01*
X044506Y037847D01*
X044516Y037866D01*
X044526Y037886D01*
X044533Y037909D01*
X04454Y037933D01*
X044544Y037959D01*
X044548Y037987D01*
X04455Y038016D01*
X04455Y038047D01*
X044798Y0378D01*
D02*
G37*
G36*
X021401Y037853D02*
X021445Y037816D01*
X021467Y037801D01*
X021488Y037789D01*
X02151Y037778D01*
X021531Y03777D01*
X021552Y037765D01*
X021572Y037761D01*
X021593Y03776D01*
Y03764D01*
X021572Y037639D01*
X021552Y037635D01*
X021531Y03763D01*
X02151Y037622D01*
X021488Y037611D01*
X021467Y037599D01*
X021445Y037584D01*
X021423Y037566D01*
X021401Y037547D01*
X021379Y037525D01*
Y037875D01*
X021401Y037853D01*
D02*
G37*
G36*
X017041Y037579D02*
X017045Y037561D01*
X017052Y037541D01*
X017062Y037521D01*
X017074Y037499D01*
X017089Y037477D01*
X017106Y037454D01*
X017149Y037405D01*
X017175Y037379D01*
X016825D01*
X016851Y037405D01*
X016894Y037454D01*
X016911Y037477D01*
X016926Y037499D01*
X016938Y037521D01*
X016948Y037541D01*
X016955Y037561D01*
X016959Y037579D01*
X01696Y037597D01*
X01704D01*
X017041Y037579D01*
D02*
G37*
G36*
X022301Y037353D02*
X022345Y037316D01*
X022367Y037301D01*
X022388Y037289D01*
X02241Y037278D01*
X022431Y03727D01*
X022452Y037265D01*
X022472Y037261D01*
X022493Y03726D01*
Y03714D01*
X022472Y037139D01*
X022452Y037135D01*
X022431Y03713D01*
X02241Y037122D01*
X022388Y037111D01*
X022367Y037099D01*
X022345Y037084D01*
X022323Y037066D01*
X022301Y037047D01*
X022279Y037025D01*
Y037375D01*
X022301Y037353D01*
D02*
G37*
G36*
X04622Y037001D02*
X046209Y037026D01*
X046196Y037047D01*
X046182Y037067D01*
X046167Y037084D01*
X04615Y037098D01*
X046133Y037109D01*
X046114Y037118D01*
X046095Y037125D01*
X046074Y037129D01*
X046052Y03713D01*
X0461Y03725D01*
X046116Y037251D01*
X046134Y037253D01*
X046154Y037257D01*
X0462Y037269D01*
X046225Y037278D01*
X046313Y037313D01*
X046346Y037328D01*
X04622Y037001D01*
D02*
G37*
G36*
X038121Y036525D02*
X038099Y036547D01*
X038055Y036584D01*
X038033Y036599D01*
X038012Y036611D01*
X03799Y036622D01*
X037969Y03663D01*
X037948Y036635D01*
X037928Y036639D01*
X037907Y03664D01*
Y03676D01*
X037928Y036761D01*
X037948Y036765D01*
X037969Y03677D01*
X03799Y036778D01*
X038012Y036789D01*
X038033Y036801D01*
X038055Y036816D01*
X038077Y036834D01*
X038099Y036853D01*
X038121Y036875D01*
Y036525D01*
D02*
G37*
G36*
X022818Y036839D02*
X022897Y036795D01*
X02292Y036784D01*
X022943Y036776D01*
X022965Y036769D01*
X022986Y036764D01*
X023006Y036761D01*
X023024Y03676D01*
X02305Y03664D01*
X023028Y036639D01*
X023007Y036635D01*
X022987Y036629D01*
X022967Y03662D01*
X022948Y036609D01*
X022929Y036595D01*
X022911Y036578D01*
X022894Y03656D01*
X022876Y036538D01*
X02286Y036514D01*
X02279Y036857D01*
X022818Y036839D01*
D02*
G37*
G36*
X030271Y035975D02*
X030249Y035997D01*
X030205Y036034D01*
X030183Y036049D01*
X030162Y036061D01*
X03014Y036072D01*
X030119Y03608D01*
X030098Y036085D01*
X030078Y036089D01*
X030057Y03609D01*
Y03621D01*
X030078Y036211D01*
X030098Y036215D01*
X030119Y03622D01*
X03014Y036228D01*
X030162Y036239D01*
X030183Y036251D01*
X030205Y036266D01*
X030227Y036284D01*
X030249Y036303D01*
X030271Y036325D01*
Y035975D01*
D02*
G37*
G36*
X022201Y036303D02*
X022245Y036266D01*
X022267Y036251D01*
X022288Y036239D01*
X02231Y036228D01*
X022331Y03622D01*
X022352Y036215D01*
X022372Y036211D01*
X022393Y03621D01*
Y03609D01*
X022372Y036089D01*
X022352Y036085D01*
X022331Y03608D01*
X02231Y036072D01*
X022288Y036061D01*
X022267Y036049D01*
X022245Y036034D01*
X022223Y036016D01*
X022201Y035997D01*
X022179Y035975D01*
Y036325D01*
X022201Y036303D01*
D02*
G37*
G36*
X020721Y035422D02*
X020739Y035406D01*
X020758Y035393D01*
X020777Y035381D01*
X020796Y035372D01*
X020816Y035364D01*
X020836Y035358D01*
X020856Y035353D01*
X020877Y035351D01*
X020898Y03535D01*
X02065Y035103D01*
X020649Y035123D01*
X020647Y035144D01*
X020642Y035164D01*
X020636Y035184D01*
X020628Y035204D01*
X020619Y035223D01*
X020607Y035242D01*
X020594Y035261D01*
X020578Y035279D01*
X020561Y035297D01*
X020703Y035439D01*
X020721Y035422D01*
D02*
G37*
%LPC*%
G36*
X037907Y059017D02*
X037675D01*
Y058725D01*
X037907D01*
Y059017D01*
D02*
G37*
G36*
X030407D02*
X030175D01*
Y058725D01*
X030407D01*
Y059017D01*
D02*
G37*
G36*
X033327D02*
X033094D01*
Y058725D01*
X033327D01*
Y059017D01*
D02*
G37*
G36*
X032944D02*
X032712D01*
Y058807D01*
X032755Y05881D01*
X032788Y058816D01*
X032815Y058824D01*
X032836Y058832D01*
X032851Y058842D01*
X03286Y058853D01*
X032863Y058865D01*
Y058725D01*
X032944D01*
Y059017D01*
D02*
G37*
G36*
X025807D02*
X025575D01*
Y058725D01*
X025807D01*
Y059017D01*
D02*
G37*
G36*
X025425D02*
X025193D01*
Y058725D01*
X025425D01*
Y059017D01*
D02*
G37*
G36*
X030025D02*
X029793D01*
Y058807D01*
X029836Y05881D01*
X029869Y058816D01*
X029896Y058824D01*
X029917Y058832D01*
X029932Y058842D01*
X029941Y058853D01*
X029944Y058865D01*
Y058725D01*
X030025D01*
Y059017D01*
D02*
G37*
G36*
X037525D02*
X037293D01*
Y058725D01*
X037525D01*
Y059017D01*
D02*
G37*
G36*
X040957Y058817D02*
X040725D01*
Y058525D01*
X040957D01*
Y058817D01*
D02*
G37*
G36*
X040575D02*
X040343D01*
Y058525D01*
X040575D01*
Y058817D01*
D02*
G37*
G36*
X032944Y058575D02*
X032863D01*
Y058435D01*
X03286Y058447D01*
X032851Y058458D01*
X032836Y058468D01*
X032815Y058476D01*
X032788Y058484D01*
X032755Y05849D01*
X032716Y058494D01*
X032712Y058494D01*
Y058283D01*
X032944D01*
Y058575D01*
D02*
G37*
G36*
X030025D02*
X029944D01*
Y058435D01*
X030025D01*
Y058575D01*
D02*
G37*
G36*
X037907D02*
X037675D01*
Y058435D01*
X037756D01*
X037755Y058432D01*
X037754Y058423D01*
X037753Y058408D01*
X037752Y058283D01*
X037907D01*
Y058575D01*
D02*
G37*
G36*
X037525D02*
X037293D01*
Y058283D01*
X037447D01*
X037444Y058435D01*
X037525D01*
Y058575D01*
D02*
G37*
G36*
X033327D02*
X033094D01*
Y058283D01*
X033327D01*
Y058575D01*
D02*
G37*
G36*
X030407D02*
X030175D01*
Y058435D01*
X030256D01*
X030255Y058432D01*
X030254Y058423D01*
X030253Y058408D01*
X030252Y058283D01*
X030407D01*
Y058575D01*
D02*
G37*
G36*
X029793Y058494D02*
Y058283D01*
X029947D01*
X029944Y058435D01*
X029941Y058447D01*
X029932Y058458D01*
X029917Y058468D01*
X029896Y058476D01*
X029869Y058484D01*
X029836Y05849D01*
X029797Y058494D01*
X029793Y058494D01*
D02*
G37*
G36*
X025807Y058575D02*
X025575D01*
Y058435D01*
X025656D01*
X025655Y058432D01*
X025654Y058423D01*
X025653Y058408D01*
X025652Y058283D01*
X025807D01*
Y058575D01*
D02*
G37*
G36*
X025425D02*
X025193D01*
Y058283D01*
X025347D01*
X025344Y058435D01*
X025425D01*
Y058575D01*
D02*
G37*
G36*
X045507Y058567D02*
X045275D01*
Y058275D01*
X045507D01*
Y058567D01*
D02*
G37*
G36*
X045125D02*
X044893D01*
Y058275D01*
X045125D01*
Y058567D01*
D02*
G37*
G36*
X040957Y058375D02*
X040725D01*
Y058235D01*
X040806D01*
X040804Y058232D01*
X040801Y058223D01*
X040799Y058208D01*
X040796Y05816D01*
X040795Y058083D01*
X040957D01*
Y058375D01*
D02*
G37*
G36*
X040575D02*
X040343D01*
Y058083D01*
X040493D01*
X040494Y058235D01*
X040575D01*
Y058375D01*
D02*
G37*
G36*
X045507Y058125D02*
X045275D01*
Y057833D01*
X045507D01*
Y058125D01*
D02*
G37*
G36*
X045125D02*
X044893D01*
Y057833D01*
X045125D01*
Y058125D01*
D02*
G37*
G36*
X0252Y05353D02*
X025063Y053512D01*
X024935Y053459D01*
X024825Y053375D01*
X024741Y053265D01*
X024688Y053137D01*
X02467Y053D01*
X024683Y052904D01*
X02465Y052866D01*
X024075D01*
X024068Y052873D01*
X024054Y05289D01*
X024047Y052896D01*
X024025Y052925D01*
X023915Y053009D01*
X023787Y053062D01*
X02365Y05308D01*
X023513Y053062D01*
X023385Y053009D01*
X023275Y052925D01*
X023191Y052815D01*
X023189Y052811D01*
X023161Y052789D01*
X023107Y052719D01*
X023073Y052638D01*
X023062Y05255D01*
X023073Y052462D01*
X023107Y052381D01*
X023161Y052311D01*
X023183Y052288D01*
X023196Y052278D01*
X023275Y052175D01*
X023385Y052091D01*
X023513Y052038D01*
X023623Y052023D01*
X023638Y051913D01*
X023691Y051785D01*
X023775Y051675D01*
X023885Y051591D01*
X024013Y051538D01*
X02415Y05152D01*
X024287Y051538D01*
X024415Y051591D01*
X024525Y051675D01*
X024534Y051687D01*
X02454Y051693D01*
X024551Y051703D01*
X02456Y05171D01*
X024563Y051712D01*
X046827D01*
X046899Y051708D01*
X04694Y051703D01*
X047003Y051692D01*
X047013Y051688D01*
X047036Y051685D01*
X047039Y051684D01*
X047044Y051684D01*
X04715Y05167D01*
X047287Y051688D01*
X047415Y051741D01*
X047525Y051825D01*
X047609Y051935D01*
X047662Y052063D01*
X04768Y0522D01*
X047662Y052337D01*
X047609Y052465D01*
X047525Y052575D01*
X047415Y052659D01*
X047287Y052712D01*
X04715Y05273D01*
X047013Y052712D01*
X046885Y052659D01*
X046775Y052575D01*
X046691Y052465D01*
X046659Y052388D01*
X039706D01*
X039678Y05243D01*
X039712Y052513D01*
X03973Y05265D01*
X039712Y052787D01*
X039659Y052915D01*
X039575Y053025D01*
X039465Y053109D01*
X039337Y053162D01*
X0392Y05318D01*
X039063Y053162D01*
X038935Y053109D01*
X038825Y053025D01*
X038741Y052915D01*
X038721Y052866D01*
X031846D01*
X031813Y052904D01*
X031818Y052937D01*
X0318Y053075D01*
X031747Y053203D01*
X031662Y053312D01*
X031553Y053397D01*
X031425Y05345D01*
X031288Y053468D01*
X03115Y05345D01*
X031022Y053397D01*
X030913Y053312D01*
X030903Y0533D01*
X030898Y053295D01*
X030887Y053285D01*
X030878Y053278D01*
X030875Y053276D01*
X025651D01*
X025575Y053375D01*
X025465Y053459D01*
X025337Y053512D01*
X0252Y05353D01*
D02*
G37*
G36*
X04995Y04933D02*
X049813Y049312D01*
X049685Y049259D01*
X049582Y04918D01*
X034514D01*
X034437Y049212D01*
X0343Y04923D01*
X034163Y049212D01*
X034086Y04918D01*
X02655D01*
X026413Y049162D01*
X026285Y049109D01*
X026175Y049025D01*
X026091Y048915D01*
X026038Y048787D01*
X02602Y04865D01*
X026038Y048513D01*
X026091Y048385D01*
X026175Y048275D01*
X026285Y048191D01*
X026413Y048138D01*
X02655Y04812D01*
X0498D01*
X049937Y048138D01*
X050065Y048191D01*
X050175Y048275D01*
X050325Y048425D01*
X050409Y048535D01*
X050462Y048663D01*
X05048Y0488D01*
X050462Y048937D01*
X05044Y04899D01*
X050409Y049065D01*
X050325Y049175D01*
X050215Y049259D01*
X05014Y04929D01*
X050087Y049312D01*
X04995Y04933D01*
D02*
G37*
G36*
X0239Y04913D02*
X023763Y049112D01*
X023635Y049059D01*
X023525Y048975D01*
X023441Y048865D01*
X023388Y048737D01*
X02337Y0486D01*
X023388Y048463D01*
X023441Y048335D01*
X023484Y048278D01*
X023462Y048225D01*
X023363Y048212D01*
X023235Y048159D01*
X023125Y048075D01*
X023041Y047965D01*
X022988Y047837D01*
X02297Y0477D01*
X022973Y047673D01*
X022934Y047643D01*
X022887Y047662D01*
X02275Y04768D01*
X022613Y047662D01*
X022485Y047609D01*
X022375Y047525D01*
X022291Y047415D01*
X022238Y047287D01*
X02222Y04715D01*
X022238Y047013D01*
X022291Y046885D01*
X022375Y046775D01*
X022485Y046691D01*
X022613Y046638D01*
X02275Y04662D01*
X022887Y046638D01*
X023015Y046691D01*
X023125Y046775D01*
X023134Y046787D01*
X02314Y046793D01*
X023151Y046803D01*
X02316Y04681D01*
X023163Y046812D01*
X03031D01*
X030862Y04626D01*
Y045234D01*
X030859Y045227D01*
X030856Y045221D01*
X030823Y045162D01*
X03081Y045142D01*
X030808Y045137D01*
X030791Y045115D01*
X030738Y044987D01*
X03072Y04485D01*
X030738Y044713D01*
X030791Y044585D01*
X030875Y044475D01*
X030985Y044391D01*
X031113Y044338D01*
X03125Y04432D01*
X031387Y044338D01*
X031515Y044391D01*
X031625Y044475D01*
X031709Y044585D01*
X031762Y044713D01*
X03178Y04485D01*
X031762Y044987D01*
X031709Y045115D01*
X031625Y045225D01*
X031555Y045278D01*
X031544Y045289D01*
X031538Y045292D01*
Y0464D01*
X031527Y046488D01*
X031493Y046569D01*
X031439Y046639D01*
X031083Y046995D01*
X031103Y047042D01*
X03603D01*
X036969Y046103D01*
X036972Y046069D01*
X036972Y046065D01*
X03697Y04605D01*
X036988Y045913D01*
X037041Y045785D01*
X037125Y045675D01*
X037235Y045591D01*
X037363Y045538D01*
X0375Y04552D01*
X037637Y045538D01*
X037765Y045591D01*
X037875Y045675D01*
X037959Y045785D01*
X038012Y045913D01*
X03803Y04605D01*
X038012Y046187D01*
X037959Y046315D01*
X037875Y046425D01*
X037765Y046509D01*
X037637Y046562D01*
X0375Y04658D01*
X037485Y046578D01*
X037477Y046578D01*
X037462Y046579D01*
X037451Y046581D01*
X037448Y046581D01*
X036813Y047215D01*
X036833Y047262D01*
X04496D01*
X045462Y04676D01*
Y046113D01*
X04544Y046087D01*
X045437Y046084D01*
X045425Y046075D01*
X045341Y045965D01*
X045288Y045837D01*
X04527Y0457D01*
X045288Y045563D01*
X045341Y045435D01*
X045425Y045325D01*
X045535Y045241D01*
X045663Y045188D01*
X0458Y04517D01*
X045937Y045188D01*
X046065Y045241D01*
X046175Y045325D01*
X046259Y045435D01*
X046312Y045563D01*
X04633Y0457D01*
X046312Y045837D01*
X046259Y045965D01*
X046175Y046075D01*
X046163Y046084D01*
X046157Y04609D01*
X046147Y046101D01*
X04614Y04611D01*
X046138Y046113D01*
Y0469D01*
X046127Y046988D01*
X046093Y047069D01*
X046039Y047139D01*
X045339Y047839D01*
X045269Y047893D01*
X045188Y047927D01*
X0451Y047938D01*
X02504D01*
X024431Y048547D01*
X024428Y048581D01*
X024428Y048585D01*
X02443Y0486D01*
X024412Y048737D01*
X024359Y048865D01*
X024275Y048975D01*
X024165Y049059D01*
X024037Y049112D01*
X0239Y04913D01*
D02*
G37*
G36*
X0419Y04153D02*
X041763Y041512D01*
X041635Y041459D01*
X041531Y041379D01*
X034519D01*
X034415Y041459D01*
X034287Y041512D01*
X03415Y04153D01*
X034013Y041512D01*
X033885Y041459D01*
X033781Y041379D01*
X026654D01*
X026615Y041409D01*
X026487Y041462D01*
X02635Y04148D01*
X026213Y041462D01*
X026085Y041409D01*
X025975Y041325D01*
X025891Y041215D01*
X025838Y041087D01*
X02582Y04095D01*
X025838Y040813D01*
X025891Y040685D01*
X025975Y040575D01*
X026085Y040491D01*
X026213Y040438D01*
X02635Y04042D01*
X026487Y040438D01*
X026615Y040491D01*
X026653Y04052D01*
X026666Y040521D01*
X033873D01*
X033941Y040518D01*
X034013Y040488D01*
X03415Y04047D01*
X034287Y040488D01*
X034359Y040518D01*
X034427Y040521D01*
X041623D01*
X041691Y040518D01*
X041763Y040488D01*
X0419Y04047D01*
X042037Y040488D01*
X042109Y040518D01*
X042177Y040521D01*
X049376D01*
X049391Y040485D01*
X049475Y040375D01*
X049585Y040291D01*
X049713Y040238D01*
X04985Y04022D01*
X049987Y040238D01*
X050115Y040291D01*
X050225Y040375D01*
X050309Y040485D01*
X050362Y040613D01*
X05038Y04075D01*
X050362Y040887D01*
X050309Y041015D01*
X050225Y041125D01*
X050115Y041209D01*
X049987Y041262D01*
X049933Y041269D01*
X049865Y041322D01*
X049761Y041365D01*
X04965Y041379D01*
X042269D01*
X042165Y041459D01*
X042037Y041512D01*
X0419Y04153D01*
D02*
G37*
%LPD*%
G36*
X025432Y053101D02*
X025447Y053079D01*
X025464Y05306D01*
X025481Y053043D01*
X025499Y053029D01*
X025518Y053018D01*
X025537Y053009D01*
X025557Y053003D01*
X025578Y052999D01*
X0256Y052997D01*
X025568Y052877D01*
X02555Y052877D01*
X025531Y052874D01*
X02551Y052869D01*
X025488Y052863D01*
X025465Y052855D01*
X025414Y052833D01*
X025387Y052819D01*
X025329Y052786D01*
X025417Y053125D01*
X025432Y053101D01*
D02*
G37*
G36*
X031109Y052762D02*
X031087Y052784D01*
X031042Y052821D01*
X031021Y052836D01*
X030999Y052849D01*
X030978Y052859D01*
X030957Y052867D01*
X030936Y052873D01*
X030915Y052876D01*
X030895Y052877D01*
Y052997D01*
X030915Y052999D01*
X030936Y053002D01*
X030957Y053008D01*
X030978Y053016D01*
X030999Y053026D01*
X031021Y053039D01*
X031042Y053054D01*
X031064Y053071D01*
X031087Y053091D01*
X031109Y053113D01*
Y052762D01*
D02*
G37*
G36*
X03912Y052413D02*
X039088Y052423D01*
X038967Y052454D01*
X038939Y052459D01*
X038858Y052467D01*
X038832Y052467D01*
X038808Y052587D01*
X03883Y052589D01*
X038851Y052593D01*
X03887Y052599D01*
X038888Y052608D01*
X038904Y052619D01*
X038918Y052633D01*
X038931Y05265D01*
X038942Y052669D01*
X038951Y052691D01*
X038959Y052715D01*
X03912Y052413D01*
D02*
G37*
G36*
X023863Y052685D02*
X023883Y052665D01*
X023903Y052647D01*
X023924Y052631D01*
X023944Y052618D01*
X023964Y052607D01*
X023985Y052598D01*
X024005Y052592D01*
X024026Y052589D01*
X024047Y052587D01*
X024036Y052467D01*
X024016Y052466D01*
X023996Y052463D01*
X023975Y052458D01*
X023953Y05245D01*
X023931Y052441D01*
X023909Y052429D01*
X023885Y052415D01*
X023862Y052398D01*
X023812Y05236D01*
X023844Y052708D01*
X023863Y052685D01*
D02*
G37*
G36*
X04709Y051957D02*
X047063Y051963D01*
X04698Y051978D01*
X046922Y051985D01*
X046831Y05199D01*
X0468Y05199D01*
X046767Y05211D01*
X04679Y052111D01*
X04681Y052115D01*
X046829Y052121D01*
X046846Y05213D01*
X04686Y052141D01*
X046873Y052154D01*
X046883Y05217D01*
X046892Y052189D01*
X046898Y05221D01*
X046902Y052233D01*
X04709Y051957D01*
D02*
G37*
G36*
X024351Y052203D02*
X024395Y052166D01*
X024417Y052151D01*
X024438Y052139D01*
X02446Y052128D01*
X024481Y05212D01*
X024502Y052115D01*
X024522Y052111D01*
X024543Y05211D01*
Y05199D01*
X024522Y051989D01*
X024502Y051985D01*
X024481Y05198D01*
X02446Y051972D01*
X024438Y051961D01*
X024417Y051949D01*
X024395Y051934D01*
X024373Y051916D01*
X024351Y051897D01*
X024329Y051875D01*
Y052225D01*
X024351Y052203D01*
D02*
G37*
G36*
X02415Y048566D02*
X024156Y048509D01*
X02416Y048483D01*
X024167Y048459D01*
X024174Y048436D01*
X024184Y048416D01*
X024194Y048397D01*
X024206Y04838D01*
X02422Y048365D01*
X024135Y04828D01*
X02412Y048294D01*
X024103Y048306D01*
X024084Y048316D01*
X024064Y048326D01*
X024041Y048333D01*
X024017Y04834D01*
X023991Y048344D01*
X023963Y048348D01*
X023934Y04835D01*
X023902Y04835D01*
X02415Y048597D01*
X02415Y048566D01*
D02*
G37*
G36*
X02375Y047666D02*
X023756Y047609D01*
X02376Y047583D01*
X023767Y047559D01*
X023774Y047536D01*
X023784Y047516D01*
X023794Y047497D01*
X023806Y04748D01*
X02382Y047465D01*
X023735Y04738D01*
X02372Y047394D01*
X023703Y047406D01*
X023684Y047416D01*
X023664Y047426D01*
X023641Y047433D01*
X023617Y04744D01*
X023591Y047444D01*
X023563Y047448D01*
X023534Y04745D01*
X023503Y04745D01*
X02375Y047698D01*
X02375Y047666D01*
D02*
G37*
G36*
X022951Y047303D02*
X022995Y047266D01*
X023017Y047251D01*
X023038Y047239D01*
X02306Y047228D01*
X023081Y04722D01*
X023102Y047215D01*
X023122Y047211D01*
X023143Y04721D01*
Y04709D01*
X023122Y047089D01*
X023102Y047085D01*
X023081Y04708D01*
X02306Y047072D01*
X023038Y047061D01*
X023017Y047049D01*
X022995Y047034D01*
X022973Y047016D01*
X022951Y046997D01*
X022929Y046975D01*
Y047325D01*
X022951Y047303D01*
D02*
G37*
G36*
X03728Y046356D02*
X037297Y046344D01*
X037316Y046334D01*
X037336Y046324D01*
X037359Y046317D01*
X037383Y04631D01*
X037409Y046306D01*
X037437Y046302D01*
X037466Y0463D01*
X037497Y0463D01*
X03725Y046052D01*
X03725Y046084D01*
X037244Y046141D01*
X03724Y046167D01*
X037233Y046191D01*
X037226Y046214D01*
X037216Y046234D01*
X037206Y046253D01*
X037194Y04627D01*
X03718Y046285D01*
X037265Y04637D01*
X03728Y046356D01*
D02*
G37*
G36*
X045861Y046072D02*
X045865Y046052D01*
X04587Y046031D01*
X045878Y04601D01*
X045889Y045988D01*
X045901Y045967D01*
X045916Y045945D01*
X045934Y045923D01*
X045953Y045901D01*
X045975Y045879D01*
X045625D01*
X045647Y045901D01*
X045684Y045945D01*
X045699Y045967D01*
X045711Y045988D01*
X045722Y04601D01*
X04573Y046031D01*
X045735Y046052D01*
X045739Y046072D01*
X04574Y046093D01*
X04586D01*
X045861Y046072D01*
D02*
G37*
G36*
X031261Y045228D02*
X031265Y045207D01*
X031271Y045187D01*
X03128Y045167D01*
X031291Y045148D01*
X031305Y045129D01*
X031322Y045111D01*
X03134Y045094D01*
X031362Y045076D01*
X031386Y04506D01*
X031043Y04499D01*
X031061Y045018D01*
X031105Y045097D01*
X031116Y045121D01*
X031124Y045143D01*
X031131Y045165D01*
X031136Y045186D01*
X031139Y045206D01*
X03114Y045224D01*
X03126Y04525D01*
X031261Y045228D01*
D02*
G37*
G36*
X042116Y041129D02*
X042124Y041123D01*
X042135Y041118D01*
X042148Y041113D01*
X042164Y041109D01*
X042182Y041106D01*
X042203Y041103D01*
X042251Y0411D01*
X042279Y0411D01*
X0422Y0408D01*
X04204Y040793D01*
X0419Y04093D01*
X04211Y041136D01*
X042116Y041129D01*
D02*
G37*
G36*
X0419Y04093D02*
X04176Y040793D01*
X0416Y0408D01*
X041521Y0411D01*
X041549Y0411D01*
X041597Y041103D01*
X041618Y041106D01*
X041636Y041109D01*
X041652Y041113D01*
X041665Y041118D01*
X041676Y041123D01*
X041684Y041129D01*
X04169Y041136D01*
X0419Y04093D01*
D02*
G37*
G36*
X034366Y041129D02*
X034374Y041123D01*
X034385Y041118D01*
X034398Y041113D01*
X034414Y041109D01*
X034432Y041106D01*
X034453Y041103D01*
X034501Y0411D01*
X034529Y0411D01*
X03445Y0408D01*
X03429Y040793D01*
X03415Y04093D01*
X03436Y041136D01*
X034366Y041129D01*
D02*
G37*
G36*
X03415Y04093D02*
X03401Y040793D01*
X03385Y0408D01*
X033771Y0411D01*
X033799Y0411D01*
X033847Y041103D01*
X033868Y041106D01*
X033886Y041109D01*
X033902Y041113D01*
X033915Y041118D01*
X033926Y041123D01*
X033934Y041129D01*
X03394Y041136D01*
X03415Y04093D01*
D02*
G37*
G36*
X026535Y04112D02*
X026543Y041116D01*
X026554Y041112D01*
X026568Y041109D01*
X026584Y041106D01*
X026623Y041102D01*
X026672Y0411D01*
X0267Y0411D01*
Y0408D01*
X026672Y0408D01*
X026584Y040794D01*
X026568Y040791D01*
X026554Y040788D01*
X026543Y040784D01*
X026535Y04078D01*
X026529Y040775D01*
Y041125D01*
X026535Y04112D01*
D02*
G37*
%LPC*%
G36*
X045111Y063075D02*
X045014D01*
X04502Y063067D01*
X045062Y063014D01*
X045111Y062961D01*
Y063075D01*
D02*
G37*
G36*
Y062834D02*
X045021Y062744D01*
X045111D01*
Y062834D01*
D02*
G37*
G36*
X0458Y065216D02*
X045633Y065203D01*
X04547Y065164D01*
X045316Y0651D01*
X045173Y065013D01*
X045046Y064904D01*
X044937Y064777D01*
X04485Y064634D01*
X044786Y064479D01*
X044747Y064317D01*
X044734Y06415D01*
X044747Y063983D01*
X044786Y063821D01*
X04485Y063666D01*
X044891Y0636D01*
X044866Y063556D01*
X044781D01*
Y063225D01*
X044866D01*
X04496Y06332D01*
X044943Y063296D01*
X044935Y063269D01*
Y063237D01*
X044938Y063225D01*
X045111D01*
Y06328D01*
X045157Y063301D01*
X045173Y063287D01*
X045316Y0632D01*
X04547Y063136D01*
X045633Y063097D01*
X045752Y063087D01*
X045788Y063034D01*
X045762Y062946D01*
X045747Y0628D01*
X045762Y062653D01*
X045804Y062512D01*
X045874Y062382D01*
X045967Y062268D01*
X046081Y062175D01*
X046211Y062105D01*
X046352Y062062D01*
X046499Y062048D01*
X046645Y062062D01*
X046786Y062105D01*
X046916Y062175D01*
X04703Y062268D01*
X047124Y062382D01*
X047193Y062512D01*
X047236Y062653D01*
X04725Y0628D01*
X047236Y062946D01*
X047193Y063087D01*
X047124Y063217D01*
X04703Y063331D01*
X046916Y063425D01*
X046786Y063494D01*
X046706Y063518D01*
X046688Y063565D01*
X04675Y063666D01*
X046814Y063821D01*
X046853Y063983D01*
X046866Y06415D01*
X046853Y064317D01*
X046814Y064479D01*
X04675Y064634D01*
X046663Y064777D01*
X046554Y064904D01*
X046427Y065013D01*
X046284Y0651D01*
X046129Y065164D01*
X045967Y065203D01*
X0458Y065216D01*
D02*
G37*
G36*
X017933Y064837D02*
X017735Y064821D01*
X017542Y064775D01*
X017359Y064699D01*
X01719Y064595D01*
X017039Y064467D01*
X01691Y064316D01*
X016807Y064147D01*
X016731Y063963D01*
X016685Y063771D01*
X016669Y063573D01*
X016685Y063375D01*
X016731Y063182D01*
X016807Y062999D01*
X01691Y06283D01*
X017039Y062679D01*
X01719Y062551D01*
X017359Y062447D01*
X017542Y062371D01*
X017735Y062325D01*
X017933Y062309D01*
X01813Y062325D01*
X018323Y062371D01*
X018506Y062447D01*
X018676Y062551D01*
X018826Y062679D01*
X018955Y06283D01*
X019059Y062999D01*
X019135Y063182D01*
X019181Y063375D01*
X019196Y063573D01*
X019181Y063771D01*
X019135Y063963D01*
X019059Y064147D01*
X018955Y064316D01*
X018826Y064467D01*
X018676Y064595D01*
X018506Y064699D01*
X018323Y064775D01*
X01813Y064821D01*
X017933Y064837D01*
D02*
G37*
%LPD*%
D12*
X033827Y058657D02*
Y060533D01*
X033819Y05865D02*
X033827Y058657D01*
X0325Y05865D02*
X033019D01*
X0318Y05795D02*
X0325Y05865D01*
X0301Y058126D02*
Y05865D01*
Y058126D02*
X030276Y05795D01*
X0318D01*
X0309Y05865D02*
Y05975D01*
X0263Y05865D02*
Y060393D01*
X04515Y0579D02*
Y0582D01*
X03365Y05435D02*
X04205D01*
X02875Y06315D02*
Y06515D01*
X022825Y056925D02*
X023425Y057525D01*
X02Y0466D02*
Y059566D01*
X027675Y057525D02*
X0288Y05865D01*
X0301D01*
X040643Y057907D02*
X0411Y05745D01*
X040643Y057907D02*
Y058443D01*
X04065Y05845D01*
X03805Y05745D02*
X0411D01*
X0376Y0579D02*
Y05865D01*
Y0579D02*
X03805Y05745D01*
X038348Y060126D02*
Y060549D01*
Y059702D02*
Y060126D01*
X0384Y05865D02*
Y060073D01*
X038348Y060126D02*
X0384Y060073D01*
X04145Y05845D02*
Y060443D01*
X045987Y0601D02*
Y060537D01*
Y059846D02*
Y0601D01*
X046Y0582D02*
Y060087D01*
X045987Y0601D02*
X046Y060087D01*
X02875Y06315D02*
X028802D01*
X027999D02*
X02875D01*
X028802D02*
X029606D01*
X045256Y062156D02*
Y0626D01*
X04475Y06165D02*
X045256Y062156D01*
X044706Y06315D02*
X045256Y0626D01*
X04345Y06165D02*
X04475D01*
X0261Y0565D02*
X026154D01*
X026254Y0564D01*
X0342D01*
X05015D01*
X0254Y057525D02*
X027675D01*
X023425D02*
X0254D01*
X0255Y057625D02*
Y05865D01*
X0254Y057525D02*
X0255Y057625D01*
X0411Y05745D02*
X0447D01*
X04515Y0579D01*
X045987Y060537D02*
X046001Y060552D01*
X04595Y059809D02*
X045987Y059846D01*
X04595Y05975D02*
Y059809D01*
X04145Y060443D02*
X041501Y060494D01*
Y060552D01*
X038345D02*
X038348Y060549D01*
Y059702D02*
X03835Y0597D01*
X033827Y060533D02*
X033845Y060552D01*
X0309Y05975D02*
X0309Y05975D01*
Y060551D01*
X030901Y060552D01*
X0263Y060393D02*
X026401Y060494D01*
Y060552D01*
X043099Y06315D02*
X043902D01*
X0203Y03085D02*
X02165D01*
X02Y03115D02*
X0203Y03085D01*
X02Y03115D02*
Y046496D01*
Y0466D02*
X020012Y046588D01*
X022514Y062964D02*
X02365Y0641D01*
X022514Y06208D02*
Y062964D01*
X02215Y04145D02*
X023259Y040341D01*
X02215Y056246D02*
X022825Y056921D01*
X02215Y04145D02*
Y056246D01*
X022825Y056921D02*
Y056925D01*
X023259Y040341D02*
Y040341D01*
X02635Y04095D02*
X04965D01*
X04505Y05435D02*
X04515Y05445D01*
X04205Y05435D02*
X04505D01*
X02Y059566D02*
X022514Y06208D01*
X04965Y04095D02*
X04985Y04075D01*
D23*
X04345Y06165D02*
D03*
X04275D02*
D03*
D25*
X0309Y05865D02*
D03*
X0301D02*
D03*
X046Y0582D02*
D03*
X0452D02*
D03*
X0255Y05865D02*
D03*
X0263D02*
D03*
X04145Y05845D02*
D03*
X04065D02*
D03*
X0384Y05865D02*
D03*
X0376D02*
D03*
X033019D02*
D03*
X033819D02*
D03*
D41*
X021224Y0387D02*
X030096D01*
X0412Y06155D02*
X042457D01*
X04065Y060602D02*
Y061D01*
X0412Y06155D01*
X040599Y060552D02*
Y06085D01*
X042457Y06155D02*
X042757Y06185D01*
X0502Y0611D02*
X053Y0583D01*
X0433Y0611D02*
X0502D01*
X04275Y06165D02*
X0433Y0611D01*
X042757Y061666D02*
Y06185D01*
X0252Y053D02*
X025262Y052937D01*
X031288D01*
X030096Y0387D02*
X03015Y038646D01*
X042757Y06185D02*
Y06239D01*
X040599Y060552D02*
X04065Y060602D01*
X042698Y062449D02*
X042757Y06239D01*
X021922Y03615D02*
X03045D01*
X02195Y0382D02*
X037D01*
X03705Y03825D01*
X0193Y02915D02*
Y03945D01*
X01905Y0397D02*
X0193Y03945D01*
X0212Y0377D02*
X04445D01*
X0448Y03805D01*
X0221Y0372D02*
X04447D01*
X02265Y0367D02*
X0383D01*
X04447Y0372D02*
X04448Y03719D01*
X04636D01*
X04645Y0371D01*
X0451Y0476D02*
X0458Y0469D01*
X0249Y0476D02*
X0451D01*
X0458Y0457D02*
Y0469D01*
X0239Y0486D02*
X0249Y0476D01*
X023423Y052527D02*
X039028D01*
X0234Y05255D02*
X023423Y052527D01*
X0256Y04738D02*
X03617D01*
X0235Y0477D02*
X02383Y04737D01*
X0256D01*
X02275Y04715D02*
X03045D01*
X0312Y0449D02*
X03125Y04485D01*
X0312Y0449D02*
Y0464D01*
X03045Y04715D02*
X0312Y0464D01*
X039028Y052527D02*
X03915Y05265D01*
X0204Y02805D02*
X0499D01*
X0193Y02915D02*
X0204Y02805D01*
X047Y05205D02*
X04715Y0522D01*
X02415Y05205D02*
X047D01*
X03617Y04738D02*
X0375Y04605D01*
X0499Y02805D02*
X053Y03115D01*
Y0583D01*
X03915Y05265D02*
X0392D01*
D42*
X027798Y060552D02*
X029999D01*
X0275Y06085D02*
X027798Y060552D01*
X02375Y06135D02*
X0322D01*
X034Y06315D01*
X0215Y0591D02*
X02375Y06135D01*
X041835Y06239D02*
X041894Y062449D01*
X04134Y06239D02*
X041835D01*
X0395Y06055D02*
X04134Y06239D01*
X037444Y060552D02*
Y062756D01*
X03705Y06315D02*
X037444Y062756D01*
X032944Y060552D02*
X032982Y060589D01*
Y061192D01*
X034239Y062449D01*
X034Y06315D02*
X034641D01*
X0215Y058804D02*
Y0591D01*
X0204Y0356D02*
Y0417D01*
X0215Y0428D01*
X0204Y0356D02*
X0209Y0351D01*
X0215Y0428D02*
Y0506D01*
X021388Y058692D02*
X0215Y058804D01*
X021388Y058654D02*
Y058692D01*
X0215Y0506D02*
X021512Y050612D01*
Y05078D01*
X021388Y058508D02*
X0215Y058396D01*
X021388Y058508D02*
Y058546D01*
X0215Y050791D02*
X021512Y05078D01*
X021388Y058546D02*
X021442Y0586D01*
X0215Y050791D02*
Y058396D01*
X021388Y058654D02*
X021442Y0586D01*
D43*
X0344Y0572D02*
X035444Y058244D01*
X0306Y0572D02*
X0344D01*
X035444Y058244D02*
Y06315D01*
X036247Y058653D02*
Y06315D01*
Y058653D02*
X0363Y0586D01*
X0241Y06165D02*
X028405D01*
X029204Y062449D01*
X0237Y06205D02*
X0241Y06165D01*
X0237Y06205D02*
Y0626D01*
X02345Y0584D02*
Y0601D01*
X023902Y060552D01*
X025499D01*
X0443Y062445D02*
X044304Y062449D01*
Y063996D01*
X0436Y0647D02*
X044304Y063996D01*
X04295Y0647D02*
X0436D01*
X017Y0372D02*
Y056533D01*
X01715Y056683D01*
Y05675D01*
D45*
X0421Y04865D02*
X0498D01*
X02655D02*
X0421D01*
X0498D02*
X04995Y0488D01*
D47*
X032944Y060552D02*
D03*
X033845D02*
D03*
X038345D02*
D03*
X037444D02*
D03*
X034239Y062449D02*
D03*
X034641Y06315D02*
D03*
X035042Y062449D02*
D03*
X035444Y06315D02*
D03*
X035845Y062449D02*
D03*
X036247Y06315D02*
D03*
X036648Y062449D02*
D03*
X025499Y060552D02*
D03*
X026401D02*
D03*
X030901D02*
D03*
X029999D02*
D03*
X026794Y062449D02*
D03*
X027196Y06315D02*
D03*
X027598Y062449D02*
D03*
X027999Y06315D02*
D03*
X028401Y062449D02*
D03*
X028802Y06315D02*
D03*
X029204Y062449D02*
D03*
X040599Y060552D02*
D03*
X041501D02*
D03*
X046001D02*
D03*
X045099D02*
D03*
X041894Y062449D02*
D03*
X042296Y06315D02*
D03*
X042698Y062449D02*
D03*
X043099Y06315D02*
D03*
X043501Y062449D02*
D03*
X043902Y06315D02*
D03*
X044304Y062449D02*
D03*
D48*
X038843Y0628D02*
D03*
X032446D02*
D03*
X031399D02*
D03*
X025001D02*
D03*
X046499D02*
D03*
X040101D02*
D03*
D49*
X033144Y06415D02*
D03*
X038144D02*
D03*
X0257D02*
D03*
X0307D02*
D03*
X0408D02*
D03*
X0458D02*
D03*
D50*
X03705Y06315D02*
D03*
X029606D02*
D03*
X044706D02*
D03*
D51*
X0306Y0572D02*
D03*
X0363Y0586D02*
D03*
X02895Y0641D02*
D03*
X0282Y06495D02*
D03*
X02875Y06515D02*
D03*
X0275Y06085D02*
D03*
X0252Y053D02*
D03*
X03015Y038646D02*
D03*
X03365Y05415D02*
D03*
X0395Y06055D02*
D03*
X04295Y0647D02*
D03*
X03045Y03615D02*
D03*
X01815Y03565D02*
D03*
X03705Y03825D02*
D03*
X017Y0372D02*
D03*
X01905Y0397D02*
D03*
X0181Y0438D02*
D03*
X02195Y0382D02*
D03*
X02135Y03865D02*
D03*
X0212Y0377D02*
D03*
X0221Y0372D02*
D03*
X0383Y0367D02*
D03*
X02265Y03665D02*
D03*
X022Y03615D02*
D03*
X02365Y0641D02*
D03*
X0185Y05115D02*
D03*
X04715Y0522D02*
D03*
X0239Y0486D02*
D03*
X02365Y05255D02*
D03*
X0235Y0477D02*
D03*
X02275Y04715D02*
D03*
X02315Y0415D02*
D03*
X0232Y04295D02*
D03*
X02315Y0443D02*
D03*
X0448Y03805D02*
D03*
X04645Y0371D02*
D03*
X02165Y03085D02*
D03*
X02005Y0466D02*
D03*
X04515Y05445D02*
D03*
X0228Y05695D02*
D03*
X031288Y052937D02*
D03*
X0174Y05675D02*
D03*
X01715Y05765D02*
D03*
X02345Y0584D02*
D03*
X03125Y04485D02*
D03*
X02415Y05205D02*
D03*
X02105Y0616D02*
D03*
X04205Y05435D02*
D03*
X0237Y0626D02*
D03*
X0458Y0457D02*
D03*
X0375Y04605D02*
D03*
X0392Y05265D02*
D03*
X02135Y0586D02*
D03*
X02155Y0506D02*
D03*
X0215Y0428D02*
D03*
X04195Y05645D02*
D03*
X0342Y0564D02*
D03*
X0421Y04865D02*
D03*
X0343Y0487D02*
D03*
X0419Y041D02*
D03*
X03415D02*
D03*
X05015Y0564D02*
D03*
X0261Y0565D02*
D03*
X04985Y04075D02*
D03*
X02635Y04095D02*
D03*
X04995Y0488D02*
D03*
X02655Y04865D02*
D03*
X0209Y0351D02*
D03*
D52*
X053437Y028125D02*
D03*
X017937Y028175D02*
D03*
X017933Y063573D02*
D03*
X0534Y0636D02*
D03*
D53*
X02735Y0649D02*
X027356D01*
Y065D01*
X02665Y0658D02*
X0416D01*
X042296Y065104D01*
X027356Y06315D02*
Y0649D01*
X027196Y06315D02*
Y065254D01*
X042296Y06315D02*
Y065104D01*
X041894Y062449D02*
Y062481D01*
X042273Y06286D01*
X021606Y064769D02*
X022637Y0658D01*
X02665D01*
X027196Y065254D01*
X026794Y062449D02*
Y062481D01*
X027173Y06286D01*
X017701Y05765D02*
X01815Y057201D01*
Y03565D02*
Y057201D01*
X021606Y062394D02*
Y064769D01*
X01715Y05765D02*
X017701D01*
X0169D02*
X01715D01*
X021044Y061594D02*
X02105Y0616D01*
X016901Y059844D02*
X018651Y061594D01*
X021131Y061919D02*
X021606Y062394D01*
X0169Y05765D02*
X016901Y057651D01*
X018651Y061594D02*
X021044D01*
X016901Y057651D02*
Y059844D01*
M02*
