M48
;Layer_Color=9474304
;FILE_FORMAT=2:4
INCH,LZ
;TYPE=PLATED
T1F00S00C0.0276
T2F00S00C0.0280
T3F00S00C0.0669
T4F00S00C0.1280
T5F00S00C0.1575
%
T01
X032944Y060552
X033845
X034239Y062449
X035042
X035845
X036648
X037444Y060552
X038345
X040599
X041501
X041894Y062449
X042698
X043501
X044304
X045099Y060552
X046001
X030901
X029999
X029204Y062449
X028401
X027598
X026794
X026401Y060552
X025499
X027196Y06315
X027999
X028802
X029606
X034641
X035444
X036247
X03705
X042296
X043099
X043902
X044706
T02
X02165Y03085
X0209Y0351
X022Y03615
X0221Y0372
X02265Y03665
X02195Y0382
X02135Y03865
X0212Y0377
X01905Y0397
X017Y0372
X01815Y03565
X0181Y0438
X0215Y0428
X0232Y04295
X02315Y0443
Y0415
X02635Y04095
X03015Y038646
X03045Y03615
X02005Y0466
X03125Y04485
X03415Y041
X03705Y03825
X0383Y0367
X0448Y03805
X04645Y0371
X0419Y041
X0458Y0457
X0375Y04605
X04985Y04075
X04995Y0488
X04715Y0522
X05015Y0564
X04515Y05445
X04205Y05435
X04195Y05645
X0395Y06055
X0363Y0586
X0342Y0564
X03365Y05415
X031288Y052937
X0343Y0487
X0421Y04865
X0392Y05265
X0306Y0572
X0261Y0565
X0228Y05695
X02345Y0584
X02135Y0586
X02105Y0616
X0275Y06085
X0252Y053
X02365Y05255
X02415Y05205
X0239Y0486
X0235Y0477
X02275Y04715
X02155Y0506
X0185Y05115
X0174Y05675
X01715Y05765
X02655Y04865
X0237Y0626
X02365Y0641
X02895
X02875Y06515
X0282Y06495
X04295Y0647
T03
X025001Y0628
X031399
X032446
X038843
X040101
X046499
T04
X0257Y06415
X0307
X033144
X038144
X0408
X0458
T05
X053437Y028125
X017937Y028175
X017933Y063573
X0534Y0636
M30
