G04*
G04 #@! TF.GenerationSoftware,Altium Limited,Altium Designer,20.0.13 (296)*
G04*
G04 Layer_Color=128*
%FSTAX24Y24*%
%MOIN*%
G70*
G01*
G75*
%ADD56C,0.0020*%
D56*
X032806Y060552D02*
X033082D01*
X032944Y060414D02*
Y060689D01*
X033707Y060552D02*
X033983D01*
X033845Y060414D02*
Y060689D01*
X038207Y060552D02*
X038483D01*
X038345Y060414D02*
Y060689D01*
X037306Y060552D02*
X037582D01*
X037444Y060414D02*
Y060689D01*
X038509Y0628D02*
X039178D01*
X038843Y062465D02*
Y063134D01*
X032111Y0628D02*
X03278D01*
X032446Y062465D02*
Y063134D01*
X032505Y06415D02*
X033784D01*
X033144Y06351D02*
Y06479D01*
X037505Y06415D02*
X038784D01*
X038144Y06351D02*
Y06479D01*
X034101Y062449D02*
X034377D01*
X034239Y062311D02*
Y062587D01*
X034503Y06315D02*
X034778D01*
X034641Y063012D02*
Y063288D01*
X034904Y062449D02*
X03518D01*
X035042Y062311D02*
Y062587D01*
X035306Y06315D02*
X035582D01*
X035444Y063012D02*
Y063288D01*
X035707Y062449D02*
X035983D01*
X035845Y062311D02*
Y062587D01*
X036109Y06315D02*
X036385D01*
X036247Y063012D02*
Y063288D01*
X036511Y062449D02*
X036786D01*
X036648Y062311D02*
Y062587D01*
X036912Y06315D02*
X037188D01*
X03705Y063012D02*
Y063288D01*
X025361Y060552D02*
X025637D01*
X025499Y060414D02*
Y060689D01*
X026263Y060552D02*
X026539D01*
X026401Y060414D02*
Y060689D01*
X030763Y060552D02*
X031039D01*
X030901Y060414D02*
Y060689D01*
X029861Y060552D02*
X030137D01*
X029999Y060414D02*
Y060689D01*
X031064Y0628D02*
X031733D01*
X031399Y062465D02*
Y063134D01*
X024667Y0628D02*
X025336D01*
X025001Y062465D02*
Y063134D01*
X02506Y06415D02*
X02634D01*
X0257Y06351D02*
Y06479D01*
X03006Y06415D02*
X03134D01*
X0307Y06351D02*
Y06479D01*
X026657Y062449D02*
X026932D01*
X026794Y062311D02*
Y062587D01*
X027058Y06315D02*
X027334D01*
X027196Y063012D02*
Y063288D01*
X02746Y062449D02*
X027735D01*
X027598Y062311D02*
Y062587D01*
X027861Y06315D02*
X028137D01*
X027999Y063012D02*
Y063288D01*
X028263Y062449D02*
X028539D01*
X028401Y062311D02*
Y062587D01*
X028665Y06315D02*
X02894D01*
X028802Y063012D02*
Y063288D01*
X029066Y062449D02*
X029342D01*
X029204Y062311D02*
Y062587D01*
X029468Y06315D02*
X029743D01*
X029606Y063012D02*
Y063288D01*
X040461Y060552D02*
X040737D01*
X040599Y060414D02*
Y060689D01*
X041363Y060552D02*
X041639D01*
X041501Y060414D02*
Y060689D01*
X045863Y060552D02*
X046139D01*
X046001Y060414D02*
Y060689D01*
X044961Y060552D02*
X045237D01*
X045099Y060414D02*
Y060689D01*
X046164Y0628D02*
X046833D01*
X046499Y062465D02*
Y063134D01*
X039767Y0628D02*
X040436D01*
X040101Y062465D02*
Y063134D01*
X04016Y06415D02*
X04144D01*
X0408Y06351D02*
Y06479D01*
X04516Y06415D02*
X04644D01*
X0458Y06351D02*
Y06479D01*
X041757Y062449D02*
X042032D01*
X041894Y062311D02*
Y062587D01*
X042158Y06315D02*
X042434D01*
X042296Y063012D02*
Y063288D01*
X04256Y062449D02*
X042835D01*
X042698Y062311D02*
Y062587D01*
X042961Y06315D02*
X043237D01*
X043099Y063012D02*
Y063288D01*
X043363Y062449D02*
X043639D01*
X043501Y062311D02*
Y062587D01*
X043765Y06315D02*
X04404D01*
X043902Y063012D02*
Y063288D01*
X044166Y062449D02*
X044442D01*
X044304Y062311D02*
Y062587D01*
X044568Y06315D02*
X044843D01*
X044706Y063012D02*
Y063288D01*
X03046Y0572D02*
X03074D01*
X0306Y05706D02*
Y05734D01*
X03616Y0586D02*
X03644D01*
X0363Y05846D02*
Y05874D01*
X02881Y0641D02*
X02909D01*
X02895Y06396D02*
Y06424D01*
X02806Y06495D02*
X02834D01*
X0282Y06481D02*
Y06509D01*
X02861Y06515D02*
X02889D01*
X02875Y06501D02*
Y06529D01*
X02736Y06085D02*
X02764D01*
X0275Y06071D02*
Y06099D01*
X02506Y053D02*
X02534D01*
X0252Y05286D02*
Y05314D01*
X03001Y038646D02*
X03029D01*
X03015Y038506D02*
Y038786D01*
X03351Y05415D02*
X03379D01*
X03365Y05401D02*
Y05429D01*
X03936Y06055D02*
X03964D01*
X0395Y06041D02*
Y06069D01*
X04281Y0647D02*
X04309D01*
X04295Y06456D02*
Y06484D01*
X03031Y03615D02*
X03059D01*
X03045Y03601D02*
Y03629D01*
X01801Y03565D02*
X01829D01*
X01815Y03551D02*
Y03579D01*
X03691Y03825D02*
X03719D01*
X03705Y03811D02*
Y03839D01*
X01686Y0372D02*
X01714D01*
X017Y03706D02*
Y03734D01*
X01891Y0397D02*
X01919D01*
X01905Y03956D02*
Y03984D01*
X01796Y0438D02*
X01824D01*
X0181Y04366D02*
Y04394D01*
X02181Y0382D02*
X02209D01*
X02195Y03806D02*
Y03834D01*
X02121Y03865D02*
X02149D01*
X02135Y03851D02*
Y03879D01*
X02106Y0377D02*
X02134D01*
X0212Y03756D02*
Y03784D01*
X02196Y0372D02*
X02224D01*
X0221Y03706D02*
Y03734D01*
X03816Y0367D02*
X03844D01*
X0383Y03656D02*
Y03684D01*
X02251Y03665D02*
X02279D01*
X02265Y03651D02*
Y03679D01*
X02186Y03615D02*
X02214D01*
X022Y03601D02*
Y03629D01*
X02351Y0641D02*
X02379D01*
X02365Y06396D02*
Y06424D01*
X01836Y05115D02*
X01864D01*
X0185Y05101D02*
Y05129D01*
X04701Y0522D02*
X04729D01*
X04715Y05206D02*
Y05234D01*
X02376Y0486D02*
X02404D01*
X0239Y04846D02*
Y04874D01*
X02351Y05255D02*
X02379D01*
X02365Y05241D02*
Y05269D01*
X02336Y0477D02*
X02364D01*
X0235Y04756D02*
Y04784D01*
X02261Y04715D02*
X02289D01*
X02275Y04701D02*
Y04729D01*
X02301Y0415D02*
X02329D01*
X02315Y04136D02*
Y04164D01*
X02306Y04295D02*
X02334D01*
X0232Y04281D02*
Y04309D01*
X02301Y0443D02*
X02329D01*
X02315Y04416D02*
Y04444D01*
X04466Y03805D02*
X04494D01*
X0448Y03791D02*
Y03819D01*
X04631Y0371D02*
X04659D01*
X04645Y03696D02*
Y03724D01*
X02151Y03085D02*
X02179D01*
X02165Y03071D02*
Y03099D01*
X01991Y0466D02*
X02019D01*
X02005Y04646D02*
Y04674D01*
X04501Y05445D02*
X04529D01*
X04515Y05431D02*
Y05459D01*
X02266Y05695D02*
X02294D01*
X0228Y05681D02*
Y05709D01*
X05265Y028125D02*
X054225D01*
X053437Y027338D02*
Y028912D01*
X01715Y028175D02*
X018725D01*
X017937Y027388D02*
Y028963D01*
X017145Y063573D02*
X01872D01*
X017933Y062786D02*
Y06436D01*
X052613Y0636D02*
X054187D01*
X0534Y062813D02*
Y064387D01*
X031147Y052937D02*
X031428D01*
X031288Y052797D02*
Y053078D01*
X01726Y05675D02*
X01754D01*
X0174Y05661D02*
Y05689D01*
X01701Y05765D02*
X01729D01*
X01715Y05751D02*
Y05779D01*
X02331Y0584D02*
X02359D01*
X02345Y05826D02*
Y05854D01*
X03111Y04485D02*
X03139D01*
X03125Y04471D02*
Y04499D01*
X02401Y05205D02*
X02429D01*
X02415Y05191D02*
Y05219D01*
X02091Y0616D02*
X02119D01*
X02105Y06146D02*
Y06174D01*
X04191Y05435D02*
X04219D01*
X04205Y05421D02*
Y05449D01*
X02356Y0626D02*
X02384D01*
X0237Y06246D02*
Y06274D01*
X04566Y0457D02*
X04594D01*
X0458Y04556D02*
Y04584D01*
X03736Y04605D02*
X03764D01*
X0375Y04591D02*
Y04619D01*
X03906Y05265D02*
X03934D01*
X0392Y05251D02*
Y05279D01*
X02121Y0586D02*
X02149D01*
X02135Y05846D02*
Y05874D01*
X02141Y0506D02*
X02169D01*
X02155Y05046D02*
Y05074D01*
X02136Y0428D02*
X02164D01*
X0215Y04266D02*
Y04294D01*
X04181Y05645D02*
X04209D01*
X04195Y05631D02*
Y05659D01*
X03406Y0564D02*
X03434D01*
X0342Y05626D02*
Y05654D01*
X04196Y04865D02*
X04224D01*
X0421Y04851D02*
Y04879D01*
X03416Y0487D02*
X03444D01*
X0343Y04856D02*
Y04884D01*
X04176Y041D02*
X04204D01*
X0419Y04086D02*
Y04114D01*
X03401Y041D02*
X03429D01*
X03415Y04086D02*
Y04114D01*
X05001Y0564D02*
X05029D01*
X05015Y05626D02*
Y05654D01*
X02596Y0565D02*
X02624D01*
X0261Y05636D02*
Y05664D01*
X04971Y04075D02*
X04999D01*
X04985Y04061D02*
Y04089D01*
X02621Y04095D02*
X02649D01*
X02635Y04081D02*
Y04109D01*
X04981Y0488D02*
X05009D01*
X04995Y04866D02*
Y04894D01*
X02641Y04865D02*
X02669D01*
X02655Y04851D02*
Y04879D01*
X02076Y0351D02*
X02104D01*
X0209Y03496D02*
Y03524D01*
M02*
