G04*
G04 #@! TF.GenerationSoftware,Altium Limited,Altium Designer,20.0.13 (296)*
G04*
G04 Layer_Color=255*
%FSTAX24Y24*%
%MOIN*%
G70*
G01*
G75*
%ADD22R,0.0500X0.0550*%
%ADD23R,0.0550X0.0500*%
%ADD24R,0.0472X0.0433*%
%ADD25R,0.0433X0.0315*%
%ADD26R,0.0433X0.0472*%
%ADD27O,0.1400X0.0591*%
%ADD28R,0.1400X0.0591*%
%ADD29R,0.0512X0.0591*%
%ADD30R,0.0315X0.0433*%
%ADD31O,0.0217X0.0709*%
%ADD32R,0.1299X0.0945*%
%ADD33R,0.0394X0.0945*%
%ADD34R,0.0591X0.0512*%
%ADD35O,0.0217X0.0787*%
%ADD36O,0.0217X0.0800*%
%ADD37R,0.3346X0.0472*%
%ADD38R,0.0472X0.3346*%
%ADD92C,0.0787*%
%ADD93C,0.0512*%
%ADD94C,0.1004*%
%ADD95C,0.1680*%
%ADD96R,0.0512X0.0512*%
%ADD97C,0.0945*%
%ADD98O,0.0650X0.0750*%
%ADD99C,0.0665*%
%ADD100C,0.1890*%
%ADD101R,0.0665X0.0665*%
%ADD102C,0.0800*%
%ADD103C,0.0600*%
%ADD104R,0.0515X0.0515*%
%ADD105C,0.0515*%
%ADD106C,0.0436*%
%ADD107C,0.2362*%
%ADD108C,0.0700*%
%ADD109R,0.0700X0.0700*%
%ADD110C,0.0665*%
%ADD111C,0.1874*%
%ADD112C,0.0598*%
%ADD113R,0.0598X0.0598*%
%ADD114O,0.0600X0.0900*%
%ADD115R,0.0600X0.0900*%
%ADD116C,0.1300*%
D22*
X06885Y0413D02*
D03*
X06795D02*
D03*
X06885Y0421D02*
D03*
X06795D02*
D03*
X06885Y04295D02*
D03*
X06795D02*
D03*
X06885Y0438D02*
D03*
X06795D02*
D03*
X06885Y04465D02*
D03*
X06795D02*
D03*
X0688Y0455D02*
D03*
X0679D02*
D03*
X0688Y04635D02*
D03*
X0679D02*
D03*
X0688Y0472D02*
D03*
X0679D02*
D03*
X0688Y048D02*
D03*
X0679D02*
D03*
X0688Y0488D02*
D03*
X0679D02*
D03*
X0688Y0496D02*
D03*
X0679D02*
D03*
X0688Y0504D02*
D03*
X0679D02*
D03*
X0688Y0512D02*
D03*
X0679D02*
D03*
X0688Y052D02*
D03*
X0679D02*
D03*
X0688Y0528D02*
D03*
X0679D02*
D03*
X0688Y0536D02*
D03*
X0679D02*
D03*
X03965Y04655D02*
D03*
X04055D02*
D03*
X03965Y0458D02*
D03*
X04055D02*
D03*
X03965Y04505D02*
D03*
X04055D02*
D03*
X03965Y0443D02*
D03*
X04055D02*
D03*
X03965Y04355D02*
D03*
X04055D02*
D03*
X03965Y0428D02*
D03*
X04055D02*
D03*
X03965Y04205D02*
D03*
X04055D02*
D03*
X03965Y0413D02*
D03*
X04055D02*
D03*
X00515Y07755D02*
D03*
X00425D02*
D03*
X03035Y0375D02*
D03*
X02945D02*
D03*
X0283Y03745D02*
D03*
X0274D02*
D03*
X02405Y0374D02*
D03*
X02315D02*
D03*
X02205D02*
D03*
X02115D02*
D03*
X0171Y03745D02*
D03*
X018D02*
D03*
X01465Y0374D02*
D03*
X01555D02*
D03*
X03875D02*
D03*
X03785D02*
D03*
X0366Y0375D02*
D03*
X0357D02*
D03*
X03465D02*
D03*
X03375D02*
D03*
D23*
X0485Y05305D02*
D03*
Y05215D02*
D03*
X04775Y05305D02*
D03*
Y05215D02*
D03*
X047Y05305D02*
D03*
Y05215D02*
D03*
X04625Y05305D02*
D03*
Y05215D02*
D03*
X0455Y05305D02*
D03*
Y05215D02*
D03*
X04475Y05305D02*
D03*
Y05215D02*
D03*
X044Y05305D02*
D03*
Y05215D02*
D03*
X04325Y05305D02*
D03*
Y05215D02*
D03*
D24*
X0534Y0524D02*
D03*
X0541D02*
D03*
X0517D02*
D03*
X0524D02*
D03*
X05D02*
D03*
X0507D02*
D03*
X0097Y06885D02*
D03*
X009D02*
D03*
X03635Y0523D02*
D03*
X03565D02*
D03*
X01135Y0608D02*
D03*
X01065D02*
D03*
X0118Y07185D02*
D03*
X0125D02*
D03*
X0358Y06845D02*
D03*
X0365D02*
D03*
X03555Y04515D02*
D03*
X03625D02*
D03*
X03555Y0463D02*
D03*
X03625D02*
D03*
X03555Y0473D02*
D03*
X03625D02*
D03*
X03555Y0483D02*
D03*
X03625D02*
D03*
X03555Y04925D02*
D03*
X03625D02*
D03*
X0356Y0503D02*
D03*
X0363D02*
D03*
X0356Y05135D02*
D03*
X0363D02*
D03*
X0358Y0615D02*
D03*
X0365D02*
D03*
X03575Y06255D02*
D03*
X03645D02*
D03*
X03575Y06345D02*
D03*
X03645D02*
D03*
X04295Y04655D02*
D03*
X04225D02*
D03*
D25*
X05005Y0531D02*
D03*
Y0539D02*
D03*
X05085Y0531D02*
D03*
Y0539D02*
D03*
X0517Y05315D02*
D03*
Y05395D02*
D03*
X05245Y0531D02*
D03*
Y0539D02*
D03*
X03775Y0424D02*
D03*
Y0432D02*
D03*
X03555Y0424D02*
D03*
Y0432D02*
D03*
X0337Y04255D02*
D03*
Y04335D02*
D03*
X02925Y04235D02*
D03*
Y04315D02*
D03*
X02735Y04245D02*
D03*
Y04325D02*
D03*
X02295Y04245D02*
D03*
Y04325D02*
D03*
X02095Y0424D02*
D03*
Y0432D02*
D03*
X01455Y04245D02*
D03*
Y04325D02*
D03*
X0533Y05395D02*
D03*
Y05315D02*
D03*
X0541Y0539D02*
D03*
Y0531D02*
D03*
X0166Y04245D02*
D03*
Y04325D02*
D03*
D26*
X0603Y0458D02*
D03*
Y0465D02*
D03*
X0546Y04515D02*
D03*
Y04585D02*
D03*
X04845Y04505D02*
D03*
Y04575D02*
D03*
X0659Y0458D02*
D03*
Y0465D02*
D03*
X05965Y0405D02*
D03*
Y0398D02*
D03*
X05365Y0405D02*
D03*
Y0398D02*
D03*
X0477Y0399D02*
D03*
Y0406D02*
D03*
X0416Y0397D02*
D03*
Y0404D02*
D03*
X05395Y0497D02*
D03*
Y049D02*
D03*
X0126Y07305D02*
D03*
Y07235D02*
D03*
X00985Y06725D02*
D03*
Y06795D02*
D03*
X0097Y07115D02*
D03*
Y07045D02*
D03*
X01045Y0711D02*
D03*
Y0704D02*
D03*
D27*
X00735Y07375D02*
D03*
X0039Y06555D02*
D03*
D28*
X01025Y07375D02*
D03*
X0068Y06555D02*
D03*
D29*
X057174Y0502D02*
D03*
X056426D02*
D03*
X012898Y074D02*
D03*
X01215D02*
D03*
D30*
X06415Y07105D02*
D03*
X06495D02*
D03*
X05975Y0711D02*
D03*
X06055D02*
D03*
X033595Y05225D02*
D03*
X034395D02*
D03*
X0043Y07865D02*
D03*
X0051D02*
D03*
X034395Y047241D02*
D03*
X033595D02*
D03*
X0344Y0463D02*
D03*
X0336D02*
D03*
X03445Y04515D02*
D03*
X03365D02*
D03*
X034395Y0483D02*
D03*
X033595D02*
D03*
X034395Y04925D02*
D03*
X033595D02*
D03*
X034395Y0503D02*
D03*
X033595D02*
D03*
X034395Y0513D02*
D03*
X033595D02*
D03*
X0344Y0615D02*
D03*
X0336D02*
D03*
X0344Y06245D02*
D03*
X0336D02*
D03*
X0344Y06345D02*
D03*
X0336D02*
D03*
X0344Y06845D02*
D03*
X0336D02*
D03*
D31*
X053234Y051087D02*
D03*
X052734D02*
D03*
X052234D02*
D03*
X051734D02*
D03*
X051234D02*
D03*
X050734D02*
D03*
X050234D02*
D03*
X053234Y048961D02*
D03*
X052734D02*
D03*
X052234D02*
D03*
X051734D02*
D03*
X051234D02*
D03*
X050734D02*
D03*
X050234D02*
D03*
D32*
X0097Y063808D02*
D03*
D33*
X008794Y066092D02*
D03*
X0097D02*
D03*
X010606D02*
D03*
D34*
X0089Y068D02*
D03*
Y067252D02*
D03*
D35*
X065Y046576D02*
D03*
X0645D02*
D03*
X064D02*
D03*
X0635D02*
D03*
X063D02*
D03*
X0625D02*
D03*
X062D02*
D03*
X0615D02*
D03*
X065Y04445D02*
D03*
X0645D02*
D03*
X064D02*
D03*
X0635D02*
D03*
X063D02*
D03*
X0625D02*
D03*
X062D02*
D03*
X0615D02*
D03*
X0591Y046576D02*
D03*
X0586D02*
D03*
X0581D02*
D03*
X0576D02*
D03*
X0571D02*
D03*
X0566D02*
D03*
X0561D02*
D03*
X0556D02*
D03*
X0591Y04445D02*
D03*
X0586D02*
D03*
X0581D02*
D03*
X0576D02*
D03*
X0571D02*
D03*
X0566D02*
D03*
X0561D02*
D03*
X0556D02*
D03*
X04715Y046576D02*
D03*
X04665D02*
D03*
X04615D02*
D03*
X04565D02*
D03*
X04515D02*
D03*
X04465D02*
D03*
X04415D02*
D03*
X04365D02*
D03*
X04715Y04445D02*
D03*
X04665D02*
D03*
X04615D02*
D03*
X04565D02*
D03*
X04515D02*
D03*
X04465D02*
D03*
X04415D02*
D03*
X04365D02*
D03*
X05315Y046576D02*
D03*
X05265D02*
D03*
X05215D02*
D03*
X05165D02*
D03*
X05115D02*
D03*
X05065D02*
D03*
X05015D02*
D03*
X04965D02*
D03*
X05315Y04445D02*
D03*
X05265D02*
D03*
X05215D02*
D03*
X05165D02*
D03*
X05115D02*
D03*
X05065D02*
D03*
X05015D02*
D03*
X04965D02*
D03*
D36*
X0605Y038609D02*
D03*
X061D02*
D03*
X0615D02*
D03*
X062D02*
D03*
X0625D02*
D03*
X063D02*
D03*
X0635D02*
D03*
X064D02*
D03*
X0645D02*
D03*
X0605Y042291D02*
D03*
X061D02*
D03*
X0615D02*
D03*
X062D02*
D03*
X0625D02*
D03*
X063D02*
D03*
X0635D02*
D03*
X064D02*
D03*
X0645D02*
D03*
X0546Y03865D02*
D03*
X0551D02*
D03*
X0556D02*
D03*
X0561D02*
D03*
X0566D02*
D03*
X0571D02*
D03*
X0576D02*
D03*
X0581D02*
D03*
X0586D02*
D03*
X0546Y042331D02*
D03*
X0551D02*
D03*
X0556D02*
D03*
X0561D02*
D03*
X0566D02*
D03*
X0571D02*
D03*
X0576D02*
D03*
X0581D02*
D03*
X0586D02*
D03*
X04865Y038709D02*
D03*
X04915D02*
D03*
X04965D02*
D03*
X05015D02*
D03*
X05065D02*
D03*
X05115D02*
D03*
X05165D02*
D03*
X05215D02*
D03*
X05265D02*
D03*
X04865Y042391D02*
D03*
X04915D02*
D03*
X04965D02*
D03*
X05015D02*
D03*
X05065D02*
D03*
X05115D02*
D03*
X05165D02*
D03*
X05215D02*
D03*
X05265D02*
D03*
X04265Y038659D02*
D03*
X04315D02*
D03*
X04365D02*
D03*
X04415D02*
D03*
X04465D02*
D03*
X04515D02*
D03*
X04565D02*
D03*
X04615D02*
D03*
X04665D02*
D03*
X04265Y042341D02*
D03*
X04315D02*
D03*
X04365D02*
D03*
X04415D02*
D03*
X04465D02*
D03*
X04515D02*
D03*
X04565D02*
D03*
X04615D02*
D03*
X04665D02*
D03*
D37*
X015328Y0463D02*
D03*
Y0473D02*
D03*
Y0483D02*
D03*
Y0493D02*
D03*
Y0503D02*
D03*
Y0513D02*
D03*
Y0523D02*
D03*
Y0533D02*
D03*
Y0543D02*
D03*
Y0553D02*
D03*
Y0563D02*
D03*
Y0573D02*
D03*
Y05845D02*
D03*
Y05945D02*
D03*
Y06045D02*
D03*
Y06145D02*
D03*
Y06245D02*
D03*
Y06345D02*
D03*
Y06445D02*
D03*
Y06545D02*
D03*
Y06645D02*
D03*
Y06745D02*
D03*
Y06845D02*
D03*
Y06945D02*
D03*
X015329Y07145D02*
D03*
X015328Y07345D02*
D03*
X031324Y0473D02*
D03*
Y0483D02*
D03*
Y0493D02*
D03*
Y0503D02*
D03*
Y0513D02*
D03*
Y0523D02*
D03*
Y0533D02*
D03*
Y0543D02*
D03*
Y0553D02*
D03*
Y0563D02*
D03*
Y0573D02*
D03*
Y05845D02*
D03*
Y05945D02*
D03*
Y06045D02*
D03*
Y06145D02*
D03*
Y06245D02*
D03*
Y06345D02*
D03*
Y06445D02*
D03*
Y06545D02*
D03*
Y06645D02*
D03*
Y06745D02*
D03*
Y06945D02*
D03*
Y0463D02*
D03*
X031292Y06845D02*
D03*
D38*
X018851Y046328D02*
D03*
X019851D02*
D03*
X020851D02*
D03*
X021851D02*
D03*
X022851D02*
D03*
X023851D02*
D03*
X024851D02*
D03*
X025851D02*
D03*
X026851D02*
D03*
X027851D02*
D03*
X028851D02*
D03*
X017851D02*
D03*
D92*
X0116Y07015D02*
D03*
Y06815D02*
D03*
Y07115D02*
D03*
Y06915D02*
D03*
X0535Y05705D02*
D03*
X0525D02*
D03*
X0515D02*
D03*
X0505D02*
D03*
X0495D02*
D03*
D93*
X057201Y072652D02*
D03*
X056299D02*
D03*
X051799D02*
D03*
X052701D02*
D03*
X055906Y07455D02*
D03*
X055504Y075251D02*
D03*
X055102Y07455D02*
D03*
X054701Y075251D02*
D03*
X054299Y07455D02*
D03*
X053898Y075251D02*
D03*
X053496Y07455D02*
D03*
X049652Y072702D02*
D03*
X04875D02*
D03*
X04425D02*
D03*
X045152D02*
D03*
X048356Y0746D02*
D03*
X047955Y075301D02*
D03*
X047553Y0746D02*
D03*
X047152Y075301D02*
D03*
X04675Y0746D02*
D03*
X046348Y075301D02*
D03*
X045947Y0746D02*
D03*
X042102Y072702D02*
D03*
X0412D02*
D03*
X0367D02*
D03*
X037602D02*
D03*
X040807Y0746D02*
D03*
X040405Y0753D02*
D03*
X040004Y0746D02*
D03*
X039602Y0753D02*
D03*
X0392Y0746D02*
D03*
X038799Y0753D02*
D03*
X038397Y0746D02*
D03*
D94*
X051301Y0749D02*
D03*
X057699D02*
D03*
X05015Y07495D02*
D03*
X036202Y07495D02*
D03*
X06545Y0749D02*
D03*
X059052D02*
D03*
D95*
X057Y076251D02*
D03*
X052D02*
D03*
X049451Y076301D02*
D03*
X044451D02*
D03*
X041901Y0763D02*
D03*
X036901D02*
D03*
X059751Y076251D02*
D03*
X064751D02*
D03*
D96*
X053094Y075251D02*
D03*
X045545Y075301D02*
D03*
X037996Y0753D02*
D03*
D97*
X043752Y07495D02*
D03*
X0426Y07495D02*
D03*
D98*
X0412Y0375D02*
D03*
X04221D02*
D03*
D99*
X063608Y0361D02*
D03*
X063063Y034982D02*
D03*
X062518Y0361D02*
D03*
X061972Y034982D02*
D03*
X059791D02*
D03*
X060337Y0361D02*
D03*
X060882Y034982D02*
D03*
X061427Y0361D02*
D03*
X05761Y034982D02*
D03*
X058155Y0361D02*
D03*
X058701Y034982D02*
D03*
X059246Y0361D02*
D03*
X053248Y034982D02*
D03*
X053793Y0361D02*
D03*
X054339Y034982D02*
D03*
X057065Y0361D02*
D03*
X052157Y034982D02*
D03*
X052703Y0361D02*
D03*
X055429Y034982D02*
D03*
X055974Y0361D02*
D03*
X05652Y034982D02*
D03*
X054883Y0361D02*
D03*
X051612D02*
D03*
X051067Y034982D02*
D03*
X050522Y0361D02*
D03*
X049976Y034982D02*
D03*
X049431Y0361D02*
D03*
X048886Y034982D02*
D03*
X048341Y0361D02*
D03*
X047795Y034982D02*
D03*
X04725Y0361D02*
D03*
X046705Y034982D02*
D03*
X046159Y0361D02*
D03*
X045614Y034982D02*
D03*
X045069Y0361D02*
D03*
X044524Y034982D02*
D03*
D100*
X066314Y035531D02*
D03*
X041235Y035539D02*
D03*
D101*
X043978Y0361D02*
D03*
X018856Y036068D02*
D03*
D102*
X0033Y07115D02*
D03*
X0109Y04075D02*
D03*
X01325Y03565D02*
D03*
X0028Y0771D02*
D03*
X03725Y0353D02*
D03*
D103*
X0331Y07305D02*
D03*
X03445D02*
D03*
X03375Y0738D02*
D03*
D104*
X060845Y075251D02*
D03*
D105*
X061247Y07455D02*
D03*
X061648Y075251D02*
D03*
X06205Y07455D02*
D03*
X062452Y075251D02*
D03*
X062853Y07455D02*
D03*
X063255Y075251D02*
D03*
X063656Y07455D02*
D03*
D106*
X060452Y072652D02*
D03*
X05955D02*
D03*
X06405D02*
D03*
X064952D02*
D03*
D107*
X004192Y073994D02*
D03*
X004242Y038144D02*
D03*
X067863Y03815D02*
D03*
X067963Y07395D02*
D03*
D108*
X0066Y05795D02*
D03*
X0066Y06095D02*
D03*
X0056Y05695D02*
D03*
X0066Y05695D02*
D03*
X0056Y05795D02*
D03*
X0056Y05895D02*
D03*
X0056Y05995D02*
D03*
X0066Y05995D02*
D03*
X0066Y05895D02*
D03*
X0066Y05595D02*
D03*
X0056Y05495D02*
D03*
X0066D02*
D03*
X0056Y05395D02*
D03*
X0066D02*
D03*
X0056Y05295D02*
D03*
X0066D02*
D03*
X0056Y05195D02*
D03*
X0066D02*
D03*
X0056Y05095D02*
D03*
X0066D02*
D03*
X0056Y04995D02*
D03*
X0066D02*
D03*
X0056Y04895D02*
D03*
X0066D02*
D03*
X0056Y05595D02*
D03*
Y04795D02*
D03*
X0066D02*
D03*
X0056Y04695D02*
D03*
X0066D02*
D03*
X0056Y04595D02*
D03*
X0066D02*
D03*
X0056Y04495D02*
D03*
X0066D02*
D03*
X0056Y04395D02*
D03*
X0066D02*
D03*
X0056Y04295D02*
D03*
X0066D02*
D03*
X0056Y04195D02*
D03*
X0066D02*
D03*
D109*
X0056Y06095D02*
D03*
D110*
X031901Y036068D02*
D03*
X031357Y03495D02*
D03*
X030814Y036068D02*
D03*
X03027Y03495D02*
D03*
X029727Y036068D02*
D03*
X029183Y03495D02*
D03*
X02864Y036068D02*
D03*
X028096Y03495D02*
D03*
X027552Y036068D02*
D03*
X027009Y03495D02*
D03*
X026465Y036068D02*
D03*
X025922Y03495D02*
D03*
X025378Y036068D02*
D03*
X024835Y03495D02*
D03*
X024291Y036068D02*
D03*
X023748Y03495D02*
D03*
X023204Y036068D02*
D03*
X022661Y03495D02*
D03*
X022117Y036068D02*
D03*
X021574Y03495D02*
D03*
X02103Y036068D02*
D03*
X020487Y03495D02*
D03*
X019943Y036068D02*
D03*
X0194Y03495D02*
D03*
D111*
X016116Y035509D02*
D03*
X034641D02*
D03*
D112*
X02545Y03895D02*
D03*
Y03995D02*
D03*
X01895Y0388D02*
D03*
Y0398D02*
D03*
X01305Y03885D02*
D03*
Y03985D02*
D03*
X032Y03905D02*
D03*
Y04005D02*
D03*
D113*
X02545Y04095D02*
D03*
X01895Y0408D02*
D03*
X01305Y04085D02*
D03*
X032Y04105D02*
D03*
D114*
X0293Y04145D02*
D03*
X0303D02*
D03*
Y03845D02*
D03*
X0273Y04145D02*
D03*
X0283D02*
D03*
Y03845D02*
D03*
X02305Y0415D02*
D03*
X02405D02*
D03*
Y0385D02*
D03*
X021Y0415D02*
D03*
X022D02*
D03*
Y0385D02*
D03*
X0166Y0415D02*
D03*
X0176D02*
D03*
Y0385D02*
D03*
X01455Y0415D02*
D03*
X01555D02*
D03*
Y0385D02*
D03*
X0377Y04155D02*
D03*
X0387D02*
D03*
Y03855D02*
D03*
X03565Y04155D02*
D03*
X03665D02*
D03*
Y03855D02*
D03*
X03365Y04155D02*
D03*
X03465D02*
D03*
Y03855D02*
D03*
D115*
X0293Y03845D02*
D03*
X0273D02*
D03*
X02305Y0385D02*
D03*
X021D02*
D03*
X0166D02*
D03*
X01455D02*
D03*
X0377Y03855D02*
D03*
X03565D02*
D03*
X03365D02*
D03*
D116*
X006824Y076274D02*
D03*
X01085Y0763D02*
D03*
X00885D02*
D03*
M02*
