G04*
G04 #@! TF.GenerationSoftware,Altium Limited,Altium Designer,20.0.13 (296)*
G04*
G04 Layer_Color=32768*
%FSTAX24Y24*%
%MOIN*%
G70*
G01*
G75*
%ADD15C,0.0100*%
%ADD18C,0.0039*%
%ADD122C,0.0020*%
D15*
X0021Y07195D02*
X00215Y072D01*
D18*
X051734Y049827D02*
Y050221D01*
X051537Y050024D02*
X051931D01*
X009503Y06495D02*
X009897D01*
X0097Y064753D02*
Y065147D01*
X008283Y063237D02*
Y066663D01*
X011117Y063237D02*
Y066663D01*
X008283Y063237D02*
X011117D01*
X008283Y066663D02*
X011117D01*
X063053Y045513D02*
X063447D01*
X06325Y045316D02*
Y04571D01*
X057153Y045513D02*
X057547D01*
X05735Y045316D02*
Y04571D01*
X062303Y04045D02*
X062697D01*
X0625Y040253D02*
Y040647D01*
X056403Y040491D02*
X056797D01*
X0566Y040294D02*
Y040687D01*
X050453Y04055D02*
X050847D01*
X05065Y040353D02*
Y040747D01*
X044453Y0405D02*
X044847D01*
X04465Y040303D02*
Y040697D01*
X045203Y045513D02*
X045597D01*
X0454Y045316D02*
Y04571D01*
X051203Y045513D02*
X051597D01*
X0514Y045316D02*
Y04571D01*
D122*
X0531Y052105D02*
Y052695D01*
Y052105D02*
X054355D01*
X0544Y05215D02*
Y052695D01*
X054355Y052105D02*
X0544Y05215D01*
X05375Y052213D02*
Y052587D01*
X053563Y0524D02*
X053937D01*
X0531Y052695D02*
X0544D01*
X0514Y052105D02*
Y052695D01*
Y052105D02*
X052655D01*
X0527Y05215D02*
Y052695D01*
X052655Y052105D02*
X0527Y05215D01*
X05205Y052213D02*
Y052587D01*
X051863Y0524D02*
X052237D01*
X0514Y052695D02*
X0527D01*
X0497Y052105D02*
Y052695D01*
Y052105D02*
X050955D01*
X051Y05215D02*
Y052695D01*
X050955Y052105D02*
X051Y05215D01*
X05035Y052213D02*
Y052587D01*
X050163Y0524D02*
X050537D01*
X0497Y052695D02*
X051D01*
X060595Y0455D02*
Y0468D01*
X0603Y045963D02*
Y046337D01*
X060113Y04615D02*
X060487D01*
X060005Y045545D02*
X06005Y0455D01*
X060595D01*
X060005Y045545D02*
Y0468D01*
X060595D01*
X054895Y04485D02*
Y04615D01*
X0546Y045313D02*
Y045687D01*
X054413Y0455D02*
X054787D01*
X054305Y044895D02*
X05435Y04485D01*
X054895D01*
X054305Y044895D02*
Y04615D01*
X054895D01*
X048745Y04475D02*
Y04605D01*
X04845Y045213D02*
Y045587D01*
X048263Y0454D02*
X048637D01*
X048155Y044795D02*
X0482Y04475D01*
X048745D01*
X048155Y044795D02*
Y04605D01*
X048745D01*
X066195Y0455D02*
Y0468D01*
X0659Y045963D02*
Y046337D01*
X065713Y04615D02*
X066087D01*
X065605Y045545D02*
X06565Y0455D01*
X066195D01*
X065605Y045545D02*
Y0468D01*
X066195D01*
X059355Y0395D02*
Y0408D01*
X05965Y039963D02*
Y040337D01*
X059463Y04015D02*
X059837D01*
X0599Y0408D02*
X059945Y040755D01*
X059355Y0408D02*
X0599D01*
X059945Y0395D02*
Y040755D01*
X059355Y0395D02*
X059945D01*
X053355D02*
Y0408D01*
X05365Y039963D02*
Y040337D01*
X053463Y04015D02*
X053837D01*
X0539Y0408D02*
X053945Y040755D01*
X053355Y0408D02*
X0539D01*
X053945Y0395D02*
Y040755D01*
X053355Y0395D02*
X053945D01*
X047995Y0396D02*
Y0409D01*
X0477Y040063D02*
Y040437D01*
X047513Y04025D02*
X047887D01*
X047405Y039645D02*
X04745Y0396D01*
X047995D01*
X047405Y039645D02*
Y0409D01*
X047995D01*
X041895Y0394D02*
Y0407D01*
X0416Y039863D02*
Y040237D01*
X041413Y04005D02*
X041787D01*
X041305Y039445D02*
X04135Y0394D01*
X041895D01*
X041305Y039445D02*
Y0407D01*
X041895D01*
X0087Y069145D02*
X01D01*
X009163Y06885D02*
X009537D01*
X00935Y068663D02*
Y069037D01*
X009955Y068555D02*
X01Y0686D01*
Y069145D01*
X0087Y068555D02*
X009955D01*
X0087D02*
Y069145D01*
X03535Y052595D02*
X03665D01*
X035813Y0523D02*
X036187D01*
X036Y052113D02*
Y052487D01*
X036605Y052005D02*
X03665Y05205D01*
Y052595D01*
X03535Y052005D02*
X036605D01*
X03535D02*
Y052595D01*
X01035Y061095D02*
X01165D01*
X010813Y0608D02*
X011187D01*
X011Y060613D02*
Y060987D01*
X011605Y060505D02*
X01165Y06055D01*
Y061095D01*
X01035Y060505D02*
X011605D01*
X01035D02*
Y061095D01*
X0616Y076105D02*
X0629D01*
X062063Y0764D02*
X062437D01*
X06225Y076213D02*
Y076587D01*
X062855Y076695D02*
X0629Y07665D01*
Y076105D02*
Y07665D01*
X0616Y076695D02*
X062855D01*
X0616Y076105D02*
Y076695D01*
X038455Y04215D02*
Y04345D01*
X03875Y042613D02*
Y042987D01*
X038563Y0428D02*
X038937D01*
X039Y04215D02*
X039045Y042195D01*
X038455Y04215D02*
X039D01*
X039045Y042195D02*
Y04345D01*
X038455D02*
X039045D01*
X028055Y0421D02*
Y0434D01*
X02835Y042563D02*
Y042937D01*
X028163Y04275D02*
X028537D01*
X0286Y0421D02*
X028645Y042145D01*
X028055Y0421D02*
X0286D01*
X028645Y042145D02*
Y0434D01*
X028055D02*
X028645D01*
X030005Y0421D02*
Y0434D01*
X0303Y042563D02*
Y042937D01*
X030113Y04275D02*
X030487D01*
X03055Y0421D02*
X030595Y042145D01*
X030005Y0421D02*
X03055D01*
X030595Y042145D02*
Y0434D01*
X030005D02*
X030595D01*
X034455Y0422D02*
Y0435D01*
X03475Y042663D02*
Y043037D01*
X034563Y04285D02*
X034937D01*
X035Y0422D02*
X035045Y042245D01*
X034455Y0422D02*
X035D01*
X035045Y042245D02*
Y0435D01*
X034455D02*
X035045D01*
X036355Y04215D02*
Y04345D01*
X03665Y042613D02*
Y042987D01*
X036463Y0428D02*
X036837D01*
X0369Y04215D02*
X036945Y042195D01*
X036355Y04215D02*
X0369D01*
X036945Y042195D02*
Y04345D01*
X036355D02*
X036945D01*
X021705Y04215D02*
Y04345D01*
X022Y042613D02*
Y042987D01*
X021813Y0428D02*
X022187D01*
X02225Y04215D02*
X022295Y042195D01*
X021705Y04215D02*
X02225D01*
X022295Y042195D02*
Y04345D01*
X021705D02*
X022295D01*
X023655Y0422D02*
Y0435D01*
X02395Y042663D02*
Y043037D01*
X023763Y04285D02*
X024137D01*
X0242Y0422D02*
X024245Y042245D01*
X023655Y0422D02*
X0242D01*
X024245Y042245D02*
Y0435D01*
X023655D02*
X024245D01*
X015305Y04215D02*
Y04345D01*
X0156Y042613D02*
Y042987D01*
X015413Y0428D02*
X015787D01*
X01585Y04215D02*
X015895Y042195D01*
X015305Y04215D02*
X01585D01*
X015895Y042195D02*
Y04345D01*
X015305D02*
X015895D01*
X017405Y0421D02*
Y0434D01*
X0177Y042563D02*
Y042937D01*
X017513Y04275D02*
X017887D01*
X01795Y0421D02*
X017995Y042145D01*
X017405Y0421D02*
X01795D01*
X017995Y042145D02*
Y0434D01*
X017405D02*
X017995D01*
X053655Y0487D02*
Y05D01*
X05395Y049163D02*
Y049537D01*
X053763Y04935D02*
X054137D01*
X0542Y05D02*
X054245Y049955D01*
X053655Y05D02*
X0542D01*
X054245Y0487D02*
Y049955D01*
X053655Y0487D02*
X054245D01*
X049943Y051524D02*
X053526D01*
X049943Y048524D02*
X053526D01*
Y051524D01*
X049943Y048524D02*
Y051524D01*
X012305Y07335D02*
X012895D01*
X012305Y072095D02*
Y07335D01*
X01235Y07205D02*
X012895D01*
X012305Y072095D02*
X01235Y07205D01*
X012413Y0727D02*
X012787D01*
X0126Y072513D02*
Y072887D01*
X012895Y07205D02*
Y07335D01*
X0115Y071555D02*
Y072145D01*
Y071555D02*
X012755D01*
X0128Y0716D02*
Y072145D01*
X012755Y071555D02*
X0128Y0716D01*
X01215Y071663D02*
Y072037D01*
X011963Y07185D02*
X012337D01*
X0115Y072145D02*
X0128D01*
X009555Y06695D02*
X010145D01*
Y068205D01*
X009555Y06825D02*
X0101D01*
X010145Y068205D01*
X009663Y0676D02*
X010037D01*
X00985Y067413D02*
Y067787D01*
X009555Y06695D02*
Y06825D01*
X009405Y07145D02*
X009995D01*
X009405Y070195D02*
Y07145D01*
X00945Y07015D02*
X009995D01*
X009405Y070195D02*
X00945Y07015D01*
X009513Y0708D02*
X009887D01*
X0097Y070613D02*
Y070987D01*
X009995Y07015D02*
Y07145D01*
X010155Y0714D02*
X010745D01*
X010155Y070145D02*
Y0714D01*
X0102Y0701D02*
X010745D01*
X010155Y070145D02*
X0102Y0701D01*
X010263Y07075D02*
X010637D01*
X01045Y070563D02*
Y070937D01*
X010745Y0701D02*
Y0714D01*
X065297Y044013D02*
Y047013D01*
X061203Y044013D02*
Y047013D01*
X065297D01*
X061203Y044013D02*
X065297D01*
X059397D02*
Y047013D01*
X055303Y044013D02*
Y047013D01*
X059397D01*
X055303Y044013D02*
X059397D01*
X05995Y038157D02*
Y042743D01*
X06505Y038157D02*
Y042743D01*
X05995Y038157D02*
X06505D01*
X05995Y042743D02*
X06505D01*
X05405Y038197D02*
Y042784D01*
X05915Y038197D02*
Y042784D01*
X05405Y038197D02*
X05915D01*
X05405Y042784D02*
X05915D01*
X0481Y038257D02*
Y042843D01*
X0532Y038257D02*
Y042843D01*
X0481Y038257D02*
X0532D01*
X0481Y042843D02*
X0532D01*
X0421Y038207D02*
Y042793D01*
X0472Y038207D02*
Y042793D01*
X0421Y038207D02*
X0472D01*
X0421Y042793D02*
X0472D01*
X047447Y044013D02*
Y047013D01*
X043353Y044013D02*
Y047013D01*
X047447D01*
X043353Y044013D02*
X047447D01*
X053447D02*
Y047013D01*
X049353Y044013D02*
Y047013D01*
X053447D01*
X049353Y044013D02*
X053447D01*
X0355Y068155D02*
Y068745D01*
Y068155D02*
X036755D01*
X0368Y0682D02*
Y068745D01*
X036755Y068155D02*
X0368Y0682D01*
X03615Y068263D02*
Y068637D01*
X035963Y06845D02*
X036337D01*
X0355Y068745D02*
X0368D01*
X03525Y044855D02*
Y045445D01*
Y044855D02*
X036505D01*
X03655Y0449D02*
Y045445D01*
X036505Y044855D02*
X03655Y0449D01*
X0359Y044963D02*
Y045337D01*
X035713Y04515D02*
X036087D01*
X03525Y045445D02*
X03655D01*
X03525Y046005D02*
Y046595D01*
Y046005D02*
X036505D01*
X03655Y04605D02*
Y046595D01*
X036505Y046005D02*
X03655Y04605D01*
X0359Y046113D02*
Y046487D01*
X035713Y0463D02*
X036087D01*
X03525Y046595D02*
X03655D01*
X03525Y047005D02*
Y047595D01*
Y047005D02*
X036505D01*
X03655Y04705D02*
Y047595D01*
X036505Y047005D02*
X03655Y04705D01*
X0359Y047113D02*
Y047487D01*
X035713Y0473D02*
X036087D01*
X03525Y047595D02*
X03655D01*
X03525Y048005D02*
Y048595D01*
Y048005D02*
X036505D01*
X03655Y04805D02*
Y048595D01*
X036505Y048005D02*
X03655Y04805D01*
X0359Y048113D02*
Y048487D01*
X035713Y0483D02*
X036087D01*
X03525Y048595D02*
X03655D01*
X03525Y048955D02*
Y049545D01*
Y048955D02*
X036505D01*
X03655Y049D02*
Y049545D01*
X036505Y048955D02*
X03655Y049D01*
X0359Y049063D02*
Y049437D01*
X035713Y04925D02*
X036087D01*
X03525Y049545D02*
X03655D01*
X0353Y050005D02*
Y050595D01*
Y050005D02*
X036555D01*
X0366Y05005D02*
Y050595D01*
X036555Y050005D02*
X0366Y05005D01*
X03595Y050113D02*
Y050487D01*
X035763Y0503D02*
X036137D01*
X0353Y050595D02*
X0366D01*
X0353Y051055D02*
Y051645D01*
Y051055D02*
X036555D01*
X0366Y0511D02*
Y051645D01*
X036555Y051055D02*
X0366Y0511D01*
X03595Y051163D02*
Y051537D01*
X035763Y05135D02*
X036137D01*
X0353Y051645D02*
X0366D01*
X0355Y061205D02*
Y061795D01*
Y061205D02*
X036755D01*
X0368Y06125D02*
Y061795D01*
X036755Y061205D02*
X0368Y06125D01*
X03615Y061313D02*
Y061687D01*
X035963Y0615D02*
X036337D01*
X0355Y061795D02*
X0368D01*
X03545Y062255D02*
Y062845D01*
Y062255D02*
X036705D01*
X03675Y0623D02*
Y062845D01*
X036705Y062255D02*
X03675Y0623D01*
X0361Y062363D02*
Y062737D01*
X035913Y06255D02*
X036287D01*
X03545Y062845D02*
X03675D01*
X03545Y063155D02*
Y063745D01*
Y063155D02*
X036705D01*
X03675Y0632D02*
Y063745D01*
X036705Y063155D02*
X03675Y0632D01*
X0361Y063263D02*
Y063637D01*
X035913Y06345D02*
X036287D01*
X03545Y063745D02*
X03675D01*
X04325Y046255D02*
Y046845D01*
X041995D02*
X04325D01*
X04195Y046255D02*
Y0468D01*
X041995Y046845D01*
X0426Y046363D02*
Y046737D01*
X042413Y04655D02*
X042787D01*
X04195Y046255D02*
X04325D01*
M02*
