G04*
G04 #@! TF.GenerationSoftware,Altium Limited,Altium Designer,20.0.13 (296)*
G04*
G04 Layer_Color=16711935*
%FSTAX24Y24*%
%MOIN*%
G70*
G01*
G75*
%ADD18C,0.0039*%
D18*
X05327Y050437D02*
G03*
X05327Y050437I-000197J0D01*
G01*
X061852Y0451D02*
G03*
X061852Y0451I-000197J0D01*
G01*
X055952D02*
G03*
X055952Y0451I-000197J0D01*
G01*
X064847Y0415D02*
G03*
X064847Y0415I-000197J0D01*
G01*
X058947Y041541D02*
G03*
X058947Y041541I-000197J0D01*
G01*
X052997Y0416D02*
G03*
X052997Y0416I-000197J0D01*
G01*
X046997Y04155D02*
G03*
X046997Y04155I-000197J0D01*
G01*
X044002Y0451D02*
G03*
X044002Y0451I-000197J0D01*
G01*
X050002D02*
G03*
X050002Y0451I-000197J0D01*
G01*
X053406Y052587D02*
X054094D01*
X053406Y052213D02*
X054094D01*
X053406D02*
Y052587D01*
X054094Y052213D02*
Y052587D01*
X051706D02*
X052394D01*
X051706Y052213D02*
X052394D01*
X051706D02*
Y052587D01*
X052394Y052213D02*
Y052587D01*
X050006D02*
X050694D01*
X050006Y052213D02*
X050694D01*
X050006D02*
Y052587D01*
X050694Y052213D02*
Y052587D01*
X060113Y045806D02*
X060487D01*
X060113Y046494D02*
X060487D01*
X060113Y045806D02*
Y046494D01*
X060487Y045806D02*
Y046494D01*
X054413Y045156D02*
X054787D01*
X054413Y045844D02*
X054787D01*
X054413Y045156D02*
Y045844D01*
X054787Y045156D02*
Y045844D01*
X048263Y045056D02*
X048637D01*
X048263Y045744D02*
X048637D01*
X048263Y045056D02*
Y045744D01*
X048637Y045056D02*
Y045744D01*
X065713Y045806D02*
X066087D01*
X065713Y046494D02*
X066087D01*
X065713Y045806D02*
Y046494D01*
X066087Y045806D02*
Y046494D01*
X059463Y040494D02*
X059837D01*
X059463Y039806D02*
X059837D01*
Y040494D01*
X059463Y039806D02*
Y040494D01*
X053463D02*
X053837D01*
X053463Y039806D02*
X053837D01*
Y040494D01*
X053463Y039806D02*
Y040494D01*
X047513Y039906D02*
X047887D01*
X047513Y040594D02*
X047887D01*
X047513Y039906D02*
Y040594D01*
X047887Y039906D02*
Y040594D01*
X041413Y039706D02*
X041787D01*
X041413Y040394D02*
X041787D01*
X041413Y039706D02*
Y040394D01*
X041787Y039706D02*
Y040394D01*
X009694Y068663D02*
Y069037D01*
X009006Y068663D02*
Y069037D01*
Y068663D02*
X009694D01*
X009006Y069037D02*
X009694D01*
X036344Y052113D02*
Y052487D01*
X035656Y052113D02*
Y052487D01*
Y052113D02*
X036344D01*
X035656Y052487D02*
X036344D01*
X011344Y060613D02*
Y060987D01*
X010656Y060613D02*
Y060987D01*
Y060613D02*
X011344D01*
X010656Y060987D02*
X011344D01*
X062594Y076213D02*
Y076587D01*
X061906Y076213D02*
Y076587D01*
X062594D01*
X061906Y076213D02*
X062594D01*
X038563Y042456D02*
X038937D01*
X038563Y043144D02*
X038937D01*
Y042456D02*
Y043144D01*
X038563Y042456D02*
Y043144D01*
X028163Y042406D02*
X028537D01*
X028163Y043094D02*
X028537D01*
Y042406D02*
Y043094D01*
X028163Y042406D02*
Y043094D01*
X030113Y042406D02*
X030487D01*
X030113Y043094D02*
X030487D01*
Y042406D02*
Y043094D01*
X030113Y042406D02*
Y043094D01*
X034563Y042506D02*
X034937D01*
X034563Y043194D02*
X034937D01*
Y042506D02*
Y043194D01*
X034563Y042506D02*
Y043194D01*
X036463Y042456D02*
X036837D01*
X036463Y043144D02*
X036837D01*
Y042456D02*
Y043144D01*
X036463Y042456D02*
Y043144D01*
X021813Y042456D02*
X022187D01*
X021813Y043144D02*
X022187D01*
Y042456D02*
Y043144D01*
X021813Y042456D02*
Y043144D01*
X023763Y042506D02*
X024137D01*
X023763Y043194D02*
X024137D01*
Y042506D02*
Y043194D01*
X023763Y042506D02*
Y043194D01*
X015413Y042456D02*
X015787D01*
X015413Y043144D02*
X015787D01*
Y042456D02*
Y043144D01*
X015413Y042456D02*
Y043144D01*
X017513Y042406D02*
X017887D01*
X017513Y043094D02*
X017887D01*
Y042406D02*
Y043094D01*
X017513Y042406D02*
Y043094D01*
X053763Y049694D02*
X054137D01*
X053763Y049006D02*
X054137D01*
Y049694D01*
X053763Y049006D02*
Y049694D01*
X050041Y050792D02*
X053427D01*
X050041Y049256D02*
X053427D01*
Y050792D01*
X050041Y049256D02*
Y050792D01*
X012787Y072356D02*
Y073044D01*
X012413Y072356D02*
Y073044D01*
X012787D01*
X012413Y072356D02*
X012787D01*
X011806Y072037D02*
X012494D01*
X011806Y071663D02*
X012494D01*
X011806D02*
Y072037D01*
X012494Y071663D02*
Y072037D01*
X008381Y064222D02*
Y065678D01*
X011019Y064222D02*
Y065678D01*
X008381Y064222D02*
X011019D01*
X008381Y065678D02*
X011019D01*
X009663Y067256D02*
Y067944D01*
X010037Y067256D02*
Y067944D01*
X009663Y067256D02*
X010037D01*
X009663Y067944D02*
X010037D01*
X009887Y070456D02*
Y071144D01*
X009513Y070456D02*
Y071144D01*
X009887D01*
X009513Y070456D02*
X009887D01*
X010637Y070406D02*
Y071094D01*
X010263Y070406D02*
Y071094D01*
X010637D01*
X010263Y070406D02*
X010637D01*
X065199Y044745D02*
Y046281D01*
X061301Y044745D02*
Y046281D01*
X065199D01*
X061301Y044745D02*
X065199D01*
X059299D02*
Y046281D01*
X055401Y044745D02*
Y046281D01*
X059299D01*
X055401Y044745D02*
X059299D01*
X06Y038974D02*
Y041926D01*
X06505Y038974D02*
Y041926D01*
X06Y038974D02*
X06505D01*
X06Y041926D02*
X06505D01*
X0541Y039014D02*
Y041967D01*
X05915Y039014D02*
Y041967D01*
X0541Y039014D02*
X05915D01*
X0541Y041967D02*
X05915D01*
X04815Y039074D02*
Y042026D01*
X0532Y039074D02*
Y042026D01*
X04815Y039074D02*
X0532D01*
X04815Y042026D02*
X0532D01*
X04215Y039024D02*
Y041976D01*
X0472Y039024D02*
Y041976D01*
X04215Y039024D02*
X0472D01*
X04215Y041976D02*
X0472D01*
X047349Y044745D02*
Y046281D01*
X043451Y044745D02*
Y046281D01*
X047349D01*
X043451Y044745D02*
X047349D01*
X053349D02*
Y046281D01*
X049451Y044745D02*
Y046281D01*
X053349D01*
X049451Y044745D02*
X053349D01*
X035806Y068637D02*
X036494D01*
X035806Y068263D02*
X036494D01*
X035806D02*
Y068637D01*
X036494Y068263D02*
Y068637D01*
X035556Y045337D02*
X036244D01*
X035556Y044963D02*
X036244D01*
X035556D02*
Y045337D01*
X036244Y044963D02*
Y045337D01*
X035556Y046487D02*
X036244D01*
X035556Y046113D02*
X036244D01*
X035556D02*
Y046487D01*
X036244Y046113D02*
Y046487D01*
X035556Y047487D02*
X036244D01*
X035556Y047113D02*
X036244D01*
X035556D02*
Y047487D01*
X036244Y047113D02*
Y047487D01*
X035556Y048487D02*
X036244D01*
X035556Y048113D02*
X036244D01*
X035556D02*
Y048487D01*
X036244Y048113D02*
Y048487D01*
X035556Y049437D02*
X036244D01*
X035556Y049063D02*
X036244D01*
X035556D02*
Y049437D01*
X036244Y049063D02*
Y049437D01*
X035606Y050487D02*
X036294D01*
X035606Y050113D02*
X036294D01*
X035606D02*
Y050487D01*
X036294Y050113D02*
Y050487D01*
X035606Y051537D02*
X036294D01*
X035606Y051163D02*
X036294D01*
X035606D02*
Y051537D01*
X036294Y051163D02*
Y051537D01*
X035806Y061687D02*
X036494D01*
X035806Y061313D02*
X036494D01*
X035806D02*
Y061687D01*
X036494Y061313D02*
Y061687D01*
X035756Y062737D02*
X036444D01*
X035756Y062363D02*
X036444D01*
X035756D02*
Y062737D01*
X036444Y062363D02*
Y062737D01*
X035756Y063637D02*
X036444D01*
X035756Y063263D02*
X036444D01*
X035756D02*
Y063637D01*
X036444Y063263D02*
Y063637D01*
X042256Y046363D02*
X042944D01*
X042256Y046737D02*
X042944D01*
Y046363D02*
Y046737D01*
X042256Y046363D02*
Y046737D01*
M02*
