G04*
G04 #@! TF.GenerationSoftware,Altium Limited,Altium Designer,20.0.13 (296)*
G04*
G04 Layer_Color=32768*
%FSTAX24Y24*%
%MOIN*%
G70*
G01*
G75*
%ADD15C,0.0039*%
%ADD103C,0.0020*%
D15*
X056Y036803D02*
Y037197D01*
X055803Y037D02*
X056197D01*
X05565Y04184D02*
Y042234D01*
X055453Y042037D02*
X055847D01*
X04975Y042503D02*
Y042897D01*
X049553Y0427D02*
X049947D01*
X024637Y064183D02*
Y067017D01*
X028063Y064183D02*
Y067017D01*
X024637D02*
X028063D01*
X024637Y064183D02*
X028063D01*
X026153Y0656D02*
X026547D01*
X02635Y065403D02*
Y065797D01*
X06975Y037203D02*
Y037597D01*
X069553Y0374D02*
X069947D01*
D103*
X058295Y04065D02*
Y04195D01*
X058Y041113D02*
Y041487D01*
X057813Y0413D02*
X058187D01*
X057705Y040695D02*
X05775Y04065D01*
X058295D01*
X057705Y040695D02*
Y04195D01*
X058295D01*
X05445Y044455D02*
Y045045D01*
X053195D02*
X05445D01*
X05315Y044455D02*
Y045D01*
X053195Y045045D01*
X0538Y044563D02*
Y044937D01*
X053613Y04475D02*
X053987D01*
X05315Y044455D02*
X05445D01*
X047055Y04525D02*
X047645D01*
Y046505D01*
X047055Y04655D02*
X0476D01*
X047645Y046505D01*
X047163Y0459D02*
X047537D01*
X04735Y045713D02*
Y046087D01*
X047055Y04525D02*
Y04655D01*
X0592Y044505D02*
Y045095D01*
X057945D02*
X0592D01*
X0579Y044505D02*
Y04505D01*
X057945Y045095D01*
X05855Y044613D02*
Y044987D01*
X058363Y0448D02*
X058737D01*
X0579Y044505D02*
X0592D01*
X05655Y044405D02*
Y044995D01*
X055295D02*
X05655D01*
X05525Y044405D02*
Y04495D01*
X055295Y044995D01*
X0559Y044513D02*
Y044887D01*
X055713Y0447D02*
X056087D01*
X05525Y044405D02*
X05655D01*
X0613Y043155D02*
Y043745D01*
Y043155D02*
X062555D01*
X0626Y0432D02*
Y043745D01*
X062555Y043155D02*
X0626Y0432D01*
X06195Y043263D02*
Y043637D01*
X061763Y04345D02*
X062137D01*
X0613Y043745D02*
X0626D01*
X06125Y047405D02*
Y047995D01*
Y047405D02*
X062505D01*
X06255Y04745D02*
Y047995D01*
X062505Y047405D02*
X06255Y04745D01*
X0619Y047513D02*
Y047887D01*
X061713Y0477D02*
X062087D01*
X06125Y047995D02*
X06255D01*
X06125Y045655D02*
Y046245D01*
Y045655D02*
X062505D01*
X06255Y0457D02*
Y046245D01*
X062505Y045655D02*
X06255Y0457D01*
X0619Y045763D02*
Y046137D01*
X061713Y04595D02*
X062087D01*
X06125Y046245D02*
X06255D01*
X06125Y046995D02*
X06255D01*
X061713Y0467D02*
X062087D01*
X0619Y046513D02*
Y046887D01*
X062505Y046405D02*
X06255Y04645D01*
Y046995D01*
X06125Y046405D02*
X062505D01*
X06125D02*
Y046995D01*
X032805Y0315D02*
X033395D01*
Y030245D02*
Y0315D01*
X032805Y0302D02*
X03335D01*
X033395Y030245D01*
X032913Y03085D02*
X033287D01*
X0331Y030663D02*
Y031037D01*
X032805Y0302D02*
Y0315D01*
X028255Y04035D02*
X028845D01*
X028255D02*
Y041605D01*
X0283Y04165D02*
X028845D01*
X028255Y041605D02*
X0283Y04165D01*
X028363Y041D02*
X028737D01*
X02855Y040813D02*
Y041187D01*
X028845Y04035D02*
Y04165D01*
X03398Y04035D02*
X03457D01*
X03398D02*
Y041605D01*
X034025Y04165D02*
X03457D01*
X03398Y041605D02*
X034025Y04165D01*
X034088Y041D02*
X034462D01*
X034275Y040813D02*
Y041187D01*
X03457Y04035D02*
Y04165D01*
X039905Y04035D02*
X040495D01*
X039905D02*
Y041605D01*
X03995Y04165D02*
X040495D01*
X039905Y041605D02*
X03995Y04165D01*
X040013Y041D02*
X040387D01*
X0402Y040813D02*
Y041187D01*
X040495Y04035D02*
Y04165D01*
X029305Y03145D02*
X029895D01*
Y030195D02*
Y03145D01*
X029305Y03015D02*
X02985D01*
X029895Y030195D01*
X029413Y0308D02*
X029787D01*
X0296Y030613D02*
Y030987D01*
X029305Y03015D02*
Y03145D01*
X026005D02*
X026595D01*
Y030195D02*
Y03145D01*
X026005Y03015D02*
X02655D01*
X026595Y030195D01*
X026113Y0308D02*
X026487D01*
X0263Y030613D02*
Y030987D01*
X026005Y03015D02*
Y03145D01*
X044255Y03485D02*
X044845D01*
X044255D02*
Y036105D01*
X0443Y03615D02*
X044845D01*
X044255Y036105D02*
X0443Y03615D01*
X044363Y0355D02*
X044737D01*
X04455Y035313D02*
Y035687D01*
X044845Y03485D02*
Y03615D01*
X053105Y03785D02*
Y03915D01*
X0534Y038313D02*
Y038687D01*
X053213Y0385D02*
X053587D01*
X05365Y03915D02*
X053695Y039105D01*
X053105Y03915D02*
X05365D01*
X053695Y03785D02*
Y039105D01*
X053105Y03785D02*
X053695D01*
X053953Y0355D02*
X058047D01*
X053953Y0385D02*
X058047D01*
X053953Y0355D02*
Y0385D01*
X058047Y0355D02*
Y0385D01*
X053859Y043537D02*
X057441D01*
X053859Y040537D02*
X057441D01*
Y043537D01*
X053859Y040537D02*
Y043537D01*
X05165Y041355D02*
X05295D01*
X052113Y04165D02*
X052487D01*
X0523Y041463D02*
Y041837D01*
X05165Y0419D02*
X051695Y041945D01*
X05165Y041355D02*
Y0419D01*
X051695Y041945D02*
X05295D01*
Y041355D02*
Y041945D01*
X047959Y0442D02*
X051541D01*
X047959Y0412D02*
X051541D01*
Y0442D01*
X047959Y0412D02*
Y0442D01*
X036105Y04605D02*
X036695D01*
X036105D02*
Y047305D01*
X03615Y04735D02*
X036695D01*
X036105Y047305D02*
X03615Y04735D01*
X036213Y0467D02*
X036587D01*
X0364Y046513D02*
Y046887D01*
X036695Y04605D02*
Y04735D01*
X036155Y03825D02*
X036745D01*
X036155D02*
Y039505D01*
X0362Y03955D02*
X036745D01*
X036155Y039505D02*
X0362Y03955D01*
X036263Y0389D02*
X036637D01*
X03645Y038713D02*
Y039087D01*
X036745Y03825D02*
Y03955D01*
X033205Y04605D02*
X033795D01*
X033205D02*
Y047305D01*
X03325Y04735D02*
X033795D01*
X033205Y047305D02*
X03325Y04735D01*
X033313Y0467D02*
X033687D01*
X0335Y046513D02*
Y046887D01*
X033795Y04605D02*
Y04735D01*
X033305Y0382D02*
X033895D01*
X033305D02*
Y039455D01*
X03335Y0395D02*
X033895D01*
X033305Y039455D02*
X03335Y0395D01*
X033413Y03885D02*
X033787D01*
X0336Y038663D02*
Y039037D01*
X033895Y0382D02*
Y0395D01*
X030305Y046D02*
X030895D01*
X030305D02*
Y047255D01*
X03035Y0473D02*
X030895D01*
X030305Y047255D02*
X03035Y0473D01*
X030413Y04665D02*
X030787D01*
X0306Y046463D02*
Y046837D01*
X030895Y046D02*
Y0473D01*
X030405Y0382D02*
X030995D01*
X030405D02*
Y039455D01*
X03045Y0395D02*
X030995D01*
X030405Y039455D02*
X03045Y0395D01*
X030513Y03885D02*
X030887D01*
X0307Y038663D02*
Y039037D01*
X030995Y0382D02*
Y0395D01*
X027555Y046D02*
X028145D01*
X027555D02*
Y047255D01*
X0276Y0473D02*
X028145D01*
X027555Y047255D02*
X0276Y0473D01*
X027663Y04665D02*
X028037D01*
X02785Y046463D02*
Y046837D01*
X028145Y046D02*
Y0473D01*
X041505Y03825D02*
X042095D01*
X041505D02*
Y039505D01*
X04155Y03955D02*
X042095D01*
X041505Y039505D02*
X04155Y03955D01*
X041613Y0389D02*
X041987D01*
X0418Y038713D02*
Y039087D01*
X042095Y03825D02*
Y03955D01*
X038855Y04605D02*
X039445D01*
X038855D02*
Y047305D01*
X0389Y04735D02*
X039445D01*
X038855Y047305D02*
X0389Y04735D01*
X038963Y0467D02*
X039337D01*
X03915Y046513D02*
Y046887D01*
X039445Y04605D02*
Y04735D01*
X038905Y0382D02*
X039495D01*
X038905D02*
Y039455D01*
X03895Y0395D02*
X039495D01*
X038905Y039455D02*
X03895Y0395D01*
X039013Y03885D02*
X039387D01*
X0392Y038663D02*
Y039037D01*
X039495Y0382D02*
Y0395D01*
X027455Y0382D02*
X028045D01*
X027455D02*
Y039455D01*
X0275Y0395D02*
X028045D01*
X027455Y039455D02*
X0275Y0395D01*
X027563Y03885D02*
X027937D01*
X02775Y038663D02*
Y039037D01*
X028045Y0382D02*
Y0395D01*
X067703Y0359D02*
X071797D01*
X067703Y0389D02*
X071797D01*
X067703Y0359D02*
Y0389D01*
X071797Y0359D02*
Y0389D01*
X029005Y0646D02*
Y0659D01*
X0293Y065063D02*
Y065437D01*
X029113Y06525D02*
X029487D01*
X02955Y0659D02*
X029595Y065855D01*
X029005Y0659D02*
X02955D01*
X029595Y0646D02*
Y065855D01*
X029005Y0646D02*
X029595D01*
X06755Y038205D02*
Y038795D01*
X066295D02*
X06755D01*
X06625Y038205D02*
Y03875D01*
X066295Y038795D01*
X0669Y038313D02*
Y038687D01*
X066713Y0385D02*
X067087D01*
X06625Y038205D02*
X06755D01*
X022955Y06475D02*
X023545D01*
Y066005D01*
X022955Y06605D02*
X0235D01*
X023545Y066005D01*
X023063Y0654D02*
X023437D01*
X02325Y065213D02*
Y065587D01*
X022955Y06475D02*
Y06605D01*
M02*
