G04*
G04 #@! TF.GenerationSoftware,Altium Limited,Altium Designer,20.0.13 (296)*
G04*
G04 Layer_Physical_Order=2*
G04 Layer_Color=16711680*
%FSTAX24Y24*%
%MOIN*%
G70*
G01*
G75*
%ADD16C,0.0150*%
%ADD19C,0.0100*%
%ADD23R,0.0433X0.0472*%
%ADD25R,0.0433X0.0315*%
%ADD69C,0.0700*%
%ADD70R,0.0700X0.0700*%
%ADD77C,0.0500*%
%ADD78C,0.0200*%
%ADD79C,0.0200*%
%ADD80C,0.0100*%
%ADD82C,0.0120*%
%ADD83C,0.0300*%
%ADD87C,0.1890*%
%ADD88C,0.0665*%
%ADD89R,0.0665X0.0665*%
%ADD90C,0.1200*%
%ADD91O,0.0600X0.0900*%
%ADD92R,0.0600X0.0900*%
%ADD93C,0.0620*%
%ADD94R,0.0620X0.0620*%
%ADD95C,0.0800*%
%ADD96R,0.0600X0.0600*%
%ADD97C,0.0600*%
%ADD98O,0.1000X0.0660*%
%ADD99C,0.0500*%
%ADD100C,0.2362*%
G36*
X077758Y070237D02*
Y067891D01*
X07771Y067877D01*
X077646Y067982D01*
X077484Y068171D01*
X077295Y068333D01*
X077083Y068463D01*
X076853Y068558D01*
X076611Y068616D01*
X076363Y068636D01*
X076114Y068616D01*
X075873Y068558D01*
X075643Y068463D01*
X07543Y068333D01*
X075241Y068171D01*
X075079Y067982D01*
X074949Y06777D01*
X074854Y06754D01*
X074796Y067298D01*
X074777Y06705D01*
X074796Y066802D01*
X074854Y06656D01*
X074949Y06633D01*
X075079Y066118D01*
X075241Y065929D01*
X07543Y065767D01*
X075643Y065637D01*
X075873Y065542D01*
X076114Y065484D01*
X076363Y065464D01*
X076611Y065484D01*
X076853Y065542D01*
X077083Y065637D01*
X077295Y065767D01*
X077484Y065929D01*
X077646Y066118D01*
X07771Y066223D01*
X077758Y066209D01*
Y032041D01*
X07771Y032027D01*
X077646Y032132D01*
X077484Y032321D01*
X077295Y032483D01*
X077083Y032613D01*
X076853Y032708D01*
X076611Y032766D01*
X076363Y032786D01*
X076114Y032766D01*
X075873Y032708D01*
X075643Y032613D01*
X07543Y032483D01*
X075241Y032321D01*
X075079Y032132D01*
X074949Y03192D01*
X074854Y03169D01*
X074796Y031448D01*
X074777Y0312D01*
X074796Y030952D01*
X074854Y03071D01*
X074949Y03048D01*
X075079Y030268D01*
X075241Y030079D01*
X07543Y029917D01*
X075643Y029787D01*
X075873Y029692D01*
X076114Y029634D01*
X076363Y029614D01*
X076611Y029634D01*
X076853Y029692D01*
X077083Y029787D01*
X077295Y029917D01*
X077484Y030079D01*
X077646Y030268D01*
X07771Y030373D01*
X077758Y030359D01*
Y027287D01*
X074915D01*
X074913Y027337D01*
X074958Y02734D01*
X075164Y02739D01*
X07536Y027471D01*
X07554Y027581D01*
X075701Y027719D01*
X075839Y02788D01*
X075949Y02806D01*
X07603Y028256D01*
X07608Y028462D01*
X076096Y028673D01*
X07608Y028884D01*
X07603Y02909D01*
X075949Y029285D01*
X075839Y029466D01*
X075701Y029627D01*
X07554Y029764D01*
X07536Y029875D01*
X075164Y029956D01*
X074958Y030005D01*
X074747Y030022D01*
X074536Y030005D01*
X07433Y029956D01*
X074135Y029875D01*
X073954Y029764D01*
X073842Y029668D01*
X073794Y029693D01*
X073803Y029817D01*
X073804Y029823D01*
Y031486D01*
X073805D01*
X073786Y031721D01*
X073731Y031951D01*
X073641Y032169D01*
X073517Y03237D01*
X073364Y03255D01*
X073364Y03255D01*
X070849Y035064D01*
X070839Y035072D01*
X070768Y035165D01*
X070718Y035285D01*
X070703Y035401D01*
X070704Y035414D01*
Y0471D01*
X070703Y047114D01*
X070718Y047229D01*
X070768Y04735D01*
X070847Y047453D01*
X07095Y047532D01*
X071071Y047582D01*
X071186Y047597D01*
X0712Y047596D01*
X073414D01*
X073447Y047558D01*
X073446Y04755D01*
Y046533D01*
X073396Y046494D01*
X0733Y046503D01*
X073173Y046491D01*
X07305Y046453D01*
X072937Y046393D01*
X072838Y046312D01*
X072757Y046213D01*
X072697Y0461D01*
X072659Y045977D01*
X072647Y04585D01*
X072659Y045723D01*
X072697Y0456D01*
X072757Y045487D01*
X072796Y04544D01*
Y045204D01*
X07196D01*
X071913Y045243D01*
X0718Y045303D01*
X071677Y045341D01*
X07155Y045353D01*
X071423Y045341D01*
X0713Y045303D01*
X071187Y045243D01*
X071088Y045162D01*
X071007Y045063D01*
X070947Y04495D01*
X070909Y044827D01*
X070897Y0447D01*
X070909Y044573D01*
X070947Y04445D01*
X071007Y044337D01*
X071088Y044238D01*
X071187Y044157D01*
X0713Y044097D01*
X071423Y044059D01*
X07155Y044047D01*
X071677Y044059D01*
X0718Y044097D01*
X071913Y044157D01*
X07196Y044196D01*
X07285D01*
Y044195D01*
X073036Y044214D01*
X073215Y044268D01*
X073262Y044293D01*
X073296Y044307D01*
X073314Y044321D01*
X07338Y044356D01*
X0734Y044373D01*
X073446Y044351D01*
Y044217D01*
X073463Y044087D01*
X073513Y043965D01*
X073593Y043861D01*
X073711Y043743D01*
X073815Y043663D01*
X073837Y043654D01*
X073827Y043604D01*
X0718D01*
X071779Y043602D01*
X071653Y043589D01*
X071512Y043546D01*
X071388Y04348D01*
X0713Y043453D01*
X071187Y043393D01*
X071088Y043312D01*
X071007Y043213D01*
X070947Y0431D01*
X070909Y042977D01*
X070897Y04285D01*
X070909Y042723D01*
X070947Y0426D01*
X071007Y042487D01*
X071037Y04245D01*
X071007Y042413D01*
X070947Y0423D01*
X070909Y042177D01*
X070897Y04205D01*
X070909Y041923D01*
X070947Y0418D01*
X071007Y041687D01*
X071088Y041588D01*
X071187Y041507D01*
X0713Y041447D01*
X071423Y041409D01*
X07155Y041397D01*
X071677Y041409D01*
X0718Y041447D01*
X071913Y041507D01*
X071991Y041571D01*
X07472D01*
X074725Y041567D01*
X074741Y041554D01*
X074763Y04154D01*
X074804Y041507D01*
X074927Y041441D01*
X075061Y0414D01*
X0752Y041387D01*
X075339Y0414D01*
X075473Y041441D01*
X075596Y041507D01*
X075704Y041596D01*
X075764Y041668D01*
X075799Y041699D01*
X075833Y041676D01*
X075918Y041611D01*
X076054Y041554D01*
X076075Y041552D01*
Y0421D01*
X0762D01*
Y042225D01*
X076748D01*
X076746Y042246D01*
X076689Y042382D01*
X076599Y042499D01*
X076508Y04257D01*
Y04263D01*
X076599Y042701D01*
X076689Y042818D01*
X076746Y042954D01*
X076748Y042975D01*
X0762D01*
Y043225D01*
X076748D01*
X076746Y043246D01*
X076689Y043382D01*
X076599Y043499D01*
X076508Y04357D01*
Y04363D01*
X076599Y043701D01*
X076689Y043818D01*
X076746Y043954D01*
X076748Y043975D01*
X0762D01*
Y044225D01*
X076748D01*
X076746Y044246D01*
X076689Y044382D01*
X076599Y044499D01*
X076508Y04457D01*
Y04463D01*
X076599Y044701D01*
X076689Y044818D01*
X076746Y044954D01*
X076748Y044975D01*
X0762D01*
Y045225D01*
X076748D01*
X076746Y045246D01*
X076689Y045382D01*
X076599Y045499D01*
X076508Y04557D01*
Y04563D01*
X076599Y045701D01*
X076689Y045818D01*
X076746Y045954D01*
X076748Y045975D01*
X0762D01*
Y046225D01*
X076748D01*
X076746Y046246D01*
X076689Y046382D01*
X076599Y046499D01*
X076508Y04657D01*
Y04663D01*
X076599Y046701D01*
X076689Y046818D01*
X076746Y046954D01*
X076748Y046975D01*
X0762D01*
Y047225D01*
X076748D01*
X076746Y047246D01*
X076689Y047382D01*
X076599Y047499D01*
X076508Y04757D01*
Y04763D01*
X076599Y047701D01*
X076689Y047818D01*
X076746Y047954D01*
X076748Y047975D01*
X0762D01*
Y0481D01*
X076075D01*
Y048648D01*
X076054Y048646D01*
X07596Y048607D01*
X07591Y04864D01*
Y04881D01*
X07449D01*
Y048604D01*
X0712D01*
Y048605D01*
X070965Y048586D01*
X070735Y048531D01*
X070517Y048441D01*
X070316Y048317D01*
X070136Y048164D01*
X069983Y047984D01*
X069859Y047783D01*
X069769Y047565D01*
X069714Y047335D01*
X069695Y0471D01*
X069696D01*
Y035414D01*
X069695D01*
X069714Y035179D01*
X069769Y034949D01*
X069859Y034731D01*
X069983Y03453D01*
X070136Y03435D01*
X070136Y034351D01*
X07265Y031836D01*
X072661Y031828D01*
X072732Y031735D01*
X072782Y031615D01*
X072797Y031499D01*
X072796Y031486D01*
Y029823D01*
X072797Y029817D01*
X072788Y029751D01*
X07276Y029684D01*
X07272Y029632D01*
X072715Y029628D01*
X072602Y029515D01*
X072552Y029522D01*
X072528Y029567D01*
X072455Y029656D01*
X072367Y029729D01*
X072265Y029783D01*
X072166Y029813D01*
Y029242D01*
X071916D01*
Y029813D01*
X071817Y029783D01*
X071716Y029729D01*
X071627Y029656D01*
X071615Y029641D01*
X071571Y029645D01*
X071561Y029653D01*
X071471Y029762D01*
X071446Y029783D01*
X071435Y029796D01*
X07143Y029801D01*
Y029874D01*
X071413Y030005D01*
X071362Y030127D01*
X071282Y030231D01*
X071282Y030231D01*
X066647Y034867D01*
X066641Y034927D01*
X066603Y03505D01*
X066543Y035163D01*
X066462Y035262D01*
X066363Y035343D01*
X06625Y035403D01*
X066127Y035441D01*
X066Y035453D01*
X065873Y035441D01*
X06575Y035403D01*
X065637Y035343D01*
X065552Y035273D01*
X065494Y035278D01*
X065487Y035287D01*
X065388Y035368D01*
X065275Y035428D01*
X065152Y035466D01*
X065025Y035478D01*
X064898Y035466D01*
X064775Y035428D01*
X064662Y035368D01*
X064644Y035353D01*
X06455Y035403D01*
X064427Y035441D01*
X0643Y035453D01*
X064173Y035441D01*
X06405Y035403D01*
X063937Y035343D01*
X06385Y035272D01*
X063763Y035343D01*
X06365Y035403D01*
X063527Y035441D01*
X0634Y035453D01*
X063273Y035441D01*
X06315Y035403D01*
X063037Y035343D01*
X062938Y035262D01*
X062857Y035163D01*
X062797Y03505D01*
X062759Y034927D01*
X062747Y0348D01*
X062759Y034673D01*
X062797Y03455D01*
X062857Y034437D01*
X062869Y034422D01*
X062832Y034389D01*
X062346Y034875D01*
X062341Y034927D01*
X062303Y03505D01*
X062243Y035163D01*
X062162Y035262D01*
X062063Y035343D01*
X06195Y035403D01*
X061827Y035441D01*
X0617Y035453D01*
X061573Y035441D01*
X06145Y035403D01*
X061337Y035343D01*
X061238Y035262D01*
X06123D01*
X061131Y035343D01*
X061018Y035403D01*
X060896Y035441D01*
X060768Y035453D01*
X060641Y035441D01*
X060518Y035403D01*
X060405Y035343D01*
X060334Y035285D01*
X060263Y035343D01*
X06015Y035403D01*
X060027Y035441D01*
X0599Y035453D01*
X059773Y035441D01*
X05965Y035403D01*
X059537Y035343D01*
X059475Y035292D01*
X059413Y035343D01*
X0593Y035403D01*
X059177Y035441D01*
X05905Y035453D01*
X058923Y035441D01*
X0588Y035403D01*
X058687Y035343D01*
X058588Y035262D01*
X058507Y035163D01*
X058447Y03505D01*
X058409Y034927D01*
X058397Y0348D01*
X058409Y034673D01*
X058447Y03455D01*
X058507Y034437D01*
X058588Y034338D01*
X058687Y034257D01*
X0588Y034197D01*
X058923Y034159D01*
X058983Y034153D01*
X059396Y033741D01*
X059407Y033733D01*
X059478Y03364D01*
X059528Y03352D01*
X059543Y033404D01*
X059541Y033391D01*
Y02978D01*
X059538Y029776D01*
X059533Y029771D01*
X059487Y029764D01*
X059466Y02977D01*
X059364Y029854D01*
X059236Y029922D01*
X059098Y029964D01*
X058955Y029978D01*
X058811Y029964D01*
X058673Y029922D01*
X058546Y029854D01*
X058443Y02977D01*
X058422Y029764D01*
X058376Y029771D01*
X058371Y029776D01*
X058368Y02978D01*
Y029872D01*
X058369D01*
X05835Y030107D01*
X058295Y030337D01*
X058205Y030555D01*
X058081Y030756D01*
X057928Y030936D01*
X057928Y030935D01*
X05405Y034814D01*
X05405Y034814D01*
X05387Y034967D01*
X053669Y035091D01*
X053451Y035181D01*
X053221Y035236D01*
X052986Y035255D01*
Y035254D01*
X05231D01*
X052263Y035293D01*
X05215Y035353D01*
X052027Y035391D01*
X0519Y035403D01*
X051773Y035391D01*
X05165Y035353D01*
X051537Y035293D01*
X051447Y035219D01*
X051412Y035262D01*
X051313Y035343D01*
X0512Y035403D01*
X051077Y035441D01*
X05095Y035453D01*
X050823Y035441D01*
X0507Y035403D01*
X050587Y035343D01*
X050488Y035262D01*
X050462D01*
X050363Y035343D01*
X05025Y035403D01*
X050127Y035441D01*
X05Y035453D01*
X049873Y035441D01*
X04975Y035403D01*
X049637Y035343D01*
X049538Y035262D01*
X049525Y035246D01*
X049475D01*
X049462Y035262D01*
X049363Y035343D01*
X04925Y035403D01*
X049127Y035441D01*
X049Y035453D01*
X048873Y035441D01*
X04875Y035403D01*
X048637Y035343D01*
X048538Y035262D01*
X048457Y035163D01*
X048397Y03505D01*
X048359Y034927D01*
X048347Y0348D01*
X048359Y034673D01*
X048397Y03455D01*
X048457Y034437D01*
X048538Y034338D01*
X048637Y034257D01*
X04875Y034197D01*
X048873Y034159D01*
X048933Y034153D01*
X052918Y030168D01*
X052918Y030168D01*
X052919Y030168D01*
X052923Y030164D01*
X052963Y030113D01*
X05299Y030048D01*
X052993Y030024D01*
X05295Y029974D01*
X051679D01*
Y028509D01*
X052018D01*
X052055Y028461D01*
X052172Y028343D01*
X052276Y028263D01*
X052381Y02822D01*
X052381Y02822D01*
X052398Y028213D01*
X052529Y028196D01*
X052957D01*
Y028124D01*
X053082D01*
Y027553D01*
X053181Y027583D01*
X053282Y027637D01*
X053371Y02771D01*
X053444Y027798D01*
X053474Y027855D01*
X05353D01*
X05356Y027798D01*
X053633Y02771D01*
X053722Y027637D01*
X053823Y027583D01*
X053922Y027553D01*
Y028124D01*
X054172D01*
Y027553D01*
X054271Y027583D01*
X054373Y027637D01*
X054461Y02771D01*
X054534Y027798D01*
X054564Y027855D01*
X054621D01*
X054651Y027798D01*
X054724Y02771D01*
X054813Y027637D01*
X054914Y027583D01*
X055013Y027553D01*
Y028124D01*
X055263D01*
Y027553D01*
X055362Y027583D01*
X055463Y027637D01*
X055552Y02771D01*
X055625Y027798D01*
X055655Y027855D01*
X055711D01*
X055742Y027798D01*
X055814Y02771D01*
X055903Y027637D01*
X056004Y027583D01*
X056103Y027553D01*
Y028124D01*
X056353D01*
Y027553D01*
X056452Y027583D01*
X056554Y027637D01*
X056642Y02771D01*
X056715Y027798D01*
X056745Y027855D01*
X056802D01*
X056832Y027798D01*
X056905Y02771D01*
X056994Y027637D01*
X057095Y027583D01*
X057194Y027553D01*
Y028124D01*
X057444D01*
Y027553D01*
X057543Y027583D01*
X057644Y027637D01*
X057733Y02771D01*
X057806Y027798D01*
X057836Y027855D01*
X057893D01*
X057923Y027798D01*
X057995Y02771D01*
X058084Y027637D01*
X058185Y027583D01*
X058284Y027553D01*
Y028124D01*
X058534D01*
Y027553D01*
X058634Y027583D01*
X058735Y027637D01*
X058823Y02771D01*
X058896Y027798D01*
X058926Y027855D01*
X058983D01*
X059013Y027798D01*
X059086Y02771D01*
X059175Y027637D01*
X059276Y027583D01*
X059375Y027553D01*
Y028124D01*
X059625D01*
Y027553D01*
X059724Y027583D01*
X059825Y027637D01*
X059914Y02771D01*
X059987Y027798D01*
X060017Y027855D01*
X060074D01*
X060104Y027798D01*
X060177Y02771D01*
X060265Y027637D01*
X060366Y027583D01*
X060466Y027553D01*
Y028124D01*
X060716D01*
Y027553D01*
X060815Y027583D01*
X060916Y027637D01*
X061005Y02771D01*
X061077Y027798D01*
X061107Y027855D01*
X061164D01*
X061194Y027798D01*
X061267Y02771D01*
X061356Y027637D01*
X061457Y027583D01*
X061556Y027553D01*
Y028124D01*
X061806D01*
Y027553D01*
X061905Y027583D01*
X062006Y027637D01*
X062095Y02771D01*
X062168Y027798D01*
X062198Y027855D01*
X062255D01*
X062285Y027798D01*
X062358Y02771D01*
X062446Y027637D01*
X062548Y027583D01*
X062647Y027553D01*
Y028124D01*
X062897D01*
Y027553D01*
X062996Y027583D01*
X063097Y027637D01*
X063186Y02771D01*
X063258Y027798D01*
X063289Y027855D01*
X063345D01*
X063375Y027798D01*
X063448Y02771D01*
X063537Y027637D01*
X063638Y027583D01*
X063737Y027553D01*
Y028124D01*
X063987D01*
Y027553D01*
X064086Y027583D01*
X064187Y027637D01*
X064276Y02771D01*
X064349Y027798D01*
X064379Y027855D01*
X064436D01*
X064466Y027798D01*
X064539Y02771D01*
X064627Y027637D01*
X064729Y027583D01*
X064828Y027553D01*
Y028124D01*
X065078D01*
Y027553D01*
X065177Y027583D01*
X065278Y027637D01*
X065367Y02771D01*
X06544Y027798D01*
X06547Y027855D01*
X065526D01*
X065556Y027798D01*
X065629Y02771D01*
X065718Y027637D01*
X065819Y027583D01*
X065918Y027553D01*
Y028124D01*
X066168D01*
Y027553D01*
X066267Y027583D01*
X066369Y027637D01*
X066457Y02771D01*
X06653Y027798D01*
X06656Y027855D01*
X066617D01*
X066647Y027798D01*
X06672Y02771D01*
X066809Y027637D01*
X06691Y027583D01*
X067009Y027553D01*
Y028124D01*
X067259D01*
Y027553D01*
X067358Y027583D01*
X067459Y027637D01*
X067548Y02771D01*
X067621Y027798D01*
X067651Y027855D01*
X067707D01*
X067738Y027798D01*
X06781Y02771D01*
X067899Y027637D01*
X068Y027583D01*
X068099Y027553D01*
Y028124D01*
X068349D01*
Y027553D01*
X068448Y027583D01*
X06855Y027637D01*
X068638Y02771D01*
X068711Y027798D01*
X068741Y027855D01*
X068798D01*
X068828Y027798D01*
X068901Y02771D01*
X06899Y027637D01*
X069091Y027583D01*
X06919Y027553D01*
Y028124D01*
X06944D01*
Y027553D01*
X069539Y027583D01*
X06964Y027637D01*
X069729Y02771D01*
X069802Y027798D01*
X069832Y027855D01*
X069889D01*
X069919Y027798D01*
X069991Y02771D01*
X07008Y027637D01*
X070181Y027583D01*
X07028Y027553D01*
Y028124D01*
X070531D01*
Y027553D01*
X07063Y027583D01*
X070731Y027637D01*
X07082Y02771D01*
X070892Y027798D01*
X070922Y027855D01*
X070979D01*
X071009Y027798D01*
X071082Y02771D01*
X071171Y027637D01*
X071272Y027583D01*
X071371Y027553D01*
Y028124D01*
X071621D01*
Y027553D01*
X07172Y027583D01*
X071821Y027637D01*
X07191Y02771D01*
X071983Y027798D01*
X072037Y0279D01*
X07207Y028009D01*
X072082Y028124D01*
X072078Y028159D01*
X072112Y028196D01*
X072323D01*
Y028196D01*
X072505Y028213D01*
X07268Y028266D01*
X072841Y028352D01*
X072982Y028468D01*
X072982Y028468D01*
X073362Y028849D01*
X07341Y028826D01*
X073398Y028673D01*
X073415Y028462D01*
X073464Y028256D01*
X073545Y02806D01*
X073656Y02788D01*
X073793Y027719D01*
X073954Y027581D01*
X074135Y027471D01*
X07433Y02739D01*
X074536Y02734D01*
X074582Y027337D01*
X07458Y027287D01*
X049741D01*
X049739Y027337D01*
X049879Y027348D01*
X050085Y027397D01*
X050281Y027478D01*
X050461Y027589D01*
X050622Y027726D01*
X05076Y027887D01*
X05087Y028068D01*
X050951Y028263D01*
X051001Y028469D01*
X051017Y02868D01*
X051001Y028891D01*
X050951Y029097D01*
X05087Y029293D01*
X05076Y029473D01*
X050622Y029634D01*
X050461Y029772D01*
X050281Y029882D01*
X050085Y029963D01*
X049879Y030013D01*
X049668Y030029D01*
X049457Y030013D01*
X049251Y029963D01*
X049056Y029882D01*
X048875Y029772D01*
X048714Y029634D01*
X048577Y029473D01*
X048466Y029293D01*
X048385Y029097D01*
X048336Y028891D01*
X048319Y02868D01*
X048336Y028469D01*
X048385Y028263D01*
X048466Y028068D01*
X048577Y027887D01*
X048714Y027726D01*
X048875Y027589D01*
X049056Y027478D01*
X049251Y027397D01*
X049457Y027348D01*
X049598Y027337D01*
X049596Y027287D01*
X011408D01*
X011258Y027437D01*
X011252Y030262D01*
X0113Y030275D01*
X011304Y030268D01*
X011466Y030079D01*
X011655Y029917D01*
X011867Y029787D01*
X012097Y029692D01*
X012339Y029634D01*
X012587Y029614D01*
X012775Y029629D01*
X0128Y029581D01*
X012716Y029483D01*
X012606Y029303D01*
X012525Y029107D01*
X012475Y028901D01*
X012459Y02869D01*
X012475Y028479D01*
X012525Y028273D01*
X012606Y028078D01*
X012716Y027897D01*
X012854Y027736D01*
X013015Y027599D01*
X013195Y027488D01*
X013391Y027407D01*
X013597Y027358D01*
X013808Y027341D01*
X014019Y027358D01*
X014225Y027407D01*
X01442Y027488D01*
X014601Y027599D01*
X014762Y027736D01*
X014899Y027897D01*
X01501Y028078D01*
X015091Y028273D01*
X01514Y028479D01*
X015157Y02869D01*
X01514Y028901D01*
X015091Y029107D01*
X01501Y029303D01*
X014899Y029483D01*
X014762Y029644D01*
X014601Y029782D01*
X01442Y029892D01*
X014225Y029973D01*
X014019Y030023D01*
X013808Y030039D01*
X013728Y030033D01*
X013714Y030065D01*
X013712Y030082D01*
X013871Y030268D01*
X014001Y03048D01*
X014096Y03071D01*
X014154Y030952D01*
X014173Y0312D01*
X014154Y031448D01*
X014096Y03169D01*
X014001Y03192D01*
X013871Y032132D01*
X013709Y032321D01*
X01352Y032483D01*
X013307Y032613D01*
X013077Y032708D01*
X012836Y032766D01*
X012587Y032786D01*
X012339Y032766D01*
X012097Y032708D01*
X011867Y032613D01*
X011655Y032483D01*
X011466Y032321D01*
X011304Y032132D01*
X011295Y032118D01*
X011247Y032131D01*
X011167Y066295D01*
X011217Y06631D01*
X011304Y066168D01*
X011466Y065979D01*
X011655Y065817D01*
X011867Y065687D01*
X012097Y065592D01*
X012339Y065534D01*
X012587Y065514D01*
X012836Y065534D01*
X013077Y065592D01*
X013307Y065687D01*
X01352Y065817D01*
X013709Y065979D01*
X013871Y066168D01*
X014001Y06638D01*
X014096Y06661D01*
X014154Y066852D01*
X014173Y0671D01*
X014154Y067348D01*
X014096Y06759D01*
X014001Y06782D01*
X013871Y068032D01*
X013709Y068221D01*
X01352Y068383D01*
X013307Y068513D01*
X013077Y068608D01*
X012836Y068666D01*
X012587Y068686D01*
X012339Y068666D01*
X012097Y068608D01*
X011867Y068513D01*
X011655Y068383D01*
X011466Y068221D01*
X011304Y068032D01*
X011214Y067884D01*
X011164Y067898D01*
X011158Y070201D01*
X011194Y070237D01*
X077658D01*
X077708Y070287D01*
X077758Y070237D01*
D02*
G37*
G36*
X074892Y0479D02*
X07489Y047919D01*
X074884Y047936D01*
X074874Y047951D01*
X07486Y047964D01*
X074842Y047975D01*
X07482Y047984D01*
X074794Y047991D01*
X074764Y047996D01*
X074729Y047999D01*
X07472Y047999D01*
X074702Y047999D01*
X074664Y047994D01*
X074627Y047987D01*
X074591Y047977D01*
X074556Y047965D01*
X074523Y047949D01*
X07449Y047931D01*
X074459Y047909D01*
X074429Y047885D01*
X0744Y047859D01*
X074117D01*
X074142Y047885D01*
X07416Y047909D01*
X074171Y047931D01*
X074176Y047949D01*
X074173Y047965D01*
X074164Y047977D01*
X074148Y047987D01*
X074125Y047994D01*
X074095Y047999D01*
X074059Y048D01*
X0745Y0482D01*
X074691Y048042D01*
Y0482D01*
X074729Y048201D01*
X074764Y048204D01*
X074794Y048209D01*
X07482Y048216D01*
X074842Y048225D01*
X07486Y048236D01*
X074874Y048249D01*
X074884Y048264D01*
X07489Y048281D01*
X074892Y0483D01*
Y0479D01*
D02*
G37*
G36*
X076395Y047855D02*
X076375Y047832D01*
X076357Y047807D01*
X076342Y047782D01*
X076329Y047757D01*
X076319Y047731D01*
X076311Y047704D01*
X076305Y047677D01*
X076301Y047649D01*
X0763Y047621D01*
X0761D01*
X076099Y047649D01*
X076095Y047677D01*
X076089Y047704D01*
X076081Y047731D01*
X076071Y047757D01*
X076058Y047782D01*
X076043Y047807D01*
X076025Y047832D01*
X076005Y047855D01*
X075983Y047879D01*
X076417D01*
X076395Y047855D01*
D02*
G37*
G36*
X076301Y047551D02*
X076305Y047523D01*
X076311Y047496D01*
X076319Y047469D01*
X076329Y047443D01*
X076342Y047418D01*
X076357Y047393D01*
X076375Y047368D01*
X076395Y047345D01*
X076417Y047321D01*
X075983D01*
X076005Y047345D01*
X076025Y047368D01*
X076043Y047393D01*
X076058Y047418D01*
X076071Y047443D01*
X076081Y047469D01*
X076089Y047496D01*
X076095Y047523D01*
X076099Y047551D01*
X0761Y047579D01*
X0763D01*
X076301Y047551D01*
D02*
G37*
G36*
X076395Y046855D02*
X076375Y046832D01*
X076357Y046807D01*
X076342Y046782D01*
X076329Y046757D01*
X076319Y046731D01*
X076311Y046704D01*
X076305Y046677D01*
X076301Y046649D01*
X0763Y046621D01*
X0761D01*
X076099Y046649D01*
X076095Y046677D01*
X076089Y046704D01*
X076081Y046731D01*
X076071Y046757D01*
X076058Y046782D01*
X076043Y046807D01*
X076025Y046832D01*
X076005Y046855D01*
X075983Y046879D01*
X076417D01*
X076395Y046855D01*
D02*
G37*
G36*
X076301Y046551D02*
X076305Y046523D01*
X076311Y046496D01*
X076319Y046469D01*
X076329Y046443D01*
X076342Y046418D01*
X076357Y046393D01*
X076375Y046368D01*
X076395Y046345D01*
X076417Y046321D01*
X075983D01*
X076005Y046345D01*
X076025Y046368D01*
X076043Y046393D01*
X076058Y046418D01*
X076071Y046443D01*
X076081Y046469D01*
X076089Y046496D01*
X076095Y046523D01*
X076099Y046551D01*
X0761Y046579D01*
X0763D01*
X076301Y046551D01*
D02*
G37*
G36*
X076395Y045855D02*
X076375Y045832D01*
X076357Y045807D01*
X076342Y045782D01*
X076329Y045757D01*
X076319Y045731D01*
X076311Y045704D01*
X076305Y045677D01*
X076301Y045649D01*
X0763Y045621D01*
X0761D01*
X076099Y045649D01*
X076095Y045677D01*
X076089Y045704D01*
X076081Y045731D01*
X076071Y045757D01*
X076058Y045782D01*
X076043Y045807D01*
X076025Y045832D01*
X076005Y045855D01*
X075983Y045879D01*
X076417D01*
X076395Y045855D01*
D02*
G37*
G36*
X073461Y045656D02*
X073448Y04564D01*
X073437Y045623D01*
X073427Y045604D01*
X073419Y045585D01*
X073412Y045564D01*
X073407Y045542D01*
X073403Y04552D01*
X073401Y045496D01*
X0734Y045471D01*
X0732D01*
X073199Y045496D01*
X073197Y04552D01*
X073193Y045542D01*
X073188Y045564D01*
X073181Y045585D01*
X073173Y045604D01*
X073163Y045623D01*
X073152Y04564D01*
X073139Y045656D01*
X073125Y045671D01*
X073475D01*
X073461Y045656D01*
D02*
G37*
G36*
X076301Y045551D02*
X076305Y045523D01*
X076311Y045496D01*
X076319Y045469D01*
X076329Y045443D01*
X076342Y045418D01*
X076357Y045393D01*
X076375Y045368D01*
X076395Y045345D01*
X076417Y045321D01*
X075983D01*
X076005Y045345D01*
X076025Y045368D01*
X076043Y045393D01*
X076058Y045418D01*
X076071Y045443D01*
X076081Y045469D01*
X076089Y045496D01*
X076095Y045523D01*
X076099Y045551D01*
X0761Y045579D01*
X0763D01*
X076301Y045551D01*
D02*
G37*
G36*
X075979Y044883D02*
X075955Y044905D01*
X075932Y044925D01*
X075907Y044943D01*
X075882Y044958D01*
X075857Y044971D01*
X075831Y044981D01*
X075804Y044989D01*
X075777Y044995D01*
X075749Y044999D01*
X075721Y045D01*
Y0452D01*
X075749Y045201D01*
X075777Y045205D01*
X075804Y045211D01*
X075831Y045219D01*
X075857Y045229D01*
X075882Y045242D01*
X075907Y045257D01*
X075932Y045275D01*
X075955Y045295D01*
X075979Y045317D01*
Y044883D01*
D02*
G37*
G36*
X075445Y045295D02*
X075468Y045275D01*
X075493Y045257D01*
X075518Y045242D01*
X075543Y045229D01*
X075569Y045219D01*
X075596Y045211D01*
X075623Y045205D01*
X075651Y045201D01*
X075679Y0452D01*
Y045D01*
X075651Y044999D01*
X075623Y044995D01*
X075596Y044989D01*
X075569Y044981D01*
X075543Y044971D01*
X075518Y044958D01*
X075493Y044943D01*
X075468Y044925D01*
X075445Y044905D01*
X075421Y044883D01*
Y045317D01*
X075445Y045295D01*
D02*
G37*
G36*
X076395Y044855D02*
X076375Y044832D01*
X076357Y044807D01*
X076342Y044782D01*
X076329Y044757D01*
X076319Y044731D01*
X076311Y044704D01*
X076305Y044677D01*
X076301Y044649D01*
X0763Y044621D01*
X0761D01*
X076099Y044649D01*
X076095Y044677D01*
X076089Y044704D01*
X076081Y044731D01*
X076071Y044757D01*
X076058Y044782D01*
X076043Y044807D01*
X076025Y044832D01*
X076005Y044855D01*
X075983Y044879D01*
X076417D01*
X076395Y044855D01*
D02*
G37*
G36*
X074541Y045827D02*
X074607Y045704D01*
X074696Y045596D01*
X074768Y045536D01*
X074799Y045501D01*
X074776Y045468D01*
X074711Y045382D01*
X074654Y045246D01*
X074652Y045225D01*
X0752D01*
Y044975D01*
X074652D01*
X074654Y044954D01*
X074711Y044818D01*
X074776Y044732D01*
X074799Y044699D01*
X074768Y044664D01*
X074707Y044613D01*
X0747Y044608D01*
X074695Y044604D01*
X074454D01*
Y04594D01*
X074504Y045947D01*
X074541Y045827D01*
D02*
G37*
G36*
X076301Y044551D02*
X076305Y044523D01*
X076311Y044496D01*
X076319Y044469D01*
X076329Y044443D01*
X076342Y044418D01*
X076357Y044393D01*
X076375Y044368D01*
X076395Y044345D01*
X076417Y044321D01*
X075983D01*
X076005Y044345D01*
X076025Y044368D01*
X076043Y044393D01*
X076058Y044418D01*
X076071Y044443D01*
X076081Y044469D01*
X076089Y044496D01*
X076095Y044523D01*
X076099Y044551D01*
X0761Y044579D01*
X0763D01*
X076301Y044551D01*
D02*
G37*
G36*
X074979Y043883D02*
X074955Y043905D01*
X074932Y043925D01*
X074907Y043943D01*
X074882Y043958D01*
X074857Y043971D01*
X074831Y043981D01*
X074804Y043989D01*
X074777Y043995D01*
X074749Y043999D01*
X074721Y044D01*
Y0442D01*
X074749Y044201D01*
X074777Y044205D01*
X074804Y044211D01*
X074831Y044219D01*
X074857Y044229D01*
X074882Y044242D01*
X074907Y044257D01*
X074932Y044275D01*
X074955Y044295D01*
X074979Y044317D01*
Y043883D01*
D02*
G37*
G36*
X076395Y043855D02*
X076375Y043832D01*
X076357Y043807D01*
X076342Y043782D01*
X076329Y043757D01*
X076319Y043731D01*
X076311Y043704D01*
X076305Y043677D01*
X076301Y043649D01*
X0763Y043621D01*
X0761D01*
X076099Y043649D01*
X076095Y043677D01*
X076089Y043704D01*
X076081Y043731D01*
X076071Y043757D01*
X076058Y043782D01*
X076043Y043807D01*
X076025Y043832D01*
X076005Y043855D01*
X075983Y043879D01*
X076417D01*
X076395Y043855D01*
D02*
G37*
G36*
X076301Y043551D02*
X076305Y043523D01*
X076311Y043496D01*
X076319Y043469D01*
X076329Y043443D01*
X076342Y043418D01*
X076357Y043393D01*
X076375Y043368D01*
X076395Y043345D01*
X076417Y043321D01*
X075983D01*
X076005Y043345D01*
X076025Y043368D01*
X076043Y043393D01*
X076058Y043418D01*
X076071Y043443D01*
X076081Y043469D01*
X076089Y043496D01*
X076095Y043523D01*
X076099Y043551D01*
X0761Y043579D01*
X0763D01*
X076301Y043551D01*
D02*
G37*
G36*
X074979Y042883D02*
X074955Y042905D01*
X074932Y042925D01*
X074907Y042943D01*
X074882Y042958D01*
X074857Y042971D01*
X074831Y042981D01*
X074804Y042989D01*
X074777Y042995D01*
X074749Y042999D01*
X074721Y043D01*
Y0432D01*
X074749Y043201D01*
X074777Y043205D01*
X074804Y043211D01*
X074831Y043219D01*
X074857Y043229D01*
X074882Y043242D01*
X074907Y043257D01*
X074932Y043275D01*
X074955Y043295D01*
X074979Y043317D01*
Y042883D01*
D02*
G37*
G36*
X076395Y042855D02*
X076375Y042832D01*
X076357Y042807D01*
X076342Y042782D01*
X076329Y042757D01*
X076319Y042731D01*
X076311Y042704D01*
X076305Y042677D01*
X076301Y042649D01*
X0763Y042621D01*
X0761D01*
X076099Y042649D01*
X076095Y042677D01*
X076089Y042704D01*
X076081Y042731D01*
X076071Y042757D01*
X076058Y042782D01*
X076043Y042807D01*
X076025Y042832D01*
X076005Y042855D01*
X075983Y042879D01*
X076417D01*
X076395Y042855D01*
D02*
G37*
G36*
X076301Y042551D02*
X076305Y042523D01*
X076311Y042496D01*
X076319Y042469D01*
X076329Y042443D01*
X076342Y042418D01*
X076357Y042393D01*
X076375Y042368D01*
X076395Y042345D01*
X076417Y042321D01*
X075983D01*
X076005Y042345D01*
X076025Y042368D01*
X076043Y042393D01*
X076058Y042418D01*
X076071Y042443D01*
X076081Y042469D01*
X076089Y042496D01*
X076095Y042523D01*
X076099Y042551D01*
X0761Y042579D01*
X0763D01*
X076301Y042551D01*
D02*
G37*
G36*
X071727Y042229D02*
X071744Y042218D01*
X071762Y042208D01*
X071782Y042199D01*
X071802Y042192D01*
X071823Y042186D01*
X071845Y042181D01*
X071868Y042178D01*
X071892Y042176D01*
X071917Y042175D01*
X071938Y041975D01*
X071913Y041974D01*
X07189Y041972D01*
X071867Y041968D01*
X071846Y041962D01*
X071826Y041955D01*
X071807Y041946D01*
X07179Y041935D01*
X071774Y041923D01*
X071759Y041909D01*
X071745Y041894D01*
X07171Y042242D01*
X071727Y042229D01*
D02*
G37*
G36*
X074997Y041866D02*
X074972Y041887D01*
X074946Y041905D01*
X07492Y041922D01*
X074894Y041936D01*
X074867Y041948D01*
X074841Y041958D01*
X074813Y041965D01*
X074786Y041971D01*
X074758Y041974D01*
X07473Y041975D01*
X074713Y042175D01*
X074742Y042176D01*
X07477Y04218D01*
X074797Y042186D01*
X074823Y042195D01*
X074848Y042206D01*
X074873Y042219D01*
X074896Y042235D01*
X074919Y042254D01*
X074941Y042275D01*
X074962Y042298D01*
X074997Y041866D01*
D02*
G37*
G36*
X052094Y034911D02*
X05211Y034898D01*
X052127Y034887D01*
X052146Y034877D01*
X052165Y034869D01*
X052186Y034862D01*
X052208Y034857D01*
X05223Y034853D01*
X052254Y034851D01*
X052279Y03485D01*
Y03465D01*
X052254Y034649D01*
X05223Y034647D01*
X052208Y034643D01*
X052186Y034638D01*
X052165Y034631D01*
X052146Y034623D01*
X052127Y034613D01*
X05211Y034602D01*
X052094Y034589D01*
X052079Y034575D01*
Y034925D01*
X052094Y034911D01*
D02*
G37*
G36*
X06527Y034767D02*
X06527Y034747D01*
X065272Y034727D01*
X065277Y034707D01*
X065283Y034688D01*
X065292Y034669D01*
X065303Y03465D01*
X065315Y034631D01*
X06533Y034612D01*
X065348Y034594D01*
X065184Y034475D01*
X065166Y034492D01*
X065148Y034507D01*
X065129Y034521D01*
X065111Y034534D01*
X065092Y034545D01*
X065072Y034554D01*
X065053Y034562D01*
X065033Y034569D01*
X065013Y034574D01*
X064992Y034577D01*
X065272Y034787D01*
X06527Y034767D01*
D02*
G37*
G36*
X061951Y034782D02*
X061954Y034761D01*
X061959Y034741D01*
X061965Y034721D01*
X061973Y034702D01*
X061983Y034682D01*
X061995Y034663D01*
X062009Y034645D01*
X062024Y034626D01*
X062041Y034608D01*
X061903Y034463D01*
X061885Y03448D01*
X061866Y034496D01*
X061847Y034509D01*
X061828Y03452D01*
X061809Y03453D01*
X061789Y034538D01*
X061769Y034544D01*
X061749Y034548D01*
X061729Y03455D01*
X061708Y03455D01*
X06195Y034803D01*
X061951Y034782D01*
D02*
G37*
G36*
X066251Y034777D02*
X066253Y034756D01*
X066258Y034736D01*
X066264Y034716D01*
X066272Y034696D01*
X066281Y034677D01*
X066293Y034658D01*
X066306Y034639D01*
X066322Y034621D01*
X066339Y034603D01*
X066197Y034461D01*
X066179Y034478D01*
X066161Y034494D01*
X066142Y034507D01*
X066123Y034519D01*
X066104Y034528D01*
X066084Y034536D01*
X066064Y034542D01*
X066044Y034547D01*
X066023Y034549D01*
X066002Y03455D01*
X06625Y034797D01*
X066251Y034777D01*
D02*
G37*
G36*
X064551D02*
X064553Y034756D01*
X064558Y034736D01*
X064564Y034716D01*
X064572Y034696D01*
X064581Y034677D01*
X064593Y034658D01*
X064606Y034639D01*
X064622Y034621D01*
X064639Y034603D01*
X064497Y034461D01*
X064479Y034478D01*
X064461Y034494D01*
X064442Y034507D01*
X064423Y034519D01*
X064404Y034528D01*
X064384Y034536D01*
X064364Y034542D01*
X064344Y034547D01*
X064323Y034549D01*
X064303Y03455D01*
X06455Y034797D01*
X064551Y034777D01*
D02*
G37*
G36*
X063651D02*
X063653Y034756D01*
X063658Y034736D01*
X063664Y034716D01*
X063672Y034696D01*
X063681Y034677D01*
X063693Y034658D01*
X063706Y034639D01*
X063722Y034621D01*
X063739Y034603D01*
X063597Y034461D01*
X063579Y034478D01*
X063561Y034494D01*
X063542Y034507D01*
X063523Y034519D01*
X063504Y034528D01*
X063484Y034536D01*
X063464Y034542D01*
X063444Y034547D01*
X063423Y034549D01*
X063403Y03455D01*
X06365Y034797D01*
X063651Y034777D01*
D02*
G37*
G36*
X061019D02*
X061021Y034756D01*
X061026Y034736D01*
X061032Y034716D01*
X06104Y034696D01*
X06105Y034677D01*
X061061Y034658D01*
X061075Y034639D01*
X06109Y034621D01*
X061107Y034603D01*
X060966Y034461D01*
X060947Y034478D01*
X060929Y034494D01*
X06091Y034507D01*
X060891Y034519D01*
X060872Y034528D01*
X060852Y034536D01*
X060832Y034542D01*
X060812Y034547D01*
X060792Y034549D01*
X060771Y03455D01*
X061018Y034797D01*
X061019Y034777D01*
D02*
G37*
G36*
X060151D02*
X060153Y034756D01*
X060158Y034736D01*
X060164Y034716D01*
X060172Y034696D01*
X060181Y034677D01*
X060193Y034658D01*
X060206Y034639D01*
X060222Y034621D01*
X060239Y034603D01*
X060097Y034461D01*
X060079Y034478D01*
X060061Y034494D01*
X060042Y034507D01*
X060023Y034519D01*
X060004Y034528D01*
X059984Y034536D01*
X059964Y034542D01*
X059944Y034547D01*
X059923Y034549D01*
X059903Y03455D01*
X06015Y034797D01*
X060151Y034777D01*
D02*
G37*
G36*
X059301D02*
X059303Y034756D01*
X059308Y034736D01*
X059314Y034716D01*
X059322Y034696D01*
X059331Y034677D01*
X059343Y034658D01*
X059356Y034639D01*
X059372Y034621D01*
X059389Y034603D01*
X059247Y034461D01*
X059229Y034478D01*
X059211Y034494D01*
X059192Y034507D01*
X059173Y034519D01*
X059154Y034528D01*
X059134Y034536D01*
X059114Y034542D01*
X059094Y034547D01*
X059073Y034549D01*
X059053Y03455D01*
X0593Y034797D01*
X059301Y034777D01*
D02*
G37*
G36*
X051201D02*
X051203Y034756D01*
X051208Y034736D01*
X051214Y034716D01*
X051222Y034696D01*
X051231Y034677D01*
X051243Y034658D01*
X051256Y034639D01*
X051272Y034621D01*
X051289Y034603D01*
X051147Y034461D01*
X051129Y034478D01*
X051111Y034494D01*
X051092Y034507D01*
X051073Y034519D01*
X051054Y034528D01*
X051034Y034536D01*
X051014Y034542D01*
X050994Y034547D01*
X050973Y034549D01*
X050953Y03455D01*
X0512Y034797D01*
X051201Y034777D01*
D02*
G37*
G36*
X050251D02*
X050253Y034756D01*
X050258Y034736D01*
X050264Y034716D01*
X050272Y034696D01*
X050281Y034677D01*
X050293Y034658D01*
X050306Y034639D01*
X050322Y034621D01*
X050339Y034603D01*
X050197Y034461D01*
X050179Y034478D01*
X050161Y034494D01*
X050142Y034507D01*
X050123Y034519D01*
X050104Y034528D01*
X050084Y034536D01*
X050064Y034542D01*
X050044Y034547D01*
X050023Y034549D01*
X050002Y03455D01*
X05025Y034797D01*
X050251Y034777D01*
D02*
G37*
G36*
X049251D02*
X049253Y034756D01*
X049258Y034736D01*
X049264Y034716D01*
X049272Y034696D01*
X049281Y034677D01*
X049293Y034658D01*
X049306Y034639D01*
X049322Y034621D01*
X049339Y034603D01*
X049197Y034461D01*
X049179Y034478D01*
X049161Y034494D01*
X049142Y034507D01*
X049123Y034519D01*
X049104Y034528D01*
X049084Y034536D01*
X049064Y034542D01*
X049044Y034547D01*
X049023Y034549D01*
X049002Y03455D01*
X04925Y034797D01*
X049251Y034777D01*
D02*
G37*
G36*
X053115Y034232D02*
X053235Y034182D01*
X053328Y034111D01*
X053336Y0341D01*
X055875Y031562D01*
X055874Y031546D01*
X055821Y031508D01*
X055714Y031533D01*
X055705Y031537D01*
X055691Y031539D01*
X055648Y031549D01*
X055413Y031568D01*
Y031568D01*
X054987D01*
X054985Y031568D01*
X054865Y031618D01*
X054772Y031689D01*
X054764Y0317D01*
X052295Y034168D01*
X052298Y034236D01*
X05231Y034246D01*
X052986D01*
X052999Y034247D01*
X053115Y034232D01*
D02*
G37*
G36*
X069173Y029914D02*
X069143Y029873D01*
X069051Y029922D01*
X068913Y029964D01*
X06877Y029978D01*
X068626Y029964D01*
X068488Y029922D01*
X068361Y029854D01*
X068258Y02977D01*
X068237Y029764D01*
X068191Y029771D01*
X068186Y029776D01*
X068183Y02978D01*
Y030838D01*
X06823Y030857D01*
X069173Y029914D01*
D02*
G37*
G36*
X055542Y030545D02*
X055662Y030496D01*
X055755Y030425D01*
X055763Y030414D01*
X056124Y030053D01*
X056135Y030044D01*
X056206Y029952D01*
X056256Y029832D01*
X05626Y029799D01*
X056214Y029767D01*
X056195Y02977D01*
X056092Y029854D01*
X055965Y029922D01*
X055827Y029964D01*
X055683Y029978D01*
X055539Y029964D01*
X055401Y029922D01*
X055274Y029854D01*
X055172Y02977D01*
X055151Y029764D01*
X055105Y029771D01*
X0551Y029776D01*
X055097Y02978D01*
Y030077D01*
X055095Y030088D01*
X055081Y030237D01*
X055034Y03039D01*
X054971Y030509D01*
X054998Y030559D01*
X055413D01*
X055426Y030561D01*
X055542Y030545D01*
D02*
G37*
G36*
X062667Y032188D02*
X062677Y03218D01*
X062748Y032088D01*
X062798Y031967D01*
X062814Y031852D01*
X062812Y031838D01*
Y02978D01*
X062809Y029776D01*
X062804Y029771D01*
X062758Y029764D01*
X062737Y02977D01*
X062635Y029854D01*
X062508Y029922D01*
X06237Y029964D01*
X062226Y029978D01*
X062083Y029964D01*
X061945Y029922D01*
X061817Y029854D01*
X061715Y02977D01*
X061694Y029764D01*
X061648Y029771D01*
X061643Y029776D01*
X06164Y02978D01*
Y033144D01*
X061657Y033158D01*
X061685Y03317D01*
X062667Y032188D01*
D02*
G37*
G36*
X063037Y034257D02*
X06315Y034197D01*
X063273Y034159D01*
X063333Y034153D01*
X065939Y031548D01*
X06595Y031539D01*
X066021Y031447D01*
X066071Y031326D01*
X066086Y031211D01*
X066084Y031197D01*
Y02978D01*
X066082Y029776D01*
X066076Y029771D01*
X066031Y029764D01*
X066009Y02977D01*
X065907Y029854D01*
X06578Y029922D01*
X065642Y029964D01*
X065498Y029978D01*
X065354Y029964D01*
X065216Y029922D01*
X065089Y029854D01*
X064987Y02977D01*
X064965Y029764D01*
X06492Y029771D01*
X064915Y029776D01*
X064912Y02978D01*
Y031686D01*
X064912D01*
X064894Y031921D01*
X064838Y032151D01*
X064748Y032369D01*
X064625Y03257D01*
X064471Y03275D01*
X064471Y03275D01*
X062989Y034232D01*
X063022Y034269D01*
X063037Y034257D01*
D02*
G37*
G36*
X060618Y033279D02*
X060633Y033164D01*
X060632Y03315D01*
Y029787D01*
X060591Y029764D01*
X06055Y029787D01*
Y033314D01*
X0606Y033324D01*
X060618Y033279D01*
D02*
G37*
G36*
X056874Y029676D02*
X056878Y029629D01*
X056881Y02961D01*
X056886Y029592D01*
X056891Y029577D01*
X056898Y029564D01*
X056905Y029554D01*
X056913Y029545D01*
X056923Y029539D01*
X056624D01*
X056634Y029545D01*
X056642Y029554D01*
X05665Y029564D01*
X056656Y029577D01*
X056661Y029592D01*
X056666Y02961D01*
X056669Y029629D01*
X056672Y029651D01*
X056674Y029702D01*
X056874D01*
X056874Y029676D01*
D02*
G37*
G36*
X069961Y029718D02*
X069964Y029688D01*
X06997Y029659D01*
X069977Y029632D01*
X069986Y029606D01*
X069998Y029583D01*
X070012Y02956D01*
X070027Y02954D01*
X070045Y029521D01*
X070065Y029504D01*
X069655D01*
X069675Y029521D01*
X069693Y02954D01*
X069709Y02956D01*
X069722Y029583D01*
X069734Y029606D01*
X069743Y029632D01*
X069751Y029659D01*
X069756Y029688D01*
X069759Y029718D01*
X06976Y02975D01*
X06996D01*
X069961Y029718D01*
D02*
G37*
G36*
X06778Y029729D02*
X067784Y0297D01*
X067791Y029671D01*
X0678Y029642D01*
X067812Y029614D01*
X067827Y029587D01*
X067844Y029559D01*
X067864Y029532D01*
X067887Y029506D01*
X067912Y029479D01*
X067446D01*
X067471Y029506D01*
X067494Y029532D01*
X067514Y029559D01*
X067531Y029587D01*
X067546Y029614D01*
X067558Y029642D01*
X067567Y029671D01*
X067574Y0297D01*
X067578Y029729D01*
X067579Y029759D01*
X067779D01*
X06778Y029729D01*
D02*
G37*
G36*
X06669D02*
X066694Y0297D01*
X066701Y029671D01*
X06671Y029642D01*
X066722Y029614D01*
X066736Y029587D01*
X066754Y029559D01*
X066774Y029532D01*
X066796Y029506D01*
X066821Y029479D01*
X066356D01*
X066381Y029506D01*
X066404Y029532D01*
X066423Y029559D01*
X066441Y029587D01*
X066455Y029614D01*
X066467Y029642D01*
X066477Y029671D01*
X066483Y0297D01*
X066487Y029729D01*
X066489Y029759D01*
X066689D01*
X06669Y029729D01*
D02*
G37*
G36*
X064509D02*
X064513Y0297D01*
X064519Y029671D01*
X064529Y029642D01*
X064541Y029614D01*
X064555Y029587D01*
X064573Y029559D01*
X064593Y029532D01*
X064615Y029506D01*
X06464Y029479D01*
X064175D01*
X0642Y029506D01*
X064222Y029532D01*
X064242Y029559D01*
X06426Y029587D01*
X064274Y029614D01*
X064286Y029642D01*
X064296Y029671D01*
X064302Y0297D01*
X064306Y029729D01*
X064307Y029759D01*
X064507D01*
X064509Y029729D01*
D02*
G37*
G36*
X063417D02*
X063421Y0297D01*
X063428Y029671D01*
X063437Y029642D01*
X063449Y029614D01*
X063464Y029587D01*
X063481Y029559D01*
X063501Y029532D01*
X063524Y029506D01*
X063549Y029479D01*
X063083D01*
X063108Y029506D01*
X063131Y029532D01*
X063151Y029559D01*
X063168Y029587D01*
X063183Y029614D01*
X063195Y029642D01*
X063204Y029671D01*
X063211Y0297D01*
X063215Y029729D01*
X063216Y029759D01*
X063416D01*
X063417Y029729D01*
D02*
G37*
G36*
X061237D02*
X061241Y0297D01*
X061248Y029671D01*
X061257Y029642D01*
X061269Y029614D01*
X061284Y029587D01*
X061301Y029559D01*
X061321Y029532D01*
X061343Y029506D01*
X061369Y029479D01*
X060903D01*
X060928Y029506D01*
X060951Y029532D01*
X060971Y029559D01*
X060988Y029587D01*
X061003Y029614D01*
X061015Y029642D01*
X061024Y029671D01*
X061031Y0297D01*
X061034Y029729D01*
X061036Y029759D01*
X061236D01*
X061237Y029729D01*
D02*
G37*
G36*
X060147D02*
X060151Y0297D01*
X060157Y029671D01*
X060167Y029642D01*
X060178Y029614D01*
X060193Y029587D01*
X06021Y029559D01*
X06023Y029532D01*
X060253Y029506D01*
X060278Y029479D01*
X059812D01*
X059838Y029506D01*
X05986Y029532D01*
X05988Y029559D01*
X059897Y029587D01*
X059912Y029614D01*
X059924Y029642D01*
X059933Y029671D01*
X05994Y0297D01*
X059944Y029729D01*
X059945Y029759D01*
X060145D01*
X060147Y029729D01*
D02*
G37*
G36*
X057966Y029729D02*
X057969Y0297D01*
X057976Y029671D01*
X057985Y029642D01*
X057997Y029614D01*
X058012Y029587D01*
X058029Y029559D01*
X058049Y029532D01*
X058072Y029506D01*
X058097Y029479D01*
X057631D01*
X057657Y029506D01*
X057679Y029532D01*
X057699Y029559D01*
X057716Y029587D01*
X057731Y029614D01*
X057743Y029642D01*
X057752Y029671D01*
X057759Y0297D01*
X057763Y029729D01*
X057764Y029759D01*
X057964D01*
X057966Y029729D01*
D02*
G37*
G36*
X054694D02*
X054698Y0297D01*
X054704Y029671D01*
X054714Y029642D01*
X054726Y029614D01*
X05474Y029587D01*
X054758Y029559D01*
X054778Y029532D01*
X0548Y029506D01*
X054825Y029479D01*
X05436D01*
X054385Y029506D01*
X054407Y029532D01*
X054427Y029559D01*
X054445Y029587D01*
X054459Y029614D01*
X054471Y029642D01*
X054481Y029671D01*
X054487Y0297D01*
X054491Y029729D01*
X054493Y029759D01*
X054693D01*
X054694Y029729D01*
D02*
G37*
G36*
X053603D02*
X053607Y0297D01*
X053614Y029671D01*
X053623Y029642D01*
X053635Y029614D01*
X05365Y029587D01*
X053667Y029559D01*
X053687Y029532D01*
X05371Y029506D01*
X053735Y029479D01*
X053269D01*
X053294Y029506D01*
X053317Y029532D01*
X053337Y029559D01*
X053354Y029587D01*
X053369Y029614D01*
X053381Y029642D01*
X05339Y029671D01*
X053397Y0297D01*
X053401Y029729D01*
X053402Y029759D01*
X053602D01*
X053603Y029729D01*
D02*
G37*
G36*
X071027Y029736D02*
X071031Y029706D01*
X071038Y029678D01*
X071048Y02965D01*
X07106Y029622D01*
X071076Y029596D01*
X071094Y02957D01*
X071115Y029545D01*
X071138Y02952D01*
X071165Y029496D01*
X070701Y029461D01*
X070724Y02949D01*
X070746Y029518D01*
X070764Y029547D01*
X070781Y029576D01*
X070794Y029604D01*
X070806Y029633D01*
X070814Y029662D01*
X070821Y029691D01*
X070824Y02972D01*
X070826Y02975D01*
X071026Y029766D01*
X071027Y029736D01*
D02*
G37*
G36*
X058991Y028911D02*
X058986Y02891D01*
X058982Y028906D01*
X058978Y028901D01*
X058975Y028895D01*
X058972Y028886D01*
X05897Y028875D01*
X058968Y028863D01*
X058967Y028849D01*
X058966Y028816D01*
X058766D01*
X058766Y028845D01*
X058758Y028968D01*
X058756Y028974D01*
X058753Y028977D01*
X058991Y028911D01*
D02*
G37*
G36*
X065569Y028917D02*
X065537Y028909D01*
X065475Y028889D01*
X065446Y028877D01*
X065419Y028863D01*
X065392Y028848D01*
X065367Y028831D01*
X065342Y028814D01*
X065319Y028794D01*
X065297Y028773D01*
X065129Y028889D01*
X065148Y028909D01*
X065164Y028931D01*
X065177Y028954D01*
X065187Y028977D01*
X065194Y029001D01*
X065198Y029026D01*
X065199Y029052D01*
X065196Y029079D01*
X065191Y029107D01*
X065183Y029135D01*
X065569Y028917D01*
D02*
G37*
G36*
X062312Y02892D02*
X062275Y02891D01*
X062206Y028886D01*
X062175Y028872D01*
X062117Y028843D01*
X062091Y028827D01*
X062068Y02881D01*
X062045Y028792D01*
X062025Y028773D01*
X061842Y028873D01*
X061863Y028896D01*
X061881Y02892D01*
X061895Y028945D01*
X061906Y028971D01*
X061914Y028998D01*
X061919Y029026D01*
X061921Y029056D01*
X061919Y029086D01*
X061915Y029117D01*
X061907Y02915D01*
X062312Y02892D01*
D02*
G37*
G36*
X068766Y028909D02*
X06873Y028908D01*
X068695Y028906D01*
X068662Y028901D01*
X06863Y028893D01*
X0686Y028884D01*
X068572Y028873D01*
X068555Y028864D01*
X068552Y028851D01*
X068555Y028835D01*
X068564Y028823D01*
X06858Y028813D01*
X068603Y028806D01*
X068633Y028801D01*
X068669Y0288D01*
X068228Y0286D01*
X067986Y0288D01*
X068026Y028801D01*
X068064Y028806D01*
X068101Y028813D01*
X068137Y028823D01*
X068172Y028835D01*
X068205Y028851D01*
X068238Y028869D01*
X068269Y028891D01*
X068299Y028915D01*
X068328Y028941D01*
X068339D01*
X068333Y028947D01*
X068353Y028969D01*
X068371Y028992D01*
X068387Y029018D01*
X068401Y029044D01*
X068412Y029073D01*
X068421Y029103D01*
X068428Y029134D01*
X068433Y029167D01*
X068436Y029202D01*
X068437Y029238D01*
X068766Y028909D01*
D02*
G37*
G36*
X055757Y028917D02*
X055719Y028908D01*
X05565Y028886D01*
X055619Y028874D01*
X055575Y028853D01*
X055574Y028851D01*
X055577Y028835D01*
X055586Y028823D01*
X055602Y028813D01*
X055625Y028806D01*
X055655Y028801D01*
X055691Y0288D01*
X05525Y0286D01*
X055009Y0288D01*
X055048Y028801D01*
X055086Y028806D01*
X055123Y028813D01*
X055159Y028823D01*
X055194Y028835D01*
X055227Y028851D01*
X05526Y028869D01*
X055291Y028891D01*
X055315Y02891D01*
X055329Y028929D01*
X055344Y028954D01*
X055355Y02898D01*
X055364Y029008D01*
X055369Y029036D01*
X055371Y029066D01*
X055371Y029097D01*
X055367Y029129D01*
X05536Y029162D01*
X055757Y028917D01*
D02*
G37*
%LPC*%
G36*
X039308Y066585D02*
X038792D01*
X038792Y066583D01*
X038829Y06646D01*
X03889Y066348D01*
X038971Y066249D01*
X03907Y066167D01*
X039183Y066107D01*
X039305Y06607D01*
X039308Y06607D01*
Y066585D01*
D02*
G37*
G36*
X0312Y064903D02*
X031198Y064903D01*
X031195Y064903D01*
X026945Y064853D01*
X026895Y064846D01*
X026846Y06484D01*
X026843Y064839D01*
X026841Y064838D01*
X026795Y064819D01*
X026748Y064799D01*
X026746Y064798D01*
X026744Y064797D01*
X026705Y064766D01*
X026665Y064735D01*
X026663Y064733D01*
X026661Y064732D01*
X026631Y064692D01*
X026601Y064652D01*
X0266Y06465D01*
X026598Y064648D01*
X02658Y064601D01*
X02656Y064554D01*
X02656Y064552D01*
X026559Y06455D01*
X026553Y0645D01*
X026547Y06445D01*
Y0629D01*
X02656Y062796D01*
X026601Y062698D01*
X026665Y062615D01*
X026748Y062551D01*
X026846Y06251D01*
X02695Y062497D01*
X027295D01*
Y047636D01*
X027233D01*
Y047607D01*
X026982D01*
X026965Y04761D01*
X026948Y047607D01*
X026133D01*
Y046457D01*
X026109Y046377D01*
X026097Y04625D01*
Y046175D01*
X026097Y046173D01*
X02609Y045796D01*
X026085Y045726D01*
X026085Y045724D01*
X026083Y045719D01*
X026081Y045707D01*
X02606Y045637D01*
X026047Y0455D01*
Y0452D01*
X02606Y045063D01*
X0261Y044931D01*
X026165Y044809D01*
X026253Y044703D01*
X026359Y044615D01*
X026481Y04455D01*
X026613Y04451D01*
X02675Y044497D01*
X026887Y04451D01*
X027019Y04455D01*
X027141Y044615D01*
X027247Y044703D01*
X027314Y044783D01*
X027349Y044803D01*
X027381Y04479D01*
X027473Y04472D01*
X027512Y044703D01*
X027489Y045034D01*
X027481Y045064D01*
X027473Y045085D01*
X027625D01*
Y04535D01*
X02775D01*
Y045475D01*
X028305D01*
Y0455D01*
X028286Y045644D01*
X028236Y045764D01*
X028259Y045814D01*
X028317D01*
Y046364D01*
X028467D01*
Y046495D01*
X028905D01*
X02893Y046445D01*
X028909Y046377D01*
X028897Y04625D01*
X028909Y046123D01*
X028915Y046104D01*
X028913Y04587D01*
X028909Y045786D01*
X0289Y045769D01*
X02886Y045637D01*
X028847Y0455D01*
Y0452D01*
X02886Y045063D01*
X0289Y044931D01*
X028965Y044809D01*
X029053Y044703D01*
X029159Y044615D01*
X029281Y04455D01*
X029413Y04451D01*
X02955Y044497D01*
X029687Y04451D01*
X029819Y04455D01*
X029941Y044615D01*
X030047Y044703D01*
X030114Y044783D01*
X030149Y044803D01*
X030181Y04479D01*
X030273Y04472D01*
X030278Y044717D01*
X030273Y045085D01*
X030425D01*
Y04535D01*
X03055D01*
Y045475D01*
X031105D01*
Y0455D01*
X031086Y045644D01*
X031036Y045764D01*
X031059Y045814D01*
X031067D01*
Y046364D01*
X031217D01*
Y046538D01*
X031799D01*
X031828Y046488D01*
X031809Y046427D01*
X031797Y0463D01*
Y046225D01*
X031797Y046223D01*
X03179Y045846D01*
X031785Y045776D01*
X031785Y045774D01*
X031783Y045769D01*
X031781Y045757D01*
X03176Y045687D01*
X031747Y04555D01*
Y04525D01*
X03176Y045113D01*
X0318Y044981D01*
X031865Y044859D01*
X031953Y044753D01*
X032059Y044665D01*
X032181Y0446D01*
X032313Y04456D01*
X03245Y044547D01*
X032587Y04456D01*
X032691Y044592D01*
X032705Y044608D01*
X03273Y044657D01*
X032745Y044712D01*
X03275Y044773D01*
X032964D01*
X032987Y044801D01*
X032823Y04495D01*
X032898Y045026D01*
X033067Y045218D01*
X033105Y045269D01*
X033133Y045314D01*
X033152Y045352D01*
X033161Y045383D01*
X033161Y045409D01*
X033151Y045428D01*
X033325Y045236D01*
Y0454D01*
X03345D01*
Y045525D01*
X034005D01*
Y04555D01*
X033986Y045694D01*
X033936Y045814D01*
X033959Y045864D01*
X033967D01*
Y046414D01*
X034117D01*
Y046538D01*
X034733D01*
Y045881D01*
X0347Y045819D01*
X03466Y045687D01*
X034647Y04555D01*
Y04525D01*
X03466Y045113D01*
X0347Y044981D01*
X034765Y044859D01*
X034853Y044753D01*
X034959Y044665D01*
X035081Y0446D01*
X035213Y04456D01*
X03535Y044547D01*
X035487Y04456D01*
X035619Y0446D01*
X035741Y044665D01*
X035847Y044753D01*
X035914Y044833D01*
X035949Y044853D01*
X035981Y04484D01*
X036073Y04477D01*
X036079Y044767D01*
X036073Y045135D01*
X036225Y04512D01*
Y0454D01*
X03635D01*
Y045525D01*
X036905D01*
Y04555D01*
X036886Y045694D01*
X036836Y045814D01*
X036859Y045864D01*
X036867D01*
Y046414D01*
X037017D01*
Y046545D01*
X037483D01*
Y045881D01*
X03745Y045819D01*
X03741Y045687D01*
X037397Y04555D01*
Y04525D01*
X03741Y045113D01*
X03745Y044981D01*
X037515Y044859D01*
X037603Y044753D01*
X037709Y044665D01*
X037831Y0446D01*
X037963Y04456D01*
X0381Y044547D01*
X038237Y04456D01*
X038369Y0446D01*
X038491Y044665D01*
X038597Y044753D01*
X038664Y044833D01*
X038699Y044853D01*
X038731Y04484D01*
X038823Y04477D01*
X038829Y044767D01*
X03883Y04477D01*
X038838Y044818D01*
X038823Y045135D01*
X038975D01*
Y0454D01*
X0391D01*
Y045525D01*
X039655D01*
Y04555D01*
X039636Y045694D01*
X039586Y045814D01*
X039609Y045864D01*
X039617D01*
Y046414D01*
X039767D01*
Y046495D01*
X041197D01*
Y046444D01*
X04121Y046339D01*
X041251Y046242D01*
X041315Y046159D01*
X041398Y046094D01*
X041496Y046054D01*
X0416Y04604D01*
X042661D01*
X042765Y046054D01*
X042862Y046094D01*
X042946Y046159D01*
X04301Y046242D01*
X04305Y046339D01*
X043064Y046444D01*
Y046726D01*
X043103Y0468D01*
X043141Y046923D01*
X043153Y04705D01*
X043141Y047177D01*
X043103Y0473D01*
X043064Y047374D01*
Y047694D01*
X04305Y047798D01*
X04301Y047896D01*
X042946Y047979D01*
X042862Y048043D01*
X042765Y048084D01*
X042661Y048097D01*
X04206D01*
X042Y048103D01*
X04194Y048097D01*
X0416D01*
X041496Y048084D01*
X041398Y048043D01*
X041315Y047979D01*
X041251Y047896D01*
X04121Y047798D01*
X041197Y047694D01*
Y047605D01*
X039767D01*
Y047686D01*
X039402D01*
X039397Y047687D01*
X039381Y047686D01*
X039365Y047688D01*
X039348Y047686D01*
X038952D01*
X038935Y047688D01*
X038919Y047686D01*
X038903Y047687D01*
X038898Y047686D01*
X038717D01*
Y047707D01*
X038332D01*
X038315Y04771D01*
X038298Y047707D01*
X037905D01*
X037889Y04771D01*
X037887Y047709D01*
X037885Y04771D01*
X037868Y047707D01*
X037483D01*
Y047655D01*
X037017D01*
Y047686D01*
X036657D01*
X036656Y047686D01*
X036648Y047686D01*
X036632D01*
X036615Y047688D01*
X036598Y047686D01*
X036202D01*
X036185Y047688D01*
X036168Y047686D01*
X036152D01*
X036144Y047686D01*
X036143Y047686D01*
X035783D01*
Y047657D01*
X035582D01*
X035565Y04766D01*
X035548Y047657D01*
X035152D01*
X035135Y04766D01*
X035125Y047659D01*
X035116Y047659D01*
X035076Y047657D01*
X034733D01*
Y047647D01*
X034117D01*
Y047686D01*
X033732D01*
X033715Y047688D01*
X033698Y047686D01*
X03369D01*
X033677Y047687D01*
X033675Y047686D01*
X033325D01*
X033323Y047687D01*
X03331Y047686D01*
X033302D01*
X033285Y047688D01*
X033268Y047686D01*
X032883D01*
Y047657D01*
X032682D01*
X032665Y04766D01*
X032652Y047658D01*
X032638Y047659D01*
X032631Y047657D01*
X032252D01*
X032235Y04766D01*
X032225Y047659D01*
X032216Y047659D01*
X032176Y047657D01*
X031833D01*
Y047647D01*
X030842D01*
X030842Y047647D01*
X030794Y047641D01*
X030667D01*
X03063Y047636D01*
X030402D01*
X030385Y047638D01*
X030368Y047636D01*
X030352D01*
X030344Y047636D01*
X030343Y047636D01*
X029983D01*
Y047607D01*
X029782D01*
X029765Y04761D01*
X029748Y047607D01*
X029352D01*
X029335Y04761D01*
X02933Y047609D01*
X029326Y04761D01*
X029223Y047607D01*
X028933D01*
Y047605D01*
X028467D01*
Y047636D01*
X028405D01*
Y062497D01*
X0312D01*
X031304Y06251D01*
X031402Y062551D01*
X031485Y062615D01*
X031549Y062698D01*
X03159Y062796D01*
X031603Y0629D01*
Y0645D01*
X031603Y064502D01*
X031603Y064505D01*
X031596Y064555D01*
X03159Y064604D01*
X031589Y064607D01*
X031588Y064609D01*
X031569Y064655D01*
X031549Y064702D01*
X031548Y064704D01*
X031547Y064706D01*
X031516Y064745D01*
X031485Y064785D01*
X031483Y064787D01*
X031482Y064789D01*
X031442Y064819D01*
X031402Y064849D01*
X0314Y06485D01*
X031398Y064852D01*
X031351Y06487D01*
X031304Y06489D01*
X031302Y06489D01*
X0313Y064891D01*
X03125Y064897D01*
X0312Y064903D01*
D02*
G37*
G36*
X016375Y0596D02*
X0159D01*
Y05931D01*
X016106Y059324D01*
X016131Y059331D01*
X016146Y05934D01*
X016151Y059349D01*
Y059125D01*
X016375D01*
Y0596D01*
D02*
G37*
G36*
X0175Y059754D02*
X017353Y059739D01*
X017212Y059696D01*
X017081Y059627D01*
X017049Y0596D01*
X016625D01*
Y059D01*
X0165D01*
Y058875D01*
X016151D01*
Y058651D01*
X016849D01*
X01683Y058646D01*
X016813Y058631D01*
X016798Y058606D01*
X016786Y058571D01*
X016775Y058526D01*
X016766Y058471D01*
X016759Y058406D01*
X016751Y058246D01*
X01675Y058151D01*
X01625D01*
X016249Y058246D01*
X016234Y058471D01*
X016225Y058526D01*
X016214Y058571D01*
X016202Y058606D01*
X016187Y058631D01*
X01617Y058646D01*
X016151Y058651D01*
X016146Y058679D01*
X016131Y058705D01*
X016106Y058727D01*
X016071Y058746D01*
X016026Y058763D01*
X015971Y058776D01*
X015906Y058787D01*
X0159Y058787D01*
Y0584D01*
X015994D01*
X016015Y058355D01*
X015999Y058335D01*
X015943Y058231D01*
X015911Y058125D01*
X0165D01*
Y057875D01*
X015911D01*
X015943Y057769D01*
X015999Y057665D01*
X016074Y057574D01*
X016133Y057525D01*
Y057475D01*
X016074Y057426D01*
X015999Y057335D01*
X015943Y057231D01*
X015911Y057125D01*
X0165D01*
Y056875D01*
X015911D01*
X015943Y056769D01*
X015999Y056665D01*
X016074Y056574D01*
X016133Y056525D01*
Y056475D01*
X016074Y056426D01*
X015999Y056335D01*
X015943Y056231D01*
X015911Y056125D01*
X0165D01*
Y055875D01*
X015911D01*
X015943Y055769D01*
X015999Y055665D01*
X016074Y055574D01*
X016133Y055525D01*
Y055475D01*
X016074Y055426D01*
X015999Y055335D01*
X015943Y055231D01*
X015911Y055125D01*
X0165D01*
Y054875D01*
X015911D01*
X015943Y054769D01*
X015999Y054665D01*
X016051Y054602D01*
X015967Y054533D01*
X015873Y054419D01*
X015804Y054288D01*
X015761Y054147D01*
X015746Y054D01*
X015761Y053853D01*
X015804Y053712D01*
X015873Y053581D01*
X01594Y0535D01*
X015873Y053419D01*
X015804Y053288D01*
X015761Y053147D01*
X015746Y053D01*
X015761Y052853D01*
X015804Y052712D01*
X015873Y052581D01*
X01594Y0525D01*
X015873Y052419D01*
X015804Y052288D01*
X015761Y052147D01*
X015746Y052D01*
X015761Y051853D01*
X015804Y051712D01*
X015873Y051581D01*
X01594Y0515D01*
X015873Y051419D01*
X015804Y051288D01*
X015761Y051147D01*
X015746Y051D01*
X015761Y050853D01*
X015804Y050712D01*
X015873Y050581D01*
X015967Y050467D01*
X016051Y050398D01*
X015999Y050335D01*
X015943Y050231D01*
X015911Y050125D01*
X0165D01*
Y049875D01*
X015911D01*
X015943Y049769D01*
X015999Y049665D01*
X016051Y049602D01*
X015967Y049533D01*
X015873Y049419D01*
X015804Y049288D01*
X015761Y049147D01*
X015746Y049D01*
X015761Y048853D01*
X015804Y048712D01*
X015873Y048581D01*
X015967Y048467D01*
X016051Y048398D01*
X015999Y048335D01*
X015943Y048231D01*
X015911Y048125D01*
X0165D01*
Y047875D01*
X015911D01*
X015943Y047769D01*
X015999Y047665D01*
X016074Y047574D01*
X016133Y047525D01*
Y047475D01*
X016074Y047426D01*
X015999Y047335D01*
X015943Y047231D01*
X015911Y047125D01*
X0165D01*
Y046875D01*
X015911D01*
X015943Y046769D01*
X015999Y046665D01*
X016074Y046574D01*
X016133Y046525D01*
Y046475D01*
X016074Y046426D01*
X015999Y046335D01*
X015943Y046231D01*
X015911Y046125D01*
X0165D01*
Y045875D01*
X015911D01*
X015943Y045769D01*
X015999Y045665D01*
X016051Y045602D01*
X015967Y045533D01*
X015873Y045419D01*
X015804Y045288D01*
X015761Y045147D01*
X015746Y045D01*
X015761Y044853D01*
X015804Y044712D01*
X015873Y044581D01*
X01594Y0445D01*
X015873Y044419D01*
X015804Y044288D01*
X015761Y044147D01*
X015746Y044D01*
X015761Y043853D01*
X015804Y043712D01*
X015873Y043581D01*
X01594Y0435D01*
X015873Y043419D01*
X015804Y043288D01*
X015761Y043147D01*
X015746Y043D01*
X015761Y042853D01*
X015804Y042712D01*
X015873Y042581D01*
X01594Y0425D01*
X015873Y042419D01*
X015804Y042288D01*
X015761Y042147D01*
X015746Y042D01*
X015761Y041853D01*
X015804Y041712D01*
X015873Y041581D01*
X01594Y0415D01*
X015873Y041419D01*
X015804Y041288D01*
X015761Y041147D01*
X015746Y041D01*
X015761Y040853D01*
X015804Y040712D01*
X015873Y040581D01*
X01594Y0405D01*
X015873Y040419D01*
X015804Y040288D01*
X015761Y040147D01*
X015746Y04D01*
X015761Y039853D01*
X015804Y039712D01*
X015847Y039631D01*
Y037003D01*
X01455D01*
X014446Y03699D01*
X014348Y036949D01*
X014265Y036885D01*
X014201Y036802D01*
X01416Y036704D01*
X014147Y0366D01*
Y03325D01*
X014147Y03325D01*
X01416Y033146D01*
X014201Y033048D01*
X014265Y032965D01*
X014265Y032965D01*
X014315Y032915D01*
X014398Y032851D01*
X014496Y03281D01*
X0146Y032797D01*
X0146Y032797D01*
X016D01*
X016059Y032804D01*
X016096Y032771D01*
Y029982D01*
X015817D01*
Y028517D01*
X016422D01*
X016448Y028474D01*
X016415Y028413D01*
X016373Y028275D01*
X016359Y028131D01*
X016373Y027987D01*
X016415Y027849D01*
X016483Y027722D01*
X016575Y027611D01*
X016686Y027519D01*
X016814Y027451D01*
X016952Y027409D01*
X017095Y027395D01*
X017239Y027409D01*
X017377Y027451D01*
X017504Y027519D01*
X017607Y027603D01*
X017641Y027609D01*
X017674Y027603D01*
X017777Y027519D01*
X017904Y027451D01*
X018042Y027409D01*
X018186Y027395D01*
X018329Y027409D01*
X018468Y027451D01*
X018595Y027519D01*
X018697Y027603D01*
X018731Y027609D01*
X018765Y027603D01*
X018867Y027519D01*
X018995Y027451D01*
X019133Y027409D01*
X019276Y027395D01*
X01942Y027409D01*
X019558Y027451D01*
X019685Y027519D01*
X019788Y027603D01*
X019822Y027609D01*
X019855Y027603D01*
X019958Y027519D01*
X020085Y027451D01*
X020223Y027409D01*
X020367Y027395D01*
X020511Y027409D01*
X020649Y027451D01*
X020776Y027519D01*
X020888Y027611D01*
X020937D01*
X021048Y027519D01*
X021176Y027451D01*
X021314Y027409D01*
X021457Y027395D01*
X021601Y027409D01*
X021739Y027451D01*
X021867Y027519D01*
X021969Y027603D01*
X022003Y027609D01*
X022037Y027603D01*
X022139Y027519D01*
X022266Y027451D01*
X022404Y027409D01*
X022548Y027395D01*
X022692Y027409D01*
X02283Y027451D01*
X022957Y027519D01*
X023069Y027611D01*
X023158Y027719D01*
X023168Y027727D01*
X023212Y027732D01*
X023225Y027717D01*
X023313Y027644D01*
X023415Y02759D01*
X023514Y02756D01*
Y028131D01*
X023639D01*
Y028256D01*
X02421D01*
X02418Y028355D01*
X024125Y028456D01*
X02411Y028475D01*
X024133Y028519D01*
X024179Y028515D01*
X024323Y028529D01*
X024461Y028571D01*
X024588Y028639D01*
X024597Y028647D01*
X0246D01*
X024704Y02866D01*
X024802Y028701D01*
X024885Y028765D01*
X024949Y028848D01*
X02499Y028946D01*
X025003Y02905D01*
Y0315D01*
X02499Y031604D01*
X024949Y031702D01*
X024885Y031785D01*
X024832Y031826D01*
Y03475D01*
X024832Y034755D01*
X024843Y03484D01*
X024878Y034924D01*
X024933Y034996D01*
X025005Y035051D01*
X025089Y035086D01*
X025174Y035097D01*
X025179Y035097D01*
X026D01*
Y0338D01*
X026559D01*
X026561Y03375D01*
X026465Y033741D01*
X026343Y033703D01*
X02623Y033643D01*
X026131Y033562D01*
X025838Y033269D01*
X025757Y03317D01*
X025697Y033057D01*
X025659Y032935D01*
X025647Y032807D01*
Y0318D01*
Y03115D01*
X025659Y031023D01*
X025683Y030943D01*
Y030514D01*
X025833D01*
Y030343D01*
X026028Y030566D01*
X026053Y030604D01*
X026071Y030636D01*
X026081Y030663D01*
X026085Y030685D01*
X026515Y030215D01*
X026493Y030211D01*
X026466Y030201D01*
X026434Y030183D01*
X026397Y030158D01*
X026354Y030127D01*
X026254Y030042D01*
X026172Y029964D01*
X026358D01*
X026368Y029915D01*
X026314Y029892D01*
X026133Y029782D01*
X025972Y029644D01*
X025835Y029483D01*
X025724Y029303D01*
X025643Y029107D01*
X025594Y028901D01*
X025577Y02869D01*
X025594Y028479D01*
X025643Y028273D01*
X025724Y028078D01*
X025835Y027897D01*
X025972Y027736D01*
X026133Y027599D01*
X026314Y027488D01*
X026509Y027407D01*
X026715Y027358D01*
X026926Y027341D01*
X027137Y027358D01*
X027343Y027407D01*
X027538Y027488D01*
X027719Y027599D01*
X02788Y027736D01*
X028017Y027897D01*
X028128Y028078D01*
X028209Y028273D01*
X028258Y028479D01*
X028275Y02869D01*
X028258Y028901D01*
X028209Y029107D01*
X028128Y029303D01*
X028017Y029483D01*
X02788Y029644D01*
X027719Y029782D01*
X027538Y029892D01*
X027343Y029973D01*
X027137Y030023D01*
X026926Y030039D01*
X026803Y03003D01*
X026767Y030063D01*
Y030514D01*
X026917D01*
Y030943D01*
X026941Y031023D01*
X026953Y03115D01*
Y0318D01*
Y032447D01*
X029045D01*
Y032381D01*
X02904Y03209D01*
X029039Y03208D01*
X028997Y032D01*
X028959Y031877D01*
X028947Y03175D01*
Y03115D01*
X028959Y031023D01*
X028983Y030943D01*
Y030514D01*
X029133D01*
Y029964D01*
X029523D01*
X029533Y029915D01*
X029478Y029892D01*
X029298Y029782D01*
X029137Y029644D01*
X029Y029483D01*
X028889Y029303D01*
X028808Y029107D01*
X028759Y028901D01*
X028742Y02869D01*
X028759Y028479D01*
X028808Y028273D01*
X028889Y028078D01*
X029Y027897D01*
X029137Y027736D01*
X029298Y027599D01*
X029478Y027488D01*
X029674Y027407D01*
X02988Y027358D01*
X030091Y027341D01*
X030302Y027358D01*
X030508Y027407D01*
X030703Y027488D01*
X030884Y027599D01*
X031045Y027736D01*
X031182Y027897D01*
X031293Y028078D01*
X031374Y028273D01*
X031423Y028479D01*
X03144Y02869D01*
X031423Y028901D01*
X031374Y029107D01*
X031293Y029303D01*
X031182Y029483D01*
X031045Y029644D01*
X030884Y029782D01*
X030703Y029892D01*
X030508Y029973D01*
X030302Y030023D01*
X030091Y030039D01*
X030067Y030062D01*
Y030514D01*
X030217D01*
Y030943D01*
X030241Y031023D01*
X030253Y03115D01*
Y03175D01*
X030241Y031877D01*
X030203Y032D01*
X030174Y032054D01*
X030157Y032397D01*
X0302Y032447D01*
X032447D01*
Y0319D01*
Y0312D01*
X032459Y031073D01*
X032483Y030993D01*
Y030564D01*
X032633D01*
Y030014D01*
X032597Y029982D01*
X0321D01*
Y028517D01*
X032705D01*
X032731Y028474D01*
X032698Y028413D01*
X032656Y028275D01*
X032642Y028131D01*
X032656Y027987D01*
X032698Y027849D01*
X032766Y027722D01*
X032858Y027611D01*
X032969Y027519D01*
X033097Y027451D01*
X033235Y027409D01*
X033378Y027395D01*
X033522Y027409D01*
X03366Y027451D01*
X033787Y027519D01*
X03389Y027603D01*
X033924Y027609D01*
X033957Y027603D01*
X03406Y027519D01*
X034187Y027451D01*
X034325Y027409D01*
X034469Y027395D01*
X034613Y027409D01*
X034751Y027451D01*
X034878Y027519D01*
X03498Y027603D01*
X035014Y027609D01*
X035048Y027603D01*
X03515Y027519D01*
X035278Y027451D01*
X035416Y027409D01*
X035559Y027395D01*
X035703Y027409D01*
X035841Y027451D01*
X035968Y027519D01*
X036071Y027603D01*
X036105Y027609D01*
X036139Y027603D01*
X036241Y027519D01*
X036368Y027451D01*
X036506Y027409D01*
X03665Y027395D01*
X036794Y027409D01*
X036932Y027451D01*
X037059Y027519D01*
X037161Y027603D01*
X037195Y027609D01*
X037229Y027603D01*
X037332Y027519D01*
X037459Y027451D01*
X037597Y027409D01*
X037741Y027395D01*
X037884Y027409D01*
X038022Y027451D01*
X03815Y027519D01*
X038261Y027611D01*
X038351Y027719D01*
X038361Y027727D01*
X038405Y027732D01*
X038417Y027717D01*
X038506Y027644D01*
X038607Y02759D01*
X038706Y02756D01*
Y028131D01*
X038956D01*
Y02756D01*
X039055Y02759D01*
X039156Y027644D01*
X039245Y027717D01*
X039257Y027732D01*
X039301Y027727D01*
X039312Y027719D01*
X039401Y027611D01*
X039513Y027519D01*
X03964Y027451D01*
X039778Y027409D01*
X039922Y027395D01*
X040065Y027409D01*
X040203Y027451D01*
X040313Y02751D01*
X040613D01*
X04074Y027522D01*
X040863Y027559D01*
X040976Y02762D01*
X041075Y027701D01*
X041831Y028457D01*
X041886Y028441D01*
X041926Y028273D01*
X042007Y028078D01*
X042118Y027897D01*
X042255Y027736D01*
X042416Y027599D01*
X042597Y027488D01*
X042792Y027407D01*
X042998Y027358D01*
X043209Y027341D01*
X04342Y027358D01*
X043626Y027407D01*
X043822Y027488D01*
X044002Y027599D01*
X044163Y027736D01*
X0443Y027897D01*
X044411Y028078D01*
X044492Y028273D01*
X044541Y028479D01*
X044558Y02869D01*
X044541Y028901D01*
X044492Y029107D01*
X044411Y029303D01*
X04438Y029353D01*
X044404Y029397D01*
X04665D01*
X046777Y029409D01*
X0469Y029447D01*
X047013Y029507D01*
X047112Y029588D01*
X047962Y030438D01*
X048043Y030537D01*
X048103Y03065D01*
X048141Y030773D01*
X048153Y0309D01*
Y049186D01*
X048154D01*
X048139Y049402D01*
X048097Y049614D01*
X048028Y049819D01*
X047932Y050013D01*
X047812Y050192D01*
X047669Y050355D01*
X047669Y050355D01*
X047669Y050355D01*
X047161Y050863D01*
X04716Y050864D01*
X047127Y050899D01*
X047106Y050924D01*
X047089Y050947D01*
X047077Y050966D01*
X047068Y050983D01*
X047062Y050998D01*
X047058Y05101D01*
X047055Y051021D01*
X047054Y05103D01*
X047054Y05104D01*
X047055Y05105D01*
X047036Y051246D01*
X046978Y051435D01*
X046885Y051608D01*
X046761Y051761D01*
X046608Y051885D01*
X046435Y051978D01*
X046246Y052036D01*
X04605Y052055D01*
X045854Y052036D01*
X045665Y051978D01*
X045492Y051885D01*
X045339Y051761D01*
X045215Y051608D01*
X045122Y051435D01*
X045064Y051246D01*
X045045Y05105D01*
X045057Y050934D01*
X045011Y050912D01*
X042062Y053862D01*
X041963Y053943D01*
X04185Y054003D01*
X041727Y054041D01*
X0416Y054053D01*
X041189D01*
X041188Y054053D01*
X04114Y054055D01*
X04111Y054058D01*
X041085Y054062D01*
X041066Y054066D01*
X041052Y054071D01*
X041042Y054076D01*
X041035Y05408D01*
X041031Y054083D01*
X041027Y054086D01*
X041009Y054106D01*
X040997Y054116D01*
X040961Y054161D01*
X040808Y054285D01*
X040635Y054378D01*
X040446Y054436D01*
X04025Y054455D01*
X040054Y054436D01*
X039865Y054378D01*
X039692Y054285D01*
X039539Y054161D01*
X039415Y054008D01*
X039322Y053835D01*
X039264Y053646D01*
X039245Y05345D01*
X039264Y053254D01*
X039322Y053065D01*
X039415Y052892D01*
X039539Y052739D01*
X039692Y052615D01*
X039865Y052522D01*
X040054Y052464D01*
X04025Y052445D01*
X040446Y052464D01*
X040635Y052522D01*
X040808Y052615D01*
X040874Y052668D01*
X040892Y052679D01*
X040916Y052698D01*
X040927Y052705D01*
X04094Y052713D01*
X040956Y05272D01*
X040975Y052727D01*
X040998Y052733D01*
X041024Y052738D01*
X041055Y052743D01*
X04109Y052745D01*
X04114Y052747D01*
X041141Y052747D01*
X041329D01*
X045695Y048381D01*
X045699Y048378D01*
X045751Y04831D01*
X045786Y048226D01*
X045797Y048141D01*
X045797Y048136D01*
Y040802D01*
X04575Y040784D01*
X045719Y040819D01*
X045557Y040962D01*
X045377Y041082D01*
X045183Y041178D01*
X044978Y041247D01*
X044766Y041289D01*
X04455Y041304D01*
Y041303D01*
X040765D01*
X040762Y041301D01*
X040522Y041118D01*
X040484Y041098D01*
X040454Y041087D01*
X040432Y041086D01*
X04042Y041096D01*
X040415Y041115D01*
X0402Y04135D01*
X040075D01*
Y041486D01*
X039985Y041585D01*
X040045Y041587D01*
X040075Y041591D01*
Y041836D01*
X039733D01*
Y041303D01*
X034742D01*
Y04155D01*
X03605D01*
Y041566D01*
X0361Y041594D01*
X036213Y04156D01*
X03635Y041547D01*
X036487Y04156D01*
X036619Y0416D01*
X036741Y041665D01*
X036847Y041753D01*
X036935Y041859D01*
X037Y041981D01*
X03704Y042113D01*
X037053Y04225D01*
Y04255D01*
X03704Y042687D01*
X037Y042819D01*
X036935Y042941D01*
X036847Y043047D01*
X036741Y043135D01*
X036619Y0432D01*
X036487Y04324D01*
X03635Y043253D01*
X036213Y04324D01*
X0361Y043206D01*
X03605Y043234D01*
Y04325D01*
X03465D01*
Y041836D01*
X0344D01*
Y04135D01*
X03415D01*
Y041836D01*
X034079D01*
X034049Y041886D01*
X0341Y041981D01*
X03414Y042113D01*
X034153Y04225D01*
Y04255D01*
X03414Y042687D01*
X0341Y042819D01*
X034035Y042941D01*
X033947Y043047D01*
X033841Y043135D01*
X033719Y0432D01*
X033587Y04324D01*
X03345Y043253D01*
X033313Y04324D01*
X0332Y043206D01*
X03315Y043234D01*
Y04325D01*
X03175D01*
Y04155D01*
X03315D01*
Y041566D01*
X0332Y041594D01*
X033313Y04156D01*
X03345Y041547D01*
X033587Y04156D01*
X033719Y0416D01*
X033766Y041625D01*
X033808Y041599D01*
Y041303D01*
X029017D01*
Y0415D01*
X03025D01*
Y041516D01*
X0303Y041544D01*
X030413Y04151D01*
X03055Y041497D01*
X030687Y04151D01*
X030819Y04155D01*
X030941Y041615D01*
X031047Y041703D01*
X031135Y041809D01*
X0312Y041931D01*
X03124Y042063D01*
X031253Y0422D01*
Y0425D01*
X03124Y042637D01*
X0312Y042769D01*
X031135Y042891D01*
X031047Y042997D01*
X030941Y043085D01*
X030819Y04315D01*
X030687Y04319D01*
X03055Y043203D01*
X030413Y04319D01*
X0303Y043156D01*
X03025Y043184D01*
Y0432D01*
X02885D01*
Y041836D01*
X028675D01*
Y04135D01*
X028425D01*
Y041836D01*
X028398D01*
X028372Y041879D01*
X0284Y041931D01*
X02844Y042063D01*
X028453Y0422D01*
Y0425D01*
X02844Y042637D01*
X0284Y042769D01*
X028335Y042891D01*
X028247Y042997D01*
X028141Y043085D01*
X028019Y04315D01*
X027887Y04319D01*
X02775Y043203D01*
X027613Y04319D01*
X0275Y043156D01*
X02745Y043184D01*
Y0432D01*
X02605D01*
Y0415D01*
X02745D01*
Y041516D01*
X0275Y041544D01*
X027613Y04151D01*
X02775Y041497D01*
X027887Y04151D01*
X028019Y04155D01*
X028041Y041562D01*
X028083Y041536D01*
Y041303D01*
X0277D01*
X027573Y041291D01*
X02745Y041253D01*
X027337Y041193D01*
X027238Y041112D01*
X026588Y040462D01*
X026507Y040363D01*
X026447Y04025D01*
X026409Y040127D01*
X026397Y04D01*
X026409Y039873D01*
X026417Y039848D01*
X026387Y039807D01*
X026083D01*
Y038693D01*
Y038131D01*
X02605Y038069D01*
X02601Y037937D01*
X025997Y0378D01*
Y0375D01*
X02601Y037363D01*
X02605Y037231D01*
X026115Y037109D01*
X026203Y037003D01*
X026309Y036915D01*
X026431Y03685D01*
X026563Y03681D01*
X0267Y036797D01*
X026837Y03681D01*
X026969Y03685D01*
X027091Y036915D01*
X027197Y037003D01*
X027264Y037083D01*
X027299Y037103D01*
X027331Y03709D01*
X027423Y03702D01*
X027441Y037012D01*
X027423Y037385D01*
X027575D01*
Y03765D01*
X0277D01*
Y037775D01*
X028255D01*
Y0378D01*
X028236Y037944D01*
X02821Y038005D01*
X028217Y038014D01*
X028217D01*
Y038564D01*
X028367D01*
Y038645D01*
X029033D01*
Y038131D01*
X029Y038069D01*
X02896Y037937D01*
X028947Y0378D01*
Y0375D01*
X02896Y037363D01*
X029Y037231D01*
X029065Y037109D01*
X029153Y037003D01*
X029259Y036915D01*
X029381Y03685D01*
X029513Y03681D01*
X02965Y036797D01*
X029787Y03681D01*
X029919Y03685D01*
X030041Y036915D01*
X030147Y037003D01*
X030214Y037083D01*
X030249Y037103D01*
X030281Y03709D01*
X030373Y03702D01*
X030378Y037017D01*
X030373Y037385D01*
X030525D01*
Y03765D01*
X03065D01*
Y037775D01*
X031205D01*
Y0378D01*
X031186Y037944D01*
X031161Y038005D01*
X031167Y038014D01*
X031167D01*
Y038564D01*
X031317D01*
Y038645D01*
X031905D01*
X03193Y038595D01*
X031909Y038527D01*
X031898Y038409D01*
X031874Y038369D01*
X031874Y038369D01*
X031908Y038289D01*
X031909Y038273D01*
X031928Y038212D01*
X031928Y038212D01*
X031928Y038194D01*
Y037945D01*
X03191Y037887D01*
X031897Y03775D01*
Y03745D01*
X03191Y037313D01*
X03195Y037181D01*
X032015Y037059D01*
X032103Y036953D01*
X032209Y036865D01*
X032331Y0368D01*
X032463Y03676D01*
X0326Y036747D01*
X032737Y03676D01*
X032869Y0368D01*
X032991Y036865D01*
X033097Y036953D01*
X033164Y037033D01*
X033199Y037053D01*
X033231Y03704D01*
X033323Y03697D01*
X033329Y036967D01*
X033323Y037335D01*
X033475Y03732D01*
Y0376D01*
X0336D01*
Y037725D01*
X034155D01*
Y03775D01*
X034136Y037894D01*
X03408Y038027D01*
X034067Y038045D01*
Y038564D01*
X034217D01*
Y038645D01*
X034783D01*
Y038361D01*
X034781Y038344D01*
X034782Y038339D01*
X034781Y038334D01*
X034783Y03832D01*
Y038081D01*
X03475Y038019D01*
X03471Y037887D01*
X034697Y03775D01*
Y03745D01*
X03471Y037313D01*
X03475Y037181D01*
X034815Y037059D01*
X034903Y036953D01*
X035009Y036865D01*
X035131Y0368D01*
X035263Y03676D01*
X0354Y036747D01*
X035537Y03676D01*
X035669Y0368D01*
X035791Y036865D01*
X035897Y036953D01*
X035964Y037033D01*
X035999Y037053D01*
X036031Y03704D01*
X036123Y03697D01*
X036128Y036967D01*
X036123Y037335D01*
X036275Y03732D01*
Y0376D01*
X0364D01*
Y037725D01*
X036955D01*
Y03775D01*
X036936Y037894D01*
X036886Y038014D01*
X036909Y038064D01*
X036917D01*
Y038614D01*
X037067D01*
Y038645D01*
X037483D01*
Y038361D01*
X037481Y038344D01*
X037482Y038339D01*
X037481Y038334D01*
X037483Y03832D01*
Y038081D01*
X03745Y038019D01*
X03741Y037887D01*
X037397Y03775D01*
Y03745D01*
X03741Y037313D01*
X03745Y037181D01*
X037515Y037059D01*
X037603Y036953D01*
X037709Y036865D01*
X037831Y0368D01*
X037963Y03676D01*
X0381Y036747D01*
X038237Y03676D01*
X038369Y0368D01*
X038491Y036865D01*
X038597Y036953D01*
X038664Y037033D01*
X038699Y037053D01*
X038731Y03704D01*
X038823Y03697D01*
X038862Y036953D01*
X038839Y037284D01*
X038831Y037314D01*
X038823Y037335D01*
X038975D01*
Y0376D01*
X0391D01*
Y037725D01*
X039655D01*
Y03775D01*
X039636Y037894D01*
X039603Y037972D01*
X039631Y038014D01*
X039667D01*
Y038564D01*
X039817D01*
Y038645D01*
X040183D01*
Y038361D01*
X040181Y038344D01*
X040182Y038339D01*
X040181Y038334D01*
X040183Y03832D01*
Y038081D01*
X04015Y038019D01*
X04011Y037887D01*
X040097Y03775D01*
Y03745D01*
X04011Y037313D01*
X04015Y037181D01*
X040215Y037059D01*
X040303Y036953D01*
X040409Y036865D01*
X040531Y0368D01*
X040663Y03676D01*
X0408Y036747D01*
X040937Y03676D01*
X041069Y0368D01*
X041191Y036865D01*
X041297Y036953D01*
X041364Y037033D01*
X041399Y037053D01*
X041431Y03704D01*
X041523Y03697D01*
X041598Y036938D01*
X041582Y037184D01*
X041576Y037218D01*
X041568Y037246D01*
X04156Y037268D01*
X04155Y037283D01*
X041675Y037295D01*
Y0376D01*
X0418D01*
Y037725D01*
X042355D01*
Y03775D01*
X042336Y037894D01*
X042284Y038019D01*
X042267Y038064D01*
X042267Y038064D01*
X042267Y038064D01*
Y038614D01*
X042417D01*
Y038647D01*
X042483D01*
X042865Y038265D01*
X042948Y038201D01*
X043046Y03816D01*
X04315Y038147D01*
X04315Y038147D01*
X04375D01*
X043854Y03816D01*
X043952Y038201D01*
X044035Y038265D01*
X044099Y038348D01*
X04414Y038446D01*
X044153Y03855D01*
Y0394D01*
X044153Y0394D01*
X04414Y039504D01*
X044099Y039602D01*
X044035Y039685D01*
X044035Y039685D01*
X04377Y039951D01*
X043789Y039997D01*
X04455D01*
X044555Y039997D01*
X04464Y039986D01*
X044724Y039951D01*
X044796Y039896D01*
X044851Y039824D01*
X044886Y03974D01*
X044897Y039655D01*
X044897Y03965D01*
Y036336D01*
X044675D01*
Y03585D01*
X044425D01*
Y036336D01*
X044083D01*
Y035803D01*
X043621D01*
X043212Y036212D01*
X043113Y036293D01*
X043Y036353D01*
X042877Y036391D01*
X04275Y036403D01*
X025179D01*
Y036404D01*
X024963Y036389D01*
X024751Y036347D01*
X024546Y036278D01*
X024352Y036182D01*
X024173Y036062D01*
X02401Y035919D01*
X024001Y035909D01*
X023954Y035926D01*
Y042904D01*
X02375Y04315D01*
X023954Y0436D01*
Y0529D01*
X023954D01*
X023937Y053128D01*
X023883Y053349D01*
X023796Y05356D01*
X023677Y053755D01*
X023528Y053928D01*
X023355Y054077D01*
X02316Y054196D01*
X022949Y054283D01*
X022728Y054337D01*
X0225Y054354D01*
Y054354D01*
X018165D01*
X018161Y054361D01*
X018148Y054379D01*
X018127Y054419D01*
X01806Y0545D01*
X018127Y054581D01*
X018196Y054712D01*
X018239Y054853D01*
X018254Y055D01*
X018239Y055147D01*
X018196Y055288D01*
X018127Y055419D01*
X01806Y0555D01*
X018127Y055581D01*
X018196Y055712D01*
X018239Y055853D01*
X018254Y056D01*
X018239Y056147D01*
X018196Y056288D01*
X018127Y056419D01*
X01806Y0565D01*
X018127Y056581D01*
X018196Y056712D01*
X018239Y056853D01*
X018254Y057D01*
X018239Y057147D01*
X018196Y057288D01*
X018127Y057419D01*
X01806Y0575D01*
X018127Y057581D01*
X018196Y057712D01*
X018239Y057853D01*
X018254Y058D01*
X018239Y058147D01*
X018196Y058288D01*
X018127Y058419D01*
X01806Y0585D01*
X018127Y058581D01*
X018196Y058712D01*
X018239Y058853D01*
X018254Y059D01*
X018239Y059147D01*
X018196Y059288D01*
X018127Y059419D01*
X018033Y059533D01*
X017919Y059627D01*
X017788Y059696D01*
X017647Y059739D01*
X0175Y059754D01*
D02*
G37*
G36*
X021477Y06036D02*
X02135Y060347D01*
X021227Y06031D01*
X021115Y06025D01*
X021016Y060169D01*
X020934Y06007D01*
X020874Y059957D01*
X020837Y059834D01*
X020824Y059707D01*
X020837Y059579D01*
X020874Y059457D01*
X020934Y059344D01*
X020998Y059266D01*
Y056511D01*
X020938Y056462D01*
X020857Y056363D01*
X020797Y05625D01*
X020759Y056127D01*
X020747Y056D01*
X020759Y055873D01*
X020797Y05575D01*
X020857Y055637D01*
X020938Y055538D01*
X021037Y055457D01*
X02115Y055397D01*
X021273Y055359D01*
X0214Y055347D01*
X021527Y055359D01*
X02165Y055397D01*
X021763Y055457D01*
X021862Y055538D01*
X021943Y055637D01*
X022003Y05575D01*
X022041Y055873D01*
X022053Y056D01*
X022041Y056127D01*
X022003Y05625D01*
X021989Y056276D01*
X021982Y056296D01*
X021974Y056313D01*
X021961Y056344D01*
X02196Y056344D01*
X021957Y056357D01*
Y059266D01*
X022021Y059344D01*
X022081Y059457D01*
X022118Y059579D01*
X022131Y059707D01*
X022118Y059834D01*
X022081Y059957D01*
X022021Y06007D01*
X021939Y060169D01*
X02184Y06025D01*
X021727Y06031D01*
X021605Y060347D01*
X021477Y06036D01*
D02*
G37*
G36*
X04605Y056855D02*
X045854Y056836D01*
X045665Y056778D01*
X045492Y056685D01*
X045339Y056561D01*
X045215Y056408D01*
X045122Y056235D01*
X045064Y056046D01*
X045045Y05585D01*
X045064Y055654D01*
X045122Y055465D01*
X045215Y055292D01*
X045339Y055139D01*
X045492Y055015D01*
X045665Y054922D01*
X045854Y054864D01*
X04605Y054845D01*
X046246Y054864D01*
X046435Y054922D01*
X046608Y055015D01*
X046761Y055139D01*
X046885Y055292D01*
X046978Y055465D01*
X047036Y055654D01*
X047055Y05585D01*
X047036Y056046D01*
X046978Y056235D01*
X046885Y056408D01*
X046761Y056561D01*
X046608Y056685D01*
X046435Y056778D01*
X046246Y056836D01*
X04605Y056855D01*
D02*
G37*
G36*
X0399Y068305D02*
X01915D01*
X019006Y068286D01*
X018873Y06823D01*
X018758Y068142D01*
X018758Y068142D01*
X01477Y064155D01*
X013541D01*
X01345Y064203D01*
X013327Y064241D01*
X013248Y064248D01*
X013203Y0643D01*
X013191Y064427D01*
X013153Y06455D01*
X013093Y064663D01*
X013012Y064762D01*
X012913Y064843D01*
X0128Y064903D01*
X012677Y064941D01*
X01255Y064953D01*
X012423Y064941D01*
X0123Y064903D01*
X012187Y064843D01*
X012088Y064762D01*
X012007Y064663D01*
X011947Y06455D01*
X011909Y064427D01*
X011897Y0643D01*
X011909Y064173D01*
X011947Y06405D01*
X012007Y063937D01*
X012088Y063838D01*
X012187Y063757D01*
X0123Y063697D01*
X012423Y063659D01*
X012502Y063652D01*
X012547Y0636D01*
X012559Y063473D01*
X012597Y06335D01*
X012657Y063237D01*
X012738Y063138D01*
X012837Y063057D01*
X01295Y062997D01*
X013073Y062959D01*
X0132Y062947D01*
X013327Y062959D01*
X01345Y062997D01*
X013541Y063045D01*
X015D01*
X015144Y063064D01*
X015277Y06312D01*
X015392Y063208D01*
X01938Y067195D01*
X038925D01*
X038949Y067145D01*
X03889Y067073D01*
X038829Y06696D01*
X038792Y066838D01*
X038792Y066835D01*
X039433D01*
Y06671D01*
X039558D01*
Y06607D01*
X03956Y06607D01*
X039683Y066107D01*
X039795Y066167D01*
X039894Y066249D01*
X039976Y066348D01*
X040036Y06646D01*
X040073Y066583D01*
X040086Y066709D01*
X040099Y06672D01*
X040131Y066735D01*
X040695Y06617D01*
Y056782D01*
X040694Y056776D01*
X040691Y056764D01*
X040685Y056747D01*
X040675Y056727D01*
X040661Y056702D01*
X040645Y056678D01*
X040581Y056601D01*
X04055Y056569D01*
X040539Y056561D01*
X040415Y056408D01*
X040322Y056235D01*
X040264Y056046D01*
X040245Y05585D01*
X040264Y055654D01*
X040322Y055465D01*
X040415Y055292D01*
X040539Y055139D01*
X040692Y055015D01*
X040865Y054922D01*
X041054Y054864D01*
X04125Y054845D01*
X041446Y054864D01*
X041635Y054922D01*
X041808Y055015D01*
X041961Y055139D01*
X042085Y055292D01*
X042178Y055465D01*
X042236Y055654D01*
X042255Y05585D01*
X042236Y056046D01*
X042178Y056235D01*
X042085Y056408D01*
X041961Y056561D01*
X04195Y056569D01*
X041915Y056605D01*
X041884Y056641D01*
X041859Y056673D01*
X041839Y056702D01*
X041825Y056727D01*
X041815Y056747D01*
X041809Y056764D01*
X041806Y056776D01*
X041805Y056782D01*
Y0664D01*
X041786Y066544D01*
X04173Y066677D01*
X041642Y066792D01*
X041642Y066792D01*
X040292Y068142D01*
X040177Y06823D01*
X040044Y068286D01*
X0399Y068305D01*
D02*
G37*
G36*
X03577Y054634D02*
X03543D01*
X035287Y054619D01*
X035149Y054578D01*
X035022Y05451D01*
X034911Y054419D01*
X03482Y054308D01*
X034752Y054181D01*
X034711Y054043D01*
X034696Y0539D01*
X034711Y053757D01*
X034752Y053619D01*
X03482Y053492D01*
X034896Y0534D01*
X03482Y053308D01*
X034752Y053181D01*
X034711Y053043D01*
X034696Y0529D01*
X034711Y052757D01*
X034752Y052619D01*
X03482Y052492D01*
X034911Y052381D01*
X035009Y052301D01*
X034945Y052224D01*
X034892Y052123D01*
X034862Y052025D01*
X0356D01*
X036338D01*
X036308Y052123D01*
X036255Y052224D01*
X036191Y052301D01*
X036289Y052381D01*
X03638Y052492D01*
X036448Y052619D01*
X036489Y052757D01*
X036504Y0529D01*
X036489Y053043D01*
X036448Y053181D01*
X03638Y053308D01*
X036304Y0534D01*
X03638Y053492D01*
X036448Y053619D01*
X036489Y053757D01*
X036504Y0539D01*
X036489Y054043D01*
X036448Y054181D01*
X03638Y054308D01*
X036289Y054419D01*
X036178Y05451D01*
X036051Y054578D01*
X035913Y054619D01*
X03577Y054634D01*
D02*
G37*
G36*
X036338Y051775D02*
X035725D01*
Y051317D01*
X03577D01*
X035884Y051328D01*
X035993Y051362D01*
X036094Y051415D01*
X036182Y051488D01*
X036255Y051576D01*
X036308Y051677D01*
X036338Y051775D01*
D02*
G37*
G36*
X035475D02*
X034862D01*
X034892Y051677D01*
X034945Y051576D01*
X035018Y051488D01*
X035106Y051415D01*
X035207Y051362D01*
X035316Y051328D01*
X03543Y051317D01*
X035475D01*
Y051775D01*
D02*
G37*
G36*
X04125Y052055D02*
X041054Y052036D01*
X040865Y051978D01*
X040692Y051885D01*
X040539Y051761D01*
X040415Y051608D01*
X040322Y051435D01*
X040264Y051246D01*
X040245Y05105D01*
X040264Y050854D01*
X040322Y050665D01*
X040415Y050492D01*
X040539Y050339D01*
X040692Y050215D01*
X040865Y050122D01*
X041054Y050064D01*
X04125Y050045D01*
X041446Y050064D01*
X041635Y050122D01*
X041808Y050215D01*
X041961Y050339D01*
X042085Y050492D01*
X042178Y050665D01*
X042236Y050854D01*
X042255Y05105D01*
X042236Y051246D01*
X042178Y051435D01*
X042085Y051608D01*
X041961Y051761D01*
X041808Y051885D01*
X041635Y051978D01*
X041446Y052036D01*
X04125Y052055D01*
D02*
G37*
G36*
X062694Y050742D02*
X062537Y050726D01*
X062387Y05068D01*
X062248Y050606D01*
X062126Y050506D01*
X062026Y050384D01*
X061952Y050245D01*
X061906Y050095D01*
X06189Y049938D01*
X061906Y049781D01*
X061952Y04963D01*
X062026Y049491D01*
X062126Y049369D01*
X062248Y049269D01*
X062387Y049195D01*
X062537Y049149D01*
X062694Y049134D01*
X062851Y049149D01*
X063002Y049195D01*
X063141Y049269D01*
X063263Y049369D01*
X063363Y049491D01*
X063437Y04963D01*
X063483Y049781D01*
X063498Y049938D01*
X063483Y050095D01*
X063437Y050245D01*
X063363Y050384D01*
X063263Y050506D01*
X063141Y050606D01*
X063002Y05068D01*
X062851Y050726D01*
X062694Y050742D01*
D02*
G37*
G36*
X076325Y048648D02*
Y048225D01*
X076748D01*
X076746Y048246D01*
X076689Y048382D01*
X076599Y048499D01*
X076482Y048589D01*
X076346Y048646D01*
X076325Y048648D01*
D02*
G37*
G36*
X0627Y045903D02*
X0595D01*
X059396Y04589D01*
X059298Y045849D01*
X059215Y045785D01*
X059151Y045702D01*
X05911Y045604D01*
X059097Y0455D01*
Y045304D01*
X057395D01*
X057395Y045305D01*
X057377Y045312D01*
X0573Y045353D01*
X057177Y045391D01*
X05705Y045403D01*
X056923Y045391D01*
X0568Y045353D01*
X056723Y045312D01*
X056705Y045305D01*
X056705Y045304D01*
X055145D01*
X055145Y045305D01*
X055127Y045312D01*
X05505Y045353D01*
X054927Y045391D01*
X0548Y045403D01*
X054673Y045391D01*
X05455Y045353D01*
X054473Y045312D01*
X054455Y045305D01*
X054455Y045304D01*
X05345D01*
X053319Y045287D01*
X053198Y045237D01*
X053093Y045157D01*
X052693Y044757D01*
X052613Y044652D01*
X052563Y044531D01*
X052546Y0444D01*
Y04096D01*
X052507Y040913D01*
X052447Y0408D01*
X052409Y040677D01*
X052397Y04055D01*
X052409Y040423D01*
X052447Y0403D01*
X052507Y040187D01*
X052588Y040088D01*
X052687Y040007D01*
X0528Y039947D01*
X052923Y039909D01*
X05305Y039897D01*
X053177Y039909D01*
X0533Y039947D01*
X053413Y040007D01*
X053512Y040088D01*
X053593Y040187D01*
X053653Y0403D01*
X053691Y040423D01*
X053703Y04055D01*
X053691Y040677D01*
X053653Y0408D01*
X053593Y040913D01*
X053554Y04096D01*
Y044191D01*
X053659Y044296D01*
X054332D01*
X054338Y044288D01*
X054437Y044207D01*
X05455Y044147D01*
X054673Y044109D01*
X0548Y044097D01*
X054927Y044109D01*
X05505Y044147D01*
X055163Y044207D01*
X055262Y044288D01*
X055268Y044296D01*
X056582D01*
X056588Y044288D01*
X056687Y044207D01*
X0568Y044147D01*
X056923Y044109D01*
X05705Y044097D01*
X057177Y044109D01*
X0573Y044147D01*
X057413Y044207D01*
X057512Y044288D01*
X057518Y044296D01*
X059097D01*
Y0441D01*
X05911Y043996D01*
X059151Y043898D01*
X059215Y043815D01*
X059298Y043751D01*
X059396Y04371D01*
X0595Y043697D01*
X0627D01*
X062804Y04371D01*
X062902Y043751D01*
X062985Y043815D01*
X063049Y043898D01*
X06309Y043996D01*
X063103Y0441D01*
Y044346D01*
X0666D01*
X066607Y044347D01*
X066657Y044337D01*
X066705Y044305D01*
X066737Y044257D01*
X066747Y044207D01*
X066746Y0442D01*
Y03816D01*
X066707Y038113D01*
X066647Y038D01*
X066609Y037877D01*
X066597Y03775D01*
X066609Y037623D01*
X066647Y0375D01*
X066707Y037387D01*
X066788Y037288D01*
X066887Y037207D01*
X067Y037147D01*
X067123Y037109D01*
X06725Y037097D01*
X067377Y037109D01*
X0675Y037147D01*
X067613Y037207D01*
X067712Y037288D01*
X067793Y037387D01*
X067853Y0375D01*
X067891Y037623D01*
X067903Y03775D01*
X067891Y037877D01*
X067853Y038D01*
X067793Y038113D01*
X067754Y03816D01*
Y0442D01*
X067752Y044214D01*
X067739Y04438D01*
X067697Y044556D01*
X067628Y044724D01*
X067533Y044878D01*
X067416Y045016D01*
X067278Y045133D01*
X067124Y045228D01*
X066956Y045297D01*
X06678Y045339D01*
X066614Y045352D01*
X0666Y045354D01*
X063103D01*
Y0455D01*
X06309Y045604D01*
X063049Y045702D01*
X062985Y045785D01*
X062902Y045849D01*
X062804Y04589D01*
X0627Y045903D01*
D02*
G37*
G36*
X039655Y045275D02*
X039225D01*
Y045135D01*
X039377D01*
X039372Y04512D01*
X039368Y045097D01*
X039363Y045064D01*
X039357Y044972D01*
X039355Y044858D01*
X039355Y044855D01*
X03937Y04477D01*
X039371Y044767D01*
X039377Y04477D01*
X039492Y044858D01*
X03958Y044973D01*
X039636Y045106D01*
X039655Y04525D01*
Y045275D01*
D02*
G37*
G36*
X036905D02*
X036475D01*
Y045095D01*
X0366Y045083D01*
X036596Y045074D01*
X036593Y045056D01*
X03659Y045028D01*
X036584Y044891D01*
X036583Y044751D01*
X036627Y04477D01*
X036742Y044858D01*
X03683Y044973D01*
X036886Y045106D01*
X036905Y04525D01*
Y045275D01*
D02*
G37*
G36*
X028305Y045225D02*
X027875D01*
Y045085D01*
X028027D01*
X028026Y045077D01*
X028024Y04506D01*
X02802Y044892D01*
X02802Y044716D01*
X028027Y04472D01*
X028142Y044808D01*
X02823Y044923D01*
X028286Y045056D01*
X028305Y0452D01*
Y045225D01*
D02*
G37*
G36*
X034005Y045275D02*
X033575D01*
Y044712D01*
X033594Y044714D01*
X033727Y04477D01*
X033842Y044858D01*
X03393Y044973D01*
X033986Y045106D01*
X034005Y04525D01*
Y045275D01*
D02*
G37*
G36*
X033325Y044743D02*
X033299Y044717D01*
X033306Y044714D01*
X033325Y044712D01*
Y044743D01*
D02*
G37*
G36*
X031105Y045225D02*
X030675D01*
Y045085D01*
X030827D01*
X030819Y045064D01*
X030811Y045034D01*
X030804Y044997D01*
X030793Y044898D01*
X030785Y044767D01*
X030784Y044702D01*
X030827Y04472D01*
X030942Y044808D01*
X03103Y044923D01*
X031086Y045056D01*
X031105Y0452D01*
Y045225D01*
D02*
G37*
G36*
X0391Y043253D02*
X038963Y04324D01*
X03885Y043206D01*
X0388Y043234D01*
Y04325D01*
X0374D01*
Y04155D01*
X0388D01*
Y041566D01*
X03885Y041594D01*
X038963Y04156D01*
X0391Y041547D01*
X039237Y04156D01*
X039369Y0416D01*
X039491Y041665D01*
X039597Y041753D01*
X039685Y041859D01*
X03975Y041981D01*
X03979Y042113D01*
X039803Y04225D01*
Y04255D01*
X03979Y042687D01*
X03975Y042819D01*
X039685Y042941D01*
X039597Y043047D01*
X039491Y043135D01*
X039369Y0432D01*
X039237Y04324D01*
X0391Y043253D01*
D02*
G37*
G36*
X040667Y041836D02*
X040325D01*
Y041664D01*
X040337Y04167D01*
X040394Y041701D01*
X040449Y041736D01*
X040504Y041776D01*
X040558Y041821D01*
X040667Y04165D01*
Y041836D01*
D02*
G37*
G36*
X076748Y041975D02*
X076325D01*
Y041552D01*
X076346Y041554D01*
X076482Y041611D01*
X076599Y041701D01*
X076689Y041818D01*
X076746Y041954D01*
X076748Y041975D01*
D02*
G37*
G36*
X05865Y040953D02*
X058523Y040941D01*
X0584Y040903D01*
X058287Y040843D01*
X058188Y040762D01*
X058149Y040714D01*
X056839D01*
X056759Y040746D01*
X056736Y040756D01*
X056736Y040756D01*
X056736Y040756D01*
X056724Y04076D01*
X056712Y040766D01*
X05659Y040803D01*
X056462Y040816D01*
X056335Y040803D01*
X056213Y040766D01*
X0561Y040706D01*
X056001Y040624D01*
X055919Y040525D01*
X055859Y040412D01*
X055822Y040291D01*
X0557Y040303D01*
X055573Y040291D01*
X05545Y040253D01*
X055337Y040193D01*
X055238Y040112D01*
X055157Y040013D01*
X055097Y0399D01*
X055059Y039777D01*
X055047Y03965D01*
X055059Y039523D01*
X055097Y0394D01*
X055157Y039287D01*
X055238Y039188D01*
X055337Y039107D01*
X05545Y039047D01*
X055573Y039009D01*
X0557Y038997D01*
X055827Y039009D01*
X05595Y039047D01*
X056063Y039107D01*
X056118Y039152D01*
X056142Y039168D01*
X05615Y039176D01*
X057431D01*
X057458Y039172D01*
X057458Y039172D01*
X057553Y039144D01*
X057575Y039137D01*
X057576Y039136D01*
X057578Y039136D01*
X057606Y039129D01*
X057673Y039109D01*
X0578Y039097D01*
X057927Y039109D01*
X05805Y039147D01*
X058163Y039207D01*
X058262Y039288D01*
X058343Y039387D01*
X058403Y0395D01*
X058441Y039623D01*
X058443Y039643D01*
X058484Y039671D01*
X058523Y039659D01*
X05865Y039647D01*
X058777Y039659D01*
X0589Y039697D01*
X059013Y039757D01*
X059112Y039838D01*
X059193Y039937D01*
X059253Y04005D01*
X059291Y040173D01*
X059303Y0403D01*
X059291Y040427D01*
X059253Y04055D01*
X059193Y040663D01*
X059112Y040762D01*
X059013Y040843D01*
X0589Y040903D01*
X058777Y040941D01*
X05865Y040953D01*
D02*
G37*
G36*
X028255Y037525D02*
X027825D01*
Y037385D01*
X027977D01*
X027972Y03737D01*
X027968Y037347D01*
X027963Y037314D01*
X027957Y037222D01*
X027953Y03701D01*
X027977Y03702D01*
X028092Y037108D01*
X02818Y037223D01*
X028236Y037356D01*
X028255Y0375D01*
Y037525D01*
D02*
G37*
G36*
X031205D02*
X030775D01*
Y037385D01*
X030927D01*
X030919Y037364D01*
X030911Y037334D01*
X030904Y037297D01*
X030893Y037198D01*
X030885Y037067D01*
X030884Y037002D01*
X030927Y03702D01*
X031042Y037108D01*
X03113Y037223D01*
X031186Y037356D01*
X031205Y0375D01*
Y037525D01*
D02*
G37*
G36*
X042355Y037475D02*
X041925D01*
Y03732D01*
X042077Y037335D01*
X042082Y037338D01*
X042086Y037329D01*
X042089Y037309D01*
X042092Y037277D01*
X042098Y037112D01*
X042099Y036986D01*
X042192Y037058D01*
X04228Y037173D01*
X042336Y037306D01*
X042355Y03745D01*
Y037475D01*
D02*
G37*
G36*
X039655D02*
X039225D01*
Y037335D01*
X039377D01*
X039376Y037327D01*
X039374Y03731D01*
X03937Y037142D01*
X03937Y036966D01*
X039377Y03697D01*
X039492Y037058D01*
X03958Y037173D01*
X039636Y037306D01*
X039655Y03745D01*
Y037475D01*
D02*
G37*
G36*
X036955D02*
X036525D01*
Y037295D01*
X03665Y037283D01*
X036646Y037274D01*
X036643Y037256D01*
X03664Y037228D01*
X036634Y037091D01*
X036633Y036951D01*
X036677Y03697D01*
X036792Y037058D01*
X03688Y037173D01*
X036936Y037306D01*
X036955Y03745D01*
Y037475D01*
D02*
G37*
G36*
X034155D02*
X033725D01*
Y037295D01*
X03385Y037283D01*
X033846Y037275D01*
X033843Y037258D01*
X03384Y037233D01*
X033834Y037109D01*
X033832Y036951D01*
X033877Y03697D01*
X033992Y037058D01*
X03408Y037173D01*
X034136Y037306D01*
X034155Y03745D01*
Y037475D01*
D02*
G37*
G36*
X025833Y03012D02*
Y029964D01*
X025973D01*
X025833Y03012D01*
D02*
G37*
G36*
X02421Y028006D02*
X023764D01*
Y02756D01*
X023863Y02759D01*
X023964Y027644D01*
X024053Y027717D01*
X024125Y027806D01*
X02418Y027907D01*
X02421Y028006D01*
D02*
G37*
G36*
X052832Y027999D02*
X052386D01*
X052416Y0279D01*
X05247Y027798D01*
X052543Y02771D01*
X052631Y027637D01*
X052733Y027583D01*
X052832Y027553D01*
Y027999D01*
D02*
G37*
%LPD*%
G36*
X0312Y0629D02*
X02695D01*
Y06445D01*
X0312Y0645D01*
Y0629D01*
D02*
G37*
G36*
X028001Y047478D02*
X02801Y047343D01*
X028016Y04731D01*
X028024Y047283D01*
X028032Y047262D01*
X028042Y047247D01*
X028053Y047238D01*
X028065Y047235D01*
X027635D01*
X027647Y047238D01*
X027658Y047247D01*
X027668Y047262D01*
X027676Y047283D01*
X027684Y04731D01*
X02769Y047343D01*
X027694Y047382D01*
X027699Y047478D01*
X0277Y047535D01*
X028D01*
X028001Y047478D01*
D02*
G37*
G36*
X037885Y046994D02*
X037882Y046985D01*
X037873Y046978D01*
X037858Y046971D01*
X037837Y046966D01*
X03781Y046961D01*
X037777Y046957D01*
X037693Y046952D01*
X037585Y04695D01*
Y04725D01*
X037642Y047251D01*
X037777Y047259D01*
X03781Y047264D01*
X037837Y04727D01*
X037858Y047278D01*
X037873Y047286D01*
X037882Y047296D01*
X037885Y047306D01*
Y046994D01*
D02*
G37*
G36*
X035568Y047255D02*
X035577Y047254D01*
X035592Y047253D01*
X035865Y04725D01*
Y04695D01*
X035565Y046944D01*
Y047256D01*
X035568Y047255D01*
D02*
G37*
G36*
X035135Y046944D02*
X035132Y046943D01*
X035123Y046943D01*
X034835Y046943D01*
Y047243D01*
X035135Y047256D01*
Y046944D01*
D02*
G37*
G36*
X032668Y047254D02*
X032677Y047251D01*
X032692Y047249D01*
X03274Y047246D01*
X032965Y047243D01*
Y046943D01*
X032665Y046944D01*
Y047256D01*
X032668Y047254D01*
D02*
G37*
G36*
X032235Y046944D02*
X032232Y046943D01*
X032223Y046943D01*
X031935Y046943D01*
Y047243D01*
X032235Y047256D01*
Y046944D01*
D02*
G37*
G36*
X038318Y047286D02*
X038327Y047268D01*
X038342Y047252D01*
X038363Y047238D01*
X03839Y047227D01*
X038423Y047217D01*
X038462Y04721D01*
X038507Y047204D01*
X038558Y047201D01*
X038615Y0472D01*
Y0469D01*
X038315Y046994D01*
Y047306D01*
X038318Y047286D01*
D02*
G37*
G36*
X029768Y047205D02*
X029777Y047204D01*
X029792Y047203D01*
X030065Y0472D01*
Y0469D01*
X029765Y046894D01*
Y047206D01*
X029768Y047205D01*
D02*
G37*
G36*
X029335Y046894D02*
X029332Y046895D01*
X029323Y046896D01*
X029308Y046897D01*
X029035Y0469D01*
Y0472D01*
X029335Y047206D01*
Y046894D01*
D02*
G37*
G36*
X026968Y047205D02*
X026977Y047204D01*
X026992Y047203D01*
X027265Y0472D01*
Y0469D01*
X026965Y046894D01*
Y047206D01*
X026968Y047205D01*
D02*
G37*
G36*
X039368Y047269D02*
X039377Y047254D01*
X039392Y047242D01*
X039413Y047231D01*
X03944Y047221D01*
X039473Y047214D01*
X039512Y047208D01*
X039557Y047203D01*
X039665Y0472D01*
Y0469D01*
X039608Y046899D01*
X039512Y046892D01*
X039473Y046886D01*
X03944Y046879D01*
X039413Y046869D01*
X039392Y046858D01*
X039377Y046846D01*
X039368Y046831D01*
X039365Y046815D01*
Y047285D01*
X039368Y047269D01*
D02*
G37*
G36*
X038935Y046815D02*
X038932Y046831D01*
X038923Y046846D01*
X038908Y046858D01*
X038887Y046869D01*
X03886Y046879D01*
X038827Y046886D01*
X038788Y046892D01*
X038743Y046897D01*
X038635Y0469D01*
Y0472D01*
X038692Y047201D01*
X038788Y047208D01*
X038827Y047214D01*
X03886Y047221D01*
X038887Y047231D01*
X038908Y047242D01*
X038923Y047254D01*
X038932Y047269D01*
X038935Y047285D01*
Y046815D01*
D02*
G37*
G36*
X036618Y047278D02*
X036627Y047272D01*
X036642Y047267D01*
X036663Y047263D01*
X03669Y047259D01*
X036762Y047253D01*
X036915Y04725D01*
Y04695D01*
X036858Y046949D01*
X036807Y046945D01*
X036762Y046938D01*
X036723Y046928D01*
X03669Y046916D01*
X036663Y046901D01*
X036642Y046884D01*
X036627Y046864D01*
X036618Y046841D01*
X036615Y046815D01*
Y047285D01*
X036618Y047278D01*
D02*
G37*
G36*
X036185Y046815D02*
X036182Y046841D01*
X036173Y046864D01*
X036158Y046884D01*
X036137Y046901D01*
X03611Y046916D01*
X036077Y046928D01*
X036038Y046938D01*
X035993Y046945D01*
X035942Y046949D01*
X035885Y04695D01*
Y04725D01*
X035942Y04725D01*
X036137Y047263D01*
X036158Y047267D01*
X036173Y047272D01*
X036182Y047278D01*
X036185Y047285D01*
Y046815D01*
D02*
G37*
G36*
X033718Y047277D02*
X033727Y04727D01*
X033742Y047263D01*
X033763Y047258D01*
X03379Y047253D01*
X033823Y047249D01*
X033907Y047244D01*
X034015Y047243D01*
Y046943D01*
X033958Y046941D01*
X033907Y046937D01*
X033862Y046931D01*
X033823Y046922D01*
X03379Y046911D01*
X033763Y046897D01*
X033742Y04688D01*
X033727Y046861D01*
X033718Y046839D01*
X033715Y046815D01*
Y047285D01*
X033718Y047277D01*
D02*
G37*
G36*
X033285Y046815D02*
X033282Y046839D01*
X033273Y046861D01*
X033258Y04688D01*
X033237Y046897D01*
X03321Y046911D01*
X033177Y046922D01*
X033138Y046931D01*
X033093Y046937D01*
X033042Y046941D01*
X032985Y046943D01*
Y047243D01*
X033042Y047243D01*
X03321Y047253D01*
X033237Y047258D01*
X033258Y047263D01*
X033273Y04727D01*
X033282Y047277D01*
X033285Y047285D01*
Y046815D01*
D02*
G37*
G36*
X030385Y046765D02*
X030382Y046791D01*
X030373Y046814D01*
X030358Y046834D01*
X030337Y046851D01*
X03031Y046866D01*
X030277Y046878D01*
X030238Y046888D01*
X030193Y046895D01*
X030142Y046899D01*
X030085Y0469D01*
Y0472D01*
X030142Y0472D01*
X030337Y047213D01*
X030358Y047217D01*
X030373Y047222D01*
X030382Y047228D01*
X030385Y047235D01*
Y046765D01*
D02*
G37*
G36*
X028068Y047228D02*
X028077Y047222D01*
X028092Y047217D01*
X028113Y047213D01*
X02814Y047209D01*
X028212Y047203D01*
X028365Y0472D01*
Y0469D01*
X028308Y046899D01*
X028257Y046895D01*
X028212Y046888D01*
X028173Y046878D01*
X02814Y046866D01*
X028113Y046851D01*
X028092Y046834D01*
X028077Y046814D01*
X028068Y046791D01*
X028065Y046765D01*
Y047235D01*
X028068Y047228D01*
D02*
G37*
G36*
X027635Y046765D02*
X027632Y046791D01*
X027623Y046814D01*
X027608Y046834D01*
X027587Y046851D01*
X02756Y046866D01*
X027527Y046878D01*
X027488Y046888D01*
X027443Y046895D01*
X027392Y046899D01*
X027335Y0469D01*
Y0472D01*
X027392Y0472D01*
X027587Y047213D01*
X027608Y047217D01*
X027623Y047222D01*
X027632Y047228D01*
X027635Y047235D01*
Y046765D01*
D02*
G37*
G36*
X042661Y046444D02*
X0416D01*
Y047694D01*
X042661D01*
Y046444D01*
D02*
G37*
G36*
X038281Y046193D02*
X038264Y046187D01*
X038249Y046177D01*
X038236Y046163D01*
X038225Y046145D01*
X038216Y046122D01*
X038209Y046096D01*
X038204Y046066D01*
X038201Y046032D01*
X0382Y04601D01*
X038201Y045982D01*
X038209Y045899D01*
X038216Y045865D01*
X038225Y045837D01*
X038236Y045813D01*
X038249Y045795D01*
X038264Y045782D01*
X03828Y045774D01*
X038299Y045771D01*
X037901D01*
X03792Y045774D01*
X037936Y045782D01*
X037951Y045795D01*
X037964Y045813D01*
X037975Y045837D01*
X037984Y045865D01*
X037991Y045899D01*
X037996Y045938D01*
X037999Y045982D01*
X038Y04601D01*
X037999Y046032D01*
X037996Y046066D01*
X037991Y046096D01*
X037984Y046122D01*
X037975Y046145D01*
X037964Y046163D01*
X037951Y046177D01*
X037936Y046187D01*
X037919Y046193D01*
X0379Y046195D01*
X0383D01*
X038281Y046193D01*
D02*
G37*
G36*
X035531Y046143D02*
X035514Y046137D01*
X035499Y046127D01*
X035486Y046113D01*
X035475Y046095D01*
X035466Y046072D01*
X035459Y046046D01*
X035454Y046016D01*
X035451Y045982D01*
X035459Y045899D01*
X035466Y045865D01*
X035475Y045837D01*
X035486Y045813D01*
X035499Y045795D01*
X035514Y045782D01*
X03553Y045774D01*
X035549Y045771D01*
X035151D01*
X03517Y045774D01*
X035186Y045782D01*
X035201Y045795D01*
X035214Y045813D01*
X035225Y045837D01*
X035234Y045865D01*
X035241Y045899D01*
X035246Y045938D01*
X035249Y045982D01*
X035246Y046016D01*
X035241Y046046D01*
X035234Y046072D01*
X035225Y046095D01*
X035214Y046113D01*
X035201Y046127D01*
X035186Y046137D01*
X035169Y046143D01*
X03515Y046145D01*
X03555D01*
X035531Y046143D01*
D02*
G37*
G36*
X036619Y04618D02*
X036627Y045665D01*
X036073D01*
X036081Y045686D01*
X036089Y045716D01*
X036096Y045753D01*
X036107Y045852D01*
X036115Y045983D01*
X036119Y04624D01*
X036619Y04618D01*
D02*
G37*
G36*
X033719D02*
X033727Y045665D01*
X033173D01*
X033181Y045686D01*
X033189Y045716D01*
X033196Y045753D01*
X033207Y045852D01*
X033215Y045983D01*
X033219Y04624D01*
X033719Y04618D01*
D02*
G37*
G36*
X032727Y045665D02*
X032173D01*
X032178Y04568D01*
X032182Y045703D01*
X032187Y045736D01*
X032193Y045828D01*
X0322Y046216D01*
X0327D01*
X032727Y045665D01*
D02*
G37*
G36*
X030819Y04613D02*
X030827Y045615D01*
X030273D01*
X030281Y045636D01*
X030289Y045666D01*
X030296Y045703D01*
X030308Y045802D01*
X030315Y045933D01*
X030319Y04619D01*
X030819Y04613D01*
D02*
G37*
G36*
X029819D02*
X029827Y045615D01*
X0293Y045667D01*
X029304Y045676D01*
X029307Y045694D01*
X02931Y045722D01*
X029316Y045859D01*
X029319Y046169D01*
X029819Y04613D01*
D02*
G37*
G36*
X028019D02*
X028027Y045615D01*
X027473D01*
X027481Y045636D01*
X027489Y045666D01*
X027496Y045703D01*
X027508Y045802D01*
X027515Y045933D01*
X027519Y04619D01*
X028019Y04613D01*
D02*
G37*
G36*
X027027Y045615D02*
X026473D01*
X026478Y04563D01*
X026482Y045653D01*
X026487Y045686D01*
X026493Y045778D01*
X0265Y046166D01*
X027D01*
X027027Y045615D01*
D02*
G37*
G36*
X017832Y054123D02*
X017855Y054087D01*
X017879Y054055D01*
X017903Y054027D01*
X017928Y054003D01*
X017952Y053984D01*
X017978Y053969D01*
X018004Y053959D01*
X01803Y053952D01*
X018056Y05395D01*
X018026Y05385D01*
X018009Y053848D01*
X017988Y053844D01*
X017963Y053836D01*
X017933Y053825D01*
X017862Y053794D01*
X017724Y053723D01*
X01767Y053694D01*
X01781Y054163D01*
X017832Y054123D01*
D02*
G37*
G36*
X01698Y05326D02*
X01697Y053247D01*
X016959Y053229D01*
X016946Y053206D01*
X016933Y053178D01*
X016904Y053105D01*
X016853Y052957D01*
X016835Y052897D01*
X016609Y053332D01*
X016654Y053319D01*
X016695Y053309D01*
X016734Y053303D01*
X01677Y0533D01*
X016804Y0533D01*
X016835Y053304D01*
X016863Y053311D01*
X016889Y053322D01*
X016912Y053336D01*
X016932Y053353D01*
X01698Y05326D01*
D02*
G37*
G36*
X040744Y053798D02*
X040779Y053767D01*
X040817Y05374D01*
X040859Y053716D01*
X040904Y053696D01*
X040952Y053679D01*
X041003Y053666D01*
X041057Y053657D01*
X041115Y053652D01*
X041176Y05365D01*
X04113Y05315D01*
X041069Y053148D01*
X041011Y053144D01*
X040956Y053136D01*
X040903Y053125D01*
X040853Y053111D01*
X040806Y053094D01*
X040761Y053074D01*
X040719Y053051D01*
X040679Y053025D01*
X040642Y052996D01*
X040712Y053833D01*
X040744Y053798D01*
D02*
G37*
G36*
X017787Y053208D02*
X017858Y053146D01*
X017891Y05312D01*
X017922Y053099D01*
X017952Y053081D01*
X01798Y053068D01*
X018007Y053058D01*
X018033Y053052D01*
X018056Y05305D01*
Y05295D01*
X018033Y052948D01*
X018007Y052942D01*
X01798Y052932D01*
X017952Y052919D01*
X017922Y052901D01*
X017891Y05288D01*
X017858Y052854D01*
X017787Y052792D01*
X01775Y052755D01*
Y053245D01*
X017787Y053208D01*
D02*
G37*
G36*
X016859Y052288D02*
X016845Y052274D01*
X016834Y052259D01*
X016825Y052245D01*
X016818Y05223D01*
X016813Y052216D01*
X01681Y052201D01*
X016809Y052187D01*
X016811Y052172D01*
X016814Y052157D01*
X01682Y052143D01*
X016643Y05232D01*
X016657Y052314D01*
X016672Y052311D01*
X016687Y052309D01*
X016701Y05231D01*
X016716Y052313D01*
X01673Y052318D01*
X016745Y052325D01*
X016759Y052334D01*
X016774Y052345D01*
X016788Y052359D01*
X016859Y052288D01*
D02*
G37*
G36*
X017787Y052208D02*
X017858Y052146D01*
X017891Y05212D01*
X017922Y052099D01*
X017952Y052081D01*
X01798Y052068D01*
X018007Y052058D01*
X018033Y052052D01*
X018056Y05205D01*
Y05195D01*
X018033Y051948D01*
X018007Y051942D01*
X01798Y051932D01*
X017952Y051919D01*
X017922Y051901D01*
X017891Y05188D01*
X017858Y051854D01*
X017787Y051792D01*
X01775Y051755D01*
Y052245D01*
X017787Y052208D01*
D02*
G37*
G36*
X01686Y05129D02*
X016847Y051275D01*
X016835Y05126D01*
X016826Y051246D01*
X016819Y051231D01*
X016814Y051216D01*
X016811Y051201D01*
X01681Y051186D01*
X016812Y05117D01*
X016815Y051155D01*
X016821Y05114D01*
X01664Y051321D01*
X016655Y051315D01*
X01667Y051312D01*
X016686Y05131D01*
X016701Y051311D01*
X016716Y051314D01*
X016731Y051319D01*
X016746Y051326D01*
X01676Y051335D01*
X016775Y051347D01*
X01679Y05136D01*
X01686Y05129D01*
D02*
G37*
G36*
X017832Y051123D02*
X017855Y051087D01*
X017879Y051055D01*
X017903Y051027D01*
X017928Y051003D01*
X017952Y050984D01*
X017978Y050969D01*
X018004Y050959D01*
X01803Y050952D01*
X018056Y05095D01*
X018026Y05085D01*
X018009Y050848D01*
X017988Y050844D01*
X017963Y050836D01*
X017933Y050825D01*
X017862Y050794D01*
X017724Y050723D01*
X01767Y050694D01*
X01781Y051163D01*
X017832Y051123D01*
D02*
G37*
G36*
X046652Y050997D02*
X046658Y05095D01*
X046669Y050903D01*
X046684Y050857D01*
X046703Y050811D01*
X046727Y050765D01*
X046755Y05072D01*
X046788Y050675D01*
X046825Y050631D01*
X046867Y050587D01*
X046513Y050233D01*
X046469Y050275D01*
X046425Y050312D01*
X04638Y050345D01*
X046335Y050373D01*
X046289Y050397D01*
X046243Y050416D01*
X046197Y050431D01*
X04615Y050442D01*
X046103Y050448D01*
X046056Y05045D01*
X04665Y051044D01*
X046652Y050997D01*
D02*
G37*
G36*
X017787Y050208D02*
X017858Y050146D01*
X017891Y05012D01*
X017922Y050099D01*
X017952Y050081D01*
X01798Y050068D01*
X018007Y050058D01*
X018033Y050052D01*
X018056Y05005D01*
Y04995D01*
X018033Y049948D01*
X018007Y049942D01*
X01798Y049932D01*
X017952Y049919D01*
X017922Y049901D01*
X017891Y04988D01*
X017858Y049854D01*
X017787Y049792D01*
X01775Y049755D01*
Y050245D01*
X017787Y050208D01*
D02*
G37*
G36*
X016859Y049288D02*
X016845Y049274D01*
X016834Y049259D01*
X016825Y049245D01*
X016818Y04923D01*
X016813Y049216D01*
X01681Y049201D01*
X016809Y049187D01*
X016811Y049172D01*
X016814Y049157D01*
X01682Y049143D01*
X016643Y04932D01*
X016657Y049314D01*
X016672Y049311D01*
X016687Y049309D01*
X016701Y04931D01*
X016716Y049313D01*
X01673Y049318D01*
X016745Y049325D01*
X016759Y049334D01*
X016774Y049345D01*
X016788Y049359D01*
X016859Y049288D01*
D02*
G37*
G36*
X017787Y049208D02*
X017858Y049146D01*
X017891Y04912D01*
X017922Y049099D01*
X017952Y049081D01*
X01798Y049068D01*
X018007Y049058D01*
X018033Y049052D01*
X018056Y04905D01*
Y04895D01*
X018033Y048948D01*
X018007Y048942D01*
X01798Y048932D01*
X017952Y048919D01*
X017922Y048901D01*
X017891Y04888D01*
X017858Y048854D01*
X017787Y048792D01*
X01775Y048755D01*
Y049245D01*
X017787Y049208D01*
D02*
G37*
G36*
X017832Y048123D02*
X017855Y048087D01*
X017879Y048055D01*
X017903Y048027D01*
X017928Y048003D01*
X017952Y047984D01*
X017978Y047969D01*
X018004Y047959D01*
X01803Y047952D01*
X018056Y04795D01*
X018026Y04785D01*
X018009Y047848D01*
X017988Y047844D01*
X017963Y047836D01*
X017933Y047825D01*
X017862Y047794D01*
X017724Y047723D01*
X01767Y047694D01*
X01781Y048163D01*
X017832Y048123D01*
D02*
G37*
G36*
X017787Y047208D02*
X017858Y047146D01*
X017891Y04712D01*
X017922Y047099D01*
X017952Y047081D01*
X01798Y047068D01*
X018007Y047058D01*
X018033Y047052D01*
X018056Y04705D01*
Y04695D01*
X018033Y046948D01*
X018007Y046942D01*
X01798Y046932D01*
X017952Y046919D01*
X017922Y046901D01*
X017891Y04688D01*
X017858Y046854D01*
X017787Y046792D01*
X01775Y046755D01*
Y047245D01*
X017787Y047208D01*
D02*
G37*
G36*
X017818Y046151D02*
X017834Y04613D01*
X017851Y046111D01*
X017869Y046095D01*
X017888Y046081D01*
X017909Y04607D01*
X01793Y046061D01*
X017952Y046055D01*
X017976Y046051D01*
X018Y04605D01*
Y04595D01*
X017976Y045949D01*
X017952Y045945D01*
X01793Y045939D01*
X017909Y04593D01*
X017888Y045919D01*
X017869Y045905D01*
X017851Y045889D01*
X017834Y04587D01*
X017818Y045849D01*
X017803Y045825D01*
Y046175D01*
X017818Y046151D01*
D02*
G37*
G36*
X039054Y0404D02*
X038955Y040396D01*
X038859Y040386D01*
X038767Y040368D01*
X038677Y040343D01*
X03859Y040312D01*
X038506Y040273D01*
X038425Y040227D01*
X038347Y040174D01*
X038272Y040114D01*
X0382Y040046D01*
X037523Y040077D01*
X03758Y040138D01*
X03762Y040193D01*
X037643Y040242D01*
X03765Y040284D01*
X037641Y040319D01*
X037615Y040348D01*
X037572Y040371D01*
X037514Y040387D01*
X037438Y040397D01*
X037346Y0404D01*
X03845Y0409D01*
X039054Y0404D01*
D02*
G37*
G36*
X036304D02*
X036205Y040396D01*
X036109Y040386D01*
X036017Y040368D01*
X035927Y040343D01*
X03584Y040312D01*
X035756Y040273D01*
X035675Y040227D01*
X035597Y040174D01*
X035522Y040114D01*
X03545Y040046D01*
X034773Y040077D01*
X03483Y040138D01*
X03487Y040193D01*
X034893Y040242D01*
X0349Y040284D01*
X034891Y040319D01*
X034865Y040348D01*
X034822Y040371D01*
X034764Y040387D01*
X034688Y040397D01*
X034596Y0404D01*
X0357Y0409D01*
X036304Y0404D01*
D02*
G37*
G36*
X033454D02*
X033355Y040396D01*
X033259Y040386D01*
X033167Y040368D01*
X033077Y040343D01*
X03299Y040312D01*
X032906Y040273D01*
X032825Y040227D01*
X032747Y040174D01*
X032672Y040114D01*
X0326Y040046D01*
X031893D01*
X031955Y040114D01*
X032Y040174D01*
X032028Y040227D01*
X032039Y040273D01*
X032033Y040312D01*
X03201Y040343D01*
X03197Y040368D01*
X031912Y040386D01*
X031838Y040396D01*
X031746Y0404D01*
X03285Y0409D01*
X033454Y0404D01*
D02*
G37*
G36*
X030454D02*
X030355Y040396D01*
X030259Y040386D01*
X030167Y040368D01*
X030077Y040343D01*
X02999Y040312D01*
X029906Y040273D01*
X029825Y040227D01*
X029747Y040174D01*
X029672Y040114D01*
X0296Y040046D01*
X028973Y040127D01*
X02902Y040179D01*
X029052Y040225D01*
X029068Y040266D01*
X029068Y040302D01*
X029053Y040332D01*
X029023Y040356D01*
X028977Y040375D01*
X028916Y040389D01*
X028839Y040397D01*
X028746Y0404D01*
X02985Y0409D01*
X030454Y0404D01*
D02*
G37*
G36*
X041304Y039959D02*
X041297Y0399D01*
Y039886D01*
X041183D01*
Y039857D01*
X041032D01*
X041015Y03986D01*
X040998Y039857D01*
X040602D01*
X040585Y03986D01*
X040568Y039857D01*
X040183D01*
Y039755D01*
X039817D01*
Y039836D01*
X039452D01*
X039447Y039837D01*
X039431Y039836D01*
X039415Y039838D01*
X039398Y039836D01*
X039002D01*
X038985Y039838D01*
X038969Y039836D01*
X038953Y039837D01*
X038948Y039836D01*
X038717D01*
Y039857D01*
X038693D01*
X03868Y039907D01*
X038691Y039914D01*
X038745Y039939D01*
X0388Y039959D01*
X038858Y039975D01*
X03892Y039987D01*
X038985Y039994D01*
X039068Y039997D01*
X039068Y039997D01*
X041271D01*
X041304Y039959D01*
D02*
G37*
G36*
X041585Y039015D02*
X041582Y039022D01*
X041573Y039028D01*
X041558Y039033D01*
X041537Y039037D01*
X04151Y039041D01*
X041438Y039047D01*
X041285Y03905D01*
Y03906D01*
X041015Y039144D01*
Y039456D01*
X041018Y039436D01*
X041027Y039418D01*
X041042Y039402D01*
X041063Y039388D01*
X04109Y039377D01*
X041123Y039367D01*
X041162Y03936D01*
X041207Y039354D01*
X041258Y039351D01*
X041298Y03935D01*
X041342Y039351D01*
X041393Y039355D01*
X041438Y039362D01*
X041477Y039372D01*
X04151Y039384D01*
X041537Y039399D01*
X041558Y039416D01*
X041573Y039436D01*
X041582Y039459D01*
X041585Y039485D01*
Y039015D01*
D02*
G37*
G36*
X040585Y039144D02*
X040582Y039126D01*
X040573Y03911D01*
X040558Y039096D01*
X040537Y039084D01*
X04051Y039073D01*
X040477Y039065D01*
X040438Y039058D01*
X040393Y039054D01*
X040285Y03905D01*
Y03935D01*
X040342Y039351D01*
X040438Y03936D01*
X040477Y039367D01*
X04051Y039377D01*
X040537Y039388D01*
X040558Y039402D01*
X040573Y039418D01*
X040582Y039436D01*
X040585Y039456D01*
Y039144D01*
D02*
G37*
G36*
X038318Y039436D02*
X038327Y039418D01*
X038342Y039402D01*
X038363Y039388D01*
X03839Y039377D01*
X038423Y039367D01*
X038462Y03936D01*
X038507Y039354D01*
X038558Y039351D01*
X038615Y03935D01*
Y03905D01*
X038315Y039144D01*
Y039456D01*
X038318Y039436D01*
D02*
G37*
G36*
X037885Y039144D02*
X037882Y039126D01*
X037873Y03911D01*
X037858Y039096D01*
X037837Y039084D01*
X03781Y039073D01*
X037777Y039065D01*
X037738Y039058D01*
X037693Y039054D01*
X037585Y03905D01*
Y03935D01*
X037642Y039351D01*
X037738Y03936D01*
X037777Y039367D01*
X03781Y039377D01*
X037837Y039388D01*
X037858Y039402D01*
X037873Y039418D01*
X037882Y039436D01*
X037885Y039456D01*
Y039144D01*
D02*
G37*
G36*
X035618Y039436D02*
X035627Y039418D01*
X035642Y039402D01*
X035663Y039388D01*
X03569Y039377D01*
X035723Y039367D01*
X035762Y03936D01*
X035807Y039354D01*
X035858Y039351D01*
X035915Y03935D01*
Y03905D01*
X035615Y039144D01*
Y039456D01*
X035618Y039436D01*
D02*
G37*
G36*
X035185Y039144D02*
X035182Y039126D01*
X035173Y03911D01*
X035158Y039096D01*
X035137Y039084D01*
X03511Y039073D01*
X035077Y039065D01*
X035038Y039058D01*
X034993Y039054D01*
X034885Y03905D01*
Y03935D01*
X034942Y039351D01*
X035038Y03936D01*
X035077Y039367D01*
X03511Y039377D01*
X035137Y039388D01*
X035158Y039402D01*
X035173Y039418D01*
X035182Y039436D01*
X035185Y039456D01*
Y039144D01*
D02*
G37*
G36*
X032768Y039436D02*
X032777Y039418D01*
X032792Y039402D01*
X032813Y039388D01*
X03284Y039377D01*
X032873Y039367D01*
X032912Y03936D01*
X032957Y039354D01*
X033008Y039351D01*
X033065Y03935D01*
Y03905D01*
X032765Y039144D01*
Y039456D01*
X032768Y039436D01*
D02*
G37*
G36*
X032335Y039144D02*
X032332Y039126D01*
X032323Y03911D01*
X032308Y039096D01*
X032287Y039084D01*
X03226Y039073D01*
X032227Y039065D01*
X032188Y039058D01*
X032143Y039054D01*
X032035Y03905D01*
Y03935D01*
X032092Y039351D01*
X032188Y03936D01*
X032227Y039367D01*
X03226Y039377D01*
X032287Y039388D01*
X032308Y039402D01*
X032323Y039418D01*
X032332Y039436D01*
X032335Y039456D01*
Y039144D01*
D02*
G37*
G36*
X029868Y039436D02*
X029877Y039418D01*
X029892Y039402D01*
X029913Y039388D01*
X02994Y039377D01*
X029973Y039367D01*
X030012Y03936D01*
X030057Y039354D01*
X030108Y039351D01*
X030165Y03935D01*
Y03905D01*
X029865Y039144D01*
Y039456D01*
X029868Y039436D01*
D02*
G37*
G36*
X029435Y039144D02*
X029432Y039126D01*
X029423Y03911D01*
X029408Y039096D01*
X029387Y039084D01*
X02936Y039073D01*
X029327Y039065D01*
X029288Y039058D01*
X029243Y039054D01*
X029135Y03905D01*
Y03935D01*
X029192Y039351D01*
X029288Y03936D01*
X029327Y039367D01*
X02936Y039377D01*
X029387Y039388D01*
X029408Y039402D01*
X029423Y039418D01*
X029432Y039436D01*
X029435Y039456D01*
Y039144D01*
D02*
G37*
G36*
X026918Y039396D02*
X026927Y039386D01*
X026942Y039378D01*
X026963Y03937D01*
X02699Y039364D01*
X027023Y039359D01*
X027107Y039352D01*
X027215Y03935D01*
Y03905D01*
X026915Y039094D01*
Y039406D01*
X026918Y039396D01*
D02*
G37*
G36*
X036668Y039459D02*
X036677Y039436D01*
X036692Y039416D01*
X036713Y039399D01*
X03674Y039384D01*
X036773Y039372D01*
X036812Y039362D01*
X036857Y039355D01*
X036908Y039351D01*
X036965Y03935D01*
Y03905D01*
X036908Y03905D01*
X036713Y039037D01*
X036692Y039033D01*
X036677Y039028D01*
X036668Y039022D01*
X036665Y039015D01*
Y039485D01*
X036668Y039459D01*
D02*
G37*
G36*
X036235Y039015D02*
X036232Y039022D01*
X036223Y039028D01*
X036208Y039033D01*
X036187Y039037D01*
X03616Y039041D01*
X036088Y039047D01*
X035935Y03905D01*
Y03935D01*
X035992Y039351D01*
X036043Y039355D01*
X036088Y039362D01*
X036127Y039372D01*
X03616Y039384D01*
X036187Y039399D01*
X036208Y039416D01*
X036223Y039436D01*
X036232Y039459D01*
X036235Y039485D01*
Y039015D01*
D02*
G37*
G36*
X039418Y039419D02*
X039427Y039404D01*
X039442Y039392D01*
X039463Y039381D01*
X03949Y039371D01*
X039523Y039364D01*
X039562Y039358D01*
X039607Y039353D01*
X039715Y03935D01*
Y03905D01*
X039658Y039049D01*
X039562Y039042D01*
X039523Y039036D01*
X03949Y039029D01*
X039463Y039019D01*
X039442Y039008D01*
X039427Y038996D01*
X039418Y038981D01*
X039415Y038965D01*
Y039435D01*
X039418Y039419D01*
D02*
G37*
G36*
X038985Y038965D02*
X038982Y038981D01*
X038973Y038996D01*
X038958Y039008D01*
X038937Y039019D01*
X03891Y039029D01*
X038877Y039036D01*
X038838Y039042D01*
X038793Y039047D01*
X038685Y03905D01*
Y03935D01*
X038742Y039351D01*
X038838Y039358D01*
X038877Y039364D01*
X03891Y039371D01*
X038937Y039381D01*
X038958Y039392D01*
X038973Y039404D01*
X038982Y039419D01*
X038985Y039435D01*
Y038965D01*
D02*
G37*
G36*
X033818Y039419D02*
X033827Y039404D01*
X033842Y039392D01*
X033863Y039381D01*
X03389Y039371D01*
X033923Y039364D01*
X033962Y039358D01*
X034007Y039353D01*
X034115Y03935D01*
Y03905D01*
X034058Y039049D01*
X033962Y039042D01*
X033923Y039036D01*
X03389Y039029D01*
X033863Y039019D01*
X033842Y039008D01*
X033827Y038996D01*
X033818Y038981D01*
X033815Y038965D01*
Y039435D01*
X033818Y039419D01*
D02*
G37*
G36*
X033385Y038965D02*
X033382Y038981D01*
X033373Y038996D01*
X033358Y039008D01*
X033337Y039019D01*
X03331Y039029D01*
X033277Y039036D01*
X033238Y039042D01*
X033193Y039047D01*
X033085Y03905D01*
Y03935D01*
X033142Y039351D01*
X033238Y039358D01*
X033277Y039364D01*
X03331Y039371D01*
X033337Y039381D01*
X033358Y039392D01*
X033373Y039404D01*
X033382Y039419D01*
X033385Y039435D01*
Y038965D01*
D02*
G37*
G36*
X030918Y039419D02*
X030927Y039404D01*
X030942Y039392D01*
X030963Y039381D01*
X03099Y039371D01*
X031023Y039364D01*
X031062Y039358D01*
X031107Y039353D01*
X031215Y03935D01*
Y03905D01*
X031158Y039049D01*
X031062Y039042D01*
X031023Y039036D01*
X03099Y039029D01*
X030963Y039019D01*
X030942Y039008D01*
X030927Y038996D01*
X030918Y038981D01*
X030915Y038965D01*
Y039435D01*
X030918Y039419D01*
D02*
G37*
G36*
X030485Y038965D02*
X030482Y038981D01*
X030473Y038996D01*
X030458Y039008D01*
X030437Y039019D01*
X03041Y039029D01*
X030377Y039036D01*
X030338Y039042D01*
X030293Y039047D01*
X030185Y03905D01*
Y03935D01*
X030242Y039351D01*
X030338Y039358D01*
X030377Y039364D01*
X03041Y039371D01*
X030437Y039381D01*
X030458Y039392D01*
X030473Y039404D01*
X030482Y039419D01*
X030485Y039435D01*
Y038965D01*
D02*
G37*
G36*
X027968Y039419D02*
X027977Y039404D01*
X027992Y039392D01*
X028013Y039381D01*
X02804Y039371D01*
X028073Y039364D01*
X028112Y039358D01*
X028157Y039353D01*
X028265Y03935D01*
Y03905D01*
X028208Y039049D01*
X028112Y039042D01*
X028073Y039036D01*
X02804Y039029D01*
X028013Y039019D01*
X027992Y039008D01*
X027977Y038996D01*
X027968Y038981D01*
X027965Y038965D01*
Y039435D01*
X027968Y039419D01*
D02*
G37*
G36*
X027535Y038965D02*
X027532Y038981D01*
X027523Y038996D01*
X027508Y039008D01*
X027487Y039019D01*
X02746Y039029D01*
X027427Y039036D01*
X027388Y039042D01*
X027343Y039047D01*
X027235Y03905D01*
Y03935D01*
X027292Y039351D01*
X027388Y039358D01*
X027427Y039364D01*
X02746Y039371D01*
X027487Y039381D01*
X027508Y039392D01*
X027523Y039404D01*
X027532Y039419D01*
X027535Y039435D01*
Y038965D01*
D02*
G37*
G36*
X04375Y0394D02*
Y03855D01*
X04315D01*
X04265Y03905D01*
X0417D01*
Y0399D01*
X04325D01*
X04375Y0394D01*
D02*
G37*
G36*
X029831Y038343D02*
X029814Y038337D01*
X029799Y038327D01*
X029786Y038313D01*
X029775Y038295D01*
X029766Y038272D01*
X029759Y038246D01*
X029754Y038216D01*
X029753Y038208D01*
X029759Y038149D01*
X029766Y038115D01*
X029775Y038087D01*
X029786Y038063D01*
X029799Y038045D01*
X029814Y038032D01*
X02983Y038024D01*
X029849Y038021D01*
X029451D01*
X02947Y038024D01*
X029486Y038032D01*
X029501Y038045D01*
X029514Y038063D01*
X029525Y038087D01*
X029534Y038115D01*
X029541Y038149D01*
X029546Y038188D01*
X029547Y038204D01*
X029546Y038216D01*
X029541Y038246D01*
X029534Y038272D01*
X029525Y038295D01*
X029514Y038313D01*
X029501Y038327D01*
X029486Y038337D01*
X029469Y038343D01*
X02945Y038345D01*
X02985D01*
X029831Y038343D01*
D02*
G37*
G36*
X026881Y038293D02*
X026864Y038287D01*
X026849Y038277D01*
X026836Y038263D01*
X026825Y038245D01*
X026816Y038222D01*
X026809Y038196D01*
X026806Y038179D01*
X026809Y038149D01*
X026816Y038115D01*
X026825Y038087D01*
X026836Y038063D01*
X026849Y038045D01*
X026864Y038032D01*
X02688Y038024D01*
X026899Y038021D01*
X026501D01*
X02652Y038024D01*
X026536Y038032D01*
X026551Y038045D01*
X026564Y038063D01*
X026575Y038087D01*
X026584Y038115D01*
X026591Y038149D01*
X026594Y038176D01*
X026591Y038196D01*
X026584Y038222D01*
X026575Y038245D01*
X026564Y038263D01*
X026551Y038277D01*
X026536Y038287D01*
X026519Y038293D01*
X0265Y038295D01*
X0269D01*
X026881Y038293D01*
D02*
G37*
G36*
X041003Y038341D02*
X040992Y038332D01*
X040982Y038317D01*
X040974Y038296D01*
X040966Y038269D01*
X04096Y038236D01*
X040956Y038197D01*
X040959Y03816D01*
X040966Y038116D01*
X040975Y038075D01*
X040986Y038038D01*
X040999Y038003D01*
X041014Y037971D01*
X041031Y037943D01*
X04105Y037917D01*
X04055D01*
X040569Y037943D01*
X040586Y037971D01*
X040601Y038003D01*
X040614Y038038D01*
X040625Y038075D01*
X040634Y038116D01*
X040641Y03816D01*
X040643Y038186D01*
X04064Y038236D01*
X040634Y038269D01*
X040626Y038296D01*
X040618Y038317D01*
X040608Y038332D01*
X040597Y038341D01*
X040585Y038344D01*
X041015D01*
X041003Y038341D01*
D02*
G37*
G36*
X038303D02*
X038292Y038332D01*
X038282Y038317D01*
X038274Y038296D01*
X038266Y038269D01*
X03826Y038236D01*
X038256Y038197D01*
X038259Y03816D01*
X038266Y038116D01*
X038275Y038075D01*
X038286Y038038D01*
X038299Y038003D01*
X038314Y037971D01*
X038331Y037943D01*
X03835Y037917D01*
X03785D01*
X037869Y037943D01*
X037886Y037971D01*
X037901Y038003D01*
X037914Y038038D01*
X037925Y038075D01*
X037934Y038116D01*
X037941Y03816D01*
X037943Y038186D01*
X03794Y038236D01*
X037934Y038269D01*
X037926Y038296D01*
X037918Y038317D01*
X037908Y038332D01*
X037897Y038341D01*
X037885Y038344D01*
X038315D01*
X038303Y038341D01*
D02*
G37*
G36*
X035603D02*
X035592Y038332D01*
X035582Y038317D01*
X035574Y038296D01*
X035566Y038269D01*
X03556Y038236D01*
X035556Y038197D01*
X035559Y03816D01*
X035566Y038116D01*
X035575Y038075D01*
X035586Y038038D01*
X035599Y038003D01*
X035614Y037971D01*
X035631Y037943D01*
X03565Y037917D01*
X03515D01*
X035169Y037943D01*
X035186Y037971D01*
X035201Y038003D01*
X035214Y038038D01*
X035225Y038075D01*
X035234Y038116D01*
X035241Y03816D01*
X035243Y038186D01*
X03524Y038236D01*
X035234Y038269D01*
X035226Y038296D01*
X035218Y038317D01*
X035208Y038332D01*
X035197Y038341D01*
X035185Y038344D01*
X035615D01*
X035603Y038341D01*
D02*
G37*
G36*
X030919Y03843D02*
X030927Y037915D01*
X0304Y037967D01*
X030404Y037976D01*
X030407Y037994D01*
X03041Y038022D01*
X030416Y038159D01*
X030419Y038469D01*
X030919Y03843D01*
D02*
G37*
G36*
X027969D02*
X027977Y037915D01*
X02745Y037967D01*
X027454Y037976D01*
X027457Y037994D01*
X02746Y038022D01*
X027466Y038159D01*
X027469Y038469D01*
X027969Y03843D01*
D02*
G37*
G36*
X042077Y037865D02*
X041523D01*
X041528Y03788D01*
X041532Y037903D01*
X041537Y037936D01*
X041543Y038028D01*
X04155Y038416D01*
X04205D01*
X042077Y037865D01*
D02*
G37*
G36*
X039369Y03838D02*
X039377Y037865D01*
X03885Y037917D01*
X038854Y037926D01*
X038857Y037944D01*
X03886Y037972D01*
X038866Y038109D01*
X038869Y038419D01*
X039369Y03838D01*
D02*
G37*
G36*
X036669D02*
X036677Y037865D01*
X036123D01*
X036131Y037886D01*
X036139Y037916D01*
X036146Y037953D01*
X036158Y038052D01*
X036165Y038183D01*
X036169Y03844D01*
X036669Y03838D01*
D02*
G37*
G36*
X033877Y037865D02*
X033323D01*
X033328Y03788D01*
X033332Y037903D01*
X033337Y037936D01*
X033343Y038028D01*
X03335Y038416D01*
X03385D01*
X033877Y037865D01*
D02*
G37*
G36*
X017212Y039304D02*
X017353Y039261D01*
X0175Y039246D01*
X017647Y039261D01*
X017746Y039291D01*
X017796Y039254D01*
Y037029D01*
X017759Y036996D01*
X0177Y037003D01*
X017153D01*
Y039286D01*
X017196Y039312D01*
X017212Y039304D01*
D02*
G37*
G36*
X042888Y034688D02*
X042987Y034607D01*
X0431Y034547D01*
X043223Y034509D01*
X04335Y034497D01*
X043928D01*
Y034295D01*
X04391Y034237D01*
X043897Y0341D01*
X04391Y033963D01*
X04395Y033831D01*
X043969Y033796D01*
X043943Y033753D01*
X042101D01*
X042098Y033759D01*
X042116Y033825D01*
X042191Y033865D01*
X042297Y033953D01*
X042385Y034059D01*
X04245Y034181D01*
X04249Y034313D01*
X042503Y03445D01*
Y03475D01*
X04249Y034887D01*
X04245Y035019D01*
X042449Y03502D01*
X042478Y035073D01*
X042501Y035076D01*
X042888Y034688D01*
D02*
G37*
G36*
X0401Y033753D02*
X039401D01*
X039398Y033759D01*
X039416Y033825D01*
X039491Y033865D01*
X039597Y033953D01*
X039685Y034059D01*
X03975Y034181D01*
X03979Y034313D01*
X039803Y03445D01*
Y03475D01*
X03979Y034887D01*
X03975Y035019D01*
X039731Y035054D01*
X039757Y035097D01*
X0401D01*
Y033753D01*
D02*
G37*
G36*
X0374D02*
X036701D01*
X036698Y033759D01*
X036716Y033825D01*
X036791Y033865D01*
X036897Y033953D01*
X036985Y034059D01*
X03705Y034181D01*
X03709Y034313D01*
X037103Y03445D01*
Y03475D01*
X03709Y034887D01*
X03705Y035019D01*
X037031Y035054D01*
X037057Y035097D01*
X0374D01*
Y033753D01*
D02*
G37*
G36*
X0347D02*
X033901D01*
X033898Y033759D01*
X033916Y033825D01*
X033991Y033865D01*
X034097Y033953D01*
X034185Y034059D01*
X03425Y034181D01*
X03429Y034313D01*
X034303Y03445D01*
Y03475D01*
X03429Y034887D01*
X03425Y035019D01*
X034231Y035054D01*
X034257Y035097D01*
X0347D01*
Y033753D01*
D02*
G37*
G36*
X0319D02*
X030719D01*
X030716Y033803D01*
X030787Y03381D01*
X030919Y03385D01*
X031041Y033915D01*
X031147Y034003D01*
X031235Y034109D01*
X0313Y034231D01*
X03134Y034363D01*
X031353Y0345D01*
Y0348D01*
X03134Y034937D01*
X031307Y035047D01*
X031337Y035097D01*
X0319D01*
Y033753D01*
D02*
G37*
G36*
X02895Y0338D02*
X02895D01*
X028942Y033753D01*
X027769D01*
X027766Y033803D01*
X027837Y03381D01*
X027969Y03385D01*
X028091Y033915D01*
X028197Y034003D01*
X028285Y034109D01*
X02835Y034231D01*
X02839Y034363D01*
X028403Y0345D01*
Y0348D01*
X02839Y034937D01*
X028357Y035047D01*
X028387Y035097D01*
X02895D01*
Y0338D01*
D02*
G37*
G36*
X0177Y0362D02*
X016Y0345D01*
Y0332D01*
X0146D01*
X01455Y03325D01*
Y0366D01*
X0177D01*
Y0362D01*
D02*
G37*
G36*
X040572Y032913D02*
X040567Y032894D01*
X040563Y032865D01*
X040557Y032779D01*
X04055Y0324D01*
X04025D01*
X040223Y032923D01*
X040577D01*
X040572Y032913D01*
D02*
G37*
G36*
X0365Y03285D02*
X036405Y032845D01*
X03632Y03283D01*
X036245Y032805D01*
X03618Y03277D01*
X036125Y032725D01*
X03608Y03267D01*
X036045Y032605D01*
X03602Y03253D01*
X036005Y032445D01*
X036Y03235D01*
X0355D01*
X035495Y032445D01*
X03548Y03253D01*
X035455Y032605D01*
X03542Y03267D01*
X035375Y032725D01*
X03532Y03277D01*
X035255Y032805D01*
X03518Y03283D01*
X035095Y032845D01*
X035Y03285D01*
X03575Y03335D01*
X0365Y03285D01*
D02*
G37*
G36*
X03795Y032122D02*
X037956Y032034D01*
X037959Y032018D01*
X037962Y032004D01*
X037966Y031993D01*
X03797Y031985D01*
X037975Y031979D01*
X037625D01*
X03763Y031985D01*
X037634Y031993D01*
X037638Y032004D01*
X037641Y032018D01*
X037644Y032034D01*
X037648Y032073D01*
X03765Y032122D01*
X03765Y03215D01*
X03795D01*
X03795Y032122D01*
D02*
G37*
G36*
X029777Y031927D02*
X029423D01*
X029428Y031937D01*
X029433Y031956D01*
X029437Y031985D01*
X029443Y032071D01*
X02945Y03245D01*
X02975D01*
X029777Y031927D01*
D02*
G37*
G36*
X04055Y031972D02*
X040556Y031884D01*
X040559Y031868D01*
X040562Y031854D01*
X040566Y031843D01*
X04057Y031835D01*
X040575Y031829D01*
X040225D01*
X04023Y031835D01*
X040234Y031843D01*
X040238Y031854D01*
X040241Y031868D01*
X040244Y031884D01*
X040248Y031923D01*
X04025Y031972D01*
X04025Y032D01*
X04055D01*
X04055Y031972D01*
D02*
G37*
G36*
X044301Y031801D02*
X044296Y03181D01*
X044281Y031819D01*
X044256Y031826D01*
X044221Y031832D01*
X044176Y031838D01*
X044056Y031846D01*
X043801Y03185D01*
Y03235D01*
X043896Y03235D01*
X044256Y032374D01*
X044281Y032381D01*
X044296Y03239D01*
X044301Y032399D01*
Y031801D01*
D02*
G37*
G36*
X045797Y032708D02*
Y031553D01*
X0453D01*
Y032474D01*
X045347Y032479D01*
X045469Y032516D01*
X045582Y032576D01*
X045681Y032657D01*
X045751Y032727D01*
X045797Y032708D01*
D02*
G37*
G36*
X039845Y032415D02*
Y031991D01*
X039797Y0319D01*
X039759Y031777D01*
X039747Y03165D01*
X039759Y031523D01*
X039797Y0314D01*
X039857Y031287D01*
X039938Y031188D01*
X039979Y031155D01*
X039981Y031105D01*
X038946Y03007D01*
X038865Y029971D01*
X038805Y029858D01*
X038797Y029832D01*
X038749Y029817D01*
X038695Y029861D01*
X038568Y029929D01*
X038429Y029971D01*
X038286Y029985D01*
X038142Y029971D01*
X038004Y029929D01*
X037877Y029861D01*
X037774Y029777D01*
X037741Y029772D01*
X037707Y029777D01*
X037604Y029861D01*
X037477Y029929D01*
X037339Y029971D01*
X037195Y029985D01*
X037052Y029971D01*
X036914Y029929D01*
X036786Y029861D01*
X036684Y029777D01*
X03665Y029772D01*
X036616Y029777D01*
X036514Y029861D01*
X036386Y029929D01*
X036248Y029971D01*
X036105Y029985D01*
X035961Y029971D01*
X035823Y029929D01*
X035696Y029861D01*
X035584Y02977D01*
X035535D01*
X035423Y029861D01*
X035296Y029929D01*
X035158Y029971D01*
X035014Y029985D01*
X034871Y029971D01*
X034732Y029929D01*
X034605Y029861D01*
X034494Y02977D01*
X034444D01*
X034333Y029861D01*
X034205Y029929D01*
X034067Y029971D01*
X033924Y029985D01*
X03378Y029971D01*
X033642Y029929D01*
X033613Y029914D01*
X033571Y029938D01*
X033566Y029982D01*
X033567Y030014D01*
X033567D01*
X033567Y030032D01*
Y030564D01*
X033717D01*
Y030993D01*
X033741Y031073D01*
X033753Y0312D01*
Y0319D01*
Y032447D01*
X034984D01*
X035049Y032443D01*
X035081Y032438D01*
X035086Y032436D01*
X035088Y032431D01*
X035093Y032399D01*
X035097Y032334D01*
Y0316D01*
X035109Y031473D01*
X035147Y03135D01*
X035207Y031237D01*
X035288Y031138D01*
X035387Y031057D01*
X0355Y030997D01*
X035623Y030959D01*
X03575Y030947D01*
X035877Y030959D01*
X036Y030997D01*
X036113Y031057D01*
X036212Y031138D01*
X036293Y031237D01*
X036353Y03135D01*
X036391Y031473D01*
X036403Y0316D01*
Y032334D01*
X036407Y032399D01*
X036412Y032431D01*
X036414Y032436D01*
X036419Y032438D01*
X036451Y032443D01*
X036516Y032447D01*
X037245D01*
Y032141D01*
X037197Y03205D01*
X037159Y031927D01*
X037147Y0318D01*
X037159Y031673D01*
X037197Y03155D01*
X037257Y031437D01*
X037338Y031338D01*
X037437Y031257D01*
X03755Y031197D01*
X037673Y031159D01*
X0378Y031147D01*
X037927Y031159D01*
X03805Y031197D01*
X038163Y031257D01*
X038262Y031338D01*
X038343Y031437D01*
X038403Y03155D01*
X038441Y031673D01*
X038453Y0318D01*
X038441Y031927D01*
X038403Y03205D01*
X038355Y032141D01*
Y032447D01*
X039844D01*
X039845Y032415D01*
D02*
G37*
G36*
X033316Y030581D02*
X033322Y030564D01*
X033332Y030549D01*
X033347Y030536D01*
X033365Y030525D01*
X033387Y030516D01*
X033413Y030509D01*
X033443Y030504D01*
X033477Y030501D01*
X033515Y0305D01*
Y0303D01*
X033477Y0303D01*
X033365Y030291D01*
X033347Y030287D01*
X033333Y030283D01*
X033323Y030278D01*
X033317Y030272D01*
X033315Y030265D01*
X033314Y0306D01*
X033316Y030581D01*
D02*
G37*
G36*
X016601Y029661D02*
X016602Y029644D01*
X016604Y029629D01*
X016608Y029616D01*
X016612Y029605D01*
X016618Y029596D01*
X016624Y029589D01*
X016632Y029584D01*
X01664Y029581D01*
X01665Y02958D01*
X01645D01*
X016459Y029581D01*
X016468Y029584D01*
X016475Y029589D01*
X016482Y029596D01*
X016487Y029605D01*
X016492Y029616D01*
X016495Y029629D01*
X016498Y029644D01*
X0165Y029661D01*
X0165Y029681D01*
X0166D01*
X016601Y029661D01*
D02*
G37*
G36*
X023145Y029755D02*
X023151Y02973D01*
X02316Y029705D01*
X023173Y029678D01*
X023189Y029649D01*
X023209Y029619D01*
X023233Y029588D01*
X023291Y029522D01*
X023326Y029487D01*
X02286D01*
X022895Y029522D01*
X022954Y029588D01*
X022977Y029619D01*
X022998Y029649D01*
X023014Y029678D01*
X023027Y029705D01*
X023036Y02973D01*
X023041Y029755D01*
X023043Y029778D01*
X023143D01*
X023145Y029755D01*
D02*
G37*
G36*
X022055D02*
X02206Y02973D01*
X022069Y029705D01*
X022082Y029678D01*
X022098Y029649D01*
X022119Y029619D01*
X022142Y029588D01*
X022201Y029522D01*
X022236Y029487D01*
X02177D01*
X021805Y029522D01*
X021863Y029588D01*
X021887Y029619D01*
X021907Y029649D01*
X021923Y029678D01*
X021936Y029705D01*
X021945Y02973D01*
X021951Y029755D01*
X021953Y029778D01*
X022053D01*
X022055Y029755D01*
D02*
G37*
G36*
X020964D02*
X02097Y02973D01*
X020979Y029705D01*
X020991Y029678D01*
X021008Y029649D01*
X021028Y029619D01*
X021052Y029588D01*
X02111Y029522D01*
X021145Y029487D01*
X020679D01*
X020714Y029522D01*
X020773Y029588D01*
X020796Y029619D01*
X020816Y029649D01*
X020833Y029678D01*
X020846Y029705D01*
X020855Y02973D01*
X02086Y029755D01*
X020862Y029778D01*
X020962D01*
X020964Y029755D01*
D02*
G37*
G36*
X019873D02*
X019879Y02973D01*
X019888Y029705D01*
X019901Y029678D01*
X019917Y029649D01*
X019937Y029619D01*
X019961Y029588D01*
X02002Y029522D01*
X020055Y029487D01*
X019589D01*
X019624Y029522D01*
X019682Y029588D01*
X019706Y029619D01*
X019726Y029649D01*
X019742Y029678D01*
X019755Y029705D01*
X019764Y02973D01*
X01977Y029755D01*
X019772Y029778D01*
X019872D01*
X019873Y029755D01*
D02*
G37*
G36*
X018783D02*
X018788Y02973D01*
X018798Y029705D01*
X01881Y029678D01*
X018827Y029649D01*
X018847Y029619D01*
X018871Y029588D01*
X018929Y029522D01*
X018964Y029487D01*
X018498D01*
X018533Y029522D01*
X018591Y029588D01*
X018615Y029619D01*
X018635Y029649D01*
X018652Y029678D01*
X018665Y029705D01*
X018674Y02973D01*
X018679Y029755D01*
X018681Y029778D01*
X018781D01*
X018783Y029755D01*
D02*
G37*
G36*
X0177Y029776D02*
X017702Y029754D01*
X017707Y029729D01*
X017716Y029704D01*
X017729Y029676D01*
X017745Y029648D01*
X017765Y029617D01*
X017788Y029585D01*
X017846Y029517D01*
X01788Y02948D01*
X017415Y029493D01*
X01745Y029527D01*
X017509Y029591D01*
X017533Y029621D01*
X017554Y029651D01*
X01757Y029679D01*
X017583Y029705D01*
X017593Y029731D01*
X017598Y029756D01*
X0176Y029779D01*
X0177Y029776D01*
D02*
G37*
G36*
X0246Y02905D02*
X02405D01*
X0239Y02915D01*
Y0315D01*
X0246D01*
Y02905D01*
D02*
G37*
G36*
X038932Y028618D02*
X038936Y028589D01*
X038943Y02856D01*
X038952Y028532D01*
X038964Y028504D01*
X038979Y028476D01*
X038996Y028449D01*
X039016Y028422D01*
X039039Y028395D01*
X039064Y028369D01*
X038598D01*
X038623Y028395D01*
X038646Y028422D01*
X038666Y028449D01*
X038683Y028476D01*
X038698Y028504D01*
X03871Y028532D01*
X038719Y02856D01*
X038726Y028589D01*
X03873Y028618D01*
X038731Y028648D01*
X038931D01*
X038932Y028618D01*
D02*
G37*
G36*
X0226Y028637D02*
X022605Y028612D01*
X022614Y028587D01*
X022627Y028559D01*
X022644Y028531D01*
X022664Y028501D01*
X022688Y02847D01*
X022746Y028404D01*
X022781Y028369D01*
X022315D01*
X02235Y028404D01*
X022408Y02847D01*
X022432Y028501D01*
X022452Y028531D01*
X022469Y028559D01*
X022482Y028587D01*
X022491Y028612D01*
X022496Y028637D01*
X022498Y02866D01*
X022598D01*
X0226Y028637D01*
D02*
G37*
G36*
X021509D02*
X021515Y028612D01*
X021524Y028587D01*
X021537Y028559D01*
X021553Y028531D01*
X021573Y028501D01*
X021597Y02847D01*
X021656Y028404D01*
X02169Y028369D01*
X021225D01*
X021259Y028404D01*
X021318Y02847D01*
X021342Y028501D01*
X021362Y028531D01*
X021378Y028559D01*
X021391Y028587D01*
X0214Y028612D01*
X021406Y028637D01*
X021407Y02866D01*
X021507D01*
X021509Y028637D01*
D02*
G37*
G36*
X019328D02*
X019334Y028612D01*
X019343Y028587D01*
X019356Y028559D01*
X019372Y028531D01*
X019392Y028501D01*
X019416Y02847D01*
X019475Y028404D01*
X019509Y028369D01*
X019044D01*
X019078Y028404D01*
X019137Y02847D01*
X019161Y028501D01*
X019181Y028531D01*
X019197Y028559D01*
X01921Y028587D01*
X019219Y028612D01*
X019225Y028637D01*
X019226Y02866D01*
X019326D01*
X019328Y028637D01*
D02*
G37*
G36*
X018238D02*
X018243Y028612D01*
X018252Y028587D01*
X018265Y028559D01*
X018282Y028531D01*
X018302Y028501D01*
X018325Y02847D01*
X018384Y028404D01*
X018419Y028369D01*
X017953D01*
X017988Y028404D01*
X018046Y02847D01*
X01807Y028501D01*
X01809Y028531D01*
X018107Y028559D01*
X018119Y028587D01*
X018129Y028612D01*
X018134Y028637D01*
X018136Y02866D01*
X018236D01*
X018238Y028637D01*
D02*
G37*
G36*
X017147D02*
X017153Y028612D01*
X017162Y028587D01*
X017175Y028559D01*
X017191Y028531D01*
X017211Y028501D01*
X017235Y02847D01*
X017293Y028404D01*
X017328Y028369D01*
X016862D01*
X016897Y028404D01*
X016956Y02847D01*
X016979Y028501D01*
X017Y028531D01*
X017016Y028559D01*
X017029Y028587D01*
X017038Y028612D01*
X017043Y028637D01*
X017045Y02866D01*
X017145D01*
X017147Y028637D01*
D02*
G37*
G36*
X02045Y028653D02*
X020452Y028631D01*
X020457Y028608D01*
X020466Y028582D01*
X020478Y028554D01*
X020493Y028525D01*
X020512Y028493D01*
X02056Y028423D01*
X020622Y028344D01*
X020159Y028391D01*
X020195Y028421D01*
X020256Y02848D01*
X020281Y028508D01*
X020302Y028535D01*
X020319Y028562D01*
X020333Y028588D01*
X020342Y028614D01*
X020348Y028639D01*
X02035Y028663D01*
X02045Y028653D01*
D02*
G37*
G36*
X021633Y059508D02*
X021616Y059488D01*
X021601Y059468D01*
X021588Y059448D01*
X021577Y059427D01*
X021568Y059406D01*
X021561Y059384D01*
X021556Y059362D01*
X021553Y059341D01*
X021552Y059318D01*
X021402D01*
X021401Y059341D01*
X021398Y059362D01*
X021393Y059384D01*
X021386Y059406D01*
X021377Y059427D01*
X021366Y059448D01*
X021353Y059468D01*
X021338Y059488D01*
X021321Y059508D01*
X021302Y059528D01*
X021652D01*
X021633Y059508D01*
D02*
G37*
G36*
X021552Y056348D02*
X021553Y056328D01*
X021555Y056307D01*
X021559Y056285D01*
X021564Y056263D01*
X021577Y056217D01*
X021586Y056192D01*
X021609Y056142D01*
X021622Y056116D01*
X021289Y056224D01*
X02131Y056236D01*
X02133Y056249D01*
X021347Y056263D01*
X021362Y056279D01*
X021374Y056296D01*
X021384Y056314D01*
X021392Y056334D01*
X021398Y056355D01*
X021401Y056377D01*
X021402Y0564D01*
X021552Y056348D01*
D02*
G37*
G36*
X013385Y06377D02*
X013393Y063766D01*
X013404Y063762D01*
X013418Y063759D01*
X013434Y063756D01*
X013473Y063752D01*
X013522Y06375D01*
X01355Y06375D01*
Y06345D01*
X013522Y06345D01*
X013434Y063444D01*
X013418Y063441D01*
X013404Y063438D01*
X013393Y063434D01*
X013385Y06343D01*
X013379Y063425D01*
Y063775D01*
X013385Y06377D01*
D02*
G37*
G36*
X041403Y056741D02*
X041411Y056691D01*
X041424Y056641D01*
X041443Y05659D01*
X041467Y056539D01*
X041497Y056488D01*
X041532Y056436D01*
X041573Y056384D01*
X041619Y056331D01*
X04167Y056278D01*
X04083D01*
X040881Y056331D01*
X040968Y056436D01*
X041003Y056488D01*
X041033Y056539D01*
X041057Y05659D01*
X041076Y056641D01*
X041089Y056691D01*
X041097Y056741D01*
X0411Y056791D01*
X0414D01*
X041403Y056741D01*
D02*
G37*
G36*
X057207Y044946D02*
X057225Y044937D01*
X057244Y044928D01*
X057264Y044921D01*
X057285Y044914D01*
X057306Y044909D01*
X057328Y044905D01*
X057351Y044902D01*
X0574Y0449D01*
X057445Y0447D01*
X05742Y044699D01*
X057396Y044697D01*
X057374Y044692D01*
X057353Y044686D01*
X057334Y044679D01*
X057316Y044669D01*
X0573Y044658D01*
X057285Y044645D01*
X057272Y044631D01*
X05726Y044614D01*
X05705Y04482D01*
X05684Y044614D01*
X056828Y044631D01*
X056815Y044645D01*
X0568Y044658D01*
X056784Y044669D01*
X056766Y044679D01*
X056747Y044686D01*
X056726Y044692D01*
X056704Y044697D01*
X05668Y044699D01*
X056655Y0447D01*
X0567Y0449D01*
X056749Y044902D01*
X056772Y044905D01*
X056794Y044909D01*
X056815Y044914D01*
X056836Y044921D01*
X056856Y044928D01*
X056875Y044937D01*
X056893Y044946D01*
X05691Y044957D01*
X05705Y04482D01*
X05719Y044957D01*
X057207Y044946D01*
D02*
G37*
G36*
X054957D02*
X054975Y044937D01*
X054994Y044928D01*
X055014Y044921D01*
X055035Y044914D01*
X055056Y044909D01*
X055078Y044905D01*
X055101Y044902D01*
X05515Y0449D01*
X055195Y0447D01*
X05517Y044699D01*
X055146Y044697D01*
X055124Y044692D01*
X055103Y044686D01*
X055084Y044679D01*
X055066Y044669D01*
X05505Y044658D01*
X055035Y044645D01*
X055022Y044631D01*
X05501Y044614D01*
X0548Y04482D01*
X05459Y044614D01*
X054578Y044631D01*
X054565Y044645D01*
X05455Y044658D01*
X054534Y044669D01*
X054516Y044679D01*
X054497Y044686D01*
X054476Y044692D01*
X054454Y044697D01*
X05443Y044699D01*
X054405Y0447D01*
X05445Y0449D01*
X054499Y044902D01*
X054522Y044905D01*
X054544Y044909D01*
X054565Y044914D01*
X054586Y044921D01*
X054606Y044928D01*
X054625Y044937D01*
X054643Y044946D01*
X05466Y044957D01*
X0548Y04482D01*
X05494Y044957D01*
X054957Y044946D01*
D02*
G37*
G36*
X0627Y0441D02*
X0595D01*
Y0455D01*
X0627D01*
Y0441D01*
D02*
G37*
G36*
X053151Y040904D02*
X053153Y04088D01*
X053157Y040858D01*
X053162Y040836D01*
X053169Y040815D01*
X053177Y040796D01*
X053187Y040777D01*
X053198Y04076D01*
X053211Y040744D01*
X053225Y040729D01*
X052875D01*
X052889Y040744D01*
X052902Y04076D01*
X052913Y040777D01*
X052923Y040796D01*
X052931Y040815D01*
X052938Y040836D01*
X052943Y040858D01*
X052947Y04088D01*
X052949Y040904D01*
X05295Y040929D01*
X05315D01*
X053151Y040904D01*
D02*
G37*
G36*
X067351Y038104D02*
X067353Y03808D01*
X067357Y038058D01*
X067362Y038036D01*
X067369Y038015D01*
X067377Y037996D01*
X067387Y037977D01*
X067398Y03796D01*
X067411Y037944D01*
X067425Y037929D01*
X067075D01*
X067089Y037944D01*
X067102Y03796D01*
X067113Y037977D01*
X067123Y037996D01*
X067131Y038015D01*
X067138Y038036D01*
X067143Y038058D01*
X067147Y03808D01*
X067149Y038104D01*
X06715Y038129D01*
X06735D01*
X067351Y038104D01*
D02*
G37*
G36*
X05851Y040093D02*
X058482Y040111D01*
X058403Y040155D01*
X058379Y040166D01*
X058357Y040174D01*
X058335Y040181D01*
X058314Y040186D01*
X058294Y040189D01*
X058275Y04019D01*
X05825Y04031D01*
X058272Y040311D01*
X058293Y040315D01*
X058313Y040321D01*
X058333Y04033D01*
X058352Y040341D01*
X058371Y040355D01*
X058389Y040372D01*
X058406Y04039D01*
X058424Y040412D01*
X05844Y040436D01*
X05851Y040093D01*
D02*
G37*
G36*
X056601Y040374D02*
X056714Y04033D01*
X056738Y040323D01*
X05678Y040313D01*
X056798Y040311D01*
X056814Y04031D01*
X056861Y04019D01*
X056839Y040189D01*
X056818Y040185D01*
X056798Y040178D01*
X05678Y040169D01*
X056762Y040158D01*
X056746Y040144D01*
X05673Y040127D01*
X056716Y040107D01*
X056703Y040086D01*
X056691Y040061D01*
X056568Y040389D01*
X056601Y040374D01*
D02*
G37*
G36*
X057712Y039516D02*
X057679Y039528D01*
X057555Y039564D01*
X057527Y03957D01*
X057474Y039577D01*
X057449Y039579D01*
X057425Y03958D01*
X057405Y0397D01*
X057427Y039701D01*
X057448Y039705D01*
X057468Y039712D01*
X057485Y039721D01*
X057502Y039732D01*
X057517Y039746D01*
X057531Y039763D01*
X057543Y039782D01*
X057553Y039804D01*
X057563Y039829D01*
X057712Y039516D01*
D02*
G37*
G36*
X055907Y039795D02*
X055928Y039775D01*
X055949Y039758D01*
X05597Y039742D01*
X055991Y039729D01*
X056012Y039719D01*
X056033Y039711D01*
X056054Y039705D01*
X056074Y039701D01*
X056095Y0397D01*
X05609Y03958D01*
X05607Y039579D01*
X056049Y039576D01*
X056028Y03957D01*
X056007Y039562D01*
X055986Y039552D01*
X055963Y03954D01*
X055941Y039525D01*
X055918Y039508D01*
X055895Y039489D01*
X055871Y039468D01*
X055885Y039818D01*
X055907Y039795D01*
D02*
G37*
D16*
X021477Y056077D02*
Y059707D01*
X0214Y056D02*
X021477Y056077D01*
D19*
X017291Y0535D02*
G03*
X01705Y0534I0J-000341D01*
G01*
X01725Y0525D02*
G03*
X016823Y052323I0J-000604D01*
G01*
X017247Y0515D02*
G03*
X016825Y051325I0J-000597D01*
G01*
X01725Y0495D02*
G03*
X016823Y049323I0J-000604D01*
G01*
X017943Y033893D02*
G03*
X01765Y033186I000707J-000707D01*
G01*
X01885Y0348D02*
G03*
X01905Y035283I-000483J000483D01*
G01*
X016843Y034643D02*
G03*
X01655Y033936I000707J-000707D01*
G01*
X017388Y034388D02*
G03*
X017095Y033681I000707J-000707D01*
G01*
X01845Y0335D02*
G03*
X018186Y032862I000638J-000638D01*
G01*
X019024Y033274D02*
G03*
X018731Y032567I000707J-000707D01*
G01*
X0195Y03295D02*
G03*
X019276Y03241I00054J-000539D01*
G01*
X020025Y032575D02*
G03*
X019822Y032084I000491J-000491D01*
G01*
X020575Y032575D02*
G03*
X0204Y032153I000423J-000422D01*
G01*
X021175Y032625D02*
G03*
X020912Y031991I000635J-000634D01*
G01*
X02175Y03235D02*
G03*
X021457Y031643I000707J-000707D01*
G01*
X022175Y032025D02*
G03*
X022003Y031609I000416J-000416D01*
G01*
X022675Y031725D02*
G03*
X022548Y031418I000307J-000307D01*
G01*
X02335Y0312D02*
G03*
X0235Y031562I-000362J000362D01*
G01*
X023221Y031071D02*
G03*
X023093Y030762I00031J-00031D01*
G01*
X023222Y031072D02*
G03*
X023221Y031071I00031J-00031D01*
G01*
X022803Y031853D02*
G03*
X02305Y03245I-000598J000597D01*
G01*
X022523Y032373D02*
G03*
X0227Y0328I-000427J000427D01*
G01*
X0221Y0327D02*
G03*
X02225Y033062I-000362J000362D01*
G01*
X0217Y03315D02*
G03*
X0219Y033633I-000483J000483D01*
G01*
X021275Y033275D02*
G03*
X02145Y033697I-000423J000422D01*
G01*
X020775Y033325D02*
G03*
X021Y033868I-000543J000543D01*
G01*
X020175Y033625D02*
G03*
X02045Y034289I-000664J000664D01*
G01*
X019625Y033875D02*
G03*
X0199Y034539I-000664J000664D01*
G01*
X019175Y034225D02*
G03*
X0194Y034768I-000543J000543D01*
G01*
X01845Y03545D02*
G03*
X0187Y036054I-000604J000603D01*
G01*
X017957Y035757D02*
G03*
X01825Y036464I-000707J000707D01*
G01*
Y04575D02*
G03*
X018Y046I-00025J0D01*
G01*
X0187Y0466D02*
G03*
X0183Y047I-0004J0D01*
G01*
X018553Y047897D02*
G03*
X0185Y0479I-000053J-000547D01*
G01*
X019047Y047403D02*
G03*
X018553Y047897I-000547J-000053D01*
G01*
X01905Y04735D02*
G03*
X019047Y047403I-00055J0D01*
G01*
X0194Y04825D02*
G03*
X01865Y049I-00075J0D01*
G01*
X0199Y04895D02*
G03*
X01935Y0495I-00055J0D01*
G01*
X020063Y049987D02*
G03*
X01995Y05I-000113J-000487D01*
G01*
X020437Y049613D02*
G03*
X020063Y049987I-000487J-000113D01*
G01*
X02045Y0495D02*
G03*
X020437Y049613I-0005J0D01*
G01*
X021Y0503D02*
G03*
X0204Y0509I-0006J0D01*
G01*
X02145Y05085D02*
G03*
X0208Y0515I-00065J0D01*
G01*
X0219Y051D02*
G03*
X0209Y052I-001J0D01*
G01*
X02225Y0515D02*
G03*
X02125Y0525I-001J0D01*
G01*
X0227Y052D02*
G03*
X0217Y053I-001J0D01*
G01*
X02305Y0525D02*
G03*
X02205Y0535I-001J0D01*
G01*
X0235Y0529D02*
G03*
X0225Y0539I-001J0D01*
G01*
X0235Y031562D02*
Y0529D01*
X01665Y053D02*
X01705Y0534D01*
X017291Y0535D02*
X02205D01*
X01725Y0525D02*
X02125D01*
X0165Y052D02*
X016823Y052323D01*
X0165Y051D02*
X016825Y051325D01*
X017247Y0515D02*
X0208D01*
X0165Y049D02*
X016823Y049323D01*
X01725Y0495D02*
X01935D01*
X01765Y029259D02*
Y033186D01*
X017943Y033893D02*
X01885Y0348D01*
X01905Y035283D02*
Y04735D01*
X016843Y034643D02*
X017957Y035757D01*
X01655Y029249D02*
Y033936D01*
X017388Y034388D02*
X01845Y03545D01*
X017095Y028131D02*
Y033681D01*
X01845Y0335D02*
X019175Y034225D01*
X018186Y028131D02*
Y032862D01*
X019024Y033274D02*
X019625Y033875D01*
X018731Y029249D02*
Y032567D01*
X0195Y03295D02*
X020175Y033625D01*
X019276Y028131D02*
Y03241D01*
X020025Y032575D02*
X020775Y033325D01*
X019822Y029249D02*
Y032084D01*
X020575Y032575D02*
X021275Y033275D01*
X0204Y028164D02*
Y032153D01*
X021175Y032625D02*
X0217Y03315D01*
X020912Y029249D02*
Y031991D01*
X02175Y03235D02*
X0221Y0327D01*
X021457Y028131D02*
Y031643D01*
X022003Y029249D02*
Y031609D01*
X022175Y032025D02*
X022523Y032373D01*
X022675Y031725D02*
X022803Y031853D01*
X022548Y028131D02*
Y031418D01*
X02335Y0312D02*
X02335Y0312D01*
X023222Y031072D02*
X02335Y0312D01*
X023093Y029249D02*
Y030762D01*
X02305Y03245D02*
Y0525D01*
X0227Y0328D02*
Y052D01*
X02225Y033062D02*
Y0515D01*
X0219Y033633D02*
Y051D01*
X02145Y033697D02*
Y05085D01*
X021Y033868D02*
Y0503D01*
X02045Y034289D02*
Y0495D01*
X0199Y034539D02*
Y04895D01*
X0194Y034768D02*
Y04825D01*
X0187Y036054D02*
Y0466D01*
X01825Y036464D02*
Y04575D01*
X0175Y046D02*
X018D01*
X0175Y047D02*
X0183D01*
X0176Y0479D02*
X0185D01*
X0175Y049D02*
X01865D01*
X0175Y05D02*
X01995D01*
X0176Y0509D02*
X0204D01*
X0175Y052D02*
X0209D01*
X0175Y053D02*
X0217D01*
X0176Y0539D02*
X0225D01*
X0175Y054D02*
X0176Y0539D01*
X0165Y053D02*
X01665D01*
X017641Y029249D02*
X01765Y029259D01*
X020367Y028131D02*
X0204Y028164D01*
X0175Y051D02*
X0176Y0509D01*
X0175Y048D02*
X0176Y0479D01*
D23*
X0331Y0312D02*
D03*
Y0305D02*
D03*
X02855Y04065D02*
D03*
Y04135D02*
D03*
X034275Y04065D02*
D03*
Y04135D02*
D03*
X0402Y04065D02*
D03*
Y04135D02*
D03*
X0296Y03115D02*
D03*
Y03045D02*
D03*
X0263Y03115D02*
D03*
Y03045D02*
D03*
X04455Y03515D02*
D03*
Y03585D02*
D03*
X0364Y04635D02*
D03*
Y04705D02*
D03*
X03645Y03855D02*
D03*
Y03925D02*
D03*
X0335Y04635D02*
D03*
Y04705D02*
D03*
X0336Y0385D02*
D03*
Y0392D02*
D03*
X0306Y0463D02*
D03*
Y047D02*
D03*
X0307Y0385D02*
D03*
Y0392D02*
D03*
X02785Y0463D02*
D03*
Y047D02*
D03*
X0418Y03855D02*
D03*
Y03925D02*
D03*
X03915Y04635D02*
D03*
Y04705D02*
D03*
X0392Y0385D02*
D03*
Y0392D02*
D03*
X02775Y0385D02*
D03*
Y0392D02*
D03*
D25*
X02675Y04625D02*
D03*
Y04705D02*
D03*
X02955Y04625D02*
D03*
Y04705D02*
D03*
X03245Y0463D02*
D03*
Y0471D02*
D03*
X03535Y0463D02*
D03*
Y0471D02*
D03*
X0381Y04635D02*
D03*
Y04715D02*
D03*
X0408Y0385D02*
D03*
Y0393D02*
D03*
X0381Y0385D02*
D03*
Y0393D02*
D03*
X0354Y0385D02*
D03*
Y0393D02*
D03*
X03255Y0384D02*
D03*
Y0392D02*
D03*
X02965Y0385D02*
D03*
Y0393D02*
D03*
X0267Y03845D02*
D03*
Y03925D02*
D03*
D69*
X0175Y056D02*
D03*
X0175Y059D02*
D03*
X0165Y055D02*
D03*
X0175Y055D02*
D03*
X0165Y056D02*
D03*
X0165Y057D02*
D03*
X0165Y058D02*
D03*
X0175Y058D02*
D03*
X0175Y057D02*
D03*
X0175Y054D02*
D03*
X0165Y053D02*
D03*
X0175D02*
D03*
X0165Y052D02*
D03*
X0175D02*
D03*
X0165Y051D02*
D03*
X0175D02*
D03*
X0165Y05D02*
D03*
X0175D02*
D03*
X0165Y049D02*
D03*
X0175D02*
D03*
X0165Y048D02*
D03*
X0175D02*
D03*
X0165Y047D02*
D03*
X0175D02*
D03*
X0165Y054D02*
D03*
Y046D02*
D03*
X0175D02*
D03*
X0165Y045D02*
D03*
X0175D02*
D03*
X0165Y044D02*
D03*
X0175D02*
D03*
X0165Y043D02*
D03*
X0175D02*
D03*
X0165Y042D02*
D03*
X0175D02*
D03*
X0165Y041D02*
D03*
X0175D02*
D03*
X0165Y04D02*
D03*
X0175D02*
D03*
D70*
X0165Y059D02*
D03*
D77*
X032581Y038369D02*
G03*
X03255Y0384I-000031J0D01*
G01*
X024Y03755D02*
G03*
X025Y03655I001J0D01*
G01*
X025179Y03575D02*
G03*
X024179Y03475I0J-001D01*
G01*
X042314Y0321D02*
G03*
X041607Y031807I0J-001D01*
G01*
X03915Y045881D02*
G03*
X0391Y045831I0J-00005D01*
G01*
X04085Y0433D02*
G03*
X03995Y0442I-0009J0D01*
G01*
X0402Y04135D02*
G03*
X04085Y042I0J00065D01*
G01*
X04555Y03965D02*
G03*
X04455Y04065I-001J0D01*
G01*
X0475Y049186D02*
G03*
X047207Y049893I-001J0D01*
G01*
X04645Y048136D02*
G03*
X046157Y048843I-001J0D01*
G01*
X032581Y037619D02*
Y038369D01*
X025Y03655D02*
X0276D01*
X025179Y03575D02*
X04275D01*
X024179Y029251D02*
Y03475D01*
X04275Y03575D02*
X04335Y03515D01*
X0263Y03115D02*
Y0318D01*
Y032807D01*
X026593Y0331D02*
X0297D01*
X0263Y032807D02*
X026593Y0331D01*
X039408Y029608D02*
X041607Y031807D01*
X042314Y0321D02*
X0446D01*
X024Y03755D02*
Y04315D01*
X0391Y0442D02*
X03995D01*
X03595D02*
X0391D01*
Y0454D02*
Y045831D01*
Y0442D02*
Y0454D01*
X03915Y045881D02*
Y04635D01*
X0165Y055D02*
Y057D01*
X03615Y03655D02*
X03915D01*
X0165Y057D02*
Y059D01*
X0304Y03655D02*
X0333D01*
X0303Y0442D02*
X033D01*
X04085Y042D02*
Y0433D01*
X034275Y04135D02*
X0402D01*
Y04065D02*
X04455D01*
X04555Y03345D02*
Y03965D01*
X04605Y05105D02*
X047207Y049893D01*
X0475Y0309D02*
Y049186D01*
X0416Y0534D02*
X046157Y048843D01*
X04645Y031193D02*
Y048136D01*
X03315Y0331D02*
X03575D01*
X0297D02*
X03315D01*
X0331Y0319D02*
Y03305D01*
X03315Y0331D01*
X044581Y034119D02*
Y035119D01*
X04335Y03515D02*
X04455D01*
X044581Y035119D01*
X041557Y03655D02*
X044257D01*
X04455Y03585D02*
Y036257D01*
X044257Y03655D02*
X04455Y036257D01*
X034275Y04065D02*
X0357D01*
X03285D02*
X034275D01*
X02855D02*
X02985D01*
X03845D02*
X0402D01*
X0277D02*
X02855D01*
X024831Y028131D02*
X0255Y0288D01*
Y02965D02*
X0263Y03045D01*
X0255Y0288D02*
Y02965D01*
X0296Y03045D02*
X03305D01*
X0263D02*
X0296D01*
X0331Y0312D02*
Y0319D01*
X0296Y03115D02*
Y03175D01*
X02855Y04135D02*
X034275D01*
X0404Y0331D02*
X0446D01*
X03785D02*
X0404D01*
X03575D02*
X03785D01*
X03575Y0316D02*
Y0331D01*
X0276Y03655D02*
X0304D01*
X0277Y03665D02*
Y03765D01*
X0276Y03655D02*
X0277Y03665D01*
X03915Y03655D02*
X041557D01*
X0391Y0376D02*
X039119Y037581D01*
Y036581D02*
Y037581D01*
Y036581D02*
X03915Y03655D01*
X0418Y0376D02*
X041819Y037581D01*
Y037288D02*
Y037581D01*
Y037288D02*
X04185Y037257D01*
Y036843D02*
Y037257D01*
X041557Y03655D02*
X04185Y036843D01*
X01285Y05905D02*
Y05955D01*
Y05D02*
Y05905D01*
X01645D02*
X0165Y059D01*
X01285Y05905D02*
X01645D01*
X01425Y06095D02*
X0206D01*
X01285Y05955D02*
X01425Y06095D01*
X0165Y055D02*
X0165Y055D01*
X0165Y059D02*
X0165Y059D01*
X01285Y048D02*
Y05D01*
X0165D01*
X01285Y03575D02*
Y048D01*
X0165D01*
Y047D02*
Y048D01*
Y046D02*
Y047D01*
X05345Y04735D02*
X05815D01*
X0206Y06095D02*
X02255D01*
X01285Y03575D02*
X0131Y0355D01*
X044619Y033119D02*
X045219D01*
X0446Y0331D02*
X044619Y033119D01*
X045219D02*
X04555Y03345D01*
X0357Y04065D02*
X03845D01*
X03495Y0399D02*
X0357Y04065D01*
X02985D02*
X03285D01*
X03205Y03985D02*
X03285Y04065D01*
X03205Y0398D02*
Y03985D01*
X02915Y03995D02*
X02985Y04065D01*
X02705Y04D02*
X0277Y04065D01*
X0377Y0399D02*
X03845Y04065D01*
X039953Y028163D02*
X040613D01*
X0425Y03005D02*
X04665D01*
X040613Y028163D02*
X0425Y03005D01*
X04665D02*
X0475Y0309D01*
X042111D02*
X046157D01*
X04645Y031193D01*
X0165Y04D02*
X0175D01*
X029569Y046169D02*
X02965Y04625D01*
X024Y04315D02*
Y0595D01*
X02255Y06095D02*
X024Y0595D01*
X028062Y0442D02*
X0303D01*
X02505D02*
X028062D01*
X024Y04315D02*
X02505Y0442D01*
X023639Y028131D02*
X024831D01*
X030569Y046269D02*
X0306Y0463D01*
X030569Y045369D02*
Y046269D01*
X03055Y04535D02*
X030569Y045369D01*
X029569D02*
Y046169D01*
X02955Y04535D02*
X029569Y045369D01*
X02955Y04625D02*
X02965D01*
X027769Y046219D02*
X02785Y0463D01*
X027769Y045369D02*
Y046219D01*
X02775Y04535D02*
X027769Y045369D01*
X02675Y04535D02*
Y04625D01*
X036369Y046319D02*
X0364Y04635D01*
X036369Y045419D02*
Y046319D01*
X03635Y0454D02*
X036369Y045419D01*
X033469Y046319D02*
X0335Y04635D01*
X033469Y045419D02*
Y046319D01*
X03345Y0454D02*
X033469Y045419D01*
X03245Y0454D02*
Y0463D01*
X032581Y037619D02*
X0326Y0376D01*
X044581Y034119D02*
X0446Y0341D01*
X0418Y0376D02*
Y03855D01*
X039119Y038419D02*
X0392Y0385D01*
X039119Y037619D02*
Y038419D01*
X0391Y0376D02*
X039119Y037619D01*
X036419Y038519D02*
X03645Y03855D01*
X036419Y037619D02*
Y038519D01*
X0364Y0376D02*
X036419Y037619D01*
X0336Y0376D02*
Y0385D01*
X030669Y038469D02*
X0307Y0385D01*
X030669Y037669D02*
Y038469D01*
X03065Y03765D02*
X030669Y037669D01*
X027719Y038469D02*
X02775Y0385D01*
X027719Y037669D02*
Y038469D01*
X0277Y03765D02*
X027719Y037669D01*
X030531Y045331D02*
X03055Y04535D01*
X030531Y044431D02*
Y045331D01*
X0303Y0442D02*
X030531Y044431D01*
X033Y0442D02*
X03595D01*
X03345Y045223D02*
Y0454D01*
X033Y044773D02*
X03345Y045223D01*
X033Y0442D02*
Y044773D01*
X036331Y045381D02*
X03635Y0454D01*
X036331Y044581D02*
Y045381D01*
X03595Y0442D02*
X036331Y044581D01*
X027769Y044493D02*
Y045331D01*
Y044493D02*
X028062Y0442D01*
X02775Y04535D02*
X027769Y045331D01*
X030631Y037631D02*
X03065Y03765D01*
X030631Y036781D02*
Y037631D01*
X0304Y03655D02*
X030631Y036781D01*
X0333Y03655D02*
X03615D01*
X033581Y037581D02*
X0336Y0376D01*
X033581Y036831D02*
Y037581D01*
X0333Y03655D02*
X033581Y036831D01*
X036381Y037581D02*
X0364Y0376D01*
X036381Y036781D02*
Y037581D01*
X03615Y03655D02*
X036381Y036781D01*
X01585Y03575D02*
Y0359D01*
X0165Y03655D01*
Y04D01*
X039376Y029249D02*
X039408Y029281D01*
Y029608D01*
X039922Y028131D02*
X039953Y028163D01*
X04025Y05345D02*
X0403Y0534D01*
X0416D01*
X040462Y029251D02*
X042111Y0309D01*
D78*
X0545Y0303D02*
D03*
X069726Y030074D02*
D03*
X053275Y030525D02*
D03*
D79*
X056774Y029702D02*
G03*
X056481Y030409I-001J0D01*
G01*
X054593Y030077D02*
G03*
X0545Y0303I-000316J0D01*
G01*
X072323Y0287D02*
G03*
X072625Y028825I0J000427D01*
G01*
X073071Y029271D02*
G03*
X0733Y029823I-000552J000552D01*
G01*
Y031486D02*
G03*
X073007Y032193I-001J0D01*
G01*
X0702Y035414D02*
G03*
X070493Y034707I001J0D01*
G01*
X0718Y0431D02*
G03*
X07155Y04285I0J-00025D01*
G01*
X073256Y044956D02*
G03*
X0733Y04515I-000406J000194D01*
G01*
X073044Y044744D02*
G03*
X073256Y044956I-000194J000406D01*
G01*
X07285Y0447D02*
G03*
X073044Y044744I0J00045D01*
G01*
X0712Y0481D02*
G03*
X0702Y0471I0J-001D01*
G01*
X06725Y0442D02*
G03*
X0666Y04485I-00065J0D01*
G01*
X06986Y02975D02*
G03*
X069726Y030074I-000458J0D01*
G01*
X067679Y031007D02*
G03*
X067386Y031714I-001J0D01*
G01*
X066589Y031197D02*
G03*
X066296Y031904I-001J0D01*
G01*
X064407Y031686D02*
G03*
X064115Y032393I-001J0D01*
G01*
X063316Y031838D02*
G03*
X063023Y032545I-001J0D01*
G01*
X061136Y03315D02*
G03*
X060843Y033857I-001J0D01*
G01*
X060045Y033391D02*
G03*
X059752Y034098I-001J0D01*
G01*
X053502Y029977D02*
G03*
X053275Y030525I-000775J0D01*
G01*
X053693Y034457D02*
G03*
X052986Y03475I-000707J-000707D01*
G01*
X057864Y029872D02*
G03*
X057571Y030579I-001J0D01*
G01*
X054407Y031343D02*
G03*
X054952Y031063I000707J000707D01*
G01*
X055575Y03105D02*
G03*
X055413Y031063I-000162J-000987D01*
G01*
X05612Y03077D02*
G03*
X055575Y03105I-000707J-000707D01*
G01*
X05345Y0448D02*
X0625D01*
X05305Y04055D02*
Y0444D01*
X05345Y0448D01*
X061707Y0348D02*
X064115Y032393D01*
X053693Y034457D02*
X057571Y030579D01*
X05612Y03077D02*
X056481Y030409D01*
X056774Y029242D02*
Y029702D01*
X054593Y029242D02*
Y030077D01*
X05Y0348D02*
X0545Y0303D01*
X0545Y0303D01*
X068228Y0287D02*
X072323D01*
X072625Y028825D02*
X073071Y029271D01*
X0733Y029823D02*
Y031486D01*
X070493Y034707D02*
X073007Y032193D01*
X0702Y035414D02*
Y0471D01*
X075175Y042075D02*
X0752Y0421D01*
X071575Y042075D02*
X075175D01*
X07155Y04205D02*
X071575Y042075D01*
X0718Y0431D02*
X0752D01*
X07185Y0447D02*
X07285D01*
X0733Y04515D02*
Y04585D01*
X0623Y0452D02*
X06265Y04485D01*
X0666D01*
X06725Y03775D02*
Y0442D01*
X06986Y029242D02*
Y02975D01*
X065025Y034775D02*
X069726Y030074D01*
X0643Y0348D02*
X067386Y031714D01*
X067679Y029242D02*
Y031007D01*
X0634Y0348D02*
X066296Y031904D01*
X066589Y029242D02*
Y031197D01*
X064407Y029242D02*
Y031686D01*
X0617Y0348D02*
X061707D01*
X060768D02*
X063023Y032545D01*
X063316Y029242D02*
Y031838D01*
X0599Y0348D02*
X060843Y033857D01*
X061136Y029242D02*
Y03315D01*
X05905Y0348D02*
X059752Y034098D01*
X060045Y029242D02*
Y033391D01*
X049Y0348D02*
X053275Y030525D01*
X053502Y029242D02*
Y029977D01*
X0519Y03475D02*
X052986D01*
X057864Y029242D02*
Y029872D01*
X054952Y031063D02*
X055413D01*
X054952D02*
X054952D01*
X03305Y03045D02*
X0331Y0304D01*
X0387D01*
X038831Y028131D02*
Y030269D01*
X0387Y0304D02*
X038831Y030269D01*
X0206Y0647D02*
X0217Y0658D01*
X0206Y06095D02*
Y0647D01*
X065025Y034775D02*
Y034825D01*
X05095Y0348D02*
X054407Y031343D01*
X070926Y029267D02*
X070951Y029242D01*
X070926Y029267D02*
Y029874D01*
X066Y0348D02*
X070926Y029874D01*
X0752Y0451D02*
X0762D01*
Y0471D02*
Y0481D01*
Y0461D02*
Y0471D01*
Y0451D02*
Y0461D01*
Y0441D02*
Y0451D01*
Y0431D02*
Y0441D01*
Y0421D02*
Y0431D01*
X0381Y0454D02*
Y04635D01*
X03535Y0454D02*
Y0463D01*
X0267Y03765D02*
Y03845D01*
X02965Y03765D02*
Y0385D01*
X0652Y0287D02*
X068228D01*
X0619D02*
X0652D01*
X065498Y029116D02*
Y029242D01*
X0652Y028818D02*
X065498Y029116D01*
X0652Y0287D02*
Y028818D01*
X07395Y044217D02*
Y04755D01*
X074067Y0441D02*
X0752D01*
X07395Y044217D02*
X074067Y0441D01*
X0745Y0481D02*
X0752D01*
X0712D02*
X0745D01*
X07395Y04755D02*
X0745Y0481D01*
X05525Y0287D02*
X05875D01*
X052529D02*
X05525D01*
X055683Y029133D02*
Y029242D01*
X05525Y0287D02*
X055683Y029133D01*
X05875Y0287D02*
X0619D01*
X058866Y029153D02*
X058955Y029242D01*
X058866Y028816D02*
Y029153D01*
X05875Y0287D02*
X058866Y028816D01*
X062226Y029116D02*
Y029242D01*
X0619Y02879D02*
X062226Y029116D01*
X0619Y0287D02*
Y02879D01*
X052411Y028817D02*
Y029242D01*
X068228Y0287D02*
X06877Y029242D01*
X052411Y028817D02*
X052529Y0287D01*
D80*
X02335Y0312D02*
D03*
X01705Y0534D02*
D03*
X016825Y051325D02*
D03*
X01845Y03545D02*
D03*
X0195Y03295D02*
D03*
X020025Y032575D02*
D03*
X020575D02*
D03*
X021175Y032625D02*
D03*
X022175Y032025D02*
D03*
X022675Y031725D02*
D03*
X022803Y031853D02*
D03*
X0221Y0327D02*
D03*
X021275Y033275D02*
D03*
X020775Y033325D02*
D03*
X019175Y034225D02*
D03*
D82*
X05655Y04025D02*
X0586D01*
X056462Y040163D02*
X05655Y04025D01*
X05571Y03964D02*
X057587D01*
X0557Y03965D02*
X05571Y03964D01*
X057587D02*
X057697Y03975D01*
X0578D01*
X0586Y04025D02*
X05865Y0403D01*
D83*
X0421Y0392D02*
X04245Y03955D01*
X0296Y03175D02*
Y033D01*
X0297Y0331D01*
X0404Y03165D02*
Y0331D01*
X0378Y0318D02*
Y03305D01*
X03785Y0331D01*
X02785Y062808D02*
X02905Y064008D01*
X02785Y04705D02*
Y062808D01*
X0393Y04705D02*
X0425D01*
X037991Y0471D02*
X038041Y04715D01*
X0381D01*
X038259Y04705D02*
X03915D01*
X038159Y04715D02*
X038259Y04705D01*
X0364D02*
X03645Y0471D01*
X037991D01*
X03635D02*
X0364Y04705D01*
X03535Y0471D02*
X03635D01*
X0335Y04705D02*
X033543Y047093D01*
X035417D01*
X033457D02*
X0335Y04705D01*
X032517Y047093D02*
X033457D01*
X030842D02*
X032443D01*
X03245Y0471D01*
X02785Y04705D02*
X02955D01*
X03055D01*
X0306Y047D01*
X030667Y047086D02*
X030836D01*
X030842Y047093D01*
X0306Y04702D02*
X030667Y047086D01*
X0306Y047D02*
Y04702D01*
X02675Y04705D02*
X02785D01*
Y047D02*
Y04705D01*
X02905Y064008D02*
Y0641D01*
X0392Y0392D02*
X0408D01*
X0132Y0636D02*
X015D01*
X01915Y06775D01*
X0399D01*
X04125Y0664D01*
Y05585D02*
Y0664D01*
X014856Y033662D02*
X015062D01*
X01535Y03395D01*
X029583Y039293D02*
X02965D01*
X026767Y039243D02*
X026809Y0392D01*
X02965D02*
X0307D01*
X0336D02*
X0392D01*
X0267Y03925D02*
X026707Y039243D01*
X0307Y0392D02*
X0336D01*
X026809D02*
X029491D01*
X029583Y039293D01*
X0392Y0392D02*
X0421D01*
X026707Y039243D02*
X026767D01*
X01535Y03525D02*
X01585Y03575D01*
X01535Y03395D02*
Y03525D01*
X0408Y0376D02*
Y0385D01*
X0381Y0376D02*
Y0385D01*
X0354Y0376D02*
Y0385D01*
D87*
X030091Y02869D02*
D03*
X043209D02*
D03*
X013808D02*
D03*
X026926D02*
D03*
X074747Y028673D02*
D03*
X049668Y02868D02*
D03*
D88*
X033378Y028131D02*
D03*
X033924Y029249D02*
D03*
X034469Y028131D02*
D03*
X035014Y029249D02*
D03*
X035559Y028131D02*
D03*
X036105Y029249D02*
D03*
X03665Y028131D02*
D03*
X037195Y029249D02*
D03*
X037741Y028131D02*
D03*
X038286Y029249D02*
D03*
X038831Y028131D02*
D03*
X039376Y029249D02*
D03*
X039922Y028131D02*
D03*
X040462Y029251D02*
D03*
X017095Y028131D02*
D03*
X017641Y029249D02*
D03*
X018186Y028131D02*
D03*
X018731Y029249D02*
D03*
X019276Y028131D02*
D03*
X019822Y029249D02*
D03*
X020367Y028131D02*
D03*
X020912Y029249D02*
D03*
X021457Y028131D02*
D03*
X022003Y029249D02*
D03*
X022548Y028131D02*
D03*
X023093Y029249D02*
D03*
X023639Y028131D02*
D03*
X024179Y029251D02*
D03*
X072041Y029242D02*
D03*
X071496Y028124D02*
D03*
X070951Y029242D02*
D03*
X070406Y028124D02*
D03*
X068224D02*
D03*
X06877Y029242D02*
D03*
X069315Y028124D02*
D03*
X06986Y029242D02*
D03*
X066043Y028124D02*
D03*
X066589Y029242D02*
D03*
X067134Y028124D02*
D03*
X067679Y029242D02*
D03*
X061681Y028124D02*
D03*
X062226Y029242D02*
D03*
X062772Y028124D02*
D03*
X065498Y029242D02*
D03*
X060591Y028124D02*
D03*
X061136Y029242D02*
D03*
X063862Y028124D02*
D03*
X064407Y029242D02*
D03*
X064953Y028124D02*
D03*
X063316Y029242D02*
D03*
X060045D02*
D03*
X0595Y028124D02*
D03*
X058955Y029242D02*
D03*
X058409Y028124D02*
D03*
X057864Y029242D02*
D03*
X057319Y028124D02*
D03*
X056774Y029242D02*
D03*
X056228Y028124D02*
D03*
X055683Y029242D02*
D03*
X055138Y028124D02*
D03*
X054593Y029242D02*
D03*
X054047Y028124D02*
D03*
X053502Y029242D02*
D03*
X052957Y028124D02*
D03*
D89*
X032833Y029249D02*
D03*
X01655D02*
D03*
X052411Y029242D02*
D03*
D90*
X04125Y05105D02*
D03*
X04605Y05585D02*
D03*
X04025Y05345D02*
D03*
X04605Y05105D02*
D03*
X04125Y05585D02*
D03*
D91*
X0408Y0376D02*
D03*
X0418D02*
D03*
Y0346D02*
D03*
X0381Y0454D02*
D03*
X0391D02*
D03*
Y0424D02*
D03*
X0381Y0376D02*
D03*
X0391D02*
D03*
Y0346D02*
D03*
X03535Y0454D02*
D03*
X03635D02*
D03*
Y0424D02*
D03*
X0354Y0376D02*
D03*
X0364D02*
D03*
Y0346D02*
D03*
X03245Y0454D02*
D03*
X03345D02*
D03*
Y0424D02*
D03*
X0326Y0376D02*
D03*
X0336D02*
D03*
Y0346D02*
D03*
X02955Y04535D02*
D03*
X03055D02*
D03*
Y04235D02*
D03*
X02965Y03765D02*
D03*
X03065D02*
D03*
Y03465D02*
D03*
X02675Y04535D02*
D03*
X02775D02*
D03*
Y04235D02*
D03*
X0267Y03765D02*
D03*
X0277D02*
D03*
Y03465D02*
D03*
D92*
X0408Y0346D02*
D03*
X0381Y0424D02*
D03*
Y0346D02*
D03*
X03535Y0424D02*
D03*
X0354Y0346D02*
D03*
X03245Y0424D02*
D03*
X0326Y0346D02*
D03*
X02955Y04235D02*
D03*
X02965Y03465D02*
D03*
X02675Y04235D02*
D03*
X0267Y03465D02*
D03*
D93*
X0762Y0481D02*
D03*
Y0461D02*
D03*
Y0451D02*
D03*
X0752D02*
D03*
X0762Y0441D02*
D03*
X0752D02*
D03*
X0762Y0431D02*
D03*
X0752D02*
D03*
X0762Y0421D02*
D03*
X0752D02*
D03*
X0762Y0471D02*
D03*
X0752Y0461D02*
D03*
Y0471D02*
D03*
D94*
Y0481D02*
D03*
D95*
X039433Y06671D02*
D03*
X062694Y049938D02*
D03*
D96*
X0446Y0321D02*
D03*
D97*
Y0331D02*
D03*
Y0341D02*
D03*
D98*
X0356Y0519D02*
D03*
Y0529D02*
D03*
Y0539D02*
D03*
D99*
X076772Y06378D02*
D03*
X075591Y061417D02*
D03*
X076772Y059055D02*
D03*
X075591Y056693D02*
D03*
X076772Y054331D02*
D03*
X075591Y051969D02*
D03*
X076772Y049606D02*
D03*
Y040157D02*
D03*
Y035433D02*
D03*
X074409Y068504D02*
D03*
X073228Y066142D02*
D03*
X074409Y06378D02*
D03*
X073228Y061417D02*
D03*
X074409Y059055D02*
D03*
X073228Y056693D02*
D03*
X074409Y054331D02*
D03*
X073228Y051969D02*
D03*
X074409Y049606D02*
D03*
Y030709D02*
D03*
X072047Y068504D02*
D03*
X070866Y066142D02*
D03*
X072047Y06378D02*
D03*
X070866Y061417D02*
D03*
X072047Y059055D02*
D03*
X070866Y056693D02*
D03*
X072047Y054331D02*
D03*
X070866Y051969D02*
D03*
X072047Y049606D02*
D03*
X070866Y047244D02*
D03*
X072047Y030709D02*
D03*
X069685Y068504D02*
D03*
X068504Y066142D02*
D03*
X069685Y06378D02*
D03*
X068504Y061417D02*
D03*
X069685Y059055D02*
D03*
X068504Y056693D02*
D03*
X069685Y054331D02*
D03*
X068504Y051969D02*
D03*
X069685Y049606D02*
D03*
X068504Y047244D02*
D03*
X067323Y068504D02*
D03*
X066142Y066142D02*
D03*
X067323Y06378D02*
D03*
X066142Y061417D02*
D03*
X067323Y059055D02*
D03*
X066142Y056693D02*
D03*
X067323Y054331D02*
D03*
X066142Y051969D02*
D03*
X067323Y049606D02*
D03*
X066142Y047244D02*
D03*
Y04252D02*
D03*
X064961Y068504D02*
D03*
X06378Y066142D02*
D03*
X064961Y06378D02*
D03*
X06378Y061417D02*
D03*
X064961Y059055D02*
D03*
X06378Y056693D02*
D03*
X064961Y054331D02*
D03*
X06378Y051969D02*
D03*
X064961Y049606D02*
D03*
X06378Y047244D02*
D03*
Y04252D02*
D03*
X064961Y030709D02*
D03*
X062598Y068504D02*
D03*
X061417Y066142D02*
D03*
X062598Y06378D02*
D03*
X061417Y061417D02*
D03*
X062598Y059055D02*
D03*
X061417Y056693D02*
D03*
X062598Y054331D02*
D03*
X061417Y051969D02*
D03*
X060236Y068504D02*
D03*
X059055Y061417D02*
D03*
Y04252D02*
D03*
X056693Y066142D02*
D03*
X057874Y06378D02*
D03*
X056693Y061417D02*
D03*
X057874Y059055D02*
D03*
X056693Y056693D02*
D03*
X057874Y054331D02*
D03*
Y049606D02*
D03*
X054331Y066142D02*
D03*
X055512Y06378D02*
D03*
X054331Y061417D02*
D03*
X051969Y066142D02*
D03*
X05315Y06378D02*
D03*
X051969Y061417D02*
D03*
Y051969D02*
D03*
X05315Y049606D02*
D03*
X051969Y047244D02*
D03*
X049606Y066142D02*
D03*
X050787Y06378D02*
D03*
X049606Y061417D02*
D03*
Y056693D02*
D03*
X050787Y054331D02*
D03*
X049606Y051969D02*
D03*
X050787Y049606D02*
D03*
X049606Y047244D02*
D03*
X047244Y066142D02*
D03*
X048425Y06378D02*
D03*
X047244Y061417D02*
D03*
Y051969D02*
D03*
X048425Y049606D02*
D03*
Y030709D02*
D03*
X047244Y028346D02*
D03*
X044882Y066142D02*
D03*
X046063Y06378D02*
D03*
X044882Y061417D02*
D03*
X046063Y054331D02*
D03*
X044882Y051969D02*
D03*
Y047244D02*
D03*
Y04252D02*
D03*
Y037795D02*
D03*
Y028346D02*
D03*
X04252Y066142D02*
D03*
X043701Y06378D02*
D03*
X04252Y061417D02*
D03*
X043701Y054331D02*
D03*
Y049606D02*
D03*
Y044882D02*
D03*
X04252Y037795D02*
D03*
X040157Y066142D02*
D03*
Y061417D02*
D03*
X041339Y054331D02*
D03*
Y049606D02*
D03*
X037795Y066142D02*
D03*
X038976Y06378D02*
D03*
X037795Y061417D02*
D03*
X038976Y049606D02*
D03*
X036614Y06378D02*
D03*
X035433Y061417D02*
D03*
X036614Y049606D02*
D03*
X033071Y066142D02*
D03*
Y061417D02*
D03*
X034252Y049606D02*
D03*
X030709Y066142D02*
D03*
Y061417D02*
D03*
X03189Y049606D02*
D03*
X029528D02*
D03*
X025984Y061417D02*
D03*
Y051969D02*
D03*
X024803Y06378D02*
D03*
X023622Y061417D02*
D03*
X024803Y049606D02*
D03*
Y040157D02*
D03*
X022441Y06378D02*
D03*
X02126Y061417D02*
D03*
X018898Y066142D02*
D03*
X020079Y06378D02*
D03*
X018898Y061417D02*
D03*
X016535Y066142D02*
D03*
X017717Y06378D02*
D03*
X016535Y061417D02*
D03*
X015354Y059055D02*
D03*
X014173Y056693D02*
D03*
X015354Y054331D02*
D03*
X014173Y051969D02*
D03*
X015354Y049606D02*
D03*
X014173Y047244D02*
D03*
X015354Y030709D02*
D03*
X011811Y033071D02*
D03*
Y028346D02*
D03*
X0527Y03635D02*
D03*
X05305Y04055D02*
D03*
X0453Y0438D02*
D03*
X04245Y03955D02*
D03*
X02535Y0376D02*
D03*
X0263Y0318D02*
D03*
X0623Y04865D02*
D03*
X0715Y0354D02*
D03*
X05895Y03845D02*
D03*
X058Y0427D02*
D03*
X05395Y0421D02*
D03*
X07155Y04205D02*
D03*
X060768Y0348D02*
D03*
X03575Y0316D02*
D03*
X0601Y04515D02*
D03*
X0618Y04445D02*
D03*
X06105Y04515D02*
D03*
X0623Y0452D02*
D03*
X06725Y03775D02*
D03*
X056462Y040163D02*
D03*
X0429Y0394D02*
D03*
X04345Y0389D02*
D03*
X02285Y0659D02*
D03*
Y06695D02*
D03*
X02175D02*
D03*
X0404Y03165D02*
D03*
X04195Y04675D02*
D03*
X042Y04745D02*
D03*
X0425Y04705D02*
D03*
X02905Y0641D02*
D03*
X0297Y06325D02*
D03*
X03015Y0641D02*
D03*
X02735D02*
D03*
X0308Y06325D02*
D03*
X0276Y0633D02*
D03*
X0132Y0636D02*
D03*
X0217Y0658D02*
D03*
X01255Y0643D02*
D03*
X0125Y03575D02*
D03*
X0136Y03585D02*
D03*
X0131Y0355D02*
D03*
X01375Y03455D02*
D03*
X0125Y0346D02*
D03*
X0159Y0349D02*
D03*
Y03365D02*
D03*
X015062Y033662D02*
D03*
X0151Y0348D02*
D03*
X01505Y0362D02*
D03*
X0171Y03615D02*
D03*
X02415Y0311D02*
D03*
Y03015D02*
D03*
X0733Y04585D02*
D03*
X065025Y034825D02*
D03*
X0519Y03475D02*
D03*
X05095Y0348D02*
D03*
X05D02*
D03*
X049D02*
D03*
X05865Y0403D02*
D03*
X0548Y04475D02*
D03*
X05535Y0474D02*
D03*
X05345Y0473D02*
D03*
X05815Y04735D02*
D03*
X03495Y0399D02*
D03*
X02705Y04D02*
D03*
X0557Y03965D02*
D03*
X0214Y056D02*
D03*
X021477Y059707D02*
D03*
X05705Y04475D02*
D03*
X0578Y03975D02*
D03*
X0378Y0318D02*
D03*
X0331Y0319D02*
D03*
X0296Y03175D02*
D03*
X0377Y0399D02*
D03*
X03205Y0398D02*
D03*
X02915Y03995D02*
D03*
X01585Y03575D02*
D03*
X07155Y04285D02*
D03*
Y0447D02*
D03*
X066Y0348D02*
D03*
X0643D02*
D03*
X0634D02*
D03*
X0617D02*
D03*
X0599D02*
D03*
X05905D02*
D03*
D100*
X012587Y0312D02*
D03*
X076363D02*
D03*
Y06705D02*
D03*
X012587Y0671D02*
D03*
M02*
