G04*
G04 #@! TF.GenerationSoftware,Altium Limited,Altium Designer,20.0.13 (296)*
G04*
G04 Layer_Color=2752767*
%FSTAX24Y24*%
%MOIN*%
G70*
G01*
G75*
%ADD18C,0.0020*%
%ADD104C,0.0027*%
D18*
X030011Y02861D02*
Y02877D01*
X030171D01*
Y02861D01*
X030011D01*
X043129D02*
Y02877D01*
X043289D01*
Y02861D01*
X043129D01*
X04125Y05097D02*
X04117Y05113D01*
X04133D01*
X04125Y05097D01*
X04605Y05577D02*
X04597Y05593D01*
X04613D01*
X04605Y05577D01*
X04025Y05337D02*
X04017Y05353D01*
X04033D01*
X04025Y05337D01*
X04605Y05097D02*
X04597Y05113D01*
X04613D01*
X04605Y05097D01*
X04125Y05577D02*
X04117Y05593D01*
X04133D01*
X04125Y05577D01*
X013728Y02861D02*
Y02877D01*
X013888D01*
Y02861D01*
X013728D01*
X026846D02*
Y02877D01*
X027006D01*
Y02861D01*
X026846D01*
X0408Y03752D02*
X04084Y03756D01*
X04088D01*
X04084Y0376D01*
X04088Y03764D01*
X04084D01*
X0408Y03768D01*
X04076Y03764D01*
X04072D01*
X04076Y0376D01*
X04072Y03756D01*
X04076D01*
X0408Y03752D01*
X0418D02*
X04184Y03756D01*
X04188D01*
X04184Y0376D01*
X04188Y03764D01*
X04184D01*
X0418Y03768D01*
X04176Y03764D01*
X04172D01*
X04176Y0376D01*
X04172Y03756D01*
X04176D01*
X0418Y03752D01*
Y03452D02*
X04184Y03456D01*
X04188D01*
X04184Y0346D01*
X04188Y03464D01*
X04184D01*
X0418Y03468D01*
X04176Y03464D01*
X04172D01*
X04176Y0346D01*
X04172Y03456D01*
X04176D01*
X0418Y03452D01*
X0408D02*
X04084Y03456D01*
X04088D01*
X04084Y0346D01*
X04088Y03464D01*
X04084D01*
X0408Y03468D01*
X04076Y03464D01*
X04072D01*
X04076Y0346D01*
X04072Y03456D01*
X04076D01*
X0408Y03452D01*
X0381Y04532D02*
X03814Y04536D01*
X03818D01*
X03814Y0454D01*
X03818Y04544D01*
X03814D01*
X0381Y04548D01*
X03806Y04544D01*
X03802D01*
X03806Y0454D01*
X03802Y04536D01*
X03806D01*
X0381Y04532D01*
X0391D02*
X03914Y04536D01*
X03918D01*
X03914Y0454D01*
X03918Y04544D01*
X03914D01*
X0391Y04548D01*
X03906Y04544D01*
X03902D01*
X03906Y0454D01*
X03902Y04536D01*
X03906D01*
X0391Y04532D01*
Y04232D02*
X03914Y04236D01*
X03918D01*
X03914Y0424D01*
X03918Y04244D01*
X03914D01*
X0391Y04248D01*
X03906Y04244D01*
X03902D01*
X03906Y0424D01*
X03902Y04236D01*
X03906D01*
X0391Y04232D01*
X0381D02*
X03814Y04236D01*
X03818D01*
X03814Y0424D01*
X03818Y04244D01*
X03814D01*
X0381Y04248D01*
X03806Y04244D01*
X03802D01*
X03806Y0424D01*
X03802Y04236D01*
X03806D01*
X0381Y04232D01*
Y03752D02*
X03814Y03756D01*
X03818D01*
X03814Y0376D01*
X03818Y03764D01*
X03814D01*
X0381Y03768D01*
X03806Y03764D01*
X03802D01*
X03806Y0376D01*
X03802Y03756D01*
X03806D01*
X0381Y03752D01*
X0391D02*
X03914Y03756D01*
X03918D01*
X03914Y0376D01*
X03918Y03764D01*
X03914D01*
X0391Y03768D01*
X03906Y03764D01*
X03902D01*
X03906Y0376D01*
X03902Y03756D01*
X03906D01*
X0391Y03752D01*
Y03452D02*
X03914Y03456D01*
X03918D01*
X03914Y0346D01*
X03918Y03464D01*
X03914D01*
X0391Y03468D01*
X03906Y03464D01*
X03902D01*
X03906Y0346D01*
X03902Y03456D01*
X03906D01*
X0391Y03452D01*
X0381D02*
X03814Y03456D01*
X03818D01*
X03814Y0346D01*
X03818Y03464D01*
X03814D01*
X0381Y03468D01*
X03806Y03464D01*
X03802D01*
X03806Y0346D01*
X03802Y03456D01*
X03806D01*
X0381Y03452D01*
X03535Y04532D02*
X03539Y04536D01*
X03543D01*
X03539Y0454D01*
X03543Y04544D01*
X03539D01*
X03535Y04548D01*
X03531Y04544D01*
X03527D01*
X03531Y0454D01*
X03527Y04536D01*
X03531D01*
X03535Y04532D01*
X03635D02*
X03639Y04536D01*
X03643D01*
X03639Y0454D01*
X03643Y04544D01*
X03639D01*
X03635Y04548D01*
X03631Y04544D01*
X03627D01*
X03631Y0454D01*
X03627Y04536D01*
X03631D01*
X03635Y04532D01*
Y04232D02*
X03639Y04236D01*
X03643D01*
X03639Y0424D01*
X03643Y04244D01*
X03639D01*
X03635Y04248D01*
X03631Y04244D01*
X03627D01*
X03631Y0424D01*
X03627Y04236D01*
X03631D01*
X03635Y04232D01*
X03535D02*
X03539Y04236D01*
X03543D01*
X03539Y0424D01*
X03543Y04244D01*
X03539D01*
X03535Y04248D01*
X03531Y04244D01*
X03527D01*
X03531Y0424D01*
X03527Y04236D01*
X03531D01*
X03535Y04232D01*
X0354Y03752D02*
X03544Y03756D01*
X03548D01*
X03544Y0376D01*
X03548Y03764D01*
X03544D01*
X0354Y03768D01*
X03536Y03764D01*
X03532D01*
X03536Y0376D01*
X03532Y03756D01*
X03536D01*
X0354Y03752D01*
X0364D02*
X03644Y03756D01*
X03648D01*
X03644Y0376D01*
X03648Y03764D01*
X03644D01*
X0364Y03768D01*
X03636Y03764D01*
X03632D01*
X03636Y0376D01*
X03632Y03756D01*
X03636D01*
X0364Y03752D01*
Y03452D02*
X03644Y03456D01*
X03648D01*
X03644Y0346D01*
X03648Y03464D01*
X03644D01*
X0364Y03468D01*
X03636Y03464D01*
X03632D01*
X03636Y0346D01*
X03632Y03456D01*
X03636D01*
X0364Y03452D01*
X0354D02*
X03544Y03456D01*
X03548D01*
X03544Y0346D01*
X03548Y03464D01*
X03544D01*
X0354Y03468D01*
X03536Y03464D01*
X03532D01*
X03536Y0346D01*
X03532Y03456D01*
X03536D01*
X0354Y03452D01*
X03245Y04532D02*
X03249Y04536D01*
X03253D01*
X03249Y0454D01*
X03253Y04544D01*
X03249D01*
X03245Y04548D01*
X03241Y04544D01*
X03237D01*
X03241Y0454D01*
X03237Y04536D01*
X03241D01*
X03245Y04532D01*
X03345D02*
X03349Y04536D01*
X03353D01*
X03349Y0454D01*
X03353Y04544D01*
X03349D01*
X03345Y04548D01*
X03341Y04544D01*
X03337D01*
X03341Y0454D01*
X03337Y04536D01*
X03341D01*
X03345Y04532D01*
Y04232D02*
X03349Y04236D01*
X03353D01*
X03349Y0424D01*
X03353Y04244D01*
X03349D01*
X03345Y04248D01*
X03341Y04244D01*
X03337D01*
X03341Y0424D01*
X03337Y04236D01*
X03341D01*
X03345Y04232D01*
X03245D02*
X03249Y04236D01*
X03253D01*
X03249Y0424D01*
X03253Y04244D01*
X03249D01*
X03245Y04248D01*
X03241Y04244D01*
X03237D01*
X03241Y0424D01*
X03237Y04236D01*
X03241D01*
X03245Y04232D01*
X0326Y03752D02*
X03264Y03756D01*
X03268D01*
X03264Y0376D01*
X03268Y03764D01*
X03264D01*
X0326Y03768D01*
X03256Y03764D01*
X03252D01*
X03256Y0376D01*
X03252Y03756D01*
X03256D01*
X0326Y03752D01*
X0336D02*
X03364Y03756D01*
X03368D01*
X03364Y0376D01*
X03368Y03764D01*
X03364D01*
X0336Y03768D01*
X03356Y03764D01*
X03352D01*
X03356Y0376D01*
X03352Y03756D01*
X03356D01*
X0336Y03752D01*
Y03452D02*
X03364Y03456D01*
X03368D01*
X03364Y0346D01*
X03368Y03464D01*
X03364D01*
X0336Y03468D01*
X03356Y03464D01*
X03352D01*
X03356Y0346D01*
X03352Y03456D01*
X03356D01*
X0336Y03452D01*
X0326D02*
X03264Y03456D01*
X03268D01*
X03264Y0346D01*
X03268Y03464D01*
X03264D01*
X0326Y03468D01*
X03256Y03464D01*
X03252D01*
X03256Y0346D01*
X03252Y03456D01*
X03256D01*
X0326Y03452D01*
X02955Y04527D02*
X02959Y04531D01*
X02963D01*
X02959Y04535D01*
X02963Y04539D01*
X02959D01*
X02955Y04543D01*
X02951Y04539D01*
X02947D01*
X02951Y04535D01*
X02947Y04531D01*
X02951D01*
X02955Y04527D01*
X03055D02*
X03059Y04531D01*
X03063D01*
X03059Y04535D01*
X03063Y04539D01*
X03059D01*
X03055Y04543D01*
X03051Y04539D01*
X03047D01*
X03051Y04535D01*
X03047Y04531D01*
X03051D01*
X03055Y04527D01*
Y04227D02*
X03059Y04231D01*
X03063D01*
X03059Y04235D01*
X03063Y04239D01*
X03059D01*
X03055Y04243D01*
X03051Y04239D01*
X03047D01*
X03051Y04235D01*
X03047Y04231D01*
X03051D01*
X03055Y04227D01*
X02955D02*
X02959Y04231D01*
X02963D01*
X02959Y04235D01*
X02963Y04239D01*
X02959D01*
X02955Y04243D01*
X02951Y04239D01*
X02947D01*
X02951Y04235D01*
X02947Y04231D01*
X02951D01*
X02955Y04227D01*
X02965Y03757D02*
X02969Y03761D01*
X02973D01*
X02969Y03765D01*
X02973Y03769D01*
X02969D01*
X02965Y03773D01*
X02961Y03769D01*
X02957D01*
X02961Y03765D01*
X02957Y03761D01*
X02961D01*
X02965Y03757D01*
X03065D02*
X03069Y03761D01*
X03073D01*
X03069Y03765D01*
X03073Y03769D01*
X03069D01*
X03065Y03773D01*
X03061Y03769D01*
X03057D01*
X03061Y03765D01*
X03057Y03761D01*
X03061D01*
X03065Y03757D01*
Y03457D02*
X03069Y03461D01*
X03073D01*
X03069Y03465D01*
X03073Y03469D01*
X03069D01*
X03065Y03473D01*
X03061Y03469D01*
X03057D01*
X03061Y03465D01*
X03057Y03461D01*
X03061D01*
X03065Y03457D01*
X02965D02*
X02969Y03461D01*
X02973D01*
X02969Y03465D01*
X02973Y03469D01*
X02969D01*
X02965Y03473D01*
X02961Y03469D01*
X02957D01*
X02961Y03465D01*
X02957Y03461D01*
X02961D01*
X02965Y03457D01*
X02675Y04527D02*
X02679Y04531D01*
X02683D01*
X02679Y04535D01*
X02683Y04539D01*
X02679D01*
X02675Y04543D01*
X02671Y04539D01*
X02667D01*
X02671Y04535D01*
X02667Y04531D01*
X02671D01*
X02675Y04527D01*
X02775D02*
X02779Y04531D01*
X02783D01*
X02779Y04535D01*
X02783Y04539D01*
X02779D01*
X02775Y04543D01*
X02771Y04539D01*
X02767D01*
X02771Y04535D01*
X02767Y04531D01*
X02771D01*
X02775Y04527D01*
Y04227D02*
X02779Y04231D01*
X02783D01*
X02779Y04235D01*
X02783Y04239D01*
X02779D01*
X02775Y04243D01*
X02771Y04239D01*
X02767D01*
X02771Y04235D01*
X02767Y04231D01*
X02771D01*
X02775Y04227D01*
X02675D02*
X02679Y04231D01*
X02683D01*
X02679Y04235D01*
X02683Y04239D01*
X02679D01*
X02675Y04243D01*
X02671Y04239D01*
X02667D01*
X02671Y04235D01*
X02667Y04231D01*
X02671D01*
X02675Y04227D01*
X0267Y03757D02*
X02674Y03761D01*
X02678D01*
X02674Y03765D01*
X02678Y03769D01*
X02674D01*
X0267Y03773D01*
X02666Y03769D01*
X02662D01*
X02666Y03765D01*
X02662Y03761D01*
X02666D01*
X0267Y03757D01*
X0277D02*
X02774Y03761D01*
X02778D01*
X02774Y03765D01*
X02778Y03769D01*
X02774D01*
X0277Y03773D01*
X02766Y03769D01*
X02762D01*
X02766Y03765D01*
X02762Y03761D01*
X02766D01*
X0277Y03757D01*
Y03457D02*
X02774Y03461D01*
X02778D01*
X02774Y03465D01*
X02778Y03469D01*
X02774D01*
X0277Y03473D01*
X02766Y03469D01*
X02762D01*
X02766Y03465D01*
X02762Y03461D01*
X02766D01*
X0277Y03457D01*
X0267D02*
X02674Y03461D01*
X02678D01*
X02674Y03465D01*
X02678Y03469D01*
X02674D01*
X0267Y03473D01*
X02666Y03469D01*
X02662D01*
X02666Y03465D01*
X02662Y03461D01*
X02666D01*
X0267Y03457D01*
X07612Y04802D02*
X07616Y0481D01*
X07612Y04818D01*
X0762Y04814D01*
X07628Y04818D01*
X07624Y0481D01*
X07628Y04802D01*
X0762Y04806D01*
X07612Y04802D01*
Y04602D02*
X07616Y0461D01*
X07612Y04618D01*
X0762Y04614D01*
X07628Y04618D01*
X07624Y0461D01*
X07628Y04602D01*
X0762Y04606D01*
X07612Y04602D01*
X07512Y04802D02*
X07516Y0481D01*
X07512Y04818D01*
X0752Y04814D01*
X07528Y04818D01*
X07524Y0481D01*
X07528Y04802D01*
X0752Y04806D01*
X07512Y04802D01*
X07612Y04502D02*
X07616Y0451D01*
X07612Y04518D01*
X0762Y04514D01*
X07628Y04518D01*
X07624Y0451D01*
X07628Y04502D01*
X0762Y04506D01*
X07612Y04502D01*
X07512D02*
X07516Y0451D01*
X07512Y04518D01*
X0752Y04514D01*
X07528Y04518D01*
X07524Y0451D01*
X07528Y04502D01*
X0752Y04506D01*
X07512Y04502D01*
X07612Y04402D02*
X07616Y0441D01*
X07612Y04418D01*
X0762Y04414D01*
X07628Y04418D01*
X07624Y0441D01*
X07628Y04402D01*
X0762Y04406D01*
X07612Y04402D01*
X07512D02*
X07516Y0441D01*
X07512Y04418D01*
X0752Y04414D01*
X07528Y04418D01*
X07524Y0441D01*
X07528Y04402D01*
X0752Y04406D01*
X07512Y04402D01*
X07612Y04302D02*
X07616Y0431D01*
X07612Y04318D01*
X0762Y04314D01*
X07628Y04318D01*
X07624Y0431D01*
X07628Y04302D01*
X0762Y04306D01*
X07612Y04302D01*
X07512D02*
X07516Y0431D01*
X07512Y04318D01*
X0752Y04314D01*
X07528Y04318D01*
X07524Y0431D01*
X07528Y04302D01*
X0752Y04306D01*
X07512Y04302D01*
X07612Y04202D02*
X07616Y0421D01*
X07612Y04218D01*
X0762Y04214D01*
X07628Y04218D01*
X07624Y0421D01*
X07628Y04202D01*
X0762Y04206D01*
X07612Y04202D01*
X07512D02*
X07516Y0421D01*
X07512Y04218D01*
X0752Y04214D01*
X07528Y04218D01*
X07524Y0421D01*
X07528Y04202D01*
X0752Y04206D01*
X07512Y04202D01*
X07612Y04702D02*
X07616Y0471D01*
X07612Y04718D01*
X0762Y04714D01*
X07628Y04718D01*
X07624Y0471D01*
X07628Y04702D01*
X0762Y04706D01*
X07612Y04702D01*
X07512Y04602D02*
X07516Y0461D01*
X07512Y04618D01*
X0752Y04614D01*
X07528Y04618D01*
X07524Y0461D01*
X07528Y04602D01*
X0752Y04606D01*
X07512Y04602D01*
Y04702D02*
X07516Y0471D01*
X07512Y04718D01*
X0752Y04714D01*
X07528Y04718D01*
X07524Y0471D01*
X07528Y04702D01*
X0752Y04706D01*
X07512Y04702D01*
X074667Y028593D02*
Y028753D01*
X074827D01*
Y028593D01*
X074667D01*
X049588Y0286D02*
Y02876D01*
X049748D01*
Y0286D01*
X049588D01*
X01742Y05592D02*
X01746Y056D01*
X01742Y05608D01*
X0175Y05604D01*
X01758Y05608D01*
X01754Y056D01*
X01758Y05592D01*
X0175Y05596D01*
X01742Y05592D01*
X01742Y05892D02*
X01746Y059D01*
X01742Y05908D01*
X0175Y05904D01*
X01758Y05908D01*
X01754Y059D01*
X01758Y05892D01*
X0175Y05896D01*
X01742Y05892D01*
X01642Y05492D02*
X01646Y055D01*
X01642Y05508D01*
X0165Y05504D01*
X01658Y05508D01*
X01654Y055D01*
X01658Y05492D01*
X0165Y05496D01*
X01642Y05492D01*
X01742Y05492D02*
X01746Y055D01*
X01742Y05508D01*
X0175Y05504D01*
X01758Y05508D01*
X01754Y055D01*
X01758Y05492D01*
X0175Y05496D01*
X01742Y05492D01*
X01642Y05892D02*
X01646Y059D01*
X01642Y05908D01*
X0165Y05904D01*
X01658Y05908D01*
X01654Y059D01*
X01658Y05892D01*
X0165Y05896D01*
X01642Y05892D01*
X01642Y05592D02*
X01646Y056D01*
X01642Y05608D01*
X0165Y05604D01*
X01658Y05608D01*
X01654Y056D01*
X01658Y05592D01*
X0165Y05596D01*
X01642Y05592D01*
X01642Y05692D02*
X01646Y057D01*
X01642Y05708D01*
X0165Y05704D01*
X01658Y05708D01*
X01654Y057D01*
X01658Y05692D01*
X0165Y05696D01*
X01642Y05692D01*
X01642Y05792D02*
X01646Y058D01*
X01642Y05808D01*
X0165Y05804D01*
X01658Y05808D01*
X01654Y058D01*
X01658Y05792D01*
X0165Y05796D01*
X01642Y05792D01*
X01742Y05792D02*
X01746Y058D01*
X01742Y05808D01*
X0175Y05804D01*
X01758Y05808D01*
X01754Y058D01*
X01758Y05792D01*
X0175Y05796D01*
X01742Y05792D01*
X01742Y05692D02*
X01746Y057D01*
X01742Y05708D01*
X0175Y05704D01*
X01758Y05708D01*
X01754Y057D01*
X01758Y05692D01*
X0175Y05696D01*
X01742Y05692D01*
X01742Y05392D02*
X01746Y054D01*
X01742Y05408D01*
X0175Y05404D01*
X01758Y05408D01*
X01754Y054D01*
X01758Y05392D01*
X0175Y05396D01*
X01742Y05392D01*
X01642Y05292D02*
X01646Y053D01*
X01642Y05308D01*
X0165Y05304D01*
X01658Y05308D01*
X01654Y053D01*
X01658Y05292D01*
X0165Y05296D01*
X01642Y05292D01*
X01742D02*
X01746Y053D01*
X01742Y05308D01*
X0175Y05304D01*
X01758Y05308D01*
X01754Y053D01*
X01758Y05292D01*
X0175Y05296D01*
X01742Y05292D01*
X01642Y05192D02*
X01646Y052D01*
X01642Y05208D01*
X0165Y05204D01*
X01658Y05208D01*
X01654Y052D01*
X01658Y05192D01*
X0165Y05196D01*
X01642Y05192D01*
X01742D02*
X01746Y052D01*
X01742Y05208D01*
X0175Y05204D01*
X01758Y05208D01*
X01754Y052D01*
X01758Y05192D01*
X0175Y05196D01*
X01742Y05192D01*
X01642Y05092D02*
X01646Y051D01*
X01642Y05108D01*
X0165Y05104D01*
X01658Y05108D01*
X01654Y051D01*
X01658Y05092D01*
X0165Y05096D01*
X01642Y05092D01*
X01742D02*
X01746Y051D01*
X01742Y05108D01*
X0175Y05104D01*
X01758Y05108D01*
X01754Y051D01*
X01758Y05092D01*
X0175Y05096D01*
X01742Y05092D01*
X01642Y04992D02*
X01646Y05D01*
X01642Y05008D01*
X0165Y05004D01*
X01658Y05008D01*
X01654Y05D01*
X01658Y04992D01*
X0165Y04996D01*
X01642Y04992D01*
X01742D02*
X01746Y05D01*
X01742Y05008D01*
X0175Y05004D01*
X01758Y05008D01*
X01754Y05D01*
X01758Y04992D01*
X0175Y04996D01*
X01742Y04992D01*
X01642Y04892D02*
X01646Y049D01*
X01642Y04908D01*
X0165Y04904D01*
X01658Y04908D01*
X01654Y049D01*
X01658Y04892D01*
X0165Y04896D01*
X01642Y04892D01*
X01742D02*
X01746Y049D01*
X01742Y04908D01*
X0175Y04904D01*
X01758Y04908D01*
X01754Y049D01*
X01758Y04892D01*
X0175Y04896D01*
X01742Y04892D01*
X01642Y04792D02*
X01646Y048D01*
X01642Y04808D01*
X0165Y04804D01*
X01658Y04808D01*
X01654Y048D01*
X01658Y04792D01*
X0165Y04796D01*
X01642Y04792D01*
X01742D02*
X01746Y048D01*
X01742Y04808D01*
X0175Y04804D01*
X01758Y04808D01*
X01754Y048D01*
X01758Y04792D01*
X0175Y04796D01*
X01742Y04792D01*
X01642Y04692D02*
X01646Y047D01*
X01642Y04708D01*
X0165Y04704D01*
X01658Y04708D01*
X01654Y047D01*
X01658Y04692D01*
X0165Y04696D01*
X01642Y04692D01*
X01742D02*
X01746Y047D01*
X01742Y04708D01*
X0175Y04704D01*
X01758Y04708D01*
X01754Y047D01*
X01758Y04692D01*
X0175Y04696D01*
X01742Y04692D01*
X01642Y05392D02*
X01646Y054D01*
X01642Y05408D01*
X0165Y05404D01*
X01658Y05408D01*
X01654Y054D01*
X01658Y05392D01*
X0165Y05396D01*
X01642Y05392D01*
Y04592D02*
X01646Y046D01*
X01642Y04608D01*
X0165Y04604D01*
X01658Y04608D01*
X01654Y046D01*
X01658Y04592D01*
X0165Y04596D01*
X01642Y04592D01*
X01742D02*
X01746Y046D01*
X01742Y04608D01*
X0175Y04604D01*
X01758Y04608D01*
X01754Y046D01*
X01758Y04592D01*
X0175Y04596D01*
X01742Y04592D01*
X01642Y04492D02*
X01646Y045D01*
X01642Y04508D01*
X0165Y04504D01*
X01658Y04508D01*
X01654Y045D01*
X01658Y04492D01*
X0165Y04496D01*
X01642Y04492D01*
X01742D02*
X01746Y045D01*
X01742Y04508D01*
X0175Y04504D01*
X01758Y04508D01*
X01754Y045D01*
X01758Y04492D01*
X0175Y04496D01*
X01742Y04492D01*
X01642Y04392D02*
X01646Y044D01*
X01642Y04408D01*
X0165Y04404D01*
X01658Y04408D01*
X01654Y044D01*
X01658Y04392D01*
X0165Y04396D01*
X01642Y04392D01*
X01742D02*
X01746Y044D01*
X01742Y04408D01*
X0175Y04404D01*
X01758Y04408D01*
X01754Y044D01*
X01758Y04392D01*
X0175Y04396D01*
X01742Y04392D01*
X01642Y04292D02*
X01646Y043D01*
X01642Y04308D01*
X0165Y04304D01*
X01658Y04308D01*
X01654Y043D01*
X01658Y04292D01*
X0165Y04296D01*
X01642Y04292D01*
X01742D02*
X01746Y043D01*
X01742Y04308D01*
X0175Y04304D01*
X01758Y04308D01*
X01754Y043D01*
X01758Y04292D01*
X0175Y04296D01*
X01742Y04292D01*
X01642Y04192D02*
X01646Y042D01*
X01642Y04208D01*
X0165Y04204D01*
X01658Y04208D01*
X01654Y042D01*
X01658Y04192D01*
X0165Y04196D01*
X01642Y04192D01*
X01742D02*
X01746Y042D01*
X01742Y04208D01*
X0175Y04204D01*
X01758Y04208D01*
X01754Y042D01*
X01758Y04192D01*
X0175Y04196D01*
X01742Y04192D01*
X01642Y04092D02*
X01646Y041D01*
X01642Y04108D01*
X0165Y04104D01*
X01658Y04108D01*
X01654Y041D01*
X01658Y04092D01*
X0165Y04096D01*
X01642Y04092D01*
X01742D02*
X01746Y041D01*
X01742Y04108D01*
X0175Y04104D01*
X01758Y04108D01*
X01754Y041D01*
X01758Y04092D01*
X0175Y04096D01*
X01742Y04092D01*
X01642Y03992D02*
X01646Y04D01*
X01642Y04008D01*
X0165Y04004D01*
X01658Y04008D01*
X01654Y04D01*
X01658Y03992D01*
X0165Y03996D01*
X01642Y03992D01*
X01742D02*
X01746Y04D01*
X01742Y04008D01*
X0175Y04004D01*
X01758Y04008D01*
X01754Y04D01*
X01758Y03992D01*
X0175Y03996D01*
X01742Y03992D01*
X039393Y06667D02*
Y06663D01*
X039473D01*
Y06667D01*
X039513D01*
Y06675D01*
X039473D01*
Y06679D01*
X039393D01*
Y06675D01*
X039353D01*
Y06667D01*
X039393D01*
X062654Y049898D02*
Y049858D01*
X062734D01*
Y049898D01*
X062774D01*
Y049978D01*
X062734D01*
Y050018D01*
X062654D01*
Y049978D01*
X062614D01*
Y049898D01*
X062654D01*
X04452Y03202D02*
X04456Y0321D01*
X04452Y03218D01*
X0446Y03214D01*
X04468Y03218D01*
X04464Y0321D01*
X04468Y03202D01*
X0446Y03206D01*
X04452Y03202D01*
Y03302D02*
X04456Y0331D01*
X04452Y03318D01*
X0446Y03314D01*
X04468Y03318D01*
X04464Y0331D01*
X04468Y03302D01*
X0446Y03306D01*
X04452Y03302D01*
Y03402D02*
X04456Y0341D01*
X04452Y03418D01*
X0446Y03414D01*
X04468Y03418D01*
X04464Y0341D01*
X04468Y03402D01*
X0446Y03406D01*
X04452Y03402D01*
X03552Y05182D02*
X03556D01*
X0356Y05186D01*
X03564Y05182D01*
X03568D01*
Y05186D01*
X03564Y0519D01*
X03568Y05194D01*
Y05198D01*
X03564D01*
X0356Y05194D01*
X03556Y05198D01*
X03552D01*
Y05194D01*
X03556Y0519D01*
X03552Y05186D01*
Y05182D01*
Y05282D02*
X03556D01*
X0356Y05286D01*
X03564Y05282D01*
X03568D01*
Y05286D01*
X03564Y0529D01*
X03568Y05294D01*
Y05298D01*
X03564D01*
X0356Y05294D01*
X03556Y05298D01*
X03552D01*
Y05294D01*
X03556Y0529D01*
X03552Y05286D01*
Y05282D01*
Y05382D02*
X03556D01*
X0356Y05386D01*
X03564Y05382D01*
X03568D01*
Y05386D01*
X03564Y0539D01*
X03568Y05394D01*
Y05398D01*
X03564D01*
X0356Y05394D01*
X03556Y05398D01*
X03552D01*
Y05394D01*
X03556Y0539D01*
X03552Y05386D01*
Y05382D01*
X076692Y06378D02*
X076772Y06386D01*
X076852Y06378D01*
X076772Y0637D01*
X076692Y06378D01*
X075511Y061417D02*
X075591Y061497D01*
X075671Y061417D01*
X075591Y061337D01*
X075511Y061417D01*
X076692Y059055D02*
X076772Y059135D01*
X076852Y059055D01*
X076772Y058975D01*
X076692Y059055D01*
X075511Y056693D02*
X075591Y056773D01*
X075671Y056693D01*
X075591Y056613D01*
X075511Y056693D01*
X076692Y054331D02*
X076772Y054411D01*
X076852Y054331D01*
X076772Y054251D01*
X076692Y054331D01*
X075511Y051969D02*
X075591Y052049D01*
X075671Y051969D01*
X075591Y051889D01*
X075511Y051969D01*
X076692Y049606D02*
X076772Y049686D01*
X076852Y049606D01*
X076772Y049526D01*
X076692Y049606D01*
Y040157D02*
X076772Y040237D01*
X076852Y040157D01*
X076772Y040077D01*
X076692Y040157D01*
Y035433D02*
X076772Y035513D01*
X076852Y035433D01*
X076772Y035353D01*
X076692Y035433D01*
X074329Y068504D02*
X074409Y068584D01*
X074489Y068504D01*
X074409Y068424D01*
X074329Y068504D01*
X073148Y066142D02*
X073228Y066222D01*
X073308Y066142D01*
X073228Y066062D01*
X073148Y066142D01*
X074329Y06378D02*
X074409Y06386D01*
X074489Y06378D01*
X074409Y0637D01*
X074329Y06378D01*
X073148Y061417D02*
X073228Y061497D01*
X073308Y061417D01*
X073228Y061337D01*
X073148Y061417D01*
X074329Y059055D02*
X074409Y059135D01*
X074489Y059055D01*
X074409Y058975D01*
X074329Y059055D01*
X073148Y056693D02*
X073228Y056773D01*
X073308Y056693D01*
X073228Y056613D01*
X073148Y056693D01*
X074329Y054331D02*
X074409Y054411D01*
X074489Y054331D01*
X074409Y054251D01*
X074329Y054331D01*
X073148Y051969D02*
X073228Y052049D01*
X073308Y051969D01*
X073228Y051889D01*
X073148Y051969D01*
X074329Y049606D02*
X074409Y049686D01*
X074489Y049606D01*
X074409Y049526D01*
X074329Y049606D01*
Y030709D02*
X074409Y030789D01*
X074489Y030709D01*
X074409Y030629D01*
X074329Y030709D01*
X071967Y068504D02*
X072047Y068584D01*
X072127Y068504D01*
X072047Y068424D01*
X071967Y068504D01*
X070786Y066142D02*
X070866Y066222D01*
X070946Y066142D01*
X070866Y066062D01*
X070786Y066142D01*
X071967Y06378D02*
X072047Y06386D01*
X072127Y06378D01*
X072047Y0637D01*
X071967Y06378D01*
X070786Y061417D02*
X070866Y061497D01*
X070946Y061417D01*
X070866Y061337D01*
X070786Y061417D01*
X071967Y059055D02*
X072047Y059135D01*
X072127Y059055D01*
X072047Y058975D01*
X071967Y059055D01*
X070786Y056693D02*
X070866Y056773D01*
X070946Y056693D01*
X070866Y056613D01*
X070786Y056693D01*
X071967Y054331D02*
X072047Y054411D01*
X072127Y054331D01*
X072047Y054251D01*
X071967Y054331D01*
X070786Y051969D02*
X070866Y052049D01*
X070946Y051969D01*
X070866Y051889D01*
X070786Y051969D01*
X071967Y049606D02*
X072047Y049686D01*
X072127Y049606D01*
X072047Y049526D01*
X071967Y049606D01*
X070786Y047244D02*
X070866Y047324D01*
X070946Y047244D01*
X070866Y047164D01*
X070786Y047244D01*
X071967Y030709D02*
X072047Y030789D01*
X072127Y030709D01*
X072047Y030629D01*
X071967Y030709D01*
X069605Y068504D02*
X069685Y068584D01*
X069765Y068504D01*
X069685Y068424D01*
X069605Y068504D01*
X068424Y066142D02*
X068504Y066222D01*
X068584Y066142D01*
X068504Y066062D01*
X068424Y066142D01*
X069605Y06378D02*
X069685Y06386D01*
X069765Y06378D01*
X069685Y0637D01*
X069605Y06378D01*
X068424Y061417D02*
X068504Y061497D01*
X068584Y061417D01*
X068504Y061337D01*
X068424Y061417D01*
X069605Y059055D02*
X069685Y059135D01*
X069765Y059055D01*
X069685Y058975D01*
X069605Y059055D01*
X068424Y056693D02*
X068504Y056773D01*
X068584Y056693D01*
X068504Y056613D01*
X068424Y056693D01*
X069605Y054331D02*
X069685Y054411D01*
X069765Y054331D01*
X069685Y054251D01*
X069605Y054331D01*
X068424Y051969D02*
X068504Y052049D01*
X068584Y051969D01*
X068504Y051889D01*
X068424Y051969D01*
X069605Y049606D02*
X069685Y049686D01*
X069765Y049606D01*
X069685Y049526D01*
X069605Y049606D01*
X068424Y047244D02*
X068504Y047324D01*
X068584Y047244D01*
X068504Y047164D01*
X068424Y047244D01*
X067243Y068504D02*
X067323Y068584D01*
X067403Y068504D01*
X067323Y068424D01*
X067243Y068504D01*
X066062Y066142D02*
X066142Y066222D01*
X066222Y066142D01*
X066142Y066062D01*
X066062Y066142D01*
X067243Y06378D02*
X067323Y06386D01*
X067403Y06378D01*
X067323Y0637D01*
X067243Y06378D01*
X066062Y061417D02*
X066142Y061497D01*
X066222Y061417D01*
X066142Y061337D01*
X066062Y061417D01*
X067243Y059055D02*
X067323Y059135D01*
X067403Y059055D01*
X067323Y058975D01*
X067243Y059055D01*
X066062Y056693D02*
X066142Y056773D01*
X066222Y056693D01*
X066142Y056613D01*
X066062Y056693D01*
X067243Y054331D02*
X067323Y054411D01*
X067403Y054331D01*
X067323Y054251D01*
X067243Y054331D01*
X066062Y051969D02*
X066142Y052049D01*
X066222Y051969D01*
X066142Y051889D01*
X066062Y051969D01*
X067243Y049606D02*
X067323Y049686D01*
X067403Y049606D01*
X067323Y049526D01*
X067243Y049606D01*
X066062Y047244D02*
X066142Y047324D01*
X066222Y047244D01*
X066142Y047164D01*
X066062Y047244D01*
Y04252D02*
X066142Y0426D01*
X066222Y04252D01*
X066142Y04244D01*
X066062Y04252D01*
X064881Y068504D02*
X064961Y068584D01*
X065041Y068504D01*
X064961Y068424D01*
X064881Y068504D01*
X0637Y066142D02*
X06378Y066222D01*
X06386Y066142D01*
X06378Y066062D01*
X0637Y066142D01*
X064881Y06378D02*
X064961Y06386D01*
X065041Y06378D01*
X064961Y0637D01*
X064881Y06378D01*
X0637Y061417D02*
X06378Y061497D01*
X06386Y061417D01*
X06378Y061337D01*
X0637Y061417D01*
X064881Y059055D02*
X064961Y059135D01*
X065041Y059055D01*
X064961Y058975D01*
X064881Y059055D01*
X0637Y056693D02*
X06378Y056773D01*
X06386Y056693D01*
X06378Y056613D01*
X0637Y056693D01*
X064881Y054331D02*
X064961Y054411D01*
X065041Y054331D01*
X064961Y054251D01*
X064881Y054331D01*
X0637Y051969D02*
X06378Y052049D01*
X06386Y051969D01*
X06378Y051889D01*
X0637Y051969D01*
X064881Y049606D02*
X064961Y049686D01*
X065041Y049606D01*
X064961Y049526D01*
X064881Y049606D01*
X0637Y047244D02*
X06378Y047324D01*
X06386Y047244D01*
X06378Y047164D01*
X0637Y047244D01*
Y04252D02*
X06378Y0426D01*
X06386Y04252D01*
X06378Y04244D01*
X0637Y04252D01*
X064881Y030709D02*
X064961Y030789D01*
X065041Y030709D01*
X064961Y030629D01*
X064881Y030709D01*
X062518Y068504D02*
X062598Y068584D01*
X062678Y068504D01*
X062598Y068424D01*
X062518Y068504D01*
X061337Y066142D02*
X061417Y066222D01*
X061497Y066142D01*
X061417Y066062D01*
X061337Y066142D01*
X062518Y06378D02*
X062598Y06386D01*
X062678Y06378D01*
X062598Y0637D01*
X062518Y06378D01*
X061337Y061417D02*
X061417Y061497D01*
X061497Y061417D01*
X061417Y061337D01*
X061337Y061417D01*
X062518Y059055D02*
X062598Y059135D01*
X062678Y059055D01*
X062598Y058975D01*
X062518Y059055D01*
X061337Y056693D02*
X061417Y056773D01*
X061497Y056693D01*
X061417Y056613D01*
X061337Y056693D01*
X062518Y054331D02*
X062598Y054411D01*
X062678Y054331D01*
X062598Y054251D01*
X062518Y054331D01*
X061337Y051969D02*
X061417Y052049D01*
X061497Y051969D01*
X061417Y051889D01*
X061337Y051969D01*
X060156Y068504D02*
X060236Y068584D01*
X060316Y068504D01*
X060236Y068424D01*
X060156Y068504D01*
X058975Y061417D02*
X059055Y061497D01*
X059135Y061417D01*
X059055Y061337D01*
X058975Y061417D01*
Y04252D02*
X059055Y0426D01*
X059135Y04252D01*
X059055Y04244D01*
X058975Y04252D01*
X056613Y066142D02*
X056693Y066222D01*
X056773Y066142D01*
X056693Y066062D01*
X056613Y066142D01*
X057794Y06378D02*
X057874Y06386D01*
X057954Y06378D01*
X057874Y0637D01*
X057794Y06378D01*
X056613Y061417D02*
X056693Y061497D01*
X056773Y061417D01*
X056693Y061337D01*
X056613Y061417D01*
X057794Y059055D02*
X057874Y059135D01*
X057954Y059055D01*
X057874Y058975D01*
X057794Y059055D01*
X056613Y056693D02*
X056693Y056773D01*
X056773Y056693D01*
X056693Y056613D01*
X056613Y056693D01*
X057794Y054331D02*
X057874Y054411D01*
X057954Y054331D01*
X057874Y054251D01*
X057794Y054331D01*
Y049606D02*
X057874Y049686D01*
X057954Y049606D01*
X057874Y049526D01*
X057794Y049606D01*
X054251Y066142D02*
X054331Y066222D01*
X054411Y066142D01*
X054331Y066062D01*
X054251Y066142D01*
X055432Y06378D02*
X055512Y06386D01*
X055592Y06378D01*
X055512Y0637D01*
X055432Y06378D01*
X054251Y061417D02*
X054331Y061497D01*
X054411Y061417D01*
X054331Y061337D01*
X054251Y061417D01*
X051889Y066142D02*
X051969Y066222D01*
X052049Y066142D01*
X051969Y066062D01*
X051889Y066142D01*
X05307Y06378D02*
X05315Y06386D01*
X05323Y06378D01*
X05315Y0637D01*
X05307Y06378D01*
X051889Y061417D02*
X051969Y061497D01*
X052049Y061417D01*
X051969Y061337D01*
X051889Y061417D01*
Y051969D02*
X051969Y052049D01*
X052049Y051969D01*
X051969Y051889D01*
X051889Y051969D01*
X05307Y049606D02*
X05315Y049686D01*
X05323Y049606D01*
X05315Y049526D01*
X05307Y049606D01*
X051889Y047244D02*
X051969Y047324D01*
X052049Y047244D01*
X051969Y047164D01*
X051889Y047244D01*
X049526Y066142D02*
X049606Y066222D01*
X049686Y066142D01*
X049606Y066062D01*
X049526Y066142D01*
X050707Y06378D02*
X050787Y06386D01*
X050867Y06378D01*
X050787Y0637D01*
X050707Y06378D01*
X049526Y061417D02*
X049606Y061497D01*
X049686Y061417D01*
X049606Y061337D01*
X049526Y061417D01*
Y056693D02*
X049606Y056773D01*
X049686Y056693D01*
X049606Y056613D01*
X049526Y056693D01*
X050707Y054331D02*
X050787Y054411D01*
X050867Y054331D01*
X050787Y054251D01*
X050707Y054331D01*
X049526Y051969D02*
X049606Y052049D01*
X049686Y051969D01*
X049606Y051889D01*
X049526Y051969D01*
X050707Y049606D02*
X050787Y049686D01*
X050867Y049606D01*
X050787Y049526D01*
X050707Y049606D01*
X049526Y047244D02*
X049606Y047324D01*
X049686Y047244D01*
X049606Y047164D01*
X049526Y047244D01*
X047164Y066142D02*
X047244Y066222D01*
X047324Y066142D01*
X047244Y066062D01*
X047164Y066142D01*
X048345Y06378D02*
X048425Y06386D01*
X048505Y06378D01*
X048425Y0637D01*
X048345Y06378D01*
X047164Y061417D02*
X047244Y061497D01*
X047324Y061417D01*
X047244Y061337D01*
X047164Y061417D01*
Y051969D02*
X047244Y052049D01*
X047324Y051969D01*
X047244Y051889D01*
X047164Y051969D01*
X048345Y049606D02*
X048425Y049686D01*
X048505Y049606D01*
X048425Y049526D01*
X048345Y049606D01*
Y030709D02*
X048425Y030789D01*
X048505Y030709D01*
X048425Y030629D01*
X048345Y030709D01*
X047164Y028346D02*
X047244Y028426D01*
X047324Y028346D01*
X047244Y028266D01*
X047164Y028346D01*
X044802Y066142D02*
X044882Y066222D01*
X044962Y066142D01*
X044882Y066062D01*
X044802Y066142D01*
X045983Y06378D02*
X046063Y06386D01*
X046143Y06378D01*
X046063Y0637D01*
X045983Y06378D01*
X044802Y061417D02*
X044882Y061497D01*
X044962Y061417D01*
X044882Y061337D01*
X044802Y061417D01*
X045983Y054331D02*
X046063Y054411D01*
X046143Y054331D01*
X046063Y054251D01*
X045983Y054331D01*
X044802Y051969D02*
X044882Y052049D01*
X044962Y051969D01*
X044882Y051889D01*
X044802Y051969D01*
Y047244D02*
X044882Y047324D01*
X044962Y047244D01*
X044882Y047164D01*
X044802Y047244D01*
Y04252D02*
X044882Y0426D01*
X044962Y04252D01*
X044882Y04244D01*
X044802Y04252D01*
Y037795D02*
X044882Y037875D01*
X044962Y037795D01*
X044882Y037715D01*
X044802Y037795D01*
Y028346D02*
X044882Y028426D01*
X044962Y028346D01*
X044882Y028266D01*
X044802Y028346D01*
X04244Y066142D02*
X04252Y066222D01*
X0426Y066142D01*
X04252Y066062D01*
X04244Y066142D01*
X043621Y06378D02*
X043701Y06386D01*
X043781Y06378D01*
X043701Y0637D01*
X043621Y06378D01*
X04244Y061417D02*
X04252Y061497D01*
X0426Y061417D01*
X04252Y061337D01*
X04244Y061417D01*
X043621Y054331D02*
X043701Y054411D01*
X043781Y054331D01*
X043701Y054251D01*
X043621Y054331D01*
Y049606D02*
X043701Y049686D01*
X043781Y049606D01*
X043701Y049526D01*
X043621Y049606D01*
Y044882D02*
X043701Y044962D01*
X043781Y044882D01*
X043701Y044802D01*
X043621Y044882D01*
X04244Y037795D02*
X04252Y037875D01*
X0426Y037795D01*
X04252Y037715D01*
X04244Y037795D01*
X040077Y066142D02*
X040157Y066222D01*
X040237Y066142D01*
X040157Y066062D01*
X040077Y066142D01*
Y061417D02*
X040157Y061497D01*
X040237Y061417D01*
X040157Y061337D01*
X040077Y061417D01*
X041259Y054331D02*
X041339Y054411D01*
X041419Y054331D01*
X041339Y054251D01*
X041259Y054331D01*
Y049606D02*
X041339Y049686D01*
X041419Y049606D01*
X041339Y049526D01*
X041259Y049606D01*
X037715Y066142D02*
X037795Y066222D01*
X037875Y066142D01*
X037795Y066062D01*
X037715Y066142D01*
X038896Y06378D02*
X038976Y06386D01*
X039056Y06378D01*
X038976Y0637D01*
X038896Y06378D01*
X037715Y061417D02*
X037795Y061497D01*
X037875Y061417D01*
X037795Y061337D01*
X037715Y061417D01*
X038896Y049606D02*
X038976Y049686D01*
X039056Y049606D01*
X038976Y049526D01*
X038896Y049606D01*
X036534Y06378D02*
X036614Y06386D01*
X036694Y06378D01*
X036614Y0637D01*
X036534Y06378D01*
X035353Y061417D02*
X035433Y061497D01*
X035513Y061417D01*
X035433Y061337D01*
X035353Y061417D01*
X036534Y049606D02*
X036614Y049686D01*
X036694Y049606D01*
X036614Y049526D01*
X036534Y049606D01*
X032991Y066142D02*
X033071Y066222D01*
X033151Y066142D01*
X033071Y066062D01*
X032991Y066142D01*
Y061417D02*
X033071Y061497D01*
X033151Y061417D01*
X033071Y061337D01*
X032991Y061417D01*
X034172Y049606D02*
X034252Y049686D01*
X034332Y049606D01*
X034252Y049526D01*
X034172Y049606D01*
X030629Y066142D02*
X030709Y066222D01*
X030789Y066142D01*
X030709Y066062D01*
X030629Y066142D01*
Y061417D02*
X030709Y061497D01*
X030789Y061417D01*
X030709Y061337D01*
X030629Y061417D01*
X03181Y049606D02*
X03189Y049686D01*
X03197Y049606D01*
X03189Y049526D01*
X03181Y049606D01*
X029448D02*
X029528Y049686D01*
X029608Y049606D01*
X029528Y049526D01*
X029448Y049606D01*
X025904Y061417D02*
X025984Y061497D01*
X026064Y061417D01*
X025984Y061337D01*
X025904Y061417D01*
Y051969D02*
X025984Y052049D01*
X026064Y051969D01*
X025984Y051889D01*
X025904Y051969D01*
X024723Y06378D02*
X024803Y06386D01*
X024883Y06378D01*
X024803Y0637D01*
X024723Y06378D01*
X023542Y061417D02*
X023622Y061497D01*
X023702Y061417D01*
X023622Y061337D01*
X023542Y061417D01*
X024723Y049606D02*
X024803Y049686D01*
X024883Y049606D01*
X024803Y049526D01*
X024723Y049606D01*
Y040157D02*
X024803Y040237D01*
X024883Y040157D01*
X024803Y040077D01*
X024723Y040157D01*
X022361Y06378D02*
X022441Y06386D01*
X022521Y06378D01*
X022441Y0637D01*
X022361Y06378D01*
X02118Y061417D02*
X02126Y061497D01*
X02134Y061417D01*
X02126Y061337D01*
X02118Y061417D01*
X018818Y066142D02*
X018898Y066222D01*
X018978Y066142D01*
X018898Y066062D01*
X018818Y066142D01*
X019999Y06378D02*
X020079Y06386D01*
X020159Y06378D01*
X020079Y0637D01*
X019999Y06378D01*
X018818Y061417D02*
X018898Y061497D01*
X018978Y061417D01*
X018898Y061337D01*
X018818Y061417D01*
X016455Y066142D02*
X016535Y066222D01*
X016615Y066142D01*
X016535Y066062D01*
X016455Y066142D01*
X017637Y06378D02*
X017717Y06386D01*
X017797Y06378D01*
X017717Y0637D01*
X017637Y06378D01*
X016455Y061417D02*
X016535Y061497D01*
X016615Y061417D01*
X016535Y061337D01*
X016455Y061417D01*
X015274Y059055D02*
X015354Y059135D01*
X015434Y059055D01*
X015354Y058975D01*
X015274Y059055D01*
X014093Y056693D02*
X014173Y056773D01*
X014253Y056693D01*
X014173Y056613D01*
X014093Y056693D01*
X015274Y054331D02*
X015354Y054411D01*
X015434Y054331D01*
X015354Y054251D01*
X015274Y054331D01*
X014093Y051969D02*
X014173Y052049D01*
X014253Y051969D01*
X014173Y051889D01*
X014093Y051969D01*
X015274Y049606D02*
X015354Y049686D01*
X015434Y049606D01*
X015354Y049526D01*
X015274Y049606D01*
X014093Y047244D02*
X014173Y047324D01*
X014253Y047244D01*
X014173Y047164D01*
X014093Y047244D01*
X015274Y030709D02*
X015354Y030789D01*
X015434Y030709D01*
X015354Y030629D01*
X015274Y030709D01*
X011731Y033071D02*
X011811Y033151D01*
X011891Y033071D01*
X011811Y032991D01*
X011731Y033071D01*
Y028346D02*
X011811Y028426D01*
X011891Y028346D01*
X011811Y028266D01*
X011731Y028346D01*
X05262Y03635D02*
X0527Y03643D01*
X05278Y03635D01*
X0527Y03627D01*
X05262Y03635D01*
X05297Y04055D02*
X05305Y04063D01*
X05313Y04055D01*
X05305Y04047D01*
X05297Y04055D01*
X04522Y0438D02*
X0453Y04388D01*
X04538Y0438D01*
X0453Y04372D01*
X04522Y0438D01*
X04237Y03955D02*
X04245Y03963D01*
X04253Y03955D01*
X04245Y03947D01*
X04237Y03955D01*
X02527Y0376D02*
X02535Y03768D01*
X02543Y0376D01*
X02535Y03752D01*
X02527Y0376D01*
X02622Y0318D02*
X0263Y03188D01*
X02638Y0318D01*
X0263Y03172D01*
X02622Y0318D01*
X06222Y04865D02*
X0623Y04873D01*
X06238Y04865D01*
X0623Y04857D01*
X06222Y04865D01*
X07142Y0354D02*
X0715Y03548D01*
X07158Y0354D01*
X0715Y03532D01*
X07142Y0354D01*
X05887Y03845D02*
X05895Y03853D01*
X05903Y03845D01*
X05895Y03837D01*
X05887Y03845D01*
X05792Y0427D02*
X058Y04278D01*
X05808Y0427D01*
X058Y04262D01*
X05792Y0427D01*
X05387Y0421D02*
X05395Y04218D01*
X05403Y0421D01*
X05395Y04202D01*
X05387Y0421D01*
X07147Y04205D02*
X07155Y04213D01*
X07163Y04205D01*
X07155Y04197D01*
X07147Y04205D01*
X060688Y0348D02*
X060768Y03488D01*
X060848Y0348D01*
X060768Y03472D01*
X060688Y0348D01*
X03567Y0316D02*
X03575Y03168D01*
X03583Y0316D01*
X03575Y03152D01*
X03567Y0316D01*
X06002Y04515D02*
X0601Y04523D01*
X06018Y04515D01*
X0601Y04507D01*
X06002Y04515D01*
X06172Y04445D02*
X0618Y04453D01*
X06188Y04445D01*
X0618Y04437D01*
X06172Y04445D01*
X06097Y04515D02*
X06105Y04523D01*
X06113Y04515D01*
X06105Y04507D01*
X06097Y04515D01*
X06222Y0452D02*
X0623Y04528D01*
X06238Y0452D01*
X0623Y04512D01*
X06222Y0452D01*
X06717Y03775D02*
X06725Y03783D01*
X06733Y03775D01*
X06725Y03767D01*
X06717Y03775D01*
X056382Y040163D02*
X056462Y040243D01*
X056543Y040163D01*
X056462Y040083D01*
X056382Y040163D01*
X04282Y0394D02*
X0429Y03948D01*
X04298Y0394D01*
X0429Y03932D01*
X04282Y0394D01*
X04337Y0389D02*
X04345Y03898D01*
X04353Y0389D01*
X04345Y03882D01*
X04337Y0389D01*
X02277Y0659D02*
X02285Y06598D01*
X02293Y0659D01*
X02285Y06582D01*
X02277Y0659D01*
Y06695D02*
X02285Y06703D01*
X02293Y06695D01*
X02285Y06687D01*
X02277Y06695D01*
X02167D02*
X02175Y06703D01*
X02183Y06695D01*
X02175Y06687D01*
X02167Y06695D01*
X04032Y03165D02*
X0404Y03173D01*
X04048Y03165D01*
X0404Y03157D01*
X04032Y03165D01*
X04187Y04675D02*
X04195Y04683D01*
X04203Y04675D01*
X04195Y04667D01*
X04187Y04675D01*
X04192Y04745D02*
X042Y04753D01*
X04208Y04745D01*
X042Y04737D01*
X04192Y04745D01*
X04242Y04705D02*
X0425Y04713D01*
X04258Y04705D01*
X0425Y04697D01*
X04242Y04705D01*
X02897Y0641D02*
X02905Y06418D01*
X02913Y0641D01*
X02905Y06402D01*
X02897Y0641D01*
X02962Y06325D02*
X0297Y06333D01*
X02978Y06325D01*
X0297Y06317D01*
X02962Y06325D01*
X03007Y0641D02*
X03015Y06418D01*
X03023Y0641D01*
X03015Y06402D01*
X03007Y0641D01*
X02727D02*
X02735Y06418D01*
X02743Y0641D01*
X02735Y06402D01*
X02727Y0641D01*
X03072Y06325D02*
X0308Y06333D01*
X03088Y06325D01*
X0308Y06317D01*
X03072Y06325D01*
X02752Y0633D02*
X0276Y06338D01*
X02768Y0633D01*
X0276Y06322D01*
X02752Y0633D01*
X01312Y0636D02*
X0132Y06368D01*
X01328Y0636D01*
X0132Y06352D01*
X01312Y0636D01*
X02162Y0658D02*
X0217Y06588D01*
X02178Y0658D01*
X0217Y06572D01*
X02162Y0658D01*
X01247Y0643D02*
X01255Y06438D01*
X01263Y0643D01*
X01255Y06422D01*
X01247Y0643D01*
X01242Y03575D02*
X0125Y03583D01*
X01258Y03575D01*
X0125Y03567D01*
X01242Y03575D01*
X01352Y03585D02*
X0136Y03593D01*
X01368Y03585D01*
X0136Y03577D01*
X01352Y03585D01*
X01302Y0355D02*
X0131Y03558D01*
X01318Y0355D01*
X0131Y03542D01*
X01302Y0355D01*
X01367Y03455D02*
X01375Y03463D01*
X01383Y03455D01*
X01375Y03447D01*
X01367Y03455D01*
X01242Y0346D02*
X0125Y03468D01*
X01258Y0346D01*
X0125Y03452D01*
X01242Y0346D01*
X01582Y0349D02*
X0159Y03498D01*
X01598Y0349D01*
X0159Y03482D01*
X01582Y0349D01*
Y03365D02*
X0159Y03373D01*
X01598Y03365D01*
X0159Y03357D01*
X01582Y03365D01*
X014982Y033662D02*
X015062Y033742D01*
X015142Y033662D01*
X015062Y033582D01*
X014982Y033662D01*
X01502Y0348D02*
X0151Y03488D01*
X01518Y0348D01*
X0151Y03472D01*
X01502Y0348D01*
X01497Y0362D02*
X01505Y03628D01*
X01513Y0362D01*
X01505Y03612D01*
X01497Y0362D01*
X01702Y03615D02*
X0171Y03623D01*
X01718Y03615D01*
X0171Y03607D01*
X01702Y03615D01*
X02407Y0311D02*
X02415Y03118D01*
X02423Y0311D01*
X02415Y03102D01*
X02407Y0311D01*
Y03015D02*
X02415Y03023D01*
X02423Y03015D01*
X02415Y03007D01*
X02407Y03015D01*
X07322Y04585D02*
X0733Y04593D01*
X07338Y04585D01*
X0733Y04577D01*
X07322Y04585D01*
X064945Y034825D02*
X065025Y034905D01*
X065105Y034825D01*
X065025Y034745D01*
X064945Y034825D01*
X05182Y03475D02*
X0519Y03483D01*
X05198Y03475D01*
X0519Y03467D01*
X05182Y03475D01*
X05087Y0348D02*
X05095Y03488D01*
X05103Y0348D01*
X05095Y03472D01*
X05087Y0348D01*
X04992D02*
X05Y03488D01*
X05008Y0348D01*
X05Y03472D01*
X04992Y0348D01*
X04892D02*
X049Y03488D01*
X04908Y0348D01*
X049Y03472D01*
X04892Y0348D01*
X05857Y0403D02*
X05865Y04038D01*
X05873Y0403D01*
X05865Y04022D01*
X05857Y0403D01*
X05472Y04475D02*
X0548Y04483D01*
X05488Y04475D01*
X0548Y04467D01*
X05472Y04475D01*
X05527Y0474D02*
X05535Y04748D01*
X05543Y0474D01*
X05535Y04732D01*
X05527Y0474D01*
X05337Y0473D02*
X05345Y04738D01*
X05353Y0473D01*
X05345Y04722D01*
X05337Y0473D01*
X05807Y04735D02*
X05815Y04743D01*
X05823Y04735D01*
X05815Y04727D01*
X05807Y04735D01*
X03487Y0399D02*
X03495Y03998D01*
X03503Y0399D01*
X03495Y03982D01*
X03487Y0399D01*
X02697Y04D02*
X02705Y04008D01*
X02713Y04D01*
X02705Y03992D01*
X02697Y04D01*
X05562Y03965D02*
X0557Y03973D01*
X05578Y03965D01*
X0557Y03957D01*
X05562Y03965D01*
X02132Y056D02*
X0214Y05608D01*
X02148Y056D01*
X0214Y05592D01*
X02132Y056D01*
X021397Y059707D02*
X021477Y059787D01*
X021557Y059707D01*
X021477Y059627D01*
X021397Y059707D01*
X05697Y04475D02*
X05705Y04483D01*
X05713Y04475D01*
X05705Y04467D01*
X05697Y04475D01*
X05772Y03975D02*
X0578Y03983D01*
X05788Y03975D01*
X0578Y03967D01*
X05772Y03975D01*
X03772Y0318D02*
X0378Y03188D01*
X03788Y0318D01*
X0378Y03172D01*
X03772Y0318D01*
X03302Y0319D02*
X0331Y03198D01*
X03318Y0319D01*
X0331Y03182D01*
X03302Y0319D01*
X02952Y03175D02*
X0296Y03183D01*
X02968Y03175D01*
X0296Y03167D01*
X02952Y03175D01*
X03762Y0399D02*
X0377Y03998D01*
X03778Y0399D01*
X0377Y03982D01*
X03762Y0399D01*
X03197Y0398D02*
X03205Y03988D01*
X03213Y0398D01*
X03205Y03972D01*
X03197Y0398D01*
X02907Y03995D02*
X02915Y04003D01*
X02923Y03995D01*
X02915Y03987D01*
X02907Y03995D01*
X01577Y03575D02*
X01585Y03583D01*
X01593Y03575D01*
X01585Y03567D01*
X01577Y03575D01*
X07147Y04285D02*
X07155Y04293D01*
X07163Y04285D01*
X07155Y04277D01*
X07147Y04285D01*
Y0447D02*
X07155Y04478D01*
X07163Y0447D01*
X07155Y04462D01*
X07147Y0447D01*
X06592Y0348D02*
X066Y03488D01*
X06608Y0348D01*
X066Y03472D01*
X06592Y0348D01*
X06422D02*
X0643Y03488D01*
X06438Y0348D01*
X0643Y03472D01*
X06422Y0348D01*
X06332D02*
X0634Y03488D01*
X06348Y0348D01*
X0634Y03472D01*
X06332Y0348D01*
X06162D02*
X0617Y03488D01*
X06178Y0348D01*
X0617Y03472D01*
X06162Y0348D01*
X05982D02*
X0599Y03488D01*
X05998Y0348D01*
X0599Y03472D01*
X05982Y0348D01*
X05897D02*
X05905Y03488D01*
X05913Y0348D01*
X05905Y03472D01*
X05897Y0348D01*
X012507Y03112D02*
Y03128D01*
X012667D01*
Y03112D01*
X012507D01*
X012547Y03116D02*
Y03124D01*
X012627D01*
Y03116D01*
X012547D01*
X076283Y03112D02*
Y03128D01*
X076443D01*
Y03112D01*
X076283D01*
X076323Y03116D02*
Y03124D01*
X076403D01*
Y03116D01*
X076323D01*
X076283Y06697D02*
Y06713D01*
X076443D01*
Y06697D01*
X076283D01*
X076323Y06701D02*
Y06709D01*
X076403D01*
Y06701D01*
X076323D01*
X012507Y06702D02*
Y06718D01*
X012667D01*
Y06702D01*
X012507D01*
X012547Y06706D02*
Y06714D01*
X012627D01*
Y06706D01*
X012547D01*
D104*
X033458Y028131D02*
G03*
X033458Y028131I-00008J0D01*
G01*
X034004Y029249D02*
G03*
X034004Y029249I-00008J0D01*
G01*
X034549Y028131D02*
G03*
X034549Y028131I-00008J0D01*
G01*
X035094Y029249D02*
G03*
X035094Y029249I-00008J0D01*
G01*
X035639Y028131D02*
G03*
X035639Y028131I-00008J0D01*
G01*
X036185Y029249D02*
G03*
X036185Y029249I-00008J0D01*
G01*
X03673Y028131D02*
G03*
X03673Y028131I-00008J0D01*
G01*
X037275Y029249D02*
G03*
X037275Y029249I-00008J0D01*
G01*
X037821Y028131D02*
G03*
X037821Y028131I-00008J0D01*
G01*
X038366Y029249D02*
G03*
X038366Y029249I-00008J0D01*
G01*
X038911Y028131D02*
G03*
X038911Y028131I-00008J0D01*
G01*
X039456Y029249D02*
G03*
X039456Y029249I-00008J0D01*
G01*
X040002Y028131D02*
G03*
X040002Y028131I-00008J0D01*
G01*
X040542Y029251D02*
G03*
X040542Y029251I-00008J0D01*
G01*
X032913Y029249D02*
G03*
X032913Y029249I-00008J0D01*
G01*
X017175Y028131D02*
G03*
X017175Y028131I-00008J0D01*
G01*
X017721Y029249D02*
G03*
X017721Y029249I-00008J0D01*
G01*
X018266Y028131D02*
G03*
X018266Y028131I-00008J0D01*
G01*
X018811Y029249D02*
G03*
X018811Y029249I-00008J0D01*
G01*
X019356Y028131D02*
G03*
X019356Y028131I-00008J0D01*
G01*
X019902Y029249D02*
G03*
X019902Y029249I-00008J0D01*
G01*
X020447Y028131D02*
G03*
X020447Y028131I-00008J0D01*
G01*
X020992Y029249D02*
G03*
X020992Y029249I-00008J0D01*
G01*
X021537Y028131D02*
G03*
X021537Y028131I-00008J0D01*
G01*
X022083Y029249D02*
G03*
X022083Y029249I-00008J0D01*
G01*
X022628Y028131D02*
G03*
X022628Y028131I-00008J0D01*
G01*
X023173Y029249D02*
G03*
X023173Y029249I-00008J0D01*
G01*
X023719Y028131D02*
G03*
X023719Y028131I-00008J0D01*
G01*
X024259Y029251D02*
G03*
X024259Y029251I-00008J0D01*
G01*
X01663Y029249D02*
G03*
X01663Y029249I-00008J0D01*
G01*
X072121Y029242D02*
G03*
X072121Y029242I-00008J0D01*
G01*
X071576Y028124D02*
G03*
X071576Y028124I-00008J0D01*
G01*
X071031Y029242D02*
G03*
X071031Y029242I-00008J0D01*
G01*
X070486Y028124D02*
G03*
X070486Y028124I-00008J0D01*
G01*
X068304D02*
G03*
X068304Y028124I-00008J0D01*
G01*
X06885Y029242D02*
G03*
X06885Y029242I-00008J0D01*
G01*
X069395Y028124D02*
G03*
X069395Y028124I-00008J0D01*
G01*
X06994Y029242D02*
G03*
X06994Y029242I-00008J0D01*
G01*
X066123Y028124D02*
G03*
X066123Y028124I-00008J0D01*
G01*
X066669Y029242D02*
G03*
X066669Y029242I-00008J0D01*
G01*
X067214Y028124D02*
G03*
X067214Y028124I-00008J0D01*
G01*
X067759Y029242D02*
G03*
X067759Y029242I-00008J0D01*
G01*
X061761Y028124D02*
G03*
X061761Y028124I-00008J0D01*
G01*
X062306Y029242D02*
G03*
X062306Y029242I-00008J0D01*
G01*
X062852Y028124D02*
G03*
X062852Y028124I-00008J0D01*
G01*
X065578Y029242D02*
G03*
X065578Y029242I-00008J0D01*
G01*
X060671Y028124D02*
G03*
X060671Y028124I-00008J0D01*
G01*
X061216Y029242D02*
G03*
X061216Y029242I-00008J0D01*
G01*
X063942Y028124D02*
G03*
X063942Y028124I-00008J0D01*
G01*
X064487Y029242D02*
G03*
X064487Y029242I-00008J0D01*
G01*
X065033Y028124D02*
G03*
X065033Y028124I-00008J0D01*
G01*
X063396Y029242D02*
G03*
X063396Y029242I-00008J0D01*
G01*
X052491Y029242D02*
G03*
X052491Y029242I-00008J0D01*
G01*
X060125Y029242D02*
G03*
X060125Y029242I-00008J0D01*
G01*
X05958Y028124D02*
G03*
X05958Y028124I-00008J0D01*
G01*
X059035Y029242D02*
G03*
X059035Y029242I-00008J0D01*
G01*
X058489Y028124D02*
G03*
X058489Y028124I-00008J0D01*
G01*
X057944Y029242D02*
G03*
X057944Y029242I-00008J0D01*
G01*
X057399Y028124D02*
G03*
X057399Y028124I-00008J0D01*
G01*
X056854Y029242D02*
G03*
X056854Y029242I-00008J0D01*
G01*
X056308Y028124D02*
G03*
X056308Y028124I-00008J0D01*
G01*
X055763Y029242D02*
G03*
X055763Y029242I-00008J0D01*
G01*
X055218Y028124D02*
G03*
X055218Y028124I-00008J0D01*
G01*
X054673Y029242D02*
G03*
X054673Y029242I-00008J0D01*
G01*
X054127Y028124D02*
G03*
X054127Y028124I-00008J0D01*
G01*
X053582Y029242D02*
G03*
X053582Y029242I-00008J0D01*
G01*
X053037Y028124D02*
G03*
X053037Y028124I-00008J0D01*
G01*
M02*
