G04*
G04 #@! TF.GenerationSoftware,Altium Limited,Altium Designer,20.0.13 (296)*
G04*
G04 Layer_Color=16711935*
%FSTAX24Y24*%
%MOIN*%
G70*
G01*
G75*
%ADD15C,0.0039*%
D15*
X054602Y036587D02*
G03*
X054602Y036587I-000197J0D01*
G01*
X057185Y04245D02*
G03*
X057185Y04245I-000197J0D01*
G01*
X051285Y043113D02*
G03*
X051285Y043113I-000197J0D01*
G01*
X068352Y036987D02*
G03*
X068352Y036987I-000197J0D01*
G01*
X057813Y040956D02*
X058187D01*
X057813Y041644D02*
X058187D01*
X057813Y040956D02*
Y041644D01*
X058187Y040956D02*
Y041644D01*
X053456Y044563D02*
X054144D01*
X053456Y044937D02*
X054144D01*
Y044563D02*
Y044937D01*
X053456Y044563D02*
Y044937D01*
X047163Y045556D02*
Y046244D01*
X047537Y045556D02*
Y046244D01*
X047163Y045556D02*
X047537D01*
X047163Y046244D02*
X047537D01*
X058206Y044613D02*
X058894D01*
X058206Y044987D02*
X058894D01*
Y044613D02*
Y044987D01*
X058206Y044613D02*
Y044987D01*
X055556Y044513D02*
X056244D01*
X055556Y044887D02*
X056244D01*
Y044513D02*
Y044887D01*
X055556Y044513D02*
Y044887D01*
X061606Y043637D02*
X062294D01*
X061606Y043263D02*
X062294D01*
X061606D02*
Y043637D01*
X062294Y043263D02*
Y043637D01*
X061556Y047887D02*
X062244D01*
X061556Y047513D02*
X062244D01*
X061556D02*
Y047887D01*
X062244Y047513D02*
Y047887D01*
X061556Y046137D02*
X062244D01*
X061556Y045763D02*
X062244D01*
X061556D02*
Y046137D01*
X062244Y045763D02*
Y046137D01*
Y046513D02*
Y046887D01*
X061556Y046513D02*
Y046887D01*
Y046513D02*
X062244D01*
X061556Y046887D02*
X062244D01*
X032913Y030506D02*
Y031194D01*
X033287Y030506D02*
Y031194D01*
X032913D02*
X033287D01*
X032913Y030506D02*
X033287D01*
X028737Y040656D02*
Y041344D01*
X028363Y040656D02*
Y041344D01*
Y040656D02*
X028737D01*
X028363Y041344D02*
X028737D01*
X034462Y040656D02*
Y041344D01*
X034088Y040656D02*
Y041344D01*
Y040656D02*
X034462D01*
X034088Y041344D02*
X034462D01*
X040387Y040656D02*
Y041344D01*
X040013Y040656D02*
Y041344D01*
Y040656D02*
X040387D01*
X040013Y041344D02*
X040387D01*
X029413Y030456D02*
Y031144D01*
X029787Y030456D02*
Y031144D01*
X029413D02*
X029787D01*
X029413Y030456D02*
X029787D01*
X026113D02*
Y031144D01*
X026487Y030456D02*
Y031144D01*
X026113D02*
X026487D01*
X026113Y030456D02*
X026487D01*
X044737Y035156D02*
Y035844D01*
X044363Y035156D02*
Y035844D01*
Y035156D02*
X044737D01*
X044363Y035844D02*
X044737D01*
X053213Y038844D02*
X053587D01*
X053213Y038156D02*
X053587D01*
Y038844D01*
X053213Y038156D02*
Y038844D01*
X054051Y036232D02*
X057949D01*
X054051Y037768D02*
X057949D01*
X054051Y036232D02*
Y037768D01*
X057949Y036232D02*
Y037768D01*
X053957Y042805D02*
X057343D01*
X053957Y041269D02*
X057343D01*
Y042805D01*
X053957Y041269D02*
Y042805D01*
X051956Y041463D02*
Y041837D01*
X052644Y041463D02*
Y041837D01*
X051956D02*
X052644D01*
X051956Y041463D02*
X052644D01*
X048057Y043468D02*
X051443D01*
X048057Y041932D02*
X051443D01*
Y043468D01*
X048057Y041932D02*
Y043468D01*
X025622Y064281D02*
Y066919D01*
X027078Y064281D02*
Y066919D01*
X025622D02*
X027078D01*
X025622Y064281D02*
X027078D01*
X036587Y046356D02*
Y047044D01*
X036213Y046356D02*
Y047044D01*
Y046356D02*
X036587D01*
X036213Y047044D02*
X036587D01*
X036637Y038556D02*
Y039244D01*
X036263Y038556D02*
Y039244D01*
Y038556D02*
X036637D01*
X036263Y039244D02*
X036637D01*
X033687Y046356D02*
Y047044D01*
X033313Y046356D02*
Y047044D01*
Y046356D02*
X033687D01*
X033313Y047044D02*
X033687D01*
X033787Y038506D02*
Y039194D01*
X033413Y038506D02*
Y039194D01*
Y038506D02*
X033787D01*
X033413Y039194D02*
X033787D01*
X030787Y046306D02*
Y046994D01*
X030413Y046306D02*
Y046994D01*
Y046306D02*
X030787D01*
X030413Y046994D02*
X030787D01*
X030887Y038506D02*
Y039194D01*
X030513Y038506D02*
Y039194D01*
Y038506D02*
X030887D01*
X030513Y039194D02*
X030887D01*
X028037Y046306D02*
Y046994D01*
X027663Y046306D02*
Y046994D01*
Y046306D02*
X028037D01*
X027663Y046994D02*
X028037D01*
X041987Y038556D02*
Y039244D01*
X041613Y038556D02*
Y039244D01*
Y038556D02*
X041987D01*
X041613Y039244D02*
X041987D01*
X039337Y046356D02*
Y047044D01*
X038963Y046356D02*
Y047044D01*
Y046356D02*
X039337D01*
X038963Y047044D02*
X039337D01*
X039387Y038506D02*
Y039194D01*
X039013Y038506D02*
Y039194D01*
Y038506D02*
X039387D01*
X039013Y039194D02*
X039387D01*
X027937Y038506D02*
Y039194D01*
X027563Y038506D02*
Y039194D01*
Y038506D02*
X027937D01*
X027563Y039194D02*
X027937D01*
X067801Y036632D02*
X071699D01*
X067801Y038168D02*
X071699D01*
X067801Y036632D02*
Y038168D01*
X071699Y036632D02*
Y038168D01*
X029113Y065594D02*
X029487D01*
X029113Y064906D02*
X029487D01*
Y065594D01*
X029113Y064906D02*
Y065594D01*
X066556Y038313D02*
X067244D01*
X066556Y038687D02*
X067244D01*
Y038313D02*
Y038687D01*
X066556Y038313D02*
Y038687D01*
X023063Y065056D02*
Y065744D01*
X023437Y065056D02*
Y065744D01*
X023063Y065056D02*
X023437D01*
X023063Y065744D02*
X023437D01*
M02*
