G04*
G04 #@! TF.GenerationSoftware,Altium Limited,Altium Designer,20.0.13 (296)*
G04*
G04 Layer_Color=8421504*
%FSTAX24Y24*%
%MOIN*%
G70*
G01*
G75*
%ADD22R,0.0500X0.0550*%
%ADD23R,0.0550X0.0500*%
%ADD24R,0.0472X0.0433*%
%ADD25R,0.0433X0.0315*%
%ADD26R,0.0433X0.0472*%
%ADD27O,0.1400X0.0591*%
%ADD28R,0.1400X0.0591*%
%ADD29R,0.0512X0.0591*%
%ADD30R,0.0315X0.0433*%
%ADD31O,0.0217X0.0709*%
%ADD32R,0.1299X0.0945*%
%ADD33R,0.0394X0.0945*%
%ADD34R,0.0591X0.0512*%
%ADD35O,0.0217X0.0787*%
%ADD36O,0.0217X0.0800*%
%ADD37R,0.3346X0.0472*%
%ADD38R,0.0472X0.3346*%
D22*
X06885Y0413D02*
D03*
X06795D02*
D03*
X06885Y0421D02*
D03*
X06795D02*
D03*
X06885Y04295D02*
D03*
X06795D02*
D03*
X06885Y0438D02*
D03*
X06795D02*
D03*
X06885Y04465D02*
D03*
X06795D02*
D03*
X0688Y0455D02*
D03*
X0679D02*
D03*
X0688Y04635D02*
D03*
X0679D02*
D03*
X0688Y0472D02*
D03*
X0679D02*
D03*
X0688Y048D02*
D03*
X0679D02*
D03*
X0688Y0488D02*
D03*
X0679D02*
D03*
X0688Y0496D02*
D03*
X0679D02*
D03*
X0688Y0504D02*
D03*
X0679D02*
D03*
X0688Y0512D02*
D03*
X0679D02*
D03*
X0688Y052D02*
D03*
X0679D02*
D03*
X0688Y0528D02*
D03*
X0679D02*
D03*
X0688Y0536D02*
D03*
X0679D02*
D03*
X03965Y04655D02*
D03*
X04055D02*
D03*
X03965Y0458D02*
D03*
X04055D02*
D03*
X03965Y04505D02*
D03*
X04055D02*
D03*
X03965Y0443D02*
D03*
X04055D02*
D03*
X03965Y04355D02*
D03*
X04055D02*
D03*
X03965Y0428D02*
D03*
X04055D02*
D03*
X03965Y04205D02*
D03*
X04055D02*
D03*
X03965Y0413D02*
D03*
X04055D02*
D03*
X00515Y07755D02*
D03*
X00425D02*
D03*
X03035Y0375D02*
D03*
X02945D02*
D03*
X0283Y03745D02*
D03*
X0274D02*
D03*
X02405Y0374D02*
D03*
X02315D02*
D03*
X02205D02*
D03*
X02115D02*
D03*
X0171Y03745D02*
D03*
X018D02*
D03*
X01465Y0374D02*
D03*
X01555D02*
D03*
X03875D02*
D03*
X03785D02*
D03*
X0366Y0375D02*
D03*
X0357D02*
D03*
X03465D02*
D03*
X03375D02*
D03*
D23*
X0485Y05305D02*
D03*
Y05215D02*
D03*
X04775Y05305D02*
D03*
Y05215D02*
D03*
X047Y05305D02*
D03*
Y05215D02*
D03*
X04625Y05305D02*
D03*
Y05215D02*
D03*
X0455Y05305D02*
D03*
Y05215D02*
D03*
X04475Y05305D02*
D03*
Y05215D02*
D03*
X044Y05305D02*
D03*
Y05215D02*
D03*
X04325Y05305D02*
D03*
Y05215D02*
D03*
D24*
X0534Y0524D02*
D03*
X0541D02*
D03*
X0517D02*
D03*
X0524D02*
D03*
X05D02*
D03*
X0507D02*
D03*
X0097Y06885D02*
D03*
X009D02*
D03*
X03635Y0523D02*
D03*
X03565D02*
D03*
X01135Y0608D02*
D03*
X01065D02*
D03*
X0118Y07185D02*
D03*
X0125D02*
D03*
X0358Y06845D02*
D03*
X0365D02*
D03*
X03555Y04515D02*
D03*
X03625D02*
D03*
X03555Y0463D02*
D03*
X03625D02*
D03*
X03555Y0473D02*
D03*
X03625D02*
D03*
X03555Y0483D02*
D03*
X03625D02*
D03*
X03555Y04925D02*
D03*
X03625D02*
D03*
X0356Y0503D02*
D03*
X0363D02*
D03*
X0356Y05135D02*
D03*
X0363D02*
D03*
X0358Y0615D02*
D03*
X0365D02*
D03*
X03575Y06255D02*
D03*
X03645D02*
D03*
X03575Y06345D02*
D03*
X03645D02*
D03*
X04295Y04655D02*
D03*
X04225D02*
D03*
D25*
X05005Y0531D02*
D03*
Y0539D02*
D03*
X05085Y0531D02*
D03*
Y0539D02*
D03*
X0517Y05315D02*
D03*
Y05395D02*
D03*
X05245Y0531D02*
D03*
Y0539D02*
D03*
X03775Y0424D02*
D03*
Y0432D02*
D03*
X03555Y0424D02*
D03*
Y0432D02*
D03*
X0337Y04255D02*
D03*
Y04335D02*
D03*
X02925Y04235D02*
D03*
Y04315D02*
D03*
X02735Y04245D02*
D03*
Y04325D02*
D03*
X02295Y04245D02*
D03*
Y04325D02*
D03*
X02095Y0424D02*
D03*
Y0432D02*
D03*
X01455Y04245D02*
D03*
Y04325D02*
D03*
X0533Y05395D02*
D03*
Y05315D02*
D03*
X0541Y0539D02*
D03*
Y0531D02*
D03*
X0166Y04245D02*
D03*
Y04325D02*
D03*
D26*
X0603Y0458D02*
D03*
Y0465D02*
D03*
X0546Y04515D02*
D03*
Y04585D02*
D03*
X04845Y04505D02*
D03*
Y04575D02*
D03*
X0659Y0458D02*
D03*
Y0465D02*
D03*
X05965Y0405D02*
D03*
Y0398D02*
D03*
X05365Y0405D02*
D03*
Y0398D02*
D03*
X0477Y0399D02*
D03*
Y0406D02*
D03*
X0416Y0397D02*
D03*
Y0404D02*
D03*
X05395Y0497D02*
D03*
Y049D02*
D03*
X0126Y07305D02*
D03*
Y07235D02*
D03*
X00985Y06725D02*
D03*
Y06795D02*
D03*
X0097Y07115D02*
D03*
Y07045D02*
D03*
X01045Y0711D02*
D03*
Y0704D02*
D03*
D27*
X00735Y07375D02*
D03*
X0039Y06555D02*
D03*
D28*
X01025Y07375D02*
D03*
X0068Y06555D02*
D03*
D29*
X057174Y0502D02*
D03*
X056426D02*
D03*
X012898Y074D02*
D03*
X01215D02*
D03*
D30*
X06415Y07105D02*
D03*
X06495D02*
D03*
X05975Y0711D02*
D03*
X06055D02*
D03*
X033595Y05225D02*
D03*
X034395D02*
D03*
X0043Y07865D02*
D03*
X0051D02*
D03*
X034395Y047241D02*
D03*
X033595D02*
D03*
X0344Y0463D02*
D03*
X0336D02*
D03*
X03445Y04515D02*
D03*
X03365D02*
D03*
X034395Y0483D02*
D03*
X033595D02*
D03*
X034395Y04925D02*
D03*
X033595D02*
D03*
X034395Y0503D02*
D03*
X033595D02*
D03*
X034395Y0513D02*
D03*
X033595D02*
D03*
X0344Y0615D02*
D03*
X0336D02*
D03*
X0344Y06245D02*
D03*
X0336D02*
D03*
X0344Y06345D02*
D03*
X0336D02*
D03*
X0344Y06845D02*
D03*
X0336D02*
D03*
D31*
X053234Y051087D02*
D03*
X052734D02*
D03*
X052234D02*
D03*
X051734D02*
D03*
X051234D02*
D03*
X050734D02*
D03*
X050234D02*
D03*
X053234Y048961D02*
D03*
X052734D02*
D03*
X052234D02*
D03*
X051734D02*
D03*
X051234D02*
D03*
X050734D02*
D03*
X050234D02*
D03*
D32*
X0097Y063808D02*
D03*
D33*
X008794Y066092D02*
D03*
X0097D02*
D03*
X010606D02*
D03*
D34*
X0089Y068D02*
D03*
Y067252D02*
D03*
D35*
X065Y046576D02*
D03*
X0645D02*
D03*
X064D02*
D03*
X0635D02*
D03*
X063D02*
D03*
X0625D02*
D03*
X062D02*
D03*
X0615D02*
D03*
X065Y04445D02*
D03*
X0645D02*
D03*
X064D02*
D03*
X0635D02*
D03*
X063D02*
D03*
X0625D02*
D03*
X062D02*
D03*
X0615D02*
D03*
X0591Y046576D02*
D03*
X0586D02*
D03*
X0581D02*
D03*
X0576D02*
D03*
X0571D02*
D03*
X0566D02*
D03*
X0561D02*
D03*
X0556D02*
D03*
X0591Y04445D02*
D03*
X0586D02*
D03*
X0581D02*
D03*
X0576D02*
D03*
X0571D02*
D03*
X0566D02*
D03*
X0561D02*
D03*
X0556D02*
D03*
X04715Y046576D02*
D03*
X04665D02*
D03*
X04615D02*
D03*
X04565D02*
D03*
X04515D02*
D03*
X04465D02*
D03*
X04415D02*
D03*
X04365D02*
D03*
X04715Y04445D02*
D03*
X04665D02*
D03*
X04615D02*
D03*
X04565D02*
D03*
X04515D02*
D03*
X04465D02*
D03*
X04415D02*
D03*
X04365D02*
D03*
X05315Y046576D02*
D03*
X05265D02*
D03*
X05215D02*
D03*
X05165D02*
D03*
X05115D02*
D03*
X05065D02*
D03*
X05015D02*
D03*
X04965D02*
D03*
X05315Y04445D02*
D03*
X05265D02*
D03*
X05215D02*
D03*
X05165D02*
D03*
X05115D02*
D03*
X05065D02*
D03*
X05015D02*
D03*
X04965D02*
D03*
D36*
X0605Y038609D02*
D03*
X061D02*
D03*
X0615D02*
D03*
X062D02*
D03*
X0625D02*
D03*
X063D02*
D03*
X0635D02*
D03*
X064D02*
D03*
X0645D02*
D03*
X0605Y042291D02*
D03*
X061D02*
D03*
X0615D02*
D03*
X062D02*
D03*
X0625D02*
D03*
X063D02*
D03*
X0635D02*
D03*
X064D02*
D03*
X0645D02*
D03*
X0546Y03865D02*
D03*
X0551D02*
D03*
X0556D02*
D03*
X0561D02*
D03*
X0566D02*
D03*
X0571D02*
D03*
X0576D02*
D03*
X0581D02*
D03*
X0586D02*
D03*
X0546Y042331D02*
D03*
X0551D02*
D03*
X0556D02*
D03*
X0561D02*
D03*
X0566D02*
D03*
X0571D02*
D03*
X0576D02*
D03*
X0581D02*
D03*
X0586D02*
D03*
X04865Y038709D02*
D03*
X04915D02*
D03*
X04965D02*
D03*
X05015D02*
D03*
X05065D02*
D03*
X05115D02*
D03*
X05165D02*
D03*
X05215D02*
D03*
X05265D02*
D03*
X04865Y042391D02*
D03*
X04915D02*
D03*
X04965D02*
D03*
X05015D02*
D03*
X05065D02*
D03*
X05115D02*
D03*
X05165D02*
D03*
X05215D02*
D03*
X05265D02*
D03*
X04265Y038659D02*
D03*
X04315D02*
D03*
X04365D02*
D03*
X04415D02*
D03*
X04465D02*
D03*
X04515D02*
D03*
X04565D02*
D03*
X04615D02*
D03*
X04665D02*
D03*
X04265Y042341D02*
D03*
X04315D02*
D03*
X04365D02*
D03*
X04415D02*
D03*
X04465D02*
D03*
X04515D02*
D03*
X04565D02*
D03*
X04615D02*
D03*
X04665D02*
D03*
D37*
X015328Y0463D02*
D03*
Y0473D02*
D03*
Y0483D02*
D03*
Y0493D02*
D03*
Y0503D02*
D03*
Y0513D02*
D03*
Y0523D02*
D03*
Y0533D02*
D03*
Y0543D02*
D03*
Y0553D02*
D03*
Y0563D02*
D03*
Y0573D02*
D03*
Y05845D02*
D03*
Y05945D02*
D03*
Y06045D02*
D03*
Y06145D02*
D03*
Y06245D02*
D03*
Y06345D02*
D03*
Y06445D02*
D03*
Y06545D02*
D03*
Y06645D02*
D03*
Y06745D02*
D03*
Y06845D02*
D03*
Y06945D02*
D03*
X015329Y07145D02*
D03*
X015328Y07345D02*
D03*
X031324Y0473D02*
D03*
Y0483D02*
D03*
Y0493D02*
D03*
Y0503D02*
D03*
Y0513D02*
D03*
Y0523D02*
D03*
Y0533D02*
D03*
Y0543D02*
D03*
Y0553D02*
D03*
Y0563D02*
D03*
Y0573D02*
D03*
Y05845D02*
D03*
Y05945D02*
D03*
Y06045D02*
D03*
Y06145D02*
D03*
Y06245D02*
D03*
Y06345D02*
D03*
Y06445D02*
D03*
Y06545D02*
D03*
Y06645D02*
D03*
Y06745D02*
D03*
Y06945D02*
D03*
Y0463D02*
D03*
X031292Y06845D02*
D03*
D38*
X018851Y046328D02*
D03*
X019851D02*
D03*
X020851D02*
D03*
X021851D02*
D03*
X022851D02*
D03*
X023851D02*
D03*
X024851D02*
D03*
X025851D02*
D03*
X026851D02*
D03*
X027851D02*
D03*
X028851D02*
D03*
X017851D02*
D03*
M02*
