G04*
G04 #@! TF.GenerationSoftware,Altium Limited,Altium Designer,20.0.13 (296)*
G04*
G04 Layer_Color=128*
%FSTAX24Y24*%
%MOIN*%
G70*
G01*
G75*
%ADD15C,0.0100*%
%ADD19C,0.0020*%
%ADD125C,0.0060*%
D15*
X093Y05715D02*
X0932Y05655D01*
X0934Y05715D01*
X0932Y06105D02*
X0934Y06045D01*
X093D02*
X0932Y06105D01*
Y05655D02*
Y05723D01*
Y06005D02*
Y06105D01*
X08965Y05655D02*
X0933D01*
X08885Y06105D02*
X0933D01*
D19*
X011364Y07015D02*
X011836D01*
X0116Y069914D02*
Y070386D01*
X011344Y06815D02*
X011856D01*
X0116Y067894D02*
Y068406D01*
X011364Y07115D02*
X011836D01*
X0116Y070914D02*
Y071386D01*
X011364Y06915D02*
X011836D01*
X0116Y068914D02*
Y069386D01*
X053264Y05705D02*
X053736D01*
X0535Y056814D02*
Y057286D01*
X052264Y05705D02*
X052736D01*
X0525Y056814D02*
Y057286D01*
X051264Y05705D02*
X051736D01*
X0515Y056814D02*
Y057286D01*
X050264Y05705D02*
X050736D01*
X0505Y056814D02*
Y057286D01*
X049264Y05705D02*
X049736D01*
X0495Y056814D02*
Y057286D01*
X057063Y072652D02*
X057339D01*
X057201Y072515D02*
Y07279D01*
X056161Y072652D02*
X056437D01*
X056299Y072515D02*
Y07279D01*
X051661Y072652D02*
X051937D01*
X051799Y072515D02*
Y07279D01*
X052563Y072652D02*
X052839D01*
X052701Y072515D02*
Y07279D01*
X050967Y0749D02*
X051636D01*
X051301Y074566D02*
Y075235D01*
X057364Y0749D02*
X058033D01*
X057699Y074566D02*
Y075235D01*
X05636Y076251D02*
X05764D01*
X057Y075611D02*
Y076891D01*
X05136Y076251D02*
X05264D01*
X052Y075611D02*
Y076891D01*
X055768Y07455D02*
X056043D01*
X055906Y074412D02*
Y074688D01*
X055366Y075251D02*
X055642D01*
X055504Y075113D02*
Y075389D01*
X054965Y07455D02*
X05524D01*
X055102Y074412D02*
Y074688D01*
X054563Y075251D02*
X054839D01*
X054701Y075113D02*
Y075389D01*
X054161Y07455D02*
X054437D01*
X054299Y074412D02*
Y074688D01*
X05376Y075251D02*
X054035D01*
X053898Y075113D02*
Y075389D01*
X053358Y07455D02*
X053634D01*
X053496Y074412D02*
Y074688D01*
X052957Y075251D02*
X053232D01*
X053094Y075113D02*
Y075389D01*
X049514Y072702D02*
X049789D01*
X049652Y072565D02*
Y07284D01*
X048612Y072702D02*
X048888D01*
X04875Y072565D02*
Y07284D01*
X044112Y072702D02*
X044388D01*
X04425Y072565D02*
Y07284D01*
X045014Y072702D02*
X045289D01*
X045152Y072565D02*
Y07284D01*
X043417Y07495D02*
X044087D01*
X043752Y074616D02*
Y075285D01*
X049815Y07495D02*
X050484D01*
X05015Y074616D02*
Y075285D01*
X048811Y076301D02*
X050091D01*
X049451Y075661D02*
Y076941D01*
X043811Y076301D02*
X045091D01*
X044451Y075661D02*
Y076941D01*
X048218Y0746D02*
X048494D01*
X048356Y074462D02*
Y074738D01*
X047817Y075301D02*
X048093D01*
X047955Y075163D02*
Y075439D01*
X047415Y0746D02*
X047691D01*
X047553Y074462D02*
Y074738D01*
X047014Y075301D02*
X047289D01*
X047152Y075163D02*
Y075439D01*
X046612Y0746D02*
X046888D01*
X04675Y074462D02*
Y074738D01*
X046211Y075301D02*
X046486D01*
X046348Y075163D02*
Y075439D01*
X045809Y0746D02*
X046085D01*
X045947Y074462D02*
Y074738D01*
X045407Y075301D02*
X045683D01*
X045545Y075163D02*
Y075439D01*
X041964Y072702D02*
X04224D01*
X042102Y072564D02*
Y07284D01*
X041063Y072702D02*
X041338D01*
X0412Y072564D02*
Y07284D01*
X036563Y072702D02*
X036838D01*
X0367Y072564D02*
Y07284D01*
X037464Y072702D02*
X03774D01*
X037602Y072564D02*
Y07284D01*
X035868Y07495D02*
X036537D01*
X036202Y074615D02*
Y075285D01*
X042265Y07495D02*
X042935D01*
X0426Y074615D02*
Y075285D01*
X041261Y0763D02*
X042541D01*
X041901Y075661D02*
Y07694D01*
X036261Y0763D02*
X037541D01*
X036901Y075661D02*
Y07694D01*
X040669Y0746D02*
X040944D01*
X040807Y074462D02*
Y074737D01*
X040267Y0753D02*
X040543D01*
X040405Y075163D02*
Y075438D01*
X039866Y0746D02*
X040141D01*
X040004Y074462D02*
Y074737D01*
X039464Y0753D02*
X03974D01*
X039602Y075163D02*
Y075438D01*
X039063Y0746D02*
X039338D01*
X0392Y074462D02*
Y074737D01*
X038661Y0753D02*
X038937D01*
X038799Y075163D02*
Y075438D01*
X038259Y0746D02*
X038535D01*
X038397Y074462D02*
Y074737D01*
X037858Y0753D02*
X038133D01*
X037996Y075163D02*
Y075438D01*
X04102Y0375D02*
X04138D01*
X0412Y03732D02*
Y03768D01*
X04203Y0375D02*
X04239D01*
X04221Y03732D02*
Y03768D01*
X063394Y0361D02*
X063823D01*
X063608Y035885D02*
Y036315D01*
X062848Y034982D02*
X063278D01*
X063063Y034767D02*
Y035196D01*
X062303Y0361D02*
X062732D01*
X062518Y035885D02*
Y036315D01*
X061758Y034982D02*
X062187D01*
X061972Y034767D02*
Y035196D01*
X065688Y035531D02*
X06694D01*
X066314Y034905D02*
Y036157D01*
X040609Y035539D02*
X041861D01*
X041235Y034913D02*
Y036165D01*
X059577Y034982D02*
X060006D01*
X059791Y034767D02*
Y035196D01*
X060122Y0361D02*
X060551D01*
X060337Y035885D02*
Y036315D01*
X060667Y034982D02*
X061096D01*
X060882Y034767D02*
Y035196D01*
X061213Y0361D02*
X061642D01*
X061427Y035885D02*
Y036315D01*
X057396Y034982D02*
X057825D01*
X05761Y034767D02*
Y035196D01*
X057941Y0361D02*
X05837D01*
X058155Y035885D02*
Y036315D01*
X058486Y034982D02*
X058915D01*
X058701Y034767D02*
Y035196D01*
X059031Y0361D02*
X059461D01*
X059246Y035885D02*
Y036315D01*
X053033Y034982D02*
X053463D01*
X053248Y034767D02*
Y035196D01*
X053579Y0361D02*
X054008D01*
X053793Y035885D02*
Y036315D01*
X054124Y034982D02*
X054553D01*
X054339Y034767D02*
Y035196D01*
X05685Y0361D02*
X05728D01*
X057065Y035885D02*
Y036315D01*
X051943Y034982D02*
X052372D01*
X052157Y034767D02*
Y035196D01*
X052488Y0361D02*
X052917D01*
X052703Y035885D02*
Y036315D01*
X055215Y034982D02*
X055644D01*
X055429Y034767D02*
Y035196D01*
X05576Y0361D02*
X056189D01*
X055974Y035885D02*
Y036315D01*
X056305Y034982D02*
X056734D01*
X05652Y034767D02*
Y035196D01*
X054668Y0361D02*
X055098D01*
X054883Y035885D02*
Y036315D01*
X043764Y0361D02*
X044193D01*
X043978Y035885D02*
Y036315D01*
X051398Y0361D02*
X051827D01*
X051612Y035885D02*
Y036315D01*
X050852Y034982D02*
X051281D01*
X051067Y034767D02*
Y035196D01*
X050307Y0361D02*
X050736D01*
X050522Y035885D02*
Y036315D01*
X049762Y034982D02*
X050191D01*
X049976Y034767D02*
Y035196D01*
X049217Y0361D02*
X049646D01*
X049431Y035885D02*
Y036315D01*
X048671Y034982D02*
X0491D01*
X048886Y034767D02*
Y035196D01*
X048126Y0361D02*
X048555D01*
X048341Y035885D02*
Y036315D01*
X047581Y034982D02*
X04801D01*
X047795Y034767D02*
Y035196D01*
X047035Y0361D02*
X047465D01*
X04725Y035885D02*
Y036315D01*
X04649Y034982D02*
X046919D01*
X046705Y034767D02*
Y035196D01*
X045945Y0361D02*
X046374D01*
X046159Y035885D02*
Y036315D01*
X0454Y034982D02*
X045829D01*
X045614Y034767D02*
Y035196D01*
X044854Y0361D02*
X045283D01*
X045069Y035885D02*
Y036315D01*
X044309Y034982D02*
X044738D01*
X044524Y034767D02*
Y035196D01*
X003125Y07115D02*
X003475D01*
X0033Y070975D02*
Y071325D01*
X010725Y04075D02*
X011075D01*
X0109Y040575D02*
Y040925D01*
X013075Y03565D02*
X013425D01*
X01325Y035475D02*
Y035825D01*
X03295Y07305D02*
X03325D01*
X0331Y0729D02*
Y0732D01*
X0343Y07305D02*
X0346D01*
X03445Y0729D02*
Y0732D01*
X0336Y0738D02*
X0339D01*
X03375Y07365D02*
Y07395D01*
X060707Y075251D02*
X060983D01*
X060845Y075113D02*
Y075389D01*
X061109Y07455D02*
X061385D01*
X061247Y074412D02*
Y074688D01*
X061511Y075251D02*
X061786D01*
X061648Y075113D02*
Y075389D01*
X061912Y07455D02*
X062188D01*
X06205Y074412D02*
Y074688D01*
X062314Y075251D02*
X062589D01*
X062452Y075113D02*
Y075389D01*
X062715Y07455D02*
X062991D01*
X062853Y074412D02*
Y074688D01*
X063117Y075251D02*
X063393D01*
X063255Y075113D02*
Y075389D01*
X063519Y07455D02*
X063794D01*
X063656Y074412D02*
Y074688D01*
X059111Y076251D02*
X060391D01*
X059751Y075611D02*
Y076891D01*
X064111Y076251D02*
X065391D01*
X064751Y075611D02*
Y076891D01*
X065115Y0749D02*
X065784D01*
X06545Y074566D02*
Y075235D01*
X058717Y0749D02*
X059387D01*
X059052Y074566D02*
Y075235D01*
X060333Y072652D02*
X06057D01*
X060452Y072534D02*
Y07277D01*
X059432Y072652D02*
X059668D01*
X05955Y072534D02*
Y07277D01*
X063932Y072652D02*
X064168D01*
X06405Y072534D02*
Y07277D01*
X064833Y072652D02*
X06507D01*
X064952Y072534D02*
Y07277D01*
X002625Y0771D02*
X002975D01*
X0028Y076925D02*
Y077275D01*
X003404Y073994D02*
X004979D01*
X004192Y073206D02*
Y074781D01*
X003454Y038144D02*
X005029D01*
X004242Y037356D02*
Y038931D01*
X067075Y03815D02*
X06865D01*
X067863Y037363D02*
Y038937D01*
X067175Y07395D02*
X06875D01*
X067963Y073163D02*
Y074737D01*
X0064Y05795D02*
X0068D01*
X0066Y05775D02*
Y05815D01*
X0064Y06095D02*
X0068D01*
X0066Y06075D02*
Y06115D01*
X0054Y05695D02*
X0058D01*
X0056Y05675D02*
Y05715D01*
X0064Y05695D02*
X0068D01*
X0066Y05675D02*
Y05715D01*
X0054Y06095D02*
X0058D01*
X0056Y06075D02*
Y06115D01*
X0054Y05795D02*
X0058D01*
X0056Y05775D02*
Y05815D01*
X0054Y05895D02*
X0058D01*
X0056Y05875D02*
Y05915D01*
X0054Y05995D02*
X0058D01*
X0056Y05975D02*
Y06015D01*
X0064Y05995D02*
X0068D01*
X0066Y05975D02*
Y06015D01*
X0064Y05895D02*
X0068D01*
X0066Y05875D02*
Y05915D01*
X0064Y05595D02*
X0068D01*
X0066Y05575D02*
Y05615D01*
X0054Y05495D02*
X0058D01*
X0056Y05475D02*
Y05515D01*
X0064Y05495D02*
X0068D01*
X0066Y05475D02*
Y05515D01*
X0054Y05395D02*
X0058D01*
X0056Y05375D02*
Y05415D01*
X0064Y05395D02*
X0068D01*
X0066Y05375D02*
Y05415D01*
X0054Y05295D02*
X0058D01*
X0056Y05275D02*
Y05315D01*
X0064Y05295D02*
X0068D01*
X0066Y05275D02*
Y05315D01*
X0054Y05195D02*
X0058D01*
X0056Y05175D02*
Y05215D01*
X0064Y05195D02*
X0068D01*
X0066Y05175D02*
Y05215D01*
X0054Y05095D02*
X0058D01*
X0056Y05075D02*
Y05115D01*
X0064Y05095D02*
X0068D01*
X0066Y05075D02*
Y05115D01*
X0054Y04995D02*
X0058D01*
X0056Y04975D02*
Y05015D01*
X0064Y04995D02*
X0068D01*
X0066Y04975D02*
Y05015D01*
X0054Y04895D02*
X0058D01*
X0056Y04875D02*
Y04915D01*
X0064Y04895D02*
X0068D01*
X0066Y04875D02*
Y04915D01*
X0054Y05595D02*
X0058D01*
X0056Y05575D02*
Y05615D01*
X0054Y04795D02*
X0058D01*
X0056Y04775D02*
Y04815D01*
X0064Y04795D02*
X0068D01*
X0066Y04775D02*
Y04815D01*
X0054Y04695D02*
X0058D01*
X0056Y04675D02*
Y04715D01*
X0064Y04695D02*
X0068D01*
X0066Y04675D02*
Y04715D01*
X0054Y04595D02*
X0058D01*
X0056Y04575D02*
Y04615D01*
X0064Y04595D02*
X0068D01*
X0066Y04575D02*
Y04615D01*
X0054Y04495D02*
X0058D01*
X0056Y04475D02*
Y04515D01*
X0064Y04495D02*
X0068D01*
X0066Y04475D02*
Y04515D01*
X0054Y04395D02*
X0058D01*
X0056Y04375D02*
Y04415D01*
X0064Y04395D02*
X0068D01*
X0066Y04375D02*
Y04415D01*
X0054Y04295D02*
X0058D01*
X0056Y04275D02*
Y04315D01*
X0064Y04295D02*
X0068D01*
X0066Y04275D02*
Y04315D01*
X0054Y04195D02*
X0058D01*
X0056Y04175D02*
Y04215D01*
X0064Y04195D02*
X0068D01*
X0066Y04175D02*
Y04215D01*
X031686Y036068D02*
X032115D01*
X031901Y035854D02*
Y036283D01*
X031142Y03495D02*
X031572D01*
X031357Y034735D02*
Y035165D01*
X030599Y036068D02*
X031028D01*
X030814Y035854D02*
Y036283D01*
X030055Y03495D02*
X030485D01*
X03027Y034735D02*
Y035165D01*
X029512Y036068D02*
X029941D01*
X029727Y035854D02*
Y036283D01*
X028968Y03495D02*
X029398D01*
X029183Y034735D02*
Y035165D01*
X028425Y036068D02*
X028854D01*
X02864Y035854D02*
Y036283D01*
X027881Y03495D02*
X028311D01*
X028096Y034735D02*
Y035165D01*
X027338Y036068D02*
X027767D01*
X027552Y035854D02*
Y036283D01*
X026794Y03495D02*
X027224D01*
X027009Y034735D02*
Y035165D01*
X026251Y036068D02*
X02668D01*
X026465Y035854D02*
Y036283D01*
X025707Y03495D02*
X026137D01*
X025922Y034735D02*
Y035165D01*
X025164Y036068D02*
X025593D01*
X025378Y035854D02*
Y036283D01*
X02462Y03495D02*
X02505D01*
X024835Y034735D02*
Y035165D01*
X024077Y036068D02*
X024506D01*
X024291Y035854D02*
Y036283D01*
X023533Y03495D02*
X023963D01*
X023748Y034735D02*
Y035165D01*
X02299Y036068D02*
X023419D01*
X023204Y035854D02*
Y036283D01*
X022446Y03495D02*
X022876D01*
X022661Y034735D02*
Y035165D01*
X021903Y036068D02*
X022332D01*
X022117Y035854D02*
Y036283D01*
X021359Y03495D02*
X021789D01*
X021574Y034735D02*
Y035165D01*
X020816Y036068D02*
X021245D01*
X02103Y035854D02*
Y036283D01*
X020272Y03495D02*
X020702D01*
X020487Y034735D02*
Y035165D01*
X019729Y036068D02*
X020158D01*
X019943Y035854D02*
Y036283D01*
X019185Y03495D02*
X019615D01*
X0194Y034735D02*
Y035165D01*
X018642Y036068D02*
X019071D01*
X018856Y035854D02*
Y036283D01*
X015475Y035509D02*
X016758D01*
X016116Y034867D02*
Y036151D01*
X033999Y035509D02*
X035282D01*
X034641Y034867D02*
Y036151D01*
X025249Y03895D02*
X025651D01*
X02545Y038749D02*
Y039151D01*
X025249Y03995D02*
X025651D01*
X02545Y039749D02*
Y040151D01*
X025249Y04095D02*
X025651D01*
X02545Y040749D02*
Y041151D01*
X029145Y04145D02*
X029455D01*
X0293Y041295D02*
Y041605D01*
X030145Y04145D02*
X030455D01*
X0303Y041295D02*
Y041605D01*
X030145Y03845D02*
X030455D01*
X0303Y038295D02*
Y038605D01*
X029145Y03845D02*
X029455D01*
X0293Y038295D02*
Y038605D01*
X027145Y04145D02*
X027455D01*
X0273Y041295D02*
Y041605D01*
X028145Y04145D02*
X028455D01*
X0283Y041295D02*
Y041605D01*
X028145Y03845D02*
X028455D01*
X0283Y038295D02*
Y038605D01*
X027145Y03845D02*
X027455D01*
X0273Y038295D02*
Y038605D01*
X018749Y0388D02*
X019151D01*
X01895Y038599D02*
Y039001D01*
X018749Y0398D02*
X019151D01*
X01895Y039599D02*
Y040001D01*
X018749Y0408D02*
X019151D01*
X01895Y040599D02*
Y041001D01*
X022895Y0415D02*
X023205D01*
X02305Y041345D02*
Y041655D01*
X023895Y0415D02*
X024205D01*
X02405Y041345D02*
Y041655D01*
X023895Y0385D02*
X024205D01*
X02405Y038345D02*
Y038655D01*
X022895Y0385D02*
X023205D01*
X02305Y038345D02*
Y038655D01*
X020845Y0415D02*
X021155D01*
X021Y041345D02*
Y041655D01*
X021845Y0415D02*
X022155D01*
X022Y041345D02*
Y041655D01*
X021845Y0385D02*
X022155D01*
X022Y038345D02*
Y038655D01*
X020845Y0385D02*
X021155D01*
X021Y038345D02*
Y038655D01*
X012849Y03885D02*
X013251D01*
X01305Y038649D02*
Y039051D01*
X012849Y03985D02*
X013251D01*
X01305Y039649D02*
Y040051D01*
X012849Y04085D02*
X013251D01*
X01305Y040649D02*
Y041051D01*
X016445Y0415D02*
X016755D01*
X0166Y041345D02*
Y041655D01*
X017445Y0415D02*
X017755D01*
X0176Y041345D02*
Y041655D01*
X017445Y0385D02*
X017755D01*
X0176Y038345D02*
Y038655D01*
X016445Y0385D02*
X016755D01*
X0166Y038345D02*
Y038655D01*
X014395Y0415D02*
X014705D01*
X01455Y041345D02*
Y041655D01*
X015395Y0415D02*
X015705D01*
X01555Y041345D02*
Y041655D01*
X015395Y0385D02*
X015705D01*
X01555Y038345D02*
Y038655D01*
X014395Y0385D02*
X014705D01*
X01455Y038345D02*
Y038655D01*
X031799Y03905D02*
X032201D01*
X032Y038849D02*
Y039251D01*
X031799Y04005D02*
X032201D01*
X032Y039849D02*
Y040251D01*
X031799Y04105D02*
X032201D01*
X032Y040849D02*
Y041251D01*
X037545Y04155D02*
X037855D01*
X0377Y041395D02*
Y041705D01*
X038545Y04155D02*
X038855D01*
X0387Y041395D02*
Y041705D01*
X038545Y03855D02*
X038855D01*
X0387Y038395D02*
Y038705D01*
X037545Y03855D02*
X037855D01*
X0377Y038395D02*
Y038705D01*
X035495Y04155D02*
X035805D01*
X03565Y041395D02*
Y041705D01*
X036495Y04155D02*
X036805D01*
X03665Y041395D02*
Y041705D01*
X036495Y03855D02*
X036805D01*
X03665Y038395D02*
Y038705D01*
X035495Y03855D02*
X035805D01*
X03565Y038395D02*
Y038705D01*
X033495Y04155D02*
X033805D01*
X03365Y041395D02*
Y041705D01*
X034495Y04155D02*
X034805D01*
X03465Y041395D02*
Y041705D01*
X034495Y03855D02*
X034805D01*
X03465Y038395D02*
Y038705D01*
X033495Y03855D02*
X033805D01*
X03365Y038395D02*
Y038705D01*
X037075Y0353D02*
X037425D01*
X03725Y035125D02*
Y035475D01*
X006499Y076274D02*
X007149D01*
X006824Y075949D02*
Y076599D01*
X010525Y0763D02*
X011175D01*
X01085Y075975D02*
Y076625D01*
X008525Y0763D02*
X009175D01*
X00885Y075975D02*
Y076625D01*
X068364Y070866D02*
X068644D01*
X068504Y070726D02*
Y071006D01*
X068364Y068504D02*
X068644D01*
X068504Y068364D02*
Y068644D01*
X068364Y066142D02*
X068644D01*
X068504Y066002D02*
Y066282D01*
X068364Y06378D02*
X068644D01*
X068504Y06364D02*
Y06392D01*
X068364Y061417D02*
X068644D01*
X068504Y061277D02*
Y061557D01*
X068364Y059055D02*
X068644D01*
X068504Y058915D02*
Y059195D01*
X068364Y056693D02*
X068644D01*
X068504Y056553D02*
Y056833D01*
X068364Y040157D02*
X068644D01*
X068504Y040017D02*
Y040297D01*
X068364Y035433D02*
X068644D01*
X068504Y035293D02*
Y035573D01*
X067773Y076772D02*
X068053D01*
X067913Y076632D02*
Y076912D01*
X067183Y075591D02*
X067463D01*
X067323Y075451D02*
Y075731D01*
X067773Y072047D02*
X068053D01*
X067913Y071907D02*
Y072187D01*
X067183Y070866D02*
X067463D01*
X067323Y070726D02*
Y071006D01*
X067773Y069685D02*
X068053D01*
X067913Y069545D02*
Y069825D01*
X067183Y068504D02*
X067463D01*
X067323Y068364D02*
Y068644D01*
X067773Y067323D02*
X068053D01*
X067913Y067183D02*
Y067463D01*
X067183Y066142D02*
X067463D01*
X067323Y066002D02*
Y066282D01*
X067773Y064961D02*
X068053D01*
X067913Y064821D02*
Y065101D01*
X067183Y06378D02*
X067463D01*
X067323Y06364D02*
Y06392D01*
X067773Y062598D02*
X068053D01*
X067913Y062458D02*
Y062738D01*
X067183Y061417D02*
X067463D01*
X067323Y061277D02*
Y061557D01*
X067773Y060236D02*
X068053D01*
X067913Y060096D02*
Y060376D01*
X067183Y059055D02*
X067463D01*
X067323Y058915D02*
Y059195D01*
X067773Y057874D02*
X068053D01*
X067913Y057734D02*
Y058014D01*
X067183Y056693D02*
X067463D01*
X067323Y056553D02*
Y056833D01*
X067773Y055512D02*
X068053D01*
X067913Y055372D02*
Y055652D01*
X067183Y040157D02*
X067463D01*
X067323Y040017D02*
Y040297D01*
X066592Y076772D02*
X066872D01*
X066732Y076632D02*
Y076912D01*
X066002Y073228D02*
X066282D01*
X066142Y073088D02*
Y073368D01*
X066592Y072047D02*
X066872D01*
X066732Y071907D02*
Y072187D01*
X066002Y070866D02*
X066282D01*
X066142Y070726D02*
Y071006D01*
X066592Y069685D02*
X066872D01*
X066732Y069545D02*
Y069825D01*
X066002Y068504D02*
X066282D01*
X066142Y068364D02*
Y068644D01*
X066592Y067323D02*
X066872D01*
X066732Y067183D02*
Y067463D01*
X066002Y066142D02*
X066282D01*
X066142Y066002D02*
Y066282D01*
X066592Y064961D02*
X066872D01*
X066732Y064821D02*
Y065101D01*
X066002Y06378D02*
X066282D01*
X066142Y06364D02*
Y06392D01*
X066592Y062598D02*
X066872D01*
X066732Y062458D02*
Y062738D01*
X066002Y061417D02*
X066282D01*
X066142Y061277D02*
Y061557D01*
X066592Y060236D02*
X066872D01*
X066732Y060096D02*
Y060376D01*
X066002Y059055D02*
X066282D01*
X066142Y058915D02*
Y059195D01*
X066592Y057874D02*
X066872D01*
X066732Y057734D02*
Y058014D01*
X066002Y056693D02*
X066282D01*
X066142Y056553D02*
Y056833D01*
X066592Y055512D02*
X066872D01*
X066732Y055372D02*
Y055652D01*
X066002Y037795D02*
X066282D01*
X066142Y037655D02*
Y037935D01*
X065411Y069685D02*
X065691D01*
X065551Y069545D02*
Y069825D01*
X064821Y068504D02*
X065101D01*
X064961Y068364D02*
Y068644D01*
X065411Y067323D02*
X065691D01*
X065551Y067183D02*
Y067463D01*
X064821Y066142D02*
X065101D01*
X064961Y066002D02*
Y066282D01*
X065411Y064961D02*
X065691D01*
X065551Y064821D02*
Y065101D01*
X065411Y038976D02*
X065691D01*
X065551Y038836D02*
Y039116D01*
X06364Y073228D02*
X06392D01*
X06378Y073088D02*
Y073368D01*
X06423Y069685D02*
X06451D01*
X06437Y069545D02*
Y069825D01*
X06364Y068504D02*
X06392D01*
X06378Y068364D02*
Y068644D01*
X06423Y067323D02*
X06451D01*
X06437Y067183D02*
Y067463D01*
X06364Y066142D02*
X06392D01*
X06378Y066002D02*
Y066282D01*
X06364Y06378D02*
X06392D01*
X06378Y06364D02*
Y06392D01*
X06364Y061417D02*
X06392D01*
X06378Y061277D02*
Y061557D01*
X06364Y059055D02*
X06392D01*
X06378Y058915D02*
Y059195D01*
X06364Y056693D02*
X06392D01*
X06378Y056553D02*
Y056833D01*
X06364Y054331D02*
X06392D01*
X06378Y054191D02*
Y054471D01*
X06423Y036614D02*
X06451D01*
X06437Y036474D02*
Y036754D01*
X062458Y06378D02*
X062738D01*
X062598Y06364D02*
Y06392D01*
X063049Y062598D02*
X063329D01*
X063189Y062458D02*
Y062738D01*
X062458Y061417D02*
X062738D01*
X062598Y061277D02*
Y061557D01*
X063049Y060236D02*
X063329D01*
X063189Y060096D02*
Y060376D01*
X062458Y059055D02*
X062738D01*
X062598Y058915D02*
Y059195D01*
X063049Y057874D02*
X063329D01*
X063189Y057734D02*
Y058014D01*
X062458Y056693D02*
X062738D01*
X062598Y056553D02*
Y056833D01*
X063049Y055512D02*
X063329D01*
X063189Y055372D02*
Y055652D01*
X062458Y054331D02*
X062738D01*
X062598Y054191D02*
Y054471D01*
X063049Y05315D02*
X063329D01*
X063189Y05301D02*
Y05329D01*
X062458Y051968D02*
X062738D01*
X062598Y051828D02*
Y052108D01*
X061277Y06378D02*
X061557D01*
X061417Y06364D02*
Y06392D01*
X061868Y062598D02*
X062148D01*
X062008Y062458D02*
Y062738D01*
X061277Y061417D02*
X061557D01*
X061417Y061277D02*
Y061557D01*
X061868Y060236D02*
X062148D01*
X062008Y060096D02*
Y060376D01*
X061277Y059055D02*
X061557D01*
X061417Y058915D02*
Y059195D01*
X061868Y057874D02*
X062148D01*
X062008Y057734D02*
Y058014D01*
X061277Y056693D02*
X061557D01*
X061417Y056553D02*
Y056833D01*
X061868Y055512D02*
X062148D01*
X062008Y055372D02*
Y055652D01*
X061277Y054331D02*
X061557D01*
X061417Y054191D02*
Y054471D01*
X061868Y05315D02*
X062148D01*
X062008Y05301D02*
Y05329D01*
X060096Y068504D02*
X060376D01*
X060236Y068364D02*
Y068644D01*
X060687Y062598D02*
X060967D01*
X060827Y062458D02*
Y062738D01*
X060096Y061417D02*
X060376D01*
X060236Y061277D02*
Y061557D01*
X060687Y060236D02*
X060967D01*
X060827Y060096D02*
Y060376D01*
X060096Y059055D02*
X060376D01*
X060236Y058915D02*
Y059195D01*
X060687Y057874D02*
X060967D01*
X060827Y057734D02*
Y058014D01*
X060096Y056693D02*
X060376D01*
X060236Y056553D02*
Y056833D01*
X060687Y055512D02*
X060967D01*
X060827Y055372D02*
Y055652D01*
X060096Y054331D02*
X060376D01*
X060236Y054191D02*
Y054471D01*
X060687Y05315D02*
X060967D01*
X060827Y05301D02*
Y05329D01*
X058915Y073228D02*
X059195D01*
X059055Y073088D02*
Y073368D01*
X059506Y069685D02*
X059786D01*
X059646Y069545D02*
Y069825D01*
X058915Y068504D02*
X059195D01*
X059055Y068364D02*
Y068644D01*
X059506Y067323D02*
X059786D01*
X059646Y067183D02*
Y067463D01*
X058915Y066142D02*
X059195D01*
X059055Y066002D02*
Y066282D01*
X058915Y06378D02*
X059195D01*
X059055Y06364D02*
Y06392D01*
X058915Y061417D02*
X059195D01*
X059055Y061277D02*
Y061557D01*
X059506Y060236D02*
X059786D01*
X059646Y060096D02*
Y060376D01*
X058915Y059055D02*
X059195D01*
X059055Y058915D02*
Y059195D01*
X059506Y057874D02*
X059786D01*
X059646Y057734D02*
Y058014D01*
X058915Y056693D02*
X059195D01*
X059055Y056553D02*
Y056833D01*
X059506Y055512D02*
X059786D01*
X059646Y055372D02*
Y055652D01*
X058915Y054331D02*
X059195D01*
X059055Y054191D02*
Y054471D01*
X059506Y05315D02*
X059786D01*
X059646Y05301D02*
Y05329D01*
X057734Y073228D02*
X058014D01*
X057874Y073088D02*
Y073368D01*
X058325Y072047D02*
X058605D01*
X058465Y071907D02*
Y072187D01*
X057734Y070866D02*
X058014D01*
X057874Y070726D02*
Y071006D01*
X058325Y069685D02*
X058605D01*
X058465Y069545D02*
Y069825D01*
X057734Y068504D02*
X058014D01*
X057874Y068364D02*
Y068644D01*
X058325Y067323D02*
X058605D01*
X058465Y067183D02*
Y067463D01*
X057734Y066142D02*
X058014D01*
X057874Y066002D02*
Y066282D01*
X058325Y060236D02*
X058605D01*
X058465Y060096D02*
Y060376D01*
X057734Y059055D02*
X058014D01*
X057874Y058915D02*
Y059195D01*
X058325Y057874D02*
X058605D01*
X058465Y057734D02*
Y058014D01*
X057734Y056693D02*
X058014D01*
X057874Y056553D02*
Y056833D01*
X058325Y055512D02*
X058605D01*
X058465Y055372D02*
Y055652D01*
X057734Y054331D02*
X058014D01*
X057874Y054191D02*
Y054471D01*
X056553Y070866D02*
X056833D01*
X056693Y070726D02*
Y071006D01*
X057143Y069685D02*
X057423D01*
X057283Y069545D02*
Y069825D01*
X056553Y068504D02*
X056833D01*
X056693Y068364D02*
Y068644D01*
X057143Y067323D02*
X057423D01*
X057283Y067183D02*
Y067463D01*
X056553Y066142D02*
X056833D01*
X056693Y066002D02*
Y066282D01*
X057143Y064961D02*
X057423D01*
X057283Y064821D02*
Y065101D01*
X056553Y06378D02*
X056833D01*
X056693Y06364D02*
Y06392D01*
X056553Y061417D02*
X056833D01*
X056693Y061277D02*
Y061557D01*
X056553Y059055D02*
X056833D01*
X056693Y058915D02*
Y059195D01*
X057143Y057874D02*
X057423D01*
X057283Y057734D02*
Y058014D01*
X056553Y056693D02*
X056833D01*
X056693Y056553D02*
Y056833D01*
X057143Y055512D02*
X057423D01*
X057283Y055372D02*
Y055652D01*
X056553Y054331D02*
X056833D01*
X056693Y054191D02*
Y054471D01*
X055962Y067323D02*
X056242D01*
X056102Y067183D02*
Y067463D01*
X055372Y066142D02*
X055652D01*
X055512Y066002D02*
Y066282D01*
X055962Y064961D02*
X056242D01*
X056102Y064821D02*
Y065101D01*
X055372Y06378D02*
X055652D01*
X055512Y06364D02*
Y06392D01*
X055962Y057874D02*
X056242D01*
X056102Y057734D02*
Y058014D01*
X055372Y056693D02*
X055652D01*
X055512Y056553D02*
Y056833D01*
X055962Y055512D02*
X056242D01*
X056102Y055372D02*
Y055652D01*
X055372Y054331D02*
X055652D01*
X055512Y054191D02*
Y054471D01*
X054781Y076772D02*
X055061D01*
X054921Y076632D02*
Y076912D01*
X054781Y067323D02*
X055061D01*
X054921Y067183D02*
Y067463D01*
X054191Y066142D02*
X054471D01*
X054331Y066002D02*
Y066282D01*
X054781Y064961D02*
X055061D01*
X054921Y064821D02*
Y065101D01*
X054191Y06378D02*
X054471D01*
X054331Y06364D02*
Y06392D01*
X054781Y062598D02*
X055061D01*
X054921Y062458D02*
Y062738D01*
X054191Y061417D02*
X054471D01*
X054331Y061277D02*
Y061557D01*
X054191Y059055D02*
X054471D01*
X054331Y058915D02*
Y059195D01*
X054781Y050787D02*
X055061D01*
X054921Y050647D02*
Y050927D01*
X0536Y076772D02*
X05388D01*
X05374Y076632D02*
Y076912D01*
X0536Y064961D02*
X05388D01*
X05374Y064821D02*
Y065101D01*
X05301Y06378D02*
X05329D01*
X05315Y06364D02*
Y06392D01*
X0536Y062598D02*
X05388D01*
X05374Y062458D02*
Y062738D01*
X05301Y061417D02*
X05329D01*
X05315Y061277D02*
Y061557D01*
X052419Y064961D02*
X052699D01*
X052559Y064821D02*
Y065101D01*
X051828Y06378D02*
X052108D01*
X051968Y06364D02*
Y06392D01*
X052419Y062598D02*
X052699D01*
X052559Y062458D02*
Y062738D01*
X051828Y061417D02*
X052108D01*
X051968Y061277D02*
Y061557D01*
X052419Y060236D02*
X052699D01*
X052559Y060096D02*
Y060376D01*
X051828Y059055D02*
X052108D01*
X051968Y058915D02*
Y059195D01*
X050647Y073228D02*
X050927D01*
X050787Y073088D02*
Y073368D01*
X051238Y062598D02*
X051518D01*
X051378Y062458D02*
Y062738D01*
X050647Y061417D02*
X050927D01*
X050787Y061277D02*
Y061557D01*
X051238Y060236D02*
X051518D01*
X051378Y060096D02*
Y060376D01*
X050647Y059055D02*
X050927D01*
X050787Y058915D02*
Y059195D01*
X049466Y068504D02*
X049746D01*
X049606Y068364D02*
Y068644D01*
X050057Y062598D02*
X050337D01*
X050197Y062458D02*
Y062738D01*
X049466Y061417D02*
X049746D01*
X049606Y061277D02*
Y061557D01*
X050057Y060236D02*
X050337D01*
X050197Y060096D02*
Y060376D01*
X049466Y059055D02*
X049746D01*
X049606Y058915D02*
Y059195D01*
X048876Y060236D02*
X049156D01*
X049016Y060096D02*
Y060376D01*
X048285Y059055D02*
X048565D01*
X048425Y058915D02*
Y059195D01*
X048876Y057874D02*
X049156D01*
X049016Y057734D02*
Y058014D01*
X048285Y056693D02*
X048565D01*
X048425Y056553D02*
Y056833D01*
X048876Y055512D02*
X049156D01*
X049016Y055372D02*
Y055652D01*
X048285Y054331D02*
X048565D01*
X048425Y054191D02*
Y054471D01*
X047695Y076772D02*
X047975D01*
X047835Y076632D02*
Y076912D01*
X047695Y060236D02*
X047975D01*
X047835Y060096D02*
Y060376D01*
X047104Y059055D02*
X047384D01*
X047244Y058915D02*
Y059195D01*
X047695Y057874D02*
X047975D01*
X047835Y057734D02*
Y058014D01*
X047104Y056693D02*
X047384D01*
X047244Y056553D02*
Y056833D01*
X047695Y055512D02*
X047975D01*
X047835Y055372D02*
Y055652D01*
X047104Y054331D02*
X047384D01*
X047244Y054191D02*
Y054471D01*
X046514Y076772D02*
X046794D01*
X046654Y076632D02*
Y076912D01*
X046514Y057874D02*
X046794D01*
X046654Y057734D02*
Y058014D01*
X045923Y056693D02*
X046203D01*
X046063Y056553D02*
Y056833D01*
X046514Y055512D02*
X046794D01*
X046654Y055372D02*
Y055652D01*
X045923Y054331D02*
X046203D01*
X046063Y054191D02*
Y054471D01*
X044742Y068504D02*
X045022D01*
X044882Y068364D02*
Y068644D01*
X045332Y057874D02*
X045612D01*
X045472Y057734D02*
Y058014D01*
X044742Y056693D02*
X045022D01*
X044882Y056553D02*
Y056833D01*
X045332Y055512D02*
X045612D01*
X045472Y055372D02*
Y055652D01*
X044742Y054331D02*
X045022D01*
X044882Y054191D02*
Y054471D01*
X043561Y068504D02*
X043841D01*
X043701Y068364D02*
Y068644D01*
X044151Y067323D02*
X044431D01*
X044291Y067183D02*
Y067463D01*
X044151Y055512D02*
X044431D01*
X044291Y055372D02*
Y055652D01*
X043561Y054331D02*
X043841D01*
X043701Y054191D02*
Y054471D01*
X04238Y068504D02*
X04266D01*
X04252Y068364D02*
Y068644D01*
X04297Y067323D02*
X04325D01*
X04311Y067183D02*
Y067463D01*
X04238Y066142D02*
X04266D01*
X04252Y066002D02*
Y066282D01*
X041789Y067323D02*
X042069D01*
X041929Y067183D02*
Y067463D01*
X041789Y064961D02*
X042069D01*
X041929Y064821D02*
Y065101D01*
X041789Y048425D02*
X042069D01*
X041929Y048285D02*
Y048565D01*
X040017Y040157D02*
X040297D01*
X040157Y040017D02*
Y040297D01*
X039427Y076772D02*
X039707D01*
X039567Y076632D02*
Y076912D01*
X039427Y062598D02*
X039707D01*
X039567Y062458D02*
Y062738D01*
X039427Y036614D02*
X039707D01*
X039567Y036474D02*
Y036754D01*
X038836Y035433D02*
X039116D01*
X038976Y035293D02*
Y035573D01*
X038246Y076772D02*
X038526D01*
X038386Y076632D02*
Y076912D01*
X038246Y067323D02*
X038526D01*
X038386Y067183D02*
Y067463D01*
X037655Y066142D02*
X037935D01*
X037795Y066002D02*
Y066282D01*
X037065Y067323D02*
X037345D01*
X037205Y067183D02*
Y067463D01*
X036474Y066142D02*
X036754D01*
X036614Y066002D02*
Y066282D01*
X037065Y064961D02*
X037345D01*
X037205Y064821D02*
Y065101D01*
X037065Y060236D02*
X037345D01*
X037205Y060096D02*
Y060376D01*
X036474Y059055D02*
X036754D01*
X036614Y058915D02*
Y059195D01*
X037065Y057874D02*
X037345D01*
X037205Y057734D02*
Y058014D01*
X036474Y056693D02*
X036754D01*
X036614Y056553D02*
Y056833D01*
X037065Y055512D02*
X037345D01*
X037205Y055372D02*
Y055652D01*
X036474Y054331D02*
X036754D01*
X036614Y054191D02*
Y054471D01*
X035293Y073228D02*
X035573D01*
X035433Y073088D02*
Y073368D01*
X035884Y067323D02*
X036164D01*
X036024Y067183D02*
Y067463D01*
X035884Y064961D02*
X036164D01*
X036024Y064821D02*
Y065101D01*
X035884Y060236D02*
X036164D01*
X036024Y060096D02*
Y060376D01*
X035884Y057874D02*
X036164D01*
X036024Y057734D02*
Y058014D01*
X035884Y055512D02*
X036164D01*
X036024Y055372D02*
Y055652D01*
X034703Y074409D02*
X034983D01*
X034843Y074269D02*
Y074549D01*
X033521Y064961D02*
X033801D01*
X033661Y064821D02*
Y065101D01*
X033521Y060236D02*
X033801D01*
X033661Y060096D02*
Y060376D01*
X033521Y057874D02*
X033801D01*
X033661Y057734D02*
Y058014D01*
X033521Y055512D02*
X033801D01*
X033661Y055372D02*
Y055652D01*
X033521Y05315D02*
X033801D01*
X033661Y05301D02*
Y05329D01*
X032931Y035433D02*
X033211D01*
X033071Y035293D02*
Y035573D01*
X03175Y075591D02*
X03203D01*
X03189Y075451D02*
Y075731D01*
X03175Y073228D02*
X03203D01*
X03189Y073088D02*
Y073368D01*
X030569Y075591D02*
X030849D01*
X030709Y075451D02*
Y075731D01*
X031159Y074409D02*
X031439D01*
X031299Y074269D02*
Y074549D01*
X030569Y073228D02*
X030849D01*
X030709Y073088D02*
Y073368D01*
X029388Y075591D02*
X029668D01*
X029528Y075451D02*
Y075731D01*
X029978Y074409D02*
X030258D01*
X030118Y074269D02*
Y074549D01*
X029388Y073228D02*
X029668D01*
X029528Y073088D02*
Y073368D01*
X028206Y075591D02*
X028486D01*
X028346Y075451D02*
Y075731D01*
X028797Y074409D02*
X029077D01*
X028937Y074269D02*
Y074549D01*
X028206Y073228D02*
X028486D01*
X028346Y073088D02*
Y073368D01*
X028206Y068504D02*
X028486D01*
X028346Y068364D02*
Y068644D01*
X028797Y067323D02*
X029077D01*
X028937Y067183D02*
Y067463D01*
X028206Y051968D02*
X028486D01*
X028346Y051828D02*
Y052108D01*
X028797Y050787D02*
X029077D01*
X028937Y050647D02*
Y050927D01*
X028206Y049606D02*
X028486D01*
X028346Y049466D02*
Y049746D01*
X027025Y075591D02*
X027305D01*
X027165Y075451D02*
Y075731D01*
X027616Y074409D02*
X027896D01*
X027756Y074269D02*
Y074549D01*
X027025Y073228D02*
X027305D01*
X027165Y073088D02*
Y073368D01*
X027616Y067323D02*
X027896D01*
X027756Y067183D02*
Y067463D01*
X027616Y062598D02*
X027896D01*
X027756Y062458D02*
Y062738D01*
X027025Y051968D02*
X027305D01*
X027165Y051828D02*
Y052108D01*
X027616Y050787D02*
X027896D01*
X027756Y050647D02*
Y050927D01*
X027025Y049606D02*
X027305D01*
X027165Y049466D02*
Y049746D01*
X025844Y075591D02*
X026124D01*
X025984Y075451D02*
Y075731D01*
X026435Y074409D02*
X026715D01*
X026575Y074269D02*
Y074549D01*
X025844Y073228D02*
X026124D01*
X025984Y073088D02*
Y073368D01*
X025844Y068504D02*
X026124D01*
X025984Y068364D02*
Y068644D01*
X025844Y066142D02*
X026124D01*
X025984Y066002D02*
Y066282D01*
X025844Y06378D02*
X026124D01*
X025984Y06364D02*
Y06392D01*
X024663Y075591D02*
X024943D01*
X024803Y075451D02*
Y075731D01*
X025254Y074409D02*
X025534D01*
X025394Y074269D02*
Y074549D01*
X024663Y073228D02*
X024943D01*
X024803Y073088D02*
Y073368D01*
X025254Y067323D02*
X025534D01*
X025394Y067183D02*
Y067463D01*
X024663Y066142D02*
X024943D01*
X024803Y066002D02*
Y066282D01*
X024663Y06378D02*
X024943D01*
X024803Y06364D02*
Y06392D01*
X025254Y062598D02*
X025534D01*
X025394Y062458D02*
Y062738D01*
X025254Y060236D02*
X025534D01*
X025394Y060096D02*
Y060376D01*
X023482Y075591D02*
X023762D01*
X023622Y075451D02*
Y075731D01*
X024073Y074409D02*
X024353D01*
X024213Y074269D02*
Y074549D01*
X023482Y073228D02*
X023762D01*
X023622Y073088D02*
Y073368D01*
X023482Y070866D02*
X023762D01*
X023622Y070726D02*
Y071006D01*
X023482Y066142D02*
X023762D01*
X023622Y066002D02*
Y066282D01*
X023482Y06378D02*
X023762D01*
X023622Y06364D02*
Y06392D01*
X024073Y062598D02*
X024353D01*
X024213Y062458D02*
Y062738D01*
X024073Y060236D02*
X024353D01*
X024213Y060096D02*
Y060376D01*
X023482Y059055D02*
X023762D01*
X023622Y058915D02*
Y059195D01*
X022301Y075591D02*
X022581D01*
X022441Y075451D02*
Y075731D01*
X022891Y074409D02*
X023171D01*
X023031Y074269D02*
Y074549D01*
X022301Y073228D02*
X022581D01*
X022441Y073088D02*
Y073368D01*
X022301Y06378D02*
X022581D01*
X022441Y06364D02*
Y06392D01*
X022891Y062598D02*
X023171D01*
X023031Y062458D02*
Y062738D01*
X022891Y060236D02*
X023171D01*
X023031Y060096D02*
Y060376D01*
X022301Y059055D02*
X022581D01*
X022441Y058915D02*
Y059195D01*
X022891Y057874D02*
X023171D01*
X023031Y057734D02*
Y058014D01*
X02112Y075591D02*
X0214D01*
X02126Y075451D02*
Y075731D01*
X02171Y074409D02*
X02199D01*
X02185Y074269D02*
Y074549D01*
X02112Y073228D02*
X0214D01*
X02126Y073088D02*
Y073368D01*
X02171Y072047D02*
X02199D01*
X02185Y071907D02*
Y072187D01*
X02112Y070866D02*
X0214D01*
X02126Y070726D02*
Y071006D01*
X02112Y068504D02*
X0214D01*
X02126Y068364D02*
Y068644D01*
X02112Y06378D02*
X0214D01*
X02126Y06364D02*
Y06392D01*
X02171Y062598D02*
X02199D01*
X02185Y062458D02*
Y062738D01*
X02171Y060236D02*
X02199D01*
X02185Y060096D02*
Y060376D01*
X02112Y059055D02*
X0214D01*
X02126Y058915D02*
Y059195D01*
X02171Y057874D02*
X02199D01*
X02185Y057734D02*
Y058014D01*
X02112Y049606D02*
X0214D01*
X02126Y049466D02*
Y049746D01*
X019939Y075591D02*
X020219D01*
X020079Y075451D02*
Y075731D01*
X020529Y074409D02*
X020809D01*
X020669Y074269D02*
Y074549D01*
X019939Y073228D02*
X020219D01*
X020079Y073088D02*
Y073368D01*
X020529Y072047D02*
X020809D01*
X020669Y071907D02*
Y072187D01*
X019939Y070866D02*
X020219D01*
X020079Y070726D02*
Y071006D01*
X020529Y062598D02*
X020809D01*
X020669Y062458D02*
Y062738D01*
X020529Y060236D02*
X020809D01*
X020669Y060096D02*
Y060376D01*
X019939Y059055D02*
X020219D01*
X020079Y058915D02*
Y059195D01*
X020529Y057874D02*
X020809D01*
X020669Y057734D02*
Y058014D01*
X020529Y050787D02*
X020809D01*
X020669Y050647D02*
Y050927D01*
X019939Y049606D02*
X020219D01*
X020079Y049466D02*
Y049746D01*
X018758Y075591D02*
X019038D01*
X018898Y075451D02*
Y075731D01*
X019348Y074409D02*
X019628D01*
X019488Y074269D02*
Y074549D01*
X018758Y073228D02*
X019038D01*
X018898Y073088D02*
Y073368D01*
X019348Y072047D02*
X019628D01*
X019488Y071907D02*
Y072187D01*
X018758Y070866D02*
X019038D01*
X018898Y070726D02*
Y071006D01*
X019348Y069685D02*
X019628D01*
X019488Y069545D02*
Y069825D01*
X018758Y068504D02*
X019038D01*
X018898Y068364D02*
Y068644D01*
X019348Y060236D02*
X019628D01*
X019488Y060096D02*
Y060376D01*
X018758Y059055D02*
X019038D01*
X018898Y058915D02*
Y059195D01*
X019348Y057874D02*
X019628D01*
X019488Y057734D02*
Y058014D01*
X019348Y050787D02*
X019628D01*
X019488Y050647D02*
Y050927D01*
X018758Y049606D02*
X019038D01*
X018898Y049466D02*
Y049746D01*
X017577Y075591D02*
X017857D01*
X017717Y075451D02*
Y075731D01*
X018167Y074409D02*
X018447D01*
X018307Y074269D02*
Y074549D01*
X017577Y073228D02*
X017857D01*
X017717Y073088D02*
Y073368D01*
X018167Y072047D02*
X018447D01*
X018307Y071907D02*
Y072187D01*
X017577Y070866D02*
X017857D01*
X017717Y070726D02*
Y071006D01*
X018167Y069685D02*
X018447D01*
X018307Y069545D02*
Y069825D01*
X017577Y068504D02*
X017857D01*
X017717Y068364D02*
Y068644D01*
X018167Y060236D02*
X018447D01*
X018307Y060096D02*
Y060376D01*
X017577Y059055D02*
X017857D01*
X017717Y058915D02*
Y059195D01*
X018167Y057874D02*
X018447D01*
X018307Y057734D02*
Y058014D01*
X018167Y050787D02*
X018447D01*
X018307Y050647D02*
Y050927D01*
X017577Y049606D02*
X017857D01*
X017717Y049466D02*
Y049746D01*
X017577Y035433D02*
X017857D01*
X017717Y035293D02*
Y035573D01*
X016395Y075591D02*
X016675D01*
X016535Y075451D02*
Y075731D01*
X016986Y074409D02*
X017266D01*
X017126Y074269D02*
Y074549D01*
X016986Y072047D02*
X017266D01*
X017126Y071907D02*
Y072187D01*
X015214Y075591D02*
X015494D01*
X015354Y075451D02*
Y075731D01*
X015805Y074409D02*
X016085D01*
X015945Y074269D02*
Y074549D01*
X015805Y072047D02*
X016085D01*
X015945Y071907D02*
Y072187D01*
X014033Y075591D02*
X014313D01*
X014173Y075451D02*
Y075731D01*
X014624Y074409D02*
X014904D01*
X014764Y074269D02*
Y074549D01*
X014624Y072047D02*
X014904D01*
X014764Y071907D02*
Y072187D01*
X012852Y075591D02*
X013132D01*
X012992Y075451D02*
Y075731D01*
X012852Y037795D02*
X013132D01*
X012992Y037655D02*
Y037935D01*
X011671Y037795D02*
X011951D01*
X011811Y037655D02*
Y037935D01*
X012262Y036614D02*
X012542D01*
X012402Y036474D02*
Y036754D01*
X011671Y035433D02*
X011951D01*
X011811Y035293D02*
Y035573D01*
X01108Y064961D02*
X01136D01*
X01122Y064821D02*
Y065101D01*
X01108Y062598D02*
X01136D01*
X01122Y062458D02*
Y062738D01*
X01049Y037795D02*
X01077D01*
X01063Y037655D02*
Y037935D01*
X01108Y036614D02*
X01136D01*
X01122Y036474D02*
Y036754D01*
X01049Y035433D02*
X01077D01*
X01063Y035293D02*
Y035573D01*
X009899Y072047D02*
X010179D01*
X010039Y071907D02*
Y072187D01*
X009899Y062598D02*
X010179D01*
X010039Y062458D02*
Y062738D01*
X009309Y037795D02*
X009589D01*
X009449Y037655D02*
Y037935D01*
X009899Y036614D02*
X010179D01*
X010039Y036474D02*
Y036754D01*
X009309Y035433D02*
X009589D01*
X009449Y035293D02*
Y035573D01*
X008128Y037795D02*
X008408D01*
X008268Y037655D02*
Y037935D01*
X008718Y036614D02*
X008998D01*
X008858Y036474D02*
Y036754D01*
X008128Y035433D02*
X008408D01*
X008268Y035293D02*
Y035573D01*
X007537Y072047D02*
X007817D01*
X007677Y071907D02*
Y072187D01*
X007537Y067323D02*
X007817D01*
X007677Y067183D02*
Y067463D01*
X006947Y040157D02*
X007227D01*
X007087Y040017D02*
Y040297D01*
X006947Y037795D02*
X007227D01*
X007087Y037655D02*
Y037935D01*
X007537Y036614D02*
X007817D01*
X007677Y036474D02*
Y036754D01*
X006947Y035433D02*
X007227D01*
X007087Y035293D02*
Y035573D01*
X006356Y036614D02*
X006636D01*
X006496Y036474D02*
Y036754D01*
X005766Y035433D02*
X006046D01*
X005906Y035293D02*
Y035573D01*
X005175Y072047D02*
X005455D01*
X005315Y071907D02*
Y072187D01*
X004584Y070866D02*
X004864D01*
X004724Y070726D02*
Y071006D01*
X004584Y06378D02*
X004864D01*
X004724Y06364D02*
Y06392D01*
X005175Y062598D02*
X005455D01*
X005315Y062458D02*
Y062738D01*
X004584Y061417D02*
X004864D01*
X004724Y061277D02*
Y061557D01*
X004584Y059055D02*
X004864D01*
X004724Y058915D02*
Y059195D01*
X004584Y056693D02*
X004864D01*
X004724Y056553D02*
Y056833D01*
X004584Y054331D02*
X004864D01*
X004724Y054191D02*
Y054471D01*
X004584Y051968D02*
X004864D01*
X004724Y051828D02*
Y052108D01*
X004584Y049606D02*
X004864D01*
X004724Y049466D02*
Y049746D01*
X004584Y047244D02*
X004864D01*
X004724Y047104D02*
Y047384D01*
X004584Y04252D02*
X004864D01*
X004724Y04238D02*
Y04266D01*
X005175Y036614D02*
X005455D01*
X005315Y036474D02*
Y036754D01*
X004584Y035433D02*
X004864D01*
X004724Y035293D02*
Y035573D01*
X003994Y072047D02*
X004274D01*
X004134Y071907D02*
Y072187D01*
X003403Y040157D02*
X003683D01*
X003543Y040017D02*
Y040297D01*
X003403Y035433D02*
X003683D01*
X003543Y035293D02*
Y035573D01*
X01281Y0431D02*
X01309D01*
X01295Y04296D02*
Y04324D01*
X04171Y04435D02*
X04199D01*
X04185Y04421D02*
Y04449D01*
X04121Y04355D02*
X04149D01*
X04135Y04341D02*
Y04369D01*
X04171Y0429D02*
X04199D01*
X04185Y04276D02*
Y04304D01*
X04151Y04205D02*
X04179D01*
X04165Y04191D02*
Y04219D01*
X04136Y0413D02*
X04164D01*
X0415Y04116D02*
Y04144D01*
X06686Y0455D02*
X06714D01*
X067Y04536D02*
Y04564D01*
X06651Y0446D02*
X06679D01*
X06665Y04446D02*
Y04474D01*
X06631Y04385D02*
X06659D01*
X06645Y04371D02*
Y04399D01*
X06686Y04295D02*
X06714D01*
X067Y04281D02*
Y04309D01*
X06591Y0404D02*
X06619D01*
X06605Y04026D02*
Y04054D01*
X066935Y041325D02*
X067215D01*
X067075Y041185D02*
Y041465D01*
X06691Y04215D02*
X06719D01*
X06705Y04201D02*
Y04229D01*
X06631Y04725D02*
X06659D01*
X06645Y04711D02*
Y04739D01*
X06651Y0464D02*
X06679D01*
X06665Y04626D02*
Y04654D01*
X06586Y048D02*
X06614D01*
X066Y04786D02*
Y04814D01*
X06581Y04875D02*
X06609D01*
X06595Y04861D02*
Y04889D01*
X06571Y04955D02*
X06599D01*
X06585Y04941D02*
Y04969D01*
X06566Y0504D02*
X06594D01*
X0658Y05026D02*
Y05054D01*
X06566Y0513D02*
X06594D01*
X0658Y05116D02*
Y05144D01*
X06566Y0521D02*
X06594D01*
X0658Y05196D02*
Y05224D01*
X06566Y0528D02*
X06594D01*
X0658Y05266D02*
Y05294D01*
X06566Y0536D02*
X06594D01*
X0658Y05346D02*
Y05374D01*
X062985Y047625D02*
X063265D01*
X063125Y047485D02*
Y047765D01*
X06051Y0503D02*
X06079D01*
X06065Y05016D02*
Y05044D01*
X06051Y05105D02*
X06079D01*
X06065Y05091D02*
Y05119D01*
X05976Y0507D02*
X06004D01*
X0599Y05056D02*
Y05084D01*
X05771Y0508D02*
X05799D01*
X05785Y05066D02*
Y05094D01*
X05901Y0503D02*
X05929D01*
X05915Y05016D02*
Y05044D01*
X06046Y07015D02*
X06074D01*
X0606Y07001D02*
Y07029D01*
X06476Y0407D02*
X06504D01*
X0649Y04056D02*
Y04084D01*
X04386Y0507D02*
X04414D01*
X044Y05056D02*
Y05084D01*
X04306Y0507D02*
X04334D01*
X0432Y05056D02*
Y05084D01*
X04911Y04995D02*
X04939D01*
X04925Y04981D02*
Y05009D01*
X04836Y04665D02*
X04864D01*
X0485Y04651D02*
Y04679D01*
X04841Y0507D02*
X04869D01*
X04855Y05056D02*
Y05084D01*
X04766Y0507D02*
X04794D01*
X0478Y05056D02*
Y05084D01*
X04686Y0507D02*
X04714D01*
X047Y05056D02*
Y05084D01*
X04611Y0507D02*
X04639D01*
X04625Y05056D02*
Y05084D01*
X04536Y0507D02*
X04564D01*
X0455Y05056D02*
Y05084D01*
X04461Y0507D02*
X04489D01*
X04475Y05056D02*
Y05084D01*
X04921Y0482D02*
X04949D01*
X04935Y04806D02*
Y04834D01*
X04126Y0466D02*
X04154D01*
X0414Y04646D02*
Y04674D01*
X04121Y0458D02*
X04149D01*
X04135Y04566D02*
Y04594D01*
X04121Y04505D02*
X04149D01*
X04135Y04491D02*
Y04519D01*
X05316Y05545D02*
X05344D01*
X0533Y05531D02*
Y05559D01*
X05156Y05545D02*
X05184D01*
X0517Y05531D02*
Y05559D01*
X04991Y05545D02*
X05019D01*
X05005Y05531D02*
Y05559D01*
X05746Y0476D02*
X05774D01*
X0576Y04746D02*
Y04774D01*
X05961Y046497D02*
X05989D01*
X05975Y046357D02*
Y046637D01*
X05446Y0465D02*
X05474D01*
X0546Y04636D02*
Y04664D01*
X05621Y0521D02*
X05649D01*
X05635Y05196D02*
Y05224D01*
X05151Y0473D02*
X05179D01*
X05165Y04716D02*
Y04744D01*
X06531Y03975D02*
X06559D01*
X06545Y03961D02*
Y03989D01*
X02871Y05635D02*
X02899D01*
X02885Y05621D02*
Y05649D01*
X00791Y0699D02*
X00819D01*
X00805Y06976D02*
Y07004D01*
X04046Y0699D02*
X04074D01*
X0406Y06976D02*
Y07004D01*
X02786Y06445D02*
X02814D01*
X028Y06431D02*
Y06459D01*
X03706Y06995D02*
X03734D01*
X0372Y06981D02*
Y07009D01*
X03361Y07255D02*
X03389D01*
X03375Y07241D02*
Y07269D01*
X02681Y05415D02*
X02709D01*
X02695Y05401D02*
Y05429D01*
X04786Y06955D02*
X04814D01*
X048Y06941D02*
Y06969D01*
X05521Y0551D02*
X05549D01*
X05535Y05496D02*
Y05524D01*
X03776Y07165D02*
X03804D01*
X0379Y07151D02*
Y07179D01*
X039457Y0705D02*
X039737D01*
X039597Y07036D02*
Y07064D01*
X02896Y06545D02*
X02924D01*
X0291Y06531D02*
Y06559D01*
X02841Y0665D02*
X02869D01*
X02855Y06636D02*
Y06664D01*
X03696Y071D02*
X03724D01*
X0371Y07086D02*
Y07114D01*
X04706Y07055D02*
X04734D01*
X0472Y07041D02*
Y07069D01*
X03741Y0705D02*
X03769D01*
X03755Y07036D02*
Y07064D01*
X01406Y0674D02*
X01434D01*
X0142Y06726D02*
Y06754D01*
X01191Y06665D02*
X01219D01*
X01205Y06651D02*
Y06679D01*
X047009Y0727D02*
X047289D01*
X047149Y07256D02*
Y07284D01*
X05326Y0519D02*
X05354D01*
X0534Y05176D02*
Y05204D01*
X03476Y04515D02*
X03504D01*
X0349Y04501D02*
Y04529D01*
X03861Y07105D02*
X03889D01*
X03875Y07091D02*
Y07119D01*
X01766Y0542D02*
X01794D01*
X0178Y05406D02*
Y05434D01*
X03706Y06845D02*
X03734D01*
X0372Y06831D02*
Y06859D01*
X04616Y07105D02*
X04644D01*
X0463Y07091D02*
Y07119D01*
X046209Y0727D02*
X046489D01*
X046349Y07256D02*
Y07284D01*
X03711Y04925D02*
X03739D01*
X03725Y04911D02*
Y04939D01*
X03711Y06345D02*
X03739D01*
X03725Y06331D02*
Y06359D01*
X03711Y0625D02*
X03739D01*
X03725Y06236D02*
Y06264D01*
X03711Y0615D02*
X03739D01*
X03725Y06136D02*
Y06164D01*
X03711Y05235D02*
X03739D01*
X03725Y05221D02*
Y05249D01*
X03711Y05135D02*
X03739D01*
X03725Y05121D02*
Y05149D01*
X03716Y0503D02*
X03744D01*
X0373Y05016D02*
Y05044D01*
X03711Y0483D02*
X03739D01*
X03725Y04816D02*
Y04844D01*
X03706Y0473D02*
X03734D01*
X0372Y04716D02*
Y04744D01*
X03706Y0463D02*
X03734D01*
X0372Y04616D02*
Y04644D01*
X03711Y04515D02*
X03739D01*
X03725Y04501D02*
Y04529D01*
X03481Y06845D02*
X03509D01*
X03495Y06831D02*
Y06859D01*
X03476Y06345D02*
X03504D01*
X0349Y06331D02*
Y06359D01*
X03481Y0625D02*
X03509D01*
X03495Y06236D02*
Y06264D01*
X03481Y0615D02*
X03509D01*
X03495Y06136D02*
Y06164D01*
X03481Y0493D02*
X03509D01*
X03495Y04916D02*
Y04944D01*
X03481Y0503D02*
X03509D01*
X03495Y05016D02*
Y05044D01*
X03481Y0513D02*
X03509D01*
X03495Y05116D02*
Y05144D01*
X03481Y05225D02*
X03509D01*
X03495Y05211D02*
Y05239D01*
X034815Y046271D02*
X035095D01*
X034955Y046131D02*
Y046411D01*
X03481Y04725D02*
X03509D01*
X03495Y04711D02*
Y04739D01*
X03481Y0483D02*
X03509D01*
X03495Y04816D02*
Y04844D01*
X02886Y05335D02*
X02914D01*
X029Y05321D02*
Y05349D01*
X01871Y04635D02*
X01899D01*
X01885Y04621D02*
Y04649D01*
X01971Y04635D02*
X01999D01*
X01985Y04621D02*
Y04649D01*
X02071Y0463D02*
X02099D01*
X02085Y04616D02*
Y04644D01*
X02171Y0463D02*
X02199D01*
X02185Y04616D02*
Y04644D01*
X02271Y0463D02*
X02299D01*
X02285Y04616D02*
Y04644D01*
X02371Y0463D02*
X02399D01*
X02385Y04616D02*
Y04644D01*
X02471Y0463D02*
X02499D01*
X02485Y04616D02*
Y04644D01*
X02571Y0463D02*
X02599D01*
X02585Y04616D02*
Y04644D01*
X02671Y04635D02*
X02699D01*
X02685Y04621D02*
Y04649D01*
X02776Y0463D02*
X02804D01*
X0279Y04616D02*
Y04644D01*
X02881Y06045D02*
X02909D01*
X02895Y06031D02*
Y06059D01*
X02876Y0584D02*
X02904D01*
X0289Y05826D02*
Y05854D01*
X02881Y0553D02*
X02909D01*
X02895Y05516D02*
Y05544D01*
X01396Y0483D02*
X01424D01*
X0141Y04816D02*
Y04844D01*
X01396Y0473D02*
X01424D01*
X0141Y04716D02*
Y04744D01*
X01416Y0585D02*
X01444D01*
X0143Y05836D02*
Y05864D01*
X01416Y0595D02*
X01444D01*
X0143Y05936D02*
Y05964D01*
X01411Y0605D02*
X01439D01*
X01425Y06036D02*
Y06064D01*
X02886Y0542D02*
X02914D01*
X029Y05406D02*
Y05434D01*
X01396Y0513D02*
X01424D01*
X0141Y05116D02*
Y05144D01*
X01396Y05035D02*
X01424D01*
X0141Y05021D02*
Y05049D01*
X01396Y0493D02*
X01424D01*
X0141Y04916D02*
Y04944D01*
X01396Y0464D02*
X01424D01*
X0141Y04626D02*
Y04654D01*
X02886Y05945D02*
X02914D01*
X029Y05931D02*
Y05959D01*
X04986Y0519D02*
X05014D01*
X05Y05176D02*
Y05204D01*
X05161Y0519D02*
X05189D01*
X05175Y05176D02*
Y05204D01*
D125*
X09356Y05739D02*
Y05759D01*
Y05749D01*
X09296D01*
X09306Y05739D01*
X09356Y05789D02*
Y05809D01*
Y05799D01*
X09296D01*
X09306Y05789D01*
X09356Y05839D02*
X09346D01*
Y05849D01*
X09356D01*
Y05839D01*
Y05919D02*
X09296D01*
X09326Y05889D01*
Y05929D01*
X09306Y05949D02*
X09296Y05959D01*
Y05979D01*
X09306Y05989D01*
X09316D01*
X09326Y05979D01*
Y05969D01*
Y05979D01*
X09336Y05989D01*
X09346D01*
X09356Y05979D01*
Y05959D01*
X09346Y05949D01*
M02*
