G04*
G04 #@! TF.GenerationSoftware,Altium Limited,Altium Designer,20.0.13 (296)*
G04*
G04 Layer_Color=16711935*
%FSTAX24Y24*%
%MOIN*%
G70*
G01*
G75*
%ADD41R,0.0552X0.0513*%
%ADD42R,0.0513X0.0395*%
%ADD43R,0.0513X0.0552*%
%ADD47R,0.0395X0.0513*%
%ADD56C,0.0867*%
%ADD57C,0.0592*%
%ADD58C,0.1084*%
%ADD59C,0.1760*%
%ADD60R,0.0592X0.0592*%
%ADD61C,0.1025*%
%ADD62O,0.0730X0.0830*%
%ADD63C,0.0745*%
%ADD64C,0.1970*%
%ADD65R,0.0745X0.0745*%
%ADD66C,0.0880*%
%ADD67C,0.0680*%
%ADD68R,0.0595X0.0595*%
%ADD69C,0.0595*%
%ADD70C,0.0516*%
%ADD71C,0.2442*%
%ADD72C,0.0780*%
%ADD73R,0.0780X0.0780*%
%ADD74C,0.0745*%
%ADD75C,0.1954*%
%ADD76C,0.0678*%
%ADD77R,0.0678X0.0678*%
%ADD78O,0.0680X0.0980*%
%ADD79R,0.0680X0.0980*%
%ADD80C,0.1380*%
%ADD119R,0.1064X0.1104*%
D41*
X0626Y0764D02*
D03*
X0619D02*
D03*
D42*
X06045Y038D02*
D03*
Y0388D02*
D03*
X05385Y038D02*
D03*
Y0388D02*
D03*
X0545Y038D02*
D03*
Y0388D02*
D03*
X0558Y038D02*
D03*
Y0388D02*
D03*
X05515Y038D02*
D03*
Y0388D02*
D03*
X0571Y038D02*
D03*
Y0388D02*
D03*
X05645Y038D02*
D03*
Y0388D02*
D03*
X0584Y038D02*
D03*
Y0388D02*
D03*
X0637Y038D02*
D03*
Y0388D02*
D03*
X0611Y038D02*
D03*
Y0388D02*
D03*
X05975Y038D02*
D03*
Y0388D02*
D03*
X0591Y038D02*
D03*
Y0388D02*
D03*
X06305Y038D02*
D03*
Y0388D02*
D03*
X0624Y038D02*
D03*
Y0388D02*
D03*
X06175Y038D02*
D03*
Y0388D02*
D03*
X05775Y038D02*
D03*
Y0388D02*
D03*
X0522Y038D02*
D03*
Y0388D02*
D03*
X0509Y038D02*
D03*
Y0388D02*
D03*
X05285Y038D02*
D03*
Y0388D02*
D03*
X05155Y038D02*
D03*
Y0388D02*
D03*
X04955Y038D02*
D03*
Y0388D02*
D03*
X05025Y038D02*
D03*
Y0388D02*
D03*
X0489Y038D02*
D03*
Y0388D02*
D03*
X04825Y038D02*
D03*
Y0388D02*
D03*
X0476Y038D02*
D03*
Y0388D02*
D03*
X0457Y038D02*
D03*
Y0388D02*
D03*
X047Y038D02*
D03*
Y0388D02*
D03*
X04635Y038D02*
D03*
Y0388D02*
D03*
X04375Y038D02*
D03*
Y0388D02*
D03*
X0431Y038D02*
D03*
Y0388D02*
D03*
X04505Y038D02*
D03*
Y0388D02*
D03*
X0444Y038D02*
D03*
Y0388D02*
D03*
X0166Y0391D02*
D03*
Y0399D02*
D03*
X02305Y0393D02*
D03*
Y0401D02*
D03*
X021Y03925D02*
D03*
Y04005D02*
D03*
X03365Y0392D02*
D03*
Y04D02*
D03*
X03565Y0392D02*
D03*
Y04D02*
D03*
X0377Y0392D02*
D03*
Y04D02*
D03*
X01655Y0432D02*
D03*
Y0424D02*
D03*
X02095Y0432D02*
D03*
Y0424D02*
D03*
X02295Y0432D02*
D03*
Y0424D02*
D03*
X02925Y04315D02*
D03*
Y04235D02*
D03*
X0356Y0432D02*
D03*
Y0424D02*
D03*
X03775Y0432D02*
D03*
Y0424D02*
D03*
X02735Y043095D02*
D03*
Y042295D02*
D03*
X01455Y0432D02*
D03*
Y0424D02*
D03*
X0337D02*
D03*
Y0432D02*
D03*
X01455Y03915D02*
D03*
Y03995D02*
D03*
X0293Y0399D02*
D03*
Y0391D02*
D03*
X0273Y03995D02*
D03*
Y03915D02*
D03*
D43*
X03875Y04245D02*
D03*
Y04315D02*
D03*
X02835Y0424D02*
D03*
Y0431D02*
D03*
X0303Y0424D02*
D03*
Y0431D02*
D03*
X03475Y0425D02*
D03*
Y0432D02*
D03*
X03665Y04245D02*
D03*
Y04315D02*
D03*
X022Y04245D02*
D03*
Y04315D02*
D03*
X02395Y0425D02*
D03*
Y0432D02*
D03*
X0156Y04245D02*
D03*
Y04315D02*
D03*
X0177Y0424D02*
D03*
Y0431D02*
D03*
D47*
X0518Y07355D02*
D03*
X0526D02*
D03*
X0443Y0735D02*
D03*
X0451D02*
D03*
X03755Y0736D02*
D03*
X03675D02*
D03*
X04205Y07355D02*
D03*
X04125D02*
D03*
X0572Y07345D02*
D03*
X0564D02*
D03*
X0496D02*
D03*
X0488D02*
D03*
D56*
X0116Y07015D02*
D03*
Y06815D02*
D03*
Y07115D02*
D03*
Y06915D02*
D03*
X0535Y05705D02*
D03*
X0525D02*
D03*
X0515D02*
D03*
X0505D02*
D03*
X0495D02*
D03*
D57*
X057201Y072652D02*
D03*
X056299D02*
D03*
X051799D02*
D03*
X052701D02*
D03*
X055906Y07455D02*
D03*
X055504Y075251D02*
D03*
X055102Y07455D02*
D03*
X054701Y075251D02*
D03*
X054299Y07455D02*
D03*
X053898Y075251D02*
D03*
X053496Y07455D02*
D03*
X049652Y072702D02*
D03*
X04875D02*
D03*
X04425D02*
D03*
X045152D02*
D03*
X048356Y0746D02*
D03*
X047955Y075301D02*
D03*
X047553Y0746D02*
D03*
X047152Y075301D02*
D03*
X04675Y0746D02*
D03*
X046348Y075301D02*
D03*
X045947Y0746D02*
D03*
X042102Y072702D02*
D03*
X0412D02*
D03*
X0367D02*
D03*
X037602D02*
D03*
X040807Y0746D02*
D03*
X040405Y0753D02*
D03*
X040004Y0746D02*
D03*
X039602Y0753D02*
D03*
X0392Y0746D02*
D03*
X038799Y0753D02*
D03*
X038397Y0746D02*
D03*
D58*
X051301Y0749D02*
D03*
X057699D02*
D03*
X05015Y07495D02*
D03*
X036202Y07495D02*
D03*
X06545Y0749D02*
D03*
X059052D02*
D03*
D59*
X057Y076251D02*
D03*
X052D02*
D03*
X049451Y076301D02*
D03*
X044451D02*
D03*
X041901Y0763D02*
D03*
X036901D02*
D03*
X059751Y076251D02*
D03*
X064751D02*
D03*
D60*
X053094Y075251D02*
D03*
X045545Y075301D02*
D03*
X037996Y0753D02*
D03*
D61*
X043752Y07495D02*
D03*
X0426Y07495D02*
D03*
D62*
X0412Y0375D02*
D03*
X04221D02*
D03*
D63*
X063608Y0361D02*
D03*
X063063Y034982D02*
D03*
X062518Y0361D02*
D03*
X061972Y034982D02*
D03*
X059791D02*
D03*
X060337Y0361D02*
D03*
X060882Y034982D02*
D03*
X061427Y0361D02*
D03*
X05761Y034982D02*
D03*
X058155Y0361D02*
D03*
X058701Y034982D02*
D03*
X059246Y0361D02*
D03*
X053248Y034982D02*
D03*
X053793Y0361D02*
D03*
X054339Y034982D02*
D03*
X057065Y0361D02*
D03*
X052157Y034982D02*
D03*
X052703Y0361D02*
D03*
X055429Y034982D02*
D03*
X055974Y0361D02*
D03*
X05652Y034982D02*
D03*
X054883Y0361D02*
D03*
X051612D02*
D03*
X051067Y034982D02*
D03*
X050522Y0361D02*
D03*
X049976Y034982D02*
D03*
X049431Y0361D02*
D03*
X048886Y034982D02*
D03*
X048341Y0361D02*
D03*
X047795Y034982D02*
D03*
X04725Y0361D02*
D03*
X046705Y034982D02*
D03*
X046159Y0361D02*
D03*
X045614Y034982D02*
D03*
X045069Y0361D02*
D03*
X044524Y034982D02*
D03*
D64*
X066314Y035531D02*
D03*
X041235Y035539D02*
D03*
D65*
X043978Y0361D02*
D03*
X018856Y036068D02*
D03*
D66*
X0033Y07115D02*
D03*
X0109Y04075D02*
D03*
X01325Y03565D02*
D03*
X0028Y0771D02*
D03*
X03725Y0353D02*
D03*
D67*
X0331Y07305D02*
D03*
X03445D02*
D03*
X03375Y0738D02*
D03*
D68*
X060845Y075251D02*
D03*
D69*
X061247Y07455D02*
D03*
X061648Y075251D02*
D03*
X06205Y07455D02*
D03*
X062452Y075251D02*
D03*
X062853Y07455D02*
D03*
X063255Y075251D02*
D03*
X063656Y07455D02*
D03*
D70*
X060452Y072652D02*
D03*
X05955D02*
D03*
X06405D02*
D03*
X064952D02*
D03*
D71*
X004192Y073994D02*
D03*
X004242Y038144D02*
D03*
X067863Y03815D02*
D03*
X067963Y07395D02*
D03*
D72*
X0066Y05795D02*
D03*
X0066Y06095D02*
D03*
X0056Y05695D02*
D03*
X0066Y05695D02*
D03*
X0056Y05795D02*
D03*
X0056Y05895D02*
D03*
X0056Y05995D02*
D03*
X0066Y05995D02*
D03*
X0066Y05895D02*
D03*
X0066Y05595D02*
D03*
X0056Y05495D02*
D03*
X0066D02*
D03*
X0056Y05395D02*
D03*
X0066D02*
D03*
X0056Y05295D02*
D03*
X0066D02*
D03*
X0056Y05195D02*
D03*
X0066D02*
D03*
X0056Y05095D02*
D03*
X0066D02*
D03*
X0056Y04995D02*
D03*
X0066D02*
D03*
X0056Y04895D02*
D03*
X0066D02*
D03*
X0056Y05595D02*
D03*
Y04795D02*
D03*
X0066D02*
D03*
X0056Y04695D02*
D03*
X0066D02*
D03*
X0056Y04595D02*
D03*
X0066D02*
D03*
X0056Y04495D02*
D03*
X0066D02*
D03*
X0056Y04395D02*
D03*
X0066D02*
D03*
X0056Y04295D02*
D03*
X0066D02*
D03*
X0056Y04195D02*
D03*
X0066D02*
D03*
D73*
X0056Y06095D02*
D03*
D74*
X031901Y036068D02*
D03*
X031357Y03495D02*
D03*
X030814Y036068D02*
D03*
X03027Y03495D02*
D03*
X029727Y036068D02*
D03*
X029183Y03495D02*
D03*
X02864Y036068D02*
D03*
X028096Y03495D02*
D03*
X027552Y036068D02*
D03*
X027009Y03495D02*
D03*
X026465Y036068D02*
D03*
X025922Y03495D02*
D03*
X025378Y036068D02*
D03*
X024835Y03495D02*
D03*
X024291Y036068D02*
D03*
X023748Y03495D02*
D03*
X023204Y036068D02*
D03*
X022661Y03495D02*
D03*
X022117Y036068D02*
D03*
X021574Y03495D02*
D03*
X02103Y036068D02*
D03*
X020487Y03495D02*
D03*
X019943Y036068D02*
D03*
X0194Y03495D02*
D03*
D75*
X016116Y035509D02*
D03*
X034641D02*
D03*
D76*
X02545Y03895D02*
D03*
Y03995D02*
D03*
X01895Y0388D02*
D03*
Y0398D02*
D03*
X01305Y03885D02*
D03*
Y03985D02*
D03*
X032Y03905D02*
D03*
Y04005D02*
D03*
D77*
X02545Y04095D02*
D03*
X01895Y0408D02*
D03*
X01305Y04085D02*
D03*
X032Y04105D02*
D03*
D78*
X0293Y04145D02*
D03*
X0303D02*
D03*
Y03845D02*
D03*
X0273Y04145D02*
D03*
X0283D02*
D03*
Y03845D02*
D03*
X02305Y0415D02*
D03*
X02405D02*
D03*
Y0385D02*
D03*
X021Y0415D02*
D03*
X022D02*
D03*
Y0385D02*
D03*
X0166Y0415D02*
D03*
X0176D02*
D03*
Y0385D02*
D03*
X01455Y0415D02*
D03*
X01555D02*
D03*
Y0385D02*
D03*
X0377Y04155D02*
D03*
X0387D02*
D03*
Y03855D02*
D03*
X03565Y04155D02*
D03*
X03665D02*
D03*
Y03855D02*
D03*
X03365Y04155D02*
D03*
X03465D02*
D03*
Y03855D02*
D03*
D79*
X0293Y03845D02*
D03*
X0273D02*
D03*
X02305Y0385D02*
D03*
X021D02*
D03*
X0166D02*
D03*
X01455D02*
D03*
X0377Y03855D02*
D03*
X03565D02*
D03*
X03365D02*
D03*
D80*
X006824Y076274D02*
D03*
X01085Y0763D02*
D03*
X00885D02*
D03*
D119*
X0098Y0744D02*
D03*
X0082D02*
D03*
M02*
