M48
;Layer_Color=9474304
;FILE_FORMAT=2:4
INCH,LZ
;TYPE=PLATED
T1F00S00C0.0236
T2F00S00C0.0276
T3F00S00C0.0280
T4F00S00C0.0300
T5F00S00C0.0310
T6F00S00C0.0350
T7F00S00C0.0360
T8F00S00C0.0400
T9F00S00C0.0402
T10F00S00C0.0429
T11F00S00C0.0472
T12F00S00C0.0512
T13F00S00C0.0650
T14F00S00C0.0669
T15F00S00C0.1252
T16F00S00C0.1280
T17F00S00C0.1283
T18F00S00C0.1575
%
T01
X05955Y072652
X060452
X06405
X064952
T02
X0367Y072702
X037602
X038397Y0746
X0392
X040004
X040807
X040405Y0753
X039602
X038799
X037996
X0412Y072702
X042102
X04425Y072702
X045152
X045947Y0746
X04675
X046348Y075301
X045545
X047152
X047955
X048356Y0746
X047553
X04875Y072702
X049652
X051799Y072652
X052701
X053496Y07455
X054299
X055102
X055906
X055504Y075251
X054701
X053898
X053094
X056299Y072652
X057201
X061247Y07455
X06205
X062452Y075251
X061648
X060845
X063255
X062853Y07455
X063656
T03
X003543Y035433
X004724
X005906
X007087
X008268
X009449
X01063
X011811
X012402Y036614
X01122
X010039
X008858
X007677
X006496
X005315
X007087Y037795
X008268
X009449
X01063
X011811
X012992
X01295Y0431
X0141Y0464
X007087Y040157
X003543
X004724Y04252
X01885Y04635
X01985
X02085Y0463
X02185
X02285
X02385
X02485
X02585
X02685Y04635
X0279Y0463
X017717Y035433
X033071
X038976
X039567Y036614
X040157Y040157
X0415Y0413
X04165Y04205
X04185Y0429
X04135Y04355
X04185Y04435
X04135Y04505
Y0458
X0414Y0466
X0372Y0463
X03725Y04515
X0349
X034955Y046271
X0485Y04665
X0546Y0465
X05975Y046497
X06665Y0464
X067Y0455
X06665Y0446
X06645Y04385
X067Y04295
X06705Y04215
X067075Y041325
X067323Y040157
X068504
X06605Y0404
X06545Y03975
X065551Y038976
X066142Y037795
X06437Y036614
X0649Y0407
X068504Y035433
X06645Y04725
X066Y048
X06595Y04875
X06585Y04955
X0658Y0504
Y0513
Y0521
Y0528
Y0536
X06378Y054331
X062598
X063189Y055512
X06378Y056693
X062598
X063189Y057874
X06378Y059055
X062598
X063189Y060236
X06378Y061417
X062598
X066142
X067323
X068504
X067913Y060236
X066732
X067323Y059055
X068504
X067913Y057874
X066732
X067323Y056693
X068504
X067913Y055512
X066732
X066142Y056693
Y059055
X063189Y05315
X062598Y051968
X063125Y047625
X06065Y0503
Y05105
X0599Y0507
X05915Y0503
X05785Y0508
X05635Y0521
X056693Y054331
X057874
X059055
X060236
X061417
X062008Y055512
X060827
X059646
X058465
X057283
X056102
X05535Y0551
X055512Y054331
Y056693
X056693
X057874
X059055
X060236
X061417
X062008Y057874
X060827
X059646
X058465
X057283
X056102
X056693Y059055
X057874
X059055
X060236
X061417
X062008Y060236
X060827
X059646
X058465
X059055Y061417
X060236
X061417
X056693
X054331
X05315
X051968
X050787
X049606
X050197Y060236
X051378
X052559
X051968Y059055
X050787
X049606
X048425
X047244
X047835Y060236
X049016
Y057874
X047835
X048425Y056693
X047244
X047835Y055512
X049016
X05005Y05545
X0517
X0533
X0534Y0519
X05175
X05
X04855Y0507
X0478
X047
X04925Y04995
X04935Y0482
X05165Y0473
X0576Y0476
X054921Y050787
X059646Y05315
X060827
X062008
X054331Y059055
X048425Y054331
X047244
X046063
X044882
X043701
X044291Y055512
X045472
X046654
X046063Y056693
X044882
X045472Y057874
X046654
X04625Y0507
X0455
X04475
X044
X0432
X041929Y048425
X03725Y0483
Y04925
X0373Y0503
X03725Y05135
Y05235
X03495Y05225
Y0513
Y0503
Y0493
Y0483
Y04725
X0372Y0473
X036614Y054331
X037205Y055512
X036024
X036614Y056693
X037205Y057874
X036024
X036614Y059055
X037205Y060236
X036024
X03495Y0615
X03725
X033661Y060236
Y057874
Y055512
Y05315
X029Y05335
Y0542
X02895Y0553
X02885Y05635
X0289Y0584
X029Y05945
X02895Y06045
X025394Y060236
X024213
X023031
X02185
X020669
X019488
X018307
X018898Y059055
X020079
X02126
X022441
X023622
X023031Y057874
X02185
X020669
X019488
X018307
X017717Y059055
X0178Y0542
X018307Y050787
X019488
X020669
X02126Y049606
X020079
X018898
X017717
X027165
X028346
X028937Y050787
X027756
X028346Y051968
X027165
X02695Y05415
X0141Y0513
Y05035
Y0493
Y0483
Y0473
X004724Y047244
Y049606
Y051968
Y054331
Y056693
Y059055
Y061417
X01425Y0605
X0143Y0595
Y0585
X01122Y062598
X010039
X01122Y064961
X01205Y06665
X0142Y0674
X014764Y072047
Y074409
X015354Y075591
X014173
X012992
X010039Y072047
X007677
X005315
X004134
X004724Y070866
X00805Y0699
X007677Y067323
X004724Y06378
X005315Y062598
X020669
X02185
X023031
X024213
X025394
X025984Y06378
X024803
X023622
X022441
X02126
X023622Y066142
X024803
X025984
X025394Y067323
X025984Y068504
X028346
X028937Y067323
X027756
X02855Y0665
X0291Y06545
X028Y06445
X027756Y062598
X028346Y073228
X029528
X030709
X030118Y074409
X028937
X027756
X026575
X025394
X024213
X023031
X02185
X020669
X019488
X018307
X017126
X015945
X016535Y075591
X017717
X018898
X020079
X02126
X022441
X023622
X024803
X025984
X027165
X028346
X029528
X030709
X027165Y073228
X025984
X024803
X023622
X022441
X02126
X020079
X018898
X017717
X018307Y072047
X019488
X020669
X02185
X02126Y070866
X020079
X018898
X017717
X018307Y069685
X019488
X018898Y068504
X017717
X02126
X023622Y070866
X017126Y072047
X015945
X03189Y073228
X031299Y074409
X03189Y075591
X034843Y074409
X035433Y073228
X03375Y07255
X0371Y071
X03755Y0705
X0372Y06995
Y06845
X037205Y067323
X038386
X037795Y066142
X036614
X037205Y064961
X036024
Y067323
X03495Y06845
X033661Y064961
X0349Y06345
X03495Y0625
X03725
Y06345
X039567Y062598
X041929Y064961
X04252Y066142
X04311Y067323
X044291
X044882Y068504
X043701
X04252
X041929Y067323
X0406Y0699
X039597Y0705
X03875Y07105
X0379Y07165
X038386Y076772
X039567
X046654
X046349Y0727
X0463Y07105
X0472Y07055
X048Y06955
X049606Y068504
X050787Y073228
X047149Y0727
X047835Y076772
X05374
X054921
X057874Y073228
X059055
X058465Y072047
X057874Y070866
X056693
X057283Y069685
X058465
X059646
X0606Y07015
X060236Y068504
X059055
X057874
X056693
X057283Y067323
X058465
X059646
X059055Y066142
X057874
X056693
X055512
X054331
X054921Y067323
X056102
Y064961
X057283
X056693Y06378
X055512
X054331
X05315
X051968
X052559Y064961
X05374
X054921
Y062598
X05374
X052559
X051378
X050197
X059055Y06378
X061417
X062008Y062598
X060827
X063189
X06378Y06378
X062598
X066142
X067323
X068504
X067913Y064961
X066732
X065551
X066142Y066142
X067323
X068504
X067913Y067323
X066732
X065551
X06437
X064961Y068504
X066142
X067323
X068504
X067913Y069685
X066732
X065551
X06437
X06378Y068504
Y066142
X064961
X066732Y062598
X067913
X068504Y070866
X067323
X066142
X066732Y072047
X067913
X066142Y073228
X06378
X067323Y075591
X067913Y076772
X066732
T04
X0331Y07305
X03445
X03375Y0738
T05
X01455Y0385
X01555
Y0415
X01455
X0166
X0176
Y0385
X0166
X021
X022
X02305
X02405
Y0415
X02305
X022
X021
X0273Y04145
X0283
X0293
X0303
Y03845
X0293
X0283
X0273
X03365Y03855
X03465
X03565
X03665
X0377
X0387
Y04155
X0377
X03665
X03565
X03465
X03365
T06
X01325Y03565
X0109Y04075
X03725Y0353
X0033Y07115
X0028Y0771
T07
X0412Y0375
X04221
T08
X0056Y04195
Y04295
Y04395
Y04495
Y04595
X0066
Y04495
Y04395
Y04295
Y04195
Y04695
Y04795
Y04895
Y04995
Y05095
Y05195
Y05295
Y05395
Y05495
Y05595
X0056
Y05495
Y05395
Y05295
Y05195
Y05095
Y04995
Y04895
Y04795
Y04695
X0056Y05695
X0056Y05795
X0066
X0066Y05695
X0066Y05895
X0056
X0056Y05995
X0066Y05995
X0066Y06095
X0056
T09
X01305Y03885
Y03985
Y04085
X01895Y0408
Y0398
Y0388
X02545Y03895
Y03995
Y04095
X032Y04105
Y04005
Y03905
T10
X0194Y03495
X020487
X021574
X022661
X023748
X024835
X025922
X027009
X028096
X029183
X03027
X030814Y036068
X029727
X02864
X027552
X026465
X025378
X024291
X023204
X022117
X02103
X019943
X018856
X031901
X031357Y03495
X044524Y034982
X045614
X046705
X046159Y0361
X045069
X043978Y0361
X04725Y0361
X048341
X049431
X050522
X051612Y0361
X052703
X053793
X054883
X055974
X057065
X058155
X059246
X060337
X061427
X060882Y034982
X061972
X059791
X058701
X05761
X05652
X055429
X054339
X053248
X052157
X051067Y034982
X049976
X048886
X047795
X063063Y034982
X063608Y0361
X062518
T11
X0495Y05705
X0505
X0515
X0525
X0535
X0116Y06915
Y07015
Y07115
T12
X0116Y06815
T13
X006824Y076274
X00885Y0763
X01085
T14
X036202Y07495
X0426
X043752Y07495
X05015
X051301Y0749
X057699
X059052
X06545
T15
X041235Y035539
X066314Y035531
T16
X036901Y0763
X041901
X044451Y076301
X049451
X052Y076251
X057
X059751
X064751
T17
X016116Y035509
X034641
T18
X004242Y038144
X067863Y03815
X004192Y073994
X067963Y07395
M30
