G04*
G04 #@! TF.GenerationSoftware,Altium Limited,Altium Designer,20.1.12 (249)*
G04*
G04 Layer_Color=65535*
%FSTAX24Y24*%
%MOIN*%
G70*
G04*
G04 #@! TF.SameCoordinates,3ECB986E-075F-4DB5-9EE9-704FFB054EE1*
G04*
G04*
G04 #@! TF.FilePolarity,Positive*
G04*
G01*
G75*
%ADD10C,0.0040*%
%ADD11C,0.0070*%
%ADD12C,0.0010*%
%ADD13C,0.0050*%
%ADD14C,0.0079*%
%ADD15C,0.0100*%
G36*
X044526Y047076D02*
X044676D01*
X044426Y046826D01*
X044176Y047076D01*
X044326D01*
Y047326D01*
X044526D01*
Y047076D01*
D02*
G37*
G36*
X03935Y04454D02*
X03885Y04454D01*
X0391Y04479D01*
X03935Y04454D01*
D02*
G37*
G36*
X0242Y03035D02*
X02415D01*
X0238Y0307D01*
Y0308D01*
X0242Y03115D01*
Y03035D01*
D02*
G37*
G36*
X0407Y0303D02*
X04065D01*
X0403Y03065D01*
Y03075D01*
X0407Y0311D01*
Y0303D01*
D02*
G37*
G36*
X0367D02*
X03665D01*
X0363Y03065D01*
Y03075D01*
X0367Y0311D01*
Y0303D01*
D02*
G37*
G36*
X0287D02*
X02865D01*
X0283Y03065D01*
Y03075D01*
X0287Y0311D01*
Y0303D01*
D02*
G37*
G36*
X0202D02*
X02015D01*
X0198Y03065D01*
Y03075D01*
X0202Y0311D01*
Y0303D01*
D02*
G37*
G36*
X049Y03025D02*
X04895D01*
X0486Y0306D01*
Y0307D01*
X049Y03105D01*
Y03025D01*
D02*
G37*
G36*
X03275D02*
X0327D01*
X03235Y0306D01*
Y0307D01*
X03275Y03105D01*
Y03025D01*
D02*
G37*
G36*
X04485Y0302D02*
X0448D01*
X04445Y03055D01*
Y03065D01*
X04485Y031D01*
Y0302D01*
D02*
G37*
G36*
X04905Y0182D02*
X049D01*
X04865Y01855D01*
Y01865D01*
X04905Y019D01*
Y0182D01*
D02*
G37*
G36*
X04485Y01815D02*
X0448D01*
X04445Y0185D01*
Y0186D01*
X04485Y01895D01*
X04485Y01815D01*
D02*
G37*
G36*
X04085D02*
X0408D01*
X04045Y0185D01*
Y0186D01*
X04085Y01895D01*
Y01815D01*
D02*
G37*
G36*
X02875D02*
X0287D01*
X02835Y0185D01*
Y0186D01*
X02875Y01895D01*
Y01815D01*
D02*
G37*
G36*
X02425D02*
X0242D01*
X02385Y0185D01*
Y0186D01*
X02425Y01895D01*
Y01815D01*
D02*
G37*
G36*
X0203D02*
X02025D01*
X0199Y0185D01*
Y0186D01*
X0203Y01895D01*
Y01815D01*
D02*
G37*
G36*
X0329Y0181D02*
X03285D01*
X0325Y01845D01*
Y01855D01*
X0329Y0189D01*
Y0181D01*
D02*
G37*
G36*
X0367Y018D02*
X03665D01*
X0363Y01835D01*
Y01845D01*
X0367Y0188D01*
Y018D01*
D02*
G37*
G36*
X04365Y0146D02*
X0435D01*
X0435Y01435D01*
X0433D01*
X0433Y0146D01*
X04315D01*
X0434Y01485D01*
X04365Y0146D01*
D02*
G37*
G36*
X03565D02*
X0355D01*
Y01435D01*
X0353Y01435D01*
X0353Y0146D01*
X03515D01*
X0354Y01485D01*
X03565Y0146D01*
D02*
G37*
G36*
X019649Y014599D02*
X019499D01*
X019499Y014349D01*
X019299D01*
X019299Y014599D01*
X019149D01*
X019399Y014849D01*
X019649Y014599D01*
D02*
G37*
G36*
X027649Y014599D02*
X027499D01*
Y014349D01*
X027299Y014349D01*
X027299Y014599D01*
X027149D01*
X027399Y014849D01*
X027649Y014599D01*
D02*
G37*
G36*
X05065Y0115D02*
X0505D01*
Y01125D01*
X0503D01*
Y0115D01*
X05015D01*
X0504Y01175D01*
X05065Y0115D01*
D02*
G37*
D10*
X049441Y04655D02*
G03*
X049441Y04655I-000591J0D01*
G01*
X029241Y02895D02*
G03*
X029241Y02895I-000591J0D01*
G01*
X033441D02*
G03*
X033441Y02895I-000591J0D01*
G01*
X037541Y0291D02*
G03*
X037541Y0291I-000591J0D01*
G01*
X041341D02*
G03*
X041341Y0291I-000591J0D01*
G01*
X045691Y0289D02*
G03*
X045691Y0289I-000591J0D01*
G01*
X049941Y02895D02*
G03*
X049941Y02895I-000591J0D01*
G01*
X041491Y017D02*
G03*
X041491Y017I-000591J0D01*
G01*
X045441Y017D02*
G03*
X045441Y017I-000591J0D01*
G01*
X049841D02*
G03*
X049841Y017I-000591J0D01*
G01*
X037341D02*
G03*
X037341Y017I-000591J0D01*
G01*
X033441D02*
G03*
X033441Y017I-000591J0D01*
G01*
X029441D02*
G03*
X029441Y017I-000591J0D01*
G01*
X024991D02*
G03*
X024991Y017I-000591J0D01*
G01*
X021091D02*
G03*
X021091Y017I-000591J0D01*
G01*
X020841Y0291D02*
G03*
X020841Y0291I-000591J0D01*
G01*
X024741Y02915D02*
G03*
X024741Y02915I-000591J0D01*
G01*
X04835Y04635D02*
X04935D01*
X04885Y04675D02*
X04935Y04635D01*
X04885Y04675D02*
X04935Y04675D01*
X04835Y04635D02*
X04885Y04675D01*
X04835Y04675D02*
X04885Y04675D01*
X0392Y04148D02*
Y04182D01*
X0387Y04148D02*
Y04182D01*
X04055Y04143D02*
Y04177D01*
X04005D02*
X04005Y04143D01*
X02845Y02845D02*
Y02945D01*
Y02845D02*
X02885Y02895D01*
X02885Y02845D02*
X02885Y02895D01*
X02845Y02945D02*
X02885Y02895D01*
X02885Y02945D02*
X02885Y02895D01*
X03265Y02845D02*
Y02945D01*
Y02845D02*
X03305Y02895D01*
Y02845D02*
Y02895D01*
X03265Y02945D02*
X03305Y02895D01*
Y02945D01*
X03675Y0286D02*
Y0296D01*
Y0286D02*
X03715Y0291D01*
X03715Y0286D02*
X03715Y0291D01*
X03675Y0296D02*
X03715Y0291D01*
X03715Y0296D02*
X03715Y0291D01*
X04055Y0286D02*
Y0296D01*
Y0286D02*
X04095Y0291D01*
Y0286D02*
Y0291D01*
X04055Y0296D02*
X04095Y0291D01*
Y0296D01*
X0449Y0284D02*
Y0294D01*
Y0284D02*
X0453Y0289D01*
X0453Y0284D02*
X0453Y0289D01*
X0449Y0294D02*
X0453Y0289D01*
X0453Y0294D02*
X0453Y0289D01*
X04915Y02845D02*
Y02945D01*
Y02845D02*
X04955Y02895D01*
Y02845D02*
Y02895D01*
X04915Y02945D02*
X04955Y02895D01*
Y02945D01*
X0407Y0165D02*
Y0175D01*
Y0165D02*
X0411Y017D01*
Y0165D02*
Y017D01*
X0407Y0175D02*
X0411Y017D01*
Y0175D01*
X04465Y0165D02*
Y0175D01*
Y0165D02*
X04505Y017D01*
X04505Y0165D02*
X04505Y017D01*
X04465Y0175D02*
X04505Y017D01*
X04505Y0175D02*
X04505Y017D01*
X04905Y0165D02*
Y0175D01*
Y0165D02*
X04945Y017D01*
X04945Y0165D02*
X04945Y017D01*
X04905Y0175D02*
X04945Y017D01*
X04945Y0175D02*
X04945Y017D01*
X03655Y0165D02*
Y0175D01*
Y0165D02*
X03695Y017D01*
X03695Y0165D02*
X03695Y017D01*
X03655Y0175D02*
X03695Y017D01*
X03695Y0175D02*
X03695Y017D01*
X03265Y0165D02*
Y0175D01*
Y0165D02*
X03305Y017D01*
X03305Y0165D02*
X03305Y017D01*
X03265Y0175D02*
X03305Y017D01*
X03305Y0175D02*
X03305Y017D01*
X02865Y0165D02*
Y0175D01*
Y0165D02*
X02905Y017D01*
X02905Y0165D02*
X02905Y017D01*
X02865Y0175D02*
X02905Y017D01*
X02905Y0175D02*
X02905Y017D01*
X0242Y0165D02*
Y0175D01*
Y0165D02*
X0246Y017D01*
X0246Y0165D02*
X0246Y017D01*
X0242Y0175D02*
X0246Y017D01*
X0246Y0175D02*
X0246Y017D01*
X0203Y0165D02*
Y0175D01*
Y0165D02*
X0207Y017D01*
X0207Y0165D02*
X0207Y017D01*
X0203Y0175D02*
X0207Y017D01*
X0207Y0175D02*
X0207Y017D01*
X02005Y0286D02*
Y0296D01*
Y0286D02*
X02045Y0291D01*
X02045Y0286D02*
X02045Y0291D01*
X02005Y0296D02*
X02045Y0291D01*
X02045Y0296D02*
X02045Y0291D01*
X02395Y02865D02*
Y02965D01*
Y02865D02*
X02435Y02915D01*
X02435Y02865D02*
X02435Y02915D01*
X02395Y02965D02*
X02435Y02915D01*
X02435Y02965D02*
X02435Y02915D01*
D11*
X049352Y04485D02*
G03*
X049352Y04485I-000502J0D01*
G01*
X043602Y01705D02*
G03*
X043602Y01705I-000502J0D01*
G01*
X035552Y0168D02*
G03*
X035552Y0168I-000502J0D01*
G01*
X027452Y017D02*
G03*
X027452Y017I-000502J0D01*
G01*
X019152Y01705D02*
G03*
X019152Y01705I-000502J0D01*
G01*
X043602Y0289D02*
G03*
X043602Y0289I-000502J0D01*
G01*
X035552D02*
G03*
X035552Y0289I-000502J0D01*
G01*
X027402Y02905D02*
G03*
X027402Y02905I-000502J0D01*
G01*
X019002D02*
G03*
X019002Y02905I-000502J0D01*
G01*
X047802Y017D02*
G03*
X047802Y017I-000502J0D01*
G01*
X039602Y01705D02*
G03*
X039602Y01705I-000502J0D01*
G01*
X031652Y01695D02*
G03*
X031652Y01695I-000502J0D01*
G01*
X047802Y029D02*
G03*
X047802Y029I-000502J0D01*
G01*
X039502D02*
G03*
X039502Y029I-000502J0D01*
G01*
X031552Y02895D02*
G03*
X031552Y02895I-000502J0D01*
G01*
X023102Y01715D02*
G03*
X023102Y01715I-000502J0D01*
G01*
X023002Y02915D02*
G03*
X023002Y02915I-000502J0D01*
G01*
X04985Y0307D02*
G03*
X04985Y0307I-0005J0D01*
G01*
X0457Y03065D02*
G03*
X0457Y03065I-0005J0D01*
G01*
X04155Y03075D02*
G03*
X04155Y03075I-0005J0D01*
G01*
X03755D02*
G03*
X03755Y03075I-0005J0D01*
G01*
X02955D02*
G03*
X02955Y03075I-0005J0D01*
G01*
X02105D02*
G03*
X02105Y03075I-0005J0D01*
G01*
X0417Y0186D02*
G03*
X0417Y0186I-0005J0D01*
G01*
X0457D02*
G03*
X0457Y0186I-0005J0D01*
G01*
X0499Y01865D02*
G03*
X0499Y01865I-0005J0D01*
G01*
X03755Y01845D02*
G03*
X03755Y01845I-0005J0D01*
G01*
X03375Y01855D02*
G03*
X03375Y01855I-0005J0D01*
G01*
X0296Y0186D02*
G03*
X0296Y0186I-0005J0D01*
G01*
X0251D02*
G03*
X0251Y0186I-0005J0D01*
G01*
X02115D02*
G03*
X02115Y0186I-0005J0D01*
G01*
X0336Y0307D02*
G03*
X0336Y0307I-0005J0D01*
G01*
X02505Y0308D02*
G03*
X02505Y0308I-0005J0D01*
G01*
X0182Y01935D02*
X02125Y01935D01*
Y0276D01*
X0182Y0276D02*
X02125Y0276D01*
X0182Y01935D02*
X0182Y0276D01*
X0468Y031472D02*
X04985Y031472D01*
Y039722D01*
X0468Y039722D02*
X04985Y039722D01*
X0468Y031472D02*
X0468Y039722D01*
X04885Y0438D02*
Y04445D01*
X0431Y01745D02*
Y0181D01*
X03505Y0172D02*
Y01785D01*
X02695Y0174D02*
Y01805D01*
X01865Y01745D02*
Y0181D01*
X0431Y0293D02*
Y02995D01*
X03505Y0293D02*
Y02995D01*
X0269Y02945D02*
Y0301D01*
X0185Y02945D02*
Y0301D01*
X0473Y0174D02*
Y01805D01*
X0391Y01745D02*
Y0181D01*
X03115Y01735D02*
Y018D01*
X0473Y0294D02*
Y03005D01*
X039Y0294D02*
Y03005D01*
X03105Y02935D02*
Y03D01*
X0226Y01755D02*
Y0182D01*
X0225Y02955D02*
Y0302D01*
X0485Y03065D02*
X0486D01*
X049Y0302D02*
Y0311D01*
X0486Y0306D02*
X049Y0302D01*
X0486Y0306D02*
Y0307D01*
X049Y0311D01*
X0486Y0302D02*
Y0311D01*
X04435Y0306D02*
X04445D01*
X04485Y03015D02*
Y03105D01*
X04445Y03055D02*
X04485Y03015D01*
X04445Y03055D02*
Y03065D01*
X04485Y03105D01*
X04445Y03015D02*
Y03105D01*
X0402Y0307D02*
X0403D01*
X0407Y03025D02*
Y03115D01*
X0403Y03065D02*
X0407Y03025D01*
X0403Y03065D02*
Y03075D01*
X0407Y03115D01*
X0403Y03025D02*
Y03115D01*
X0362Y0307D02*
X0363D01*
X0367Y03025D02*
Y03115D01*
X0363Y03065D02*
X0367Y03025D01*
X0363Y03065D02*
Y03075D01*
X0367Y03115D01*
X0363Y03025D02*
Y03115D01*
X0282Y0307D02*
X0283D01*
X0287Y03025D02*
Y03115D01*
X0283Y03065D02*
X0287Y03025D01*
X0283Y03065D02*
Y03075D01*
X0287Y03115D01*
X0283Y03025D02*
Y03115D01*
X0197Y0307D02*
X0198D01*
X0202Y03025D02*
Y03115D01*
X0198Y03065D02*
X0202Y03025D01*
X0198Y03065D02*
Y03075D01*
X0202Y03115D01*
X0198Y03025D02*
Y03115D01*
X03935Y01445D02*
Y01475D01*
X0473D02*
X0474D01*
X0473Y01445D02*
Y01475D01*
Y01445D02*
X0474D01*
X04665Y01065D02*
Y0112D01*
X0461D02*
X04665D01*
X0461Y01065D02*
X0461Y0112D01*
X04465Y0106D02*
Y01115D01*
X0441D02*
X04465D01*
X0441D02*
X0441Y0106D01*
X04265Y0106D02*
Y01115D01*
X0421Y01115D02*
X04265Y01115D01*
X0421Y0106D02*
X0421Y01115D01*
X04065Y0106D02*
X04065Y01115D01*
X0401D02*
X04065D01*
X0401D02*
X0401Y0106D01*
X0394Y0156D02*
X0474D01*
X0394D02*
X0394Y0106D01*
X0474D02*
Y01445D01*
X0394Y0106D02*
X0474D01*
Y01475D02*
Y0156D01*
X04035Y01855D02*
X04045D01*
X04085Y0181D02*
Y019D01*
X04045Y0185D02*
X04085Y0181D01*
X04045Y0185D02*
Y0186D01*
X04085Y019D01*
X04045Y0181D02*
Y019D01*
X04435Y01855D02*
X04445D01*
X04485Y0181D02*
Y019D01*
X04445Y0185D02*
X04485Y0181D01*
X04445Y0185D02*
Y0186D01*
X04485Y019D01*
X04445Y0181D02*
Y019D01*
X04855Y0186D02*
X04865D01*
X04905Y01815D02*
Y01905D01*
X04865Y01855D02*
X04905Y01815D01*
X04865Y01855D02*
Y01865D01*
X04905Y01905D01*
X04865Y01815D02*
Y01905D01*
X0474Y01055D02*
X0534D01*
Y01445D01*
X0474Y0156D02*
X0474Y01055D01*
X0474Y0156D02*
X0534D01*
X0481Y01115D02*
X0481Y0106D01*
X0481Y01115D02*
X04865D01*
X04865Y0106D02*
X04865Y01115D01*
X05015Y0106D02*
Y01115D01*
X0507Y01115D01*
X0507Y0106D02*
X0507Y01115D01*
X05215Y01115D02*
X05215Y0106D01*
X05215Y01115D02*
X0527D01*
X0527Y0106D02*
X0527Y01115D01*
X0533Y01445D02*
X0534D01*
X0533D02*
Y01475D01*
X0534D01*
X04735Y01445D02*
Y01475D01*
X0534D02*
Y0156D01*
X0362Y0184D02*
X0363D01*
X0367Y01795D02*
Y01885D01*
X0363Y01835D02*
X0367Y01795D01*
X0363Y01835D02*
Y01845D01*
X0367Y01885D01*
X0363Y01795D02*
Y01885D01*
X0324Y0185D02*
X0325D01*
X0329Y01805D02*
Y01895D01*
X0325Y01845D02*
X0329Y01805D01*
X0325Y01845D02*
Y01855D01*
X0329Y01895D01*
X0325Y01805D02*
Y01895D01*
X03135Y01445D02*
Y01475D01*
X0393D02*
X0394Y01475D01*
X0393Y01445D02*
Y01475D01*
Y01445D02*
X0394Y01445D01*
X03865Y01065D02*
Y0112D01*
X0381D02*
X03865D01*
X0381Y01065D02*
X0381Y0112D01*
X03665Y0106D02*
Y01115D01*
X0361D02*
X03665D01*
X0361Y0106D02*
Y01115D01*
X03465Y0106D02*
Y01115D01*
X0341D02*
X03465D01*
X0341Y0106D02*
Y01115D01*
X03265Y0106D02*
Y01115D01*
X0321D02*
X03265D01*
X0321Y0106D02*
Y01115D01*
X0314Y0156D02*
X0394Y0156D01*
X0314Y0106D02*
Y0156D01*
X0394Y0106D02*
X0394Y01445D01*
X0314Y0106D02*
X0394D01*
X0394Y01475D02*
Y0156D01*
X02825Y01855D02*
X02835D01*
X02875Y0181D02*
Y019D01*
X02835Y0185D02*
X02875Y0181D01*
X02835Y0185D02*
Y0186D01*
X02875Y019D01*
X02835Y0181D02*
Y019D01*
X02375Y01855D02*
X02385D01*
X02425Y0181D02*
Y019D01*
X02385Y0185D02*
X02425Y0181D01*
X02385Y0185D02*
Y0186D01*
X02425Y019D01*
X02385Y0181D02*
Y019D01*
X023349Y014449D02*
Y014749D01*
X031299D02*
X031399Y014749D01*
X031299Y014449D02*
Y014749D01*
Y014449D02*
X031399Y014449D01*
X030649Y010649D02*
Y011199D01*
X030099D02*
X030649D01*
X030099Y010649D02*
X030099Y011199D01*
X028649Y010599D02*
Y011149D01*
X028099D02*
X028649D01*
X028099Y010599D02*
Y011149D01*
X026649Y010599D02*
Y011149D01*
X026099D02*
X026649D01*
X026099Y010599D02*
Y011149D01*
X024649Y010599D02*
Y011149D01*
X024099D02*
X024649D01*
X024099Y010599D02*
Y011149D01*
X023399Y015599D02*
X031399Y015599D01*
X023399Y010599D02*
Y015599D01*
X031399Y010599D02*
X031399Y014449D01*
X023399Y010599D02*
X031399D01*
X031399Y014749D02*
Y015599D01*
X0198Y01855D02*
X0199D01*
X0203Y0181D02*
Y019D01*
X0199Y0185D02*
X0203Y0181D01*
X0199Y0185D02*
Y0186D01*
X0203Y019D01*
X0199Y0181D02*
Y019D01*
X0221Y019367D02*
X02515Y019367D01*
Y027617D01*
X0221Y027617D02*
X02515Y027617D01*
X0221Y019367D02*
X0221Y027617D01*
X02655Y019367D02*
X0296Y019367D01*
Y027617D01*
X02655Y027617D02*
X0296Y027617D01*
X02655Y019367D02*
X02655Y027617D01*
X03065Y019367D02*
X0337Y019367D01*
Y027617D01*
X03065Y027617D02*
X0337Y027617D01*
X03065Y019367D02*
X03065Y027617D01*
X03455Y019367D02*
X0376Y019367D01*
Y027617D01*
X03455Y027617D02*
X0376Y027617D01*
X03455Y019367D02*
X03455Y027617D01*
X0386Y019367D02*
X04165Y019367D01*
Y027617D01*
X0386Y027617D02*
X04165Y027617D01*
X0386Y019367D02*
X0386Y027617D01*
X0468Y019367D02*
X04985Y019367D01*
Y027617D01*
X0468Y027617D02*
X04985Y027617D01*
X0468Y019367D02*
X0468Y027617D01*
X04265Y019367D02*
X0457Y019367D01*
Y027617D01*
X04265Y027617D02*
X0457Y027617D01*
X04265Y019367D02*
X04265Y027617D01*
X03225Y03065D02*
X03235D01*
X03275Y0302D02*
Y0311D01*
X03235Y0306D02*
X03275Y0302D01*
X03235Y0306D02*
Y0307D01*
X03275Y0311D01*
X03235Y0302D02*
Y0311D01*
X015349Y014449D02*
Y014749D01*
X023299D02*
X023399D01*
X023299Y014449D02*
Y014749D01*
Y014449D02*
X023399D01*
X022649Y010649D02*
Y011199D01*
X022099D02*
X022649D01*
X022099Y010649D02*
X022099Y011199D01*
X020649Y010599D02*
Y011149D01*
X020099D02*
X020649D01*
X020099D02*
X020099Y010599D01*
X018649Y010599D02*
Y011149D01*
X018099Y011149D02*
X018649Y011149D01*
X018099Y010599D02*
X018099Y011149D01*
X016649Y010599D02*
X016649Y011149D01*
X016099D02*
X016649D01*
X016099D02*
X016099Y010599D01*
X015399Y015599D02*
X023399D01*
X015399D02*
X015399Y010599D01*
X023399D02*
Y014449D01*
X015399Y010599D02*
X023399D01*
Y014749D02*
Y015599D01*
X0237Y03075D02*
X0238D01*
X0242Y0303D02*
Y0312D01*
X0238Y0307D02*
X0242Y0303D01*
X0238Y0307D02*
Y0308D01*
X0242Y0312D01*
X0238Y0303D02*
Y0312D01*
X041426Y048026D02*
X047426D01*
X041426Y044126D02*
X041426Y048026D01*
X047426Y042976D02*
Y048026D01*
X041426Y042976D02*
X047426D01*
X046726Y047426D02*
Y047976D01*
X046176Y047426D02*
X046726Y047426D01*
X046176Y047426D02*
Y047976D01*
X044676D02*
X044676Y047426D01*
X044126D02*
X044676D01*
X044126D02*
Y047976D01*
X042676Y047426D02*
Y047976D01*
X042126Y047426D02*
X042676D01*
X042126D02*
Y047976D01*
X041426Y044126D02*
X041526D01*
Y043826D02*
Y044126D01*
X041426Y043826D02*
X041526D01*
X047476D02*
Y044126D01*
X041426Y042976D02*
Y043826D01*
X03958Y04495D02*
Y04594D01*
X0386Y04495D02*
X0406Y04495D01*
X0386Y04595D02*
X0386Y04495D01*
X0386Y04595D02*
Y04695D01*
X0406Y04695D01*
X0406Y04495D01*
X0386Y031472D02*
X04165Y031472D01*
Y039722D01*
X0386Y039722D02*
X04165Y039722D01*
X0386Y031472D02*
X0386Y039722D01*
X03065Y031472D02*
X0337Y031472D01*
Y039722D01*
X03065Y039722D02*
X0337Y039722D01*
X03065Y031472D02*
X03065Y039722D01*
X0221Y031472D02*
X02515Y031472D01*
Y039722D01*
X0221Y039722D02*
X02515Y039722D01*
X0221Y031472D02*
X0221Y039722D01*
X04265Y031472D02*
X0457Y031472D01*
Y039722D01*
X04265Y039722D02*
X0457Y039722D01*
X04265Y031472D02*
X04265Y039722D01*
X03455Y031472D02*
X0376Y031472D01*
Y039722D01*
X03455Y039722D02*
X0376Y039722D01*
X03455Y031472D02*
X03455Y039722D01*
X0265Y031472D02*
X02955Y031472D01*
Y039722D01*
X0265Y039722D02*
X02955Y039722D01*
X0265Y031472D02*
X0265Y039722D01*
X018Y031472D02*
X02105Y031472D01*
Y039722D01*
X018Y039722D02*
X02105Y039722D01*
X018Y031472D02*
X018Y039722D01*
D12*
X02173Y043622D02*
X02717D01*
X02169Y043632D02*
X02721D01*
X02166Y043642D02*
X02724D01*
X02164Y043652D02*
X02726D01*
X02163Y043662D02*
X02727D01*
X02161Y043672D02*
X02729D01*
X0216Y043682D02*
X0273D01*
X02725Y043692D02*
X02731D01*
X02717D02*
X02724D01*
X02709D02*
X02716D01*
X02701D02*
X02708D01*
X02693D02*
X027D01*
X02685D02*
X02692D01*
X02677D02*
X02684D01*
X02669D02*
X02676D01*
X02661D02*
X02668D01*
X02653D02*
X0266D01*
X02645D02*
X02652D01*
X02637D02*
X02644D01*
X02629D02*
X02636D01*
X02621D02*
X02628D01*
X02613D02*
X0262D01*
X02605D02*
X02612D01*
X02597D02*
X02604D01*
X02589D02*
X02596D01*
X02581D02*
X02588D01*
X02573D02*
X0258D01*
X02565D02*
X02572D01*
X02557D02*
X02564D01*
X02549D02*
X02556D01*
X02541D02*
X02548D01*
X02533D02*
X0254D01*
X02525D02*
X02532D01*
X02517D02*
X02524D01*
X02509D02*
X02516D01*
X02501D02*
X02508D01*
X02493D02*
X025D01*
X02485D02*
X02492D01*
X02477D02*
X02484D01*
X02469D02*
X02476D01*
X02461D02*
X02468D01*
X02453D02*
X0246D01*
X02445D02*
X02452D01*
X02437D02*
X02444D01*
X02429D02*
X02436D01*
X02421D02*
X02428D01*
X02413D02*
X0242D01*
X02405D02*
X02412D01*
X02397D02*
X02404D01*
X02389D02*
X02396D01*
X02381D02*
X02388D01*
X02373D02*
X0238D01*
X02365D02*
X02372D01*
X02357D02*
X02364D01*
X02349D02*
X02356D01*
X02341D02*
X02348D01*
X02333D02*
X0234D01*
X02325D02*
X02332D01*
X02317D02*
X02324D01*
X02309D02*
X02316D01*
X02301D02*
X02308D01*
X02293D02*
X023D01*
X02285D02*
X02292D01*
X02277D02*
X02284D01*
X02269D02*
X02276D01*
X02261D02*
X02268D01*
X02253D02*
X0226D01*
X02245D02*
X02252D01*
X02237D02*
X02244D01*
X02229D02*
X02236D01*
X02221D02*
X02228D01*
X02213D02*
X0222D01*
X02205D02*
X02212D01*
X02197D02*
X02204D01*
X02189D02*
X02196D01*
X02181D02*
X02188D01*
X02173D02*
X0218D01*
X02165D02*
X02172D01*
X02159D02*
X02164D01*
X02157Y043702D02*
X02733D01*
X02157Y043712D02*
X02733D01*
X02156Y043722D02*
X02734D01*
X02155Y043732D02*
X02735D01*
X02526Y043742D02*
X02736D01*
X02468D02*
X02492D01*
X02427D02*
X02451D01*
X02154D02*
X02393D01*
X02526Y043752D02*
X02737D01*
X02468D02*
X02492D01*
X02427D02*
X02451D01*
X02153D02*
X02393D01*
X02526Y043762D02*
X02737D01*
X02468D02*
X02492D01*
X02427D02*
X02451D01*
X02153D02*
X02393D01*
X02733Y043772D02*
X02738D01*
X02725D02*
X02732D01*
X02717D02*
X02724D01*
X02709D02*
X02716D01*
X02701D02*
X02708D01*
X02693D02*
X027D01*
X02685D02*
X02692D01*
X02677D02*
X02684D01*
X02669D02*
X02676D01*
X02661D02*
X02668D01*
X02653D02*
X0266D01*
X02645D02*
X02652D01*
X02637D02*
X02644D01*
X02629D02*
X02636D01*
X02621D02*
X02628D01*
X02613D02*
X0262D01*
X02605D02*
X02612D01*
X02597D02*
X02604D01*
X02589D02*
X02596D01*
X02581D02*
X02588D01*
X02573D02*
X0258D01*
X02565D02*
X02572D01*
X02557D02*
X02564D01*
X02549D02*
X02556D01*
X02541D02*
X02548D01*
X02533D02*
X0254D01*
X02526D02*
X02532D01*
X02485D02*
X02492D01*
X02477D02*
X02484D01*
X02469D02*
X02476D01*
X02445D02*
X0245D01*
X02437D02*
X02444D01*
X02429D02*
X02436D01*
X02389D02*
X02393D01*
X02381D02*
X02388D01*
X02373D02*
X0238D01*
X02365D02*
X02372D01*
X02357D02*
X02364D01*
X02349D02*
X02356D01*
X02341D02*
X02348D01*
X02333D02*
X0234D01*
X02325D02*
X02332D01*
X02317D02*
X02324D01*
X02309D02*
X02316D01*
X02301D02*
X02308D01*
X02293D02*
X023D01*
X02285D02*
X02292D01*
X02277D02*
X02284D01*
X02269D02*
X02276D01*
X02261D02*
X02268D01*
X02253D02*
X0226D01*
X02245D02*
X02252D01*
X02237D02*
X02244D01*
X02229D02*
X02236D01*
X02221D02*
X02228D01*
X02213D02*
X0222D01*
X02205D02*
X02212D01*
X02197D02*
X02204D01*
X02189D02*
X02196D01*
X02181D02*
X02188D01*
X02173D02*
X0218D01*
X02165D02*
X02172D01*
X02157D02*
X02164D01*
X02152D02*
X02156D01*
X02526Y043782D02*
X02738D01*
X02468D02*
X02491D01*
X02428D02*
X0245D01*
X02152D02*
X02393D01*
X02526Y043792D02*
X02739D01*
X02469D02*
X02491D01*
X02428D02*
X0245D01*
X02151D02*
X02393D01*
X02526Y043802D02*
X02739D01*
X02469D02*
X02491D01*
X02428D02*
X0245D01*
X02151D02*
X02394D01*
X02525Y043812D02*
X02739D01*
X02469D02*
X02491D01*
X02428D02*
X0245D01*
X02151D02*
X02394D01*
X02525Y043822D02*
X0274D01*
X02469D02*
X02491D01*
X02428D02*
X0245D01*
X0215D02*
X02394D01*
X02525Y043832D02*
X0274D01*
X02469D02*
X02491D01*
X02428D02*
X0245D01*
X0215D02*
X02394D01*
X02525Y043842D02*
X0274D01*
X02469D02*
X02491D01*
X02428D02*
X0245D01*
X0215D02*
X02394D01*
X02733Y043852D02*
X0274D01*
X02725D02*
X02732D01*
X02717D02*
X02724D01*
X02709D02*
X02716D01*
X02701D02*
X02708D01*
X02693D02*
X027D01*
X02685D02*
X02692D01*
X02677D02*
X02684D01*
X02669D02*
X02676D01*
X02661D02*
X02668D01*
X02653D02*
X0266D01*
X02645D02*
X02652D01*
X02637D02*
X02644D01*
X02629D02*
X02636D01*
X02621D02*
X02628D01*
X02613D02*
X0262D01*
X02605D02*
X02612D01*
X02597D02*
X02604D01*
X02589D02*
X02596D01*
X02581D02*
X02588D01*
X02573D02*
X0258D01*
X02565D02*
X02572D01*
X02557D02*
X02564D01*
X02549D02*
X02556D01*
X02541D02*
X02548D01*
X02533D02*
X0254D01*
X02525D02*
X02532D01*
X02485D02*
X02491D01*
X02477D02*
X02484D01*
X02469D02*
X02476D01*
X02445D02*
X0245D01*
X02437D02*
X02444D01*
X02429D02*
X02436D01*
X02389D02*
X02394D01*
X02381D02*
X02388D01*
X02373D02*
X0238D01*
X02365D02*
X02372D01*
X02357D02*
X02364D01*
X02349D02*
X02356D01*
X02341D02*
X02348D01*
X02333D02*
X0234D01*
X02325D02*
X02332D01*
X02317D02*
X02324D01*
X02309D02*
X02316D01*
X02301D02*
X02308D01*
X02293D02*
X023D01*
X02285D02*
X02292D01*
X02277D02*
X02284D01*
X02269D02*
X02276D01*
X02261D02*
X02268D01*
X02253D02*
X0226D01*
X02245D02*
X02252D01*
X02237D02*
X02244D01*
X02229D02*
X02236D01*
X02221D02*
X02228D01*
X02213D02*
X0222D01*
X02205D02*
X02212D01*
X02197D02*
X02204D01*
X02189D02*
X02196D01*
X02181D02*
X02188D01*
X02173D02*
X0218D01*
X02165D02*
X02172D01*
X02157D02*
X02164D01*
X0215D02*
X02156D01*
X02525Y043862D02*
X02741D01*
X02469D02*
X02491D01*
X02428D02*
X0245D01*
X02149D02*
X02394D01*
X02525Y043872D02*
X02741D01*
X02469D02*
X02491D01*
X02429D02*
X0245D01*
X02149D02*
X02394D01*
X02525Y043882D02*
X02741D01*
X02469D02*
X02491D01*
X02429D02*
X02449D01*
X02149D02*
X02395D01*
X02524Y043892D02*
X02741D01*
X02469D02*
X0249D01*
X02455D02*
X02462D01*
X02429D02*
X02449D01*
X02149D02*
X02395D01*
X02524Y043902D02*
X02741D01*
X0247D02*
X0249D01*
X02454D02*
X02463D01*
X02429D02*
X02449D01*
X02149D02*
X02395D01*
X02524Y043912D02*
X02741D01*
X0247D02*
X0249D01*
X02453D02*
X02465D01*
X02429D02*
X02449D01*
X02149D02*
X02395D01*
X02524Y043922D02*
X02741D01*
X0247D02*
X0249D01*
X02452D02*
X02465D01*
X02429D02*
X02449D01*
X02149D02*
X02395D01*
X02733Y043932D02*
X0274D01*
X02725D02*
X02732D01*
X02717D02*
X02724D01*
X02709D02*
X02716D01*
X02701D02*
X02708D01*
X02693D02*
X027D01*
X02685D02*
X02692D01*
X02677D02*
X02684D01*
X02669D02*
X02676D01*
X02661D02*
X02668D01*
X02653D02*
X0266D01*
X02645D02*
X02652D01*
X02637D02*
X02644D01*
X02629D02*
X02636D01*
X02621D02*
X02628D01*
X02613D02*
X0262D01*
X02605D02*
X02612D01*
X02597D02*
X02604D01*
X02589D02*
X02596D01*
X02581D02*
X02588D01*
X02573D02*
X0258D01*
X02565D02*
X02572D01*
X02557D02*
X02564D01*
X02549D02*
X02556D01*
X02541D02*
X02548D01*
X02533D02*
X0254D01*
X02526D02*
X02532D01*
X02485D02*
X0249D01*
X02477D02*
X02484D01*
X0247D02*
X02476D01*
X02461D02*
X02466D01*
X02453D02*
X0246D01*
X02445D02*
X02449D01*
X02437D02*
X02444D01*
X02429D02*
X02436D01*
X02389D02*
X02395D01*
X02381D02*
X02388D01*
X02373D02*
X0238D01*
X02365D02*
X02372D01*
X02357D02*
X02364D01*
X02349D02*
X02356D01*
X02341D02*
X02348D01*
X02333D02*
X0234D01*
X02325D02*
X02332D01*
X02317D02*
X02324D01*
X02309D02*
X02316D01*
X02301D02*
X02308D01*
X02293D02*
X023D01*
X02285D02*
X02292D01*
X02277D02*
X02284D01*
X02269D02*
X02276D01*
X02261D02*
X02268D01*
X02253D02*
X0226D01*
X02245D02*
X02252D01*
X02237D02*
X02244D01*
X02229D02*
X02236D01*
X02221D02*
X02228D01*
X02213D02*
X0222D01*
X02205D02*
X02212D01*
X02197D02*
X02204D01*
X02189D02*
X02196D01*
X02181D02*
X02188D01*
X02173D02*
X0218D01*
X02165D02*
X02172D01*
X02157D02*
X02164D01*
X02149D02*
X02156D01*
X02528Y043942D02*
X02741D01*
X0247D02*
X0249D01*
X02451D02*
X02466D01*
X02429D02*
X02449D01*
X02149D02*
X02395D01*
X0253Y043952D02*
X02741D01*
X0247D02*
X0249D01*
X02451D02*
X02467D01*
X02429D02*
X02449D01*
X02149D02*
X02395D01*
X02532Y043962D02*
X02741D01*
X0247D02*
X0249D01*
X02451D02*
X02467D01*
X02429D02*
X02449D01*
X02149D02*
X02396D01*
X02534Y043972D02*
X02741D01*
X0247D02*
X0249D01*
X02451D02*
X02467D01*
X0243D02*
X02449D01*
X02149D02*
X02396D01*
X02534Y043982D02*
X02741D01*
X0247D02*
X0249D01*
X02451D02*
X02467D01*
X0243D02*
X02448D01*
X02149D02*
X02396D01*
X02533Y043992D02*
X02741D01*
X0247D02*
X02489D01*
X02451D02*
X02466D01*
X0243D02*
X02448D01*
X02149D02*
X02396D01*
X02533Y044002D02*
X02741D01*
X02471D02*
X02489D01*
X02452D02*
X02466D01*
X0243D02*
X02448D01*
X02149D02*
X02396D01*
X02733Y044012D02*
X0274D01*
X02725D02*
X02732D01*
X02717D02*
X02724D01*
X02709D02*
X02716D01*
X02701D02*
X02708D01*
X02693D02*
X027D01*
X02685D02*
X02692D01*
X02677D02*
X02684D01*
X02669D02*
X02676D01*
X02661D02*
X02668D01*
X02653D02*
X0266D01*
X02645D02*
X02652D01*
X02637D02*
X02644D01*
X02629D02*
X02636D01*
X02621D02*
X02628D01*
X02613D02*
X0262D01*
X02605D02*
X02612D01*
X02597D02*
X02604D01*
X02589D02*
X02596D01*
X02581D02*
X02588D01*
X02573D02*
X0258D01*
X02565D02*
X02572D01*
X02557D02*
X02564D01*
X02549D02*
X02556D01*
X02541D02*
X02548D01*
X02533D02*
X0254D01*
X02485D02*
X02489D01*
X02477D02*
X02484D01*
X02471D02*
X02476D01*
X02461D02*
X02465D01*
X02453D02*
X0246D01*
X02445D02*
X02448D01*
X02437D02*
X02444D01*
X0243D02*
X02436D01*
X02389D02*
X02396D01*
X02381D02*
X02388D01*
X02373D02*
X0238D01*
X02365D02*
X02372D01*
X02357D02*
X02364D01*
X02349D02*
X02356D01*
X02341D02*
X02348D01*
X02333D02*
X0234D01*
X02325D02*
X02332D01*
X02317D02*
X02324D01*
X02309D02*
X02316D01*
X02301D02*
X02308D01*
X02293D02*
X023D01*
X02285D02*
X02292D01*
X02277D02*
X02284D01*
X02269D02*
X02276D01*
X02261D02*
X02268D01*
X02253D02*
X0226D01*
X02245D02*
X02252D01*
X02237D02*
X02244D01*
X02229D02*
X02236D01*
X02221D02*
X02228D01*
X02213D02*
X0222D01*
X02205D02*
X02212D01*
X02197D02*
X02204D01*
X02189D02*
X02196D01*
X02181D02*
X02188D01*
X02173D02*
X0218D01*
X02165D02*
X02172D01*
X02157D02*
X02164D01*
X02149D02*
X02156D01*
X02533Y044022D02*
X02741D01*
X02471D02*
X02489D01*
X02454D02*
X02464D01*
X0243D02*
X02448D01*
X02149D02*
X02396D01*
X02533Y044032D02*
X02741D01*
X02471D02*
X02489D01*
X02455D02*
X02463D01*
X0243D02*
X02448D01*
X02149D02*
X02396D01*
X02532Y044042D02*
X02741D01*
X02471D02*
X02489D01*
X02457D02*
X02463D01*
X0243D02*
X02448D01*
X02149D02*
X02397D01*
X02532Y044052D02*
X02741D01*
X02471D02*
X02489D01*
X02457D02*
X02463D01*
X0243D02*
X02448D01*
X02149D02*
X02397D01*
X02603Y044062D02*
X02741D01*
X02532D02*
X02599D01*
X02471D02*
X02489D01*
X02457D02*
X02463D01*
X0243D02*
X02448D01*
X02149D02*
X02397D01*
X02606Y044072D02*
X02741D01*
X02532D02*
X02598D01*
X02471D02*
X02489D01*
X02458D02*
X02463D01*
X0243D02*
X02448D01*
X02149D02*
X02397D01*
X0261Y044082D02*
X02741D01*
X02574D02*
X02598D01*
X02532D02*
X02571D01*
X02471D02*
X02489D01*
X02458D02*
X02463D01*
X02431D02*
X02448D01*
X02149D02*
X02397D01*
X02733Y044092D02*
X0274D01*
X02725D02*
X02732D01*
X02717D02*
X02724D01*
X02709D02*
X02716D01*
X02701D02*
X02708D01*
X02693D02*
X027D01*
X02685D02*
X02692D01*
X02677D02*
X02684D01*
X02669D02*
X02676D01*
X02661D02*
X02668D01*
X02653D02*
X0266D01*
X02645D02*
X02652D01*
X02637D02*
X02644D01*
X02629D02*
X02636D01*
X02621D02*
X02628D01*
X02613D02*
X0262D01*
X02611D02*
X02612D01*
X02589D02*
X02596D01*
X02581D02*
X02588D01*
X02574D02*
X0258D01*
X02565D02*
X02567D01*
X02557D02*
X02564D01*
X02549D02*
X02556D01*
X02541D02*
X02548D01*
X02533D02*
X0254D01*
X02525D02*
X02532D01*
X02523D02*
X02524D01*
X02485D02*
X02488D01*
X02477D02*
X02484D01*
X02471D02*
X02476D01*
X02461D02*
X02463D01*
X02458D02*
X0246D01*
X02445D02*
X02447D01*
X02437D02*
X02444D01*
X02431D02*
X02436D01*
X02389D02*
X02396D01*
X02381D02*
X02388D01*
X02373D02*
X0238D01*
X02365D02*
X02372D01*
X02357D02*
X02364D01*
X02349D02*
X02356D01*
X02341D02*
X02348D01*
X02333D02*
X0234D01*
X02325D02*
X02332D01*
X02317D02*
X02324D01*
X02309D02*
X02316D01*
X02301D02*
X02308D01*
X02293D02*
X023D01*
X02285D02*
X02292D01*
X02277D02*
X02284D01*
X02269D02*
X02276D01*
X02261D02*
X02268D01*
X02253D02*
X0226D01*
X02245D02*
X02252D01*
X02237D02*
X02244D01*
X02229D02*
X02236D01*
X02221D02*
X02228D01*
X02213D02*
X0222D01*
X02205D02*
X02212D01*
X02197D02*
X02204D01*
X02189D02*
X02196D01*
X02181D02*
X02188D01*
X02173D02*
X0218D01*
X02165D02*
X02172D01*
X02157D02*
X02164D01*
X02149D02*
X02156D01*
X02611Y044102D02*
X02741D01*
X02575D02*
X02597D01*
X02522D02*
X02563D01*
X02471D02*
X02488D01*
X02458D02*
X02463D01*
X02431D02*
X02447D01*
X02149D02*
X02397D01*
X02611Y044112D02*
X02741D01*
X02576D02*
X02596D01*
X02522D02*
X02562D01*
X02472D02*
X02488D01*
X02458D02*
X02463D01*
X02431D02*
X02447D01*
X02149D02*
X02397D01*
X02611Y044122D02*
X02741D01*
X02576D02*
X02596D01*
X02522D02*
X02562D01*
X02472D02*
X02488D01*
X02458D02*
X02463D01*
X02431D02*
X02447D01*
X02149D02*
X02398D01*
X02611Y044132D02*
X02741D01*
X02577D02*
X02595D01*
X02521D02*
X02562D01*
X02472D02*
X02488D01*
X02458D02*
X02464D01*
X02431D02*
X02447D01*
X02149D02*
X02398D01*
X02611Y044142D02*
X02741D01*
X02578D02*
X02594D01*
X02521D02*
X02562D01*
X02472D02*
X02488D01*
X02458D02*
X02464D01*
X02431D02*
X02447D01*
X02149D02*
X02398D01*
X02611Y044152D02*
X02741D01*
X02578D02*
X02594D01*
X02521D02*
X02562D01*
X02472D02*
X02488D01*
X02458D02*
X02464D01*
X02431D02*
X02447D01*
X02149D02*
X02398D01*
X02611Y044162D02*
X02741D01*
X02579D02*
X02593D01*
X02521D02*
X02562D01*
X02472D02*
X02488D01*
X02459D02*
X02464D01*
X02431D02*
X02447D01*
X02149D02*
X02398D01*
X02733Y044172D02*
X0274D01*
X02725D02*
X02732D01*
X02717D02*
X02724D01*
X02709D02*
X02716D01*
X02701D02*
X02708D01*
X02693D02*
X027D01*
X02685D02*
X02692D01*
X02677D02*
X02684D01*
X02669D02*
X02676D01*
X02661D02*
X02668D01*
X02653D02*
X0266D01*
X02645D02*
X02652D01*
X02637D02*
X02644D01*
X02629D02*
X02636D01*
X02621D02*
X02628D01*
X02613D02*
X0262D01*
X02611D02*
X02612D01*
X02589D02*
X02593D01*
X02581D02*
X02588D01*
X02579D02*
X0258D01*
X02557D02*
X02562D01*
X02549D02*
X02556D01*
X02541D02*
X02548D01*
X02533D02*
X0254D01*
X02525D02*
X02532D01*
X02521D02*
X02524D01*
X02485D02*
X02488D01*
X02477D02*
X02484D01*
X02472D02*
X02476D01*
X02461D02*
X02464D01*
X02459D02*
X0246D01*
X02445D02*
X02447D01*
X02437D02*
X02444D01*
X02431D02*
X02436D01*
X02397D02*
X02398D01*
X02389D02*
X02396D01*
X02381D02*
X02388D01*
X02373D02*
X0238D01*
X02365D02*
X02372D01*
X02357D02*
X02364D01*
X02349D02*
X02356D01*
X02341D02*
X02348D01*
X02333D02*
X0234D01*
X02325D02*
X02332D01*
X02317D02*
X02324D01*
X02309D02*
X02316D01*
X02301D02*
X02308D01*
X02293D02*
X023D01*
X02285D02*
X02292D01*
X02277D02*
X02284D01*
X02269D02*
X02276D01*
X02261D02*
X02268D01*
X02253D02*
X0226D01*
X02245D02*
X02252D01*
X02237D02*
X02244D01*
X02229D02*
X02236D01*
X02221D02*
X02228D01*
X02213D02*
X0222D01*
X02205D02*
X02212D01*
X02197D02*
X02204D01*
X02189D02*
X02196D01*
X02181D02*
X02188D01*
X02173D02*
X0218D01*
X02165D02*
X02172D01*
X02157D02*
X02164D01*
X02149D02*
X02156D01*
X02611Y044182D02*
X02741D01*
X0258D02*
X02592D01*
X02521D02*
X02562D01*
X02472D02*
X02488D01*
X02459D02*
X02464D01*
X02432D02*
X02447D01*
X02149D02*
X02398D01*
X02611Y044192D02*
X02741D01*
X02581D02*
X02591D01*
X02521D02*
X02562D01*
X02472D02*
X02488D01*
X02459D02*
X02464D01*
X02432D02*
X02446D01*
X02149D02*
X02398D01*
X02611Y044202D02*
X02741D01*
X02581D02*
X02591D01*
X02521D02*
X02562D01*
X02472D02*
X02487D01*
X02459D02*
X02464D01*
X02432D02*
X02446D01*
X02149D02*
X02399D01*
X02668Y044212D02*
X02741D01*
X02611D02*
X02655D01*
X0252D02*
X02562D01*
X02473D02*
X02487D01*
X02459D02*
X02464D01*
X02432D02*
X02446D01*
X02149D02*
X02399D01*
X02673Y044222D02*
X02741D01*
X02611D02*
X0265D01*
X0252D02*
X02562D01*
X02473D02*
X02487D01*
X02459D02*
X02465D01*
X02432D02*
X02446D01*
X02149D02*
X02399D01*
X02677Y044232D02*
X02741D01*
X02611D02*
X02646D01*
X0252D02*
X02562D01*
X02473D02*
X02487D01*
X02459D02*
X02465D01*
X02432D02*
X02446D01*
X02149D02*
X02399D01*
X0268Y044242D02*
X02741D01*
X02611D02*
X02643D01*
X0252D02*
X02562D01*
X02473D02*
X02487D01*
X02459D02*
X02465D01*
X02432D02*
X02446D01*
X02149D02*
X02399D01*
X02733Y044252D02*
X0274D01*
X02725D02*
X02732D01*
X02717D02*
X02724D01*
X02709D02*
X02716D01*
X02701D02*
X02708D01*
X02693D02*
X027D01*
X02685D02*
X02692D01*
X02682D02*
X02684D01*
X02637D02*
X02641D01*
X02629D02*
X02636D01*
X02621D02*
X02628D01*
X02613D02*
X0262D01*
X02611D02*
X02612D01*
X02557D02*
X02562D01*
X02549D02*
X02556D01*
X02541D02*
X02548D01*
X02533D02*
X0254D01*
X02525D02*
X02532D01*
X0252D02*
X02524D01*
X02485D02*
X02487D01*
X02477D02*
X02484D01*
X02473D02*
X02476D01*
X02461D02*
X02465D01*
X02445D02*
X02446D01*
X02437D02*
X02444D01*
X02432D02*
X02436D01*
X02397D02*
X02399D01*
X02389D02*
X02396D01*
X02381D02*
X02388D01*
X02373D02*
X0238D01*
X02365D02*
X02372D01*
X02357D02*
X02364D01*
X02349D02*
X02356D01*
X02341D02*
X02348D01*
X02333D02*
X0234D01*
X02325D02*
X02332D01*
X02317D02*
X02324D01*
X02309D02*
X02316D01*
X02301D02*
X02308D01*
X02293D02*
X023D01*
X02285D02*
X02292D01*
X02277D02*
X02284D01*
X02269D02*
X02276D01*
X02261D02*
X02268D01*
X02253D02*
X0226D01*
X02245D02*
X02252D01*
X02237D02*
X02244D01*
X02229D02*
X02236D01*
X02221D02*
X02228D01*
X02213D02*
X0222D01*
X02205D02*
X02212D01*
X02197D02*
X02204D01*
X02189D02*
X02196D01*
X02181D02*
X02188D01*
X02173D02*
X0218D01*
X02165D02*
X02172D01*
X02157D02*
X02164D01*
X02149D02*
X02156D01*
X02684Y044262D02*
X02741D01*
X02611D02*
X02639D01*
X02542D02*
X02562D01*
X0252D02*
X02539D01*
X02473D02*
X02487D01*
X0246D02*
X02465D01*
X02432D02*
X02446D01*
X02149D02*
X02399D01*
X02686Y044272D02*
X02741D01*
X02611D02*
X02637D01*
X02544D02*
X0256D01*
X0252D02*
X02538D01*
X02473D02*
X02487D01*
X0246D02*
X02465D01*
X02432D02*
X02446D01*
X02149D02*
X02399D01*
X02688Y044282D02*
X02741D01*
X02611D02*
X02635D01*
X02546D02*
X02558D01*
X0252D02*
X02537D01*
X02473D02*
X02487D01*
X0246D02*
X02465D01*
X02432D02*
X02446D01*
X02149D02*
X024D01*
X0269Y044292D02*
X02741D01*
X02613D02*
X02633D01*
X02548D02*
X02556D01*
X02519D02*
X02536D01*
X02473D02*
X02487D01*
X0246D02*
X02465D01*
X02433D02*
X02445D01*
X02149D02*
X024D01*
X02691Y044302D02*
X02741D01*
X02614D02*
X02632D01*
X0255D02*
X02555D01*
X02519D02*
X02535D01*
X02473D02*
X02486D01*
X0246D02*
X02465D01*
X02433D02*
X02445D01*
X02149D02*
X024D01*
X02693Y044312D02*
X02741D01*
X02616D02*
X0263D01*
X02552D02*
X02554D01*
X02519D02*
X02534D01*
X02474D02*
X02486D01*
X0246D02*
X02466D01*
X02433D02*
X02445D01*
X02149D02*
X024D01*
X02694Y044322D02*
X02741D01*
X02617D02*
X02629D01*
X0252D02*
X02533D01*
X02474D02*
X02486D01*
X0246D02*
X02466D01*
X02433D02*
X02445D01*
X02149D02*
X024D01*
X02733Y044332D02*
X0274D01*
X02725D02*
X02732D01*
X02717D02*
X02724D01*
X02709D02*
X02716D01*
X02701D02*
X02708D01*
X02695D02*
X027D01*
X02621D02*
X02628D01*
X02618D02*
X0262D01*
X02525D02*
X02532D01*
X02522D02*
X02524D01*
X02485D02*
X02486D01*
X02477D02*
X02484D01*
X02474D02*
X02476D01*
X02461D02*
X02466D01*
X02437D02*
X02444D01*
X02433D02*
X02436D01*
X02397D02*
X024D01*
X02389D02*
X02396D01*
X02381D02*
X02388D01*
X02373D02*
X0238D01*
X02365D02*
X02372D01*
X02357D02*
X02364D01*
X02349D02*
X02356D01*
X02341D02*
X02348D01*
X02333D02*
X0234D01*
X02325D02*
X02332D01*
X02317D02*
X02324D01*
X02309D02*
X02316D01*
X02301D02*
X02308D01*
X02293D02*
X023D01*
X02285D02*
X02292D01*
X02277D02*
X02284D01*
X02269D02*
X02276D01*
X02261D02*
X02268D01*
X02253D02*
X0226D01*
X02245D02*
X02252D01*
X02237D02*
X02244D01*
X02229D02*
X02236D01*
X02221D02*
X02228D01*
X02213D02*
X0222D01*
X02205D02*
X02212D01*
X02197D02*
X02204D01*
X02189D02*
X02196D01*
X02181D02*
X02188D01*
X02173D02*
X0218D01*
X02165D02*
X02172D01*
X02157D02*
X02164D01*
X02149D02*
X02156D01*
X02696Y044342D02*
X02741D01*
X0262D02*
X02627D01*
X02524D02*
X02533D01*
X02474D02*
X02486D01*
X02461D02*
X02466D01*
X02433D02*
X02445D01*
X02149D02*
X024D01*
X02697Y044352D02*
X02741D01*
X02621D02*
X02626D01*
X02526D02*
X02533D01*
X02474D02*
X02486D01*
X02461D02*
X02466D01*
X02433D02*
X02445D01*
X02149D02*
X024D01*
X02698Y044362D02*
X02741D01*
X02622D02*
X02625D01*
X02528D02*
X02534D01*
X02474D02*
X02486D01*
X02461D02*
X02466D01*
X02433D02*
X02445D01*
X02149D02*
X02401D01*
X02699Y044372D02*
X02741D01*
X02623D02*
X02624D01*
X02528D02*
X02535D01*
X02474D02*
X02486D01*
X02461D02*
X02466D01*
X02433D02*
X02445D01*
X02149D02*
X02401D01*
X027Y044382D02*
X02741D01*
X02528D02*
X02535D01*
X02474D02*
X02486D01*
X02461D02*
X02466D01*
X02433D02*
X02445D01*
X02149D02*
X02401D01*
X02701Y044392D02*
X02741D01*
X02527D02*
X02536D01*
X02474D02*
X02486D01*
X02461D02*
X02466D01*
X02434D02*
X02445D01*
X02149D02*
X02401D01*
X02702Y044402D02*
X02741D01*
X02527D02*
X02536D01*
X02474D02*
X02486D01*
X02461D02*
X02467D01*
X02434D02*
X02444D01*
X02149D02*
X02401D01*
X02733Y044412D02*
X0274D01*
X02725D02*
X02732D01*
X02717D02*
X02724D01*
X02709D02*
X02716D01*
X02703D02*
X02708D01*
X02533D02*
X02537D01*
X02527D02*
X02532D01*
X02477D02*
X02484D01*
X02474D02*
X02476D01*
X02461D02*
X02467D01*
X02437D02*
X02444D01*
X02434D02*
X02436D01*
X02397D02*
X02401D01*
X02389D02*
X02396D01*
X02381D02*
X02388D01*
X02373D02*
X0238D01*
X02365D02*
X02372D01*
X02357D02*
X02364D01*
X02349D02*
X02356D01*
X02341D02*
X02348D01*
X02333D02*
X0234D01*
X02325D02*
X02332D01*
X02317D02*
X02324D01*
X02309D02*
X02316D01*
X02301D02*
X02308D01*
X02293D02*
X023D01*
X02285D02*
X02292D01*
X02277D02*
X02284D01*
X02269D02*
X02276D01*
X02261D02*
X02268D01*
X02253D02*
X0226D01*
X02245D02*
X02252D01*
X02237D02*
X02244D01*
X02229D02*
X02236D01*
X02221D02*
X02228D01*
X02213D02*
X0222D01*
X02205D02*
X02212D01*
X02197D02*
X02204D01*
X02189D02*
X02196D01*
X02181D02*
X02188D01*
X02173D02*
X0218D01*
X02165D02*
X02172D01*
X02157D02*
X02164D01*
X02149D02*
X02156D01*
X02703Y044422D02*
X02741D01*
X02527D02*
X02537D01*
X02475D02*
X02485D01*
X02462D02*
X02467D01*
X02434D02*
X02444D01*
X02149D02*
X02401D01*
X02704Y044432D02*
X02741D01*
X02527D02*
X02538D01*
X02475D02*
X02485D01*
X02462D02*
X02467D01*
X02434D02*
X02444D01*
X02149D02*
X02401D01*
X02705Y044442D02*
X02741D01*
X02526D02*
X02539D01*
X02475D02*
X02485D01*
X02462D02*
X02467D01*
X02434D02*
X02444D01*
X02149D02*
X02402D01*
X02705Y044452D02*
X02741D01*
X02526D02*
X02539D01*
X02475D02*
X02485D01*
X02462D02*
X02467D01*
X02434D02*
X02444D01*
X02149D02*
X02402D01*
X02706Y044462D02*
X02741D01*
X02526D02*
X0254D01*
X02475D02*
X02485D01*
X02462D02*
X02467D01*
X02434D02*
X02444D01*
X02149D02*
X02402D01*
X02706Y044472D02*
X02741D01*
X02526D02*
X0254D01*
X02475D02*
X02485D01*
X02462D02*
X02467D01*
X02434D02*
X02444D01*
X02149D02*
X02402D01*
X02707Y044482D02*
X02741D01*
X02517D02*
X02539D01*
X02475D02*
X02485D01*
X02462D02*
X02467D01*
X02434D02*
X02444D01*
X02149D02*
X02402D01*
X02733Y044492D02*
X0274D01*
X02725D02*
X02732D01*
X02717D02*
X02724D01*
X02709D02*
X02716D01*
X02707D02*
X02708D01*
X02533D02*
X02539D01*
X02525D02*
X02532D01*
X02517D02*
X02524D01*
X02477D02*
X02484D01*
X02475D02*
X02476D01*
X02462D02*
X02468D01*
X02437D02*
X02444D01*
X02434D02*
X02436D01*
X02397D02*
X02402D01*
X02389D02*
X02396D01*
X02381D02*
X02388D01*
X02373D02*
X0238D01*
X02365D02*
X02372D01*
X02357D02*
X02364D01*
X02349D02*
X02356D01*
X02341D02*
X02348D01*
X02333D02*
X0234D01*
X02325D02*
X02332D01*
X02317D02*
X02324D01*
X02309D02*
X02316D01*
X02301D02*
X02308D01*
X02293D02*
X023D01*
X02285D02*
X02292D01*
X02277D02*
X02284D01*
X02269D02*
X02276D01*
X02261D02*
X02268D01*
X02253D02*
X0226D01*
X02245D02*
X02252D01*
X02237D02*
X02244D01*
X02229D02*
X02236D01*
X02221D02*
X02228D01*
X02213D02*
X0222D01*
X02205D02*
X02212D01*
X02197D02*
X02204D01*
X02189D02*
X02196D01*
X02181D02*
X02188D01*
X02173D02*
X0218D01*
X02165D02*
X02172D01*
X02157D02*
X02164D01*
X02149D02*
X02156D01*
X02708Y044502D02*
X02741D01*
X02517D02*
X02538D01*
X02475D02*
X02485D01*
X02462D02*
X02468D01*
X02435D02*
X02443D01*
X02149D02*
X02402D01*
X02709Y044512D02*
X02741D01*
X02517D02*
X02538D01*
X02475D02*
X02484D01*
X02463D02*
X02468D01*
X02435D02*
X02443D01*
X02149D02*
X02402D01*
X02709Y044522D02*
X02741D01*
X02517D02*
X02537D01*
X02476D02*
X02484D01*
X02463D02*
X02468D01*
X02435D02*
X02443D01*
X02149D02*
X02403D01*
X02709Y044532D02*
X02741D01*
X02516D02*
X02537D01*
X02476D02*
X02484D01*
X02463D02*
X02468D01*
X02435D02*
X02443D01*
X02149D02*
X02403D01*
X0271Y044542D02*
X02741D01*
X02516D02*
X02537D01*
X02476D02*
X02484D01*
X02463D02*
X02468D01*
X02435D02*
X02443D01*
X02149D02*
X02403D01*
X0271Y044552D02*
X02741D01*
X02516D02*
X02536D01*
X02476D02*
X02484D01*
X02463D02*
X02468D01*
X02435D02*
X02443D01*
X02149D02*
X02403D01*
X02711Y044562D02*
X02741D01*
X02656D02*
X02667D01*
X02579D02*
X0259D01*
X02516D02*
X02536D01*
X02476D02*
X02484D01*
X02463D02*
X02468D01*
X02435D02*
X02443D01*
X02149D02*
X02403D01*
X02733Y044572D02*
X0274D01*
X02725D02*
X02732D01*
X02717D02*
X02724D01*
X02711D02*
X02716D01*
X02669D02*
X0267D01*
X02661D02*
X02668D01*
X02653D02*
X0266D01*
X02589D02*
X02594D01*
X02581D02*
X02588D01*
X02576D02*
X0258D01*
X02517D02*
X02521D01*
X02477D02*
X02484D01*
X02463D02*
X02468D01*
X02437D02*
X02443D01*
X02435D02*
X02436D01*
X02397D02*
X02403D01*
X02389D02*
X02396D01*
X02381D02*
X02388D01*
X02373D02*
X0238D01*
X02365D02*
X02372D01*
X02357D02*
X02364D01*
X02349D02*
X02356D01*
X02341D02*
X02348D01*
X02333D02*
X0234D01*
X02325D02*
X02332D01*
X02317D02*
X02324D01*
X02309D02*
X02316D01*
X02301D02*
X02308D01*
X02293D02*
X023D01*
X02285D02*
X02292D01*
X02277D02*
X02284D01*
X02269D02*
X02276D01*
X02261D02*
X02268D01*
X02253D02*
X0226D01*
X02245D02*
X02252D01*
X02237D02*
X02244D01*
X02229D02*
X02236D01*
X02221D02*
X02228D01*
X02213D02*
X0222D01*
X02205D02*
X02212D01*
X02197D02*
X02204D01*
X02189D02*
X02196D01*
X02181D02*
X02188D01*
X02173D02*
X0218D01*
X02165D02*
X02172D01*
X02157D02*
X02164D01*
X02149D02*
X02156D01*
X02711Y044582D02*
X02741D01*
X02651D02*
X02672D01*
X02574D02*
X02596D01*
X02516D02*
X02521D01*
X02476D02*
X02484D01*
X02463D02*
X02469D01*
X02435D02*
X02443D01*
X02149D02*
X02403D01*
X02711Y044592D02*
X02741D01*
X02649D02*
X02674D01*
X02572D02*
X02597D01*
X02516D02*
X02521D01*
X02476D02*
X02484D01*
X02463D02*
X02469D01*
X02435D02*
X02443D01*
X02149D02*
X02403D01*
X02712Y044602D02*
X02741D01*
X02647D02*
X02676D01*
X02571D02*
X02599D01*
X02516D02*
X0252D01*
X02476D02*
X02484D01*
X02464D02*
X02469D01*
X02436D02*
X02443D01*
X02149D02*
X02404D01*
X02712Y044612D02*
X02741D01*
X02646D02*
X02677D01*
X02569D02*
X026D01*
X02515D02*
X0252D01*
X02476D02*
X02484D01*
X02464D02*
X02469D01*
X02436D02*
X02442D01*
X02149D02*
X02404D01*
X02712Y044622D02*
X02741D01*
X02645D02*
X02678D01*
X02568D02*
X02601D01*
X02515D02*
X0252D01*
X02476D02*
X02483D01*
X02464D02*
X02469D01*
X02436D02*
X02442D01*
X02149D02*
X02404D01*
X02712Y044632D02*
X02741D01*
X02644D02*
X02679D01*
X02567D02*
X02603D01*
X02515D02*
X0252D01*
X02477D02*
X02483D01*
X02464D02*
X02469D01*
X02436D02*
X02442D01*
X02149D02*
X02404D01*
X02733Y044642D02*
X0274D01*
X02725D02*
X02732D01*
X02717D02*
X02724D01*
X02712D02*
X02716D01*
X02677D02*
X0268D01*
X02669D02*
X02676D01*
X02661D02*
X02668D01*
X02653D02*
X0266D01*
X02645D02*
X02652D01*
X02643D02*
X02644D01*
X02597D02*
X02603D01*
X02589D02*
X02596D01*
X02581D02*
X02588D01*
X02573D02*
X0258D01*
X02566D02*
X02572D01*
X02517D02*
X02519D01*
X02515D02*
X02516D01*
X02477D02*
X02483D01*
X02464D02*
X02468D01*
X02437D02*
X02442D01*
X02397D02*
X02404D01*
X02389D02*
X02396D01*
X02381D02*
X02388D01*
X02373D02*
X0238D01*
X02365D02*
X02372D01*
X02357D02*
X02364D01*
X02349D02*
X02356D01*
X02341D02*
X02348D01*
X02333D02*
X0234D01*
X02325D02*
X02332D01*
X02317D02*
X02324D01*
X02309D02*
X02316D01*
X02301D02*
X02308D01*
X02293D02*
X023D01*
X02285D02*
X02292D01*
X02277D02*
X02284D01*
X02269D02*
X02276D01*
X02261D02*
X02268D01*
X02253D02*
X0226D01*
X02245D02*
X02252D01*
X02237D02*
X02244D01*
X02229D02*
X02236D01*
X02221D02*
X02228D01*
X02213D02*
X0222D01*
X02205D02*
X02212D01*
X02197D02*
X02204D01*
X02189D02*
X02196D01*
X02181D02*
X02188D01*
X02173D02*
X0218D01*
X02165D02*
X02172D01*
X02157D02*
X02164D01*
X02149D02*
X02156D01*
X02713Y044652D02*
X02741D01*
X02642D02*
X02681D01*
X02565D02*
X02604D01*
X02515D02*
X02519D01*
X02477D02*
X02483D01*
X02464D02*
X02469D01*
X02436D02*
X02442D01*
X02149D02*
X02404D01*
X02713Y044662D02*
X02741D01*
X02641D02*
X02682D01*
X02565D02*
X02605D01*
X02515D02*
X02519D01*
X02477D02*
X02483D01*
X02464D02*
X02469D01*
X02436D02*
X02442D01*
X02149D02*
X02404D01*
X02713Y044672D02*
X02741D01*
X02641D02*
X02683D01*
X02564D02*
X02606D01*
X02515D02*
X02518D01*
X02477D02*
X02483D01*
X02464D02*
X0247D01*
X02436D02*
X02442D01*
X02385D02*
X02404D01*
X02363D02*
X02368D01*
X02309D02*
X02347D01*
X02249D02*
X02271D01*
X02203D02*
X02223D01*
X02149D02*
X02177D01*
X02713Y044682D02*
X02741D01*
X0264D02*
X02683D01*
X02563D02*
X02606D01*
X02515D02*
X02518D01*
X02477D02*
X02483D01*
X02464D02*
X0247D01*
X02436D02*
X02442D01*
X02386D02*
X02405D01*
X02363D02*
X02368D01*
X0231D02*
X02346D01*
X02249D02*
X0227D01*
X02203D02*
X02223D01*
X02149D02*
X02178D01*
X02713Y044692D02*
X02741D01*
X0264D02*
X02684D01*
X02563D02*
X02607D01*
X02514D02*
X0252D01*
X02477D02*
X02483D01*
X02465D02*
X0247D01*
X02436D02*
X02442D01*
X02387D02*
X02405D01*
X02363D02*
X02368D01*
X02311D02*
X02345D01*
X02249D02*
X02269D01*
X02204D02*
X02223D01*
X02149D02*
X02178D01*
X02713Y044702D02*
X02741D01*
X02639D02*
X02684D01*
X02562D02*
X02607D01*
X02514D02*
X02522D01*
X02477D02*
X02483D01*
X02465D02*
X0247D01*
X02437D02*
X02442D01*
X02388D02*
X02405D01*
X02363D02*
X02368D01*
X02312D02*
X02344D01*
X02249D02*
X02268D01*
X02204D02*
X02223D01*
X02149D02*
X02179D01*
X02713Y044712D02*
X02741D01*
X02638D02*
X02685D01*
X02562D02*
X02608D01*
X02515D02*
X02523D01*
X02477D02*
X02483D01*
X02465D02*
X0247D01*
X02437D02*
X02441D01*
X02389D02*
X02405D01*
X02363D02*
X02368D01*
X02313D02*
X02343D01*
X02249D02*
X02267D01*
X02204D02*
X02223D01*
X02149D02*
X02179D01*
X02733Y044722D02*
X0274D01*
X02725D02*
X02732D01*
X02717D02*
X02724D01*
X02713D02*
X02716D01*
X02677D02*
X02684D01*
X02669D02*
X02676D01*
X02661D02*
X02668D01*
X02653D02*
X0266D01*
X02645D02*
X02652D01*
X02638D02*
X02644D01*
X02605D02*
X02608D01*
X02597D02*
X02604D01*
X02589D02*
X02596D01*
X02581D02*
X02588D01*
X02573D02*
X0258D01*
X02565D02*
X02572D01*
X02561D02*
X02564D01*
X02517D02*
X02524D01*
X02477D02*
X02482D01*
X02469D02*
X0247D01*
X02465D02*
X02468D01*
X02437D02*
X02441D01*
X02397D02*
X02404D01*
X0239D02*
X02396D01*
X02365D02*
X02368D01*
X02363D02*
X02364D01*
X02341D02*
X02342D01*
X02333D02*
X0234D01*
X02325D02*
X02332D01*
X02317D02*
X02324D01*
X02314D02*
X02316D01*
X02261D02*
X02266D01*
X02253D02*
X0226D01*
X02249D02*
X02252D01*
X02221D02*
X02223D01*
X02213D02*
X0222D01*
X02205D02*
X02212D01*
X02173D02*
X02179D01*
X02165D02*
X02172D01*
X02157D02*
X02164D01*
X02149D02*
X02156D01*
X02713Y044732D02*
X02741D01*
X02638D02*
X02685D01*
X02561D02*
X02609D01*
X02519D02*
X02527D01*
X02478D02*
X02482D01*
X02465D02*
X0247D01*
X02437D02*
X02441D01*
X02391D02*
X02405D01*
X02363D02*
X02368D01*
X02315D02*
X0234D01*
X02249D02*
X02264D01*
X02205D02*
X02223D01*
X02149D02*
X0218D01*
X02713Y044742D02*
X02741D01*
X02638D02*
X02686D01*
X02561D02*
X02609D01*
X02521D02*
X02529D01*
X02478D02*
X02482D01*
X02465D02*
X0247D01*
X02437D02*
X02441D01*
X02392D02*
X02405D01*
X02363D02*
X02368D01*
X02316D02*
X02339D01*
X02249D02*
X02263D01*
X02205D02*
X02223D01*
X02149D02*
X0218D01*
X02713Y044752D02*
X02741D01*
X02637D02*
X02686D01*
X0256D02*
X02609D01*
X02522D02*
X0253D01*
X02478D02*
X02482D01*
X02465D02*
X0247D01*
X02437D02*
X02441D01*
X02393D02*
X02405D01*
X02363D02*
X02368D01*
X02317D02*
X02338D01*
X02249D02*
X02262D01*
X02206D02*
X02223D01*
X02149D02*
X02181D01*
X02713Y044762D02*
X02741D01*
X02637D02*
X02686D01*
X0256D02*
X02609D01*
X02522D02*
X02532D01*
X02478D02*
X02482D01*
X02465D02*
X02471D01*
X02437D02*
X02441D01*
X02394D02*
X02406D01*
X02363D02*
X02368D01*
X02318D02*
X02337D01*
X02249D02*
X02261D01*
X02206D02*
X02223D01*
X02149D02*
X02181D01*
X02713Y044772D02*
X02741D01*
X02637D02*
X02686D01*
X0256D02*
X0261D01*
X02522D02*
X02533D01*
X02478D02*
X02482D01*
X02465D02*
X02471D01*
X02437D02*
X02441D01*
X02395D02*
X02406D01*
X02363D02*
X02368D01*
X02319D02*
X02336D01*
X02249D02*
X0226D01*
X02206D02*
X02223D01*
X02149D02*
X02181D01*
X02713Y044782D02*
X02741D01*
X02637D02*
X02686D01*
X0256D02*
X0261D01*
X02522D02*
X02533D01*
X02478D02*
X02482D01*
X02466D02*
X02471D01*
X02459D02*
X0246D01*
X02437D02*
X02441D01*
X02396D02*
X02406D01*
X02363D02*
X02368D01*
X0232D02*
X02335D01*
X02249D02*
X02259D01*
X02207D02*
X02223D01*
X02149D02*
X02182D01*
X02713Y044792D02*
X02741D01*
X02637D02*
X02687D01*
X0256D02*
X0261D01*
X02522D02*
X02533D01*
X02478D02*
X02482D01*
X02466D02*
X02471D01*
X02459D02*
X0246D01*
X02437D02*
X02441D01*
X02397D02*
X02406D01*
X02363D02*
X02368D01*
X02321D02*
X02334D01*
X02249D02*
X02258D01*
X02207D02*
X02223D01*
X02149D02*
X02182D01*
X02733Y044802D02*
X0274D01*
X02725D02*
X02732D01*
X02717D02*
X02724D01*
X02713D02*
X02716D01*
X02685D02*
X02687D01*
X02677D02*
X02684D01*
X02669D02*
X02676D01*
X02661D02*
X02668D01*
X02653D02*
X0266D01*
X02645D02*
X02652D01*
X02637D02*
X02644D01*
X02605D02*
X0261D01*
X02597D02*
X02604D01*
X02589D02*
X02596D01*
X02581D02*
X02588D01*
X02573D02*
X0258D01*
X02565D02*
X02572D01*
X0256D02*
X02564D01*
X02525D02*
X02532D01*
X02521D02*
X02524D01*
X02478D02*
X02482D01*
X02469D02*
X02471D01*
X02466D02*
X02468D01*
X02459D02*
X0246D01*
X02437D02*
X02441D01*
X02405D02*
X02406D01*
X02398D02*
X02404D01*
X02365D02*
X02368D01*
X02363D02*
X02364D01*
X02325D02*
X02332D01*
X02322D02*
X02324D01*
X02253D02*
X02257D01*
X02249D02*
X02252D01*
X02221D02*
X02223D01*
X02213D02*
X0222D01*
X02208D02*
X02212D01*
X02181D02*
X02182D01*
X02173D02*
X0218D01*
X02165D02*
X02172D01*
X02157D02*
X02164D01*
X02149D02*
X02156D01*
X02713Y044812D02*
X02741D01*
X02636D02*
X02687D01*
X0256D02*
X0261D01*
X02521D02*
X02533D01*
X02478D02*
X02482D01*
X02466D02*
X02471D01*
X02459D02*
X0246D01*
X02438D02*
X02441D01*
X02399D02*
X02406D01*
X02363D02*
X02368D01*
X02323D02*
X02332D01*
X02249D02*
X02256D01*
X02208D02*
X02223D01*
X02149D02*
X02183D01*
X02713Y044822D02*
X02741D01*
X02636D02*
X02687D01*
X0256D02*
X0261D01*
X02521D02*
X02533D01*
X02478D02*
X02481D01*
X02466D02*
X02471D01*
X02459D02*
X0246D01*
X02438D02*
X0244D01*
X02399D02*
X02406D01*
X02363D02*
X02368D01*
X02323D02*
X02332D01*
X02249D02*
X02256D01*
X02208D02*
X02223D01*
X02149D02*
X02183D01*
X02713Y044832D02*
X02741D01*
X02636D02*
X02687D01*
X0256D02*
X0261D01*
X02521D02*
X02533D01*
X02478D02*
X02481D01*
X02466D02*
X02471D01*
X02458D02*
X0246D01*
X02438D02*
X0244D01*
X02399D02*
X02406D01*
X02363D02*
X02368D01*
X02323D02*
X02332D01*
X02249D02*
X02256D01*
X02209D02*
X02223D01*
X02149D02*
X02184D01*
X02713Y044842D02*
X02741D01*
X02636D02*
X02687D01*
X0256D02*
X0261D01*
X02521D02*
X02533D01*
X02479D02*
X02481D01*
X02466D02*
X02471D01*
X02458D02*
X0246D01*
X02438D02*
X0244D01*
X02399D02*
X02407D01*
X02363D02*
X02368D01*
X02323D02*
X02332D01*
X02249D02*
X02256D01*
X02209D02*
X02223D01*
X02149D02*
X02184D01*
X02713Y044852D02*
X02741D01*
X02636D02*
X02687D01*
X0256D02*
X0261D01*
X0252D02*
X02533D01*
X02479D02*
X02481D01*
X02466D02*
X02472D01*
X02458D02*
X0246D01*
X02438D02*
X0244D01*
X02399D02*
X02407D01*
X02363D02*
X02368D01*
X02323D02*
X02332D01*
X02249D02*
X02256D01*
X02209D02*
X02223D01*
X02149D02*
X02184D01*
X02713Y044862D02*
X02741D01*
X02636D02*
X02687D01*
X0256D02*
X0261D01*
X02518D02*
X02533D01*
X02479D02*
X02481D01*
X02466D02*
X02472D01*
X02458D02*
X02461D01*
X02438D02*
X0244D01*
X02399D02*
X02407D01*
X02363D02*
X02368D01*
X02323D02*
X02332D01*
X02249D02*
X02256D01*
X0221D02*
X02223D01*
X02149D02*
X02185D01*
X02713Y044872D02*
X02741D01*
X02636D02*
X02687D01*
X0256D02*
X0261D01*
X02512D02*
X02532D01*
X02479D02*
X02481D01*
X02467D02*
X02472D01*
X02458D02*
X02461D01*
X02438D02*
X0244D01*
X02399D02*
X02407D01*
X02363D02*
X02368D01*
X02323D02*
X02332D01*
X02249D02*
X02256D01*
X0221D02*
X02223D01*
X02149D02*
X02185D01*
X02733Y044882D02*
X0274D01*
X02725D02*
X02732D01*
X02717D02*
X02724D01*
X02713D02*
X02716D01*
X02685D02*
X02687D01*
X02677D02*
X02684D01*
X02669D02*
X02676D01*
X02661D02*
X02668D01*
X02653D02*
X0266D01*
X02645D02*
X02652D01*
X02637D02*
X02644D01*
X02605D02*
X0261D01*
X02597D02*
X02604D01*
X02589D02*
X02596D01*
X02581D02*
X02588D01*
X02573D02*
X0258D01*
X02565D02*
X02572D01*
X0256D02*
X02564D01*
X02525D02*
X0253D01*
X02517D02*
X02524D01*
X02512D02*
X02516D01*
X02479D02*
X02481D01*
X02469D02*
X02472D01*
X02467D02*
X02468D01*
X02458D02*
X0246D01*
X02438D02*
X0244D01*
X02405D02*
X02407D01*
X02399D02*
X02404D01*
X02365D02*
X02368D01*
X02363D02*
X02364D01*
X02325D02*
X02332D01*
X02323D02*
X02324D01*
X02253D02*
X02256D01*
X02249D02*
X02252D01*
X02221D02*
X02223D01*
X02213D02*
X0222D01*
X0221D02*
X02212D01*
X02181D02*
X02186D01*
X02173D02*
X0218D01*
X02165D02*
X02172D01*
X02157D02*
X02164D01*
X02149D02*
X02156D01*
X02713Y044892D02*
X02741D01*
X02636D02*
X02687D01*
X0256D02*
X0261D01*
X02512D02*
X02528D01*
X02479D02*
X02481D01*
X02467D02*
X02472D01*
X02458D02*
X02461D01*
X02438D02*
X0244D01*
X02399D02*
X02407D01*
X02358D02*
X02373D01*
X02323D02*
X02332D01*
X02282D02*
X02297D01*
X02249D02*
X02256D01*
X02211D02*
X02223D01*
X02149D02*
X02186D01*
X02713Y044902D02*
X02741D01*
X02636D02*
X02687D01*
X0256D02*
X0261D01*
X02512D02*
X02527D01*
X02479D02*
X02481D01*
X02467D02*
X02472D01*
X02458D02*
X02461D01*
X02438D02*
X0244D01*
X02399D02*
X02407D01*
X02358D02*
X02373D01*
X02323D02*
X02332D01*
X02282D02*
X02297D01*
X02249D02*
X02256D01*
X02211D02*
X02223D01*
X02149D02*
X02186D01*
X02713Y044912D02*
X02741D01*
X02636D02*
X02687D01*
X0256D02*
X0261D01*
X02512D02*
X02525D01*
X02479D02*
X02481D01*
X02467D02*
X02472D01*
X02458D02*
X02461D01*
X02439D02*
X0244D01*
X02399D02*
X02407D01*
X02358D02*
X02373D01*
X02323D02*
X02332D01*
X02282D02*
X02297D01*
X02249D02*
X02256D01*
X02211D02*
X02223D01*
X02149D02*
X02187D01*
X02713Y044922D02*
X02741D01*
X02636D02*
X02687D01*
X0256D02*
X0261D01*
X02512D02*
X02524D01*
X02479D02*
X02481D01*
X02467D02*
X02472D01*
X02458D02*
X02461D01*
X02399D02*
X02408D01*
X02358D02*
X02373D01*
X02323D02*
X02332D01*
X02282D02*
X02297D01*
X02249D02*
X02256D01*
X02212D02*
X02223D01*
X02149D02*
X02187D01*
X02713Y044932D02*
X02741D01*
X02636D02*
X02687D01*
X0256D02*
X0261D01*
X02511D02*
X02522D01*
X02479D02*
X0248D01*
X02467D02*
X02472D01*
X02458D02*
X02461D01*
X02399D02*
X02408D01*
X02358D02*
X02373D01*
X02323D02*
X02332D01*
X02282D02*
X02297D01*
X02249D02*
X02256D01*
X02212D02*
X02223D01*
X02149D02*
X02187D01*
X02713Y044942D02*
X02741D01*
X02636D02*
X02687D01*
X0256D02*
X0261D01*
X02511D02*
X0252D01*
X02467D02*
X02473D01*
X02458D02*
X02461D01*
X02399D02*
X02408D01*
X02358D02*
X02373D01*
X02323D02*
X02332D01*
X02282D02*
X02297D01*
X02249D02*
X02256D01*
X02213D02*
X02223D01*
X02149D02*
X02188D01*
X02713Y044952D02*
X02741D01*
X02636D02*
X02687D01*
X0256D02*
X0261D01*
X02511D02*
X02521D01*
X02467D02*
X02473D01*
X02457D02*
X02461D01*
X02399D02*
X02408D01*
X02358D02*
X02373D01*
X02323D02*
X02332D01*
X02282D02*
X02297D01*
X02249D02*
X02256D01*
X02213D02*
X02223D01*
X02149D02*
X02188D01*
X02733Y044962D02*
X0274D01*
X02725D02*
X02732D01*
X02717D02*
X02724D01*
X02713D02*
X02716D01*
X02685D02*
X02687D01*
X02677D02*
X02684D01*
X02669D02*
X02676D01*
X02661D02*
X02668D01*
X02653D02*
X0266D01*
X02645D02*
X02652D01*
X02637D02*
X02644D01*
X02605D02*
X0261D01*
X02597D02*
X02604D01*
X02589D02*
X02596D01*
X02581D02*
X02588D01*
X02573D02*
X0258D01*
X02565D02*
X02572D01*
X0256D02*
X02564D01*
X02517D02*
X02521D01*
X02511D02*
X02516D01*
X02469D02*
X02473D01*
X02457D02*
X0246D01*
X02405D02*
X02408D01*
X02399D02*
X02404D01*
X02365D02*
X02372D01*
X02358D02*
X02364D01*
X02325D02*
X02332D01*
X02323D02*
X02324D01*
X02293D02*
X02297D01*
X02285D02*
X02292D01*
X02282D02*
X02284D01*
X02253D02*
X02256D01*
X02249D02*
X02252D01*
X02221D02*
X02223D01*
X02213D02*
X0222D01*
X02181D02*
X02188D01*
X02173D02*
X0218D01*
X02165D02*
X02172D01*
X02157D02*
X02164D01*
X02149D02*
X02156D01*
X02713Y044972D02*
X02741D01*
X02636D02*
X02687D01*
X0256D02*
X0261D01*
X02511D02*
X02521D01*
X02468D02*
X02473D01*
X02457D02*
X02462D01*
X02399D02*
X02408D01*
X02358D02*
X02373D01*
X02323D02*
X02332D01*
X02282D02*
X02297D01*
X02249D02*
X02256D01*
X02214D02*
X02223D01*
X02149D02*
X02189D01*
X02713Y044982D02*
X02741D01*
X02636D02*
X02687D01*
X0256D02*
X0261D01*
X02511D02*
X02521D01*
X02468D02*
X02473D01*
X02457D02*
X02462D01*
X02399D02*
X02408D01*
X02358D02*
X02373D01*
X02323D02*
X02332D01*
X02282D02*
X02297D01*
X02249D02*
X02256D01*
X02214D02*
X02223D01*
X02149D02*
X02189D01*
X02713Y044992D02*
X02741D01*
X02636D02*
X02687D01*
X0256D02*
X0261D01*
X02511D02*
X02522D01*
X02468D02*
X02473D01*
X02457D02*
X02462D01*
X02399D02*
X02408D01*
X02358D02*
X02373D01*
X02323D02*
X02332D01*
X02282D02*
X02297D01*
X02249D02*
X02256D01*
X02214D02*
X02223D01*
X02149D02*
X0219D01*
X02713Y045002D02*
X02741D01*
X02636D02*
X02687D01*
X0256D02*
X0261D01*
X02511D02*
X02522D01*
X02468D02*
X02473D01*
X02457D02*
X02462D01*
X02399D02*
X02409D01*
X02358D02*
X02373D01*
X02323D02*
X02332D01*
X02282D02*
X02297D01*
X02249D02*
X02256D01*
X02215D02*
X02223D01*
X02149D02*
X0219D01*
X02713Y045012D02*
X02741D01*
X02636D02*
X02687D01*
X0256D02*
X0261D01*
X0251D02*
X02522D01*
X02468D02*
X02473D01*
X02457D02*
X02462D01*
X02399D02*
X02409D01*
X02358D02*
X02373D01*
X02323D02*
X02332D01*
X02282D02*
X02297D01*
X02249D02*
X02256D01*
X02215D02*
X02223D01*
X02149D02*
X02191D01*
X02713Y045022D02*
X02741D01*
X02636D02*
X02687D01*
X0256D02*
X0261D01*
X0251D02*
X02522D01*
X02468D02*
X02473D01*
X02457D02*
X02462D01*
X02399D02*
X02409D01*
X02358D02*
X02373D01*
X02323D02*
X02332D01*
X02282D02*
X02297D01*
X02249D02*
X02256D01*
X02215D02*
X02223D01*
X02149D02*
X02191D01*
X02713Y045032D02*
X02741D01*
X02636D02*
X02687D01*
X0256D02*
X0261D01*
X0251D02*
X02523D01*
X02468D02*
X02474D01*
X02457D02*
X02462D01*
X02399D02*
X02409D01*
X02358D02*
X02373D01*
X02323D02*
X02332D01*
X02282D02*
X02297D01*
X02249D02*
X02256D01*
X02216D02*
X02223D01*
X02149D02*
X02191D01*
X02733Y045042D02*
X0274D01*
X02725D02*
X02732D01*
X02717D02*
X02724D01*
X02713D02*
X02716D01*
X02685D02*
X02687D01*
X02677D02*
X02684D01*
X02669D02*
X02676D01*
X02661D02*
X02668D01*
X02653D02*
X0266D01*
X02645D02*
X02652D01*
X02637D02*
X02644D01*
X02605D02*
X0261D01*
X02597D02*
X02604D01*
X02589D02*
X02596D01*
X02581D02*
X02588D01*
X02573D02*
X0258D01*
X02565D02*
X02572D01*
X0256D02*
X02564D01*
X02517D02*
X02523D01*
X0251D02*
X02516D01*
X02469D02*
X02474D01*
X02461D02*
X02462D01*
X02457D02*
X0246D01*
X02405D02*
X02409D01*
X02399D02*
X02404D01*
X02365D02*
X02372D01*
X02358D02*
X02364D01*
X02325D02*
X02332D01*
X02323D02*
X02324D01*
X02293D02*
X02297D01*
X02285D02*
X02292D01*
X02282D02*
X02284D01*
X02253D02*
X02256D01*
X02249D02*
X02252D01*
X02221D02*
X02223D01*
X02216D02*
X0222D01*
X02189D02*
X02192D01*
X02181D02*
X02188D01*
X02173D02*
X0218D01*
X02165D02*
X02172D01*
X02157D02*
X02164D01*
X02149D02*
X02156D01*
X02713Y045052D02*
X02741D01*
X02636D02*
X02687D01*
X0256D02*
X0261D01*
X0251D02*
X02523D01*
X02469D02*
X02474D01*
X02457D02*
X02462D01*
X02399D02*
X02409D01*
X02358D02*
X02373D01*
X02323D02*
X02332D01*
X02282D02*
X02297D01*
X02249D02*
X02256D01*
X02217D02*
X02223D01*
X02149D02*
X02192D01*
X02713Y045062D02*
X02741D01*
X02636D02*
X02687D01*
X0256D02*
X0261D01*
X0251D02*
X02533D01*
X02469D02*
X02474D01*
X02456D02*
X02462D01*
X02399D02*
X02409D01*
X02358D02*
X02373D01*
X02323D02*
X02332D01*
X02282D02*
X02297D01*
X02249D02*
X02256D01*
X02217D02*
X02223D01*
X02149D02*
X02193D01*
X02713Y045072D02*
X02741D01*
X02636D02*
X02687D01*
X0256D02*
X0261D01*
X0251D02*
X02533D01*
X02469D02*
X02474D01*
X02456D02*
X02462D01*
X02399D02*
X02409D01*
X02358D02*
X02373D01*
X02323D02*
X02332D01*
X02282D02*
X02297D01*
X02249D02*
X02256D01*
X02217D02*
X02223D01*
X02149D02*
X02193D01*
X02713Y045082D02*
X02741D01*
X02636D02*
X02687D01*
X0256D02*
X0261D01*
X0251D02*
X02533D01*
X02469D02*
X02474D01*
X02456D02*
X02462D01*
X02399D02*
X0241D01*
X02358D02*
X02373D01*
X02323D02*
X02332D01*
X02282D02*
X02297D01*
X02249D02*
X02256D01*
X02218D02*
X02223D01*
X02149D02*
X02193D01*
X02713Y045092D02*
X02741D01*
X02636D02*
X02687D01*
X0256D02*
X0261D01*
X02509D02*
X02533D01*
X02469D02*
X02474D01*
X02456D02*
X02463D01*
X02399D02*
X0241D01*
X02358D02*
X02373D01*
X02323D02*
X02332D01*
X02282D02*
X02297D01*
X02249D02*
X02256D01*
X02218D02*
X02223D01*
X02149D02*
X02194D01*
X02713Y045102D02*
X02741D01*
X02636D02*
X02687D01*
X0256D02*
X0261D01*
X0251D02*
X02533D01*
X02469D02*
X02474D01*
X02456D02*
X02463D01*
X02399D02*
X0241D01*
X02358D02*
X02373D01*
X02323D02*
X02332D01*
X02282D02*
X02297D01*
X02249D02*
X02256D01*
X02218D02*
X02223D01*
X02149D02*
X02194D01*
X02713Y045112D02*
X02741D01*
X02636D02*
X02687D01*
X0256D02*
X0261D01*
X02512D02*
X02533D01*
X02469D02*
X02474D01*
X02456D02*
X02463D01*
X02399D02*
X0241D01*
X02358D02*
X02373D01*
X02323D02*
X02332D01*
X02282D02*
X02297D01*
X02249D02*
X02256D01*
X02219D02*
X02223D01*
X02149D02*
X02194D01*
X02733Y045122D02*
X0274D01*
X02725D02*
X02732D01*
X02717D02*
X02724D01*
X02713D02*
X02716D01*
X02685D02*
X02687D01*
X02677D02*
X02684D01*
X02669D02*
X02676D01*
X02661D02*
X02668D01*
X02653D02*
X0266D01*
X02645D02*
X02652D01*
X02637D02*
X02644D01*
X02605D02*
X0261D01*
X02597D02*
X02604D01*
X02589D02*
X02596D01*
X02581D02*
X02588D01*
X02573D02*
X0258D01*
X02565D02*
X02572D01*
X0256D02*
X02564D01*
X02525D02*
X02532D01*
X02517D02*
X02524D01*
X02514D02*
X02516D01*
X02469D02*
X02475D01*
X02461D02*
X02463D01*
X02456D02*
X0246D01*
X02405D02*
X0241D01*
X02399D02*
X02404D01*
X02365D02*
X02372D01*
X02358D02*
X02364D01*
X02325D02*
X02332D01*
X02323D02*
X02324D01*
X02293D02*
X02297D01*
X02285D02*
X02292D01*
X02282D02*
X02284D01*
X02253D02*
X02256D01*
X02249D02*
X02252D01*
X02221D02*
X02223D01*
X02219D02*
X0222D01*
X02189D02*
X02195D01*
X02181D02*
X02188D01*
X02173D02*
X0218D01*
X02165D02*
X02172D01*
X02157D02*
X02164D01*
X02149D02*
X02156D01*
X02713Y045132D02*
X02741D01*
X02636D02*
X02687D01*
X0256D02*
X0261D01*
X02516D02*
X02533D01*
X02469D02*
X02475D01*
X02456D02*
X02463D01*
X02399D02*
X0241D01*
X02358D02*
X02373D01*
X02323D02*
X02332D01*
X02282D02*
X02297D01*
X02249D02*
X02256D01*
X02219D02*
X02223D01*
X02149D02*
X02195D01*
X02713Y045142D02*
X02741D01*
X02636D02*
X02687D01*
X0256D02*
X0261D01*
X02517D02*
X02533D01*
X0247D02*
X02475D01*
X02456D02*
X02463D01*
X02399D02*
X0241D01*
X02358D02*
X02373D01*
X02323D02*
X02332D01*
X02282D02*
X02297D01*
X02249D02*
X02256D01*
X0222D02*
X02223D01*
X02149D02*
X02196D01*
X02713Y045152D02*
X02741D01*
X02636D02*
X02687D01*
X0256D02*
X0261D01*
X02516D02*
X02533D01*
X0247D02*
X02475D01*
X02456D02*
X02463D01*
X02399D02*
X0241D01*
X02358D02*
X02373D01*
X02323D02*
X02332D01*
X02282D02*
X02297D01*
X02249D02*
X02256D01*
X0222D02*
X02223D01*
X02149D02*
X02196D01*
X02713Y045162D02*
X02741D01*
X02636D02*
X02687D01*
X0256D02*
X0261D01*
X02516D02*
X02533D01*
X0247D02*
X02475D01*
X02456D02*
X02463D01*
X02399D02*
X02411D01*
X02358D02*
X02373D01*
X02323D02*
X02332D01*
X02282D02*
X02297D01*
X02249D02*
X02256D01*
X0222D02*
X02223D01*
X02149D02*
X02196D01*
X02713Y045172D02*
X02741D01*
X02636D02*
X02687D01*
X0256D02*
X0261D01*
X02516D02*
X02533D01*
X0247D02*
X02475D01*
X02456D02*
X02463D01*
X02399D02*
X02411D01*
X02358D02*
X02373D01*
X02323D02*
X02332D01*
X02282D02*
X02297D01*
X02249D02*
X02256D01*
X02221D02*
X02223D01*
X02149D02*
X02197D01*
X02713Y045182D02*
X02741D01*
X02636D02*
X02687D01*
X0256D02*
X0261D01*
X02516D02*
X02533D01*
X0247D02*
X02475D01*
X02455D02*
X02463D01*
X02399D02*
X02411D01*
X02358D02*
X02373D01*
X02323D02*
X02332D01*
X02282D02*
X02297D01*
X02249D02*
X02256D01*
X02221D02*
X02223D01*
X02149D02*
X02197D01*
X02713Y045192D02*
X02741D01*
X02636D02*
X02687D01*
X0256D02*
X0261D01*
X02516D02*
X02533D01*
X0247D02*
X02475D01*
X02455D02*
X02463D01*
X02399D02*
X02411D01*
X02358D02*
X02373D01*
X02323D02*
X02332D01*
X02282D02*
X02297D01*
X02249D02*
X02256D01*
X02222D02*
X02223D01*
X02149D02*
X02198D01*
X02733Y045202D02*
X0274D01*
X02725D02*
X02732D01*
X02717D02*
X02724D01*
X02713D02*
X02716D01*
X02685D02*
X02687D01*
X02677D02*
X02684D01*
X02669D02*
X02676D01*
X02661D02*
X02668D01*
X02653D02*
X0266D01*
X02645D02*
X02652D01*
X02637D02*
X02644D01*
X02605D02*
X0261D01*
X02597D02*
X02604D01*
X02589D02*
X02596D01*
X02581D02*
X02588D01*
X02573D02*
X0258D01*
X02565D02*
X02572D01*
X0256D02*
X02564D01*
X02525D02*
X02532D01*
X02517D02*
X02524D01*
X02515D02*
X02516D01*
X0247D02*
X02475D01*
X02461D02*
X02464D01*
X02455D02*
X0246D01*
X02405D02*
X02411D01*
X02399D02*
X02404D01*
X02365D02*
X02372D01*
X02358D02*
X02364D01*
X02325D02*
X02332D01*
X02323D02*
X02324D01*
X02293D02*
X02297D01*
X02285D02*
X02292D01*
X02282D02*
X02284D01*
X02253D02*
X02256D01*
X02249D02*
X02252D01*
X02222D02*
X02223D01*
X02197D02*
X02198D01*
X02189D02*
X02196D01*
X02181D02*
X02188D01*
X02173D02*
X0218D01*
X02165D02*
X02172D01*
X02157D02*
X02164D01*
X02149D02*
X02156D01*
X02713Y045212D02*
X02741D01*
X02636D02*
X02687D01*
X0256D02*
X0261D01*
X02515D02*
X02533D01*
X0247D02*
X02476D01*
X02455D02*
X02464D01*
X02399D02*
X02411D01*
X02358D02*
X02373D01*
X02323D02*
X02332D01*
X02282D02*
X02297D01*
X02249D02*
X02256D01*
X02222D02*
X02223D01*
X02149D02*
X02198D01*
X02713Y045222D02*
X02741D01*
X02636D02*
X02687D01*
X0256D02*
X0261D01*
X02542D02*
X02547D01*
X02515D02*
X02533D01*
X02471D02*
X02476D01*
X02455D02*
X02464D01*
X02399D02*
X02411D01*
X02358D02*
X02373D01*
X02323D02*
X02332D01*
X02282D02*
X02297D01*
X02249D02*
X02256D01*
X02149D02*
X02199D01*
X02713Y045232D02*
X02741D01*
X02636D02*
X02687D01*
X0256D02*
X0261D01*
X0254D02*
X02549D01*
X02515D02*
X02533D01*
X02471D02*
X02476D01*
X02455D02*
X02464D01*
X02399D02*
X02411D01*
X02358D02*
X02373D01*
X02323D02*
X02332D01*
X02282D02*
X02297D01*
X02249D02*
X02256D01*
X02149D02*
X02199D01*
X02713Y045242D02*
X02741D01*
X02636D02*
X02687D01*
X0256D02*
X0261D01*
X02539D02*
X0255D01*
X02515D02*
X02533D01*
X02471D02*
X02476D01*
X02455D02*
X02464D01*
X02399D02*
X02412D01*
X02358D02*
X02373D01*
X02323D02*
X02332D01*
X02293D02*
X02297D01*
X02249D02*
X02256D01*
X02149D02*
X02199D01*
X02713Y045252D02*
X02741D01*
X02636D02*
X02687D01*
X0256D02*
X0261D01*
X02538D02*
X02551D01*
X02509D02*
X02533D01*
X02471D02*
X02476D01*
X02455D02*
X02464D01*
X02399D02*
X02412D01*
X02358D02*
X02373D01*
X02323D02*
X02332D01*
X02293D02*
X02297D01*
X02249D02*
X02257D01*
X02149D02*
X022D01*
X02713Y045262D02*
X02741D01*
X02636D02*
X02687D01*
X0256D02*
X0261D01*
X02537D02*
X02551D01*
X02507D02*
X02533D01*
X02471D02*
X02476D01*
X02455D02*
X02464D01*
X02399D02*
X02412D01*
X02358D02*
X02373D01*
X02323D02*
X02332D01*
X02293D02*
X02297D01*
X02249D02*
X02258D01*
X02149D02*
X022D01*
X02537Y045272D02*
X02741D01*
X02507D02*
X02533D01*
X02471D02*
X02476D01*
X02455D02*
X02464D01*
X02399D02*
X02412D01*
X02358D02*
X02373D01*
X02323D02*
X02332D01*
X02293D02*
X02297D01*
X02249D02*
X02259D01*
X02149D02*
X02201D01*
X02733Y045282D02*
X0274D01*
X02725D02*
X02732D01*
X02717D02*
X02724D01*
X02709D02*
X02716D01*
X02701D02*
X02708D01*
X02693D02*
X027D01*
X02685D02*
X02692D01*
X02677D02*
X02684D01*
X02669D02*
X02676D01*
X02661D02*
X02668D01*
X02653D02*
X0266D01*
X02645D02*
X02652D01*
X02637D02*
X02644D01*
X02629D02*
X02636D01*
X02621D02*
X02628D01*
X02613D02*
X0262D01*
X02605D02*
X02612D01*
X02597D02*
X02604D01*
X02589D02*
X02596D01*
X02581D02*
X02588D01*
X02573D02*
X0258D01*
X02565D02*
X02572D01*
X02557D02*
X02564D01*
X02549D02*
X02556D01*
X02541D02*
X02548D01*
X02537D02*
X0254D01*
X02525D02*
X02532D01*
X02517D02*
X02524D01*
X02509D02*
X02516D01*
X02507D02*
X02508D01*
X02471D02*
X02476D01*
X02461D02*
X02464D01*
X02455D02*
X0246D01*
X02405D02*
X02412D01*
X02399D02*
X02404D01*
X02365D02*
X02372D01*
X02358D02*
X02364D01*
X02325D02*
X02332D01*
X02323D02*
X02324D01*
X02293D02*
X02297D01*
X02253D02*
X0226D01*
X02249D02*
X02252D01*
X02197D02*
X02201D01*
X02189D02*
X02196D01*
X02181D02*
X02188D01*
X02173D02*
X0218D01*
X02165D02*
X02172D01*
X02157D02*
X02164D01*
X02149D02*
X02156D01*
X02536Y045292D02*
X02741D01*
X02507D02*
X02533D01*
X02471D02*
X02476D01*
X02455D02*
X02464D01*
X02399D02*
X02412D01*
X02358D02*
X02373D01*
X02323D02*
X02332D01*
X02293D02*
X02297D01*
X02249D02*
X02261D01*
X02149D02*
X02201D01*
X02536Y045302D02*
X02741D01*
X02507D02*
X02533D01*
X02471D02*
X02477D01*
X02454D02*
X02464D01*
X02399D02*
X02412D01*
X02358D02*
X02373D01*
X02323D02*
X02332D01*
X02293D02*
X02297D01*
X02249D02*
X02262D01*
X02149D02*
X02202D01*
X02537Y045312D02*
X02741D01*
X02507D02*
X02533D01*
X02472D02*
X02477D01*
X02454D02*
X02464D01*
X02399D02*
X02412D01*
X02358D02*
X02373D01*
X02323D02*
X02332D01*
X02293D02*
X02297D01*
X02249D02*
X02263D01*
X02149D02*
X02201D01*
X02537Y045322D02*
X02741D01*
X02507D02*
X02533D01*
X02472D02*
X02477D01*
X02454D02*
X02465D01*
X02399D02*
X02413D01*
X02358D02*
X02373D01*
X02323D02*
X02332D01*
X02293D02*
X02297D01*
X02249D02*
X02264D01*
X02149D02*
X02201D01*
X02713Y045332D02*
X02741D01*
X02636D02*
X02687D01*
X0256D02*
X0261D01*
X02537D02*
X02551D01*
X02506D02*
X02533D01*
X02472D02*
X02477D01*
X02454D02*
X02465D01*
X02399D02*
X02413D01*
X02358D02*
X02373D01*
X02323D02*
X02332D01*
X02293D02*
X02297D01*
X02249D02*
X02265D01*
X02149D02*
X02201D01*
X02713Y045342D02*
X02741D01*
X02636D02*
X02687D01*
X0256D02*
X0261D01*
X02538D02*
X02551D01*
X02506D02*
X02533D01*
X02472D02*
X02477D01*
X02454D02*
X02465D01*
X02399D02*
X02413D01*
X02358D02*
X02373D01*
X02323D02*
X02332D01*
X02293D02*
X02297D01*
X02249D02*
X02266D01*
X02149D02*
X022D01*
X02713Y045352D02*
X02741D01*
X02636D02*
X02687D01*
X0256D02*
X0261D01*
X02539D02*
X0255D01*
X02506D02*
X02533D01*
X02472D02*
X02477D01*
X02454D02*
X02465D01*
X02399D02*
X02413D01*
X02358D02*
X02373D01*
X02323D02*
X02332D01*
X02293D02*
X02297D01*
X02249D02*
X02267D01*
X02149D02*
X022D01*
X02733Y045362D02*
X0274D01*
X02725D02*
X02732D01*
X02717D02*
X02724D01*
X02713D02*
X02716D01*
X02685D02*
X02687D01*
X02677D02*
X02684D01*
X02669D02*
X02676D01*
X02661D02*
X02668D01*
X02653D02*
X0266D01*
X02645D02*
X02652D01*
X02637D02*
X02644D01*
X02605D02*
X0261D01*
X02597D02*
X02604D01*
X02589D02*
X02596D01*
X02581D02*
X02588D01*
X02573D02*
X0258D01*
X02565D02*
X02572D01*
X0256D02*
X02564D01*
X02541D02*
X02548D01*
X02525D02*
X02532D01*
X02517D02*
X02524D01*
X02509D02*
X02516D01*
X02506D02*
X02508D01*
X02472D02*
X02476D01*
X02461D02*
X02465D01*
X02454D02*
X0246D01*
X02405D02*
X02412D01*
X02399D02*
X02404D01*
X02365D02*
X02372D01*
X02358D02*
X02364D01*
X02325D02*
X02332D01*
X02323D02*
X02324D01*
X02293D02*
X02297D01*
X02261D02*
X02268D01*
X02253D02*
X0226D01*
X02249D02*
X02252D01*
X02197D02*
X02199D01*
X02189D02*
X02196D01*
X02181D02*
X02188D01*
X02173D02*
X0218D01*
X02165D02*
X02172D01*
X02157D02*
X02164D01*
X02149D02*
X02156D01*
X02713Y045372D02*
X02741D01*
X02636D02*
X02687D01*
X0256D02*
X0261D01*
X02542D02*
X02547D01*
X02506D02*
X02533D01*
X02472D02*
X02477D01*
X02454D02*
X02465D01*
X02399D02*
X02413D01*
X02358D02*
X02373D01*
X02323D02*
X02332D01*
X02293D02*
X02297D01*
X02249D02*
X02268D01*
X02149D02*
X02199D01*
X02713Y045382D02*
X02741D01*
X02636D02*
X02687D01*
X0256D02*
X0261D01*
X02506D02*
X02533D01*
X02472D02*
X02477D01*
X02454D02*
X02465D01*
X02399D02*
X02413D01*
X02358D02*
X02373D01*
X02323D02*
X02332D01*
X02293D02*
X02297D01*
X02249D02*
X02267D01*
X02149D02*
X02199D01*
X02713Y045392D02*
X02741D01*
X02636D02*
X02687D01*
X0256D02*
X0261D01*
X02506D02*
X02533D01*
X02472D02*
X02478D01*
X02454D02*
X02465D01*
X02399D02*
X02413D01*
X02358D02*
X02373D01*
X02323D02*
X02332D01*
X02293D02*
X02297D01*
X02249D02*
X02266D01*
X02222D02*
X02223D01*
X02149D02*
X02198D01*
X02713Y045402D02*
X02741D01*
X02636D02*
X02687D01*
X0256D02*
X0261D01*
X02506D02*
X02533D01*
X02473D02*
X02478D01*
X02454D02*
X02465D01*
X02399D02*
X02414D01*
X02358D02*
X02373D01*
X02323D02*
X02332D01*
X02293D02*
X02297D01*
X02249D02*
X02265D01*
X02222D02*
X02223D01*
X02149D02*
X02198D01*
X02713Y045412D02*
X02741D01*
X02636D02*
X02687D01*
X0256D02*
X0261D01*
X02505D02*
X02533D01*
X02473D02*
X02478D01*
X02453D02*
X02465D01*
X02399D02*
X02414D01*
X02358D02*
X02373D01*
X02323D02*
X02332D01*
X02293D02*
X02297D01*
X02249D02*
X02264D01*
X02222D02*
X02223D01*
X02149D02*
X02198D01*
X02713Y045422D02*
X02741D01*
X02636D02*
X02687D01*
X0256D02*
X0261D01*
X02505D02*
X02533D01*
X02473D02*
X02478D01*
X02453D02*
X02465D01*
X02399D02*
X02414D01*
X02358D02*
X02373D01*
X02323D02*
X02332D01*
X02293D02*
X02297D01*
X02249D02*
X02263D01*
X02221D02*
X02223D01*
X02149D02*
X02197D01*
X02713Y045432D02*
X02741D01*
X02636D02*
X02687D01*
X0256D02*
X0261D01*
X02505D02*
X02533D01*
X02473D02*
X02478D01*
X02453D02*
X02465D01*
X02399D02*
X02414D01*
X02358D02*
X02373D01*
X02323D02*
X02332D01*
X02293D02*
X02297D01*
X02249D02*
X02262D01*
X02221D02*
X02223D01*
X02149D02*
X02197D01*
X02733Y045442D02*
X0274D01*
X02725D02*
X02732D01*
X02717D02*
X02724D01*
X02713D02*
X02716D01*
X02685D02*
X02687D01*
X02677D02*
X02684D01*
X02669D02*
X02676D01*
X02661D02*
X02668D01*
X02653D02*
X0266D01*
X02645D02*
X02652D01*
X02637D02*
X02644D01*
X02605D02*
X0261D01*
X02597D02*
X02604D01*
X02589D02*
X02596D01*
X02581D02*
X02588D01*
X02573D02*
X0258D01*
X02565D02*
X02572D01*
X0256D02*
X02564D01*
X02525D02*
X02532D01*
X02517D02*
X02524D01*
X02509D02*
X02516D01*
X02505D02*
X02508D01*
X02477D02*
X02478D01*
X02473D02*
X02476D01*
X02461D02*
X02466D01*
X02453D02*
X0246D01*
X02413D02*
X02414D01*
X02405D02*
X02412D01*
X02399D02*
X02404D01*
X02365D02*
X02372D01*
X02358D02*
X02364D01*
X02325D02*
X02332D01*
X02323D02*
X02324D01*
X02293D02*
X02297D01*
X02253D02*
X0226D01*
X02249D02*
X02252D01*
X02221D02*
X02223D01*
X02189D02*
X02196D01*
X02181D02*
X02188D01*
X02173D02*
X0218D01*
X02165D02*
X02172D01*
X02157D02*
X02164D01*
X02149D02*
X02156D01*
X02713Y045452D02*
X02741D01*
X02636D02*
X02687D01*
X0256D02*
X0261D01*
X02505D02*
X02533D01*
X02473D02*
X02478D01*
X02453D02*
X02466D01*
X02399D02*
X02414D01*
X02358D02*
X02373D01*
X02323D02*
X02332D01*
X02293D02*
X02297D01*
X02249D02*
X0226D01*
X0222D02*
X02223D01*
X02149D02*
X02196D01*
X02473Y045462D02*
X02741D01*
X02453D02*
X02466D01*
X02399D02*
X02414D01*
X02358D02*
X02373D01*
X02323D02*
X02332D01*
X02293D02*
X02297D01*
X02249D02*
X02259D01*
X0222D02*
X02223D01*
X02149D02*
X02196D01*
X02473Y045472D02*
X02741D01*
X02453D02*
X02466D01*
X02399D02*
X02414D01*
X02358D02*
X02373D01*
X02323D02*
X02332D01*
X02282D02*
X02297D01*
X02249D02*
X02258D01*
X0222D02*
X02223D01*
X02149D02*
X02195D01*
X02473Y045482D02*
X02741D01*
X02453D02*
X02466D01*
X02399D02*
X02415D01*
X02358D02*
X02373D01*
X02323D02*
X02332D01*
X02282D02*
X02297D01*
X02249D02*
X02257D01*
X02219D02*
X02223D01*
X02149D02*
X02195D01*
X02474Y045492D02*
X02741D01*
X02453D02*
X02466D01*
X02399D02*
X02415D01*
X02358D02*
X02373D01*
X02323D02*
X02332D01*
X02282D02*
X02297D01*
X02249D02*
X02256D01*
X02219D02*
X02223D01*
X02149D02*
X02195D01*
X02474Y045502D02*
X02741D01*
X02453D02*
X02466D01*
X02399D02*
X02415D01*
X02358D02*
X02373D01*
X02323D02*
X02332D01*
X02282D02*
X02297D01*
X02249D02*
X02256D01*
X02218D02*
X02223D01*
X02149D02*
X02194D01*
X02713Y045512D02*
X02741D01*
X02636D02*
X02687D01*
X0256D02*
X0261D01*
X02504D02*
X02533D01*
X02453D02*
X02466D01*
X02399D02*
X02415D01*
X02358D02*
X02373D01*
X02323D02*
X02332D01*
X02282D02*
X02297D01*
X02249D02*
X02256D01*
X02218D02*
X02223D01*
X02149D02*
X02194D01*
X02733Y045522D02*
X0274D01*
X02725D02*
X02732D01*
X02717D02*
X02724D01*
X02713D02*
X02716D01*
X02685D02*
X02687D01*
X02677D02*
X02684D01*
X02669D02*
X02676D01*
X02661D02*
X02668D01*
X02653D02*
X0266D01*
X02645D02*
X02652D01*
X02637D02*
X02644D01*
X02605D02*
X0261D01*
X02597D02*
X02604D01*
X02589D02*
X02596D01*
X02581D02*
X02588D01*
X02573D02*
X0258D01*
X02565D02*
X02572D01*
X0256D02*
X02564D01*
X02525D02*
X02532D01*
X02517D02*
X02524D01*
X02509D02*
X02516D01*
X02504D02*
X02508D01*
X02461D02*
X02466D01*
X02453D02*
X0246D01*
X02413D02*
X02415D01*
X02405D02*
X02412D01*
X02399D02*
X02404D01*
X02365D02*
X02372D01*
X02358D02*
X02364D01*
X02325D02*
X02332D01*
X02323D02*
X02324D01*
X02293D02*
X02297D01*
X02285D02*
X02292D01*
X02282D02*
X02284D01*
X02253D02*
X02256D01*
X02249D02*
X02252D01*
X02221D02*
X02223D01*
X02218D02*
X0222D01*
X02189D02*
X02193D01*
X02181D02*
X02188D01*
X02173D02*
X0218D01*
X02165D02*
X02172D01*
X02157D02*
X02164D01*
X02149D02*
X02156D01*
X02713Y045532D02*
X02741D01*
X02636D02*
X02687D01*
X0256D02*
X0261D01*
X02504D02*
X02533D01*
X02452D02*
X02466D01*
X02399D02*
X02415D01*
X02358D02*
X02373D01*
X02323D02*
X02332D01*
X02282D02*
X02297D01*
X02249D02*
X02256D01*
X02217D02*
X02223D01*
X02149D02*
X02193D01*
X02713Y045542D02*
X02741D01*
X02636D02*
X02687D01*
X0256D02*
X0261D01*
X02504D02*
X02533D01*
X02452D02*
X02466D01*
X02399D02*
X02415D01*
X02358D02*
X02373D01*
X02323D02*
X02332D01*
X02282D02*
X02297D01*
X02249D02*
X02256D01*
X02217D02*
X02223D01*
X02149D02*
X02193D01*
X02713Y045552D02*
X02741D01*
X02636D02*
X02687D01*
X0256D02*
X0261D01*
X02504D02*
X02533D01*
X02452D02*
X02467D01*
X02399D02*
X02415D01*
X02358D02*
X02373D01*
X02323D02*
X02332D01*
X02282D02*
X02297D01*
X02249D02*
X02256D01*
X02217D02*
X02223D01*
X02149D02*
X02192D01*
X02713Y045562D02*
X02741D01*
X02636D02*
X02687D01*
X0256D02*
X0261D01*
X02504D02*
X02533D01*
X02452D02*
X02467D01*
X02399D02*
X02416D01*
X02358D02*
X02373D01*
X02323D02*
X02332D01*
X02282D02*
X02297D01*
X02249D02*
X02256D01*
X02216D02*
X02223D01*
X02149D02*
X02192D01*
X02713Y045572D02*
X02741D01*
X02636D02*
X02687D01*
X0256D02*
X0261D01*
X02503D02*
X02533D01*
X02452D02*
X02467D01*
X02399D02*
X02416D01*
X02358D02*
X02373D01*
X02323D02*
X02332D01*
X02282D02*
X02297D01*
X02249D02*
X02256D01*
X02216D02*
X02223D01*
X02149D02*
X02192D01*
X02713Y045582D02*
X02741D01*
X02636D02*
X02687D01*
X0256D02*
X0261D01*
X02503D02*
X02533D01*
X02452D02*
X02467D01*
X02399D02*
X02416D01*
X02358D02*
X02373D01*
X02323D02*
X02332D01*
X02282D02*
X02297D01*
X02249D02*
X02256D01*
X02216D02*
X02223D01*
X02149D02*
X02191D01*
X02713Y045592D02*
X02741D01*
X02636D02*
X02687D01*
X0256D02*
X0261D01*
X02503D02*
X02533D01*
X02483D02*
X02487D01*
X02452D02*
X02467D01*
X02399D02*
X02416D01*
X02358D02*
X02373D01*
X02323D02*
X02332D01*
X02282D02*
X02297D01*
X02249D02*
X02256D01*
X02215D02*
X02223D01*
X02149D02*
X02191D01*
X02733Y045602D02*
X0274D01*
X02725D02*
X02732D01*
X02717D02*
X02724D01*
X02713D02*
X02716D01*
X02685D02*
X02687D01*
X02677D02*
X02684D01*
X02669D02*
X02676D01*
X02661D02*
X02668D01*
X02653D02*
X0266D01*
X02645D02*
X02652D01*
X02637D02*
X02644D01*
X02605D02*
X0261D01*
X02597D02*
X02604D01*
X02589D02*
X02596D01*
X02581D02*
X02588D01*
X02573D02*
X0258D01*
X02565D02*
X02572D01*
X0256D02*
X02564D01*
X02525D02*
X02532D01*
X02517D02*
X02524D01*
X02509D02*
X02516D01*
X02503D02*
X02508D01*
X02485D02*
X02489D01*
X02481D02*
X02484D01*
X02461D02*
X02467D01*
X02453D02*
X0246D01*
X02413D02*
X02416D01*
X02405D02*
X02412D01*
X02399D02*
X02404D01*
X02365D02*
X02372D01*
X02358D02*
X02364D01*
X02325D02*
X02332D01*
X02323D02*
X02324D01*
X02293D02*
X02297D01*
X02285D02*
X02292D01*
X02282D02*
X02284D01*
X02253D02*
X02256D01*
X02249D02*
X02252D01*
X02221D02*
X02223D01*
X02215D02*
X0222D01*
X02189D02*
X02191D01*
X02181D02*
X02188D01*
X02173D02*
X0218D01*
X02165D02*
X02172D01*
X02157D02*
X02164D01*
X02149D02*
X02156D01*
X02713Y045612D02*
X02741D01*
X02636D02*
X02687D01*
X0256D02*
X0261D01*
X02503D02*
X02533D01*
X02479D02*
X0249D01*
X02452D02*
X02467D01*
X02399D02*
X02416D01*
X02358D02*
X02373D01*
X02323D02*
X02332D01*
X02282D02*
X02297D01*
X02249D02*
X02256D01*
X02215D02*
X02223D01*
X02149D02*
X0219D01*
X02713Y045622D02*
X02741D01*
X02636D02*
X02687D01*
X0256D02*
X0261D01*
X02503D02*
X02533D01*
X02479D02*
X02491D01*
X02452D02*
X02467D01*
X02399D02*
X02416D01*
X02358D02*
X02373D01*
X02323D02*
X02332D01*
X02282D02*
X02297D01*
X02249D02*
X02256D01*
X02214D02*
X02223D01*
X02149D02*
X0219D01*
X02713Y045632D02*
X02741D01*
X02636D02*
X02687D01*
X0256D02*
X0261D01*
X02503D02*
X02533D01*
X02478D02*
X02492D01*
X02452D02*
X02467D01*
X02399D02*
X02416D01*
X02358D02*
X02373D01*
X02323D02*
X02332D01*
X02282D02*
X02297D01*
X02249D02*
X02256D01*
X02214D02*
X02223D01*
X02149D02*
X02189D01*
X02477Y045642D02*
X02741D01*
X02451D02*
X02467D01*
X02399D02*
X02417D01*
X02358D02*
X02373D01*
X02323D02*
X02332D01*
X02282D02*
X02297D01*
X02249D02*
X02256D01*
X02214D02*
X02223D01*
X02149D02*
X02189D01*
X02477Y045652D02*
X02741D01*
X02451D02*
X02467D01*
X02399D02*
X02417D01*
X02358D02*
X02373D01*
X02323D02*
X02332D01*
X02282D02*
X02297D01*
X02249D02*
X02256D01*
X02213D02*
X02223D01*
X02149D02*
X02189D01*
X02477Y045662D02*
X02741D01*
X02451D02*
X02467D01*
X02399D02*
X02417D01*
X02358D02*
X02373D01*
X02323D02*
X02332D01*
X02282D02*
X02297D01*
X02249D02*
X02256D01*
X02213D02*
X02223D01*
X02149D02*
X02188D01*
X02477Y045672D02*
X02741D01*
X02451D02*
X02468D01*
X02399D02*
X02417D01*
X02358D02*
X02373D01*
X02323D02*
X02332D01*
X02282D02*
X02297D01*
X02249D02*
X02256D01*
X02213D02*
X02223D01*
X02149D02*
X02188D01*
X02733Y045682D02*
X0274D01*
X02725D02*
X02732D01*
X02717D02*
X02724D01*
X02709D02*
X02716D01*
X02701D02*
X02708D01*
X02693D02*
X027D01*
X02685D02*
X02692D01*
X02677D02*
X02684D01*
X02669D02*
X02676D01*
X02661D02*
X02668D01*
X02653D02*
X0266D01*
X02645D02*
X02652D01*
X02637D02*
X02644D01*
X02629D02*
X02636D01*
X02621D02*
X02628D01*
X02613D02*
X0262D01*
X02605D02*
X02612D01*
X02597D02*
X02604D01*
X02589D02*
X02596D01*
X02581D02*
X02588D01*
X02573D02*
X0258D01*
X02565D02*
X02572D01*
X02557D02*
X02564D01*
X02549D02*
X02556D01*
X02541D02*
X02548D01*
X02533D02*
X0254D01*
X02525D02*
X02532D01*
X02517D02*
X02524D01*
X02509D02*
X02516D01*
X02501D02*
X02508D01*
X02493D02*
X025D01*
X02485D02*
X02492D01*
X02477D02*
X02484D01*
X02461D02*
X02468D01*
X02453D02*
X0246D01*
X02451D02*
X02452D01*
X02413D02*
X02417D01*
X02405D02*
X02412D01*
X02399D02*
X02404D01*
X02365D02*
X02372D01*
X02358D02*
X02364D01*
X02325D02*
X02332D01*
X02323D02*
X02324D01*
X02293D02*
X02297D01*
X02285D02*
X02292D01*
X02282D02*
X02284D01*
X02253D02*
X02256D01*
X02249D02*
X02252D01*
X02221D02*
X02223D01*
X02213D02*
X0222D01*
X02181D02*
X02188D01*
X02173D02*
X0218D01*
X02165D02*
X02172D01*
X02157D02*
X02164D01*
X02149D02*
X02156D01*
X02477Y045692D02*
X02741D01*
X02451D02*
X02468D01*
X02399D02*
X02417D01*
X02358D02*
X02373D01*
X02323D02*
X02332D01*
X02282D02*
X02297D01*
X02249D02*
X02256D01*
X02212D02*
X02223D01*
X02149D02*
X02187D01*
X02713Y045702D02*
X02741D01*
X02636D02*
X02687D01*
X0256D02*
X0261D01*
X02502D02*
X02533D01*
X02478D02*
X02492D01*
X02451D02*
X02468D01*
X02399D02*
X02417D01*
X02358D02*
X02373D01*
X02323D02*
X02332D01*
X02282D02*
X02297D01*
X02249D02*
X02256D01*
X02212D02*
X02223D01*
X02149D02*
X02187D01*
X02713Y045712D02*
X02741D01*
X02636D02*
X02687D01*
X0256D02*
X0261D01*
X02502D02*
X02533D01*
X02479D02*
X02491D01*
X02451D02*
X02468D01*
X02399D02*
X02417D01*
X02358D02*
X02373D01*
X02323D02*
X02332D01*
X02282D02*
X02297D01*
X02249D02*
X02256D01*
X02211D02*
X02223D01*
X02149D02*
X02186D01*
X02713Y045722D02*
X02741D01*
X02636D02*
X02687D01*
X0256D02*
X0261D01*
X02502D02*
X02533D01*
X02479D02*
X0249D01*
X02451D02*
X02468D01*
X02399D02*
X02418D01*
X02358D02*
X02373D01*
X02323D02*
X02332D01*
X02282D02*
X02297D01*
X02249D02*
X02256D01*
X02211D02*
X02223D01*
X02149D02*
X02186D01*
X02713Y045732D02*
X02741D01*
X02636D02*
X02687D01*
X0256D02*
X0261D01*
X02501D02*
X02533D01*
X02481D02*
X02489D01*
X02451D02*
X02468D01*
X02399D02*
X02418D01*
X02358D02*
X02373D01*
X02323D02*
X02332D01*
X02282D02*
X02297D01*
X02249D02*
X02256D01*
X02211D02*
X02223D01*
X02149D02*
X02186D01*
X02713Y045742D02*
X02741D01*
X02636D02*
X02687D01*
X0256D02*
X0261D01*
X02501D02*
X02533D01*
X02483D02*
X02487D01*
X02451D02*
X02468D01*
X02399D02*
X02418D01*
X02363D02*
X02368D01*
X02323D02*
X02332D01*
X02282D02*
X02297D01*
X02249D02*
X02256D01*
X0221D02*
X02223D01*
X02149D02*
X02185D01*
X02713Y045752D02*
X02741D01*
X02636D02*
X02687D01*
X0256D02*
X0261D01*
X02501D02*
X02533D01*
X02451D02*
X02468D01*
X02399D02*
X02418D01*
X02363D02*
X02368D01*
X02323D02*
X02332D01*
X02282D02*
X02297D01*
X02249D02*
X02256D01*
X0221D02*
X02223D01*
X02149D02*
X02185D01*
X02733Y045762D02*
X0274D01*
X02725D02*
X02732D01*
X02717D02*
X02724D01*
X02713D02*
X02716D01*
X02685D02*
X02687D01*
X02677D02*
X02684D01*
X02669D02*
X02676D01*
X02661D02*
X02668D01*
X02653D02*
X0266D01*
X02645D02*
X02652D01*
X02637D02*
X02644D01*
X02605D02*
X0261D01*
X02597D02*
X02604D01*
X02589D02*
X02596D01*
X02581D02*
X02588D01*
X02573D02*
X0258D01*
X02565D02*
X02572D01*
X0256D02*
X02564D01*
X02525D02*
X02532D01*
X02517D02*
X02524D01*
X02509D02*
X02516D01*
X02501D02*
X02508D01*
X02461D02*
X02468D01*
X02453D02*
X0246D01*
X0245D02*
X02452D01*
X02413D02*
X02418D01*
X02405D02*
X02412D01*
X02399D02*
X02404D01*
X02365D02*
X02368D01*
X02363D02*
X02364D01*
X02325D02*
X02332D01*
X02323D02*
X02324D01*
X02293D02*
X02297D01*
X02285D02*
X02292D01*
X02282D02*
X02284D01*
X02253D02*
X02256D01*
X02249D02*
X02252D01*
X02221D02*
X02223D01*
X02213D02*
X0222D01*
X02209D02*
X02212D01*
X02181D02*
X02185D01*
X02173D02*
X0218D01*
X02165D02*
X02172D01*
X02157D02*
X02164D01*
X02149D02*
X02156D01*
X02713Y045772D02*
X02741D01*
X02636D02*
X02687D01*
X0256D02*
X0261D01*
X02501D02*
X02533D01*
X0245D02*
X02468D01*
X02399D02*
X02418D01*
X02363D02*
X02368D01*
X02323D02*
X02332D01*
X02282D02*
X02297D01*
X02249D02*
X02256D01*
X02209D02*
X02223D01*
X02149D02*
X02184D01*
X02713Y045782D02*
X02741D01*
X02636D02*
X02687D01*
X0256D02*
X0261D01*
X02501D02*
X02533D01*
X0245D02*
X02469D01*
X02399D02*
X02418D01*
X02363D02*
X02368D01*
X02323D02*
X02332D01*
X02282D02*
X02297D01*
X02249D02*
X02256D01*
X02209D02*
X02223D01*
X02149D02*
X02184D01*
X02713Y045792D02*
X02741D01*
X02636D02*
X02687D01*
X0256D02*
X0261D01*
X02501D02*
X02533D01*
X0245D02*
X02469D01*
X02399D02*
X02418D01*
X02363D02*
X02368D01*
X02323D02*
X02332D01*
X02282D02*
X02297D01*
X02249D02*
X02256D01*
X02208D02*
X02223D01*
X02149D02*
X02183D01*
X02713Y045802D02*
X02741D01*
X02636D02*
X02687D01*
X0256D02*
X0261D01*
X02501D02*
X02533D01*
X0245D02*
X02469D01*
X02399D02*
X02419D01*
X02363D02*
X02368D01*
X02323D02*
X02332D01*
X02282D02*
X02297D01*
X02249D02*
X02256D01*
X02208D02*
X02223D01*
X02149D02*
X02183D01*
X02713Y045812D02*
X02741D01*
X02636D02*
X02687D01*
X0256D02*
X0261D01*
X025D02*
X02533D01*
X0245D02*
X02469D01*
X02399D02*
X02419D01*
X02363D02*
X02368D01*
X02323D02*
X02332D01*
X02282D02*
X02297D01*
X02249D02*
X02256D01*
X02208D02*
X02223D01*
X02149D02*
X02183D01*
X02713Y045822D02*
X02741D01*
X02636D02*
X02687D01*
X0256D02*
X0261D01*
X025D02*
X02533D01*
X0245D02*
X02469D01*
X02398D02*
X02419D01*
X02363D02*
X02368D01*
X02323D02*
X02333D01*
X02282D02*
X02297D01*
X02249D02*
X02256D01*
X02207D02*
X02223D01*
X02149D02*
X02182D01*
X02713Y045832D02*
X02741D01*
X02636D02*
X02687D01*
X0256D02*
X0261D01*
X025D02*
X02533D01*
X0245D02*
X02469D01*
X02397D02*
X02419D01*
X02363D02*
X02368D01*
X02323D02*
X02334D01*
X02282D02*
X02297D01*
X02249D02*
X02256D01*
X02207D02*
X02223D01*
X02149D02*
X02182D01*
X02733Y045842D02*
X0274D01*
X02725D02*
X02732D01*
X02717D02*
X02724D01*
X02713D02*
X02716D01*
X02685D02*
X02687D01*
X02677D02*
X02684D01*
X02669D02*
X02676D01*
X02661D02*
X02668D01*
X02653D02*
X0266D01*
X02645D02*
X02652D01*
X02637D02*
X02644D01*
X02605D02*
X0261D01*
X02597D02*
X02604D01*
X02589D02*
X02596D01*
X02581D02*
X02588D01*
X02573D02*
X0258D01*
X02565D02*
X02572D01*
X0256D02*
X02564D01*
X02525D02*
X02532D01*
X02517D02*
X02524D01*
X02509D02*
X02516D01*
X02501D02*
X02508D01*
X02461D02*
X02468D01*
X02453D02*
X0246D01*
X0245D02*
X02452D01*
X02413D02*
X02419D01*
X02405D02*
X02412D01*
X02397D02*
X02404D01*
X02365D02*
X02368D01*
X02363D02*
X02364D01*
X02333D02*
X02335D01*
X02325D02*
X02332D01*
X02323D02*
X02324D01*
X02293D02*
X02297D01*
X02285D02*
X02292D01*
X02282D02*
X02284D01*
X02253D02*
X02256D01*
X02249D02*
X02252D01*
X02221D02*
X02223D01*
X02213D02*
X0222D01*
X02207D02*
X02212D01*
X02181D02*
X02182D01*
X02173D02*
X0218D01*
X02165D02*
X02172D01*
X02157D02*
X02164D01*
X02149D02*
X02156D01*
X02713Y045852D02*
X0274D01*
X02636D02*
X02687D01*
X0256D02*
X0261D01*
X025D02*
X02533D01*
X0245D02*
X02469D01*
X02395D02*
X02419D01*
X02363D02*
X02368D01*
X02323D02*
X02336D01*
X02282D02*
X02297D01*
X02249D02*
X02256D01*
X02206D02*
X02223D01*
X0215D02*
X02181D01*
X02713Y045862D02*
X0274D01*
X02636D02*
X02687D01*
X0256D02*
X0261D01*
X025D02*
X02533D01*
X0245D02*
X02469D01*
X02394D02*
X02419D01*
X02363D02*
X02368D01*
X02323D02*
X02337D01*
X02282D02*
X02297D01*
X02249D02*
X02256D01*
X02206D02*
X02223D01*
X0215D02*
X02181D01*
X02713Y045872D02*
X0274D01*
X02636D02*
X02687D01*
X0256D02*
X0261D01*
X025D02*
X02533D01*
X0245D02*
X02469D01*
X02393D02*
X02419D01*
X02363D02*
X02368D01*
X02323D02*
X02338D01*
X02282D02*
X02297D01*
X02249D02*
X02256D01*
X02206D02*
X02223D01*
X0215D02*
X02181D01*
X02713Y045882D02*
X0274D01*
X02636D02*
X02687D01*
X0256D02*
X0261D01*
X025D02*
X02533D01*
X02449D02*
X02469D01*
X02392D02*
X0242D01*
X02363D02*
X02368D01*
X02323D02*
X02339D01*
X02282D02*
X02297D01*
X02249D02*
X02256D01*
X02205D02*
X02223D01*
X0215D02*
X0218D01*
X02713Y045892D02*
X02739D01*
X02636D02*
X02687D01*
X0256D02*
X0261D01*
X02499D02*
X02533D01*
X02449D02*
X02469D01*
X02391D02*
X0242D01*
X02363D02*
X02368D01*
X02323D02*
X0234D01*
X02282D02*
X02297D01*
X02249D02*
X02256D01*
X02205D02*
X02223D01*
X02151D02*
X0218D01*
X02713Y045902D02*
X02739D01*
X02636D02*
X02687D01*
X0256D02*
X0261D01*
X02499D02*
X02533D01*
X02449D02*
X0247D01*
X0239D02*
X0242D01*
X02363D02*
X02368D01*
X02323D02*
X02341D01*
X02282D02*
X02297D01*
X02249D02*
X02256D01*
X02205D02*
X02223D01*
X02151D02*
X02179D01*
X02713Y045912D02*
X02739D01*
X02636D02*
X02687D01*
X0256D02*
X0261D01*
X02499D02*
X02533D01*
X02449D02*
X0247D01*
X02389D02*
X0242D01*
X02363D02*
X02368D01*
X02323D02*
X02342D01*
X02282D02*
X02297D01*
X02249D02*
X02256D01*
X02204D02*
X02223D01*
X02151D02*
X02179D01*
X02733Y045922D02*
X02738D01*
X02725D02*
X02732D01*
X02717D02*
X02724D01*
X02713D02*
X02716D01*
X02685D02*
X02687D01*
X02677D02*
X02684D01*
X02669D02*
X02676D01*
X02661D02*
X02668D01*
X02653D02*
X0266D01*
X02645D02*
X02652D01*
X02637D02*
X02644D01*
X02605D02*
X0261D01*
X02597D02*
X02604D01*
X02589D02*
X02596D01*
X02581D02*
X02588D01*
X02573D02*
X0258D01*
X02565D02*
X02572D01*
X0256D02*
X02564D01*
X02525D02*
X02532D01*
X02517D02*
X02524D01*
X02509D02*
X02516D01*
X02501D02*
X02508D01*
X02499D02*
X025D01*
X02469D02*
X0247D01*
X02461D02*
X02468D01*
X02453D02*
X0246D01*
X02449D02*
X02452D01*
X02413D02*
X0242D01*
X02405D02*
X02412D01*
X02397D02*
X02404D01*
X02389D02*
X02396D01*
X02365D02*
X02368D01*
X02363D02*
X02364D01*
X02341D02*
X02343D01*
X02333D02*
X0234D01*
X02325D02*
X02332D01*
X02323D02*
X02324D01*
X02293D02*
X02297D01*
X02285D02*
X02292D01*
X02282D02*
X02284D01*
X02253D02*
X02256D01*
X02249D02*
X02252D01*
X02221D02*
X02223D01*
X02213D02*
X0222D01*
X02205D02*
X02212D01*
X02173D02*
X02179D01*
X02165D02*
X02172D01*
X02157D02*
X02164D01*
X02152D02*
X02156D01*
X02713Y045932D02*
X02738D01*
X02636D02*
X02687D01*
X0256D02*
X0261D01*
X02499D02*
X02533D01*
X02449D02*
X0247D01*
X02387D02*
X0242D01*
X02363D02*
X02368D01*
X02323D02*
X02344D01*
X02282D02*
X02297D01*
X02249D02*
X02256D01*
X02204D02*
X02223D01*
X02152D02*
X02178D01*
X02713Y045942D02*
X02737D01*
X02636D02*
X02687D01*
X0256D02*
X0261D01*
X02499D02*
X02533D01*
X02449D02*
X0247D01*
X02386D02*
X0242D01*
X02363D02*
X02368D01*
X02323D02*
X02345D01*
X02282D02*
X02297D01*
X02249D02*
X02256D01*
X02203D02*
X02223D01*
X02153D02*
X02178D01*
X02713Y045952D02*
X02736D01*
X02636D02*
X02687D01*
X0256D02*
X0261D01*
X02499D02*
X02533D01*
X02449D02*
X0247D01*
X02385D02*
X0242D01*
X02363D02*
X02368D01*
X02323D02*
X02346D01*
X02282D02*
X02297D01*
X02249D02*
X02256D01*
X02203D02*
X02223D01*
X02154D02*
X02178D01*
X02713Y045962D02*
X02736D01*
X02636D02*
X02687D01*
X0256D02*
X0261D01*
X02499D02*
X02533D01*
X02449D02*
X0247D01*
X02384D02*
X02421D01*
X02363D02*
X02368D01*
X02323D02*
X02347D01*
X02282D02*
X02297D01*
X02249D02*
X02256D01*
X02203D02*
X02223D01*
X02154D02*
X02177D01*
X02155Y045972D02*
X02735D01*
X02156Y045982D02*
X02734D01*
X02157Y045992D02*
X02733D01*
X02725Y046002D02*
X02732D01*
X02717D02*
X02724D01*
X02709D02*
X02716D01*
X02701D02*
X02708D01*
X02693D02*
X027D01*
X02685D02*
X02692D01*
X02677D02*
X02684D01*
X02669D02*
X02676D01*
X02661D02*
X02668D01*
X02653D02*
X0266D01*
X02645D02*
X02652D01*
X02637D02*
X02644D01*
X02629D02*
X02636D01*
X02621D02*
X02628D01*
X02613D02*
X0262D01*
X02605D02*
X02612D01*
X02597D02*
X02604D01*
X02589D02*
X02596D01*
X02581D02*
X02588D01*
X02573D02*
X0258D01*
X02565D02*
X02572D01*
X02557D02*
X02564D01*
X02549D02*
X02556D01*
X02541D02*
X02548D01*
X02533D02*
X0254D01*
X02525D02*
X02532D01*
X02517D02*
X02524D01*
X02509D02*
X02516D01*
X02501D02*
X02508D01*
X02493D02*
X025D01*
X02485D02*
X02492D01*
X02477D02*
X02484D01*
X02469D02*
X02476D01*
X02461D02*
X02468D01*
X02453D02*
X0246D01*
X02445D02*
X02452D01*
X02437D02*
X02444D01*
X02429D02*
X02436D01*
X02421D02*
X02428D01*
X02413D02*
X0242D01*
X02405D02*
X02412D01*
X02397D02*
X02404D01*
X02389D02*
X02396D01*
X02381D02*
X02388D01*
X02373D02*
X0238D01*
X02365D02*
X02372D01*
X02357D02*
X02364D01*
X02349D02*
X02356D01*
X02341D02*
X02348D01*
X02333D02*
X0234D01*
X02325D02*
X02332D01*
X02317D02*
X02324D01*
X02309D02*
X02316D01*
X02301D02*
X02308D01*
X02293D02*
X023D01*
X02285D02*
X02292D01*
X02277D02*
X02284D01*
X02269D02*
X02276D01*
X02261D02*
X02268D01*
X02253D02*
X0226D01*
X02245D02*
X02252D01*
X02237D02*
X02244D01*
X02229D02*
X02236D01*
X02221D02*
X02228D01*
X02213D02*
X0222D01*
X02205D02*
X02212D01*
X02197D02*
X02204D01*
X02189D02*
X02196D01*
X02181D02*
X02188D01*
X02173D02*
X0218D01*
X02165D02*
X02172D01*
X02157D02*
X02164D01*
X02159Y046012D02*
X02731D01*
X0216Y046022D02*
X0273D01*
X02161Y046032D02*
X02729D01*
X02163Y046042D02*
X02727D01*
X02164Y046052D02*
X02726D01*
X02166Y046062D02*
X02724D01*
X02169Y046072D02*
X02721D01*
X02709Y046082D02*
X02716D01*
X02701D02*
X02708D01*
X02693D02*
X027D01*
X02685D02*
X02692D01*
X02677D02*
X02684D01*
X02669D02*
X02676D01*
X02661D02*
X02668D01*
X02653D02*
X0266D01*
X02645D02*
X02652D01*
X02637D02*
X02644D01*
X02629D02*
X02636D01*
X02621D02*
X02628D01*
X02613D02*
X0262D01*
X02605D02*
X02612D01*
X02597D02*
X02604D01*
X02589D02*
X02596D01*
X02581D02*
X02588D01*
X02573D02*
X0258D01*
X02565D02*
X02572D01*
X02557D02*
X02564D01*
X02549D02*
X02556D01*
X02541D02*
X02548D01*
X02533D02*
X0254D01*
X02525D02*
X02532D01*
X02517D02*
X02524D01*
X02509D02*
X02516D01*
X02501D02*
X02508D01*
X02493D02*
X025D01*
X02485D02*
X02492D01*
X02477D02*
X02484D01*
X02469D02*
X02476D01*
X02461D02*
X02468D01*
X02453D02*
X0246D01*
X02445D02*
X02452D01*
X02437D02*
X02444D01*
X02429D02*
X02436D01*
X02421D02*
X02428D01*
X02413D02*
X0242D01*
X02405D02*
X02412D01*
X02397D02*
X02404D01*
X02389D02*
X02396D01*
X02381D02*
X02388D01*
X02373D02*
X0238D01*
X02365D02*
X02372D01*
X02357D02*
X02364D01*
X02349D02*
X02356D01*
X02341D02*
X02348D01*
X02333D02*
X0234D01*
X02325D02*
X02332D01*
X02317D02*
X02324D01*
X02309D02*
X02316D01*
X02301D02*
X02308D01*
X02293D02*
X023D01*
X02285D02*
X02292D01*
X02277D02*
X02284D01*
X02269D02*
X02276D01*
X02261D02*
X02268D01*
X02253D02*
X0226D01*
X02245D02*
X02252D01*
X02237D02*
X02244D01*
X02229D02*
X02236D01*
X02221D02*
X02228D01*
X02213D02*
X0222D01*
X02205D02*
X02212D01*
X02197D02*
X02204D01*
X02189D02*
X02196D01*
X02181D02*
X02188D01*
X02173D02*
X0218D01*
D13*
X03862Y04095D02*
X03929D01*
X03862D02*
Y04235D01*
X03929D01*
Y04095D02*
Y04235D01*
X03997Y0409D02*
X04064Y0409D01*
X03997Y0409D02*
Y0423D01*
X04064Y0423D01*
Y0409D02*
Y0423D01*
X036394Y041899D02*
X036394Y043966D01*
X029898Y043966D02*
X029898Y041899D01*
X036394Y041899D01*
Y0481D02*
X036394Y046564D01*
X029898Y0481D02*
X036394D01*
X029898Y046564D02*
Y0481D01*
D14*
X038891Y04254D02*
Y043445D01*
X040465Y04254D02*
Y043445D01*
X038891D02*
X039521D01*
X039835D02*
X040465D01*
X038891Y04254D02*
X039521D01*
X039835D02*
X040465D01*
D15*
X0499Y04495D02*
X0505D01*
Y04535D01*
X0499Y04595D02*
Y04555D01*
X0505D01*
Y04595D01*
X0502Y04555D02*
Y04575D01*
X0499Y04615D02*
X0505D01*
Y04645D01*
X0504Y04655D01*
X05D01*
X0499Y04645D01*
Y04615D01*
X0505Y04675D02*
Y04695D01*
Y04685D01*
X0499D01*
X05Y04675D01*
X0499Y04725D02*
Y04765D01*
X05D01*
X0504Y04725D01*
X0505D01*
X0188Y0257D02*
X0184D01*
Y0259D01*
X018467Y025967D01*
X0186D01*
X018667Y0259D01*
Y0257D01*
Y025834D02*
X0188Y025967D01*
X0184Y0261D02*
X0188D01*
Y026367D01*
Y0265D02*
Y026633D01*
Y026567D01*
X0184D01*
X018467Y0265D01*
Y026833D02*
X0184Y0269D01*
Y027033D01*
X018467Y0271D01*
X018533D01*
X0186Y027033D01*
Y026966D01*
Y027033D01*
X018667Y0271D01*
X018733D01*
X0188Y027033D01*
Y0269D01*
X018733Y026833D01*
X04686Y04006D02*
Y04046D01*
X04706D01*
X047127Y040393D01*
Y04026D01*
X04706Y040193D01*
X04686D01*
X046993D02*
X047127Y04006D01*
X04726Y04046D02*
Y04006D01*
X047526D01*
X04786D02*
Y04046D01*
X04766Y04026D01*
X047926D01*
X03795Y0415D02*
X03785Y0414D01*
Y0412D01*
X03795Y0411D01*
X03835D01*
X03845Y0412D01*
Y0414D01*
X03835Y0415D01*
X03845Y0421D02*
Y0417D01*
X03805Y0421D01*
X03795D01*
X03785Y042D01*
Y0418D01*
X03795Y0417D01*
X041Y041606D02*
X0409Y041506D01*
Y041306D01*
X041Y041206D01*
X0414D01*
X0415Y041306D01*
Y041506D01*
X0414Y041606D01*
X0415Y041806D02*
Y042006D01*
Y041906D01*
X0409D01*
X041Y041806D01*
X039353Y044387D02*
X038953D01*
Y044087D01*
X039153D01*
X038953D01*
Y043787D01*
X039553Y044387D02*
Y043787D01*
X039853D01*
X039953Y043887D01*
Y043987D01*
X039853Y044087D01*
X039553D01*
X039853D01*
X039953Y044187D01*
Y044287D01*
X039853Y044387D01*
X039553D01*
X040153Y043787D02*
X040353D01*
X040253D01*
Y044387D01*
X040153Y044287D01*
X050417Y0308D02*
Y0304D01*
X050617D01*
X050683Y030467D01*
Y030733D01*
X050617Y0308D01*
X050417D01*
X051017Y0304D02*
Y0308D01*
X050817Y0306D01*
X051083D01*
X047017Y02825D02*
Y02865D01*
X047217D01*
X047283Y028583D01*
Y02845D01*
X047217Y028383D01*
X047017D01*
X04715D02*
X047283Y02825D01*
X047683Y02865D02*
X047417D01*
Y02845D01*
X04755Y028517D01*
X047617D01*
X047683Y02845D01*
Y028317D01*
X047617Y02825D01*
X047483D01*
X047417Y028317D01*
X04605Y0308D02*
Y0304D01*
X04625D01*
X046317Y030467D01*
Y030733D01*
X04625Y0308D01*
X04605D01*
X04645Y0304D02*
X046583D01*
X046517D01*
Y0308D01*
X04645Y030733D01*
X04705Y0304D02*
X046783D01*
X04705Y030667D01*
Y030733D01*
X046983Y0308D01*
X04685D01*
X046783Y030733D01*
X04285Y028D02*
Y0284D01*
X04305D01*
X043117Y028333D01*
Y0282D01*
X04305Y028133D01*
X04285D01*
X042983D02*
X043117Y028D01*
X04325D02*
X043383D01*
X043317D01*
Y0284D01*
X04325Y028333D01*
X043583D02*
X04365Y0284D01*
X043783D01*
X04385Y028333D01*
Y028267D01*
X043783Y0282D01*
X043717D01*
X043783D01*
X04385Y028133D01*
Y028067D01*
X043783Y028D01*
X04365D01*
X043583Y028067D01*
X041867Y03115D02*
Y03075D01*
X042067D01*
X042133Y030817D01*
Y031083D01*
X042067Y03115D01*
X041867D01*
X042267Y031083D02*
X042333Y03115D01*
X042467D01*
X042533Y031083D01*
Y031017D01*
X042467Y03095D01*
X0424D01*
X042467D01*
X042533Y030883D01*
Y030817D01*
X042467Y03075D01*
X042333D01*
X042267Y030817D01*
X038767Y0282D02*
Y0286D01*
X038967D01*
X039033Y028533D01*
Y0284D01*
X038967Y028333D01*
X038767D01*
X0389D02*
X039033Y0282D01*
X039367D02*
Y0286D01*
X039167Y0284D01*
X039433D01*
X038067Y03105D02*
Y03065D01*
X038267D01*
X038333Y030717D01*
Y030983D01*
X038267Y03105D01*
X038067D01*
X038467Y03065D02*
X0386D01*
X038533D01*
Y03105D01*
X038467Y030983D01*
X0388Y03065D02*
X038933D01*
X038867D01*
Y03105D01*
X0388Y030983D01*
X03485Y02815D02*
Y02855D01*
X03505D01*
X035117Y028483D01*
Y02835D01*
X03505Y028283D01*
X03485D01*
X034983D02*
X035117Y02815D01*
X03525D02*
X035383D01*
X035317D01*
Y02855D01*
X03525Y028483D01*
X03585Y02815D02*
X035583D01*
X03585Y028417D01*
Y028483D01*
X035783Y02855D01*
X03565D01*
X035583Y028483D01*
X030867Y0282D02*
Y0286D01*
X031067D01*
X031133Y028533D01*
Y0284D01*
X031067Y028333D01*
X030867D01*
X031D02*
X031133Y0282D01*
X031267Y028533D02*
X031333Y0286D01*
X031467D01*
X031533Y028533D01*
Y028467D01*
X031467Y0284D01*
X0314D01*
X031467D01*
X031533Y028333D01*
Y028267D01*
X031467Y0282D01*
X031333D01*
X031267Y028267D01*
X02995Y0309D02*
Y0305D01*
X03015D01*
X030217Y030567D01*
Y030833D01*
X03015Y0309D01*
X02995D01*
X03035Y0305D02*
X030483D01*
X030417D01*
Y0309D01*
X03035Y030833D01*
X030683D02*
X03075Y0309D01*
X030883D01*
X03095Y030833D01*
Y030567D01*
X030883Y0305D01*
X03075D01*
X030683Y030567D01*
Y030833D01*
X0264Y029267D02*
X026D01*
Y029467D01*
X026067Y029533D01*
X0262D01*
X026267Y029467D01*
Y029267D01*
Y0294D02*
X0264Y029533D01*
Y029667D02*
Y0298D01*
Y029733D01*
X026D01*
X026067Y029667D01*
X0264Y03D02*
Y030133D01*
Y030067D01*
X026D01*
X026067Y03D01*
X02725Y02785D02*
Y02745D01*
X027517D01*
X027917Y02785D02*
X02765D01*
Y02745D01*
X027917D01*
X02765Y02765D02*
X027783D01*
X02805Y02785D02*
Y02745D01*
X02825D01*
X028317Y027517D01*
Y027783D01*
X02825Y02785D01*
X02805D01*
X02845Y02745D02*
X028583D01*
X028517D01*
Y02785D01*
X02845Y027783D01*
X028783D02*
X02885Y02785D01*
X028983D01*
X02905Y027783D01*
Y027517D01*
X028983Y02745D01*
X02885D01*
X028783Y027517D01*
Y027783D01*
X018117Y031D02*
Y0306D01*
X018317D01*
X018383Y030667D01*
Y030933D01*
X018317Y031D01*
X018117D01*
X018517Y030667D02*
X018583Y0306D01*
X018717D01*
X018783Y030667D01*
Y030933D01*
X018717Y031D01*
X018583D01*
X018517Y030933D01*
Y030867D01*
X018583Y0308D01*
X018783D01*
X018Y02935D02*
X0176D01*
Y02955D01*
X017667Y029617D01*
X0178D01*
X017867Y02955D01*
Y02935D01*
Y029483D02*
X018Y029617D01*
Y02975D02*
Y029883D01*
Y029817D01*
X0176D01*
X017667Y02975D01*
Y030083D02*
X0176Y03015D01*
Y030283D01*
X017667Y03035D01*
X017933D01*
X018Y030283D01*
Y03015D01*
X017933Y030083D01*
X017667D01*
X031817Y028D02*
Y0276D01*
X032083D01*
X032483Y028D02*
X032217D01*
Y0276D01*
X032483D01*
X032217Y0278D02*
X03235D01*
X032617Y028D02*
Y0276D01*
X032817D01*
X032883Y027667D01*
Y027933D01*
X032817Y028D01*
X032617D01*
X033283Y0276D02*
X033017D01*
X033283Y027867D01*
Y027933D01*
X033216Y028D01*
X033083D01*
X033017Y027933D01*
X035517Y0281D02*
Y0277D01*
X035784D01*
X036183Y0281D02*
X035917D01*
Y0277D01*
X036183D01*
X035917Y0279D02*
X03605D01*
X036317Y0281D02*
Y0277D01*
X036517D01*
X036583Y027767D01*
Y028033D01*
X036517Y0281D01*
X036317D01*
X036717Y0277D02*
X03685D01*
X036783D01*
Y0281D01*
X036717Y028033D01*
X03705Y0277D02*
X037183D01*
X037116D01*
Y0281D01*
X03705Y028033D01*
X040167Y02815D02*
Y02775D01*
X040433D01*
X040833Y02815D02*
X040567D01*
Y02775D01*
X040833D01*
X040567Y02795D02*
X0407D01*
X040967Y02815D02*
Y02775D01*
X041167D01*
X041233Y027817D01*
Y028083D01*
X041167Y02815D01*
X040967D01*
X041367Y028083D02*
X041433Y02815D01*
X041566D01*
X041633Y028083D01*
Y028017D01*
X041566Y02795D01*
X0415D01*
X041566D01*
X041633Y027883D01*
Y027817D01*
X041566Y02775D01*
X041433D01*
X041367Y027817D01*
X04395Y0276D02*
Y0272D01*
X044217D01*
X044617Y0276D02*
X04435D01*
Y0272D01*
X044617D01*
X04435Y0274D02*
X044483D01*
X04475Y0276D02*
Y0272D01*
X04495D01*
X045017Y027267D01*
Y027533D01*
X04495Y0276D01*
X04475D01*
X04515Y0272D02*
X045283D01*
X045217D01*
Y0276D01*
X04515Y027533D01*
X04575Y0272D02*
X045483D01*
X04575Y027467D01*
Y027533D01*
X045683Y0276D01*
X04555D01*
X045483Y027533D01*
X048017Y02785D02*
Y02745D01*
X048283D01*
X048683Y02785D02*
X048417D01*
Y02745D01*
X048683D01*
X048417Y02765D02*
X04855D01*
X048817Y02785D02*
Y02745D01*
X049017D01*
X049083Y027517D01*
Y027783D01*
X049017Y02785D01*
X048817D01*
X049416Y02745D02*
Y02785D01*
X049217Y02765D01*
X049483D01*
X040117Y01355D02*
Y01315D01*
Y01335D01*
X040383D01*
Y01355D01*
Y01315D01*
X040517Y01355D02*
Y01315D01*
X040717D01*
X040783Y013217D01*
Y013483D01*
X040717Y01355D01*
X040517D01*
X041183D02*
X04105Y013483D01*
X040917Y01335D01*
Y013217D01*
X040983Y01315D01*
X041117D01*
X041183Y013217D01*
Y013283D01*
X041117Y01335D01*
X040917D01*
X0386Y017367D02*
X0382D01*
Y017567D01*
X038267Y017633D01*
X0384D01*
X038467Y017567D01*
Y017367D01*
Y0175D02*
X0386Y017633D01*
X038267Y017767D02*
X0382Y017833D01*
Y017967D01*
X038267Y018033D01*
X038333D01*
X0384Y017967D01*
X038467Y018033D01*
X038533D01*
X0386Y017967D01*
Y017833D01*
X038533Y017767D01*
X038467D01*
X0384Y017833D01*
X038333Y017767D01*
X038267D01*
X0384Y017833D02*
Y017967D01*
X042167Y01905D02*
Y01865D01*
X042367D01*
X042433Y018717D01*
Y018983D01*
X042367Y01905D01*
X042167D01*
X042567D02*
X042833D01*
Y018983D01*
X042567Y018717D01*
Y01865D01*
X040367Y01605D02*
Y01565D01*
X040633D01*
X041033Y01605D02*
X040767D01*
Y01565D01*
X041033D01*
X040767Y01585D02*
X0409D01*
X041167Y01605D02*
Y01565D01*
X041367D01*
X041433Y015717D01*
Y015983D01*
X041367Y01605D01*
X041167D01*
X041567D02*
X041833D01*
Y015983D01*
X041567Y015717D01*
Y01565D01*
X0426Y0172D02*
X0422D01*
Y0174D01*
X042267Y017467D01*
X0424D01*
X042467Y0174D01*
Y0172D01*
Y017333D02*
X0426Y017467D01*
Y0176D02*
Y017733D01*
Y017667D01*
X0422D01*
X042267Y0176D01*
X0422Y017933D02*
Y0182D01*
X042267D01*
X042533Y017933D01*
X0426D01*
X04595Y01825D02*
X04635D01*
Y01845D01*
X046283Y018517D01*
X046017D01*
X04595Y01845D01*
Y01825D01*
X04635Y01865D02*
Y018783D01*
Y018717D01*
X04595D01*
X046017Y01865D01*
X04595Y01925D02*
X046017Y019117D01*
X04615Y018983D01*
X046283D01*
X04635Y01905D01*
Y019183D01*
X046283Y01925D01*
X046217D01*
X04615Y019183D01*
Y018983D01*
X0445Y01595D02*
Y01555D01*
X044767D01*
X045167Y01595D02*
X0449D01*
Y01555D01*
X045167D01*
X0449Y01575D02*
X045033D01*
X0453Y01595D02*
Y01555D01*
X0455D01*
X045567Y015617D01*
Y015883D01*
X0455Y01595D01*
X0453D01*
X0457Y01555D02*
X045833D01*
X045767D01*
Y01595D01*
X0457Y015883D01*
X0463Y01595D02*
X046166Y015883D01*
X046033Y01575D01*
Y015617D01*
X0461Y01555D01*
X046233D01*
X0463Y015617D01*
Y015683D01*
X046233Y01575D01*
X046033D01*
X04675Y017317D02*
X04635D01*
Y017517D01*
X046417Y017583D01*
X04655D01*
X046617Y017517D01*
Y017317D01*
Y01745D02*
X04675Y017583D01*
X046683Y017717D02*
X04675Y017783D01*
Y017917D01*
X046683Y017983D01*
X046417D01*
X04635Y017917D01*
Y017783D01*
X046417Y017717D01*
X046483D01*
X04655Y017783D01*
Y017983D01*
X050817Y01955D02*
Y01915D01*
X051017D01*
X051083Y019217D01*
Y019483D01*
X051017Y01955D01*
X050817D01*
X051217Y019483D02*
X051283Y01955D01*
X051417D01*
X051483Y019483D01*
Y019417D01*
X051417Y01935D01*
X051483Y019283D01*
Y019217D01*
X051417Y01915D01*
X051283D01*
X051217Y019217D01*
Y019283D01*
X051283Y01935D01*
X051217Y019417D01*
Y019483D01*
X051283Y01935D02*
X051417D01*
X048117Y01345D02*
Y01305D01*
Y01325D01*
X048383D01*
Y01345D01*
Y01305D01*
X048517Y01345D02*
Y01305D01*
X048717D01*
X048783Y013117D01*
Y013383D01*
X048717Y01345D01*
X048517D01*
X049117Y01305D02*
Y01345D01*
X048917Y01325D01*
X049183D01*
X048967Y0157D02*
Y0153D01*
X049233D01*
X049633Y0157D02*
X049367D01*
Y0153D01*
X049633D01*
X049367Y0155D02*
X0495D01*
X049767Y0157D02*
Y0153D01*
X049967D01*
X050033Y015367D01*
Y015633D01*
X049967Y0157D01*
X049767D01*
X050167Y015633D02*
X050233Y0157D01*
X050366D01*
X050433Y015633D01*
Y015567D01*
X050366Y0155D01*
X050433Y015433D01*
Y015367D01*
X050366Y0153D01*
X050233D01*
X050167Y015367D01*
Y015433D01*
X050233Y0155D01*
X050167Y015567D01*
Y015633D01*
X050233Y0155D02*
X050366D01*
X0377Y018D02*
X0381D01*
Y0182D01*
X038033Y018267D01*
X037767D01*
X0377Y0182D01*
Y018D01*
X0381Y0184D02*
Y018533D01*
Y018467D01*
X0377D01*
X037767Y0184D01*
X0377Y019D02*
Y018733D01*
X0379D01*
X037833Y018867D01*
Y018933D01*
X0379Y019D01*
X038033D01*
X0381Y018933D01*
Y0188D01*
X038033Y018733D01*
X0344Y01695D02*
X034D01*
Y01715D01*
X034067Y017217D01*
X0342D01*
X034267Y01715D01*
Y01695D01*
Y017083D02*
X0344Y017217D01*
Y01735D02*
Y017483D01*
Y017417D01*
X034D01*
X034067Y01735D01*
X034Y01795D02*
X034067Y017817D01*
X0342Y017683D01*
X034333D01*
X0344Y01775D01*
Y017883D01*
X034333Y01795D01*
X034267D01*
X0342Y017883D01*
Y017683D01*
X03655Y0159D02*
Y0155D01*
X036817D01*
X037217Y0159D02*
X03695D01*
Y0155D01*
X037217D01*
X03695Y0157D02*
X037083D01*
X03735Y0159D02*
Y0155D01*
X03755D01*
X037617Y015567D01*
Y015833D01*
X03755Y0159D01*
X03735D01*
X03775Y0155D02*
X037883D01*
X037817D01*
Y0159D01*
X03775Y015833D01*
X03835Y0159D02*
X038083D01*
Y0157D01*
X038216Y015767D01*
X038283D01*
X03835Y0157D01*
Y015567D01*
X038283Y0155D01*
X03815D01*
X038083Y015567D01*
X03065Y017317D02*
X03025D01*
Y017517D01*
X030317Y017583D01*
X03045D01*
X030517Y017517D01*
Y017317D01*
Y01745D02*
X03065Y017583D01*
X03025Y017717D02*
Y017983D01*
X030317D01*
X030583Y017717D01*
X03065D01*
X03395Y018417D02*
X03435D01*
Y018617D01*
X034283Y018683D01*
X034017D01*
X03395Y018617D01*
Y018417D01*
Y019083D02*
X034017Y01895D01*
X03415Y018817D01*
X034283D01*
X03435Y018883D01*
Y019017D01*
X034283Y019083D01*
X034217D01*
X03415Y019017D01*
Y018817D01*
X031817Y0134D02*
Y013D01*
Y0132D01*
X032083D01*
Y0134D01*
Y013D01*
X032217Y0134D02*
Y013D01*
X032417D01*
X032483Y013067D01*
Y013333D01*
X032417Y0134D01*
X032217D01*
X032617Y013333D02*
X032683Y0134D01*
X032817D01*
X032883Y013333D01*
Y013267D01*
X032817Y0132D01*
X03275D01*
X032817D01*
X032883Y013133D01*
Y013067D01*
X032817Y013D01*
X032683D01*
X032617Y013067D01*
X032217Y0161D02*
Y0157D01*
X032483D01*
X032883Y0161D02*
X032617D01*
Y0157D01*
X032883D01*
X032617Y0159D02*
X03275D01*
X033017Y0161D02*
Y0157D01*
X033217D01*
X033283Y015767D01*
Y016033D01*
X033217Y0161D01*
X033017D01*
X033683D02*
X03355Y016033D01*
X033417Y0159D01*
Y015767D01*
X033483Y0157D01*
X033616D01*
X033683Y015767D01*
Y015833D01*
X033616Y0159D01*
X033417D01*
X0299Y0182D02*
X0303D01*
Y0184D01*
X030233Y018467D01*
X029967D01*
X0299Y0184D01*
Y0182D01*
X0303Y0186D02*
Y018733D01*
Y018667D01*
X0299D01*
X029967Y0186D01*
X0303Y019133D02*
X0299D01*
X0301Y018933D01*
Y0192D01*
X02635Y0173D02*
X02595D01*
Y0175D01*
X026017Y017567D01*
X02615D01*
X026217Y0175D01*
Y0173D01*
Y017433D02*
X02635Y017567D01*
Y0177D02*
Y017833D01*
Y017767D01*
X02595D01*
X026017Y0177D01*
X02595Y0183D02*
Y018033D01*
X02615D01*
X026083Y018167D01*
Y018233D01*
X02615Y0183D01*
X026283D01*
X02635Y018233D01*
Y0181D01*
X026283Y018033D01*
X028Y0161D02*
Y0157D01*
X028267D01*
X028667Y0161D02*
X0284D01*
Y0157D01*
X028667D01*
X0284Y0159D02*
X028533D01*
X0288Y0161D02*
Y0157D01*
X029D01*
X029067Y015767D01*
Y016033D01*
X029Y0161D01*
X0288D01*
X0292Y0157D02*
X029333D01*
X029267D01*
Y0161D01*
X0292Y016033D01*
X029733Y0157D02*
Y0161D01*
X029533Y0159D01*
X0298D01*
X025267Y01885D02*
Y01845D01*
X025467D01*
X025533Y018517D01*
Y018783D01*
X025467Y01885D01*
X025267D01*
X025933D02*
X025667D01*
Y01865D01*
X0258Y018717D01*
X025867D01*
X025933Y01865D01*
Y018517D01*
X025867Y01845D01*
X025733D01*
X025667Y018517D01*
X0223Y018917D02*
X0219D01*
Y019117D01*
X021967Y019183D01*
X0221D01*
X022167Y019117D01*
Y018917D01*
Y01905D02*
X0223Y019183D01*
X0219Y019583D02*
X021967Y01945D01*
X0221Y019317D01*
X022233D01*
X0223Y019383D01*
Y019517D01*
X022233Y019583D01*
X022167D01*
X0221Y019517D01*
Y019317D01*
X024017Y0135D02*
Y0131D01*
Y0133D01*
X024283D01*
Y0135D01*
Y0131D01*
X024417Y0135D02*
Y0131D01*
X024617D01*
X024683Y013167D01*
Y013433D01*
X024617Y0135D01*
X024417D01*
X025083D02*
X024817D01*
Y0133D01*
X02495Y013367D01*
X025017D01*
X025083Y0133D01*
Y013167D01*
X025017Y0131D01*
X024883D01*
X024817Y013167D01*
X020025Y027924D02*
Y027524D01*
X020292D01*
X020692Y027924D02*
X020425D01*
Y027524D01*
X020692D01*
X020425Y027724D02*
X020559D01*
X020825Y027924D02*
Y027524D01*
X021025D01*
X021092Y027591D01*
Y027857D01*
X021025Y027924D01*
X020825D01*
X021225Y027591D02*
X021292Y027524D01*
X021425D01*
X021492Y027591D01*
Y027857D01*
X021425Y027924D01*
X021292D01*
X021225Y027857D01*
Y027791D01*
X021292Y027724D01*
X021492D01*
X022017Y0283D02*
Y0287D01*
X022217D01*
X022283Y028633D01*
Y0285D01*
X022217Y028433D01*
X022017D01*
X02215D02*
X022283Y0283D01*
X022683D02*
X022417D01*
X022683Y028567D01*
Y028633D01*
X022617Y0287D01*
X022483D01*
X022417Y028633D01*
X023634Y02805D02*
Y02765D01*
X0239D01*
X0243Y02805D02*
X024033D01*
Y02765D01*
X0243D01*
X024033Y02785D02*
X024167D01*
X024433Y02805D02*
Y02765D01*
X024633D01*
X0247Y027717D01*
Y027983D01*
X024633Y02805D01*
X024433D01*
X024833Y02765D02*
X024966D01*
X0249D01*
Y02805D01*
X024833Y027983D01*
X0228Y026067D02*
X0224D01*
Y026267D01*
X022466Y026333D01*
X0226D01*
X022666Y026267D01*
Y026067D01*
Y0262D02*
X0228Y026333D01*
X0224Y026467D02*
X0228D01*
Y026733D01*
X0224Y027133D02*
Y026867D01*
X0226D01*
X022533Y027D01*
Y027067D01*
X0226Y027133D01*
X022733D01*
X0228Y027067D01*
Y026933D01*
X022733Y026867D01*
X02715Y02585D02*
X02675D01*
Y02605D01*
X026817Y026117D01*
X02695D01*
X027017Y02605D01*
Y02585D01*
Y025984D02*
X02715Y026117D01*
X02675Y02625D02*
X02715D01*
Y026517D01*
Y02665D02*
Y026783D01*
Y026717D01*
X02675D01*
X026817Y02665D01*
X02715Y027183D02*
X02675D01*
X02695Y026983D01*
Y02725D01*
X0313Y026017D02*
X0309D01*
Y026217D01*
X030967Y026283D01*
X0311D01*
X031167Y026217D01*
Y026017D01*
Y02615D02*
X0313Y026283D01*
X0309Y026417D02*
X0313D01*
Y026683D01*
X0309Y027083D02*
X030967Y02695D01*
X0311Y026817D01*
X031233D01*
X0313Y026883D01*
Y027017D01*
X031233Y027083D01*
X031167D01*
X0311Y027017D01*
Y026817D01*
X03515Y02575D02*
X03475D01*
Y02595D01*
X034817Y026017D01*
X03495D01*
X035017Y02595D01*
Y02575D01*
Y025884D02*
X03515Y026017D01*
X03475Y02615D02*
X03515D01*
Y026417D01*
Y02655D02*
Y026683D01*
Y026617D01*
X03475D01*
X034817Y02655D01*
X03475Y02715D02*
Y026883D01*
X03495D01*
X034883Y027016D01*
Y027083D01*
X03495Y02715D01*
X035083D01*
X03515Y027083D01*
Y02695D01*
X035083Y026883D01*
X0393Y026167D02*
X0389D01*
Y026367D01*
X038967Y026433D01*
X0391D01*
X039167Y026367D01*
Y026167D01*
Y0263D02*
X0393Y026433D01*
X0389Y026567D02*
X0393D01*
Y026833D01*
X0389Y026967D02*
Y027233D01*
X038967D01*
X039233Y026967D01*
X0393D01*
X0475Y026217D02*
X0471D01*
Y026417D01*
X047167Y026483D01*
X0473D01*
X047367Y026417D01*
Y026217D01*
Y02635D02*
X0475Y026483D01*
X0471Y026617D02*
X0475D01*
Y026883D01*
X047167Y027017D02*
X0471Y027083D01*
Y027217D01*
X047167Y027283D01*
X047233D01*
X0473Y027217D01*
X047367Y027283D01*
X047433D01*
X0475Y027217D01*
Y027083D01*
X047433Y027017D01*
X047367D01*
X0473Y027083D01*
X047233Y027017D01*
X047167D01*
X0473Y027083D02*
Y027217D01*
X04335Y0258D02*
X04295D01*
Y026D01*
X043017Y026067D01*
X04315D01*
X043217Y026D01*
Y0258D01*
Y025934D02*
X04335Y026067D01*
X04295Y0262D02*
X04335D01*
Y026467D01*
Y0266D02*
Y026733D01*
Y026667D01*
X04295D01*
X043017Y0266D01*
X04295Y0272D02*
X043017Y027066D01*
X04315Y026933D01*
X043283D01*
X04335Y027D01*
Y027133D01*
X043283Y0272D01*
X043217D01*
X04315Y027133D01*
Y026933D01*
X033917Y03095D02*
Y03055D01*
X034117D01*
X034183Y030617D01*
Y030883D01*
X034117Y03095D01*
X033917D01*
X034583Y03055D02*
X034317D01*
X034583Y030817D01*
Y030883D01*
X034517Y03095D01*
X034383D01*
X034317Y030883D01*
X016567Y0134D02*
Y013D01*
Y0132D01*
X016833D01*
Y0134D01*
Y013D01*
X016967Y0134D02*
Y013D01*
X017167D01*
X017233Y013067D01*
Y013333D01*
X017167Y0134D01*
X016967D01*
X017633Y013D02*
X017367D01*
X017633Y013267D01*
Y013333D01*
X017567Y0134D01*
X017433D01*
X017367Y013333D01*
X025483Y0309D02*
Y0305D01*
X025683D01*
X02575Y030567D01*
Y030833D01*
X025683Y0309D01*
X025483D01*
X025883Y0305D02*
X026017D01*
X02595D01*
Y0309D01*
X025883Y030833D01*
X04149Y04876D02*
Y04836D01*
Y04856D01*
X041757D01*
Y04876D01*
Y04836D01*
X04189Y04876D02*
Y04836D01*
X04209D01*
X042156Y048427D01*
Y048693D01*
X04209Y04876D01*
X04189D01*
X04229Y04836D02*
X042423D01*
X042356D01*
Y04876D01*
X04229Y048693D01*
X029777Y04882D02*
X029643D01*
X02971D01*
Y048487D01*
X029643Y04842D01*
X029577D01*
X02951Y048487D01*
X02991Y04842D02*
X030043D01*
X029977D01*
Y04882D01*
X02991Y048753D01*
X04841Y04569D02*
Y04609D01*
X04861D01*
X048677Y046023D01*
Y04589D01*
X04861Y045823D01*
X04841D01*
X048543D02*
X048677Y04569D01*
X04881D02*
X048943D01*
X048877D01*
Y04609D01*
X04881Y046023D01*
X038927Y04768D02*
X038793D01*
X03886D01*
Y047347D01*
X038793Y04728D01*
X038727D01*
X03866Y047347D01*
X039326Y04728D02*
X03906D01*
X039326Y047547D01*
Y047613D01*
X03926Y04768D01*
X039127D01*
X03906Y047613D01*
X03866Y04006D02*
Y04046D01*
X03886D01*
X038927Y040393D01*
Y04026D01*
X03886Y040193D01*
X03866D01*
X038793D02*
X038927Y04006D01*
X03906Y04046D02*
Y04006D01*
X039326D01*
X03946Y040393D02*
X039526Y04046D01*
X03966D01*
X039726Y040393D01*
Y040327D01*
X03966Y04026D01*
X039593D01*
X03966D01*
X039726Y040193D01*
Y040127D01*
X03966Y04006D01*
X039526D01*
X03946Y040127D01*
X03072Y04006D02*
Y04046D01*
X03092D01*
X030987Y040393D01*
Y04026D01*
X03092Y040193D01*
X03072D01*
X030853D02*
X030987Y04006D01*
X03112Y04046D02*
Y04006D01*
X031386D01*
X031786D02*
X03152D01*
X031786Y040327D01*
Y040393D01*
X03172Y04046D01*
X031586D01*
X03152Y040393D01*
X02216Y04006D02*
Y04046D01*
X02236D01*
X022427Y040393D01*
Y04026D01*
X02236Y040193D01*
X02216D01*
X022293D02*
X022427Y04006D01*
X02256Y04046D02*
Y04006D01*
X022826D01*
X02296D02*
X023093D01*
X023026D01*
Y04046D01*
X02296Y040393D01*
X04272Y04006D02*
Y04046D01*
X04292D01*
X042987Y040393D01*
Y04026D01*
X04292Y040193D01*
X04272D01*
X042853D02*
X042987Y04006D01*
X04312Y04046D02*
Y04006D01*
X043386D01*
X04352D02*
X043653D01*
X043586D01*
Y04046D01*
X04352Y040393D01*
X04412Y04006D02*
X043853D01*
X04412Y040327D01*
Y040393D01*
X044053Y04046D01*
X04392D01*
X043853Y040393D01*
X03462Y04006D02*
Y04046D01*
X03482D01*
X034887Y040393D01*
Y04026D01*
X03482Y040193D01*
X03462D01*
X034753D02*
X034887Y04006D01*
X03502Y04046D02*
Y04006D01*
X035286D01*
X03542D02*
X035553D01*
X035486D01*
Y04046D01*
X03542Y040393D01*
X035753Y04006D02*
X035886D01*
X03582D01*
Y04046D01*
X035753Y040393D01*
X02656Y04006D02*
Y04046D01*
X02676D01*
X026827Y040393D01*
Y04026D01*
X02676Y040193D01*
X02656D01*
X026693D02*
X026827Y04006D01*
X02696Y04046D02*
Y04006D01*
X027226D01*
X02736D02*
X027493D01*
X027426D01*
Y04046D01*
X02736Y040393D01*
X027693D02*
X02776Y04046D01*
X027893D01*
X02796Y040393D01*
Y040127D01*
X027893Y04006D01*
X02776D01*
X027693Y040127D01*
Y040393D01*
X01806Y04006D02*
Y04046D01*
X01826D01*
X018327Y040393D01*
Y04026D01*
X01826Y040193D01*
X01806D01*
X018193D02*
X018327Y04006D01*
X01846Y04046D02*
Y04006D01*
X018726D01*
X01886Y040127D02*
X018926Y04006D01*
X01906D01*
X019126Y040127D01*
Y040393D01*
X01906Y04046D01*
X018926D01*
X01886Y040393D01*
Y040327D01*
X018926Y04026D01*
X019126D01*
M02*
