G04*
G04 #@! TF.GenerationSoftware,Altium Limited,Altium Designer,20.1.12 (249)*
G04*
G04 Layer_Color=2752767*
%FSTAX24Y24*%
%MOIN*%
G70*
G04*
G04 #@! TF.SameCoordinates,3ECB986E-075F-4DB5-9EE9-704FFB054EE1*
G04*
G04*
G04 #@! TF.FilePolarity,Positive*
G04*
G01*
G75*
%ADD58C,0.0020*%
%ADD59C,0.0027*%
%ADD60C,0.0013*%
D58*
X04877Y04697D02*
Y04713D01*
X04893D01*
Y04697D01*
X04877D01*
Y04597D02*
Y04613D01*
X04893D01*
Y04597D01*
X04877D01*
X04885Y04477D02*
X04877Y04493D01*
X04893D01*
X04885Y04477D01*
Y04332D02*
X04877Y04348D01*
X04893D01*
X04885Y04332D01*
X0519Y04527D02*
X05194Y04531D01*
X05198D01*
X05194Y04535D01*
X05198Y04539D01*
X05194D01*
X0519Y04543D01*
X05186Y04539D01*
X05182D01*
X05186Y04535D01*
X05182Y04531D01*
X05186D01*
X0519Y04527D01*
X01635D02*
X01639Y04531D01*
X01643D01*
X01639Y04535D01*
X01643Y04539D01*
X01639D01*
X01635Y04543D01*
X01631Y04539D01*
X01627D01*
X01631Y04535D01*
X01627Y04531D01*
X01631D01*
X01635Y04527D01*
X0519Y01777D02*
X05194Y01781D01*
X05198D01*
X05194Y01785D01*
X05198Y01789D01*
X05194D01*
X0519Y01793D01*
X05186Y01789D01*
X05182D01*
X05186Y01785D01*
X05182Y01781D01*
X05186D01*
X0519Y01777D01*
X01635D02*
X01639Y01781D01*
X01643D01*
X01639Y01785D01*
X01643Y01789D01*
X01639D01*
X01635Y01793D01*
X01631Y01789D01*
X01627D01*
X01631Y01785D01*
X01627Y01781D01*
X01631D01*
X01635Y01777D01*
X0431Y01697D02*
X04302Y01713D01*
X04318D01*
X0431Y01697D01*
Y01842D02*
X04302Y01858D01*
X04318D01*
X0431Y01842D01*
X03505Y01672D02*
X03497Y01688D01*
X03513D01*
X03505Y01672D01*
Y01817D02*
X03497Y01833D01*
X03513D01*
X03505Y01817D01*
X02695Y01692D02*
X02687Y01708D01*
X02703D01*
X02695Y01692D01*
Y01837D02*
X02687Y01853D01*
X02703D01*
X02695Y01837D01*
X01865Y01697D02*
X01857Y01713D01*
X01873D01*
X01865Y01697D01*
Y01842D02*
X01857Y01858D01*
X01873D01*
X01865Y01842D01*
X0431Y02882D02*
X04302Y02898D01*
X04318D01*
X0431Y02882D01*
Y03027D02*
X04302Y03043D01*
X04318D01*
X0431Y03027D01*
X03505Y02882D02*
X03497Y02898D01*
X03513D01*
X03505Y02882D01*
Y03027D02*
X03497Y03043D01*
X03513D01*
X03505Y03027D01*
X0269Y02897D02*
X02682Y02913D01*
X02698D01*
X0269Y02897D01*
Y03042D02*
X02682Y03058D01*
X02698D01*
X0269Y03042D01*
X0185Y02897D02*
X01842Y02913D01*
X01858D01*
X0185Y02897D01*
Y03042D02*
X01842Y03058D01*
X01858D01*
X0185Y03042D01*
X0473Y01692D02*
X04722Y01708D01*
X04738D01*
X0473Y01692D01*
Y01837D02*
X04722Y01853D01*
X04738D01*
X0473Y01837D01*
X0391Y01697D02*
X03902Y01713D01*
X03918D01*
X0391Y01697D01*
Y01842D02*
X03902Y01858D01*
X03918D01*
X0391Y01842D01*
X03115Y01687D02*
X03107Y01703D01*
X03123D01*
X03115Y01687D01*
Y01832D02*
X03107Y01848D01*
X03123D01*
X03115Y01832D01*
X0473Y02892D02*
X04722Y02908D01*
X04738D01*
X0473Y02892D01*
Y03037D02*
X04722Y03053D01*
X04738D01*
X0473Y03037D01*
X039Y02892D02*
X03892Y02908D01*
X03908D01*
X039Y02892D01*
Y03037D02*
X03892Y03053D01*
X03908D01*
X039Y03037D01*
X03105Y02887D02*
X03097Y02903D01*
X03113D01*
X03105Y02887D01*
Y03032D02*
X03097Y03048D01*
X03113D01*
X03105Y03032D01*
X0226Y01707D02*
X02252Y01723D01*
X02268D01*
X0226Y01707D01*
Y01852D02*
X02252Y01868D01*
X02268D01*
X0226Y01852D01*
X0225Y02907D02*
X02242Y02923D01*
X02258D01*
X0225Y02907D01*
Y03052D02*
X02242Y03068D01*
X02258D01*
X0225Y03052D01*
X04927Y03062D02*
X04931Y0307D01*
X04927Y03078D01*
X04935Y03074D01*
X04943Y03078D01*
X04939Y0307D01*
X04943Y03062D01*
X04935Y03066D01*
X04927Y03062D01*
X04822Y03057D02*
X04826Y03065D01*
X04822Y03073D01*
X0483Y03069D01*
X04838Y03073D01*
X04834Y03065D01*
X04838Y03057D01*
X0483Y03061D01*
X04822Y03057D01*
X04512D02*
X04516Y03065D01*
X04512Y03073D01*
X0452Y03069D01*
X04528Y03073D01*
X04524Y03065D01*
X04528Y03057D01*
X0452Y03061D01*
X04512Y03057D01*
X04407Y03052D02*
X04411Y0306D01*
X04407Y03068D01*
X04415Y03064D01*
X04423Y03068D01*
X04419Y0306D01*
X04423Y03052D01*
X04415Y03056D01*
X04407Y03052D01*
X04097Y03067D02*
X04101Y03075D01*
X04097Y03083D01*
X04105Y03079D01*
X04113Y03083D01*
X04109Y03075D01*
X04113Y03067D01*
X04105Y03071D01*
X04097Y03067D01*
X03992Y03062D02*
X03996Y0307D01*
X03992Y03078D01*
X04Y03074D01*
X04008Y03078D01*
X04004Y0307D01*
X04008Y03062D01*
X04Y03066D01*
X03992Y03062D01*
X03697Y03067D02*
X03701Y03075D01*
X03697Y03083D01*
X03705Y03079D01*
X03713Y03083D01*
X03709Y03075D01*
X03713Y03067D01*
X03705Y03071D01*
X03697Y03067D01*
X03592Y03062D02*
X03596Y0307D01*
X03592Y03078D01*
X036Y03074D01*
X03608Y03078D01*
X03604Y0307D01*
X03608Y03062D01*
X036Y03066D01*
X03592Y03062D01*
X02897Y03067D02*
X02901Y03075D01*
X02897Y03083D01*
X02905Y03079D01*
X02913Y03083D01*
X02909Y03075D01*
X02913Y03067D01*
X02905Y03071D01*
X02897Y03067D01*
X02792Y03062D02*
X02796Y0307D01*
X02792Y03078D01*
X028Y03074D01*
X02808Y03078D01*
X02804Y0307D01*
X02808Y03062D01*
X028Y03066D01*
X02792Y03062D01*
X02907Y02887D02*
Y02903D01*
X02923D01*
Y02887D01*
X02907D01*
X02807D02*
Y02903D01*
X02823D01*
Y02887D01*
X02807D01*
X02047Y03067D02*
X02051Y03075D01*
X02047Y03083D01*
X02055Y03079D01*
X02063Y03083D01*
X02059Y03075D01*
X02063Y03067D01*
X02055Y03071D01*
X02047Y03067D01*
X01942Y03062D02*
X01946Y0307D01*
X01942Y03078D01*
X0195Y03074D01*
X01958Y03078D01*
X01954Y0307D01*
X01958Y03062D01*
X0195Y03066D01*
X01942Y03062D01*
X03327Y02887D02*
Y02903D01*
X03343D01*
Y02887D01*
X03327D01*
X03227D02*
Y02903D01*
X03243D01*
Y02887D01*
X03227D01*
X03737Y02902D02*
Y02918D01*
X03753D01*
Y02902D01*
X03737D01*
X03637D02*
Y02918D01*
X03653D01*
Y02902D01*
X03637D01*
X04117D02*
Y02918D01*
X04133D01*
Y02902D01*
X04117D01*
X04017D02*
Y02918D01*
X04033D01*
Y02902D01*
X04017D01*
X04552Y02882D02*
Y02898D01*
X04568D01*
Y02882D01*
X04552D01*
X04452D02*
Y02898D01*
X04468D01*
Y02882D01*
X04452D01*
X04977Y02887D02*
Y02903D01*
X04993D01*
Y02887D01*
X04977D01*
X04877D02*
Y02903D01*
X04893D01*
Y02887D01*
X04877D01*
X04036Y01456D02*
Y01452D01*
X04044D01*
Y01456D01*
X04048D01*
Y01464D01*
X04044D01*
Y01468D01*
X04036D01*
Y01464D01*
X04032D01*
Y01456D01*
X04036D01*
X046364Y014564D02*
Y014524D01*
X046444D01*
Y014564D01*
X046484D01*
Y014644D01*
X046444D01*
Y014684D01*
X046364D01*
Y014644D01*
X046324D01*
Y014564D01*
X046364D01*
X044361Y014561D02*
Y014521D01*
X044441D01*
Y014561D01*
X044481D01*
Y014641D01*
X044441D01*
Y014681D01*
X044361D01*
Y014641D01*
X044321D01*
Y014561D01*
X044361D01*
X04236Y01456D02*
Y01452D01*
X04244D01*
Y01456D01*
X04248D01*
Y01464D01*
X04244D01*
Y01468D01*
X04236D01*
Y01464D01*
X04232D01*
Y01456D01*
X04236D01*
X04112Y01852D02*
X04116Y0186D01*
X04112Y01868D01*
X0412Y01864D01*
X04128Y01868D01*
X04124Y0186D01*
X04128Y01852D01*
X0412Y01856D01*
X04112Y01852D01*
X04007Y01847D02*
X04011Y01855D01*
X04007Y01863D01*
X04015Y01859D01*
X04023Y01863D01*
X04019Y01855D01*
X04023Y01847D01*
X04015Y01851D01*
X04007Y01847D01*
X04132Y01692D02*
Y01708D01*
X04148D01*
Y01692D01*
X04132D01*
X04032D02*
Y01708D01*
X04048D01*
Y01692D01*
X04032D01*
X04512Y01852D02*
X04516Y0186D01*
X04512Y01868D01*
X0452Y01864D01*
X04528Y01868D01*
X04524Y0186D01*
X04528Y01852D01*
X0452Y01856D01*
X04512Y01852D01*
X04407Y01847D02*
X04411Y01855D01*
X04407Y01863D01*
X04415Y01859D01*
X04423Y01863D01*
X04419Y01855D01*
X04423Y01847D01*
X04415Y01851D01*
X04407Y01847D01*
X04527Y01692D02*
Y01708D01*
X04543D01*
Y01692D01*
X04527D01*
X04427D02*
Y01708D01*
X04443D01*
Y01692D01*
X04427D01*
X04932Y01857D02*
X04936Y01865D01*
X04932Y01873D01*
X0494Y01869D01*
X04948Y01873D01*
X04944Y01865D01*
X04948Y01857D01*
X0494Y01861D01*
X04932Y01857D01*
X04827Y01852D02*
X04831Y0186D01*
X04827Y01868D01*
X04835Y01864D01*
X04843Y01868D01*
X04839Y0186D01*
X04843Y01852D01*
X04835Y01856D01*
X04827Y01852D01*
X05032Y01452D02*
X05036D01*
X0504Y01456D01*
X05044Y01452D01*
X05048D01*
Y01456D01*
X05044Y0146D01*
X05048Y01464D01*
Y01468D01*
X05044D01*
X0504Y01464D01*
X05036Y01468D01*
X05032D01*
Y01464D01*
X05036Y0146D01*
X05032Y01456D01*
Y01452D01*
X04832D02*
X04836D01*
X0484Y01456D01*
X04844Y01452D01*
X04848D01*
Y01456D01*
X04844Y0146D01*
X04848Y01464D01*
Y01468D01*
X04844D01*
X0484Y01464D01*
X04836Y01468D01*
X04832D01*
Y01464D01*
X04836Y0146D01*
X04832Y01456D01*
Y01452D01*
X052346Y014546D02*
X052386D01*
X052426Y014586D01*
X052466Y014546D01*
X052506D01*
Y014586D01*
X052466Y014626D01*
X052506Y014666D01*
Y014706D01*
X052466D01*
X052426Y014666D01*
X052386Y014706D01*
X052346D01*
Y014666D01*
X052386Y014626D01*
X052346Y014586D01*
Y014546D01*
X04967Y01692D02*
Y01708D01*
X04983D01*
Y01692D01*
X04967D01*
X04867D02*
Y01708D01*
X04883D01*
Y01692D01*
X04867D01*
X03697Y01837D02*
X03701Y01845D01*
X03697Y01853D01*
X03705Y01849D01*
X03713Y01853D01*
X03709Y01845D01*
X03713Y01837D01*
X03705Y01841D01*
X03697Y01837D01*
X03592Y01832D02*
X03596Y0184D01*
X03592Y01848D01*
X036Y01844D01*
X03608Y01848D01*
X03604Y0184D01*
X03608Y01832D01*
X036Y01836D01*
X03592Y01832D01*
X03717Y01692D02*
Y01708D01*
X03733D01*
Y01692D01*
X03717D01*
X03617D02*
Y01708D01*
X03633D01*
Y01692D01*
X03617D01*
X03317Y01847D02*
X03321Y01855D01*
X03317Y01863D01*
X03325Y01859D01*
X03333Y01863D01*
X03329Y01855D01*
X03333Y01847D01*
X03325Y01851D01*
X03317Y01847D01*
X03212Y01842D02*
X03216Y0185D01*
X03212Y01858D01*
X0322Y01854D01*
X03228Y01858D01*
X03224Y0185D01*
X03228Y01842D01*
X0322Y01846D01*
X03212Y01842D01*
X03236Y01456D02*
Y01452D01*
X03244D01*
Y01456D01*
X03248D01*
Y01464D01*
X03244D01*
Y01468D01*
X03236D01*
Y01464D01*
X03232D01*
Y01456D01*
X03236D01*
X038364Y014564D02*
Y014524D01*
X038444D01*
Y014564D01*
X038484D01*
Y014644D01*
X038444D01*
Y014684D01*
X038364D01*
Y014644D01*
X038324D01*
Y014564D01*
X038364D01*
X036361Y014561D02*
Y014521D01*
X036441D01*
Y014561D01*
X036481D01*
Y014641D01*
X036441D01*
Y014681D01*
X036361D01*
Y014641D01*
X036321D01*
Y014561D01*
X036361D01*
X03436Y01456D02*
Y01452D01*
X03444D01*
Y01456D01*
X03448D01*
Y01464D01*
X03444D01*
Y01468D01*
X03436D01*
Y01464D01*
X03432D01*
Y01456D01*
X03436D01*
X03327Y01692D02*
Y01708D01*
X03343D01*
Y01692D01*
X03327D01*
X03227D02*
Y01708D01*
X03243D01*
Y01692D01*
X03227D01*
X02902Y01852D02*
X02906Y0186D01*
X02902Y01868D01*
X0291Y01864D01*
X02918Y01868D01*
X02914Y0186D01*
X02918Y01852D01*
X0291Y01856D01*
X02902Y01852D01*
X02797Y01847D02*
X02801Y01855D01*
X02797Y01863D01*
X02805Y01859D01*
X02813Y01863D01*
X02809Y01855D01*
X02813Y01847D01*
X02805Y01851D01*
X02797Y01847D01*
X02927Y01692D02*
Y01708D01*
X02943D01*
Y01692D01*
X02927D01*
X02827D02*
Y01708D01*
X02843D01*
Y01692D01*
X02827D01*
X02452Y01852D02*
X02456Y0186D01*
X02452Y01868D01*
X0246Y01864D01*
X02468Y01868D01*
X02464Y0186D01*
X02468Y01852D01*
X0246Y01856D01*
X02452Y01852D01*
X02347Y01847D02*
X02351Y01855D01*
X02347Y01863D01*
X02355Y01859D01*
X02363Y01863D01*
X02359Y01855D01*
X02363Y01847D01*
X02355Y01851D01*
X02347Y01847D01*
X024359Y014559D02*
Y014519D01*
X024439D01*
Y014559D01*
X024479D01*
Y014639D01*
X024439D01*
Y014679D01*
X024359D01*
Y014639D01*
X024319D01*
Y014559D01*
X024359D01*
X030363Y014563D02*
Y014523D01*
X030443D01*
Y014563D01*
X030483D01*
Y014643D01*
X030443D01*
Y014683D01*
X030363D01*
Y014643D01*
X030323D01*
Y014563D01*
X030363D01*
X02836Y01456D02*
Y01452D01*
X02844D01*
Y01456D01*
X02848D01*
Y01464D01*
X02844D01*
Y01468D01*
X02836D01*
Y01464D01*
X02832D01*
Y01456D01*
X02836D01*
X026359Y014559D02*
Y014519D01*
X026439D01*
Y014559D01*
X026479D01*
Y014639D01*
X026439D01*
Y014679D01*
X026359D01*
Y014639D01*
X026319D01*
Y014559D01*
X026359D01*
X02482Y01692D02*
Y01708D01*
X02498D01*
Y01692D01*
X02482D01*
X02382D02*
Y01708D01*
X02398D01*
Y01692D01*
X02382D01*
X02057Y01852D02*
X02061Y0186D01*
X02057Y01868D01*
X02065Y01864D01*
X02073Y01868D01*
X02069Y0186D01*
X02073Y01852D01*
X02065Y01856D01*
X02057Y01852D01*
X01952Y01847D02*
X01956Y01855D01*
X01952Y01863D01*
X0196Y01859D01*
X01968Y01863D01*
X01964Y01855D01*
X01968Y01847D01*
X0196Y01851D01*
X01952Y01847D01*
X02092Y01692D02*
Y01708D01*
X02108D01*
Y01692D01*
X02092D01*
X01992D02*
Y01708D01*
X02008D01*
Y01692D01*
X01992D01*
X02067Y02902D02*
Y02918D01*
X02083D01*
Y02902D01*
X02067D01*
X01967D02*
Y02918D01*
X01983D01*
Y02902D01*
X01967D01*
X02457Y02907D02*
Y02923D01*
X02473D01*
Y02907D01*
X02457D01*
X02357D02*
Y02923D01*
X02373D01*
Y02907D01*
X02357D01*
X03302Y03062D02*
X03306Y0307D01*
X03302Y03078D01*
X0331Y03074D01*
X03318Y03078D01*
X03314Y0307D01*
X03318Y03062D01*
X0331Y03066D01*
X03302Y03062D01*
X03197Y03057D02*
X03201Y03065D01*
X03197Y03073D01*
X03205Y03069D01*
X03213Y03073D01*
X03209Y03065D01*
X03213Y03057D01*
X03205Y03061D01*
X03197Y03057D01*
X016359Y014559D02*
Y014519D01*
X016439D01*
Y014559D01*
X016479D01*
Y014639D01*
X016439D01*
Y014679D01*
X016359D01*
Y014639D01*
X016319D01*
Y014559D01*
X016359D01*
X022363Y014563D02*
Y014523D01*
X022443D01*
Y014563D01*
X022483D01*
Y014643D01*
X022443D01*
Y014683D01*
X022363D01*
Y014643D01*
X022323D01*
Y014563D01*
X022363D01*
X02036Y01456D02*
Y01452D01*
X02044D01*
Y01456D01*
X02048D01*
Y01464D01*
X02044D01*
Y01468D01*
X02036D01*
Y01464D01*
X02032D01*
Y01456D01*
X02036D01*
X018359Y014559D02*
Y014519D01*
X018439D01*
Y014559D01*
X018479D01*
Y014639D01*
X018439D01*
Y014679D01*
X018359D01*
Y014639D01*
X018319D01*
Y014559D01*
X018359D01*
X02447Y03072D02*
X02451Y0308D01*
X02447Y03088D01*
X02455Y03084D01*
X02463Y03088D01*
X02459Y0308D01*
X02463Y03072D01*
X02455Y03076D01*
X02447Y03072D01*
X02342Y03067D02*
X02346Y03075D01*
X02342Y03083D01*
X0235Y03079D01*
X02358Y03083D01*
X02354Y03075D01*
X02358Y03067D01*
X0235Y03071D01*
X02342Y03067D01*
X044346Y043896D02*
X044386D01*
X044426Y043936D01*
X044466Y043896D01*
X044506D01*
Y043936D01*
X044466Y043976D01*
X044506Y044016D01*
Y044056D01*
X044466D01*
X044426Y044016D01*
X044386Y044056D01*
X044346D01*
Y044016D01*
X044386Y043976D01*
X044346Y043936D01*
Y043896D01*
X046346D02*
X046386D01*
X046426Y043936D01*
X046466Y043896D01*
X046506D01*
Y043936D01*
X046466Y043976D01*
X046506Y044016D01*
Y044056D01*
X046466D01*
X046426Y044016D01*
X046386Y044056D01*
X046346D01*
Y044016D01*
X046386Y043976D01*
X046346Y043936D01*
Y043896D01*
X04232Y04387D02*
X04236D01*
X0424Y04391D01*
X04244Y04387D01*
X04248D01*
Y04391D01*
X04244Y04395D01*
X04248Y04399D01*
Y04403D01*
X04244D01*
X0424Y04399D01*
X04236Y04403D01*
X04232D01*
Y04399D01*
X04236Y04395D01*
X04232Y04391D01*
Y04387D01*
X031661Y04495D02*
X031741Y04503D01*
X031821Y04495D01*
X031741Y04487D01*
X031661Y04495D01*
X032062Y044249D02*
X032142Y044329D01*
X032222Y044249D01*
X032142Y044169D01*
X032062Y044249D01*
X032464Y04495D02*
X032544Y04503D01*
X032624Y04495D01*
X032544Y04487D01*
X032464Y04495D01*
X032865Y044249D02*
X032945Y044329D01*
X033025Y044249D01*
X032945Y044169D01*
X032865Y044249D01*
X033267Y04495D02*
X033347Y04503D01*
X033427Y04495D01*
X033347Y04487D01*
X033267Y04495D01*
X033668Y044249D02*
X033748Y044329D01*
X033828Y044249D01*
X033748Y044169D01*
X033668Y044249D01*
X03407Y04495D02*
X03415Y04503D01*
X03423Y04495D01*
X03415Y04487D01*
X03407Y04495D01*
X034472Y044249D02*
X034552Y044329D01*
X034632Y044249D01*
X034552Y044169D01*
X034472Y044249D01*
X030566Y04587D02*
Y04603D01*
X030726D01*
Y04587D01*
X030566D01*
X030606Y04591D02*
Y04599D01*
X030686D01*
Y04591D01*
X030606D01*
X035566Y04587D02*
Y04603D01*
X035726D01*
Y04587D01*
X035566D01*
X035606Y04591D02*
Y04599D01*
X035686D01*
Y04591D01*
X035606D01*
X031267Y042352D02*
X031347Y042432D01*
X031427Y042352D01*
X031347Y042272D01*
X031267Y042352D01*
X030365Y042352D02*
X030445Y042432D01*
X030525Y042352D01*
X030445Y042272D01*
X030365Y042352D01*
X034865Y042352D02*
X034945Y042432D01*
X035025Y042352D01*
X034945Y042272D01*
X034865Y042352D01*
X035767Y042352D02*
X035847Y042432D01*
X035927Y042352D01*
X035847Y042272D01*
X035767Y042352D01*
X0401Y04637D02*
X04002Y04653D01*
X04018D01*
X0401Y04637D01*
Y04641D02*
X04006Y04649D01*
X04014D01*
X0401Y04641D01*
X0391Y04637D02*
X03902Y04653D01*
X03918D01*
X0391Y04637D01*
Y04641D02*
X03906Y04649D01*
X03914D01*
X0391Y04641D01*
X0401Y04537D02*
X04002Y04553D01*
X04018D01*
X0401Y04537D01*
Y04541D02*
X04006Y04549D01*
X04014D01*
X0401Y04541D01*
X0391Y04537D02*
X03902Y04553D01*
X03918D01*
X0391Y04537D01*
Y04541D02*
X03906Y04549D01*
X03914D01*
X0391Y04541D01*
X0493Y04092D02*
X04934Y04096D01*
X04938D01*
X04934Y041D01*
X04938Y04104D01*
X04934D01*
X0493Y04108D01*
X04926Y04104D01*
X04922D01*
X04926Y041D01*
X04922Y04096D01*
X04926D01*
X0493Y04092D01*
Y04096D02*
X04932Y04098D01*
X04934D01*
X04932Y041D01*
X04934Y04102D01*
X04932D01*
X0493Y04104D01*
X04928Y04102D01*
X04926D01*
X04928Y041D01*
X04926Y04098D01*
X04928D01*
X0493Y04096D01*
X04765Y04052D02*
X04769Y04056D01*
X04773D01*
X04769Y0406D01*
X04773Y04064D01*
X04769D01*
X04765Y04068D01*
X04761Y04064D01*
X04757D01*
X04761Y0406D01*
X04757Y04056D01*
X04761D01*
X04765Y04052D01*
Y04056D02*
X04767Y04058D01*
X04769D01*
X04767Y0406D01*
X04769Y04062D01*
X04767D01*
X04765Y04064D01*
X04763Y04062D01*
X04761D01*
X04763Y0406D01*
X04761Y04058D01*
X04763D01*
X04765Y04056D01*
X04485Y04042D02*
X04489Y04046D01*
X04493D01*
X04489Y0405D01*
X04493Y04054D01*
X04489D01*
X04485Y04058D01*
X04481Y04054D01*
X04477D01*
X04481Y0405D01*
X04477Y04046D01*
X04481D01*
X04485Y04042D01*
Y04046D02*
X04487Y04048D01*
X04489D01*
X04487Y0405D01*
X04489Y04052D01*
X04487D01*
X04485Y04054D01*
X04483Y04052D01*
X04481D01*
X04483Y0405D01*
X04481Y04048D01*
X04483D01*
X04485Y04046D01*
X05135Y02547D02*
X05139Y02551D01*
X05143D01*
X05139Y02555D01*
X05143Y02559D01*
X05139D01*
X05135Y02563D01*
X05131Y02559D01*
X05127D01*
X05131Y02555D01*
X05127Y02551D01*
X05131D01*
X05135Y02547D01*
Y02551D02*
X05137Y02553D01*
X05139D01*
X05137Y02555D01*
X05139Y02557D01*
X05137D01*
X05135Y02559D01*
X05133Y02557D01*
X05131D01*
X05133Y02555D01*
X05131Y02553D01*
X05133D01*
X05135Y02551D01*
X05247Y04457D02*
X05251Y04465D01*
X05247Y04473D01*
X05255Y04469D01*
X05263Y04473D01*
X05259Y04465D01*
X05263Y04457D01*
X05255Y04461D01*
X05247Y04457D01*
X05251Y04461D02*
X05253Y04465D01*
X05251Y04469D01*
X05255Y04467D01*
X05259Y04469D01*
X05257Y04465D01*
X05259Y04461D01*
X05255Y04463D01*
X05251Y04461D01*
X05117Y04592D02*
X05121Y046D01*
X05117Y04608D01*
X05125Y04604D01*
X05133Y04608D01*
X05129Y046D01*
X05133Y04592D01*
X05125Y04596D01*
X05117Y04592D01*
X05121Y04596D02*
X05123Y046D01*
X05121Y04604D01*
X05125Y04602D01*
X05129Y04604D01*
X05127Y046D01*
X05129Y04596D01*
X05125Y04598D01*
X05121Y04596D01*
X05247Y04592D02*
X05251Y046D01*
X05247Y04608D01*
X05255Y04604D01*
X05263Y04608D01*
X05259Y046D01*
X05263Y04592D01*
X05255Y04596D01*
X05247Y04592D01*
X05251Y04596D02*
X05253Y046D01*
X05251Y04604D01*
X05255Y04602D01*
X05259Y04604D01*
X05257Y046D01*
X05259Y04596D01*
X05255Y04598D01*
X05251Y04596D01*
X05117Y04457D02*
X05121Y04465D01*
X05117Y04473D01*
X05125Y04469D01*
X05133Y04473D01*
X05129Y04465D01*
X05133Y04457D01*
X05125Y04461D01*
X05117Y04457D01*
X05121Y04461D02*
X05123Y04465D01*
X05121Y04469D01*
X05125Y04467D01*
X05129Y04469D01*
X05127Y04465D01*
X05129Y04461D01*
X05125Y04463D01*
X05121Y04461D01*
X05182Y04622D02*
X05186Y0463D01*
X05182Y04638D01*
X0519Y04634D01*
X05198Y04638D01*
X05194Y0463D01*
X05198Y04622D01*
X0519Y04626D01*
X05182Y04622D01*
X05186Y04626D02*
X05188Y0463D01*
X05186Y04634D01*
X0519Y04632D01*
X05194Y04634D01*
X05192Y0463D01*
X05194Y04626D01*
X0519Y04628D01*
X05186Y04626D01*
X05277Y04527D02*
X05281Y04535D01*
X05277Y04543D01*
X05285Y04539D01*
X05293Y04543D01*
X05289Y04535D01*
X05293Y04527D01*
X05285Y04531D01*
X05277Y04527D01*
X05281Y04531D02*
X05283Y04535D01*
X05281Y04539D01*
X05285Y04537D01*
X05289Y04539D01*
X05287Y04535D01*
X05289Y04531D01*
X05285Y04533D01*
X05281Y04531D01*
X05087Y04527D02*
X05091Y04535D01*
X05087Y04543D01*
X05095Y04539D01*
X05103Y04543D01*
X05099Y04535D01*
X05103Y04527D01*
X05095Y04531D01*
X05087Y04527D01*
X05091Y04531D02*
X05093Y04535D01*
X05091Y04539D01*
X05095Y04537D01*
X05099Y04539D01*
X05097Y04535D01*
X05099Y04531D01*
X05095Y04533D01*
X05091Y04531D01*
X05187Y04432D02*
X05191Y0444D01*
X05187Y04448D01*
X05195Y04444D01*
X05203Y04448D01*
X05199Y0444D01*
X05203Y04432D01*
X05195Y04436D01*
X05187Y04432D01*
X05191Y04436D02*
X05193Y0444D01*
X05191Y04444D01*
X05195Y04442D01*
X05199Y04444D01*
X05197Y0444D01*
X05199Y04436D01*
X05195Y04438D01*
X05191Y04436D01*
X01692Y04457D02*
X01696Y04465D01*
X01692Y04473D01*
X017Y04469D01*
X01708Y04473D01*
X01704Y04465D01*
X01708Y04457D01*
X017Y04461D01*
X01692Y04457D01*
X01696Y04461D02*
X01698Y04465D01*
X01696Y04469D01*
X017Y04467D01*
X01704Y04469D01*
X01702Y04465D01*
X01704Y04461D01*
X017Y04463D01*
X01696Y04461D01*
X01562Y04592D02*
X01566Y046D01*
X01562Y04608D01*
X0157Y04604D01*
X01578Y04608D01*
X01574Y046D01*
X01578Y04592D01*
X0157Y04596D01*
X01562Y04592D01*
X01566Y04596D02*
X01568Y046D01*
X01566Y04604D01*
X0157Y04602D01*
X01574Y04604D01*
X01572Y046D01*
X01574Y04596D01*
X0157Y04598D01*
X01566Y04596D01*
X01692Y04592D02*
X01696Y046D01*
X01692Y04608D01*
X017Y04604D01*
X01708Y04608D01*
X01704Y046D01*
X01708Y04592D01*
X017Y04596D01*
X01692Y04592D01*
X01696Y04596D02*
X01698Y046D01*
X01696Y04604D01*
X017Y04602D01*
X01704Y04604D01*
X01702Y046D01*
X01704Y04596D01*
X017Y04598D01*
X01696Y04596D01*
X01562Y04457D02*
X01566Y04465D01*
X01562Y04473D01*
X0157Y04469D01*
X01578Y04473D01*
X01574Y04465D01*
X01578Y04457D01*
X0157Y04461D01*
X01562Y04457D01*
X01566Y04461D02*
X01568Y04465D01*
X01566Y04469D01*
X0157Y04467D01*
X01574Y04469D01*
X01572Y04465D01*
X01574Y04461D01*
X0157Y04463D01*
X01566Y04461D01*
X01627Y04622D02*
X01631Y0463D01*
X01627Y04638D01*
X01635Y04634D01*
X01643Y04638D01*
X01639Y0463D01*
X01643Y04622D01*
X01635Y04626D01*
X01627Y04622D01*
X01631Y04626D02*
X01633Y0463D01*
X01631Y04634D01*
X01635Y04632D01*
X01639Y04634D01*
X01637Y0463D01*
X01639Y04626D01*
X01635Y04628D01*
X01631Y04626D01*
X01722Y04527D02*
X01726Y04535D01*
X01722Y04543D01*
X0173Y04539D01*
X01738Y04543D01*
X01734Y04535D01*
X01738Y04527D01*
X0173Y04531D01*
X01722Y04527D01*
X01726Y04531D02*
X01728Y04535D01*
X01726Y04539D01*
X0173Y04537D01*
X01734Y04539D01*
X01732Y04535D01*
X01734Y04531D01*
X0173Y04533D01*
X01726Y04531D01*
X01532Y04527D02*
X01536Y04535D01*
X01532Y04543D01*
X0154Y04539D01*
X01548Y04543D01*
X01544Y04535D01*
X01548Y04527D01*
X0154Y04531D01*
X01532Y04527D01*
X01536Y04531D02*
X01538Y04535D01*
X01536Y04539D01*
X0154Y04537D01*
X01544Y04539D01*
X01542Y04535D01*
X01544Y04531D01*
X0154Y04533D01*
X01536Y04531D01*
X01632Y04432D02*
X01636Y0444D01*
X01632Y04448D01*
X0164Y04444D01*
X01648Y04448D01*
X01644Y0444D01*
X01648Y04432D01*
X0164Y04436D01*
X01632Y04432D01*
X01636Y04436D02*
X01638Y0444D01*
X01636Y04444D01*
X0164Y04442D01*
X01644Y04444D01*
X01642Y0444D01*
X01644Y04436D01*
X0164Y04438D01*
X01636Y04436D01*
X05247Y01707D02*
X05251Y01715D01*
X05247Y01723D01*
X05255Y01719D01*
X05263Y01723D01*
X05259Y01715D01*
X05263Y01707D01*
X05255Y01711D01*
X05247Y01707D01*
X05251Y01711D02*
X05253Y01715D01*
X05251Y01719D01*
X05255Y01717D01*
X05259Y01719D01*
X05257Y01715D01*
X05259Y01711D01*
X05255Y01713D01*
X05251Y01711D01*
X05117Y01842D02*
X05121Y0185D01*
X05117Y01858D01*
X05125Y01854D01*
X05133Y01858D01*
X05129Y0185D01*
X05133Y01842D01*
X05125Y01846D01*
X05117Y01842D01*
X05121Y01846D02*
X05123Y0185D01*
X05121Y01854D01*
X05125Y01852D01*
X05129Y01854D01*
X05127Y0185D01*
X05129Y01846D01*
X05125Y01848D01*
X05121Y01846D01*
X05247Y01842D02*
X05251Y0185D01*
X05247Y01858D01*
X05255Y01854D01*
X05263Y01858D01*
X05259Y0185D01*
X05263Y01842D01*
X05255Y01846D01*
X05247Y01842D01*
X05251Y01846D02*
X05253Y0185D01*
X05251Y01854D01*
X05255Y01852D01*
X05259Y01854D01*
X05257Y0185D01*
X05259Y01846D01*
X05255Y01848D01*
X05251Y01846D01*
X05117Y01707D02*
X05121Y01715D01*
X05117Y01723D01*
X05125Y01719D01*
X05133Y01723D01*
X05129Y01715D01*
X05133Y01707D01*
X05125Y01711D01*
X05117Y01707D01*
X05121Y01711D02*
X05123Y01715D01*
X05121Y01719D01*
X05125Y01717D01*
X05129Y01719D01*
X05127Y01715D01*
X05129Y01711D01*
X05125Y01713D01*
X05121Y01711D01*
X05182Y01872D02*
X05186Y0188D01*
X05182Y01888D01*
X0519Y01884D01*
X05198Y01888D01*
X05194Y0188D01*
X05198Y01872D01*
X0519Y01876D01*
X05182Y01872D01*
X05186Y01876D02*
X05188Y0188D01*
X05186Y01884D01*
X0519Y01882D01*
X05194Y01884D01*
X05192Y0188D01*
X05194Y01876D01*
X0519Y01878D01*
X05186Y01876D01*
X05277Y01777D02*
X05281Y01785D01*
X05277Y01793D01*
X05285Y01789D01*
X05293Y01793D01*
X05289Y01785D01*
X05293Y01777D01*
X05285Y01781D01*
X05277Y01777D01*
X05281Y01781D02*
X05283Y01785D01*
X05281Y01789D01*
X05285Y01787D01*
X05289Y01789D01*
X05287Y01785D01*
X05289Y01781D01*
X05285Y01783D01*
X05281Y01781D01*
X05087Y01777D02*
X05091Y01785D01*
X05087Y01793D01*
X05095Y01789D01*
X05103Y01793D01*
X05099Y01785D01*
X05103Y01777D01*
X05095Y01781D01*
X05087Y01777D01*
X05091Y01781D02*
X05093Y01785D01*
X05091Y01789D01*
X05095Y01787D01*
X05099Y01789D01*
X05097Y01785D01*
X05099Y01781D01*
X05095Y01783D01*
X05091Y01781D01*
X05187Y01682D02*
X05191Y0169D01*
X05187Y01698D01*
X05195Y01694D01*
X05203Y01698D01*
X05199Y0169D01*
X05203Y01682D01*
X05195Y01686D01*
X05187Y01682D01*
X05191Y01686D02*
X05193Y0169D01*
X05191Y01694D01*
X05195Y01692D01*
X05199Y01694D01*
X05197Y0169D01*
X05199Y01686D01*
X05195Y01688D01*
X05191Y01686D01*
X01692Y01707D02*
X01696Y01715D01*
X01692Y01723D01*
X017Y01719D01*
X01708Y01723D01*
X01704Y01715D01*
X01708Y01707D01*
X017Y01711D01*
X01692Y01707D01*
X01696Y01711D02*
X01698Y01715D01*
X01696Y01719D01*
X017Y01717D01*
X01704Y01719D01*
X01702Y01715D01*
X01704Y01711D01*
X017Y01713D01*
X01696Y01711D01*
X01562Y01842D02*
X01566Y0185D01*
X01562Y01858D01*
X0157Y01854D01*
X01578Y01858D01*
X01574Y0185D01*
X01578Y01842D01*
X0157Y01846D01*
X01562Y01842D01*
X01566Y01846D02*
X01568Y0185D01*
X01566Y01854D01*
X0157Y01852D01*
X01574Y01854D01*
X01572Y0185D01*
X01574Y01846D01*
X0157Y01848D01*
X01566Y01846D01*
X01692Y01842D02*
X01696Y0185D01*
X01692Y01858D01*
X017Y01854D01*
X01708Y01858D01*
X01704Y0185D01*
X01708Y01842D01*
X017Y01846D01*
X01692Y01842D01*
X01696Y01846D02*
X01698Y0185D01*
X01696Y01854D01*
X017Y01852D01*
X01704Y01854D01*
X01702Y0185D01*
X01704Y01846D01*
X017Y01848D01*
X01696Y01846D01*
X01562Y01707D02*
X01566Y01715D01*
X01562Y01723D01*
X0157Y01719D01*
X01578Y01723D01*
X01574Y01715D01*
X01578Y01707D01*
X0157Y01711D01*
X01562Y01707D01*
X01566Y01711D02*
X01568Y01715D01*
X01566Y01719D01*
X0157Y01717D01*
X01574Y01719D01*
X01572Y01715D01*
X01574Y01711D01*
X0157Y01713D01*
X01566Y01711D01*
X01627Y01872D02*
X01631Y0188D01*
X01627Y01888D01*
X01635Y01884D01*
X01643Y01888D01*
X01639Y0188D01*
X01643Y01872D01*
X01635Y01876D01*
X01627Y01872D01*
X01631Y01876D02*
X01633Y0188D01*
X01631Y01884D01*
X01635Y01882D01*
X01639Y01884D01*
X01637Y0188D01*
X01639Y01876D01*
X01635Y01878D01*
X01631Y01876D01*
X01722Y01777D02*
X01726Y01785D01*
X01722Y01793D01*
X0173Y01789D01*
X01738Y01793D01*
X01734Y01785D01*
X01738Y01777D01*
X0173Y01781D01*
X01722Y01777D01*
X01726Y01781D02*
X01728Y01785D01*
X01726Y01789D01*
X0173Y01787D01*
X01734Y01789D01*
X01732Y01785D01*
X01734Y01781D01*
X0173Y01783D01*
X01726Y01781D01*
X01532Y01777D02*
X01536Y01785D01*
X01532Y01793D01*
X0154Y01789D01*
X01548Y01793D01*
X01544Y01785D01*
X01548Y01777D01*
X0154Y01781D01*
X01532Y01777D01*
X01536Y01781D02*
X01538Y01785D01*
X01536Y01789D01*
X0154Y01787D01*
X01544Y01789D01*
X01542Y01785D01*
X01544Y01781D01*
X0154Y01783D01*
X01536Y01781D01*
X01632Y01682D02*
X01636Y0169D01*
X01632Y01698D01*
X0164Y01694D01*
X01648Y01698D01*
X01644Y0169D01*
X01648Y01682D01*
X0164Y01686D01*
X01632Y01682D01*
X01636Y01686D02*
X01638Y0169D01*
X01636Y01694D01*
X0164Y01692D01*
X01644Y01694D01*
X01642Y0169D01*
X01644Y01686D01*
X0164Y01688D01*
X01636Y01686D01*
D59*
X01888Y01985D02*
G03*
X01888Y01985I-00008J0D01*
G01*
X02073D02*
G03*
X02073Y01985I-00008J0D01*
G01*
Y027133D02*
G03*
X02073Y027133I-00008J0D01*
G01*
Y024378D02*
G03*
X02073Y024378I-00008J0D01*
G01*
X04748Y031972D02*
G03*
X04748Y031972I-00008J0D01*
G01*
X04933D02*
G03*
X04933Y031972I-00008J0D01*
G01*
Y039256D02*
G03*
X04933Y039256I-00008J0D01*
G01*
Y0365D02*
G03*
X04933Y0365I-00008J0D01*
G01*
X02278Y019867D02*
G03*
X02278Y019867I-00008J0D01*
G01*
X02463D02*
G03*
X02463Y019867I-00008J0D01*
G01*
Y02715D02*
G03*
X02463Y02715I-00008J0D01*
G01*
Y024394D02*
G03*
X02463Y024394I-00008J0D01*
G01*
X02723Y019867D02*
G03*
X02723Y019867I-00008J0D01*
G01*
X02908D02*
G03*
X02908Y019867I-00008J0D01*
G01*
Y02715D02*
G03*
X02908Y02715I-00008J0D01*
G01*
Y024394D02*
G03*
X02908Y024394I-00008J0D01*
G01*
X03133Y019867D02*
G03*
X03133Y019867I-00008J0D01*
G01*
X03318D02*
G03*
X03318Y019867I-00008J0D01*
G01*
Y02715D02*
G03*
X03318Y02715I-00008J0D01*
G01*
Y024394D02*
G03*
X03318Y024394I-00008J0D01*
G01*
X03523Y019867D02*
G03*
X03523Y019867I-00008J0D01*
G01*
X03708D02*
G03*
X03708Y019867I-00008J0D01*
G01*
Y02715D02*
G03*
X03708Y02715I-00008J0D01*
G01*
Y024394D02*
G03*
X03708Y024394I-00008J0D01*
G01*
X03928Y019867D02*
G03*
X03928Y019867I-00008J0D01*
G01*
X04113D02*
G03*
X04113Y019867I-00008J0D01*
G01*
Y02715D02*
G03*
X04113Y02715I-00008J0D01*
G01*
Y024394D02*
G03*
X04113Y024394I-00008J0D01*
G01*
X04748Y019867D02*
G03*
X04748Y019867I-00008J0D01*
G01*
X04933D02*
G03*
X04933Y019867I-00008J0D01*
G01*
Y02715D02*
G03*
X04933Y02715I-00008J0D01*
G01*
Y024394D02*
G03*
X04933Y024394I-00008J0D01*
G01*
X04333Y019867D02*
G03*
X04333Y019867I-00008J0D01*
G01*
X04518D02*
G03*
X04518Y019867I-00008J0D01*
G01*
Y02715D02*
G03*
X04518Y02715I-00008J0D01*
G01*
Y024394D02*
G03*
X04518Y024394I-00008J0D01*
G01*
X036425Y0446D02*
G03*
X036425Y0446I-00008J0D01*
G01*
X030027D02*
G03*
X030027Y0446I-00008J0D01*
G01*
X03928Y031972D02*
G03*
X03928Y031972I-00008J0D01*
G01*
X04113D02*
G03*
X04113Y031972I-00008J0D01*
G01*
Y039256D02*
G03*
X04113Y039256I-00008J0D01*
G01*
Y0365D02*
G03*
X04113Y0365I-00008J0D01*
G01*
X03133Y031972D02*
G03*
X03133Y031972I-00008J0D01*
G01*
X03318D02*
G03*
X03318Y031972I-00008J0D01*
G01*
Y039256D02*
G03*
X03318Y039256I-00008J0D01*
G01*
Y0365D02*
G03*
X03318Y0365I-00008J0D01*
G01*
X02278Y031972D02*
G03*
X02278Y031972I-00008J0D01*
G01*
X02463D02*
G03*
X02463Y031972I-00008J0D01*
G01*
Y039256D02*
G03*
X02463Y039256I-00008J0D01*
G01*
Y0365D02*
G03*
X02463Y0365I-00008J0D01*
G01*
X04333Y031972D02*
G03*
X04333Y031972I-00008J0D01*
G01*
X04518D02*
G03*
X04518Y031972I-00008J0D01*
G01*
Y039256D02*
G03*
X04518Y039256I-00008J0D01*
G01*
Y0365D02*
G03*
X04518Y0365I-00008J0D01*
G01*
X03523Y031972D02*
G03*
X03523Y031972I-00008J0D01*
G01*
X03708D02*
G03*
X03708Y031972I-00008J0D01*
G01*
Y039256D02*
G03*
X03708Y039256I-00008J0D01*
G01*
Y0365D02*
G03*
X03708Y0365I-00008J0D01*
G01*
X02718Y031972D02*
G03*
X02718Y031972I-00008J0D01*
G01*
X02903D02*
G03*
X02903Y031972I-00008J0D01*
G01*
Y039256D02*
G03*
X02903Y039256I-00008J0D01*
G01*
Y0365D02*
G03*
X02903Y0365I-00008J0D01*
G01*
X01868Y031972D02*
G03*
X01868Y031972I-00008J0D01*
G01*
X02053D02*
G03*
X02053Y031972I-00008J0D01*
G01*
Y039256D02*
G03*
X02053Y039256I-00008J0D01*
G01*
Y0365D02*
G03*
X02053Y0365I-00008J0D01*
G01*
D60*
X036385Y0446D02*
G03*
X036385Y0446I-00004J0D01*
G01*
X029987D02*
G03*
X029987Y0446I-00004J0D01*
G01*
M02*
