G04*
G04 #@! TF.GenerationSoftware,Altium Limited,Altium Designer,20.1.12 (249)*
G04*
G04 Layer_Physical_Order=2*
G04 Layer_Color=16711680*
%FSTAX24Y24*%
%MOIN*%
G70*
G04*
G04 #@! TF.SameCoordinates,3ECB986E-075F-4DB5-9EE9-704FFB054EE1*
G04*
G04*
G04 #@! TF.FilePolarity,Positive*
G04*
G01*
G75*
%ADD37C,0.0150*%
%ADD38C,0.0350*%
%ADD40C,0.0650*%
%ADD41P,0.0704X8X112.5*%
%ADD42O,0.1000X0.0800*%
%ADD43C,0.0750*%
%ADD44C,0.2362*%
%ADD45C,0.0800*%
%ADD46R,0.0800X0.0800*%
%ADD47P,0.0704X8X22.5*%
%ADD48O,0.1100X0.1200*%
%ADD49C,0.1300*%
%ADD50R,0.0512X0.0512*%
%ADD51C,0.0512*%
%ADD52C,0.1680*%
%ADD53C,0.1004*%
%ADD54O,0.0600X0.0860*%
%ADD55C,0.0500*%
%ADD56C,0.0394*%
D37*
X0284Y0146D02*
X02855D01*
X0299Y01595D02*
X03255D01*
X02855Y0146D02*
X0299Y01595D01*
X0288Y0159D02*
X0293Y0164D01*
X0257Y0159D02*
X0288D01*
X0293Y0169D02*
X02935Y01695D01*
X0293Y0164D02*
Y0169D01*
X033748Y040802D02*
Y044249D01*
X035294Y039256D02*
X037D01*
X033748Y040802D02*
X035294Y039256D01*
X037D02*
X04105D01*
X03565Y04045D02*
X043806D01*
X034514Y041586D02*
Y044212D01*
Y041586D02*
X03565Y04045D01*
X032142Y043342D02*
Y044249D01*
X0318Y043D02*
X032142Y043342D01*
X0205Y031361D02*
Y031922D01*
X02075Y0291D02*
Y031111D01*
X0205Y031361D02*
X02075Y031111D01*
X035412Y017D02*
X03625D01*
X035212Y0168D02*
X035412Y017D01*
X03505Y0168D02*
X035212D01*
X03705Y01845D02*
X037154Y018346D01*
Y017096D02*
Y018346D01*
Y017096D02*
X03725Y017D01*
X032325Y016975D02*
X03235Y017D01*
X031175Y016975D02*
X032325D01*
X03115Y01695D02*
X031175Y016975D01*
X03325Y01855D02*
X0333Y0185D01*
Y01705D02*
Y0185D01*
Y01705D02*
X03335Y017D01*
X0331Y019867D02*
X033175Y019792D01*
Y018625D02*
Y019792D01*
Y018625D02*
X03325Y01855D01*
X029Y02715D02*
X02905Y0271D01*
X03305D02*
X0331Y02715D01*
X02905Y0271D02*
X03305D01*
X0451Y02715D02*
X04925D01*
X037D02*
X04105D01*
X02045Y02695D02*
X02455D01*
X0451Y024394D02*
Y02555D01*
X05135D01*
X037D02*
X0451D01*
X037Y024394D02*
Y02555D01*
X037Y02555D01*
X029D02*
X037D01*
X029Y024394D02*
Y02555D01*
X02125D02*
X029D01*
X02065Y02495D02*
X02125Y02555D01*
X02065Y024378D02*
Y02495D01*
X01735Y0236D02*
Y04145D01*
X0184Y02255D02*
X0245D01*
X01735Y0236D02*
X0184Y02255D01*
X0245D02*
X03305D01*
X02455Y0226D02*
Y024394D01*
X0245Y02255D02*
X02455Y0226D01*
X03305Y02255D02*
X04105D01*
X0331Y0226D02*
Y024394D01*
X03305Y02255D02*
X0331Y0226D01*
X04925Y023D02*
Y024394D01*
X04105Y02255D02*
X0488D01*
X04925Y023D01*
X04105Y02255D02*
Y024394D01*
X0184Y03545D02*
Y0408D01*
X0211Y0435D02*
X030291D01*
X0184Y0408D02*
X0211Y0435D01*
X024648Y039354D02*
Y042048D01*
X0256Y043D02*
X0318D01*
X024648Y042048D02*
X0256Y043D01*
X030291Y0435D02*
X031741Y04495D01*
X0343Y0471D02*
X0371D01*
X033347Y046147D02*
X0343Y0471D01*
X03775Y04395D02*
Y04645D01*
X0396Y0421D02*
X04945D01*
X0371Y0471D02*
X03775Y04645D01*
Y04395D02*
X0396Y0421D01*
X02895Y0365D02*
Y03785D01*
X02095D02*
X02895D01*
X02045Y0365D02*
Y03735D01*
X02095Y03785D01*
X02455Y0348D02*
Y0365D01*
X0245Y03475D02*
X02455Y0348D01*
X0331Y03475D02*
Y0365D01*
X0331Y03475D02*
X0331Y03475D01*
X0191Y03475D02*
X04105D01*
Y0365D01*
Y03475D02*
X0474D01*
X037Y0365D02*
Y03785D01*
X037Y03785D01*
X02895D02*
X0451D01*
Y0365D02*
Y03785D01*
X0499D01*
X0431Y03035D02*
X043262D01*
X05055Y0385D02*
Y041D01*
X0499Y03785D02*
X05055Y0385D01*
X04945Y0421D02*
X05055Y041D01*
X04885Y04145D02*
X0493Y041D01*
X03825Y04145D02*
X04885D01*
X03475Y04495D02*
X03825Y04145D01*
X043806Y04045D02*
X045Y039256D01*
X0246Y0292D02*
Y031922D01*
X02045Y018976D02*
X020526Y0189D01*
X02045Y018976D02*
Y019867D01*
X020526Y017302D02*
Y0189D01*
Y017302D02*
X02075Y017078D01*
X01865Y0185D02*
X0193D01*
X0186Y01855D02*
X01865Y0185D01*
X0186Y01855D02*
Y019867D01*
X019975Y017025D02*
X02Y017D01*
X018675Y017025D02*
X019975D01*
X01865Y01705D02*
X018675Y017025D01*
X0391Y01705D02*
X039125Y017025D01*
X040375D01*
X0404Y017D01*
X02015Y01575D02*
X02075Y01635D01*
X016399Y014599D02*
X01755Y01575D01*
X02015D01*
X044401Y014651D02*
X0454Y01565D01*
X04915D02*
X0497Y0162D01*
X0454Y01565D02*
X04915D01*
X0497Y0167D02*
X04975Y01675D01*
X0497Y0162D02*
Y0167D01*
X031053Y030403D02*
Y031972D01*
X029Y0308D02*
X02905Y03075D01*
X0291Y029D02*
X02915Y02895D01*
X0291Y029D02*
Y0307D01*
X02905Y03075D02*
X0291Y0307D01*
X03515Y019667D02*
X03525Y019767D01*
X035125Y01825D02*
Y019842D01*
X0474Y03475D02*
X04915Y0365D01*
X04925D01*
X0451Y039256D02*
X04925D01*
X045D02*
X0451D01*
X0331Y029335D02*
Y0307D01*
Y029335D02*
X03335Y029085D01*
Y02895D02*
Y029085D01*
X0331Y0307D02*
Y031972D01*
X03705Y0295D02*
Y03075D01*
Y0295D02*
X03745Y0291D01*
X037Y031972D02*
X037025Y031947D01*
Y030775D02*
Y031947D01*
Y030775D02*
X03705Y03075D01*
X0452Y0293D02*
Y03065D01*
Y0293D02*
X0456Y0289D01*
X0451Y031972D02*
X04515Y031922D01*
Y0307D02*
Y031922D01*
Y0307D02*
X0452Y03065D01*
X04935Y02945D02*
Y0307D01*
Y02945D02*
X04985Y02895D01*
X04925Y031972D02*
X0493Y031922D01*
Y03075D02*
Y031922D01*
Y03075D02*
X04935Y0307D01*
X048825Y028975D02*
X04885Y02895D01*
X047325Y028975D02*
X048825D01*
X0473Y029D02*
X047325Y028975D01*
X047662Y03065D02*
X0483D01*
X047462Y03045D02*
X047662Y03065D01*
X0473Y03045D02*
X047462D01*
X04735Y031923D02*
X0474Y031972D01*
X04735Y0305D02*
Y031923D01*
X0473Y03045D02*
X04735Y0305D01*
X0431Y0289D02*
X0446D01*
X043512Y0306D02*
X04415D01*
X043262Y03035D02*
X043512Y0306D01*
X043175Y031898D02*
X04325Y031972D01*
X043175Y030425D02*
Y031898D01*
X0431Y03035D02*
X043175Y030425D01*
X039Y029D02*
X0391Y0291D01*
X04025D01*
X0398Y03045D02*
X04Y03065D01*
X039Y03045D02*
X0398D01*
X04Y03065D02*
Y0307D01*
X0391Y031873D02*
X0392Y031972D01*
X0391Y03055D02*
Y031873D01*
X039Y03045D02*
X0391Y03055D01*
X035412Y0291D02*
X03645D01*
X035212Y0289D02*
X035412Y0291D01*
X03505Y0289D02*
X035212D01*
X0351Y0304D02*
X0354Y0307D01*
X03505Y03035D02*
X0351Y0304D01*
X0354Y0307D02*
X036D01*
X0351Y031923D02*
X03515Y031972D01*
X0351Y0304D02*
Y031923D01*
X019725Y029075D02*
X01975Y0291D01*
X018525Y029075D02*
X019725D01*
X0185Y02905D02*
X018525Y029075D01*
X0185Y0305D02*
X0193D01*
X0195Y0307D01*
X01855Y031923D02*
X0186Y031972D01*
X01855Y03055D02*
Y031923D01*
X0185Y0305D02*
X01855Y03055D01*
X02045Y031972D02*
X0205Y031922D01*
X02455Y031972D02*
X0246Y031922D01*
X02445Y031872D02*
X02455Y031972D01*
X0246Y0292D02*
X02465Y02915D01*
X0225D02*
X02365D01*
X02335Y0306D02*
X0235Y03075D01*
X0225Y0306D02*
X02335D01*
X0225D02*
X022583Y030683D01*
Y0312D01*
X0227Y031317D01*
Y031972D01*
X029Y0308D02*
Y031922D01*
X02895Y031972D02*
X029Y031922D01*
X0281Y029D02*
X02815Y02895D01*
X02695Y029D02*
X0281D01*
X0269Y02905D02*
X02695Y029D01*
X027262Y0307D02*
X028D01*
X027062Y0305D02*
X027262Y0307D01*
X0269Y0305D02*
X027062D01*
X0271Y030862D02*
Y031972D01*
X0269Y030662D02*
X0271Y030862D01*
X0269Y0305D02*
Y030662D01*
X03105Y02895D02*
X03235D01*
X031425Y03065D02*
X03205D01*
X031175Y0304D02*
X031425Y03065D01*
X03105Y0304D02*
X031175D01*
X03105D02*
X031053Y030403D01*
X03505Y01825D02*
X035075Y018275D01*
X02795Y01845D02*
X02805Y01855D01*
X02695Y01845D02*
X02795D01*
X02695D02*
X02705Y01855D01*
Y019767D01*
X02715Y019867D01*
X02695Y017D02*
X02835D01*
X0473D02*
X04875D01*
X0494Y018474D02*
Y01865D01*
X04975Y017D02*
Y018124D01*
X0494Y018474D02*
X04975Y018124D01*
X049325Y018725D02*
X0494Y01865D01*
X049325Y018725D02*
Y019792D01*
X04925Y019867D02*
X049325Y019792D01*
X0473Y01845D02*
X0482D01*
X04835Y0186D01*
X04735Y0185D02*
Y019667D01*
X0473Y01845D02*
X04735Y0185D01*
X0451Y019867D02*
X04515Y019817D01*
Y01865D02*
Y019817D01*
Y01865D02*
X0452Y0186D01*
X045275Y017075D02*
X04535Y017D01*
X045275Y017075D02*
Y018525D01*
X0452Y0186D02*
X045275Y018525D01*
X0441Y0185D02*
X04415Y01855D01*
X0431Y0185D02*
X0441D01*
X0431Y01705D02*
X043125Y017025D01*
X044325D01*
X04435Y017D01*
X043175Y019792D02*
X04325Y019867D01*
X043175Y018575D02*
Y019792D01*
X0431Y0185D02*
X043175Y018575D01*
X0412Y0186D02*
X041304Y018496D01*
Y017096D02*
Y018496D01*
Y017096D02*
X0414Y017D01*
X04105Y019867D02*
X041125Y019792D01*
Y018675D02*
Y019792D01*
Y018675D02*
X0412Y0186D01*
X03915Y019817D02*
X0392Y019867D01*
X03915Y01855D02*
Y019817D01*
X0391Y0185D02*
X03915Y01855D01*
X0401Y0185D02*
X04015Y01855D01*
X0391Y0185D02*
X0401D01*
X035125Y01825D02*
X03585D01*
X03505D02*
X035125D01*
X03585D02*
X036Y0184D01*
X023825Y017075D02*
X0239Y017D01*
X022675Y017075D02*
X023825D01*
X0226Y01715D02*
X022675Y017075D01*
X0246Y017435D02*
Y0186D01*
Y017435D02*
X0249Y017135D01*
Y017D02*
Y017135D01*
X02455Y019867D02*
X024575Y019842D01*
Y018625D02*
Y019842D01*
Y018625D02*
X0246Y0186D01*
X0235Y0186D02*
X02355Y01855D01*
X0226Y0186D02*
X0235D01*
X02265Y019817D02*
X0227Y019867D01*
X02265Y01865D02*
Y019817D01*
X0226Y0186D02*
X02265Y01865D01*
X0193Y0185D02*
X01935Y01855D01*
X02075Y017D02*
Y017078D01*
X0291Y017385D02*
Y0186D01*
Y017385D02*
X02935Y017135D01*
Y017D02*
Y017135D01*
X02905Y01865D02*
X0291Y0186D01*
X02905Y01865D02*
Y019817D01*
X029Y019867D02*
X02905Y019817D01*
X03255Y01595D02*
X03335Y01675D01*
X024399Y014599D02*
X0257Y0159D01*
X02435Y0156D02*
X0249Y01615D01*
Y01695D01*
X0204Y0146D02*
X0214Y0156D01*
X02435D01*
X02075Y01635D02*
Y017D01*
X016399Y014599D02*
Y014599D01*
X03235Y01675D02*
X03245Y01685D01*
X0324Y0146D02*
X033525Y015725D01*
X037154Y016754D02*
X03725Y01685D01*
X037154Y016351D02*
Y016754D01*
X036529Y015725D02*
X037154Y016351D01*
X033525Y015725D02*
X036529D01*
X036401Y014601D02*
X037575Y015775D01*
X040275D02*
X0414Y0169D01*
X037575Y015775D02*
X040275D01*
X04525Y01665D02*
X04535D01*
X0414Y01565D02*
X04425D01*
X0404Y01465D02*
X0414Y01565D01*
X04425D02*
X04525Y01665D01*
X04535D02*
Y01675D01*
X036401Y014601D02*
Y014601D01*
X037025Y018475D02*
X03705Y01845D01*
X037025Y018475D02*
Y019842D01*
X037Y019867D02*
X037025Y019842D01*
X032946Y019712D02*
X0331Y019867D01*
X03115Y01695D02*
X03125Y01685D01*
X0204Y0146D02*
Y0146D01*
X044401Y014601D02*
Y014651D01*
X0404Y0146D02*
Y01465D01*
X0324Y0146D02*
Y0146D01*
X024399Y014599D02*
Y014599D01*
X01735Y04145D02*
X02325Y04735D01*
X02895Y039256D02*
X0331D01*
X02045D02*
X02455D01*
X024648Y039354D01*
X0184Y03545D02*
X0191Y03475D01*
X033347Y04495D02*
Y046147D01*
X03155Y04735D02*
X032544Y046356D01*
Y04495D02*
Y046356D01*
X02325Y04735D02*
X03155D01*
X03415Y04495D02*
X03475D01*
X034514Y044212D02*
X034552Y044249D01*
X032945D02*
X033015Y04418D01*
Y039341D02*
Y04418D01*
Y039341D02*
X0331Y039256D01*
X02045D02*
X020674Y03948D01*
D38*
X03115Y0184D02*
X0312Y01845D01*
Y019817D01*
X03125Y019867D01*
X032175Y018475D02*
X0322Y0185D01*
X031225Y018475D02*
X032175D01*
X0504Y014613D02*
X052413D01*
X048413D02*
X0504D01*
Y016652D02*
Y0205D01*
X0522Y0223D02*
Y04105D01*
X0504Y0205D02*
X0522Y0223D01*
X04745Y04705D02*
X04885D01*
X046426Y046026D02*
X04745Y04705D01*
X046426Y043976D02*
Y046026D01*
X04755Y0405D02*
X04765Y0406D01*
X04485Y0405D02*
X04755D01*
X046426Y043976D02*
X047952Y04245D01*
X0508D02*
X0522Y04105D01*
X047952Y04245D02*
X0508D01*
X0504Y016652D02*
X052426Y014626D01*
X0484Y0146D02*
X048413Y014613D01*
X052413D02*
X052426Y014626D01*
X03125Y031972D02*
Y03295D01*
X0271Y03335D02*
X03085D01*
X03125Y03295D01*
X02725Y021D02*
X0308D01*
X02285D02*
X02725D01*
X02715Y019867D02*
X02725Y019967D01*
Y021D01*
X018805D02*
X02285D01*
X0227Y019867D02*
X02285Y020017D01*
Y021D01*
X0311Y020016D02*
X03125Y019867D01*
X031063Y020053D02*
X0311Y020016D01*
X031063Y020053D02*
Y020736D01*
X0186Y019867D02*
Y020795D01*
X018805Y021D01*
X0308D02*
X031063Y020736D01*
X0432Y021D02*
X047149D01*
X03915D02*
X0432D01*
Y019916D02*
X04325Y019867D01*
X0432Y019916D02*
Y021D01*
X0356D02*
X03915D01*
Y019916D02*
X0392Y019867D01*
X03915Y019916D02*
Y021D01*
X035336Y020053D02*
Y020736D01*
X03515Y019867D02*
X035336Y020053D01*
Y020736D02*
X0356Y021D01*
X047149D02*
X0474Y02075D01*
Y019867D02*
Y02075D01*
X04335Y03325D02*
X047195D01*
X03925D02*
X04335D01*
X04325Y031972D02*
X04335Y032073D01*
Y03325D01*
X0357D02*
X03925D01*
X0392Y031972D02*
X03925Y032023D01*
Y03325D01*
X0474Y031972D02*
Y033045D01*
X0353Y032123D02*
Y03285D01*
X03515Y031972D02*
X0353Y032123D01*
Y03285D02*
X0357Y03325D01*
X047195D02*
X0474Y033045D01*
X0226Y03335D02*
X0271D01*
X0271Y031972D02*
X0271Y031973D01*
Y03335D01*
X019249D02*
X0226D01*
X0186Y0327D02*
X019249Y03335D01*
X0226Y032072D02*
Y03335D01*
Y032072D02*
X0227Y031972D01*
X0186D02*
Y0327D01*
D40*
X04885Y04705D02*
D03*
X02915Y02895D02*
D03*
X03335D02*
D03*
X03745Y0291D02*
D03*
X04125D02*
D03*
X0456Y0289D02*
D03*
X04985Y02895D02*
D03*
X0414Y017D02*
D03*
X04535Y017D02*
D03*
X04975D02*
D03*
X03725D02*
D03*
X03335D02*
D03*
X02935D02*
D03*
X0249D02*
D03*
X021D02*
D03*
X02075Y0291D02*
D03*
X02465Y02915D02*
D03*
D41*
X04885Y04605D02*
D03*
D42*
X0188Y01985D02*
D03*
X02065D02*
D03*
Y027133D02*
D03*
Y024378D02*
D03*
X0474Y031972D02*
D03*
X04925D02*
D03*
Y039256D02*
D03*
Y0365D02*
D03*
X0227Y019867D02*
D03*
X02455D02*
D03*
Y02715D02*
D03*
Y024394D02*
D03*
X02715Y019867D02*
D03*
X029D02*
D03*
Y02715D02*
D03*
Y024394D02*
D03*
X03125Y019867D02*
D03*
X0331D02*
D03*
Y02715D02*
D03*
Y024394D02*
D03*
X03515Y019867D02*
D03*
X037D02*
D03*
Y02715D02*
D03*
Y024394D02*
D03*
X0392Y019867D02*
D03*
X04105D02*
D03*
Y02715D02*
D03*
Y024394D02*
D03*
X0474Y019867D02*
D03*
X04925D02*
D03*
Y02715D02*
D03*
Y024394D02*
D03*
X04325Y019867D02*
D03*
X0451D02*
D03*
Y02715D02*
D03*
Y024394D02*
D03*
X0392Y031972D02*
D03*
X04105D02*
D03*
Y039256D02*
D03*
Y0365D02*
D03*
X03125Y031972D02*
D03*
X0331D02*
D03*
Y039256D02*
D03*
Y0365D02*
D03*
X0227Y031972D02*
D03*
X02455D02*
D03*
Y039256D02*
D03*
Y0365D02*
D03*
X04325Y031972D02*
D03*
X0451D02*
D03*
Y039256D02*
D03*
Y0365D02*
D03*
X03515Y031972D02*
D03*
X037D02*
D03*
Y039256D02*
D03*
Y0365D02*
D03*
X0271Y031972D02*
D03*
X02895D02*
D03*
Y039256D02*
D03*
Y0365D02*
D03*
X0186Y031972D02*
D03*
X02045D02*
D03*
Y039256D02*
D03*
Y0365D02*
D03*
D43*
X04885Y04485D02*
D03*
Y0434D02*
D03*
X0431Y01705D02*
D03*
Y0185D02*
D03*
X03505Y0168D02*
D03*
Y01825D02*
D03*
X02695Y017D02*
D03*
Y01845D02*
D03*
X01865Y01705D02*
D03*
Y0185D02*
D03*
X0431Y0289D02*
D03*
Y03035D02*
D03*
X03505Y0289D02*
D03*
Y03035D02*
D03*
X0269Y02905D02*
D03*
Y0305D02*
D03*
X0185Y02905D02*
D03*
Y0305D02*
D03*
X0473Y017D02*
D03*
Y01845D02*
D03*
X0391Y01705D02*
D03*
Y0185D02*
D03*
X03115Y01695D02*
D03*
Y0184D02*
D03*
X0473Y029D02*
D03*
Y03045D02*
D03*
X039Y029D02*
D03*
Y03045D02*
D03*
X03105Y02895D02*
D03*
Y0304D02*
D03*
X0226Y01715D02*
D03*
Y0186D02*
D03*
X0225Y02915D02*
D03*
Y0306D02*
D03*
D44*
X0519Y04535D02*
D03*
X01635D02*
D03*
X0519Y01785D02*
D03*
X01635D02*
D03*
D45*
X04935Y0307D02*
D03*
X0452Y03065D02*
D03*
X04105Y03075D02*
D03*
X03705D02*
D03*
X02905D02*
D03*
X02055D02*
D03*
X0412Y0186D02*
D03*
X0452D02*
D03*
X0494Y01865D02*
D03*
X03705Y01845D02*
D03*
X03325Y01855D02*
D03*
X0291Y0186D02*
D03*
X0246D02*
D03*
X02065D02*
D03*
X0331Y0307D02*
D03*
X02455Y0308D02*
D03*
D46*
X0483Y03065D02*
D03*
X04415Y0306D02*
D03*
X04Y0307D02*
D03*
X036D02*
D03*
X028D02*
D03*
X0195D02*
D03*
X04015Y01855D02*
D03*
X04415D02*
D03*
X04835Y0186D02*
D03*
X036Y0184D02*
D03*
X0322Y0185D02*
D03*
X02805Y01855D02*
D03*
X02355D02*
D03*
X0196D02*
D03*
X03205Y03065D02*
D03*
X0235Y03075D02*
D03*
D47*
X02815Y02895D02*
D03*
X03235D02*
D03*
X03645Y0291D02*
D03*
X04025D02*
D03*
X0446Y0289D02*
D03*
X04885Y02895D02*
D03*
X0404Y017D02*
D03*
X04435Y017D02*
D03*
X04875D02*
D03*
X03625D02*
D03*
X03235D02*
D03*
X02835D02*
D03*
X0239D02*
D03*
X02D02*
D03*
X01975Y0291D02*
D03*
X02365Y02915D02*
D03*
D48*
X0404Y0146D02*
D03*
X046404Y014604D02*
D03*
X044401Y014601D02*
D03*
X0424Y0146D02*
D03*
X0324D02*
D03*
X038404Y014604D02*
D03*
X036401Y014601D02*
D03*
X0344Y0146D02*
D03*
X024399Y014599D02*
D03*
X030403Y014603D02*
D03*
X0284Y0146D02*
D03*
X026399Y014599D02*
D03*
X016399D02*
D03*
X022403Y014603D02*
D03*
X0204Y0146D02*
D03*
X018399Y014599D02*
D03*
D49*
X0504Y0146D02*
D03*
X0484D02*
D03*
X052426Y014626D02*
D03*
X044426Y043976D02*
D03*
X046426D02*
D03*
X0424Y04395D02*
D03*
D50*
X031741Y04495D02*
D03*
D51*
X032142Y044249D02*
D03*
X032544Y04495D02*
D03*
X032945Y044249D02*
D03*
X033347Y04495D02*
D03*
X033748Y044249D02*
D03*
X03415Y04495D02*
D03*
X034552Y044249D02*
D03*
X031347Y042352D02*
D03*
X030445Y042352D02*
D03*
X034945Y042352D02*
D03*
X035847Y042352D02*
D03*
D52*
X030646Y04595D02*
D03*
X035646Y04595D02*
D03*
D53*
X036345Y0446D02*
D03*
X029947D02*
D03*
D54*
X0401Y04645D02*
D03*
X0391D02*
D03*
X0401Y04545D02*
D03*
X0391D02*
D03*
D55*
X0493Y041D02*
D03*
X04765Y0406D02*
D03*
X04485Y0405D02*
D03*
X05135Y02555D02*
D03*
D56*
X05255Y04465D02*
D03*
X05125Y046D02*
D03*
X05255D02*
D03*
X05125Y04465D02*
D03*
X0519Y0463D02*
D03*
X05285Y04535D02*
D03*
X05095D02*
D03*
X05195Y0444D02*
D03*
X017Y04465D02*
D03*
X0157Y046D02*
D03*
X017D02*
D03*
X0157Y04465D02*
D03*
X01635Y0463D02*
D03*
X0173Y04535D02*
D03*
X0154D02*
D03*
X0164Y0444D02*
D03*
X05255Y01715D02*
D03*
X05125Y0185D02*
D03*
X05255D02*
D03*
X05125Y01715D02*
D03*
X0519Y0188D02*
D03*
X05285Y01785D02*
D03*
X05095D02*
D03*
X05195Y0169D02*
D03*
X017Y01715D02*
D03*
X0157Y0185D02*
D03*
X017D02*
D03*
X0157Y01715D02*
D03*
X01635Y0188D02*
D03*
X0173Y01785D02*
D03*
X0154D02*
D03*
X0164Y0169D02*
D03*
M02*
