M48
;Layer_Color=9474304
;FILE_FORMAT=2:4
INCH,LZ
;TYPE=PLATED
T1F00S00C0.0236
T2F00S00C0.0276
T3F00S00C0.0280
T4F00S00C0.0315
T5F00S00C0.0350
T6F00S00C0.0354
T7F00S00C0.0360
T8F00S00C0.0400
T9F00S00C0.0600
T10F00S00C0.0650
T11F00S00C0.0669
T12F00S00C0.1280
T13F00S00C0.1378
%
T01
X05125Y01715
X05195Y0169
X05255Y01715
X05285Y01785
X05255Y0185
X0519Y0188
X05125Y0185
X05095Y01785
X0173
X017Y0185
X01635Y0188
X0157Y0185
Y01715
X0164Y0169
X017Y01715
X0154Y01785
Y04535
X0157Y046
X01635Y0463
X017Y046
X0173Y04535
X017Y04465
X0164Y0444
X0157Y04465
X05125
X05195Y0444
X05255Y04465
X05285Y04535
X05255Y046
X0519Y0463
X05125Y046
X05095Y04535
T02
X030445Y042352
X031347Y042352
X032142Y044249
X032945Y044249
X033748
X034552
X03415Y04495
X033347
X032544
X031741
X034945Y042352
X035847Y042352
T03
X05135Y02555
X04485Y0405
X04765Y0406
X0493Y041
T04
X0473Y017
Y01845
Y029
Y03045
X0431Y03035
Y0289
X039Y029
Y03045
X03505Y03035
Y0289
Y01825
Y0168
X0391Y01705
Y0185
X0431
Y01705
X03115Y01695
Y0184
X02695Y01845
Y017
X0226Y01715
Y0186
X01865Y0185
Y01705
X0185Y02905
Y0305
X0225Y0306
Y02915
X0269Y02905
Y0305
X03105Y0304
Y02895
X04885Y0434
Y04485
T05
X04835Y0186
X0494Y01865
X04935Y0307
X0483Y03065
X0452
X04415Y0306
X04105Y03075
X04Y0307
X03705Y03075
X036Y0307
X0331
X03205Y03065
X0322Y0185
X03325Y01855
X036Y0184
X03705Y01845
X04015Y01855
X0412Y0186
X04415Y01855
X0452Y0186
X0291
X02805Y01855
X0246Y0186
X02355Y01855
X02065Y0186
X0196Y01855
X0195Y0307
X02055Y03075
X0235
X02455Y0308
X028Y0307
X02905Y03075
T06
X0474Y019867
X04925
Y024394
Y02715
X0451
Y024394
X04105
Y02715
X037
Y024394
X0331
Y02715
Y019867
X03515
X037
X0392
X04105
X04325
X0451
X03125
X029
X02715
X02455
X0227
X02065Y01985
X0188
X02065Y024378
Y027133
X02455Y02715
Y024394
X029
Y02715
X02895Y031972
X0271
X02455
X0227
X02045
X0186
X02045Y0365
Y039256
X02455
Y0365
X02895
Y039256
X03125Y031972
X0331
X03515
X037
X0392
X04105
X04325
X0451
Y0365
Y039256
X04105
Y0365
X037
Y039256
X0331
Y0365
X04925
Y039256
Y031972
X0474
T07
X0391Y04545
Y04645
X0401
Y04545
T08
X04875Y017
X04975
X04985Y02895
X04885
X0456Y0289
X0446
X04125Y0291
X04025
X03745
X03645
X03335Y02895
X03235
Y017
X03335
X03625
X03725
X0404Y017
X0414
X04435Y017
X04535
X02935
X02835
X0249
X0239
X021
X02
X01975Y0291
X02075
X02365Y02915
X02465
X02815Y02895
X02915
X04885Y04605
Y04705
T09
X016399Y014599
X018399
X0204Y0146
X022403Y014603
X024399Y014599
X026399Y014599
X0284Y0146
X030403Y014603
X0324Y0146
X0344Y0146
X036401Y014601
X038404Y014604
X0404Y0146
X0424
X044401Y014601
X046404Y014604
T10
X0484Y0146
X0504
X052426Y014626
X046426Y043976
X044426
X0424Y04395
T11
X029947Y0446
X036345
T12
X030646Y04595
X035646Y04595
T13
X0519Y01785
X01635
Y04535
X0519
M30
