G04*
G04 #@! TF.GenerationSoftware,Altium Limited,Altium Designer,20.1.12 (249)*
G04*
G04 Layer_Color=8388736*
%FSTAX24Y24*%
%MOIN*%
G70*
G04*
G04 #@! TF.SameCoordinates,16AA3A95-E13F-4B7F-BF52-5902ACF92DE2*
G04*
G04*
G04 #@! TF.FilePolarity,Negative*
G04*
G01*
G75*
%ADD29R,0.0354X0.0374*%
G04:AMPARAMS|DCode=34|XSize=84mil|YSize=31.2mil|CornerRadius=6.9mil|HoleSize=0mil|Usage=FLASHONLY|Rotation=270.000|XOffset=0mil|YOffset=0mil|HoleType=Round|Shape=RoundedRectangle|*
%AMROUNDEDRECTD34*
21,1,0.0840,0.0174,0,0,270.0*
21,1,0.0702,0.0312,0,0,270.0*
1,1,0.0138,-0.0087,-0.0351*
1,1,0.0138,-0.0087,0.0351*
1,1,0.0138,0.0087,0.0351*
1,1,0.0138,0.0087,-0.0351*
%
%ADD34ROUNDEDRECTD34*%
%ADD35R,0.0630X0.0474*%
%ADD36R,0.0630X0.0580*%
%ADD37R,0.1025X0.1379*%
%ADD38R,0.1025X0.0474*%
%ADD39R,0.0474X0.0630*%
%ADD40R,0.0946X0.1104*%
%ADD41R,0.0630X0.0513*%
%ADD42R,0.0513X0.0630*%
%ADD43R,0.0671X0.0592*%
%ADD44R,0.0434X0.0454*%
%ADD45R,0.0552X0.0434*%
%ADD46R,0.0552X0.0434*%
%ADD47R,0.0580X0.0630*%
%ADD48R,0.0592X0.0671*%
%ADD49C,0.1970*%
%ADD50C,0.0745*%
%ADD51R,0.0745X0.0745*%
%ADD52O,0.1180X0.1280*%
%ADD53C,0.1380*%
%ADD54O,0.0730X0.0980*%
%ADD55R,0.0730X0.0980*%
%ADD56R,0.0680X0.0980*%
%ADD57O,0.0680X0.0980*%
%ADD58O,0.0980X0.0680*%
%ADD59R,0.0980X0.0680*%
%ADD60C,0.0671*%
%ADD61R,0.0671X0.0671*%
%ADD62C,0.1458*%
%ADD63C,0.0580*%
%ADD64C,0.0474*%
D29*
X036876Y024642D02*
D03*
X045276Y024642D02*
D03*
X039826Y024542D02*
D03*
X042426Y024642D02*
D03*
X033926D02*
D03*
D34*
X03775Y027303D02*
D03*
X03675D02*
D03*
Y029697D02*
D03*
X03775D02*
D03*
X04055Y027303D02*
D03*
X03955D02*
D03*
Y029697D02*
D03*
X04055D02*
D03*
X04325Y027253D02*
D03*
X04225D02*
D03*
Y029647D02*
D03*
X04325D02*
D03*
X04615Y027303D02*
D03*
X04515D02*
D03*
Y029697D02*
D03*
X04615D02*
D03*
X0348Y027303D02*
D03*
X0338D02*
D03*
X0338Y029697D02*
D03*
X0348Y029697D02*
D03*
X02855Y027197D02*
D03*
X02955D02*
D03*
Y024803D02*
D03*
X02855D02*
D03*
X0265Y027247D02*
D03*
X0275D02*
D03*
Y024853D02*
D03*
X0265D02*
D03*
X02425Y027197D02*
D03*
X02525D02*
D03*
Y024803D02*
D03*
X02425D02*
D03*
X0219Y027297D02*
D03*
X0229D02*
D03*
Y024903D02*
D03*
X0219D02*
D03*
X0196Y027247D02*
D03*
X0206D02*
D03*
Y024853D02*
D03*
X0196D02*
D03*
D35*
X0355Y04365D02*
D03*
Y04275D02*
D03*
X04425Y0402D02*
D03*
Y0411D02*
D03*
X04235Y0358D02*
D03*
Y0367D02*
D03*
X0348Y03175D02*
D03*
Y03085D02*
D03*
X0461Y03175D02*
D03*
Y03085D02*
D03*
X04325Y03175D02*
D03*
Y03085D02*
D03*
X03775Y0317D02*
D03*
Y0308D02*
D03*
X04055Y03175D02*
D03*
Y03085D02*
D03*
X0346Y04365D02*
D03*
Y04275D02*
D03*
D36*
X01885Y04325D02*
D03*
Y04415D02*
D03*
X04425Y0306D02*
D03*
Y0297D02*
D03*
X0414Y0306D02*
D03*
Y0297D02*
D03*
X03865Y0306D02*
D03*
Y0297D02*
D03*
X03585Y0306D02*
D03*
Y0297D02*
D03*
X03295Y0307D02*
D03*
Y0298D02*
D03*
D37*
X019058Y03965D02*
D03*
D38*
X021342Y040556D02*
D03*
X021342Y03965D02*
D03*
X021342Y038744D02*
D03*
D39*
X0195Y0421D02*
D03*
X0186D02*
D03*
X03675Y0398D02*
D03*
X03765D02*
D03*
X03675Y0388D02*
D03*
X03765D02*
D03*
X03815Y041D02*
D03*
X03725D02*
D03*
X0393Y04265D02*
D03*
X0402D02*
D03*
X03815Y0427D02*
D03*
X03725D02*
D03*
X04515Y02635D02*
D03*
X04605D02*
D03*
X0338D02*
D03*
X0347D02*
D03*
X03675Y0263D02*
D03*
X03765D02*
D03*
X04235Y02635D02*
D03*
X04325D02*
D03*
X0397D02*
D03*
X0406D02*
D03*
X0242Y02925D02*
D03*
X0251D02*
D03*
X0338Y03175D02*
D03*
X0329D02*
D03*
X0368D02*
D03*
X0359D02*
D03*
X0396D02*
D03*
X0387D02*
D03*
X04225D02*
D03*
X04135D02*
D03*
X04515D02*
D03*
X04425D02*
D03*
X0197Y0292D02*
D03*
X0206D02*
D03*
X02195D02*
D03*
X02285D02*
D03*
X02655Y02925D02*
D03*
X02745D02*
D03*
X028635D02*
D03*
X029535D02*
D03*
D40*
X02495Y038282D02*
D03*
Y04025D02*
D03*
D41*
X0434Y041044D02*
D03*
Y040256D02*
D03*
X03835Y038906D02*
D03*
Y039694D02*
D03*
X03285Y023544D02*
D03*
Y022756D02*
D03*
X0227Y039544D02*
D03*
Y038756D02*
D03*
D42*
X037306Y04185D02*
D03*
X038094D02*
D03*
X041044Y0435D02*
D03*
X040256D02*
D03*
X041044Y04455D02*
D03*
X040256D02*
D03*
X046044Y02555D02*
D03*
X045256D02*
D03*
X034694D02*
D03*
X033906D02*
D03*
X037644D02*
D03*
X036856D02*
D03*
X043237D02*
D03*
X04245D02*
D03*
X040594D02*
D03*
X039806D02*
D03*
X0198Y02825D02*
D03*
X020587D02*
D03*
X022056Y0282D02*
D03*
X022844D02*
D03*
X024306Y02825D02*
D03*
X025094D02*
D03*
X026606D02*
D03*
X027394D02*
D03*
X028706D02*
D03*
X029494D02*
D03*
X021144Y0421D02*
D03*
X020356D02*
D03*
D43*
X03925Y04375D02*
D03*
Y044498D02*
D03*
D44*
X037624Y024642D02*
D03*
X03725Y023658D02*
D03*
X046024Y024642D02*
D03*
X04565Y023658D02*
D03*
X040574Y024542D02*
D03*
X0402Y023558D02*
D03*
X043174Y024642D02*
D03*
X0428Y023658D02*
D03*
X034674Y024642D02*
D03*
X0343Y023658D02*
D03*
D45*
X0318Y02375D02*
D03*
D46*
Y02255D02*
D03*
D47*
X03365Y0428D02*
D03*
X03275D02*
D03*
X02871Y02351D02*
D03*
X02961D02*
D03*
X02655Y0234D02*
D03*
X02745D02*
D03*
X02425Y02345D02*
D03*
X02515D02*
D03*
X0219D02*
D03*
X0228D02*
D03*
X0198D02*
D03*
X0207D02*
D03*
D48*
X022276Y042D02*
D03*
X023024D02*
D03*
D49*
X037009Y04686D02*
D03*
X023891D02*
D03*
D50*
X033722Y047419D02*
D03*
X033176Y046301D02*
D03*
X032631Y047419D02*
D03*
X032086Y046301D02*
D03*
X031541Y047419D02*
D03*
X030995Y046301D02*
D03*
X03045Y047419D02*
D03*
X029905Y046301D02*
D03*
X029359Y047419D02*
D03*
X028814Y046301D02*
D03*
X028269Y047419D02*
D03*
X027724Y046301D02*
D03*
X027178Y047419D02*
D03*
X026638Y046299D02*
D03*
D51*
X034267Y046301D02*
D03*
D52*
X029299Y02105D02*
D03*
X019399D02*
D03*
X025403Y021054D02*
D03*
X0234Y021051D02*
D03*
X021399Y02105D02*
D03*
X027293Y021054D02*
D03*
X0192Y0463D02*
D03*
X0212D02*
D03*
X0378Y021077D02*
D03*
X043804Y021081D02*
D03*
X041801Y021078D02*
D03*
X0398Y021077D02*
D03*
D53*
X041826Y046276D02*
D03*
X043826D02*
D03*
X0398Y04625D02*
D03*
X033774Y021074D02*
D03*
X031774D02*
D03*
X0358Y0211D02*
D03*
D54*
X03865Y03595D02*
D03*
X03965D02*
D03*
D55*
X04065D02*
D03*
D56*
X03935Y0382D02*
D03*
D57*
X04035D02*
D03*
X04135D02*
D03*
X04235D02*
D03*
X03935Y0412D02*
D03*
X04035D02*
D03*
X04135D02*
D03*
X04235D02*
D03*
D58*
X0358Y04055D02*
D03*
Y04155D02*
D03*
Y03955D02*
D03*
X0328D02*
D03*
Y04055D02*
D03*
D59*
Y04155D02*
D03*
D60*
X02115Y04405D02*
D03*
D61*
X02015D02*
D03*
D62*
X014881Y04986D02*
D03*
X014831Y01836D02*
D03*
X048181D02*
D03*
X0483Y04995D02*
D03*
D63*
X01785Y04095D02*
D03*
X0226Y0354D02*
D03*
X01925Y0235D02*
D03*
X02602Y02353D02*
D03*
X0282Y02495D02*
D03*
X02365Y02485D02*
D03*
X0213Y02495D02*
D03*
X0236Y0235D02*
D03*
X02819D02*
D03*
X02135Y02355D02*
D03*
X026Y02495D02*
D03*
X0188Y02485D02*
D03*
X03625D02*
D03*
X03325Y0248D02*
D03*
X0418Y02485D02*
D03*
X03925D02*
D03*
X0448Y02495D02*
D03*
X0324Y0237D02*
D03*
X02745Y0305D02*
D03*
X0206Y0306D02*
D03*
X02285Y0305D02*
D03*
X0251Y03055D02*
D03*
X029621Y030579D02*
D03*
D64*
X02245Y03625D02*
D03*
X0233Y03545D02*
D03*
X0232Y0363D02*
D03*
M02*
