M48
;Layer_Color=9474304
;FILE_FORMAT=2:4
INCH,LZ
;TYPE=PLATED
T1F00S00C0.0236
T2F00S00C0.0280
T3F00S00C0.0300
T4F00S00C0.0310
T5F00S00C0.0315
T6F00S00C0.0354
T7F00S00C0.0429
T8F00S00C0.0600
T9F00S00C0.0650
T10F00S00C0.1252
T11F00S00C0.1378
%
T01
X02245Y03625
X0232Y0363
X0233Y03545
T02
X0324Y0237
X03325Y0248
X03625Y02485
X03925
X0418
X0448Y02495
X0282
X02819Y0235
X02602Y02353
X026Y02495
X02365Y02485
X0236Y0235
X02135Y02355
X0213Y02495
X0188Y02485
X01925Y0235
X0206Y0306
X02285Y0305
X0251Y03055
X02745Y0305
X029621Y030579
X0226Y0354
X01785Y04095
T03
X03865Y03595
X03965
X04065
T04
X03935Y0382
X04035
X04135
X04235
Y0412
X04135
X04035
X03935
T05
X0328Y03955
Y04055
Y04155
X0358Y04155
Y04055
Y03955
T06
X02015Y04405
X02115
T07
X026638Y046299
X027724Y046301
X028814
X029905
X030995
X032086
X033176
X034267
X033722Y047419
X032631
X031541Y047419
X03045Y047419
X029359
X028269Y047419
X027178Y047419
T08
X0378Y021077
X0398
X041801Y021078
X043804Y021081
X029299Y02105
X027293Y021054
X025403
X0234Y021051
X021399Y02105
X019399
X0192Y0463
X0212
T09
X031774Y021074
X033774
X0358Y0211
X0398Y04625
X041826Y046276
X043826
T10
X023891Y04686
X037009
T11
X048181Y01836
X014831
X0483Y04995
X014881Y04986
M30
