G04*
G04 #@! TF.GenerationSoftware,Altium Limited,Altium Designer,20.1.12 (249)*
G04*
G04 Layer_Physical_Order=1*
G04 Layer_Color=255*
%FSTAX24Y24*%
%MOIN*%
G70*
G04*
G04 #@! TF.SameCoordinates,16AA3A95-E13F-4B7F-BF52-5902ACF92DE2*
G04*
G04*
G04 #@! TF.FilePolarity,Positive*
G04*
G01*
G75*
%ADD17C,0.0100*%
G04:AMPARAMS|DCode=19|XSize=76mil|YSize=23.2mil|CornerRadius=2.9mil|HoleSize=0mil|Usage=FLASHONLY|Rotation=270.000|XOffset=0mil|YOffset=0mil|HoleType=Round|Shape=RoundedRectangle|*
%AMROUNDEDRECTD19*
21,1,0.0760,0.0174,0,0,270.0*
21,1,0.0702,0.0232,0,0,270.0*
1,1,0.0058,-0.0087,-0.0351*
1,1,0.0058,-0.0087,0.0351*
1,1,0.0058,0.0087,0.0351*
1,1,0.0058,0.0087,-0.0351*
%
%ADD19ROUNDEDRECTD19*%
%ADD20R,0.0550X0.0394*%
%ADD21R,0.0550X0.0500*%
%ADD22R,0.0945X0.1299*%
%ADD23R,0.0945X0.0394*%
%ADD24R,0.0394X0.0550*%
%ADD25R,0.0866X0.1024*%
%ADD26R,0.0550X0.0433*%
%ADD27R,0.0433X0.0550*%
%ADD28R,0.0591X0.0512*%
%ADD29R,0.0354X0.0374*%
%ADD30R,0.0472X0.0354*%
%ADD31R,0.0472X0.0354*%
%ADD32R,0.0500X0.0550*%
%ADD33R,0.0512X0.0591*%
%ADD65C,0.0591*%
%ADD66C,0.0394*%
%ADD67C,0.0787*%
%ADD68C,0.1890*%
%ADD69C,0.0665*%
%ADD70R,0.0665X0.0665*%
%ADD71O,0.1100X0.1200*%
%ADD72C,0.1300*%
%ADD73O,0.0650X0.0900*%
%ADD74R,0.0650X0.0900*%
%ADD75R,0.0600X0.0900*%
%ADD76O,0.0600X0.0900*%
%ADD77O,0.0900X0.0600*%
%ADD78R,0.0900X0.0600*%
%ADD79C,0.0591*%
%ADD80R,0.0591X0.0591*%
%ADD81C,0.1378*%
%ADD82C,0.0500*%
%ADD83C,0.0394*%
G36*
X031552Y048219D02*
X031559Y048141D01*
X031571Y048067D01*
X031587Y047997D01*
X031607Y04793D01*
X031632Y047867D01*
X031662Y047808D01*
X031696Y047752D01*
X031735Y0477D01*
X031778Y047652D01*
X031282Y047629D01*
X031314Y047673D01*
X031343Y047722D01*
X031368Y047776D01*
X03139Y047835D01*
X031408Y0479D01*
X031423Y047969D01*
X031435Y048044D01*
X031448Y04821D01*
X03145Y0483D01*
X03155D01*
X031552Y048219D01*
D02*
G37*
G36*
X028481Y047153D02*
X028453Y047106D01*
X028429Y047051D01*
X028408Y046987D01*
X02839Y046915D01*
X028376Y046835D01*
X028356Y04665D01*
X028352Y046544D01*
X02835Y046431D01*
X02825Y046421D01*
X028248Y046529D01*
X028231Y046724D01*
X028217Y04681D01*
X028198Y046889D01*
X028175Y046961D01*
X028148Y047026D01*
X028116Y047083D01*
X028081Y047134D01*
X028041Y047177D01*
X028512Y047191D01*
X028481Y047153D01*
D02*
G37*
G36*
X033934Y047153D02*
X033906Y047106D01*
X033882Y047051D01*
X033861Y046987D01*
X033843Y046915D01*
X033829Y046835D01*
X033809Y04665D01*
X033804Y046544D01*
X033803Y046431D01*
X033703Y046421D01*
X033701Y046529D01*
X033684Y046724D01*
X033669Y04681D01*
X03365Y046889D01*
X033627Y046961D01*
X0336Y047026D01*
X033569Y047083D01*
X033533Y047134D01*
X033494Y047177D01*
X033964Y047191D01*
X033934Y047153D01*
D02*
G37*
G36*
X032843D02*
X032816Y047106D01*
X032791Y047051D01*
X03277Y046987D01*
X032753Y046915D01*
X032738Y046835D01*
X032719Y04665D01*
X032714Y046544D01*
X032712Y046431D01*
X032612Y046421D01*
X03261Y046529D01*
X032593Y046724D01*
X032579Y04681D01*
X03256Y046889D01*
X032537Y046961D01*
X03251Y047026D01*
X032478Y047083D01*
X032443Y047134D01*
X032403Y047177D01*
X032874Y047191D01*
X032843Y047153D01*
D02*
G37*
G36*
X029571D02*
X029544Y047106D01*
X02952Y047051D01*
X029499Y046987D01*
X029481Y046915D01*
X029466Y046835D01*
X029447Y04665D01*
X029442Y046544D01*
X029441Y046431D01*
X029341Y046421D01*
X029338Y046529D01*
X029322Y046724D01*
X029307Y04681D01*
X029288Y046889D01*
X029265Y046961D01*
X029238Y047026D01*
X029207Y047083D01*
X029171Y047134D01*
X029131Y047177D01*
X029602Y047191D01*
X029571Y047153D01*
D02*
G37*
G36*
X03451Y045968D02*
X034476Y045965D01*
X034446Y04596D01*
X03442Y045953D01*
X034398Y045944D01*
X03438Y045933D01*
X034366Y04592D01*
X034356Y045905D01*
X03435Y045888D01*
X034348Y045869D01*
X034248D01*
X034246Y045888D01*
X03424Y045905D01*
X03423Y04592D01*
X034216Y045933D01*
X034198Y045944D01*
X034176Y045953D01*
X03415Y04596D01*
X03412Y045965D01*
X034086Y045968D01*
X034048Y045969D01*
X034548D01*
X03451Y045968D01*
D02*
G37*
G36*
X033388Y046035D02*
X033361Y045988D01*
X033337Y045932D01*
X033316Y045869D01*
X033298Y045797D01*
X033283Y045717D01*
X033264Y045531D01*
X033259Y045426D01*
X033257Y045313D01*
X033157Y045303D01*
X033155Y045411D01*
X033139Y045606D01*
X033124Y045692D01*
X033105Y045771D01*
X033082Y045843D01*
X033055Y045908D01*
X033024Y045965D01*
X032988Y046016D01*
X032948Y046059D01*
X033419Y046073D01*
X033388Y046035D01*
D02*
G37*
G36*
X032298D02*
X03227Y045988D01*
X032246Y045932D01*
X032225Y045869D01*
X032207Y045797D01*
X032193Y045717D01*
X032173Y045531D01*
X032169Y045426D01*
X032167Y045313D01*
X032067Y045303D01*
X032065Y045411D01*
X032048Y045606D01*
X032033Y045692D01*
X032015Y045771D01*
X031992Y045843D01*
X031964Y045908D01*
X031933Y045965D01*
X031897Y046016D01*
X031858Y046059D01*
X032329Y046073D01*
X032298Y046035D01*
D02*
G37*
G36*
X030117D02*
X030089Y045988D01*
X030065Y045932D01*
X030044Y045869D01*
X030026Y045797D01*
X030012Y045717D01*
X029992Y045531D01*
X029987Y045426D01*
X029986Y045313D01*
X029886Y045303D01*
X029884Y045411D01*
X029867Y045606D01*
X029852Y045692D01*
X029834Y045771D01*
X029811Y045843D01*
X029783Y045908D01*
X029752Y045965D01*
X029716Y046016D01*
X029677Y046059D01*
X030147Y046073D01*
X030117Y046035D01*
D02*
G37*
G36*
X029026D02*
X028999Y045988D01*
X028974Y045932D01*
X028953Y045869D01*
X028936Y045797D01*
X028921Y045717D01*
X028902Y045531D01*
X028897Y045426D01*
X028895Y045313D01*
X028795Y045303D01*
X028793Y045411D01*
X028776Y045606D01*
X028762Y045692D01*
X028743Y045771D01*
X02872Y045843D01*
X028693Y045908D01*
X028661Y045965D01*
X028626Y046016D01*
X028586Y046059D01*
X029057Y046073D01*
X029026Y046035D01*
D02*
G37*
G36*
X027936D02*
X027908Y045988D01*
X027884Y045932D01*
X027863Y045869D01*
X027845Y045797D01*
X027831Y045717D01*
X027811Y045531D01*
X027806Y045426D01*
X027805Y045313D01*
X027705Y045303D01*
X027703Y045411D01*
X027686Y045606D01*
X027671Y045692D01*
X027652Y045771D01*
X027629Y045843D01*
X027602Y045908D01*
X027571Y045965D01*
X027535Y046016D01*
X027496Y046059D01*
X027966Y046073D01*
X027936Y046035D01*
D02*
G37*
G36*
X044236Y045755D02*
X044191Y045674D01*
X044152Y045575D01*
X044118Y045457D01*
X044089Y04532D01*
X044065Y045165D01*
X044034Y044798D01*
X044023Y044357D01*
X043629D01*
X043627Y044587D01*
X043587Y045165D01*
X043564Y04532D01*
X043535Y045457D01*
X0435Y045575D01*
X043461Y045674D01*
X043416Y045755D01*
X043366Y045817D01*
X044286D01*
X044236Y045755D01*
D02*
G37*
G36*
X0359Y04835D02*
Y047131D01*
X035878Y047039D01*
X035864Y04686D01*
X035878Y046681D01*
X0359Y046589D01*
Y044044D01*
X035761D01*
X035755Y044045D01*
X035752Y044045D01*
Y0476D01*
X035733Y047696D01*
X035678Y047778D01*
X034978Y048478D01*
X034828Y048628D01*
X034746Y048683D01*
X03465Y048702D01*
X03165D01*
X031554Y048683D01*
X031472Y048628D01*
X031322Y048478D01*
X031267Y048396D01*
X031248Y0483D01*
Y048249D01*
X031248Y04822D01*
X031235Y048068D01*
X031226Y048006D01*
X031213Y047948D01*
X031199Y047897D01*
X031182Y047853D01*
X031165Y047814D01*
X031146Y047782D01*
X03112Y047747D01*
X031113Y047732D01*
X031078Y047686D01*
X031025Y047557D01*
X03102Y047526D01*
X03097D01*
X030966Y047557D01*
X030913Y047686D01*
X030828Y047797D01*
X030717Y047881D01*
X030588Y047935D01*
X03045Y047953D01*
X030312Y047935D01*
X030183Y047881D01*
X030072Y047797D01*
X029987Y047686D01*
X029934Y047557D01*
X02993Y047525D01*
X02988D01*
X029875Y047557D01*
X029822Y047686D01*
X029737Y047797D01*
X029626Y047881D01*
X029498Y047935D01*
X029359Y047953D01*
X029221Y047935D01*
X029092Y047881D01*
X028982Y047797D01*
X028897Y047686D01*
X028844Y047557D01*
X028839Y047526D01*
X028789D01*
X028785Y047557D01*
X028731Y047686D01*
X028647Y047797D01*
X028536Y047881D01*
X028407Y047935D01*
X028269Y047953D01*
X028131Y047935D01*
X028002Y047881D01*
X027891Y047797D01*
X027806Y047686D01*
X027753Y047557D01*
X027735Y047419D01*
X027753Y047281D01*
X027806Y047152D01*
X027891Y047041D01*
X027896Y047037D01*
X027924Y047007D01*
X027946Y046977D01*
X027966Y046939D01*
X027986Y046892D01*
X028004Y046836D01*
X028011Y046809D01*
X027968Y046773D01*
X027862Y046817D01*
X027724Y046835D01*
X027585Y046817D01*
X027457Y046763D01*
X027346Y046678D01*
X027261Y046568D01*
X027208Y046439D01*
X027206Y046424D01*
X027155D01*
X027154Y046437D01*
X0271Y046566D01*
X027015Y046676D01*
X026905Y046761D01*
X026776Y046815D01*
X026638Y046833D01*
X0265Y046815D01*
X026371Y046761D01*
X02626Y046676D01*
X026175Y046566D01*
X026122Y046437D01*
X026104Y046299D01*
X026122Y046161D01*
X026175Y046032D01*
X026179Y046027D01*
X026173Y04598D01*
Y042552D01*
X026117Y042496D01*
X023202D01*
X02317Y042492D01*
X022308D01*
X022276Y042496D01*
X021557D01*
Y042572D01*
X02073D01*
Y042199D01*
X020723Y042192D01*
X020673Y042214D01*
Y042475D01*
X020406D01*
Y0421D01*
Y041725D01*
X020647D01*
X020673Y041725D01*
X020697Y041685D01*
Y041268D01*
X020697Y041133D01*
X020691Y040949D01*
X020672D01*
Y040765D01*
X02067Y040751D01*
X020671Y040746D01*
X02067Y04074D01*
X020672Y040731D01*
Y040162D01*
X020997D01*
X021044Y040126D01*
X021121Y040094D01*
X021111Y040044D01*
X020672D01*
Y039256D01*
X021316D01*
X021342Y039253D01*
X022024D01*
X022025Y039253D01*
X02216Y039248D01*
X022206Y039243D01*
X022228Y039239D01*
Y03913D01*
X022413D01*
X022426Y039128D01*
X02244Y03913D01*
X022961D01*
X022974Y039128D01*
X022987Y03913D01*
X023172D01*
Y039239D01*
X023192Y039243D01*
X023302Y039251D01*
X023371Y039252D01*
X023373Y039253D01*
X0239D01*
X024003Y039266D01*
X024099Y039306D01*
X024167Y039359D01*
X024177Y039365D01*
X024298Y039479D01*
X024372Y039541D01*
X024464D01*
X024488Y039536D01*
X024567D01*
X024591Y039541D01*
X025369D01*
X025382Y039539D01*
X025387Y03954D01*
X025392Y039539D01*
X025402Y039541D01*
X02558D01*
Y039623D01*
X025603Y039628D01*
X025997Y039653D01*
X026107Y039543D01*
Y037246D01*
X024854Y035993D01*
X023751D01*
Y03665D01*
X023735Y036727D01*
X023692Y036792D01*
X023627Y036835D01*
X02355Y036851D01*
X0221D01*
X022023Y036835D01*
X021958Y036792D01*
X021915Y036727D01*
X021899Y03665D01*
Y03495D01*
X021915Y034873D01*
X021958Y034808D01*
X022023Y034765D01*
X0221Y034749D01*
X02355D01*
X023627Y034765D01*
X02369Y034807D01*
X0251D01*
X025216Y034818D01*
X025327Y034852D01*
X02543Y034907D01*
X02552Y03498D01*
X02712Y03658D01*
X027193Y03667D01*
X027248Y036773D01*
X027282Y036884D01*
X027293Y037D01*
Y039789D01*
X027282Y039905D01*
X027248Y040016D01*
X027193Y040118D01*
X02712Y040208D01*
X026658Y04067D01*
X026568Y040743D01*
X026466Y040798D01*
X026355Y040832D01*
X026239Y040843D01*
X026177D01*
X026173Y040844D01*
X025894Y040849D01*
X025684Y040862D01*
X025609Y040871D01*
X02558Y040877D01*
Y040959D01*
X025402D01*
X025392Y040961D01*
X025387Y04096D01*
X025382Y040961D01*
X025369Y040959D01*
X02432D01*
Y040813D01*
X024273Y040798D01*
X02417Y040743D01*
X02408Y04067D01*
X024007Y04058D01*
X023952Y040477D01*
X023918Y040366D01*
X023916Y040344D01*
X023912Y040334D01*
X023907Y040309D01*
X023901Y040291D01*
X023889Y040265D01*
X023871Y040232D01*
X023846Y040193D01*
X023816Y040152D01*
X023725Y040047D01*
X02337D01*
X023368Y040048D01*
X023366Y040047D01*
X023365Y040048D01*
X023327Y040047D01*
X022073D01*
X022035Y040048D01*
X022034Y040047D01*
X022033Y040048D01*
X02203Y040047D01*
X021531D01*
X021521Y040097D01*
X02159Y040126D01*
X021637Y040162D01*
X022011D01*
Y040726D01*
X022013Y040732D01*
X022012Y040742D01*
X022014Y040751D01*
X022011Y040765D01*
Y040949D01*
X021838D01*
X021832Y040951D01*
X021792Y040955D01*
X02178Y040959D01*
X021772Y040964D01*
X021761Y040975D01*
X021746Y040996D01*
X021729Y041034D01*
X021714Y041087D01*
X021701Y041157D01*
X021693Y041242D01*
X02169Y041331D01*
Y041504D01*
X022276D01*
X022308Y041508D01*
X02317D01*
X023202Y041504D01*
X026323D01*
X026451Y041521D01*
X026571Y04157D01*
X026674Y041649D01*
X02702Y041995D01*
X027099Y042098D01*
X027148Y042217D01*
X027165Y042346D01*
Y04598D01*
X027148Y046108D01*
X02714Y046128D01*
X027154Y046161D01*
X027156Y046175D01*
X027206D01*
X027208Y046163D01*
X027261Y046034D01*
X027346Y045923D01*
X027351Y045919D01*
X027379Y045889D01*
X0274Y045859D01*
X027421Y045821D01*
X027441Y045774D01*
X027459Y045717D01*
X027474Y045652D01*
X027487Y04558D01*
X027502Y045401D01*
X027503Y045352D01*
Y035859D01*
X025696Y034052D01*
X0207D01*
X020604Y034033D01*
X020522Y033978D01*
X019522Y032978D01*
X019467Y032896D01*
X019448Y0328D01*
Y029672D01*
X019306D01*
Y029487D01*
X019304Y029474D01*
X019304Y02947D01*
X019304Y029467D01*
X019306Y029456D01*
Y028946D01*
X019304Y028937D01*
X019305Y028932D01*
X019304Y028926D01*
X019306Y028913D01*
Y028728D01*
X019339D01*
X019387Y028722D01*
Y028545D01*
X019384Y028536D01*
X019385Y02853D01*
X019384Y028525D01*
X019387Y028511D01*
Y02799D01*
X019384Y027976D01*
X019385Y02797D01*
X019384Y027964D01*
X019387Y027955D01*
Y027788D01*
X019379Y027783D01*
X01937Y027774D01*
X019362Y027769D01*
X019357Y027766D01*
X019356Y027765D01*
X01935Y027761D01*
X019335Y027738D01*
X019325Y027727D01*
X01932Y027715D01*
X019314Y027707D01*
X019311Y027702D01*
X019311Y027702D01*
X0193Y027686D01*
X019283Y027598D01*
Y026896D01*
X0193Y026808D01*
X01935Y026733D01*
X019425Y026683D01*
X019513Y026666D01*
X019687D01*
X019775Y026683D01*
X01985Y026733D01*
X0199Y026808D01*
X019917Y026896D01*
Y027598D01*
X019912Y027623D01*
X019913Y027628D01*
X019908Y027645D01*
X019904Y027665D01*
X019902Y027699D01*
Y027775D01*
X019905Y027776D01*
X019917Y027778D01*
X020213D01*
Y028678D01*
X020213Y028722D01*
X020261Y028728D01*
X020994D01*
Y029174D01*
X020997Y0292D01*
Y030391D01*
X021035Y030483D01*
X021051Y0306D01*
X021035Y030717D01*
X02099Y030825D01*
X020919Y030919D01*
X020825Y03099D01*
X020717Y031035D01*
X0206Y031051D01*
X020483Y031035D01*
X020375Y03099D01*
X020281Y030919D01*
X02021Y030825D01*
X020165Y030717D01*
X020149Y0306D01*
X020165Y030483D01*
X020203Y030391D01*
Y0292D01*
X020206Y029174D01*
Y028772D01*
X020206Y028728D01*
X020159Y028722D01*
X020141D01*
X020094Y028728D01*
Y028913D01*
X020096Y028926D01*
X020096Y028929D01*
X020096Y028932D01*
X020094Y028943D01*
Y029456D01*
X020096Y029467D01*
X020096Y02947D01*
X020096Y029474D01*
X020094Y029487D01*
Y029672D01*
X019952D01*
Y032696D01*
X020804Y033548D01*
X022677D01*
X022696Y033502D01*
X021772Y032578D01*
X021717Y032496D01*
X021698Y0324D01*
Y029672D01*
X021556D01*
Y029487D01*
X021554Y029474D01*
X021554Y02947D01*
X021554Y029467D01*
X021556Y029456D01*
Y028946D01*
X021554Y028937D01*
X021555Y028932D01*
X021554Y028926D01*
X021556Y028913D01*
Y028728D01*
X021648D01*
Y028672D01*
X021643D01*
Y028492D01*
X021643Y028491D01*
X021643Y028488D01*
X02164Y028475D01*
X021643Y028461D01*
Y028459D01*
X021642Y028446D01*
X021643Y028444D01*
Y027956D01*
X021642Y027954D01*
X021643Y027941D01*
Y02794D01*
X02164Y027926D01*
X021643Y027913D01*
Y027912D01*
X021643Y02791D01*
X021643Y027908D01*
Y0278D01*
X021632Y027784D01*
X021621Y027772D01*
X021618Y027762D01*
X0216Y027736D01*
X021583Y027648D01*
Y026946D01*
X0216Y026858D01*
X02165Y026783D01*
X021725Y026733D01*
X021813Y026716D01*
X021987D01*
X022075Y026733D01*
X02215Y026783D01*
X0222Y026858D01*
X022217Y026946D01*
Y027648D01*
X022209Y02769D01*
X022241Y027728D01*
X02247D01*
Y028672D01*
X022162D01*
X022156Y028673D01*
X022152Y028673D01*
Y028726D01*
X022162Y028728D01*
X022344D01*
Y028913D01*
X022346Y028926D01*
X022346Y028929D01*
X022346Y028932D01*
X022344Y028943D01*
Y029456D01*
X022346Y029467D01*
X022346Y02947D01*
X022346Y029474D01*
X022344Y029487D01*
Y029672D01*
X022202D01*
Y032296D01*
X023104Y033198D01*
X024677D01*
X024696Y033152D01*
X024022Y032478D01*
X023967Y032396D01*
X023948Y0323D01*
Y029722D01*
X023806D01*
Y029537D01*
X023804Y029524D01*
X023804Y02952D01*
X023804Y029517D01*
X023806Y029506D01*
Y028993D01*
X023804Y028982D01*
X023804Y028979D01*
X023804Y028976D01*
X023806Y028963D01*
Y028778D01*
X023988D01*
X023998Y028776D01*
Y028722D01*
X023893D01*
Y028538D01*
X02389Y028524D01*
X023891Y028519D01*
X023891Y028514D01*
X023893Y028504D01*
Y027996D01*
X023891Y027986D01*
X023891Y027981D01*
X02389Y027976D01*
X023893Y027963D01*
Y027778D01*
X023998D01*
Y027708D01*
X023982Y027684D01*
X023971Y027672D01*
X023968Y027662D01*
X02395Y027636D01*
X023933Y027548D01*
Y026846D01*
X02395Y026758D01*
X024Y026683D01*
X024075Y026633D01*
X024163Y026616D01*
X024337D01*
X024355Y026619D01*
X024314Y026645D01*
X024447Y026648D01*
X0245Y026683D01*
X02455Y026758D01*
X024567Y026846D01*
Y027548D01*
X02455Y027636D01*
X024532Y027662D01*
X024529Y027672D01*
X024518Y027684D01*
X024502Y027708D01*
Y027775D01*
X024505Y027776D01*
X024517Y027778D01*
X02472D01*
Y028722D01*
X024512D01*
X024506Y028723D01*
X024502Y028723D01*
Y028778D01*
X024594D01*
Y028963D01*
X024596Y028976D01*
X024595Y028982D01*
X024596Y028987D01*
X024594Y028996D01*
Y029506D01*
X024596Y029517D01*
X024596Y02952D01*
X024596Y029524D01*
X024594Y029537D01*
Y029722D01*
X024452D01*
Y032196D01*
X025254Y032998D01*
X026527D01*
X026546Y032952D01*
X026372Y032778D01*
X026317Y032696D01*
X026298Y0326D01*
Y029722D01*
X026156D01*
Y029537D01*
X026154Y029524D01*
X026154Y02952D01*
X026154Y029517D01*
X026156Y029506D01*
Y028996D01*
X026154Y028987D01*
X026155Y028982D01*
X026154Y028976D01*
X026156Y028963D01*
Y028778D01*
X026248D01*
Y028722D01*
X026193D01*
Y028538D01*
X02619Y028524D01*
X026192Y028515D01*
X026191Y028506D01*
X026193Y0285D01*
Y028D01*
X026191Y027994D01*
X026192Y027985D01*
X02619Y027976D01*
X026193Y027963D01*
Y027778D01*
X026202D01*
X026224Y027746D01*
X026227Y027728D01*
X026221Y027722D01*
X026218Y027712D01*
X0262Y027686D01*
X026183Y027598D01*
Y026896D01*
X0262Y026808D01*
X02625Y026733D01*
X026325Y026683D01*
X026413Y026666D01*
X026587D01*
X026675Y026683D01*
X02675Y026733D01*
X0268Y026808D01*
X026817Y026896D01*
Y027598D01*
X0268Y027686D01*
X026782Y027712D01*
X026779Y027722D01*
X026773Y027728D01*
X026776Y027746D01*
X026798Y027778D01*
X02702D01*
Y028722D01*
X026762D01*
X026756Y028723D01*
X026752Y028723D01*
Y028776D01*
X026762Y028778D01*
X026944D01*
Y028963D01*
X026946Y028976D01*
X026946Y028979D01*
X026946Y028982D01*
X026944Y028993D01*
Y029506D01*
X026946Y029517D01*
X026946Y02952D01*
X026946Y029524D01*
X026944Y029537D01*
Y029722D01*
X026802D01*
Y032496D01*
X028337Y034031D01*
X028383Y034012D01*
Y029722D01*
X028241D01*
Y029537D01*
X028239Y029524D01*
X028239Y02952D01*
X028239Y029517D01*
X028241Y029506D01*
Y028995D01*
X028239Y028986D01*
X02824Y028981D01*
X028239Y028976D01*
X028241Y028963D01*
Y028778D01*
X028348D01*
Y028722D01*
X028293D01*
Y028538D01*
X02829Y028524D01*
X028292Y028515D01*
X028291Y028506D01*
X028293Y0285D01*
Y028D01*
X028291Y027994D01*
X028292Y027985D01*
X02829Y027976D01*
X028293Y027963D01*
Y027778D01*
X028306D01*
X028321Y027749D01*
X028324Y027728D01*
X02832Y027724D01*
X028312Y027719D01*
X028307Y027716D01*
X028307Y027715D01*
X0283Y027711D01*
X028285Y027688D01*
X028275Y027677D01*
X02827Y027665D01*
X028264Y027657D01*
X028261Y027652D01*
X028261Y027652D01*
X02825Y027636D01*
X028233Y027548D01*
Y026846D01*
X02825Y026758D01*
X0283Y026683D01*
X028375Y026633D01*
X028463Y026616D01*
X028637D01*
X028725Y026633D01*
X0288Y026683D01*
X02885Y026758D01*
X028867Y026846D01*
Y027548D01*
X028862Y027573D01*
X028863Y027578D01*
X028858Y027595D01*
X028854Y027615D01*
X028852Y027649D01*
Y027775D01*
X028855Y027776D01*
X028867Y027778D01*
X02912D01*
Y028722D01*
X028862D01*
X028856Y028723D01*
X028852Y028723D01*
Y028778D01*
X029029D01*
Y028963D01*
X029031Y028976D01*
X029031Y028979D01*
X029031Y028982D01*
X029029Y028993D01*
Y029506D01*
X029031Y029517D01*
X029031Y02952D01*
X029031Y029524D01*
X029029Y029537D01*
Y029722D01*
X028887D01*
Y033981D01*
X030114Y035208D01*
X030168Y035289D01*
X030188Y035386D01*
Y037441D01*
X030234Y03746D01*
X034548Y033146D01*
Y032195D01*
X034546Y032185D01*
X034526Y032146D01*
X034513Y032144D01*
X034328D01*
Y032002D01*
X034195D01*
X034195Y032005D01*
X034194Y032011D01*
Y032222D01*
X033406D01*
Y031278D01*
X034194D01*
Y031489D01*
X034195Y031495D01*
X034195Y031498D01*
X034328D01*
Y031356D01*
X034513D01*
X034526Y031354D01*
X034527Y031354D01*
X034527Y031354D01*
X03454Y031356D01*
X035272D01*
Y032144D01*
X035052D01*
Y032967D01*
X035102Y033008D01*
X035151Y032998D01*
X037396D01*
X037448Y032946D01*
Y032094D01*
X037278D01*
Y032002D01*
X037195D01*
X037195Y032005D01*
X037194Y032011D01*
Y032222D01*
X036406D01*
Y031278D01*
X037194D01*
Y031489D01*
X037195Y031495D01*
X037195Y031498D01*
X037276D01*
X037278Y031488D01*
Y031306D01*
X037463D01*
X037476Y031304D01*
X037479Y031304D01*
X037482Y031304D01*
X037493Y031306D01*
X038222D01*
Y032094D01*
X037962D01*
X037956Y032095D01*
X037952Y032095D01*
Y03305D01*
X037933Y033146D01*
X037927Y033154D01*
X037951Y033198D01*
X039746D01*
X040198Y032746D01*
Y032144D01*
X040078D01*
Y032002D01*
X039995D01*
X039995Y032005D01*
X039994Y032011D01*
Y032222D01*
X039206D01*
Y031278D01*
X039994D01*
Y031489D01*
X039995Y031495D01*
X039995Y031498D01*
X040078D01*
Y031356D01*
X040263D01*
X040276Y031354D01*
X04028Y031354D01*
X040283Y031354D01*
X040294Y031356D01*
X040956D01*
Y031278D01*
X040921Y031244D01*
X040078D01*
Y030456D01*
X040289D01*
X040295Y030455D01*
X040298Y030455D01*
Y030208D01*
X040282Y030184D01*
X040271Y030172D01*
X040268Y030162D01*
X04025Y030136D01*
X040233Y030048D01*
Y029346D01*
X04025Y029258D01*
X0403Y029183D01*
X040375Y029133D01*
X040463Y029116D01*
X040637D01*
X040725Y029133D01*
X0408Y029183D01*
X04085Y029258D01*
X040867Y029346D01*
Y030048D01*
X04085Y030136D01*
X040832Y030162D01*
X040829Y030172D01*
X040818Y030184D01*
X040802Y030208D01*
Y030455D01*
X040805Y030455D01*
X040811Y030456D01*
X040928D01*
Y030153D01*
X041872D01*
Y031047D01*
X041612D01*
X041606Y031048D01*
X041602Y031048D01*
Y031278D01*
X041744D01*
Y031463D01*
X041746Y031476D01*
X041746Y03148D01*
X041746Y031483D01*
X041744Y031494D01*
Y032222D01*
X040956D01*
Y032144D01*
X040712D01*
X040706Y032145D01*
X040702Y032145D01*
Y03285D01*
X040683Y032946D01*
X040628Y033028D01*
X040304Y033352D01*
X040323Y033398D01*
X042196D01*
X042948Y032646D01*
Y032144D01*
X042778D01*
Y032002D01*
X042645D01*
X042645Y032005D01*
X042644Y032011D01*
Y032222D01*
X041856D01*
Y031278D01*
X042644D01*
Y031489D01*
X042645Y031495D01*
X042645Y031498D01*
X042778D01*
Y031356D01*
X042963D01*
X042976Y031354D01*
X04298Y031354D01*
X042983Y031354D01*
X042994Y031356D01*
X043722D01*
Y032144D01*
X043462D01*
X043456Y032145D01*
X043452Y032145D01*
Y03275D01*
X043433Y032846D01*
X043378Y032928D01*
X042754Y033552D01*
X042773Y033598D01*
X045396D01*
X045798Y033196D01*
Y032144D01*
X045628D01*
Y032002D01*
X045545D01*
X045545Y032005D01*
X045544Y032011D01*
Y032222D01*
X045027D01*
X045003Y032227D01*
X044979Y032222D01*
X044756D01*
Y031999D01*
X044751Y031975D01*
X044756Y031951D01*
Y031278D01*
X045544D01*
Y031489D01*
X045545Y031495D01*
X045545Y031498D01*
X045628D01*
Y031356D01*
X04655D01*
X046572Y031356D01*
X0466Y031318D01*
Y031282D01*
X046572Y031244D01*
X04655Y031244D01*
X045628D01*
Y030456D01*
X045839D01*
X045845Y030455D01*
X045848Y030455D01*
Y030136D01*
X045848Y030126D01*
X045847Y030121D01*
X045842Y030095D01*
X045837Y030078D01*
X045838Y030073D01*
X045833Y030048D01*
Y029346D01*
X04585Y029258D01*
X0459Y029183D01*
X045975Y029133D01*
X046063Y029116D01*
X046237D01*
X046325Y029133D01*
X0464Y029183D01*
X04645Y029258D01*
X046467Y029346D01*
Y030048D01*
X04645Y030136D01*
X046439Y030152D01*
X046439Y030152D01*
X046436Y030157D01*
X04643Y030165D01*
X046425Y030177D01*
X046415Y030188D01*
X0464Y030211D01*
X046393Y030215D01*
X046393Y030216D01*
X046388Y030219D01*
X04638Y030224D01*
X046371Y030233D01*
X046354Y030245D01*
X046352Y030247D01*
Y03041D01*
X046401Y030456D01*
X046572Y030456D01*
X0466Y030418D01*
Y02905D01*
X04615Y0286D01*
X0314D01*
X03045Y02765D01*
Y0265D01*
X03005Y0261D01*
X025322D01*
X02525Y026055D01*
X025178Y0261D01*
X01925D01*
X0192Y02605D01*
X0168D01*
X01645Y0264D01*
Y0466D01*
X01895Y0491D01*
X03515D01*
X0359Y04835D01*
D02*
G37*
G36*
X034622Y048122D02*
X035248Y047496D01*
Y044094D01*
X035244Y044081D01*
X035226Y044046D01*
X035213Y044044D01*
X034887D01*
X034874Y044046D01*
X03487Y044046D01*
X034867Y044046D01*
X034856Y044044D01*
X034128D01*
Y043309D01*
X034097Y043272D01*
X034085Y043272D01*
X033203D01*
Y042328D01*
X033882D01*
X033893Y042326D01*
X033896Y042326D01*
X033899Y042325D01*
X033912Y042328D01*
X034097D01*
Y042328D01*
X034128Y042356D01*
X034313D01*
X034326Y042354D01*
X03433Y042354D01*
X034333Y042354D01*
X034344Y042356D01*
X034935D01*
X034954Y04231D01*
X034446Y041802D01*
X033448D01*
X033448Y041805D01*
X033447Y041811D01*
Y042047D01*
X032153D01*
Y041053D01*
X033447D01*
Y041289D01*
X033448Y041295D01*
X033448Y041298D01*
X0344D01*
Y03585D01*
X03435Y0358D01*
X0358Y03435D01*
X04615D01*
X0466Y0339D01*
Y032182D01*
X046572Y032144D01*
X04655Y032144D01*
X046312D01*
X046306Y032145D01*
X046302Y032145D01*
Y0333D01*
X046283Y033396D01*
X046228Y033478D01*
X045678Y034028D01*
X045596Y034083D01*
X0455Y034102D01*
X035504D01*
X031188Y038418D01*
Y042046D01*
X034476Y045334D01*
X034531Y045416D01*
X03455Y045512D01*
Y045769D01*
X034553Y045769D01*
X034565Y045771D01*
X034796D01*
Y04683D01*
X034071D01*
X034058Y046845D01*
X034041Y04688D01*
X034054Y046931D01*
X03407Y046979D01*
X034085Y047014D01*
X0341Y047039D01*
X034121Y047067D01*
X034127Y047078D01*
X034184Y047152D01*
X034238Y047281D01*
X034256Y047419D01*
X034238Y047557D01*
X034184Y047686D01*
X034099Y047797D01*
X033989Y047881D01*
X03386Y047935D01*
X033722Y047953D01*
X033583Y047935D01*
X033455Y047881D01*
X033344Y047797D01*
X033259Y047686D01*
X033206Y047557D01*
X033202Y047526D01*
X033151D01*
X033147Y047557D01*
X033094Y047686D01*
X033009Y047797D01*
X032898Y047881D01*
X032769Y047935D01*
X032631Y047953D01*
X032493Y047935D01*
X032364Y047881D01*
X032253Y047797D01*
X032169Y047686D01*
X032115Y047557D01*
X032111Y047525D01*
X032061D01*
X032056Y047557D01*
X032003Y047686D01*
X031932Y047779D01*
X031928Y047785D01*
X03192Y047794D01*
X031918Y047797D01*
X031917Y047797D01*
X031891Y047827D01*
X031862Y047865D01*
X031837Y047906D01*
X031816Y047949D01*
X031797Y047997D01*
X031781Y048049D01*
X031768Y048105D01*
X031761Y048148D01*
X031793Y048198D01*
X034546D01*
X034622Y048122D01*
D02*
G37*
G36*
X035552Y043926D02*
X035558Y043909D01*
X035568Y043894D01*
X035582Y043881D01*
X0356Y04387D01*
X035622Y043861D01*
X035648Y043854D01*
X035678Y043849D01*
X035712Y043845D01*
X03575Y043844D01*
X03525D01*
X035288Y043845D01*
X035322Y043849D01*
X035352Y043854D01*
X035378Y043861D01*
X0354Y04387D01*
X035418Y043881D01*
X035432Y043894D01*
X035442Y043909D01*
X035448Y043926D01*
X03545Y043946D01*
X03555D01*
X035552Y043926D01*
D02*
G37*
G36*
X035226Y043454D02*
X035225Y043482D01*
X035222Y043507D01*
X035217Y043529D01*
X03521Y043548D01*
X035201Y043564D01*
X03519Y043577D01*
X035177Y043587D01*
X035162Y043594D01*
X035145Y043599D01*
X035126Y0436D01*
Y0437D01*
X035145Y043701D01*
X035162Y043706D01*
X035177Y043713D01*
X03519Y043723D01*
X035201Y043736D01*
X03521Y043752D01*
X035217Y043771D01*
X035222Y043793D01*
X035225Y043818D01*
X035226Y043846D01*
Y043454D01*
D02*
G37*
G36*
X034875Y043818D02*
X034878Y043793D01*
X034883Y043771D01*
X03489Y043752D01*
X034899Y043736D01*
X03491Y043723D01*
X034923Y043713D01*
X034938Y043706D01*
X034955Y043701D01*
X034974Y0437D01*
Y0436D01*
X034955Y043599D01*
X034938Y043594D01*
X034923Y043587D01*
X03491Y043577D01*
X034899Y043564D01*
X03489Y043548D01*
X034883Y043529D01*
X034878Y043507D01*
X034875Y043482D01*
X034874Y043454D01*
Y043846D01*
X034875Y043818D01*
D02*
G37*
G36*
X034326Y042554D02*
X034325Y042582D01*
X034322Y042607D01*
X034317Y042629D01*
X03431Y042648D01*
X034301Y042664D01*
X03429Y042677D01*
X034277Y042687D01*
X034262Y042694D01*
X034245Y042699D01*
X034226Y0427D01*
Y0428D01*
X034245Y042801D01*
X034262Y042806D01*
X034277Y042813D01*
X03429Y042823D01*
X034301Y042836D01*
X03431Y042852D01*
X034317Y042871D01*
X034322Y042893D01*
X034325Y042918D01*
X034326Y042946D01*
Y042554D01*
D02*
G37*
G36*
X033899Y042962D02*
X033902Y042928D01*
X033907Y042898D01*
X033914Y042872D01*
X033923Y04285D01*
X033934Y042832D01*
X033947Y042818D01*
X033963Y042808D01*
X03398Y042802D01*
X033999Y0428D01*
Y0427D01*
X03398Y042698D01*
X033963Y042693D01*
X033948Y042684D01*
X033935Y042672D01*
X033924Y042657D01*
X033915Y042637D01*
X033908Y042615D01*
X033903Y042589D01*
X0339Y042559D01*
X033899Y042526D01*
X033898Y043D01*
X033899Y042962D01*
D02*
G37*
G36*
X03562Y042555D02*
X035605Y042553D01*
X035592Y042551D01*
X035581Y042547D01*
X035571Y042542D01*
X035564Y042536D01*
X035558Y042528D01*
X035553Y04252D01*
X035551Y042511D01*
X03555Y0425D01*
X03545D01*
X035449Y042511D01*
X035447Y04252D01*
X035442Y042528D01*
X035436Y042536D01*
X035429Y042542D01*
X035419Y042547D01*
X035408Y042551D01*
X035395Y042553D01*
X03538Y042555D01*
X035364Y042556D01*
X035636D01*
X03562Y042555D01*
D02*
G37*
G36*
X03835Y04295D02*
X038361Y042928D01*
X038381Y042909D01*
X038409Y042893D01*
X038444Y042879D01*
X038487Y042867D01*
X038539Y042858D01*
X038598Y042852D01*
X038733Y042847D01*
X038785Y042848D01*
X038963Y042859D01*
X039006Y042866D01*
X039041Y042875D01*
X039069Y042885D01*
X039089Y042896D01*
X0391Y042909D01*
X039104Y042924D01*
Y042376D01*
X0391Y042391D01*
X039089Y042404D01*
X039069Y042415D01*
X039041Y042425D01*
X039006Y042434D01*
X038963Y042441D01*
X038911Y042446D01*
X038785Y042452D01*
X038718Y042453D01*
X038665Y042453D01*
X03835Y042431D01*
X038346Y042426D01*
Y042505D01*
X038309Y042124D01*
X037878D01*
X037893Y042128D01*
X037905Y04214D01*
X037917Y042159D01*
X037926Y042187D01*
X037934Y042222D01*
X037941Y042266D01*
X03795Y042376D01*
X037953Y042518D01*
X038346D01*
Y042974D01*
X03835Y04295D01*
D02*
G37*
G36*
X041548Y0419D02*
X04156Y041719D01*
X041567Y041666D01*
X041586Y041574D01*
X041598Y041533D01*
X041612Y041497D01*
X041627Y041465D01*
X041183D01*
Y0408D01*
X041133Y040839D01*
X041083Y040873D01*
X041032Y040904D01*
X040981Y04093D01*
X040929Y040952D01*
X040876Y040971D01*
X04085Y040978D01*
X040824Y040971D01*
X040771Y040952D01*
X040719Y04093D01*
X040668Y040904D01*
X040617Y040873D01*
X040567Y040839D01*
X040517Y0408D01*
Y0416D01*
X040567Y041561D01*
X040617Y041527D01*
X040668Y041496D01*
X040719Y04147D01*
X040771Y041448D01*
X040824Y041429D01*
X04085Y041422D01*
X040876Y041429D01*
X040929Y041448D01*
X040981Y04147D01*
X041032Y041496D01*
X041083Y041527D01*
X041104Y041541D01*
X041114Y041574D01*
X041124Y041618D01*
X04114Y041719D01*
X041146Y041775D01*
X041153Y041969D01*
X041547D01*
X041548Y0419D01*
D02*
G37*
G36*
X033249Y041762D02*
X033252Y041728D01*
X033257Y041698D01*
X033264Y041672D01*
X033273Y04165D01*
X033284Y041632D01*
X033297Y041618D01*
X033312Y041608D01*
X03333Y041602D01*
X033349Y0416D01*
Y0415D01*
X03333Y041498D01*
X033312Y041492D01*
X033297Y041482D01*
X033284Y041468D01*
X033273Y04145D01*
X033264Y041428D01*
X033257Y041402D01*
X033252Y041372D01*
X033249Y041338D01*
X033248Y0413D01*
Y0418D01*
X033249Y041762D01*
D02*
G37*
G36*
X038316Y041572D02*
X038323Y041561D01*
X038328Y041542D01*
X038333Y041516D01*
X038337Y041482D01*
X038343Y041392D01*
X038344Y041374D01*
X038667Y041334D01*
X038952Y041361D01*
X038968Y041376D01*
X039079Y041493D01*
X039138Y041562D01*
X03916Y04138D01*
X039334Y041396D01*
Y041252D01*
X03935Y04125D01*
Y04115D01*
X039445Y041149D01*
X039492Y041144D01*
X039492Y041137D01*
X039445Y041127D01*
X03935Y041113D01*
X039334Y041112D01*
Y041004D01*
X039205Y04102D01*
X039235Y040773D01*
X03922Y040778D01*
X039199Y040784D01*
X039171Y040788D01*
X039094Y040796D01*
X038929Y040802D01*
X038786Y040803D01*
X038739Y040945D01*
Y040803D01*
X038665Y040802D01*
X038487Y040791D01*
X038444Y040784D01*
X038409Y040775D01*
X038381Y040765D01*
X038361Y040754D01*
X03835Y040741D01*
X038346Y040726D01*
Y040989D01*
X038346Y040988D01*
X038344Y04095D01*
X038345Y04102D01*
X038166Y041004D01*
Y041148D01*
X03815Y04115D01*
Y0412D01*
X037953D01*
X037952Y041271D01*
X037941Y041441D01*
X037934Y041482D01*
X037926Y041516D01*
X037917Y041542D01*
X037905Y041561D01*
X037893Y041572D01*
X037878Y041576D01*
X038309D01*
X038316Y041572D01*
D02*
G37*
G36*
X042632Y041412D02*
X042636Y041378D01*
X042642Y041348D01*
X04265Y041322D01*
X042661Y0413D01*
X042674Y041282D01*
X042689Y041268D01*
X042707Y041258D01*
X042728Y041252D01*
X04275Y04125D01*
Y04115D01*
X042728Y041148D01*
X042707Y041142D01*
X042689Y041132D01*
X042674Y041118D01*
X042661Y0411D01*
X04265Y041078D01*
X042642Y041052D01*
X042636Y041022D01*
X042632Y040988D01*
X042631Y04095D01*
Y04145D01*
X042632Y041412D01*
D02*
G37*
G36*
X043977Y04095D02*
X043976Y040988D01*
X043973Y041022D01*
X043968Y041052D01*
X043961Y041078D01*
X043952Y0411D01*
X043941Y041118D01*
X043928Y041132D01*
X043912Y041142D01*
X043895Y041148D01*
X043876Y04115D01*
Y04125D01*
X043895Y04125D01*
X043912Y041252D01*
X043927Y041254D01*
X04394Y041257D01*
X043951Y041261D01*
X04396Y041266D01*
X043967Y041272D01*
X043972Y041279D01*
X043975Y041287D01*
X043976Y041296D01*
X043977Y04095D01*
D02*
G37*
G36*
X043675Y041257D02*
X043678Y041256D01*
X043683Y041254D01*
X04369Y041253D01*
X043699Y041252D01*
X043738Y04125D01*
X043774Y04125D01*
Y04115D01*
X043755Y041148D01*
X043738Y041142D01*
X043723Y041132D01*
X043709Y041118D01*
X043698Y0411D01*
X043689Y041078D01*
X043682Y041052D01*
X043677Y041022D01*
X043674Y040988D01*
X043673Y04095D01*
X043674Y041259D01*
X043675Y041257D01*
D02*
G37*
G36*
X043126Y04095D02*
X043125Y040988D01*
X043122Y041022D01*
X043117Y041052D01*
X04311Y041078D01*
X043101Y0411D01*
X04309Y041118D01*
X043077Y041132D01*
X043062Y041142D01*
X043045Y041148D01*
X043026Y04115D01*
Y04125D01*
X043045Y04125D01*
X043117Y041254D01*
X043122Y041256D01*
X043125Y041257D01*
X043126Y041259D01*
Y04095D01*
D02*
G37*
G36*
X037056Y04077D02*
X037055Y040805D01*
X037047Y040931D01*
X037045Y040938D01*
X037042Y040941D01*
X037039Y04094D01*
X036984Y041026D01*
X036997Y041041D01*
X037009Y041059D01*
X03702Y041078D01*
X037029Y0411D01*
X037037Y041123D01*
X037043Y041149D01*
X037048Y041177D01*
X037052Y041207D01*
X037054Y041274D01*
X037056Y04077D01*
D02*
G37*
G36*
X021492Y04123D02*
X021502Y041129D01*
X021518Y041041D01*
X021541Y040964D01*
X02157Y040899D01*
X021606Y040846D01*
X021648Y040804D01*
X021696Y040775D01*
X021751Y040757D01*
X021813Y040751D01*
X02087D01*
X020876Y040757D01*
X020881Y040775D01*
X020885Y040804D01*
X020888Y040846D01*
X020897Y041129D01*
X020898Y041342D01*
X021489D01*
X021492Y04123D01*
D02*
G37*
G36*
X037752Y041264D02*
X037752Y041198D01*
X037753Y041196D01*
Y041D01*
X037756Y040974D01*
Y040528D01*
X038332D01*
X038346Y040525D01*
X038359Y040528D01*
X038372Y040527D01*
X038374Y040528D01*
X038544D01*
Y040593D01*
X038672Y040602D01*
X038741Y040602D01*
X038744Y040603D01*
X038782D01*
X038784Y040602D01*
X038925Y040601D01*
X039081Y040595D01*
X039145Y040589D01*
X039159Y040587D01*
X03916Y040587D01*
X039162Y040586D01*
X039167Y040585D01*
X039173Y040583D01*
X039173Y040583D01*
X039182Y040579D01*
X03919Y040579D01*
X03922Y040566D01*
X03935Y040549D01*
X03948Y040566D01*
X039601Y040616D01*
X039704Y040696D01*
X039784Y040799D01*
X039823Y040893D01*
X039877D01*
X039916Y040799D01*
X039996Y040696D01*
X040099Y040616D01*
X04022Y040566D01*
X04035Y040549D01*
X04048Y040566D01*
X040601Y040616D01*
X040624Y040634D01*
X04064Y040642D01*
X040685Y040677D01*
X040725Y040704D01*
X040765Y040728D01*
X040805Y040748D01*
X040844Y040765D01*
X04085Y040767D01*
X040856Y040765D01*
X040896Y040748D01*
X040935Y040728D01*
X040975Y040704D01*
X041015Y040677D01*
X04106Y040642D01*
X041076Y040634D01*
X041099Y040616D01*
X04122Y040566D01*
X04135Y040549D01*
X04148Y040566D01*
X041601Y040616D01*
X041704Y040696D01*
X041784Y040799D01*
X041823Y040893D01*
X041877D01*
X041916Y040799D01*
X041996Y040696D01*
X042099Y040616D01*
X04222Y040566D01*
X04235Y040549D01*
X04248Y040566D01*
X042601Y040616D01*
X042704Y040696D01*
X042784Y040799D01*
X04281Y040863D01*
X042814Y040868D01*
X042814Y040871D01*
X042816Y040874D01*
X042818Y04088D01*
X042834Y04092D01*
X042838Y040948D01*
X042926D01*
X042926Y040945D01*
X042928Y040933D01*
Y04063D01*
X043702D01*
X043727Y040608D01*
X043736Y04058D01*
X04373Y040573D01*
X04345D01*
Y040256D01*
Y040041D01*
X043674D01*
X043647Y040037D01*
X043622Y040025D01*
X043601Y040005D01*
X043582Y039978D01*
X043566Y039943D01*
X043565Y03994D01*
X043775D01*
X043778Y039891D01*
Y039806D01*
X043989D01*
X043995Y039805D01*
X043998Y039805D01*
Y035654D01*
X043496Y035152D01*
X039902D01*
Y035343D01*
X039979Y035416D01*
X040009Y035441D01*
X040012Y035445D01*
X040022Y035453D01*
X040078Y035526D01*
X040128Y035509D01*
Y035303D01*
X041172D01*
Y035539D01*
X041173Y035545D01*
X041173Y035548D01*
X041878D01*
Y035406D01*
X042063D01*
X042076Y035404D01*
X04208Y035404D01*
X042083Y035404D01*
X042094Y035406D01*
X042822D01*
Y036194D01*
X042094D01*
X042083Y036196D01*
X04208Y036196D01*
X042076Y036196D01*
X042063Y036194D01*
X041878D01*
Y036052D01*
X041173D01*
X041173Y036055D01*
X041172Y036061D01*
Y036597D01*
X040612D01*
X040606Y036598D01*
X040602Y036598D01*
Y037602D01*
X040665Y037662D01*
X040691Y037684D01*
X040695Y037688D01*
X040704Y037696D01*
X040784Y037799D01*
X040823Y037893D01*
X040877D01*
X040916Y037799D01*
X040996Y037696D01*
X041099Y037616D01*
X04122Y037566D01*
X04135Y037549D01*
X04148Y037566D01*
X041601Y037616D01*
X041704Y037696D01*
X041784Y037799D01*
X041834Y03792D01*
X041851Y03805D01*
Y03835D01*
X041834Y03848D01*
X041784Y038601D01*
X041704Y038704D01*
X041696Y038711D01*
X041693Y038715D01*
X041638Y038761D01*
X041602Y038796D01*
Y03935D01*
X041583Y039446D01*
X041528Y039528D01*
X041456Y0396D01*
X041374Y039654D01*
X041278Y039674D01*
X039872D01*
X039776Y039654D01*
X039694Y0396D01*
X039252Y039158D01*
X038822D01*
Y03932D01*
X038637D01*
X038624Y039322D01*
X038621Y039322D01*
X038617Y039322D01*
X038606Y03932D01*
X037878D01*
Y039272D01*
X037256D01*
Y038328D01*
X038044D01*
Y03845D01*
X038066Y038478D01*
X038094Y038491D01*
X038094Y038491D01*
X0381Y038493D01*
X038606D01*
X038617Y03849D01*
X038621Y038491D01*
X038624Y03849D01*
X038637Y038493D01*
X038822D01*
X038853Y038456D01*
Y037553D01*
X039083D01*
X039095Y037551D01*
X039098Y03755D01*
Y036447D01*
X039103Y036424D01*
X039056Y036403D01*
X039022Y036447D01*
X038913Y036531D01*
X038786Y036583D01*
X03865Y036601D01*
X038514Y036583D01*
X038387Y036531D01*
X038278Y036447D01*
X038194Y036338D01*
X038142Y036211D01*
X038124Y036075D01*
Y035825D01*
X038142Y035689D01*
X038194Y035562D01*
X038278Y035453D01*
X038387Y035369D01*
X038514Y035317D01*
X03865Y035299D01*
X038786Y035317D01*
X038913Y035369D01*
X039022Y035453D01*
X039106Y035562D01*
X039122Y0356D01*
X039141Y035606D01*
X039159D01*
X039178Y0356D01*
X039194Y035562D01*
X039278Y035453D01*
X039288Y035445D01*
X039291Y035441D01*
X039324Y035414D01*
X039375Y035369D01*
X039398Y035346D01*
Y035D01*
X039417Y034904D01*
X039424Y034894D01*
X0394Y03485D01*
X037822D01*
X037801Y034874D01*
X037812Y034931D01*
X03785Y03495D01*
X037753D01*
X03635D01*
X0351Y0362D01*
Y039538D01*
X03515Y039541D01*
X035166Y03942D01*
X035216Y039299D01*
X035296Y039196D01*
X035399Y039116D01*
X03552Y039066D01*
X03565Y039049D01*
X03595D01*
X03608Y039066D01*
X036201Y039116D01*
X036304Y039196D01*
X036306Y039198D01*
X036356Y039181D01*
Y039087D01*
X036354Y039074D01*
X036354Y03907D01*
X036354Y039067D01*
X036356Y039056D01*
Y038328D01*
X037144D01*
Y039056D01*
X037146Y039067D01*
X037146Y03907D01*
X037146Y039074D01*
X037144Y039087D01*
Y039272D01*
X037002D01*
Y039328D01*
X037144D01*
Y039513D01*
X037146Y039526D01*
X037146Y03953D01*
X037146Y039533D01*
X037144Y039544D01*
Y040272D01*
X036461D01*
X036453Y040296D01*
X036453Y040322D01*
X036528Y040372D01*
X03681Y040654D01*
X036856Y040635D01*
Y040528D01*
X037644D01*
Y041346D01*
X03768Y041378D01*
X037694Y041378D01*
X037744D01*
X037752Y041264D01*
D02*
G37*
G36*
X036188Y040731D02*
X036275Y040641D01*
X036292Y040626D01*
X036308Y040615D01*
X036322Y040606D01*
X036335Y040602D01*
X036345Y0406D01*
Y0405D01*
X036335Y040498D01*
X036322Y040494D01*
X036308Y040485D01*
X036292Y040474D01*
X036275Y040459D01*
X036256Y040442D01*
X036212Y040396D01*
X036162Y040338D01*
Y040762D01*
X036188Y040731D01*
D02*
G37*
G36*
X044462Y040005D02*
X044428Y040002D01*
X044398Y039996D01*
X044372Y039989D01*
X04435Y03998D01*
X044332Y039969D01*
X044318Y039956D01*
X044308Y039941D01*
X044302Y039924D01*
X0443Y039904D01*
X0442D01*
X044198Y039924D01*
X044192Y039941D01*
X044182Y039956D01*
X044168Y039969D01*
X04415Y03998D01*
X044128Y039989D01*
X044102Y039996D01*
X044072Y040002D01*
X044038Y040005D01*
X044Y040006D01*
X0445D01*
X044462Y040005D01*
D02*
G37*
G36*
X02539Y040738D02*
X025413Y040719D01*
X025453Y040701D01*
X025508Y040686D01*
X025579Y040673D01*
X025665Y040662D01*
X025886Y040648D01*
X026169Y040644D01*
Y039856D01*
X02602Y039855D01*
X025579Y039827D01*
X025508Y039814D01*
X025453Y039799D01*
X025413Y039781D01*
X02539Y039762D01*
X025382Y039739D01*
Y040761D01*
X02539Y040738D01*
D02*
G37*
G36*
X024546Y039859D02*
X024518Y039854D01*
Y039739D01*
X024518Y039739D01*
X024517Y039739D01*
X024515Y039739D01*
X024511Y039738D01*
X024488Y039738D01*
Y039838D01*
X024494Y039838D01*
X024499Y039839D01*
X024503Y03984D01*
X024507Y039842D01*
X024511Y039844D01*
X024513Y039847D01*
X024515Y03985D01*
X024517Y039853D01*
X024508Y039852D01*
X024468Y039838D01*
X024425Y039819D01*
X024379Y039793D01*
X024329Y039761D01*
X024277Y039724D01*
X024164Y039629D01*
X024039Y039511D01*
X023761Y039789D01*
X023823Y039853D01*
X023974Y040027D01*
X024011Y040079D01*
X024043Y040129D01*
X024069Y040175D01*
X024088Y040218D01*
X024102Y040258D01*
X024109Y040296D01*
X024546Y039859D01*
D02*
G37*
G36*
X036554Y039526D02*
X036946D01*
X036918Y039525D01*
X036893Y039522D01*
X036871Y039517D01*
X036852Y03951D01*
X036836Y039501D01*
X036823Y03949D01*
X036813Y039477D01*
X036806Y039462D01*
X036801Y039445D01*
X0368Y039426D01*
X0367D01*
X036699Y039445D01*
X036694Y039462D01*
X036687Y039477D01*
X036677Y03949D01*
X036664Y039501D01*
X036648Y03951D01*
X036629Y039517D01*
X036607Y039522D01*
X036582Y039525D01*
X036554Y039526D01*
X036553Y039531D01*
X03655Y039535D01*
X036545Y039538D01*
X036538Y039541D01*
X036529Y039544D01*
X036518Y039546D01*
X036505Y039548D01*
X036473Y03955D01*
X036454Y03955D01*
Y03965D01*
X036473Y039652D01*
X036491Y039658D01*
X036506Y039668D01*
X036519Y039682D01*
X03653Y0397D01*
X036539Y039722D01*
X036546Y039748D01*
X036551Y039778D01*
X036554Y039812D01*
X036556Y03985D01*
X036554Y039526D01*
D02*
G37*
G36*
X036181Y039741D02*
X036216Y039705D01*
X036234Y03969D01*
X036251Y039678D01*
X036268Y039668D01*
X036284Y03966D01*
X0363Y039654D01*
X036316Y039651D01*
X036332Y03965D01*
X03635Y03955D01*
X036338Y039548D01*
X036325Y039543D01*
X036311Y039535D01*
X036297Y039523D01*
X036282Y039508D01*
X036267Y03949D01*
X036251Y039468D01*
X036217Y039415D01*
X0362Y039383D01*
X036162Y039762D01*
X036181Y039741D01*
D02*
G37*
G36*
X023368Y039453D02*
X023293Y039452D01*
X023167Y039442D01*
X023116Y039433D01*
X023072Y039422D01*
X023037Y039408D01*
X023009Y039392D01*
X02299Y039373D01*
X022978Y039352D01*
X022974Y039328D01*
Y039759D01*
X022978Y039776D01*
X02299Y039791D01*
X023009Y039804D01*
X023037Y039815D01*
X023072Y039825D01*
X023116Y039833D01*
X023167Y039839D01*
X023293Y039846D01*
X023368Y039847D01*
Y039453D01*
D02*
G37*
G36*
X022107Y039846D02*
X022285Y039833D01*
X022328Y039825D01*
X022363Y039815D01*
X022391Y039804D01*
X022411Y039791D01*
X022422Y039776D01*
X022426Y039759D01*
Y039328D01*
X022422Y039352D01*
X022411Y039373D01*
X022391Y039392D01*
X022363Y039408D01*
X022328Y039422D01*
X022285Y039433D01*
X022233Y039442D01*
X022174Y039448D01*
X022033Y039453D01*
Y039847D01*
X022107Y039846D01*
D02*
G37*
G36*
X036801Y039155D02*
X036806Y039138D01*
X036813Y039123D01*
X036823Y03911D01*
X036836Y039099D01*
X036852Y03909D01*
X036871Y039083D01*
X036893Y039078D01*
X036918Y039075D01*
X036946Y039074D01*
X036554D01*
X036582Y039075D01*
X036607Y039078D01*
X036629Y039083D01*
X036648Y03909D01*
X036664Y039099D01*
X036677Y03911D01*
X036687Y039123D01*
X036694Y039138D01*
X036699Y039155D01*
X0367Y039174D01*
X0368D01*
X036801Y039155D01*
D02*
G37*
G36*
X038625Y03909D02*
X038628Y039062D01*
X038633Y039037D01*
X03864Y039016D01*
X038649Y038998D01*
X03866Y038983D01*
X038673Y038971D01*
X038688Y038963D01*
X038705Y038958D01*
X038724Y038956D01*
Y038856D01*
X038705Y038855D01*
X038688Y03885D01*
X038673Y038841D01*
X03866Y03883D01*
X038649Y038815D01*
X03864Y038797D01*
X038633Y038775D01*
X038628Y038751D01*
X038625Y038722D01*
X038624Y038691D01*
Y039122D01*
X038625Y03909D01*
D02*
G37*
G36*
X038076Y038691D02*
X038075Y038702D01*
X038072Y038712D01*
X038067Y038721D01*
X03806Y038729D01*
X038051Y038735D01*
X03804Y038741D01*
X038027Y038745D01*
X038012Y038748D01*
X037995Y038749D01*
X037976Y03875D01*
Y03885D01*
X037995Y038852D01*
X038012Y038858D01*
X038027Y038868D01*
X038041Y038882D01*
X038052Y0389D01*
X038061Y038922D01*
X038068Y038948D01*
X038073Y038978D01*
X038076Y039012D01*
X038077Y03905D01*
X038076Y038691D01*
D02*
G37*
G36*
X041402Y038735D02*
X041406Y038722D01*
X041415Y038708D01*
X041426Y038692D01*
X041441Y038675D01*
X041458Y038656D01*
X041504Y038612D01*
X041562Y038562D01*
X041138D01*
X041169Y038588D01*
X041259Y038675D01*
X041274Y038692D01*
X041285Y038708D01*
X041294Y038722D01*
X041298Y038735D01*
X0413Y038745D01*
X0414D01*
X041402Y038735D01*
D02*
G37*
G36*
X037845Y039012D02*
X037848Y038978D01*
X037854Y038948D01*
X037861Y038922D01*
X03787Y0389D01*
X037881Y038882D01*
X037894Y038868D01*
X037909Y038858D01*
X037926Y038852D01*
X037946Y03885D01*
Y03875D01*
X037926Y038748D01*
X037909Y038742D01*
X037894Y038732D01*
X037881Y038718D01*
X03787Y0387D01*
X037861Y038678D01*
X037854Y038652D01*
X037848Y038622D01*
X037845Y038588D01*
X037844Y03855D01*
Y03905D01*
X037845Y039012D01*
D02*
G37*
G36*
X040531Y037812D02*
X040441Y037725D01*
X040426Y037708D01*
X040415Y037692D01*
X040406Y037678D01*
X040402Y037665D01*
X0404Y037655D01*
X0403D01*
X040298Y037665D01*
X040294Y037678D01*
X040285Y037692D01*
X040274Y037708D01*
X040259Y037725D01*
X040242Y037744D01*
X040196Y037788D01*
X040138Y037838D01*
X040562D01*
X040531Y037812D01*
D02*
G37*
G36*
X039562Y03775D02*
X039528Y037747D01*
X039498Y037742D01*
X039472Y037735D01*
X03945Y037726D01*
X039432Y037715D01*
X039418Y037702D01*
X039408Y037687D01*
X039402Y03767D01*
X0394Y037651D01*
X0393D01*
X039298Y03767D01*
X039292Y037687D01*
X039282Y037702D01*
X039268Y037715D01*
X03925Y037726D01*
X039228Y037735D01*
X039202Y037742D01*
X039172Y037747D01*
X039138Y03775D01*
X0391Y037751D01*
X0396D01*
X039562Y03775D01*
D02*
G37*
G36*
X040402Y03648D02*
X040408Y036463D01*
X040418Y036448D01*
X040432Y036434D01*
X04045Y036423D01*
X040472Y036414D01*
X040498Y036407D01*
X040528Y036402D01*
X040562Y036399D01*
X0406Y036398D01*
X040326Y036399D01*
X0403Y036499D01*
X0404D01*
X040402Y03648D01*
D02*
G37*
G36*
X039444Y036425D02*
X039458Y036417D01*
X039474Y03641D01*
X039492Y036405D01*
X039512Y036401D01*
X039535Y036398D01*
X039561Y036397D01*
X039588Y036396D01*
X03965Y0364D01*
X039349Y036154D01*
Y0357D01*
X039337Y035738D01*
X039313Y035802D01*
X0393Y035828D01*
X039288Y03585D01*
X039275Y035868D01*
X039263Y035882D01*
X03925Y035892D01*
X039237Y035898D01*
X039225Y0359D01*
Y036D01*
X039237Y036002D01*
X03925Y036008D01*
X039263Y036018D01*
X039275Y036032D01*
X039288Y03605D01*
X0393Y036072D01*
X039313Y036098D01*
X039325Y036128D01*
X039342Y036179D01*
X039363Y036271D01*
X039365Y036296D01*
X039366Y036319D01*
X039365Y036338D01*
X039362Y036354D01*
X039357Y036367D01*
X03935Y036376D01*
X039433Y036435D01*
X039444Y036425D01*
D02*
G37*
G36*
X038963Y036162D02*
X038987Y036098D01*
X039Y036072D01*
X039012Y03605D01*
X039025Y036032D01*
X039037Y036018D01*
X03905Y036008D01*
X039063Y036002D01*
X039075Y036D01*
Y0359D01*
X039063Y035898D01*
X03905Y035892D01*
X039037Y035882D01*
X039025Y035868D01*
X039012Y03585D01*
X039Y035828D01*
X038987Y035802D01*
X038975Y035772D01*
X038951Y0357D01*
Y0362D01*
X038963Y036162D01*
D02*
G37*
G36*
X042076Y035604D02*
X042075Y035632D01*
X042072Y035657D01*
X042067Y035679D01*
X04206Y035698D01*
X042051Y035714D01*
X04204Y035727D01*
X042027Y035737D01*
X042012Y035744D01*
X041995Y035749D01*
X041976Y03575D01*
Y03585D01*
X041995Y035851D01*
X042012Y035856D01*
X042027Y035863D01*
X04204Y035873D01*
X042051Y035886D01*
X04206Y035902D01*
X042067Y035921D01*
X042072Y035943D01*
X042075Y035968D01*
X042076Y035996D01*
Y035604D01*
D02*
G37*
G36*
X040974Y036012D02*
X040977Y035978D01*
X040982Y035948D01*
X040989Y035922D01*
X040998Y0359D01*
X041009Y035882D01*
X041022Y035868D01*
X041037Y035858D01*
X041055Y035852D01*
X041074Y03585D01*
Y03575D01*
X041055Y035748D01*
X041037Y035742D01*
X041022Y035732D01*
X041009Y035718D01*
X040998Y0357D01*
X040989Y035678D01*
X040982Y035652D01*
X040977Y035622D01*
X040974Y035588D01*
X040973Y03555D01*
Y03605D01*
X040974Y036012D01*
D02*
G37*
G36*
X039846Y035566D02*
X039729Y035455D01*
X039716Y03544D01*
X039707Y035426D01*
X039702Y035414D01*
X0397Y035405D01*
X0396D01*
X039598Y035414D01*
X039593Y035426D01*
X039584Y03544D01*
X039571Y035455D01*
X039555Y035473D01*
X039512Y035516D01*
X039454Y035566D01*
X03942Y035595D01*
X03988D01*
X039846Y035566D01*
D02*
G37*
G36*
X02355Y03655D02*
Y03495D01*
X0221D01*
Y03665D01*
X02355D01*
Y03655D01*
D02*
G37*
G36*
X04545Y04785D02*
Y03485D01*
X043971D01*
X043952Y034896D01*
X044428Y035372D01*
X044483Y035454D01*
X044502Y03555D01*
Y039805D01*
X044505Y039805D01*
X044511Y039806D01*
X044722D01*
Y040594D01*
X043904D01*
X043872Y04063D01*
X043872Y040644D01*
Y040706D01*
X044722D01*
Y041494D01*
X044003D01*
X043999Y041495D01*
X043987Y041494D01*
X043976Y041496D01*
X043962Y041494D01*
X043778D01*
Y041457D01*
X043692D01*
X043691Y041457D01*
X043688Y041457D01*
X043675Y04146D01*
X043661Y041457D01*
X043659D01*
X043646Y041458D01*
X043644Y041457D01*
X043156D01*
X043154Y041458D01*
X043141Y041457D01*
X04314D01*
X043126Y04146D01*
X043113Y041457D01*
X043112D01*
X04311Y041457D01*
X043108Y041457D01*
X042928D01*
Y041452D01*
X042838D01*
X042834Y04148D01*
X042818Y04152D01*
X042816Y041526D01*
X042814Y041529D01*
X042814Y041532D01*
X04281Y041537D01*
X042784Y041601D01*
X042704Y041704D01*
X042601Y041784D01*
X04248Y041834D01*
X04235Y041851D01*
X04222Y041834D01*
X042099Y041784D01*
X041996Y041704D01*
X041916Y041601D01*
X041877Y041507D01*
X041823D01*
X041817Y041521D01*
X041813Y041542D01*
X04181Y041546D01*
X041809Y041551D01*
X041797Y041576D01*
X041789Y041598D01*
X041781Y041623D01*
X041765Y0417D01*
X04176Y041739D01*
X041748Y041908D01*
X041748Y041971D01*
X041747Y041973D01*
Y042086D01*
X042314Y042653D01*
X04305D01*
X043153Y042666D01*
X043249Y042706D01*
X043331Y042769D01*
X044107Y043545D01*
X04417Y043628D01*
X04421Y043723D01*
X044223Y043826D01*
Y04435D01*
X044224Y044352D01*
X044234Y044787D01*
X044265Y045141D01*
X044286Y045284D01*
X044313Y045408D01*
X044342Y04551D01*
X044373Y045588D01*
X044403Y045642D01*
X044442Y045691D01*
X044444Y045694D01*
X044534Y045803D01*
X044612Y045951D01*
X044661Y04611D01*
X044677Y046276D01*
X044661Y046442D01*
X044612Y046602D01*
X044534Y046749D01*
X044428Y046878D01*
X044299Y046984D01*
X044152Y047062D01*
X043992Y047111D01*
X043826Y047127D01*
X04366Y047111D01*
X043501Y047062D01*
X043353Y046984D01*
X043224Y046878D01*
X043119Y046749D01*
X04304Y046602D01*
X042992Y046442D01*
X042975Y046276D01*
X042992Y04611D01*
X04304Y045951D01*
X043119Y045803D01*
X043208Y045694D01*
X04321Y045691D01*
X043249Y045642D01*
X043279Y045588D01*
X04331Y04551D01*
X04334Y045408D01*
X043366Y045284D01*
X043388Y045143D01*
X043426Y044579D01*
X043429Y044354D01*
X043429Y044352D01*
Y043991D01*
X042886Y043447D01*
X04215D01*
X042047Y043434D01*
X041951Y043394D01*
X041869Y043331D01*
X041069Y042531D01*
X041006Y042449D01*
X040966Y042353D01*
X040953Y04225D01*
Y041978D01*
X040953Y041976D01*
X040946Y041789D01*
X040941Y041744D01*
X040929Y041669D01*
X040896Y041652D01*
X040856Y041635D01*
X04085Y041633D01*
X040844Y041635D01*
X040805Y041652D01*
X040765Y041672D01*
X040725Y041696D01*
X040685Y041723D01*
X04064Y041758D01*
X040624Y041766D01*
X040601Y041784D01*
X04048Y041834D01*
X04035Y041851D01*
X04022Y041834D01*
X040099Y041784D01*
X039996Y041704D01*
X039916Y041601D01*
X039877Y041507D01*
X039823D01*
X039784Y041601D01*
X039704Y041704D01*
X039601Y041784D01*
X03948Y041834D01*
X03935Y041851D01*
X03922Y041834D01*
X039099Y041784D01*
X038996Y041704D01*
X038989Y041695D01*
X038985Y041692D01*
X038929Y041627D01*
X03886Y041554D01*
X03867Y041536D01*
X038547Y041551D01*
Y042244D01*
X038672Y042252D01*
X038717Y042252D01*
X038779Y042252D01*
X038896Y042246D01*
X038906Y042245D01*
Y042178D01*
X039076D01*
X039078Y042177D01*
X039091Y042178D01*
X039104Y042175D01*
X039118Y042178D01*
X039694D01*
Y042624D01*
X039697Y04265D01*
X039694Y042676D01*
Y043122D01*
X039118D01*
X039104Y043125D01*
X039091Y043122D01*
X039078Y043123D01*
X039076Y043122D01*
X038906D01*
Y043057D01*
X038778Y043048D01*
X038736Y043048D01*
X038612Y043052D01*
X038567Y043057D01*
X038544Y043061D01*
Y043172D01*
X038359D01*
X038346Y043175D01*
X038332Y043172D01*
X038314D01*
X038313Y043172D01*
X038313Y043172D01*
X037756D01*
Y042726D01*
X037753Y0427D01*
Y042524D01*
X037752Y042522D01*
X03775Y042386D01*
X037744Y042322D01*
X03768D01*
Y042152D01*
X037679Y042148D01*
X03768Y042136D01*
X037678Y042124D01*
X03768Y042111D01*
Y04159D01*
X037678Y041576D01*
X03768Y041563D01*
X037679Y04155D01*
X03768Y041547D01*
X037659Y041523D01*
X03763Y041514D01*
X037623Y04152D01*
Y0418D01*
X03699D01*
X03699Y041475D01*
X036941Y041472D01*
X036856D01*
Y041293D01*
X036854Y041282D01*
X036851Y041227D01*
X036775D01*
X036679Y041208D01*
X036597Y041153D01*
X036355Y040911D01*
X036304Y040904D01*
X036201Y040984D01*
X036107Y041023D01*
Y041077D01*
X036201Y041116D01*
X036304Y041196D01*
X036384Y041299D01*
X036434Y04142D01*
X036451Y04155D01*
X036434Y04168D01*
X036384Y041801D01*
X036304Y041904D01*
X036278Y041925D01*
X036275Y041975D01*
X036739Y042439D01*
Y043439D01*
X0383Y045D01*
Y0477D01*
X039Y0484D01*
X0449D01*
X04545Y04785D01*
D02*
G37*
G36*
X046102Y032027D02*
X046108Y032009D01*
X046118Y031994D01*
X046132Y031981D01*
X04615Y03197D01*
X046172Y031961D01*
X046198Y031954D01*
X046228Y031949D01*
X046262Y031946D01*
X0463Y031944D01*
X045826Y031946D01*
X045859Y031947D01*
X045889Y03195D01*
X045915Y031955D01*
X045937Y031962D01*
X045957Y031971D01*
X045972Y031982D01*
X045984Y031995D01*
X045993Y03201D01*
X045998Y032027D01*
X046Y032046D01*
X0461D01*
X046102Y032027D01*
D02*
G37*
G36*
X043252D02*
X043258Y032009D01*
X043268Y031994D01*
X043282Y031981D01*
X0433Y03197D01*
X043322Y031961D01*
X043348Y031954D01*
X043378Y031949D01*
X043412Y031946D01*
X04345Y031944D01*
X042976Y031946D01*
X043009Y031947D01*
X043039Y03195D01*
X043065Y031955D01*
X043087Y031962D01*
X043107Y031971D01*
X043122Y031982D01*
X043134Y031995D01*
X043143Y03201D01*
X043148Y032027D01*
X04315Y032046D01*
X04325D01*
X043252Y032027D01*
D02*
G37*
G36*
X040502Y032027D02*
X040508Y032009D01*
X040518Y031994D01*
X040532Y031981D01*
X04055Y03197D01*
X040572Y031961D01*
X040598Y031954D01*
X040628Y031949D01*
X040662Y031946D01*
X0407Y031944D01*
X040276Y031946D01*
X0403Y031947D01*
X040321Y03195D01*
X040339Y031955D01*
X040355Y031962D01*
X040369Y031971D01*
X04038Y031982D01*
X040389Y031995D01*
X040395Y03201D01*
X040399Y032027D01*
X0404Y032046D01*
X0405D01*
X040502Y032027D01*
D02*
G37*
G36*
X034814Y031944D02*
X034852D01*
X034852Y031944D01*
X034853Y031944D01*
X034852Y031943D01*
X034851Y031941D01*
X034839Y031927D01*
X034835Y031923D01*
X034814Y031944D01*
X034722D01*
X034722Y031945D01*
X034722Y031946D01*
X034723Y031949D01*
X034726Y031952D01*
X034729Y031957D01*
X034747Y031976D01*
X034765Y031994D01*
X034814Y031944D01*
D02*
G37*
G36*
X037752Y031977D02*
X037758Y031959D01*
X037768Y031944D01*
X037782Y031931D01*
X0378Y03192D01*
X037822Y031911D01*
X037848Y031904D01*
X037878Y031899D01*
X037912Y031896D01*
X03795Y031894D01*
X037476Y031896D01*
X037509Y031897D01*
X037539Y0319D01*
X037565Y031905D01*
X037587Y031912D01*
X037607Y031921D01*
X037622Y031932D01*
X037634Y031945D01*
X037643Y03196D01*
X037648Y031977D01*
X03765Y031996D01*
X03775D01*
X037752Y031977D01*
D02*
G37*
G36*
X042976Y031554D02*
X042975Y031582D01*
X042972Y031607D01*
X042967Y031629D01*
X04296Y031648D01*
X042951Y031664D01*
X04294Y031677D01*
X042927Y031687D01*
X042912Y031694D01*
X042895Y031699D01*
X042876Y0317D01*
Y0318D01*
X042895Y031801D01*
X042912Y031806D01*
X042927Y031813D01*
X04294Y031823D01*
X042951Y031836D01*
X04296Y031852D01*
X042967Y031871D01*
X042972Y031893D01*
X042975Y031918D01*
X042976Y031946D01*
Y031554D01*
D02*
G37*
G36*
X040276D02*
X040275Y031582D01*
X040272Y031607D01*
X040267Y031629D01*
X04026Y031648D01*
X040251Y031664D01*
X04024Y031677D01*
X040227Y031687D01*
X040212Y031694D01*
X040195Y031699D01*
X040176Y0317D01*
Y0318D01*
X040195Y031801D01*
X040212Y031806D01*
X040227Y031813D01*
X04024Y031823D01*
X040251Y031836D01*
X04026Y031852D01*
X040267Y031871D01*
X040272Y031893D01*
X040275Y031918D01*
X040276Y031946D01*
Y031554D01*
D02*
G37*
G36*
X034526D02*
X034526Y031588D01*
X034519Y031698D01*
X034517Y031708D01*
X034514Y031714D01*
X034511Y031716D01*
X034507Y031715D01*
X034455Y031804D01*
X034469Y031819D01*
X034481Y031833D01*
X034492Y031847D01*
X034501Y031861D01*
X034509Y031875D01*
X034515Y031889D01*
X03452Y031903D01*
X034523Y031917D01*
X034525Y031932D01*
X034526Y031946D01*
Y031554D01*
D02*
G37*
G36*
X037476Y031504D02*
X037475Y031542D01*
X037472Y031575D01*
X037467Y031604D01*
X03746Y03163D01*
X037451Y031651D01*
X03744Y031669D01*
X037427Y031682D01*
X037412Y031692D01*
X037395Y031698D01*
X037376Y0317D01*
Y0318D01*
X037395Y031801D01*
X037412Y031804D01*
X037427Y031809D01*
X03744Y031815D01*
X037451Y031824D01*
X03746Y031834D01*
X037467Y031847D01*
X037472Y031861D01*
X037475Y031877D01*
X037476Y031896D01*
Y031504D01*
D02*
G37*
G36*
X042445Y031962D02*
X042449Y031928D01*
X042454Y031898D01*
X042461Y031872D01*
X04247Y03185D01*
X042481Y031832D01*
X042494Y031818D01*
X042509Y031808D01*
X042526Y031802D01*
X042546Y0318D01*
Y0317D01*
X042526Y031698D01*
X042509Y031692D01*
X042494Y031682D01*
X042481Y031668D01*
X04247Y03165D01*
X042461Y031628D01*
X042454Y031602D01*
X042449Y031572D01*
X042445Y031538D01*
X042444Y0315D01*
Y032D01*
X042445Y031962D01*
D02*
G37*
G36*
X039795D02*
X039799Y031928D01*
X039804Y031898D01*
X039811Y031872D01*
X03982Y03185D01*
X039831Y031832D01*
X039844Y031818D01*
X039859Y031808D01*
X039876Y031802D01*
X039896Y0318D01*
Y0317D01*
X039876Y031698D01*
X039859Y031692D01*
X039844Y031682D01*
X039831Y031668D01*
X03982Y03165D01*
X039811Y031628D01*
X039804Y031602D01*
X039799Y031572D01*
X039795Y031538D01*
X039794Y0315D01*
Y032D01*
X039795Y031962D01*
D02*
G37*
G36*
X045345Y031962D02*
X045349Y031928D01*
X045354Y031898D01*
X045361Y031872D01*
X04537Y03185D01*
X045381Y031832D01*
X045394Y031818D01*
X045409Y031808D01*
X045426Y031802D01*
X045446Y0318D01*
Y0317D01*
X045426Y031698D01*
X045409Y031692D01*
X045394Y031682D01*
X045381Y031668D01*
X04537Y03165D01*
X045361Y031628D01*
X045354Y031602D01*
X045349Y031572D01*
X045345Y031538D01*
X045344Y0315D01*
Y032D01*
X045345Y031962D01*
D02*
G37*
G36*
X036995D02*
X036999Y031928D01*
X037004Y031898D01*
X037011Y031872D01*
X03702Y03185D01*
X037031Y031832D01*
X037044Y031818D01*
X037059Y031808D01*
X037076Y031802D01*
X037096Y0318D01*
Y0317D01*
X037076Y031698D01*
X037059Y031692D01*
X037044Y031682D01*
X037031Y031668D01*
X03702Y03165D01*
X037011Y031628D01*
X037004Y031602D01*
X036999Y031572D01*
X036995Y031538D01*
X036994Y0315D01*
Y032D01*
X036995Y031962D01*
D02*
G37*
G36*
X033995D02*
X033999Y031928D01*
X034004Y031898D01*
X034011Y031872D01*
X03402Y03185D01*
X034031Y031832D01*
X034044Y031818D01*
X034059Y031808D01*
X034076Y031802D01*
X034096Y0318D01*
Y0317D01*
X034076Y031698D01*
X034059Y031692D01*
X034044Y031682D01*
X034031Y031668D01*
X03402Y03165D01*
X034011Y031628D01*
X034004Y031602D01*
X033999Y031572D01*
X033995Y031538D01*
X033994Y0315D01*
Y032D01*
X033995Y031962D01*
D02*
G37*
G36*
X041518Y031475D02*
X041493Y031472D01*
X041471Y031467D01*
X041452Y03146D01*
X041436Y031451D01*
X041423Y03144D01*
X041413Y031427D01*
X041406Y031412D01*
X041401Y031395D01*
X0414Y031376D01*
X0413D01*
X041299Y031395D01*
X041294Y031412D01*
X041287Y031427D01*
X041277Y03144D01*
X041264Y031451D01*
X041248Y03146D01*
X041229Y031467D01*
X041207Y031472D01*
X041182Y031475D01*
X041154Y031476D01*
X041546D01*
X041518Y031475D01*
D02*
G37*
G36*
X041402Y03093D02*
X041408Y030913D01*
X041418Y030897D01*
X041432Y030884D01*
X04145Y030873D01*
X041472Y030864D01*
X041498Y030857D01*
X041528Y030852D01*
X041562Y030849D01*
X0416Y030848D01*
X041126Y030849D01*
X041159Y03085D01*
X041189Y030853D01*
X041215Y030858D01*
X041237Y030865D01*
X041257Y030874D01*
X041272Y030885D01*
X041284Y030898D01*
X041293Y030913D01*
X041298Y03093D01*
X0413Y030949D01*
X0414D01*
X041402Y03093D01*
D02*
G37*
G36*
X046312Y030655D02*
X046278Y030652D01*
X046248Y030646D01*
X046222Y030639D01*
X0462Y03063D01*
X046182Y030619D01*
X046168Y030606D01*
X046158Y030591D01*
X046152Y030574D01*
X04615Y030554D01*
X04605D01*
X046048Y030574D01*
X046042Y030591D01*
X046032Y030606D01*
X046018Y030619D01*
X046Y03063D01*
X045978Y030639D01*
X045952Y030646D01*
X045922Y030652D01*
X045888Y030655D01*
X04585Y030656D01*
X04635D01*
X046312Y030655D01*
D02*
G37*
G36*
X040762D02*
X040728Y030652D01*
X040698Y030646D01*
X040672Y030639D01*
X04065Y03063D01*
X040632Y030619D01*
X040618Y030606D01*
X040608Y030591D01*
X040602Y030574D01*
X0406Y030554D01*
X0405D01*
X040498Y030574D01*
X040492Y030591D01*
X040482Y030606D01*
X040468Y030619D01*
X04045Y03063D01*
X040428Y030639D01*
X040402Y030646D01*
X040372Y030652D01*
X040338Y030655D01*
X0403Y030656D01*
X0408D01*
X040762Y030655D01*
D02*
G37*
G36*
X040601Y030162D02*
X040602Y030149D01*
X040605Y030137D01*
X040609Y030125D01*
X040614Y030114D01*
X040621Y030103D01*
X040628Y030094D01*
X040637Y030084D01*
X040646Y030076D01*
X040657Y030068D01*
X040443D01*
X040454Y030076D01*
X040463Y030084D01*
X040472Y030094D01*
X040479Y030103D01*
X040486Y030114D01*
X040491Y030125D01*
X040495Y030137D01*
X040498Y030149D01*
X040499Y030162D01*
X0405Y030176D01*
X0406D01*
X040601Y030162D01*
D02*
G37*
G36*
X046151Y030168D02*
X046154Y03016D01*
X04616Y030151D01*
X046167Y030141D01*
X046177Y030131D01*
X046189Y03012D01*
X046203Y030108D01*
X046237Y030082D01*
X046257Y030068D01*
X046037Y030059D01*
X046039Y030063D01*
X046041Y03007D01*
X046043Y030077D01*
X046045Y030086D01*
X046048Y030109D01*
X046049Y030138D01*
X04605Y030173D01*
X04615Y030176D01*
X046151Y030168D01*
D02*
G37*
G36*
X028686Y029605D02*
X028691Y029588D01*
X028698Y029573D01*
X028708Y02956D01*
X028721Y029549D01*
X028737Y02954D01*
X028756Y029533D01*
X028778Y029528D01*
X028803Y029525D01*
X028831Y029524D01*
X028439D01*
X028467Y029525D01*
X028492Y029528D01*
X028514Y029533D01*
X028533Y02954D01*
X028549Y029549D01*
X028562Y02956D01*
X028572Y029573D01*
X028579Y029588D01*
X028584Y029605D01*
X028585Y029624D01*
X028685D01*
X028686Y029605D01*
D02*
G37*
G36*
X026601D02*
X026606Y029588D01*
X026613Y029573D01*
X026623Y02956D01*
X026636Y029549D01*
X026652Y02954D01*
X026671Y029533D01*
X026693Y029528D01*
X026718Y029525D01*
X026746Y029524D01*
X026354D01*
X026382Y029525D01*
X026407Y029528D01*
X026429Y029533D01*
X026448Y02954D01*
X026464Y029549D01*
X026477Y02956D01*
X026487Y029573D01*
X026494Y029588D01*
X026499Y029605D01*
X0265Y029624D01*
X0266D01*
X026601Y029605D01*
D02*
G37*
G36*
X024251D02*
X024256Y029588D01*
X024263Y029573D01*
X024273Y02956D01*
X024286Y029549D01*
X024302Y02954D01*
X024321Y029533D01*
X024343Y029528D01*
X024368Y029525D01*
X024396Y029524D01*
X024004D01*
X024032Y029525D01*
X024057Y029528D01*
X024079Y029533D01*
X024098Y02954D01*
X024114Y029549D01*
X024127Y02956D01*
X024137Y029573D01*
X024144Y029588D01*
X024149Y029605D01*
X02415Y029624D01*
X02425D01*
X024251Y029605D01*
D02*
G37*
G36*
X022001Y029555D02*
X022006Y029538D01*
X022013Y029523D01*
X022023Y02951D01*
X022036Y029499D01*
X022052Y02949D01*
X022071Y029483D01*
X022093Y029478D01*
X022118Y029475D01*
X022146Y029474D01*
X021754D01*
X021782Y029475D01*
X021807Y029478D01*
X021829Y029483D01*
X021848Y02949D01*
X021864Y029499D01*
X021877Y02951D01*
X021887Y029523D01*
X021894Y029538D01*
X021899Y029555D01*
X0219Y029574D01*
X022D01*
X022001Y029555D01*
D02*
G37*
G36*
X019751D02*
X019756Y029538D01*
X019763Y029523D01*
X019773Y02951D01*
X019786Y029499D01*
X019802Y02949D01*
X019821Y029483D01*
X019843Y029478D01*
X019868Y029475D01*
X019896Y029474D01*
X019504D01*
X019532Y029475D01*
X019557Y029478D01*
X019579Y029483D01*
X019598Y02949D01*
X019614Y029499D01*
X019627Y02951D01*
X019637Y029523D01*
X019644Y029538D01*
X019649Y029555D01*
X01965Y029574D01*
X01975D01*
X019751Y029555D01*
D02*
G37*
G36*
X028796Y028975D02*
X028766Y028972D01*
X028739Y028967D01*
X028715Y02896D01*
X028695Y028951D01*
X028679Y02894D01*
X028666Y028927D01*
X028657Y028912D01*
X028652Y028895D01*
X02865Y028876D01*
X02855D01*
X028549Y028895D01*
X028546Y028912D01*
X02854Y028927D01*
X028532Y02894D01*
X028522Y028951D01*
X02851Y02896D01*
X028496Y028967D01*
X028479Y028972D01*
X02846Y028975D01*
X028439Y028976D01*
X028831D01*
X028796Y028975D01*
D02*
G37*
G36*
X026708D02*
X026675Y028972D01*
X026646Y028967D01*
X02662Y02896D01*
X026599Y028951D01*
X026581Y02894D01*
X026568Y028927D01*
X026558Y028912D01*
X026552Y028895D01*
X02655Y028876D01*
X02645D01*
X026449Y028895D01*
X026446Y028912D01*
X026441Y028927D01*
X026435Y02894D01*
X026426Y028951D01*
X026416Y02896D01*
X026403Y028967D01*
X026389Y028972D01*
X026373Y028975D01*
X026354Y028976D01*
X026746D01*
X026708Y028975D01*
D02*
G37*
G36*
X024377D02*
X024361Y028972D01*
X024347Y028967D01*
X024334Y02896D01*
X024324Y028951D01*
X024315Y02894D01*
X024309Y028927D01*
X024304Y028912D01*
X024301Y028895D01*
X0243Y028876D01*
X0242D01*
X024198Y028895D01*
X024192Y028912D01*
X024182Y028927D01*
X024169Y02894D01*
X024151Y028951D01*
X02413Y02896D01*
X024104Y028967D01*
X024075Y028972D01*
X024042Y028975D01*
X024004Y028976D01*
X024396D01*
X024377Y028975D01*
D02*
G37*
G36*
X022108Y028925D02*
X022075Y028922D01*
X022046Y028917D01*
X02202Y02891D01*
X021999Y028901D01*
X021981Y02889D01*
X021968Y028877D01*
X021958Y028862D01*
X021952Y028845D01*
X02195Y028826D01*
X02185D01*
X021849Y028845D01*
X021846Y028862D01*
X021841Y028877D01*
X021835Y02889D01*
X021826Y028901D01*
X021816Y02891D01*
X021803Y028917D01*
X021789Y028922D01*
X021773Y028925D01*
X021754Y028926D01*
X022146D01*
X022108Y028925D01*
D02*
G37*
G36*
X019858D02*
X019825Y028922D01*
X019796Y028917D01*
X01977Y02891D01*
X019749Y028901D01*
X019731Y02889D01*
X019718Y028877D01*
X019708Y028862D01*
X019702Y028845D01*
X0197Y028826D01*
X0196D01*
X019599Y028845D01*
X019596Y028862D01*
X019591Y028877D01*
X019585Y02889D01*
X019576Y028901D01*
X019566Y02891D01*
X019553Y028917D01*
X019539Y028922D01*
X019523Y028925D01*
X019504Y028926D01*
X019896D01*
X019858Y028925D01*
D02*
G37*
G36*
X028652Y028605D02*
X028658Y028588D01*
X028668Y028572D01*
X028682Y028559D01*
X0287Y028548D01*
X028722Y028539D01*
X028748Y028532D01*
X028778Y028527D01*
X028812Y028524D01*
X02885Y028523D01*
X028491Y028524D01*
X028502Y028525D01*
X028512Y028528D01*
X028521Y028533D01*
X028529Y02854D01*
X028535Y028549D01*
X028541Y02856D01*
X028545Y028573D01*
X028548Y028588D01*
X028549Y028605D01*
X02855Y028624D01*
X02865D01*
X028652Y028605D01*
D02*
G37*
G36*
X026552D02*
X026558Y028588D01*
X026568Y028572D01*
X026582Y028559D01*
X0266Y028548D01*
X026622Y028539D01*
X026648Y028532D01*
X026678Y028527D01*
X026712Y028524D01*
X02675Y028523D01*
X026391Y028524D01*
X026402Y028525D01*
X026412Y028528D01*
X026421Y028533D01*
X026429Y02854D01*
X026435Y028549D01*
X026441Y02856D01*
X026445Y028573D01*
X026448Y028588D01*
X026449Y028605D01*
X02645Y028624D01*
X02655D01*
X026552Y028605D01*
D02*
G37*
G36*
X024302Y028605D02*
X024308Y028588D01*
X024318Y028572D01*
X024332Y028559D01*
X02435Y028548D01*
X024372Y028539D01*
X024398Y028532D01*
X024428Y028527D01*
X024462Y028524D01*
X0245Y028523D01*
X024091Y028524D01*
X024112Y028525D01*
X02413Y028528D01*
X024147Y028533D01*
X024161Y02854D01*
X024173Y028549D01*
X024183Y02856D01*
X02419Y028573D01*
X024196Y028588D01*
X024199Y028605D01*
X0242Y028624D01*
X0243D01*
X024302Y028605D01*
D02*
G37*
G36*
X019702Y028605D02*
X019708Y028588D01*
X019718Y028573D01*
X019732Y028559D01*
X01975Y028548D01*
X019772Y028539D01*
X019798Y028532D01*
X019828Y028527D01*
X019862Y028524D01*
X0199Y028523D01*
X019585Y028524D01*
X019588Y028525D01*
X01959Y028528D01*
X019592Y028533D01*
X019594Y02854D01*
X019596Y028549D01*
X019598Y02856D01*
X019599Y028588D01*
X0196Y028624D01*
X0197D01*
X019702Y028605D01*
D02*
G37*
G36*
X021952Y028555D02*
X021958Y028538D01*
X021968Y028523D01*
X021982Y028509D01*
X022Y028498D01*
X022022Y028489D01*
X022048Y028482D01*
X022078Y028477D01*
X022112Y028474D01*
X02215Y028473D01*
X021841Y028474D01*
X021843Y028475D01*
X021844Y028478D01*
X021846Y028483D01*
X021847Y02849D01*
X021848Y028499D01*
X02185Y028538D01*
X02185Y028574D01*
X02195D01*
X021952Y028555D01*
D02*
G37*
G36*
X028812Y027975D02*
X028778Y027972D01*
X028748Y027967D01*
X028722Y02796D01*
X0287Y027951D01*
X028682Y02794D01*
X028668Y027927D01*
X028658Y027912D01*
X028652Y027895D01*
X02865Y027876D01*
X02855D01*
X028549Y027895D01*
X028548Y027912D01*
X028545Y027927D01*
X028541Y02794D01*
X028535Y027951D01*
X028529Y02796D01*
X028521Y027967D01*
X028512Y027972D01*
X028502Y027975D01*
X028491Y027976D01*
X02885D01*
X028812Y027975D01*
D02*
G37*
G36*
X026712D02*
X026678Y027972D01*
X026648Y027967D01*
X026622Y02796D01*
X0266Y027951D01*
X026582Y02794D01*
X026568Y027927D01*
X026558Y027912D01*
X026552Y027895D01*
X02655Y027876D01*
X02645D01*
X026449Y027895D01*
X026448Y027912D01*
X026445Y027927D01*
X026441Y02794D01*
X026435Y027951D01*
X026429Y02796D01*
X026421Y027967D01*
X026412Y027972D01*
X026402Y027975D01*
X026391Y027976D01*
X02675D01*
X026712Y027975D01*
D02*
G37*
G36*
X024462D02*
X024428Y027972D01*
X024398Y027967D01*
X024372Y02796D01*
X02435Y027951D01*
X024332Y02794D01*
X024318Y027927D01*
X024308Y027912D01*
X024302Y027895D01*
X0243Y027876D01*
X0242D01*
X024199Y027895D01*
X024196Y027912D01*
X02419Y027927D01*
X024183Y02794D01*
X024173Y027951D01*
X024161Y02796D01*
X024147Y027967D01*
X02413Y027972D01*
X024112Y027975D01*
X024091Y027976D01*
X0245D01*
X024462Y027975D01*
D02*
G37*
G36*
X019862D02*
X019828Y027972D01*
X019798Y027967D01*
X019772Y02796D01*
X01975Y027951D01*
X019732Y02794D01*
X019718Y027927D01*
X019708Y027912D01*
X019702Y027895D01*
X0197Y027876D01*
X0196D01*
X0196Y027895D01*
X019596Y027951D01*
X019594Y02796D01*
X019592Y027967D01*
X01959Y027972D01*
X019588Y027975D01*
X019585Y027976D01*
X0199D01*
X019862Y027975D01*
D02*
G37*
G36*
X022112Y027925D02*
X022078Y027922D01*
X022048Y027917D01*
X022022Y02791D01*
X022Y027901D01*
X021982Y02789D01*
X021968Y027877D01*
X021958Y027862D01*
X021952Y027845D01*
X02195Y027826D01*
X02185D01*
X02185Y027845D01*
X021846Y027917D01*
X021844Y027922D01*
X021843Y027925D01*
X021841Y027926D01*
X02215D01*
X022112Y027925D01*
D02*
G37*
G36*
X021951Y027762D02*
X021952Y027749D01*
X021955Y027737D01*
X021959Y027725D01*
X021964Y027714D01*
X021971Y027703D01*
X021978Y027694D01*
X021987Y027684D01*
X021996Y027676D01*
X022007Y027668D01*
X021793D01*
X021804Y027676D01*
X021813Y027684D01*
X021822Y027694D01*
X021829Y027703D01*
X021836Y027714D01*
X021841Y027725D01*
X021845Y027737D01*
X021848Y027749D01*
X021849Y027762D01*
X02185Y027776D01*
X02195D01*
X021951Y027762D01*
D02*
G37*
G36*
X026551Y027712D02*
X026552Y027699D01*
X026555Y027687D01*
X026559Y027675D01*
X026564Y027664D01*
X026571Y027653D01*
X026578Y027644D01*
X026587Y027634D01*
X026596Y027626D01*
X026607Y027618D01*
X026393D01*
X026404Y027626D01*
X026413Y027634D01*
X026422Y027644D01*
X026429Y027653D01*
X026436Y027664D01*
X026441Y027675D01*
X026445Y027687D01*
X026448Y027699D01*
X026449Y027712D01*
X02645Y027726D01*
X02655D01*
X026551Y027712D01*
D02*
G37*
G36*
X0197Y027723D02*
X0197Y027705D01*
X019705Y027636D01*
X019707Y027627D01*
X019709Y02762D01*
X019711Y027613D01*
X019713Y027609D01*
X019493Y027618D01*
X019513Y027632D01*
X019561Y02767D01*
X019573Y027681D01*
X019583Y027691D01*
X01959Y027701D01*
X019596Y02771D01*
X019599Y027718D01*
X0196Y027726D01*
X0197Y027723D01*
D02*
G37*
G36*
X024301Y027662D02*
X024302Y027649D01*
X024305Y027637D01*
X024309Y027625D01*
X024314Y027614D01*
X024321Y027603D01*
X024328Y027594D01*
X024337Y027584D01*
X024346Y027576D01*
X024357Y027568D01*
X024143D01*
X024154Y027576D01*
X024163Y027584D01*
X024172Y027594D01*
X024179Y027603D01*
X024186Y027614D01*
X024191Y027625D01*
X024195Y027637D01*
X024198Y027649D01*
X024199Y027662D01*
X0242Y027676D01*
X0243D01*
X024301Y027662D01*
D02*
G37*
G36*
X02865Y027673D02*
X02865Y027655D01*
X028655Y027586D01*
X028657Y027577D01*
X028659Y02757D01*
X028661Y027563D01*
X028663Y027559D01*
X028443Y027568D01*
X028463Y027582D01*
X028511Y02762D01*
X028523Y027631D01*
X028533Y027641D01*
X02854Y027651D01*
X028546Y02766D01*
X028549Y027668D01*
X02855Y027676D01*
X02865Y027673D01*
D02*
G37*
G36*
X045257Y026932D02*
X045237Y026918D01*
X045189Y02688D01*
X045177Y026869D01*
X045167Y026859D01*
X04516Y026849D01*
X045154Y02684D01*
X045151Y026832D01*
X04515Y026824D01*
X04505Y026827D01*
X04505Y026845D01*
X045045Y026914D01*
X045043Y026923D01*
X045041Y02693D01*
X045039Y026937D01*
X045037Y026941D01*
X045257Y026932D01*
D02*
G37*
G36*
X039646Y026924D02*
X039637Y026916D01*
X039628Y026906D01*
X039621Y026897D01*
X039614Y026886D01*
X039609Y026875D01*
X039605Y026863D01*
X039602Y026851D01*
X039601Y026838D01*
X0396Y026824D01*
X0395D01*
X039499Y026838D01*
X039498Y026851D01*
X039495Y026863D01*
X039491Y026875D01*
X039486Y026886D01*
X039479Y026897D01*
X039472Y026906D01*
X039463Y026916D01*
X039454Y026924D01*
X039443Y026932D01*
X039657D01*
X039646Y026924D01*
D02*
G37*
G36*
X036846D02*
X036837Y026916D01*
X036828Y026906D01*
X036821Y026897D01*
X036814Y026886D01*
X036809Y026875D01*
X036805Y026863D01*
X036802Y026851D01*
X036801Y026838D01*
X0368Y026824D01*
X0367D01*
X036699Y026838D01*
X036698Y026851D01*
X036695Y026863D01*
X036691Y026875D01*
X036686Y026886D01*
X036679Y026897D01*
X036672Y026906D01*
X036663Y026916D01*
X036654Y026924D01*
X036643Y026932D01*
X036857D01*
X036846Y026924D01*
D02*
G37*
G36*
X033896D02*
X033887Y026916D01*
X033878Y026906D01*
X033871Y026897D01*
X033864Y026886D01*
X033859Y026875D01*
X033855Y026863D01*
X033852Y026851D01*
X033851Y026838D01*
X03385Y026824D01*
X03375D01*
X033749Y026838D01*
X033748Y026851D01*
X033745Y026863D01*
X033741Y026875D01*
X033736Y026886D01*
X033729Y026897D01*
X033722Y026906D01*
X033713Y026916D01*
X033704Y026924D01*
X033693Y026932D01*
X033907D01*
X033896Y026924D01*
D02*
G37*
G36*
X042346Y026874D02*
X042337Y026866D01*
X042328Y026856D01*
X042321Y026847D01*
X042314Y026836D01*
X042309Y026825D01*
X042305Y026813D01*
X042302Y026801D01*
X042301Y026788D01*
X0423Y026774D01*
X0422D01*
X042199Y026788D01*
X042198Y026801D01*
X042195Y026813D01*
X042191Y026825D01*
X042186Y026836D01*
X042179Y026847D01*
X042172Y026856D01*
X042163Y026866D01*
X042154Y026874D01*
X042143Y026882D01*
X042357D01*
X042346Y026874D01*
D02*
G37*
G36*
X045152Y026705D02*
X045158Y026688D01*
X045168Y026673D01*
X045181Y02666D01*
X045199Y026649D01*
X04522Y02664D01*
X045246Y026633D01*
X045275Y026628D01*
X045308Y026625D01*
X045346Y026624D01*
X044954D01*
X044973Y026625D01*
X044989Y026628D01*
X045003Y026633D01*
X045016Y02664D01*
X045026Y026649D01*
X045035Y02666D01*
X045041Y026673D01*
X045046Y026688D01*
X045049Y026705D01*
X04505Y026724D01*
X04515D01*
X045152Y026705D01*
D02*
G37*
G36*
X033851D02*
X033856Y026688D01*
X033863Y026673D01*
X033873Y02666D01*
X033886Y026649D01*
X033902Y02664D01*
X033921Y026633D01*
X033943Y026628D01*
X033968Y026625D01*
X033996Y026624D01*
X033604D01*
X033632Y026625D01*
X033657Y026628D01*
X033679Y026633D01*
X033698Y02664D01*
X033714Y026649D01*
X033727Y02666D01*
X033737Y026673D01*
X033744Y026688D01*
X033749Y026705D01*
X03375Y026724D01*
X03385D01*
X033851Y026705D01*
D02*
G37*
G36*
X042302Y026705D02*
X042308Y026688D01*
X042318Y026672D01*
X042332Y026659D01*
X04235Y026648D01*
X042372Y026639D01*
X042398Y026632D01*
X042428Y026627D01*
X042462Y026624D01*
X0425Y026623D01*
X042154Y026624D01*
X042163Y026625D01*
X042171Y026628D01*
X042178Y026633D01*
X042184Y02664D01*
X042189Y026649D01*
X042193Y02666D01*
X042196Y026673D01*
X042198Y026688D01*
X0422Y026705D01*
X0422Y026724D01*
X0423D01*
X042302Y026705D01*
D02*
G37*
G36*
X039602Y026705D02*
X039608Y026688D01*
X039618Y026673D01*
X039632Y026659D01*
X03965Y026648D01*
X039672Y026639D01*
X039698Y026632D01*
X039728Y026627D01*
X039762Y026624D01*
X0398Y026623D01*
X039504Y026624D01*
X039504Y026625D01*
X039503Y026628D01*
X039502Y026633D01*
X039501Y026649D01*
X0395Y026724D01*
X0396D01*
X039602Y026705D01*
D02*
G37*
G36*
X036801Y026655D02*
X036806Y026638D01*
X036813Y026623D01*
X036823Y02661D01*
X036836Y026599D01*
X036852Y02659D01*
X036871Y026583D01*
X036893Y026578D01*
X036918Y026575D01*
X036946Y026574D01*
X036554D01*
X036582Y026575D01*
X036607Y026578D01*
X036629Y026583D01*
X036648Y02659D01*
X036664Y026599D01*
X036677Y02661D01*
X036687Y026623D01*
X036694Y026638D01*
X036699Y026655D01*
X0367Y026674D01*
X0368D01*
X036801Y026655D01*
D02*
G37*
G36*
X046218Y026075D02*
X046193Y026072D01*
X046171Y026067D01*
X046152Y02606D01*
X046136Y026051D01*
X046123Y02604D01*
X046113Y026027D01*
X046106Y026012D01*
X046101Y025995D01*
X0461Y025976D01*
X046D01*
X045999Y025995D01*
X045994Y026012D01*
X045987Y026027D01*
X045977Y02604D01*
X045964Y026051D01*
X045948Y02606D01*
X045929Y026067D01*
X045907Y026072D01*
X045882Y026075D01*
X045854Y026076D01*
X046246D01*
X046218Y026075D01*
D02*
G37*
G36*
X043386D02*
X043352Y026072D01*
X043322Y026067D01*
X043296Y02606D01*
X043274Y026051D01*
X043256Y02604D01*
X043242Y026027D01*
X043232Y026012D01*
X043226Y025995D01*
X043224Y025976D01*
X043124D01*
X043123Y025995D01*
X043121Y026012D01*
X043118Y026027D01*
X043113Y02604D01*
X043107Y026051D01*
X043099Y02606D01*
X04309Y026067D01*
X043079Y026072D01*
X043068Y026075D01*
X043054Y026076D01*
X043424D01*
X043386Y026075D01*
D02*
G37*
G36*
X040768D02*
X040743Y026072D01*
X040721Y026067D01*
X040702Y02606D01*
X040686Y026051D01*
X040673Y02604D01*
X040663Y026027D01*
X040656Y026012D01*
X040651Y025995D01*
X04065Y025976D01*
X04055D01*
X040549Y025995D01*
X040544Y026012D01*
X040537Y026027D01*
X040527Y02604D01*
X040514Y026051D01*
X040498Y02606D01*
X040479Y026067D01*
X040457Y026072D01*
X040432Y026075D01*
X040404Y026076D01*
X040796D01*
X040768Y026075D01*
D02*
G37*
G36*
X034868D02*
X034843Y026072D01*
X034821Y026067D01*
X034802Y02606D01*
X034786Y026051D01*
X034773Y02604D01*
X034763Y026027D01*
X034756Y026012D01*
X034751Y025995D01*
X03475Y025976D01*
X03465D01*
X034649Y025995D01*
X034644Y026012D01*
X034637Y026027D01*
X034627Y02604D01*
X034614Y026051D01*
X034598Y02606D01*
X034579Y026067D01*
X034557Y026072D01*
X034532Y026075D01*
X034504Y026076D01*
X034896D01*
X034868Y026075D01*
D02*
G37*
G36*
X037808Y026025D02*
X037775Y026022D01*
X037746Y026017D01*
X03772Y02601D01*
X037699Y026001D01*
X037681Y02599D01*
X037668Y025977D01*
X037658Y025962D01*
X037652Y025945D01*
X03765Y025926D01*
X03755D01*
X037549Y025945D01*
X037546Y025962D01*
X037541Y025977D01*
X037535Y02599D01*
X037526Y026001D01*
X037516Y02601D01*
X037503Y026017D01*
X037489Y026022D01*
X037473Y026025D01*
X037454Y026026D01*
X037846D01*
X037808Y026025D01*
D02*
G37*
G36*
X044675Y0259D02*
X043725D01*
X043725Y0271D01*
X044675D01*
X044675Y0259D01*
D02*
G37*
G36*
X046102Y025905D02*
X046106Y025888D01*
X046114Y025873D01*
X046125Y02586D01*
X04614Y025849D01*
X046157Y02584D01*
X046178Y025833D01*
X046202Y025828D01*
X046229Y025825D01*
X046259Y025824D01*
X045828D01*
X045861Y025825D01*
X04589Y025828D01*
X045916Y025833D01*
X045938Y02584D01*
X045957Y025849D01*
X045973Y02586D01*
X045985Y025873D01*
X045993Y025888D01*
X045998Y025905D01*
X046Y025924D01*
X0461D01*
X046102Y025905D01*
D02*
G37*
G36*
X043226D02*
X043232Y025888D01*
X043242Y025873D01*
X043256Y02586D01*
X043274Y025849D01*
X043296Y02584D01*
X043322Y025833D01*
X043352Y025828D01*
X043386Y025825D01*
X043424Y025824D01*
X043022D01*
X043041Y025825D01*
X043059Y025828D01*
X043074Y025833D01*
X043087Y02584D01*
X043099Y025849D01*
X043108Y02586D01*
X043115Y025873D01*
X04312Y025888D01*
X043123Y025905D01*
X043124Y025924D01*
X043224D01*
X043226Y025905D01*
D02*
G37*
G36*
X040652D02*
X040656Y025888D01*
X040664Y025873D01*
X040675Y02586D01*
X04069Y025849D01*
X040707Y02584D01*
X040728Y025833D01*
X040752Y025828D01*
X040779Y025825D01*
X040809Y025824D01*
X040378D01*
X040411Y025825D01*
X04044Y025828D01*
X040466Y025833D01*
X040488Y02584D01*
X040507Y025849D01*
X040523Y02586D01*
X040535Y025873D01*
X040543Y025888D01*
X040548Y025905D01*
X04055Y025924D01*
X04065D01*
X040652Y025905D01*
D02*
G37*
G36*
X037652D02*
X037658Y025888D01*
X037668Y025873D01*
X037682Y02586D01*
X0377Y025849D01*
X037722Y02584D01*
X037748Y025833D01*
X037778Y025828D01*
X037812Y025825D01*
X03785Y025824D01*
X037428D01*
X037451Y025825D01*
X037472Y025828D01*
X03749Y025833D01*
X037506Y02584D01*
X03752Y025849D01*
X037531Y02586D01*
X037539Y025873D01*
X037545Y025888D01*
X037549Y025905D01*
X03755Y025924D01*
X03765D01*
X037652Y025905D01*
D02*
G37*
G36*
X034752D02*
X034756Y025888D01*
X034764Y025873D01*
X034775Y02586D01*
X03479Y025849D01*
X034807Y02584D01*
X034828Y025833D01*
X034852Y025828D01*
X034879Y025825D01*
X034909Y025824D01*
X034478D01*
X034511Y025825D01*
X03454Y025828D01*
X034566Y025833D01*
X034588Y02584D01*
X034607Y025849D01*
X034623Y02586D01*
X034635Y025873D01*
X034643Y025888D01*
X034648Y025905D01*
X03465Y025924D01*
X03475D01*
X034752Y025905D01*
D02*
G37*
G36*
X046229Y025275D02*
X046202Y025272D01*
X046178Y025267D01*
X046157Y02526D01*
X04614Y025251D01*
X046125Y02524D01*
X046114Y025227D01*
X046106Y025212D01*
X046102Y025195D01*
X0461Y025176D01*
X046D01*
X045998Y025195D01*
X045993Y025212D01*
X045985Y025227D01*
X045973Y02524D01*
X045957Y025251D01*
X045938Y02526D01*
X045916Y025267D01*
X04589Y025272D01*
X045861Y025275D01*
X045828Y025276D01*
X046259D01*
X046229Y025275D01*
D02*
G37*
G36*
X043386Y025276D02*
X043352Y025273D01*
X043322Y025268D01*
X043296Y025261D01*
X043274Y025252D01*
X043256Y025241D01*
X043242Y025227D01*
X043232Y025212D01*
X043226Y025195D01*
X043224Y025176D01*
X043124D01*
X043123Y025195D01*
X04312Y025212D01*
X043115Y025227D01*
X043108Y02524D01*
X043099Y025251D01*
X043087Y02526D01*
X043074Y025267D01*
X043059Y025272D01*
X043041Y025275D01*
X043022Y025276D01*
X043424Y025277D01*
X043386Y025276D01*
D02*
G37*
G36*
X040779Y025275D02*
X040752Y025272D01*
X040728Y025267D01*
X040707Y02526D01*
X04069Y025251D01*
X040675Y02524D01*
X040664Y025227D01*
X040656Y025212D01*
X040652Y025195D01*
X04065Y025176D01*
X04055D01*
X040548Y025195D01*
X040543Y025212D01*
X040535Y025227D01*
X040523Y02524D01*
X040507Y025251D01*
X040488Y02526D01*
X040466Y025267D01*
X04044Y025272D01*
X040411Y025275D01*
X040378Y025276D01*
X040809D01*
X040779Y025275D01*
D02*
G37*
G36*
X037812Y025276D02*
X037778Y025273D01*
X037748Y025268D01*
X037722Y025261D01*
X0377Y025252D01*
X037682Y025241D01*
X037668Y025228D01*
X037658Y025212D01*
X037652Y025195D01*
X03765Y025176D01*
X03755D01*
X037549Y025195D01*
X037545Y025212D01*
X037539Y025227D01*
X037531Y02524D01*
X03752Y025251D01*
X037506Y02526D01*
X03749Y025267D01*
X037472Y025272D01*
X037451Y025275D01*
X037428Y025276D01*
X03785Y025277D01*
X037812Y025276D01*
D02*
G37*
G36*
X034879Y025275D02*
X034852Y025272D01*
X034828Y025267D01*
X034807Y02526D01*
X03479Y025251D01*
X034775Y02524D01*
X034764Y025227D01*
X034756Y025212D01*
X034752Y025195D01*
X03475Y025176D01*
X03465D01*
X034648Y025195D01*
X034643Y025212D01*
X034635Y025227D01*
X034623Y02524D01*
X034607Y025251D01*
X034588Y02526D01*
X034566Y025267D01*
X03454Y025272D01*
X034511Y025275D01*
X034478Y025276D01*
X034909D01*
X034879Y025275D01*
D02*
G37*
G36*
X043225Y024909D02*
X043229Y024892D01*
X043235Y024877D01*
X043244Y024864D01*
X043256Y024853D01*
X043269Y024844D01*
X043286Y024837D01*
X043305Y024832D01*
X043326Y024829D01*
X04335Y024828D01*
X042998D01*
X043022Y024829D01*
X043043Y024832D01*
X043062Y024837D01*
X043079Y024844D01*
X043093Y024853D01*
X043104Y024864D01*
X043113Y024877D01*
X043119Y024892D01*
X043123Y024909D01*
X043124Y024928D01*
X043224D01*
X043225Y024909D01*
D02*
G37*
G36*
X037651D02*
X037656Y024892D01*
X037663Y024877D01*
X037674Y024864D01*
X037687Y024853D01*
X037704Y024844D01*
X037723Y024837D01*
X037746Y024832D01*
X037771Y024829D01*
X0378Y024828D01*
X037448D01*
X037467Y024829D01*
X037485Y024832D01*
X0375Y024837D01*
X037513Y024844D01*
X037524Y024853D01*
X037534Y024864D01*
X037541Y024877D01*
X037546Y024892D01*
X037549Y024909D01*
X03755Y024928D01*
X03765D01*
X037651Y024909D01*
D02*
G37*
G36*
X034751D02*
X034754Y024892D01*
X034759Y024877D01*
X034766Y024864D01*
X034775Y024853D01*
X034786Y024844D01*
X034799Y024837D01*
X034814Y024832D01*
X034831Y024829D01*
X03485Y024828D01*
X034498D01*
X034527Y024829D01*
X034553Y024832D01*
X034576Y024837D01*
X034595Y024844D01*
X034612Y024853D01*
X034626Y024864D01*
X034636Y024877D01*
X034644Y024892D01*
X034648Y024909D01*
X03465Y024928D01*
X03475D01*
X034751Y024909D01*
D02*
G37*
G36*
X046101Y024909D02*
X046104Y024892D01*
X046109Y024877D01*
X046116Y024864D01*
X046125Y024853D01*
X046136Y024844D01*
X046149Y024837D01*
X046164Y024832D01*
X046181Y024829D01*
X0462Y024828D01*
X045848D01*
X045877Y024829D01*
X045903Y024832D01*
X045926Y024837D01*
X045945Y024844D01*
X045962Y024853D01*
X045976Y024864D01*
X045986Y024877D01*
X045994Y024892D01*
X045998Y024909D01*
X046Y024928D01*
X0461D01*
X046101Y024909D01*
D02*
G37*
G36*
X040651Y024809D02*
X040654Y024792D01*
X040659Y024777D01*
X040666Y024764D01*
X040675Y024753D01*
X040686Y024744D01*
X040699Y024737D01*
X040714Y024732D01*
X040731Y024729D01*
X04075Y024728D01*
X040398D01*
X040427Y024729D01*
X040453Y024732D01*
X040476Y024737D01*
X040495Y024744D01*
X040512Y024753D01*
X040526Y024764D01*
X040536Y024777D01*
X040544Y024792D01*
X040548Y024809D01*
X04055Y024828D01*
X04065D01*
X040651Y024809D01*
D02*
G37*
G36*
X02205Y024952D02*
X022056Y024951D01*
X022066Y02495D01*
Y0249D01*
Y0248D01*
X022056Y024799D01*
X02205Y024798D01*
Y0245D01*
X02115D01*
X0211Y02455D01*
Y02525D01*
X02115Y0253D01*
X02205D01*
Y024952D01*
D02*
G37*
G36*
X02665Y02445D02*
X02575D01*
X0257Y0245D01*
Y0252D01*
X02575Y02525D01*
X02665D01*
Y02445D01*
D02*
G37*
G36*
X01965D02*
X01875D01*
X0187Y0245D01*
Y0252D01*
X01875Y02525D01*
X01965D01*
Y02445D01*
D02*
G37*
G36*
X0288Y0244D02*
X0279D01*
X02785Y02445D01*
Y02515D01*
X0279Y0252D01*
X0288D01*
Y0244D01*
D02*
G37*
G36*
X02435D02*
X02345D01*
X0234Y02445D01*
Y02515D01*
X02345Y0252D01*
X02435D01*
Y0244D01*
D02*
G37*
G36*
X027596Y024474D02*
X027587Y024466D01*
X027578Y024456D01*
X027571Y024447D01*
X027564Y024436D01*
X027559Y024425D01*
X027555Y024413D01*
X027552Y024401D01*
X027551Y024388D01*
X02755Y024374D01*
X02745D01*
X027449Y024388D01*
X027448Y024401D01*
X027445Y024413D01*
X027441Y024425D01*
X027436Y024436D01*
X027429Y024447D01*
X027422Y024456D01*
X027413Y024466D01*
X027404Y024474D01*
X027393Y024482D01*
X027607D01*
X027596Y024474D01*
D02*
G37*
G36*
X031849Y024245D02*
X031854Y024178D01*
X031864Y024119D01*
X031877Y024068D01*
X031894Y024024D01*
X031915Y023989D01*
X031939Y023961D01*
X031967Y023942D01*
X031999Y02393D01*
X032035Y023926D01*
X031565D01*
X031544Y02393D01*
X031525Y023942D01*
X031508Y023961D01*
X031493Y023989D01*
X031481Y024024D01*
X031471Y024068D01*
X031463Y024119D01*
X031458Y024178D01*
X031453Y02432D01*
X031847D01*
X031849Y024245D01*
D02*
G37*
G36*
X029773Y024103D02*
X029786Y023926D01*
X029794Y023882D01*
X029803Y023847D01*
X029814Y023819D01*
X029827Y0238D01*
X029842Y023788D01*
X029859Y023784D01*
X029361D01*
X029364Y023788D01*
X029367Y0238D01*
X02937Y023819D01*
X029374Y023882D01*
X029378Y024177D01*
X029772D01*
X029773Y024103D01*
D02*
G37*
G36*
X025347Y024001D02*
X02536Y023809D01*
X025366Y023778D01*
X025372Y023755D01*
X02538Y023737D01*
X025389Y023727D01*
X025399Y023724D01*
X024901D01*
X024911Y023727D01*
X02492Y023737D01*
X024928Y023755D01*
X024934Y023778D01*
X02494Y023809D01*
X024945Y023847D01*
X024951Y023943D01*
X024953Y024066D01*
X025347D01*
X025347Y024001D01*
D02*
G37*
G36*
X023049Y023724D02*
X022551D01*
X02258Y023728D01*
X022606Y02374D01*
X022629Y023759D01*
X022648Y023787D01*
X022665Y023822D01*
X022679Y023866D01*
X022689Y023917D01*
X022697Y023976D01*
X022702Y024043D01*
X022703Y024118D01*
X023097D01*
X023049Y023724D01*
D02*
G37*
G36*
X020848Y024043D02*
X020863Y023866D01*
X020872Y023822D01*
X020884Y023787D01*
X020897Y023759D01*
X020912Y02374D01*
X020929Y023728D01*
X020949Y023724D01*
X020451D01*
X020452Y023728D01*
X020452Y02374D01*
X020453Y024118D01*
X020847D01*
X020848Y024043D01*
D02*
G37*
G36*
X027551Y023755D02*
X027556Y023738D01*
X027563Y023723D01*
X027574Y02371D01*
X027587Y023699D01*
X027604Y02369D01*
X027623Y023683D01*
X027645Y023678D01*
X027671Y023675D01*
X027699Y023674D01*
X02725Y023673D01*
X027288Y023674D01*
X027322Y023677D01*
X027352Y023682D01*
X027378Y023689D01*
X0274Y023698D01*
X027418Y023709D01*
X027432Y023722D01*
X027442Y023738D01*
X027448Y023755D01*
X02745Y023774D01*
X02755D01*
X027551Y023755D01*
D02*
G37*
G36*
X032576Y023328D02*
X032575Y023332D01*
X032569Y023335D01*
X03256Y023338D01*
X032548Y02334D01*
X032532Y023342D01*
X03249Y023345D01*
X0324Y023347D01*
Y02374D01*
X032433Y023741D01*
X03256Y02375D01*
X032569Y023752D01*
X032575Y023755D01*
X032576Y023759D01*
Y023328D01*
D02*
G37*
G36*
X01995Y0232D02*
X01905D01*
X019Y02325D01*
Y02395D01*
X01905Y024D01*
X01995D01*
Y0232D01*
D02*
G37*
G36*
X02895Y02315D02*
X02805D01*
X028Y0232D01*
Y0239D01*
X02805Y02395D01*
X02895D01*
Y02315D01*
D02*
G37*
G36*
X02445D02*
X02355D01*
X0235Y0232D01*
Y0239D01*
X02355Y02395D01*
X02445D01*
Y02315D01*
D02*
G37*
G36*
X02215D02*
X02125D01*
X0212Y0232D01*
Y0239D01*
X02125Y02395D01*
X02215D01*
Y02315D01*
D02*
G37*
G36*
X0268Y0231D02*
X0259D01*
X02585Y02315D01*
Y02385D01*
X0259Y0239D01*
X0268D01*
Y0231D01*
D02*
G37*
G36*
X02765Y023125D02*
X027526Y023115D01*
X027492Y023109D01*
X027462Y023101D01*
X027435Y023092D01*
X027412Y023081D01*
X027392Y023069D01*
X027376Y023055D01*
X027258Y023079D01*
X027266Y023088D01*
X027271Y023096D01*
X027273Y023103D01*
X027272Y023109D01*
X027268Y023114D01*
X02726Y023119D01*
X02725Y023122D01*
X027237Y023124D01*
X027221Y023126D01*
X027201Y023126D01*
X027699D01*
X02765Y023125D01*
D02*
G37*
G36*
X025389Y023172D02*
X02538Y02316D01*
X025372Y023141D01*
X025366Y023113D01*
X02536Y023078D01*
X025352Y022983D01*
X025347Y022857D01*
X025347Y022782D01*
X024953D01*
X024953Y022857D01*
X024934Y023113D01*
X024928Y023141D01*
X02492Y02316D01*
X024911Y023172D01*
X024901Y023176D01*
X025399D01*
X025389Y023172D01*
D02*
G37*
G36*
X023048D02*
X023048Y02316D01*
X023047Y022782D01*
X022653D01*
X022652Y022857D01*
X022637Y023034D01*
X022628Y023078D01*
X022616Y023113D01*
X022603Y023141D01*
X022588Y02316D01*
X022571Y023172D01*
X022551Y023176D01*
X023049D01*
X023048Y023172D01*
D02*
G37*
G36*
X020929D02*
X020912Y02316D01*
X020897Y023141D01*
X020884Y023113D01*
X020872Y023078D01*
X020863Y023034D01*
X020856Y022983D01*
X020851Y022924D01*
X020847Y022782D01*
X020453D01*
X020451Y023176D01*
X020949D01*
X020929Y023172D01*
D02*
G37*
G36*
X031971Y022374D02*
X032035D01*
X032023Y02237D01*
X032012Y022358D01*
X032002Y022339D01*
X031994Y022311D01*
X031987Y022276D01*
X031981Y022232D01*
X031979Y022199D01*
X031995Y021958D01*
X032009Y021872D01*
X032026Y021797D01*
X032046Y021735D01*
X032069Y021685D01*
X032096Y021647D01*
X032125Y021621D01*
X031423D01*
X031452Y021647D01*
X031478Y021685D01*
X031501Y021735D01*
X031521Y021797D01*
X031538Y021872D01*
X031552Y021958D01*
X031571Y022168D01*
X031571Y022177D01*
X031565Y022374D01*
X031576D01*
X031577Y022426D01*
X031971D01*
X031971Y022374D01*
D02*
G37*
G36*
X027345Y021721D02*
X027351Y021694D01*
X027361Y02167D01*
X027375Y02165D01*
X027393Y021633D01*
X027415Y021618D01*
X027441Y021607D01*
X027471Y0216D01*
X027505Y021595D01*
X027543Y021593D01*
X027044Y021593D01*
X027082Y021595D01*
X027116Y0216D01*
X027146Y021608D01*
X027172Y021619D01*
X027193Y021633D01*
X027211Y02165D01*
X027225Y02167D01*
X027235Y021694D01*
X027241Y021721D01*
X027243Y02175D01*
X027343D01*
X027345Y021721D01*
D02*
G37*
G36*
X023464Y02185D02*
X023472Y021814D01*
X023485Y02178D01*
X023504Y021745D01*
X023527Y021711D01*
X023556Y021677D01*
X02359Y021644D01*
X023629Y021611D01*
X023674Y021578D01*
X023724Y021546D01*
X022955Y021424D01*
X022976Y021453D01*
X022995Y021485D01*
X023012Y021521D01*
X023027Y021562D01*
X02304Y021606D01*
X02305Y021654D01*
X023058Y021706D01*
X023067Y021821D01*
X023068Y021885D01*
X023462D01*
X023464Y02185D01*
D02*
G37*
G36*
X029631Y021932D02*
X029633Y021868D01*
X029646Y021744D01*
X029657Y021684D01*
X029671Y021625D01*
X029688Y021567D01*
X029709Y021511D01*
X029733Y021456D01*
X02976Y021402D01*
X02979Y02135D01*
X02891Y021489D01*
X028972Y021545D01*
X029028Y021601D01*
X029077Y021656D01*
X02912Y021712D01*
X029156Y021767D01*
X029185Y021822D01*
X029208Y021876D01*
X029225Y021931D01*
X029234Y021985D01*
X029238Y022039D01*
X029631Y021932D01*
D02*
G37*
G36*
X025351Y021992D02*
X025362Y02194D01*
X025381Y021889D01*
X025408Y021839D01*
X025442Y021789D01*
X025484Y02174D01*
X025533Y021692D01*
X02559Y021644D01*
X025655Y021596D01*
X025727Y021549D01*
X02488Y021274D01*
X024894Y021313D01*
X024906Y021359D01*
X024917Y021413D01*
X024935Y021541D01*
X024947Y021697D01*
X024953Y021986D01*
X025347Y022044D01*
X025351Y021992D01*
D02*
G37*
G36*
X021023Y021872D02*
X021067Y021837D01*
X021115Y021804D01*
X021168Y021772D01*
X021225Y021743D01*
X021285Y021715D01*
X021419Y021665D01*
X021492Y021644D01*
X021569Y021624D01*
X020849Y021D01*
X020847Y021094D01*
X020832Y021265D01*
X020819Y021342D01*
X020802Y021412D01*
X020781Y021477D01*
X020756Y021535D01*
X020728Y021588D01*
X020696Y021635D01*
X02066Y021676D01*
X020982Y02191D01*
X021023Y021872D01*
D02*
G37*
G36*
X031892Y028154D02*
X031369Y027631D01*
X031306Y027549D01*
X031266Y027453D01*
X031253Y02735D01*
Y024322D01*
X031252Y02432D01*
X031253Y024317D01*
Y024316D01*
X031253Y024313D01*
X031253Y024302D01*
Y02375D01*
X031266Y023647D01*
X031306Y023551D01*
X031367Y023472D01*
Y023376D01*
X031521D01*
X031635Y023263D01*
X031717Y0232D01*
X031813Y02316D01*
X031915Y023147D01*
X032378D01*
Y02313D01*
X032563D01*
X032576Y023128D01*
X032583Y023129D01*
X032591Y023128D01*
X032599Y02313D01*
X033322D01*
Y023957D01*
X032766D01*
X032719Y024019D01*
X032625Y02409D01*
X032517Y024135D01*
X0324Y024151D01*
X032283Y024135D01*
X032242Y024118D01*
X032233Y024124D01*
Y024124D01*
X03207D01*
X032068Y024129D01*
X032061Y02416D01*
X032054Y024202D01*
X032049Y024256D01*
X032047Y024325D01*
X032047Y024326D01*
Y027186D01*
X032514Y027653D01*
X033483D01*
Y026952D01*
X033499Y026872D01*
X033487Y026847D01*
X033468Y026822D01*
X033406D01*
Y026637D01*
X033404Y026624D01*
X033404Y02662D01*
X033404Y026617D01*
X033406Y026606D01*
Y025878D01*
X03359D01*
Y025696D01*
X034101D01*
Y0256D01*
X034223D01*
Y025925D01*
X034194D01*
Y026606D01*
X034196Y026617D01*
X034196Y02662D01*
X034196Y026624D01*
X034194Y026637D01*
Y026822D01*
X034132D01*
X034113Y026847D01*
X034101Y026872D01*
X034117Y026952D01*
Y027653D01*
X034403D01*
Y027303D01*
X034416Y0272D01*
X034456Y027105D01*
X034483Y02707D01*
Y026952D01*
X034499Y026872D01*
X034476Y026822D01*
X034306D01*
Y026094D01*
X034304Y026083D01*
X034304Y02608D01*
X034304Y026076D01*
X034304Y026072D01*
X03428Y026022D01*
X03428D01*
Y025837D01*
X034278Y025824D01*
X034278Y025821D01*
X034278Y025818D01*
X03428Y025806D01*
Y025293D01*
X034278Y025282D01*
X034278Y025279D01*
X034278Y025276D01*
X03428Y025263D01*
Y025078D01*
X034448D01*
Y025026D01*
X0343D01*
Y024841D01*
X034297Y024828D01*
X034298Y024824D01*
X034297Y024821D01*
X0343Y02481D01*
Y024258D01*
X035048D01*
Y024808D01*
X03505Y024817D01*
X03505Y024823D01*
X035051Y024828D01*
X035048Y024841D01*
Y025026D01*
X034952D01*
Y025078D01*
X035107D01*
Y025263D01*
X03511Y025276D01*
X035109Y025279D01*
X03511Y025283D01*
X035107Y025294D01*
Y025806D01*
X03511Y025817D01*
X035109Y02582D01*
X03511Y025824D01*
X035107Y025837D01*
Y026022D01*
X035107D01*
X035095Y026072D01*
X035096Y026076D01*
X035096Y02608D01*
X035096Y026083D01*
X035094Y026094D01*
Y026822D01*
X035094Y026822D01*
X035101Y026869D01*
X035117Y026952D01*
Y02707D01*
X035144Y027105D01*
X035184Y0272D01*
X035197Y027303D01*
Y027653D01*
X036433D01*
Y026952D01*
X03645Y026864D01*
X036468Y026838D01*
X036471Y026828D01*
X036477Y026822D01*
X036474Y026804D01*
X036452Y026772D01*
X036356D01*
Y026587D01*
X036354Y026574D01*
X036354Y02657D01*
X036354Y026567D01*
X036356Y026556D01*
Y025828D01*
X03654D01*
Y025696D01*
X037001D01*
Y0256D01*
X037173D01*
Y025925D01*
X037144D01*
Y026556D01*
X037146Y026567D01*
X037146Y02657D01*
X037146Y026574D01*
X037144Y026587D01*
Y026772D01*
X037048D01*
X037026Y026804D01*
X037023Y026822D01*
X037029Y026828D01*
X037032Y026838D01*
X03705Y026864D01*
X037067Y026952D01*
Y027653D01*
X037353D01*
Y027303D01*
X037366Y0272D01*
X037406Y027105D01*
X037433Y02707D01*
Y026952D01*
X03745Y026864D01*
X037478Y026822D01*
X037452Y026772D01*
X037256D01*
Y026061D01*
X03723Y026022D01*
X03723Y026022D01*
X03723Y026022D01*
Y025837D01*
X037228Y025824D01*
X037228Y025819D01*
X037228Y025815D01*
X03723Y025805D01*
Y025295D01*
X037228Y025285D01*
X037229Y02528D01*
X037228Y025276D01*
X03723Y025262D01*
Y025078D01*
X037348D01*
Y025026D01*
X03725D01*
Y024841D01*
X037247Y024828D01*
X037248Y024823D01*
X037248Y024818D01*
X03725Y024808D01*
Y024258D01*
X037998D01*
Y02481D01*
X038001Y024821D01*
X038Y024824D01*
X038001Y024828D01*
X037998Y024841D01*
Y025026D01*
X037852D01*
Y025077D01*
X037856Y025077D01*
X037862Y025078D01*
X038057D01*
Y026022D01*
X038057D01*
X038044Y026043D01*
Y026772D01*
X038044D01*
X038022Y026822D01*
X03805Y026864D01*
X038067Y026952D01*
Y02707D01*
X038094Y027105D01*
X038134Y0272D01*
X038147Y027303D01*
Y027636D01*
X038164Y027653D01*
X039233D01*
Y026952D01*
X03925Y026864D01*
X039268Y026838D01*
X039271Y026828D01*
X039282Y026816D01*
X039298Y026792D01*
Y026578D01*
X039306Y026538D01*
Y025878D01*
X03949D01*
Y0256D01*
X039806D01*
X040123D01*
Y025925D01*
X040094D01*
Y026822D01*
X039882D01*
X039863Y026847D01*
X039851Y026872D01*
X039867Y026952D01*
Y027653D01*
X040153D01*
Y027303D01*
X040166Y0272D01*
X040206Y027105D01*
X040233Y02707D01*
Y026952D01*
X040249Y026872D01*
X040226Y026822D01*
X040206D01*
Y026094D01*
X040204Y026083D01*
X040204Y02608D01*
X040204Y026076D01*
X040205Y026072D01*
X04018Y026022D01*
X04018D01*
Y025837D01*
X040178Y025824D01*
X040178Y025821D01*
X040178Y025818D01*
X04018Y025806D01*
Y025293D01*
X040178Y025282D01*
X040178Y025279D01*
X040178Y025276D01*
X04018Y025263D01*
Y025078D01*
X040348D01*
Y024926D01*
X0402D01*
Y024741D01*
X040197Y024728D01*
X040198Y024724D01*
X040197Y024721D01*
X0402Y02471D01*
Y024158D01*
X040948D01*
Y024708D01*
X04095Y024717D01*
X04095Y024723D01*
X040951Y024728D01*
X040948Y024741D01*
Y024926D01*
X040852D01*
Y025078D01*
X041007D01*
Y025263D01*
X04101Y025276D01*
X041009Y025279D01*
X04101Y025283D01*
X041007Y025294D01*
Y025806D01*
X04101Y025817D01*
X041009Y02582D01*
X04101Y025824D01*
X041007Y025837D01*
Y026022D01*
X041007D01*
X040995Y026072D01*
X040996Y026076D01*
X040996Y02608D01*
X040996Y026083D01*
X040994Y026094D01*
Y026822D01*
X040874D01*
X040851Y026872D01*
X040867Y026952D01*
Y02707D01*
X040894Y027105D01*
X040934Y0272D01*
X040947Y027303D01*
Y027636D01*
X040964Y027653D01*
X041903D01*
X041935Y027614D01*
X041933Y027604D01*
Y026902D01*
X04195Y026814D01*
X041956Y026805D01*
Y026638D01*
X041954Y026625D01*
X041956Y026613D01*
X041955Y026601D01*
X041956Y026597D01*
Y025878D01*
X042133D01*
Y025696D01*
X042601D01*
Y0256D01*
X042767D01*
Y025925D01*
X042744D01*
Y026822D01*
X042591D01*
X042559Y02686D01*
X042567Y026902D01*
Y027604D01*
X042565Y027614D01*
X042597Y027653D01*
X042853D01*
Y027303D01*
X042866Y0272D01*
X042906Y027105D01*
X042933Y02707D01*
Y026902D01*
X042941Y02686D01*
X042909Y026822D01*
X042856D01*
Y026099D01*
X042854Y026091D01*
X042855Y026084D01*
X042854Y026076D01*
X042854Y026072D01*
X042828Y026022D01*
X042824D01*
Y025837D01*
X042821Y025824D01*
X042822Y025819D01*
X042822Y025813D01*
X042824Y025804D01*
Y025296D01*
X042822Y025286D01*
X042822Y025281D01*
X042821Y025276D01*
X042824Y025262D01*
Y025078D01*
X042922D01*
Y025026D01*
X0428D01*
Y024841D01*
X042797Y024828D01*
X042798Y024824D01*
X042798Y02482D01*
X0428Y024809D01*
Y024258D01*
X043548D01*
Y024809D01*
X043551Y02482D01*
X04355Y024824D01*
X043551Y024828D01*
X043548Y024841D01*
Y025026D01*
X043426D01*
Y025077D01*
X04343Y025077D01*
X043436Y025078D01*
X043651D01*
Y025675D01*
X043689Y025706D01*
X043725Y025699D01*
X044675D01*
X044752Y025715D01*
X044817Y025758D01*
X04486Y025823D01*
X044871Y025878D01*
X04494D01*
Y025696D01*
X045013D01*
X045027Y025733D01*
X045037Y02578D01*
X045041Y025824D01*
X045141Y025696D01*
X045501D01*
Y0256D01*
X045573D01*
Y025925D01*
X045544D01*
Y026607D01*
X045546Y026618D01*
X045546Y026621D01*
X045546Y026624D01*
X045544Y026637D01*
Y026822D01*
X045482D01*
X045463Y026847D01*
X045451Y026872D01*
X045467Y026952D01*
Y027653D01*
X045703D01*
Y027303D01*
X045716Y0272D01*
X045756Y027105D01*
X045819Y027022D01*
X045833Y027012D01*
Y026952D01*
X045849Y026872D01*
X045826Y026822D01*
X045656D01*
Y026094D01*
X045654Y026083D01*
X045654Y02608D01*
X045654Y026076D01*
X045655Y026072D01*
X04563Y026022D01*
X04563D01*
Y025837D01*
X045628Y025824D01*
X045628Y025821D01*
X045628Y025818D01*
X04563Y025806D01*
Y025293D01*
X045628Y025282D01*
X045628Y025279D01*
X045628Y025276D01*
X04563Y025263D01*
Y025078D01*
X045798D01*
Y025026D01*
X04565D01*
Y024841D01*
X045647Y024828D01*
X045648Y024824D01*
X045647Y024821D01*
X04565Y02481D01*
Y024258D01*
X046398D01*
Y024808D01*
X0464Y024817D01*
X0464Y024823D01*
X046401Y024828D01*
X046398Y024841D01*
Y025026D01*
X046302D01*
Y025078D01*
X046457D01*
Y025263D01*
X04646Y025276D01*
X046459Y025279D01*
X04646Y025283D01*
X046457Y025294D01*
Y025806D01*
X04646Y025817D01*
X046459Y02582D01*
X04646Y025824D01*
X046457Y025837D01*
Y026022D01*
X046457D01*
X046445Y026072D01*
X046446Y026076D01*
X046446Y02608D01*
X046446Y026083D01*
X046444Y026094D01*
Y026822D01*
X046444Y026822D01*
X046451Y026869D01*
X046467Y026952D01*
Y027161D01*
X046484Y0272D01*
X046497Y027303D01*
Y027982D01*
X046539Y028011D01*
X04665Y0279D01*
Y0207D01*
X04575Y0198D01*
X03115D01*
X031141Y020433D01*
X031191Y020457D01*
X031301Y020366D01*
X031448Y020288D01*
X031608Y020239D01*
X031774Y020223D01*
X03194Y020239D01*
X032099Y020288D01*
X032247Y020366D01*
X032376Y020472D01*
X032481Y020601D01*
X03256Y020748D01*
X032608Y020908D01*
X032625Y021074D01*
X032608Y02124D01*
X03256Y021399D01*
X032481Y021547D01*
X032376Y021676D01*
X032247Y021781D01*
X032244Y021784D01*
X032234Y021808D01*
X03222Y02185D01*
X032206Y02191D01*
X032195Y021981D01*
X032184Y022139D01*
X032218Y022176D01*
X032233D01*
Y022351D01*
X032235Y022358D01*
X032234Y022366D01*
X032236Y022374D01*
X032233Y022387D01*
Y022924D01*
X031367D01*
Y022387D01*
X031364Y022374D01*
X031365Y022371D01*
X031364Y022368D01*
X031367Y022284D01*
Y022176D01*
X031367D01*
X03137Y022173D01*
X031353Y021983D01*
X031341Y02191D01*
X031328Y02185D01*
X031314Y021808D01*
X031303Y021784D01*
X031301Y021781D01*
X031173Y021676D01*
X031156Y021678D01*
X031123Y02169D01*
X03105Y0268D01*
Y0275D01*
X03175Y0282D01*
X031873D01*
X031892Y028154D01*
D02*
G37*
%LPC*%
G36*
X027228Y047849D02*
Y047469D01*
X027608D01*
X0276Y047532D01*
X027556Y047637D01*
X027487Y047727D01*
X027397Y047797D01*
X027291Y04784D01*
X027228Y047849D01*
D02*
G37*
G36*
X027128Y047849D02*
X027065Y04784D01*
X02696Y047797D01*
X02687Y047727D01*
X0268Y047637D01*
X026757Y047532D01*
X026749Y047469D01*
X027128D01*
Y047849D01*
D02*
G37*
G36*
X027608Y047369D02*
X027228D01*
Y046989D01*
X027291Y046997D01*
X027397Y047041D01*
X027487Y04711D01*
X027556Y047201D01*
X0276Y047306D01*
X027608Y047369D01*
D02*
G37*
G36*
X027128D02*
X026749D01*
X026757Y047306D01*
X0268Y047201D01*
X02687Y04711D01*
X02696Y047041D01*
X027065Y046997D01*
X027128Y046989D01*
Y047369D01*
D02*
G37*
G36*
X023891Y048005D02*
X023712Y047991D01*
X023537Y047949D01*
X023371Y04788D01*
X023218Y047786D01*
X023081Y04767D01*
X022964Y047533D01*
X022871Y04738D01*
X022802Y047214D01*
X02276Y047039D01*
X022746Y04686D01*
X02276Y046681D01*
X022802Y046506D01*
X022871Y04634D01*
X022964Y046187D01*
X023081Y04605D01*
X023218Y045933D01*
X023371Y045839D01*
X023537Y045771D01*
X023712Y045729D01*
X023891Y045715D01*
X02407Y045729D01*
X024245Y045771D01*
X024411Y045839D01*
X024564Y045933D01*
X024701Y04605D01*
X024817Y046187D01*
X024911Y04634D01*
X02498Y046506D01*
X025022Y046681D01*
X025036Y04686D01*
X025022Y047039D01*
X02498Y047214D01*
X024911Y04738D01*
X024817Y047533D01*
X024701Y04767D01*
X024564Y047786D01*
X024411Y04788D01*
X024245Y047949D01*
X02407Y047991D01*
X023891Y048005D01*
D02*
G37*
G36*
X0212Y0471D02*
X021054Y047086D01*
X020913Y047043D01*
X020783Y046974D01*
X020669Y046881D01*
X020576Y046767D01*
X020507Y046637D01*
X020464Y046496D01*
X02045Y04635D01*
Y04625D01*
X020464Y046104D01*
X020507Y045963D01*
X020576Y045833D01*
X020669Y045719D01*
X020783Y045626D01*
X020913Y045557D01*
X021054Y045514D01*
X0212Y0455D01*
X021346Y045514D01*
X021487Y045557D01*
X021617Y045626D01*
X021731Y045719D01*
X021824Y045833D01*
X021893Y045963D01*
X021936Y046104D01*
X02195Y04625D01*
Y04635D01*
X021936Y046496D01*
X021893Y046637D01*
X021824Y046767D01*
X021731Y046881D01*
X021617Y046974D01*
X021487Y047043D01*
X021346Y047086D01*
X0212Y0471D01*
D02*
G37*
G36*
X0192D02*
X019054Y047086D01*
X018913Y047043D01*
X018783Y046974D01*
X018669Y046881D01*
X018576Y046767D01*
X018507Y046637D01*
X018464Y046496D01*
X01845Y04635D01*
Y04625D01*
X018464Y046104D01*
X018507Y045963D01*
X018576Y045833D01*
X018669Y045719D01*
X018783Y045626D01*
X018913Y045557D01*
X019054Y045514D01*
X0192Y0455D01*
X019346Y045514D01*
X019487Y045557D01*
X019617Y045626D01*
X019731Y045719D01*
X019824Y045833D01*
X019893Y045963D01*
X019936Y046104D01*
X01995Y04625D01*
Y04635D01*
X019936Y046496D01*
X019893Y046637D01*
X019824Y046767D01*
X019731Y046881D01*
X019617Y046974D01*
X019487Y047043D01*
X019346Y047086D01*
X0192Y0471D01*
D02*
G37*
G36*
X019225Y0445D02*
X0189D01*
Y0442D01*
X019225D01*
Y0445D01*
D02*
G37*
G36*
X0188D02*
X018475D01*
Y0442D01*
X0188D01*
Y0445D01*
D02*
G37*
G36*
X020545Y044445D02*
X0202D01*
Y0441D01*
X020545D01*
Y044445D01*
D02*
G37*
G36*
X0201D02*
X019755D01*
Y0441D01*
X019808D01*
X019785Y044156D01*
X019799Y044171D01*
X019811Y044186D01*
X019821Y044203D01*
X01983Y04422D01*
X019838Y044238D01*
X019845Y044258D01*
X01985Y044278D01*
X019853Y044299D01*
X019855Y044321D01*
X019856Y044344D01*
X019856Y0441D01*
X0201D01*
Y044445D01*
D02*
G37*
G36*
Y044D02*
X019857D01*
X019857Y043833D01*
X019857Y043881D01*
X019848Y044D01*
X019755D01*
Y043655D01*
X0201D01*
Y044D01*
D02*
G37*
G36*
X019225Y0441D02*
X0189D01*
Y0438D01*
X019225D01*
Y0441D01*
D02*
G37*
G36*
X0188D02*
X018475D01*
Y0438D01*
X0188D01*
Y0441D01*
D02*
G37*
G36*
X020545Y044D02*
X0202D01*
Y043655D01*
X020545D01*
Y044D01*
D02*
G37*
G36*
X02115Y044546D02*
X021022Y044529D01*
X020902Y04448D01*
X020799Y044401D01*
X02072Y044298D01*
X020671Y044178D01*
X020654Y04405D01*
X020671Y043922D01*
X02072Y043802D01*
X020799Y043699D01*
X020902Y04362D01*
X021022Y043571D01*
X02115Y043554D01*
X021278Y043571D01*
X021398Y04362D01*
X021501Y043699D01*
X02158Y043802D01*
X021629Y043922D01*
X021646Y04405D01*
X021629Y044178D01*
X02158Y044298D01*
X021501Y044401D01*
X021398Y04448D01*
X021278Y044529D01*
X02115Y044546D01*
D02*
G37*
G36*
X020306Y042475D02*
X02004D01*
Y04215D01*
X020306D01*
Y042475D01*
D02*
G37*
G36*
Y04205D02*
X02004D01*
Y041725D01*
X020306D01*
Y04205D01*
D02*
G37*
G36*
X01885Y043746D02*
X018722Y043729D01*
X018643Y043697D01*
X018378D01*
Y04343D01*
X018249Y043301D01*
X01817Y043198D01*
X018121Y043078D01*
X018104Y04295D01*
Y0421D01*
X018121Y041972D01*
X01817Y041852D01*
X018206Y041805D01*
Y041628D01*
X018453D01*
X018472Y041621D01*
X0186Y041604D01*
X018728Y041621D01*
X018747Y041628D01*
X018994D01*
Y041805D01*
X01903Y041852D01*
X019053Y041907D01*
X019103Y041897D01*
Y041662D01*
X018738Y041297D01*
X018132D01*
X018075Y04134D01*
X017967Y041385D01*
X01785Y041401D01*
X017733Y041385D01*
X017625Y04134D01*
X017531Y041269D01*
X01746Y041175D01*
X017415Y041067D01*
X017399Y04095D01*
X017415Y040833D01*
X01746Y040725D01*
X017531Y040631D01*
X017625Y04056D01*
X017733Y040515D01*
X01785Y040499D01*
X017889Y040504D01*
X0179Y040503D01*
X018342D01*
X018389Y040496D01*
X018389Y040453D01*
Y038804D01*
X019728D01*
Y040496D01*
X019088D01*
X019078Y040546D01*
X019101Y040556D01*
X019184Y040619D01*
X019781Y041216D01*
X019844Y041299D01*
X019884Y041394D01*
X019897Y041497D01*
Y0421D01*
X019894Y042126D01*
Y042572D01*
X019146D01*
X019106Y042572D01*
X019096Y042618D01*
Y042744D01*
X019155Y042803D01*
X019322D01*
Y043053D01*
X019329Y043072D01*
X019346Y0432D01*
Y04325D01*
X019329Y043378D01*
X019322Y043397D01*
Y043697D01*
X019057D01*
X018978Y043729D01*
X01885Y043746D01*
D02*
G37*
G36*
X023075Y039073D02*
X02275D01*
Y038806D01*
X022764D01*
X022974Y038972D01*
X02298Y038985D01*
X022997Y038985D01*
X023026Y038971D01*
X023067Y038943D01*
X023075Y038937D01*
Y039073D01*
D02*
G37*
G36*
X02265D02*
X022325D01*
Y038806D01*
X02265D01*
Y039073D01*
D02*
G37*
G36*
X021914Y039041D02*
X021392D01*
Y038794D01*
X021914D01*
Y039041D01*
D02*
G37*
G36*
X021292D02*
X020769D01*
Y038794D01*
X021292D01*
Y039041D01*
D02*
G37*
G36*
X021914Y038694D02*
X021392D01*
Y038549D01*
X021813D01*
X02178Y038543D01*
X02175Y038525D01*
X021723Y038496D01*
X0217Y038454D01*
X021698Y038448D01*
X021914D01*
Y038694D01*
D02*
G37*
G36*
X021292D02*
X020769D01*
Y038448D01*
X020986D01*
X020983Y038454D01*
X02096Y038496D01*
X020934Y038525D01*
X020904Y038543D01*
X02087Y038549D01*
X021292D01*
Y038694D01*
D02*
G37*
G36*
X022636Y038706D02*
X022325D01*
Y03844D01*
X02265D01*
Y03847D01*
X022593Y038499D01*
X022533Y038522D01*
X022477Y038536D01*
X022426Y038541D01*
X022636Y038706D01*
D02*
G37*
G36*
X025483Y038893D02*
X025D01*
Y038331D01*
X025483D01*
Y038893D01*
D02*
G37*
G36*
X0249D02*
X024417D01*
Y038651D01*
X024424Y038654D01*
X024465Y038682D01*
X024495Y038715D01*
X024512Y038751D01*
X024518Y038792D01*
Y038331D01*
X0249D01*
Y038893D01*
D02*
G37*
G36*
Y038231D02*
X024518D01*
Y037771D01*
X024512Y037812D01*
X024495Y037848D01*
X024465Y037881D01*
X024424Y037909D01*
X024417Y037912D01*
Y03767D01*
X0249D01*
Y038231D01*
D02*
G37*
G36*
X025483D02*
X025D01*
Y03767D01*
X025483D01*
Y038231D01*
D02*
G37*
G36*
X039094Y032222D02*
X038306D01*
Y031496D01*
X038304Y031487D01*
X038305Y031482D01*
X038304Y031476D01*
X038306Y031463D01*
Y031278D01*
X038398D01*
Y031048D01*
X038395Y031048D01*
X038389Y031047D01*
X038222D01*
Y031194D01*
X037278D01*
Y030406D01*
X037489D01*
X037495Y030405D01*
X037498Y030405D01*
Y030208D01*
X037482Y030184D01*
X037471Y030172D01*
X037468Y030162D01*
X03745Y030136D01*
X037433Y030048D01*
Y029346D01*
X03745Y029258D01*
X0375Y029183D01*
X037575Y029133D01*
X037663Y029116D01*
X037837D01*
X037925Y029133D01*
X038Y029183D01*
X03805Y029258D01*
X038067Y029346D01*
Y030048D01*
X03805Y030136D01*
X038032Y030162D01*
X038029Y030172D01*
X038018Y030184D01*
X038002Y030208D01*
Y030405D01*
X038005Y030405D01*
X038011Y030406D01*
X038178D01*
Y030153D01*
X039122D01*
Y031047D01*
X038911D01*
X038905Y031048D01*
X038902Y031048D01*
Y031276D01*
X038912Y031278D01*
X039094D01*
Y031463D01*
X039096Y031476D01*
X039096Y031479D01*
X039096Y031482D01*
X039094Y031493D01*
Y032222D01*
D02*
G37*
G36*
X033294D02*
X032506D01*
Y031493D01*
X032504Y031482D01*
X032504Y031479D01*
X032504Y031476D01*
X032506Y031463D01*
Y031278D01*
X032688D01*
X032698Y031276D01*
Y031148D01*
X032695Y031148D01*
X032689Y031147D01*
X032478D01*
Y030253D01*
X033422D01*
Y031147D01*
X033211D01*
X033205Y031148D01*
X033202Y031148D01*
Y031278D01*
X033294D01*
Y031463D01*
X033296Y031476D01*
X033295Y031482D01*
X033296Y031487D01*
X033294Y031496D01*
Y032222D01*
D02*
G37*
G36*
X044644D02*
X043856D01*
Y031494D01*
X043854Y031483D01*
X043854Y03148D01*
X043854Y031476D01*
X043856Y031463D01*
Y031278D01*
X043998D01*
Y031048D01*
X043995Y031048D01*
X043989Y031047D01*
X043778D01*
Y030153D01*
X044722D01*
Y031047D01*
X044511D01*
X044505Y031048D01*
X044502Y031048D01*
Y031278D01*
X044644D01*
Y031463D01*
X044646Y031476D01*
X044646Y03148D01*
X044646Y031483D01*
X044644Y031494D01*
Y032222D01*
D02*
G37*
G36*
X036294D02*
X035506D01*
Y031496D01*
X035504Y031487D01*
X035505Y031482D01*
X035504Y031476D01*
X035506Y031463D01*
Y031278D01*
X035598D01*
Y031048D01*
X035595Y031048D01*
X035589Y031047D01*
X035378D01*
Y030153D01*
X036322D01*
Y031047D01*
X036111D01*
X036105Y031048D01*
X036102Y031048D01*
Y031276D01*
X036112Y031278D01*
X036294D01*
Y031463D01*
X036296Y031476D01*
X036296Y031479D01*
X036296Y031482D01*
X036294Y031493D01*
Y032222D01*
D02*
G37*
G36*
X033325Y03015D02*
X033D01*
Y02985D01*
X033224D01*
Y030049D01*
X033228Y03004D01*
X03324Y030031D01*
X033259Y030024D01*
X033287Y030018D01*
X033322Y030012D01*
X033325Y030012D01*
Y03015D01*
D02*
G37*
G36*
X041775Y03005D02*
X04145D01*
Y02975D01*
X041674D01*
Y029949D01*
X041678Y029939D01*
X04169Y02993D01*
X041709Y029922D01*
X041737Y029916D01*
X041772Y02991D01*
X041775Y02991D01*
Y03005D01*
D02*
G37*
G36*
X039025D02*
X0387D01*
Y02975D01*
X038924D01*
Y029949D01*
X038928Y029939D01*
X03894Y02993D01*
X038959Y029922D01*
X038987Y029916D01*
X039022Y02991D01*
X039025Y02991D01*
Y03005D01*
D02*
G37*
G36*
X036225D02*
X0359D01*
Y02975D01*
X036124D01*
Y029949D01*
X036128Y029939D01*
X03614Y02993D01*
X036159Y029922D01*
X036187Y029916D01*
X036222Y02991D01*
X036225Y02991D01*
Y03005D01*
D02*
G37*
G36*
X0329Y03015D02*
X032575D01*
Y02985D01*
X0329D01*
Y03015D01*
D02*
G37*
G36*
X044625Y03005D02*
X0443D01*
Y02975D01*
X044625D01*
Y03005D01*
D02*
G37*
G36*
X0442D02*
X043875D01*
Y02975D01*
X0442D01*
Y03005D01*
D02*
G37*
G36*
X04135D02*
X041025D01*
Y02975D01*
X04135D01*
Y03005D01*
D02*
G37*
G36*
X0386D02*
X038275D01*
Y02975D01*
X0386D01*
Y03005D01*
D02*
G37*
G36*
X0358D02*
X035475D01*
Y02975D01*
X0358D01*
Y03005D01*
D02*
G37*
G36*
X036837Y030179D02*
X0368D01*
Y029747D01*
X036969D01*
Y030048D01*
X036959Y030098D01*
X03693Y030141D01*
X036887Y030169D01*
X036837Y030179D01*
D02*
G37*
G36*
X045237D02*
X0452D01*
Y029747D01*
X045369D01*
Y030048D01*
X045359Y030098D01*
X04533Y030141D01*
X045287Y030169D01*
X045237Y030179D01*
D02*
G37*
G36*
X039637D02*
X0396D01*
Y029747D01*
X039769D01*
Y030048D01*
X039759Y030098D01*
X03973Y030141D01*
X039687Y030169D01*
X039637Y030179D01*
D02*
G37*
G36*
X0367D02*
X036663D01*
X036613Y030169D01*
X03657Y030141D01*
X036541Y030098D01*
X036531Y030048D01*
Y029963D01*
X036559Y029981D01*
X03659Y030006D01*
X036618Y030035D01*
X036643Y030068D01*
Y029747D01*
X0367D01*
Y030179D01*
D02*
G37*
G36*
X0395D02*
X039463D01*
X039413Y030169D01*
X03937Y030141D01*
X039341Y030098D01*
X039331Y030048D01*
Y029963D01*
X039359Y029981D01*
X03939Y030006D01*
X039418Y030035D01*
X039443Y030068D01*
Y029747D01*
X0395D01*
Y030179D01*
D02*
G37*
G36*
X0451D02*
X045063D01*
X045013Y030169D01*
X04497Y030141D01*
X044941Y030098D01*
X044931Y030048D01*
Y029747D01*
X0451D01*
Y030179D01*
D02*
G37*
G36*
X033887Y030179D02*
X03385D01*
Y029747D01*
X034019D01*
Y030048D01*
X034009Y030098D01*
X03398Y030141D01*
X033937Y030169D01*
X033887Y030179D01*
D02*
G37*
G36*
X03375D02*
X033713D01*
X033663Y030169D01*
X03362Y030141D01*
X033591Y030098D01*
X033581Y030048D01*
Y030027D01*
X033619Y030036D01*
X03365Y030047D01*
X033678Y03006D01*
X033702Y030074D01*
X033698Y029747D01*
X03375D01*
Y030179D01*
D02*
G37*
G36*
X042337Y030129D02*
X0423D01*
Y029697D01*
X042469D01*
Y029998D01*
X042459Y030048D01*
X04243Y030091D01*
X042387Y030119D01*
X042337Y030129D01*
D02*
G37*
G36*
X0422D02*
X042163D01*
X042113Y030119D01*
X04207Y030091D01*
X042041Y030048D01*
X042031Y029998D01*
Y029937D01*
X04204Y02994D01*
X042073Y029956D01*
X042101Y029974D01*
X042124Y029995D01*
X042143Y030018D01*
Y029697D01*
X0422D01*
Y030129D01*
D02*
G37*
G36*
X033224Y02975D02*
X033D01*
Y02945D01*
X033325D01*
Y029593D01*
X033322Y029593D01*
X033287Y029586D01*
X033259Y029579D01*
X03324Y029571D01*
X033228Y029562D01*
X033224Y029551D01*
Y02975D01*
D02*
G37*
G36*
X0329D02*
X032575D01*
Y02945D01*
X0329D01*
Y02975D01*
D02*
G37*
G36*
X044625Y02965D02*
X0443D01*
Y029451D01*
X044524D01*
X044509Y029447D01*
X044497Y029435D01*
X044485Y029416D01*
X044475Y029388D01*
X044467Y029353D01*
X044467Y02935D01*
X044625D01*
Y02965D01*
D02*
G37*
G36*
X0442D02*
X043875D01*
Y02935D01*
X044035D01*
X044035Y029353D01*
X044026Y029388D01*
X044016Y029416D01*
X044004Y029435D01*
X043991Y029447D01*
X043976Y029451D01*
X0442D01*
Y02965D01*
D02*
G37*
G36*
X041674D02*
X04145D01*
Y02935D01*
X041775D01*
Y029487D01*
X041737Y029484D01*
X041709Y029478D01*
X04169Y02947D01*
X041678Y029461D01*
X041674Y029451D01*
Y02965D01*
D02*
G37*
G36*
X04135D02*
X041025D01*
Y02935D01*
X04135D01*
Y02965D01*
D02*
G37*
G36*
X038924D02*
X0387D01*
Y02935D01*
X039025D01*
Y029487D01*
X038987Y029484D01*
X038959Y029478D01*
X03894Y02947D01*
X038928Y029461D01*
X038924Y029451D01*
Y02965D01*
D02*
G37*
G36*
X0386D02*
X038275D01*
Y02935D01*
X0386D01*
Y02965D01*
D02*
G37*
G36*
X036124D02*
X0359D01*
Y02935D01*
X036225D01*
Y029487D01*
X036187Y029484D01*
X036159Y029478D01*
X03614Y02947D01*
X036128Y029461D01*
X036124Y029451D01*
Y02965D01*
D02*
G37*
G36*
X0358D02*
X035475D01*
Y02935D01*
X0358D01*
Y02965D01*
D02*
G37*
G36*
X0395Y029647D02*
X039443D01*
Y029326D01*
X039417Y02936D01*
X039389Y02939D01*
X039357Y029416D01*
X039331Y029433D01*
Y029346D01*
X039341Y029296D01*
X03937Y029253D01*
X039413Y029224D01*
X039463Y029214D01*
X0395D01*
Y029647D01*
D02*
G37*
G36*
X0367D02*
X036643D01*
Y029326D01*
X036617Y02936D01*
X036589Y02939D01*
X036557Y029416D01*
X036531Y029433D01*
Y029346D01*
X036541Y029296D01*
X03657Y029253D01*
X036613Y029224D01*
X036663Y029214D01*
X0367D01*
Y029647D01*
D02*
G37*
G36*
X03375Y029647D02*
X033697D01*
X033693Y029326D01*
X033655Y029379D01*
X033617Y029427D01*
X033581Y029465D01*
Y029346D01*
X033591Y029296D01*
X03362Y029253D01*
X033663Y029224D01*
X033713Y029214D01*
X03375D01*
Y029647D01*
D02*
G37*
G36*
X0422Y029597D02*
X042143D01*
Y029276D01*
X042111Y029319D01*
X042078Y029358D01*
X042043Y029392D01*
X042031Y029401D01*
Y029296D01*
X042041Y029246D01*
X04207Y029203D01*
X042113Y029174D01*
X042163Y029164D01*
X0422D01*
Y029597D01*
D02*
G37*
G36*
X045369Y029647D02*
X0452D01*
Y029214D01*
X045237D01*
X045287Y029224D01*
X04533Y029253D01*
X045359Y029296D01*
X045369Y029346D01*
Y029647D01*
D02*
G37*
G36*
X0451D02*
X044931D01*
Y029346D01*
X044941Y029296D01*
X04497Y029253D01*
X045013Y029224D01*
X045063Y029214D01*
X0451D01*
Y029647D01*
D02*
G37*
G36*
X039769D02*
X0396D01*
Y029214D01*
X039637D01*
X039687Y029224D01*
X03973Y029253D01*
X039759Y029296D01*
X039769Y029346D01*
Y029647D01*
D02*
G37*
G36*
X036969D02*
X0368D01*
Y029214D01*
X036837D01*
X036887Y029224D01*
X03693Y029253D01*
X036959Y029296D01*
X036969Y029346D01*
Y029647D01*
D02*
G37*
G36*
X034019Y029647D02*
X03385D01*
Y029214D01*
X033887D01*
X033937Y029224D01*
X03398Y029253D01*
X034009Y029296D01*
X034019Y029346D01*
Y029647D01*
D02*
G37*
G36*
X042469Y029597D02*
X0423D01*
Y029164D01*
X042337D01*
X042387Y029174D01*
X04243Y029203D01*
X042459Y029246D01*
X042469Y029296D01*
Y029597D01*
D02*
G37*
G36*
X035272Y031244D02*
X034328D01*
Y030456D01*
X034539D01*
X034545Y030455D01*
X034548Y030455D01*
Y030208D01*
X034532Y030184D01*
X034521Y030172D01*
X034518Y030162D01*
X0345Y030136D01*
X034483Y030048D01*
Y029346D01*
X0345Y029258D01*
X03455Y029183D01*
X034625Y029133D01*
X034713Y029116D01*
X034887D01*
X034975Y029133D01*
X03505Y029183D01*
X0351Y029258D01*
X035117Y029346D01*
Y030048D01*
X0351Y030136D01*
X035082Y030162D01*
X035079Y030172D01*
X035068Y030184D01*
X035052Y030208D01*
Y030455D01*
X035055Y030455D01*
X035061Y030456D01*
X035272D01*
Y031244D01*
D02*
G37*
G36*
X043722D02*
X042778D01*
Y030456D01*
X042989D01*
X042995Y030455D01*
X042998Y030455D01*
Y030158D01*
X042982Y030134D01*
X042971Y030122D01*
X042968Y030112D01*
X04295Y030086D01*
X042933Y029998D01*
Y029296D01*
X04295Y029208D01*
X043Y029133D01*
X043075Y029083D01*
X043163Y029066D01*
X043337D01*
X043425Y029083D01*
X0435Y029133D01*
X04355Y029208D01*
X043567Y029296D01*
Y029998D01*
X04355Y030086D01*
X043532Y030112D01*
X043529Y030122D01*
X043518Y030134D01*
X043502Y030158D01*
Y030455D01*
X043505Y030455D01*
X043511Y030456D01*
X043722D01*
Y031244D01*
D02*
G37*
G36*
X029621Y03103D02*
X029504Y031014D01*
X029396Y030969D01*
X029302Y030898D01*
X029231Y030804D01*
X029186Y030696D01*
X029177Y030628D01*
X029151Y030567D01*
X029138Y030464D01*
Y02925D01*
X029141Y029224D01*
Y028778D01*
X029929D01*
Y029224D01*
X029932Y02925D01*
Y030254D01*
X02994Y03026D01*
X030011Y030354D01*
X030056Y030462D01*
X030072Y030579D01*
X030056Y030696D01*
X030011Y030804D01*
X02994Y030898D01*
X029846Y030969D01*
X029738Y031014D01*
X029621Y03103D01*
D02*
G37*
G36*
X02745Y030951D02*
X027333Y030935D01*
X027225Y03089D01*
X027131Y030819D01*
X02706Y030725D01*
X027015Y030617D01*
X026999Y0305D01*
X027015Y030383D01*
X027053Y030291D01*
Y02925D01*
X027056Y029224D01*
Y028778D01*
X027844D01*
Y029224D01*
X027847Y02925D01*
Y030291D01*
X027885Y030383D01*
X027901Y0305D01*
X027885Y030617D01*
X02784Y030725D01*
X027769Y030819D01*
X027675Y03089D01*
X027567Y030935D01*
X02745Y030951D01*
D02*
G37*
G36*
X0251Y031001D02*
X024983Y030985D01*
X024875Y03094D01*
X024781Y030869D01*
X02471Y030775D01*
X024665Y030667D01*
X024649Y03055D01*
X024665Y030433D01*
X024703Y030341D01*
Y02925D01*
X024706Y029224D01*
Y028778D01*
X025494D01*
Y029224D01*
X025497Y02925D01*
Y030341D01*
X025535Y030433D01*
X025551Y03055D01*
X025535Y030667D01*
X02549Y030775D01*
X025419Y030869D01*
X025325Y03094D01*
X025217Y030985D01*
X0251Y031001D01*
D02*
G37*
G36*
X02285Y030951D02*
X022733Y030935D01*
X022625Y03089D01*
X022531Y030819D01*
X02246Y030725D01*
X022415Y030617D01*
X022399Y0305D01*
X022415Y030383D01*
X022453Y030291D01*
Y0292D01*
X022456Y029174D01*
Y028728D01*
X023244D01*
Y029174D01*
X023247Y0292D01*
Y030291D01*
X023285Y030383D01*
X023301Y0305D01*
X023285Y030617D01*
X02324Y030725D01*
X023169Y030819D01*
X023075Y03089D01*
X022967Y030935D01*
X02285Y030951D01*
D02*
G37*
G36*
X02981Y028625D02*
X029544D01*
Y0283D01*
X029709D01*
Y028524D01*
X029713Y028519D01*
X029725Y028514D01*
X029745Y02851D01*
X029772Y028507D01*
X02981Y028504D01*
Y028625D01*
D02*
G37*
G36*
X029444D02*
X029177D01*
Y0283D01*
X029444D01*
Y028625D01*
D02*
G37*
G36*
X02771D02*
X027444D01*
Y0283D01*
X02771D01*
Y028625D01*
D02*
G37*
G36*
X027344D02*
X027077D01*
Y0283D01*
X027344D01*
Y028625D01*
D02*
G37*
G36*
X02541D02*
X025144D01*
Y0283D01*
X02541D01*
Y028625D01*
D02*
G37*
G36*
X025044D02*
X024777D01*
Y0283D01*
X025044D01*
Y028625D01*
D02*
G37*
G36*
X020904D02*
X020637D01*
Y0283D01*
X020904D01*
Y028625D01*
D02*
G37*
G36*
X020537D02*
X020271D01*
Y0283D01*
X020537D01*
Y028625D01*
D02*
G37*
G36*
X02316Y028575D02*
X022894D01*
Y02825D01*
X02316D01*
Y028575D01*
D02*
G37*
G36*
X022794D02*
X022527D01*
Y02825D01*
X022794D01*
Y028575D01*
D02*
G37*
G36*
X02541Y0282D02*
X025144D01*
Y027976D01*
X025309D01*
X025307Y027975D01*
X025306Y027972D01*
X025304Y027967D01*
X025303Y02796D01*
X025302Y027951D01*
X0253Y027912D01*
X0253Y027876D01*
X0252D01*
X025198Y027895D01*
X025192Y027912D01*
X025182Y027927D01*
X025168Y02794D01*
X02515Y027951D01*
X025144Y027954D01*
Y027875D01*
X02541D01*
Y0282D01*
D02*
G37*
G36*
X029709D02*
X029544D01*
Y027875D01*
X02981D01*
Y028072D01*
X029808Y028071D01*
X029772Y028057D01*
X029745Y028041D01*
X029725Y028022D01*
X029713Y028D01*
X029709Y027976D01*
Y0282D01*
D02*
G37*
G36*
X029444D02*
X029177D01*
Y027875D01*
X029444D01*
Y0282D01*
D02*
G37*
G36*
X02771D02*
X027444D01*
Y027976D01*
X027449D01*
X02745Y028144D01*
X02755D01*
X027555Y027976D01*
X027609D01*
X027598Y027975D01*
X027588Y027972D01*
X027579Y027967D01*
X027571Y02796D01*
X027565Y027951D01*
X027559Y02794D01*
X027557Y027931D01*
X027558Y027875D01*
X02771D01*
Y0282D01*
D02*
G37*
G36*
X027444Y027907D02*
Y027875D01*
X027448D01*
X027448Y027895D01*
X027448Y027895D01*
X027444Y027907D01*
D02*
G37*
G36*
X027344Y0282D02*
X027077D01*
Y027875D01*
X027344D01*
Y027969D01*
X027322Y027972D01*
X027288Y027975D01*
X02725Y027976D01*
X027344D01*
Y0282D01*
D02*
G37*
G36*
X025044D02*
X024777D01*
Y027875D01*
X025044D01*
Y027975D01*
X025038Y027975D01*
X025Y027976D01*
X025044D01*
Y0282D01*
D02*
G37*
G36*
X020904D02*
X020637D01*
Y027976D01*
X020803D01*
X020802Y027972D01*
X020801Y02796D01*
X020798Y027878D01*
X020798Y027875D01*
X020904D01*
Y0282D01*
D02*
G37*
G36*
X020537D02*
X020271D01*
Y027875D01*
X020389D01*
X020383Y02796D01*
X020378Y027972D01*
X020372Y027976D01*
X020537D01*
Y0282D01*
D02*
G37*
G36*
X02316Y02815D02*
X022527D01*
Y027825D01*
X022633D01*
X022628Y027926D01*
X023059D01*
X023056Y027922D01*
X023052Y027911D01*
X02305Y027891D01*
X023047Y027863D01*
X023046Y027825D01*
X02316D01*
Y02815D01*
D02*
G37*
G36*
X023044Y027765D02*
X023041Y027674D01*
X023041Y027533D01*
X022681D01*
Y027347D01*
X0229D01*
X023119D01*
Y027648D01*
X023109Y027698D01*
X02308Y027741D01*
X023044Y027765D01*
D02*
G37*
G36*
X027587Y027729D02*
X027563D01*
X027565Y027663D01*
X027571Y027653D01*
X027578Y027644D01*
X027587Y027634D01*
X027596Y027626D01*
X027607Y027618D01*
X027567D01*
X027572Y02743D01*
X02755D01*
Y027297D01*
X027719D01*
Y027598D01*
X027709Y027648D01*
X02768Y027691D01*
X027637Y027719D01*
X027587Y027729D01*
D02*
G37*
G36*
X020797Y027665D02*
X020797Y027582D01*
X02065D01*
Y027297D01*
X020819D01*
Y027598D01*
X020809Y027648D01*
X020797Y027665D01*
D02*
G37*
G36*
X027447Y027729D02*
X027413D01*
X027363Y027719D01*
X02732Y027691D01*
X027291Y027648D01*
X027281Y027598D01*
Y027297D01*
X02745D01*
Y02743D01*
X027428D01*
X027432Y027439D01*
X027436Y027461D01*
X027439Y027498D01*
X027444Y027618D01*
X027393D01*
X027404Y027626D01*
X027413Y027634D01*
X027422Y027644D01*
X027429Y027653D01*
X027436Y027664D01*
X027441Y027675D01*
X027445Y027687D01*
X027446Y027694D01*
X027447Y027729D01*
D02*
G37*
G36*
X020402Y027665D02*
X020391Y027648D01*
X020381Y027598D01*
Y027297D01*
X02055D01*
Y027582D01*
X020403D01*
X020403Y027657D01*
X020402Y027665D01*
D02*
G37*
G36*
X029637Y027679D02*
X0296D01*
Y027247D01*
X029769D01*
Y027548D01*
X029759Y027598D01*
X02973Y027641D01*
X029687Y027669D01*
X029637Y027679D01*
D02*
G37*
G36*
X025337D02*
X0253D01*
Y027676D01*
D01*
X025301Y027662D01*
X025302Y027649D01*
X025305Y027637D01*
X025309Y027625D01*
X025314Y027614D01*
X025321Y027603D01*
X025328Y027594D01*
X025337Y027584D01*
X025346Y027576D01*
X025357Y027568D01*
X0253D01*
Y027247D01*
X025469D01*
Y027548D01*
X025459Y027598D01*
X02543Y027641D01*
X025387Y027669D01*
X025337Y027679D01*
D02*
G37*
G36*
X0295D02*
X029463D01*
X029413Y027669D01*
X02937Y027641D01*
X029341Y027598D01*
X029331Y027548D01*
Y027247D01*
X0295D01*
Y027679D01*
D02*
G37*
G36*
X0252D02*
X025163D01*
X025113Y027669D01*
X02507Y027641D01*
X025041Y027598D01*
X025031Y027548D01*
Y027247D01*
X0252D01*
Y027568D01*
X025143D01*
X025154Y027576D01*
X025163Y027584D01*
X025172Y027594D01*
X025179Y027603D01*
X025186Y027614D01*
X025191Y027625D01*
X025195Y027637D01*
X025198Y027649D01*
X025199Y027662D01*
X0252Y027676D01*
Y027679D01*
D02*
G37*
G36*
X020819Y027197D02*
X020798D01*
X020803Y026837D01*
X020809Y026846D01*
X020819Y026896D01*
Y027197D01*
D02*
G37*
G36*
X020403D02*
X020381D01*
Y026896D01*
X020391Y026846D01*
X020401Y026831D01*
X020403Y027197D01*
D02*
G37*
G36*
X023119Y027247D02*
X02295D01*
Y026814D01*
X022987D01*
X023037Y026824D01*
X02308Y026853D01*
X023109Y026896D01*
X023119Y026946D01*
Y027247D01*
D02*
G37*
G36*
X02285D02*
X022681D01*
Y026946D01*
X022691Y026896D01*
X02272Y026853D01*
X022763Y026824D01*
X022813Y026814D01*
X02285D01*
Y027247D01*
D02*
G37*
G36*
X027719Y027197D02*
X02755D01*
Y026764D01*
X027587D01*
X027637Y026774D01*
X02768Y026803D01*
X027709Y026846D01*
X027719Y026896D01*
Y027197D01*
D02*
G37*
G36*
X02745D02*
X027281D01*
Y026896D01*
X027291Y026846D01*
X02732Y026803D01*
X027363Y026774D01*
X027413Y026764D01*
X02745D01*
Y027197D01*
D02*
G37*
G36*
X025469Y027147D02*
X025301D01*
X025302Y027106D01*
X025315Y026941D01*
X025326Y026868D01*
X025331Y026846D01*
X025335Y026837D01*
X025347Y026826D01*
X025357D01*
X025351Y026821D01*
X02538Y026792D01*
X025434Y026758D01*
X025459Y026796D01*
X025469Y026846D01*
Y027147D01*
D02*
G37*
G36*
X025199D02*
X025031D01*
Y026846D01*
X025041Y026796D01*
X025066Y026758D01*
X02512Y026792D01*
X025149Y026821D01*
X025143Y026826D01*
X025153D01*
X025165Y026837D01*
X025169Y026846D01*
X025174Y026868D01*
X025185Y026941D01*
X025198Y027106D01*
X025199Y027147D01*
D02*
G37*
G36*
X029769D02*
X0296D01*
Y026714D01*
X029637D01*
X029687Y026724D01*
X02973Y026753D01*
X029759Y026796D01*
X029769Y026846D01*
Y027147D01*
D02*
G37*
G36*
X0295D02*
X029331D01*
Y026846D01*
X029341Y026796D01*
X02937Y026753D01*
X029413Y026724D01*
X029463Y026714D01*
X0295D01*
Y027147D01*
D02*
G37*
%LPD*%
G36*
X038858Y031475D02*
X038825Y031472D01*
X038796Y031467D01*
X03877Y03146D01*
X038749Y031451D01*
X038731Y03144D01*
X038718Y031427D01*
X038708Y031412D01*
X038702Y031395D01*
X0387Y031376D01*
X0386D01*
X038599Y031395D01*
X038596Y031412D01*
X038591Y031427D01*
X038585Y03144D01*
X038576Y031451D01*
X038566Y03146D01*
X038553Y031467D01*
X038539Y031472D01*
X038523Y031475D01*
X038504Y031476D01*
X038896D01*
X038858Y031475D01*
D02*
G37*
G36*
X038702Y03093D02*
X038708Y030912D01*
X038718Y030897D01*
X038732Y030884D01*
X03875Y030873D01*
X038772Y030864D01*
X038798Y030857D01*
X038828Y030852D01*
X038862Y030849D01*
X0389Y030848D01*
X0384D01*
X038438Y030849D01*
X038472Y030852D01*
X038502Y030857D01*
X038528Y030864D01*
X03855Y030873D01*
X038568Y030884D01*
X038582Y030897D01*
X038592Y030912D01*
X038598Y03093D01*
X0386Y030949D01*
X0387D01*
X038702Y03093D01*
D02*
G37*
G36*
X037962Y030605D02*
X037928Y030602D01*
X037898Y030596D01*
X037872Y030589D01*
X03785Y03058D01*
X037832Y030569D01*
X037818Y030556D01*
X037808Y030541D01*
X037802Y030524D01*
X0378Y030504D01*
X0377D01*
X037698Y030524D01*
X037692Y030541D01*
X037682Y030556D01*
X037668Y030569D01*
X03765Y03058D01*
X037628Y030589D01*
X037602Y030596D01*
X037572Y030602D01*
X037538Y030605D01*
X0375Y030606D01*
X038D01*
X037962Y030605D01*
D02*
G37*
G36*
X037801Y030162D02*
X037802Y030149D01*
X037805Y030137D01*
X037809Y030125D01*
X037814Y030114D01*
X037821Y030103D01*
X037828Y030094D01*
X037837Y030084D01*
X037846Y030076D01*
X037857Y030068D01*
X037643D01*
X037654Y030076D01*
X037663Y030084D01*
X037672Y030094D01*
X037679Y030103D01*
X037686Y030114D01*
X037691Y030125D01*
X037695Y030137D01*
X037698Y030149D01*
X037699Y030162D01*
X0377Y030176D01*
X0378D01*
X037801Y030162D01*
D02*
G37*
G36*
X033077Y031475D02*
X033061Y031472D01*
X033047Y031467D01*
X033034Y03146D01*
X033024Y031451D01*
X033015Y03144D01*
X033009Y031427D01*
X033004Y031412D01*
X033001Y031395D01*
X033Y031376D01*
X0329D01*
X032898Y031395D01*
X032892Y031412D01*
X032882Y031427D01*
X032869Y03144D01*
X032851Y031451D01*
X03283Y03146D01*
X032804Y031467D01*
X032775Y031472D01*
X032742Y031475D01*
X032704Y031476D01*
X033096D01*
X033077Y031475D01*
D02*
G37*
G36*
X033002Y03103D02*
X033008Y031012D01*
X033018Y030997D01*
X033032Y030984D01*
X03305Y030973D01*
X033072Y030964D01*
X033098Y030957D01*
X033128Y030952D01*
X033162Y030949D01*
X0332Y030948D01*
X0327D01*
X032738Y030949D01*
X032772Y030952D01*
X032802Y030957D01*
X032828Y030964D01*
X03285Y030973D01*
X032868Y030984D01*
X032882Y030997D01*
X032892Y031012D01*
X032898Y03103D01*
X0329Y031049D01*
X033D01*
X033002Y03103D01*
D02*
G37*
G36*
X044418Y031475D02*
X044393Y031472D01*
X044371Y031467D01*
X044352Y03146D01*
X044336Y031451D01*
X044323Y03144D01*
X044313Y031427D01*
X044306Y031412D01*
X044301Y031395D01*
X0443Y031376D01*
X0442D01*
X044199Y031395D01*
X044194Y031412D01*
X044187Y031427D01*
X044177Y03144D01*
X044164Y031451D01*
X044148Y03146D01*
X044129Y031467D01*
X044107Y031472D01*
X044082Y031475D01*
X044054Y031476D01*
X044446D01*
X044418Y031475D01*
D02*
G37*
G36*
X044302Y03093D02*
X044308Y030912D01*
X044318Y030897D01*
X044332Y030884D01*
X04435Y030873D01*
X044372Y030864D01*
X044398Y030857D01*
X044428Y030852D01*
X044462Y030849D01*
X0445Y030848D01*
X044D01*
X044038Y030849D01*
X044072Y030852D01*
X044102Y030857D01*
X044128Y030864D01*
X04415Y030873D01*
X044168Y030884D01*
X044182Y030897D01*
X044192Y030912D01*
X044198Y03093D01*
X0442Y030949D01*
X0443D01*
X044302Y03093D01*
D02*
G37*
G36*
X036058Y031475D02*
X036025Y031472D01*
X035996Y031467D01*
X03597Y03146D01*
X035949Y031451D01*
X035931Y03144D01*
X035918Y031427D01*
X035908Y031412D01*
X035902Y031395D01*
X0359Y031376D01*
X0358D01*
X035799Y031395D01*
X035796Y031412D01*
X035791Y031427D01*
X035785Y03144D01*
X035776Y031451D01*
X035766Y03146D01*
X035753Y031467D01*
X035739Y031472D01*
X035723Y031475D01*
X035704Y031476D01*
X036096D01*
X036058Y031475D01*
D02*
G37*
G36*
X035902Y03093D02*
X035908Y030912D01*
X035918Y030897D01*
X035932Y030884D01*
X03595Y030873D01*
X035972Y030864D01*
X035998Y030857D01*
X036028Y030852D01*
X036062Y030849D01*
X0361Y030848D01*
X0356D01*
X035638Y030849D01*
X035672Y030852D01*
X035702Y030857D01*
X035728Y030864D01*
X03575Y030873D01*
X035768Y030884D01*
X035782Y030897D01*
X035792Y030912D01*
X035798Y03093D01*
X0358Y030949D01*
X0359D01*
X035902Y03093D01*
D02*
G37*
G36*
X035012Y030655D02*
X034978Y030652D01*
X034948Y030646D01*
X034922Y030639D01*
X0349Y03063D01*
X034882Y030619D01*
X034868Y030606D01*
X034858Y030591D01*
X034852Y030574D01*
X03485Y030554D01*
X03475D01*
X034748Y030574D01*
X034742Y030591D01*
X034732Y030606D01*
X034718Y030619D01*
X0347Y03063D01*
X034678Y030639D01*
X034652Y030646D01*
X034622Y030652D01*
X034588Y030655D01*
X03455Y030656D01*
X03505D01*
X035012Y030655D01*
D02*
G37*
G36*
X034851Y030162D02*
X034852Y030149D01*
X034855Y030137D01*
X034859Y030125D01*
X034864Y030114D01*
X034871Y030103D01*
X034878Y030094D01*
X034887Y030084D01*
X034896Y030076D01*
X034907Y030068D01*
X034693D01*
X034704Y030076D01*
X034713Y030084D01*
X034722Y030094D01*
X034729Y030103D01*
X034736Y030114D01*
X034741Y030125D01*
X034745Y030137D01*
X034748Y030149D01*
X034749Y030162D01*
X03475Y030176D01*
X03485D01*
X034851Y030162D01*
D02*
G37*
G36*
X043462Y030655D02*
X043428Y030652D01*
X043398Y030646D01*
X043372Y030639D01*
X04335Y03063D01*
X043332Y030619D01*
X043318Y030606D01*
X043308Y030591D01*
X043302Y030574D01*
X0433Y030554D01*
X0432D01*
X043198Y030574D01*
X043192Y030591D01*
X043182Y030606D01*
X043168Y030619D01*
X04315Y03063D01*
X043128Y030639D01*
X043102Y030646D01*
X043072Y030652D01*
X043038Y030655D01*
X043Y030656D01*
X0435D01*
X043462Y030655D01*
D02*
G37*
G36*
X043301Y030112D02*
X043302Y030099D01*
X043305Y030087D01*
X043309Y030075D01*
X043314Y030064D01*
X043321Y030053D01*
X043328Y030044D01*
X043337Y030034D01*
X043346Y030026D01*
X043357Y030018D01*
X043143D01*
X043154Y030026D01*
X043163Y030034D01*
X043172Y030044D01*
X043179Y030053D01*
X043186Y030064D01*
X043191Y030075D01*
X043195Y030087D01*
X043198Y030099D01*
X043199Y030112D01*
X0432Y030126D01*
X0433D01*
X043301Y030112D01*
D02*
G37*
%LPC*%
G36*
X0331Y043175D02*
X0328D01*
Y04285D01*
X0331D01*
Y043175D01*
D02*
G37*
G36*
X0327D02*
X0324D01*
Y04285D01*
X0327D01*
Y043175D01*
D02*
G37*
G36*
X0331Y04275D02*
X0328D01*
Y042425D01*
X0331D01*
Y04275D01*
D02*
G37*
G36*
X0327D02*
X0324D01*
Y042425D01*
X0327D01*
Y04275D01*
D02*
G37*
G36*
X03295Y040953D02*
X03285D01*
Y0406D01*
X033347D01*
X03334Y040654D01*
X033299Y040752D01*
X033235Y040835D01*
X033152Y040899D01*
X033054Y04094D01*
X03295Y040953D01*
D02*
G37*
G36*
X03275D02*
X03265D01*
X032546Y04094D01*
X032448Y040899D01*
X032365Y040835D01*
X032301Y040752D01*
X03226Y040654D01*
X032253Y0406D01*
X03275D01*
Y040953D01*
D02*
G37*
G36*
X033347Y0405D02*
X03285D01*
Y040147D01*
X03295D01*
X033054Y04016D01*
X033152Y040201D01*
X033235Y040265D01*
X033299Y040348D01*
X03334Y040446D01*
X033347Y0405D01*
D02*
G37*
G36*
X03275D02*
X032253D01*
X03226Y040446D01*
X032301Y040348D01*
X032365Y040265D01*
X032448Y040201D01*
X032546Y04016D01*
X03265Y040147D01*
X03275D01*
Y0405D01*
D02*
G37*
G36*
X03295Y040051D02*
X03265D01*
X03252Y040034D01*
X032399Y039984D01*
X032296Y039904D01*
X032216Y039801D01*
X032166Y03968D01*
X032149Y03955D01*
X032166Y03942D01*
X032216Y039299D01*
X032296Y039196D01*
X032399Y039116D01*
X03252Y039066D01*
X03265Y039049D01*
X03295D01*
X03308Y039066D01*
X033201Y039116D01*
X033304Y039196D01*
X033384Y039299D01*
X033434Y03942D01*
X033451Y03955D01*
X033434Y03968D01*
X033384Y039801D01*
X033304Y039904D01*
X033201Y039984D01*
X03308Y040034D01*
X03295Y040051D01*
D02*
G37*
G36*
X04335Y040573D02*
X043025D01*
Y040306D01*
X04335D01*
Y040573D01*
D02*
G37*
G36*
Y040206D02*
X043025D01*
Y03994D01*
X043129D01*
X043126Y040041D01*
X04335D01*
Y040206D01*
D02*
G37*
G36*
X0376Y040175D02*
X037353D01*
Y03985D01*
X0376D01*
Y040175D01*
D02*
G37*
G36*
X0384Y04001D02*
Y039744D01*
X038624D01*
Y039909D01*
X038628Y039932D01*
X038639Y039953D01*
X038659Y039972D01*
X038687Y039988D01*
X038722Y040001D01*
X038725Y040002D01*
Y04001D01*
X0384D01*
D02*
G37*
G36*
X0376Y03975D02*
X037353D01*
Y039425D01*
X0376D01*
Y03975D01*
D02*
G37*
G36*
X038624Y039644D02*
X0384D01*
Y039377D01*
X038725D01*
Y039599D01*
X038722Y039599D01*
X038687Y039581D01*
X038659Y03956D01*
X038639Y039536D01*
X038628Y039509D01*
X038624Y039478D01*
Y039644D01*
D02*
G37*
G36*
X037947Y040175D02*
X0377D01*
Y0398D01*
Y039425D01*
X037925D01*
X037947Y039425D01*
X037975Y039387D01*
Y039377D01*
X0383D01*
Y039694D01*
Y04001D01*
X037997D01*
X037975Y04001D01*
X037947Y040049D01*
Y040175D01*
D02*
G37*
G36*
X0424Y038415D02*
Y03825D01*
X042478D01*
X0424Y038415D01*
D02*
G37*
G36*
X042214Y038727D02*
X042148Y038699D01*
X042065Y038635D01*
X042001Y038552D01*
X04196Y038454D01*
X041947Y03835D01*
Y03825D01*
X0423D01*
Y038497D01*
X0421Y038517D01*
X042131Y038557D01*
X042158Y038599D01*
X042181Y038644D01*
X042202Y038692D01*
X042214Y038727D01*
D02*
G37*
G36*
X042753Y03815D02*
X042711D01*
X042652Y03801D01*
X042627Y037935D01*
X042526Y03815D01*
X0424D01*
Y037913D01*
X042627Y037935D01*
X042632Y037938D01*
X042637Y037928D01*
X042641Y037905D01*
X042644Y037869D01*
X042647Y03778D01*
X042699Y037848D01*
X04274Y037946D01*
X042753Y03805D01*
Y03815D01*
D02*
G37*
G36*
X0423D02*
X041947D01*
Y03805D01*
X04196Y037946D01*
X042001Y037848D01*
X042065Y037765D01*
X042148Y037701D01*
X042214Y037673D01*
X042202Y037708D01*
X042181Y037756D01*
X042158Y037801D01*
X042131Y037843D01*
X0421Y037883D01*
X0423Y037903D01*
Y03815D01*
D02*
G37*
G36*
X042725Y036997D02*
X0424D01*
Y03675D01*
X042725D01*
Y036997D01*
D02*
G37*
G36*
X0423D02*
X041975D01*
Y03675D01*
X0423D01*
Y036997D01*
D02*
G37*
G36*
X042725Y03665D02*
X0424D01*
Y036403D01*
X042725D01*
Y03665D01*
D02*
G37*
G36*
X0423D02*
X041975D01*
Y036403D01*
X0423D01*
Y03665D01*
D02*
G37*
G36*
X041887Y047024D02*
X041889Y047017D01*
X041903Y046975D01*
X041919Y046943D01*
X041938Y046922D01*
X041958Y046913D01*
X041876Y04689D01*
Y046326D01*
X042575D01*
X042565Y046423D01*
X042522Y046565D01*
X042453Y046695D01*
X042359Y046809D01*
X042245Y046903D01*
X042115Y046972D01*
X041973Y047015D01*
X041887Y047024D01*
D02*
G37*
G36*
X041432Y046916D02*
X041407Y046903D01*
X041293Y046809D01*
X0412Y046695D01*
X04113Y046565D01*
X041087Y046423D01*
X041077Y046326D01*
X041776D01*
Y046862D01*
X041385Y046754D01*
X041399Y046773D01*
X041411Y046804D01*
X041421Y046848D01*
X041431Y046904D01*
X041432Y046916D01*
D02*
G37*
G36*
X042575Y046226D02*
X041876D01*
Y045527D01*
X041973Y045537D01*
X042115Y04558D01*
X042245Y04565D01*
X042359Y045743D01*
X042453Y045858D01*
X042522Y045988D01*
X042565Y046129D01*
X042575Y046226D01*
D02*
G37*
G36*
X041776D02*
X041077D01*
X041087Y046129D01*
X04113Y045988D01*
X0412Y045858D01*
X041228Y045823D01*
X04123Y045827D01*
X041251Y045869D01*
X041263Y045906D01*
X041266Y045936D01*
X041259Y045959D01*
X041765Y045629D01*
X04174Y045626D01*
X041707Y045614D01*
X041667Y045592D01*
X04162Y04556D01*
X041616Y045556D01*
X041679Y045537D01*
X041776Y045527D01*
Y046226D01*
D02*
G37*
G36*
X0398Y047101D02*
X039634Y047085D01*
X039474Y047036D01*
X039327Y046958D01*
X039198Y046852D01*
X039092Y046723D01*
X039014Y046576D01*
X038965Y046416D01*
X038949Y04625D01*
X038965Y046084D01*
X039014Y045924D01*
X039092Y045777D01*
X039198Y045648D01*
X039327Y045542D01*
X039365Y045522D01*
X039371Y045498D01*
X039379Y045456D01*
X039398Y045169D01*
X039355Y045128D01*
X039308Y045089D01*
X039262Y045056D01*
X039216Y045027D01*
X039172Y045004D01*
X039128Y044985D01*
X039085Y044971D01*
X039042Y044961D01*
X038999Y044956D01*
X038947Y044953D01*
X038944Y044953D01*
X038942Y044953D01*
X038934Y044951D01*
X038758D01*
Y04476D01*
X038755Y044744D01*
X038756Y044741D01*
X038756Y044738D01*
X038758Y044731D01*
Y044045D01*
Y043297D01*
X039531D01*
X039544Y043295D01*
X039549Y043296D01*
X039554Y043295D01*
X039564Y043297D01*
X039742D01*
Y043297D01*
X039753Y043308D01*
X039773Y043304D01*
X039803Y043279D01*
Y042835D01*
X039802Y042832D01*
X039803Y04283D01*
Y04265D01*
X039806Y042624D01*
Y042178D01*
X040594D01*
Y042624D01*
X040597Y04265D01*
Y042826D01*
X040598Y042828D01*
X0406Y042964D01*
X040606Y043028D01*
X04067D01*
Y043198D01*
X040671Y043202D01*
X04067Y043214D01*
X040672Y043226D01*
X04067Y043239D01*
Y043972D01*
X040404D01*
X040348Y044028D01*
X040349Y044042D01*
X040361Y044078D01*
X04067D01*
Y045022D01*
X040233D01*
X040198Y045057D01*
X040201Y045223D01*
X040213Y045389D01*
X04022Y04545D01*
X040229Y045498D01*
X040235Y045522D01*
X040273Y045542D01*
X040402Y045648D01*
X040508Y045777D01*
X040586Y045924D01*
X040635Y046084D01*
X040651Y04625D01*
X040635Y046416D01*
X040586Y046576D01*
X040508Y046723D01*
X040402Y046852D01*
X040273Y046958D01*
X040126Y047036D01*
X039966Y047085D01*
X0398Y047101D01*
D02*
G37*
G36*
X04136Y044925D02*
X041254D01*
X041259Y044824D01*
X041094D01*
Y0446D01*
X04136D01*
Y044925D01*
D02*
G37*
G36*
X040841D02*
X040727D01*
Y0446D01*
X040994D01*
Y044824D01*
X040828D01*
X040832Y044828D01*
X040835Y044839D01*
X040838Y044859D01*
X04084Y044887D01*
X040841Y044925D01*
D02*
G37*
G36*
X04136Y0445D02*
X041094D01*
Y044276D01*
X041259D01*
X041255Y044272D01*
X041252Y04426D01*
X04125Y044241D01*
X041247Y044213D01*
X041246Y044175D01*
X04136D01*
Y0445D01*
D02*
G37*
G36*
X040994D02*
X040727D01*
Y044175D01*
X040833D01*
X040828Y044276D01*
X040994D01*
Y0445D01*
D02*
G37*
G36*
X04136Y043875D02*
X041254D01*
X041259Y043774D01*
X041094D01*
Y04355D01*
X04136D01*
Y043875D01*
D02*
G37*
G36*
X040841D02*
X040727D01*
Y04355D01*
X040994D01*
Y043774D01*
X040828D01*
X040832Y043778D01*
X040835Y043789D01*
X040838Y043809D01*
X04084Y043837D01*
X040841Y043875D01*
D02*
G37*
G36*
X04136Y04345D02*
X041094D01*
Y043125D01*
X04136D01*
Y04345D01*
D02*
G37*
G36*
X040994D02*
X040727D01*
Y043125D01*
X040994D01*
Y04345D01*
D02*
G37*
G36*
X037547Y043075D02*
X0373D01*
Y04275D01*
X037547D01*
Y043075D01*
D02*
G37*
G36*
X0372D02*
X036953D01*
Y04275D01*
X0372D01*
Y043075D01*
D02*
G37*
G36*
X037547Y04265D02*
X0373D01*
Y042518D01*
X037503D01*
X037512Y042325D01*
X037547D01*
Y04265D01*
D02*
G37*
G36*
X0372D02*
X036953D01*
Y042325D01*
X037107D01*
X037109Y042376D01*
X037109Y042518D01*
X0372D01*
Y04265D01*
D02*
G37*
G36*
X037623Y042225D02*
X037517D01*
X037522Y042124D01*
X037356D01*
Y0419D01*
X037623D01*
Y042225D01*
D02*
G37*
G36*
X037104D02*
X03699D01*
Y0419D01*
X037256D01*
Y042124D01*
X037091D01*
X037095Y042128D01*
X037098Y04214D01*
X0371Y042159D01*
X037103Y042187D01*
X037104Y042225D01*
D02*
G37*
%LPD*%
G36*
X040077Y045655D02*
X04006Y045628D01*
X040045Y04559D01*
X040032Y045541D01*
X040022Y04548D01*
X040013Y045408D01*
X040001Y045231D01*
X039997Y045009D01*
X039603D01*
X039602Y045125D01*
X039578Y04548D01*
X039568Y045541D01*
X039555Y04559D01*
X03954Y045628D01*
X039523Y045655D01*
X039504Y045671D01*
X040096D01*
X040077Y045655D01*
D02*
G37*
G36*
X039822Y044753D02*
X039772Y0447D01*
X039848Y044706D01*
X039899Y044715D01*
X039943Y044727D01*
X039978Y044741D01*
X040005Y044758D01*
X040025Y044777D01*
X040037Y044799D01*
X040041Y044824D01*
Y044276D01*
X040037Y044281D01*
X040025Y044285D01*
X040005Y044289D01*
X039978Y044292D01*
X039899Y044297D01*
X039827Y044298D01*
X039643Y044287D01*
X039607Y04428D01*
X03958Y044273D01*
X03956Y044264D01*
X039548Y044254D01*
X039544Y044243D01*
X038956Y044753D01*
X039018Y044756D01*
X039079Y044764D01*
X039139Y044778D01*
X039199Y044797D01*
X039258Y044822D01*
X039316Y044853D01*
X039374Y044889D01*
X039431Y044931D01*
X039488Y044978D01*
X039544Y045031D01*
X039822Y044753D01*
D02*
G37*
G36*
X039548Y043994D02*
X03956Y043984D01*
X03958Y043975D01*
X039607Y043968D01*
X039643Y043961D01*
X039686Y043956D01*
X039796Y043949D01*
X039938Y043947D01*
Y043819D01*
X040041Y043774D01*
Y043226D01*
X040037Y043288D01*
X040025Y043344D01*
X040005Y043393D01*
X039978Y043435D01*
X039943Y043471D01*
X039899Y043501D01*
X039848Y043524D01*
X039789Y04354D01*
X039752Y043546D01*
X039643Y043539D01*
X039607Y043532D01*
X03958Y043525D01*
X03956Y043516D01*
X039548Y043506D01*
X039544Y043495D01*
Y044005D01*
X039548Y043994D01*
D02*
G37*
G36*
X040457Y043222D02*
X040445Y04321D01*
X040433Y043191D01*
X040424Y043163D01*
X040416Y043128D01*
X040409Y043084D01*
X0404Y042974D01*
X040397Y042832D01*
X040003D01*
X040041Y043226D01*
X040472D01*
X040457Y043222D01*
D02*
G37*
%LPC*%
G36*
X045573Y0255D02*
X045501D01*
Y025175D01*
X045573D01*
Y0255D01*
D02*
G37*
G36*
X042767D02*
X042601D01*
Y025276D01*
X042665D01*
X042634Y025275D01*
X042606Y025272D01*
X042601Y025271D01*
Y025175D01*
X042767D01*
Y0255D01*
D02*
G37*
G36*
X040123D02*
X040001D01*
Y025276D01*
X040022D01*
X040001Y025275D01*
Y025175D01*
X040123D01*
Y0255D01*
D02*
G37*
G36*
X037173D02*
X037001D01*
Y025276D01*
X037072D01*
X03704Y025275D01*
X037012Y025272D01*
X037001Y02527D01*
Y025175D01*
X037173D01*
Y0255D01*
D02*
G37*
G36*
X034223D02*
X034101D01*
Y025276D01*
X034122D01*
X034118Y025272D01*
X034115Y02526D01*
X034112Y025241D01*
X03411Y025213D01*
X034109Y025175D01*
X034223D01*
Y0255D01*
D02*
G37*
G36*
X044551Y0252D02*
X04455Y0252D01*
X044494Y025127D01*
X044459Y025041D01*
X044454Y025D01*
X044551D01*
X044551Y0252D01*
D02*
G37*
G36*
X041651Y025167D02*
X041623Y025156D01*
X04155Y0251D01*
X041494Y025027D01*
X041459Y024941D01*
X041454Y0249D01*
X041651D01*
X041651Y025167D01*
D02*
G37*
G36*
X039051Y025139D02*
X039Y0251D01*
X038944Y025027D01*
X038909Y024941D01*
X038904Y0249D01*
X039051D01*
X039051Y025139D01*
D02*
G37*
G36*
X036051D02*
X036Y0251D01*
X035944Y025027D01*
X035909Y024941D01*
X035904Y0249D01*
X036051D01*
X036051Y025139D01*
D02*
G37*
G36*
X033151Y025138D02*
X033073Y025106D01*
X033Y02505D01*
X032944Y024977D01*
X032909Y024891D01*
X032904Y02485D01*
X033151D01*
X033151Y025138D01*
D02*
G37*
G36*
X044551Y0249D02*
X044454D01*
X044459Y024859D01*
X044494Y024773D01*
X04455Y0247D01*
X044551Y0247D01*
Y0249D01*
D02*
G37*
G36*
X042601Y024929D02*
Y024828D01*
X042602Y024828D01*
X042601D01*
Y024692D01*
X042703D01*
Y024929D01*
X042601D01*
D02*
G37*
G36*
X034203D02*
X034103D01*
X034103Y024882D01*
X034101D01*
Y024692D01*
X034203D01*
Y024929D01*
D02*
G37*
G36*
X037001D02*
Y024832D01*
X037024Y024829D01*
X037052Y024828D01*
X037001D01*
Y024692D01*
X037153D01*
Y024929D01*
X037001D01*
D02*
G37*
G36*
X045553Y024929D02*
X045501D01*
Y024692D01*
X045553D01*
Y024929D01*
D02*
G37*
G36*
X040103Y024829D02*
X040001D01*
Y024728D01*
X040002Y024728D01*
X040001D01*
Y024592D01*
X040103D01*
Y024829D01*
D02*
G37*
G36*
X039051Y0248D02*
X038904D01*
X038909Y024759D01*
X038944Y024673D01*
X039Y0246D01*
X039051Y024561D01*
Y0248D01*
D02*
G37*
G36*
X036051D02*
X035904D01*
X035909Y024759D01*
X035944Y024673D01*
X036Y0246D01*
X036051Y024561D01*
Y0248D01*
D02*
G37*
G36*
X041651D02*
X041454D01*
X041459Y024759D01*
X041494Y024673D01*
X04155Y0246D01*
X041623Y024544D01*
X041651Y024533D01*
Y0248D01*
D02*
G37*
G36*
X033429Y024496D02*
X0333D01*
Y024454D01*
X033341Y024459D01*
X033427Y024494D01*
X033429Y024496D01*
D02*
G37*
G36*
X033151Y02475D02*
X032904D01*
X032909Y024709D01*
X032944Y024623D01*
X033Y02455D01*
X033073Y024494D01*
X033159Y024459D01*
X0332Y024454D01*
Y024496D01*
X033151D01*
Y02475D01*
D02*
G37*
G36*
X042703Y024592D02*
X042601D01*
Y024496D01*
X042476D01*
Y024355D01*
X042703D01*
Y024592D01*
D02*
G37*
G36*
X042376Y024496D02*
X042149D01*
Y024355D01*
X042376D01*
Y024496D01*
D02*
G37*
G36*
X037153Y024592D02*
X037001D01*
Y024496D01*
X036926D01*
Y024355D01*
X037153D01*
Y024592D01*
D02*
G37*
G36*
X036826Y024496D02*
X036599D01*
Y024355D01*
X036826D01*
Y024496D01*
D02*
G37*
G36*
X034203Y024592D02*
X034101D01*
Y024496D01*
X033976D01*
Y024355D01*
X034203D01*
Y024592D01*
D02*
G37*
G36*
X033876Y024496D02*
X033649D01*
Y024355D01*
X033876D01*
Y024496D01*
D02*
G37*
G36*
X045553Y024592D02*
X045501D01*
Y024496D01*
X045326D01*
Y024355D01*
X045553D01*
Y024592D01*
D02*
G37*
G36*
X045226Y024496D02*
X044999D01*
Y024355D01*
X045226D01*
Y024496D01*
D02*
G37*
G36*
X040103Y024492D02*
X040001D01*
Y024396D01*
X039876D01*
Y024255D01*
X040103D01*
Y024492D01*
D02*
G37*
G36*
X039776Y024396D02*
X039549D01*
Y024255D01*
X039776D01*
Y024396D01*
D02*
G37*
G36*
X033225Y023073D02*
X0329D01*
Y022806D01*
X033225D01*
Y023073D01*
D02*
G37*
G36*
X0328D02*
X032475D01*
Y022806D01*
X0328D01*
Y023073D01*
D02*
G37*
G36*
X033225Y022706D02*
X0329D01*
Y022541D01*
X033124D01*
X033109Y022537D01*
X033096Y022525D01*
X033085Y022505D01*
X033075Y022478D01*
X033066Y022443D01*
X033066Y02244D01*
X033225D01*
Y022706D01*
D02*
G37*
G36*
X0328D02*
X032475D01*
Y02244D01*
X032634D01*
X032634Y022443D01*
X032626Y022478D01*
X032616Y022505D01*
X032604Y022525D01*
X032591Y022537D01*
X032576Y022541D01*
X0328D01*
Y022706D01*
D02*
G37*
G36*
X033724Y021823D02*
X033627Y021813D01*
X033533Y021785D01*
X033573Y021762D01*
X033631Y021738D01*
X033681Y021724D01*
X033724Y021722D01*
Y021823D01*
D02*
G37*
G36*
Y021721D02*
X033152Y021265D01*
X033159Y021307D01*
X033154Y021355D01*
X033138Y021409D01*
X033122Y021445D01*
X033078Y021362D01*
X033035Y021221D01*
X033025Y021124D01*
X033724D01*
Y021721D01*
D02*
G37*
G36*
X033824Y021823D02*
Y021124D01*
X034523D01*
X034513Y021221D01*
X03447Y021362D01*
X0344Y021493D01*
X034307Y021607D01*
X034193Y0217D01*
X034062Y02177D01*
X033921Y021813D01*
X033824Y021823D01*
D02*
G37*
G36*
X034523Y021024D02*
X033824D01*
Y020325D01*
X033921Y020335D01*
X034062Y020378D01*
X034193Y020447D01*
X034307Y020541D01*
X0344Y020655D01*
X03447Y020785D01*
X034513Y020927D01*
X034523Y021024D01*
D02*
G37*
G36*
X033724D02*
X033025D01*
X033035Y020927D01*
X033078Y020785D01*
X033147Y020655D01*
X033241Y020541D01*
X033355Y020447D01*
X033485Y020378D01*
X033627Y020335D01*
X033724Y020325D01*
Y021024D01*
D02*
G37*
G36*
X04565Y024055D02*
X045549Y024042D01*
X045276D01*
Y023784D01*
X045266Y023761D01*
X045253Y023658D01*
Y023142D01*
X044171Y02206D01*
X04417Y022059D01*
X044133Y022025D01*
X0441Y022D01*
X044064Y021976D01*
X044024Y021955D01*
X04398Y021935D01*
X043933Y021918D01*
X043882Y021903D01*
X043826Y021891D01*
X043766Y021882D01*
X043697Y021874D01*
X043681Y021869D01*
X043658Y021867D01*
X043517Y021824D01*
X043387Y021755D01*
X043273Y021662D01*
X04318Y021548D01*
X043111Y021418D01*
X043068Y021278D01*
X043053Y021131D01*
Y021031D01*
X043068Y020885D01*
X043111Y020744D01*
X04318Y020614D01*
X043273Y0205D01*
X043387Y020407D01*
X043517Y020338D01*
X043658Y020295D01*
X043804Y020281D01*
X04395Y020295D01*
X044091Y020338D01*
X044221Y020407D01*
X044335Y0205D01*
X044428Y020614D01*
X044497Y020744D01*
X04454Y020885D01*
X044542Y020907D01*
X044547Y020921D01*
X044568Y021099D01*
X044581Y02117D01*
X044598Y021237D01*
X044616Y021297D01*
X044636Y021349D01*
X044657Y021394D01*
X04468Y021433D01*
X044703Y021464D01*
X044734Y021499D01*
X044734Y021499D01*
X045931Y022696D01*
X045994Y022779D01*
X046034Y022874D01*
X046047Y022977D01*
Y023658D01*
X046034Y023761D01*
X046024Y023784D01*
Y024042D01*
X045751D01*
X04565Y024055D01*
D02*
G37*
G36*
X0428D02*
X042699Y024042D01*
X042426D01*
Y023784D01*
X042416Y023761D01*
X042403Y023658D01*
Y022292D01*
X042167Y022056D01*
X042166Y022056D01*
X04213Y022022D01*
X042097Y021996D01*
X04206Y021973D01*
X042021Y021951D01*
X041977Y021932D01*
X04193Y021915D01*
X041878Y0219D01*
X041823Y021888D01*
X041763Y021878D01*
X041694Y021871D01*
X041678Y021866D01*
X041654Y021864D01*
X041513Y021821D01*
X041384Y021752D01*
X04127Y021658D01*
X041177Y021545D01*
X041107Y021415D01*
X041065Y021274D01*
X04105Y021128D01*
Y021028D01*
X041065Y020881D01*
X041107Y020741D01*
X041177Y020611D01*
X04127Y020497D01*
X041384Y020404D01*
X041513Y020334D01*
X041654Y020292D01*
X041801Y020277D01*
X041947Y020292D01*
X042088Y020334D01*
X042218Y020404D01*
X042331Y020497D01*
X042425Y020611D01*
X042494Y020741D01*
X042537Y020881D01*
X042539Y020903D01*
X042544Y020918D01*
X042565Y021096D01*
X042578Y021167D01*
X042594Y021234D01*
X042613Y021293D01*
X042633Y021346D01*
X042654Y021391D01*
X042676Y021429D01*
X042699Y021461D01*
X04273Y021496D01*
X042731Y021496D01*
X043081Y021846D01*
X043144Y021929D01*
X043184Y022024D01*
X043197Y022127D01*
Y023658D01*
X043184Y023761D01*
X043174Y023784D01*
Y024042D01*
X042901D01*
X0428Y024055D01*
D02*
G37*
G36*
X0402Y023955D02*
X040099Y023942D01*
X039826D01*
Y023684D01*
X039816Y023661D01*
X039803Y023558D01*
Y022803D01*
X039549Y022549D01*
X039486Y022466D01*
X039446Y022371D01*
X039433Y022268D01*
Y022058D01*
X039432Y022057D01*
X039433Y022057D01*
Y022056D01*
X039432Y022055D01*
X03943Y022011D01*
X039425Y021974D01*
X039415Y021935D01*
X039401Y021893D01*
X039381Y021847D01*
X039357Y021799D01*
X039328Y02175D01*
X039248Y021637D01*
X039199Y021578D01*
X039191Y021563D01*
X039176Y021544D01*
X039107Y021414D01*
X039064Y021274D01*
X03905Y021127D01*
Y021027D01*
X039064Y020881D01*
X039107Y02074D01*
X039176Y02061D01*
X039269Y020497D01*
X039383Y020403D01*
X039513Y020334D01*
X039654Y020291D01*
X0398Y020277D01*
X039946Y020291D01*
X040087Y020334D01*
X040217Y020403D01*
X040331Y020497D01*
X040424Y02061D01*
X040493Y02074D01*
X040536Y020881D01*
X04055Y021027D01*
Y021127D01*
X040536Y021274D01*
X040493Y021414D01*
X040424Y021544D01*
X040409Y021562D01*
X040402Y021576D01*
X040364Y021623D01*
X040335Y021665D01*
X040309Y021708D01*
X040287Y02175D01*
X040269Y021793D01*
X040254Y021837D01*
X040242Y021881D01*
X040234Y021927D01*
X040229Y021973D01*
X040227Y022028D01*
X040227Y02203D01*
Y022103D01*
X040481Y022357D01*
X040544Y02244D01*
X040584Y022535D01*
X040597Y022638D01*
Y023558D01*
X040584Y023661D01*
X040574Y023684D01*
Y023942D01*
X040301D01*
X0402Y023955D01*
D02*
G37*
G36*
X03725Y024055D02*
X037149Y024042D01*
X036876D01*
Y023784D01*
X036866Y023761D01*
X036853Y023658D01*
Y022763D01*
X036866Y02266D01*
X036906Y022565D01*
X036969Y022482D01*
X037348Y022103D01*
Y022018D01*
X037348Y022016D01*
X037346Y021957D01*
X037341Y021906D01*
X037334Y021859D01*
X037323Y021813D01*
X03731Y02177D01*
X037294Y021729D01*
X037276Y02169D01*
X037254Y021652D01*
X03723Y021616D01*
X037197Y021575D01*
X03719Y021561D01*
X037176Y021544D01*
X037107Y021414D01*
X037064Y021274D01*
X03705Y021127D01*
Y021027D01*
X037064Y020881D01*
X037107Y02074D01*
X037176Y02061D01*
X037269Y020497D01*
X037383Y020403D01*
X037513Y020334D01*
X037654Y020291D01*
X0378Y020277D01*
X037946Y020291D01*
X038087Y020334D01*
X038217Y020403D01*
X038331Y020497D01*
X038424Y02061D01*
X038493Y02074D01*
X038536Y020881D01*
X03855Y021027D01*
Y021127D01*
X038536Y021274D01*
X038493Y021414D01*
X038424Y021544D01*
X038409Y021563D01*
X0384Y021578D01*
X038346Y021644D01*
X038257Y021766D01*
X038225Y021818D01*
X038197Y021869D01*
X038176Y021915D01*
X038161Y021956D01*
X03815Y021993D01*
X038145Y022024D01*
X038143Y022063D01*
X038142Y022064D01*
Y022268D01*
X038129Y022371D01*
X038089Y022466D01*
X038026Y022549D01*
X037647Y022928D01*
Y023658D01*
X037634Y023761D01*
X037624Y023784D01*
Y024042D01*
X037351D01*
X03725Y024055D01*
D02*
G37*
G36*
X0343D02*
X034199Y024042D01*
X033926D01*
Y023784D01*
X033916Y023761D01*
X033903Y023658D01*
Y0226D01*
X033916Y022497D01*
X033956Y022401D01*
X034019Y022319D01*
X034157Y022181D01*
X034158Y02218D01*
X034459Y021865D01*
X034687Y021593D01*
X034773Y021476D01*
X034842Y02137D01*
X034893Y021277D01*
X034927Y0212D01*
X034944Y02114D01*
X03495Y021078D01*
X034952Y021075D01*
X034965Y020934D01*
X035014Y020774D01*
X035092Y020627D01*
X035198Y020498D01*
X035327Y020392D01*
X035474Y020314D01*
X035634Y020265D01*
X0358Y020249D01*
X035966Y020265D01*
X036126Y020314D01*
X036273Y020392D01*
X036402Y020498D01*
X036508Y020627D01*
X036586Y020774D01*
X036635Y020934D01*
X036651Y0211D01*
X036635Y021266D01*
X036586Y021426D01*
X036508Y021573D01*
X036402Y021702D01*
X036273Y021808D01*
X036126Y021886D01*
X035966Y021935D01*
X035825Y021948D01*
X035822Y02195D01*
X03576Y021956D01*
X0357Y021973D01*
X035623Y022007D01*
X03553Y022058D01*
X035424Y022127D01*
X035309Y022212D01*
X034883Y022583D01*
X034722Y02274D01*
X03472Y022741D01*
X034697Y022764D01*
Y023658D01*
X034684Y023761D01*
X034674Y023784D01*
Y024042D01*
X034401D01*
X0343Y024055D01*
D02*
G37*
%LPD*%
G36*
X044584Y021633D02*
X044546Y02159D01*
X044511Y021542D01*
X04448Y021488D01*
X044451Y021428D01*
X044426Y021362D01*
X044404Y02129D01*
X044385Y021213D01*
X044369Y021129D01*
X044348Y020945D01*
X043718Y021675D01*
X043792Y021683D01*
X043863Y021694D01*
X043931Y021709D01*
X043995Y021727D01*
X044055Y021749D01*
X044112Y021774D01*
X044166Y021803D01*
X044216Y021836D01*
X044263Y021872D01*
X044306Y021911D01*
X044584Y021633D01*
D02*
G37*
G36*
X042581Y021629D02*
X042543Y021587D01*
X042508Y021539D01*
X042476Y021484D01*
X042448Y021424D01*
X042423Y021359D01*
X042401Y021287D01*
X042382Y021209D01*
X042366Y021126D01*
X042344Y020942D01*
X041715Y021672D01*
X041789Y021679D01*
X04186Y021691D01*
X041928Y021705D01*
X041992Y021724D01*
X042052Y021746D01*
X042109Y021771D01*
X042163Y0218D01*
X042213Y021832D01*
X042259Y021868D01*
X042302Y021908D01*
X042581Y021629D01*
D02*
G37*
G36*
X040027Y022021D02*
X040029Y021959D01*
X040035Y021898D01*
X040046Y021838D01*
X040062Y021779D01*
X040081Y021721D01*
X040105Y021665D01*
X040134Y02161D01*
X040167Y021556D01*
X040204Y021503D01*
X040245Y021451D01*
X039355D01*
X039407Y021515D01*
X039497Y021641D01*
X039533Y021702D01*
X039563Y021762D01*
X039588Y021821D01*
X039608Y021879D01*
X039622Y021935D01*
X03963Y021991D01*
X039633Y022045D01*
X040027Y022021D01*
D02*
G37*
G36*
X037945Y022001D02*
X037954Y021949D01*
X037969Y021894D01*
X037991Y021837D01*
X038018Y021778D01*
X038051Y021717D01*
X038091Y021654D01*
X038188Y021521D01*
X038245Y021451D01*
X037355D01*
X037391Y021497D01*
X037424Y021546D01*
X037453Y021596D01*
X037479Y021649D01*
X0375Y021704D01*
X037517Y021761D01*
X037531Y02182D01*
X037541Y021882D01*
X037547Y021945D01*
X037548Y02201D01*
X037942Y022051D01*
X037945Y022001D01*
D02*
G37*
G36*
X034746Y022436D02*
X035183Y022055D01*
X03531Y021962D01*
X035427Y021886D01*
X035534Y021826D01*
X035633Y021784D01*
X035721Y021759D01*
X0358Y02175D01*
X03515Y0211D01*
X035141Y021179D01*
X035116Y021267D01*
X035074Y021366D01*
X035014Y021473D01*
X034938Y02159D01*
X034845Y021717D01*
X034608Y021999D01*
X034304Y022318D01*
X034582Y022596D01*
X034746Y022436D01*
D02*
G37*
D17*
X0348Y0483D02*
X0355Y0476D01*
X03465Y04845D02*
X0348Y0483D01*
X03145Y047528D02*
X03155Y047428D01*
X03165Y04845D02*
X03465D01*
X0315Y0483D02*
X03165Y04845D01*
X0315Y047578D02*
Y0483D01*
X03145Y047528D02*
X0315Y047578D01*
X031541Y047419D02*
X03155Y047428D01*
X029905Y046301D02*
X029936Y04627D01*
Y035386D02*
Y04627D01*
X029391Y035441D02*
Y047388D01*
X029359Y047419D02*
X029391Y047388D01*
X030136Y037914D02*
X0348Y03325D01*
X034622Y0319D02*
X034741D01*
X0348Y031959D01*
Y03325D01*
X02065Y02665D02*
Y028187D01*
X0206Y028237D02*
X02065Y028187D01*
X020587Y02825D02*
X0206Y028237D01*
X0275Y027247D02*
Y028144D01*
X04425Y03555D02*
Y0402D01*
X03975Y0349D02*
X0436D01*
X04425Y03555D01*
X019791Y044091D02*
X01995Y04425D01*
X0355Y0425D02*
Y04275D01*
X03455Y04155D02*
X0355Y0425D01*
X03965Y035D02*
X03975Y0349D01*
X041278Y039422D02*
X04135Y03935D01*
X039356Y038906D02*
X039872Y039422D01*
X041278D01*
X04135Y0382D02*
Y03935D01*
X03815Y0412D02*
X03935D01*
X03965Y035D02*
Y03595D01*
X01965Y027197D02*
Y02915D01*
X0219Y027297D02*
Y02915D01*
X02425Y027197D02*
Y0292D01*
X0265Y027247D02*
Y0292D01*
X028845Y035345D02*
Y045982D01*
X02675Y03325D02*
X028845Y035345D01*
X0355Y04365D02*
Y0476D01*
X030536Y042434D02*
X033207Y045106D01*
Y045982D01*
X01925Y0235D02*
X01955D01*
X01965Y0236D01*
X02815Y02485D02*
X028716D01*
X028551Y024802D02*
X028716D01*
X02365Y02485D02*
X024097D01*
X024197Y02475D01*
X0213Y0249D02*
X022066D01*
X0236Y02345D02*
X02405D01*
X02425Y02365D01*
X0214Y02345D02*
X0219D01*
X02135Y0235D02*
X0214Y02345D01*
X01965Y0236D02*
X0198Y02345D01*
X027293Y023043D02*
X02745Y0232D01*
X027293Y021054D02*
Y023043D01*
X024197Y02475D02*
X02425Y024803D01*
X02855D02*
X028551Y024802D01*
X026453Y0249D02*
X0265Y024853D01*
X026Y0249D02*
X026453D01*
X0219Y02345D02*
X0219Y02345D01*
X022066Y02485D02*
Y0249D01*
X021953Y02485D02*
X022066D01*
X0219Y024903D02*
X021953Y02485D01*
X019597D02*
X0196Y024853D01*
X0188Y02485D02*
X019597D01*
X0275Y02325D02*
Y024853D01*
X02745Y0232D02*
X0275Y02325D01*
X0265Y0292D02*
X02655Y02925D01*
X0219Y02915D02*
X02195Y0292D01*
X0286Y027197D02*
Y029215D01*
X033906Y024662D02*
X033926Y024642D01*
X0338Y02635D02*
Y027303D01*
X0338Y02635D02*
X0338Y02635D01*
X0347Y024668D02*
Y02635D01*
X034674Y024642D02*
X0347Y024668D01*
X036856Y024662D02*
Y02545D01*
Y024662D02*
X036876Y024642D01*
X03675Y0263D02*
Y027303D01*
X03675Y0263D02*
X03675Y0263D01*
X0376Y0255D02*
Y02635D01*
Y024666D02*
Y0255D01*
Y024666D02*
X037624Y024642D01*
X0406Y024568D02*
Y02635D01*
X040574Y024542D02*
X0406Y024568D01*
X039806Y024562D02*
Y0255D01*
Y024562D02*
X039826Y024542D01*
X03955Y026578D02*
Y027303D01*
Y026578D02*
X0397Y026428D01*
Y02635D02*
Y026428D01*
X043174Y024642D02*
Y026174D01*
X04325Y02625D01*
X04245Y024666D02*
Y0253D01*
X042426Y024642D02*
X04245Y024666D01*
X04225Y02635D02*
Y027303D01*
Y02635D02*
X04235Y02625D01*
X045256Y024662D02*
Y02555D01*
Y024662D02*
X045276Y024642D01*
X0451Y0264D02*
Y027303D01*
Y0264D02*
X04515Y02635D01*
X04605Y024668D02*
Y02635D01*
X046024Y024642D02*
X04605Y024668D01*
X04425Y0306D02*
Y03175D01*
X04425Y03175D01*
X0318Y02255D02*
X031924Y022426D01*
X04235Y0412D02*
X04415D01*
X04425Y0411D01*
X0408Y0358D02*
X04235D01*
X04065Y03595D02*
X0408Y0358D01*
X03865Y03595D02*
X03965D01*
X040204Y044498D02*
X040256Y04455D01*
X03765Y0388D02*
X038244D01*
X03835Y038906D01*
X04035Y036375D02*
Y0382D01*
Y036375D02*
X04065Y036075D01*
Y03595D02*
Y036075D01*
X03935Y036447D02*
Y0382D01*
Y036447D02*
X03965Y036147D01*
Y03595D02*
Y036147D01*
X03835Y038906D02*
X039356D01*
X03675Y0388D02*
Y039747D01*
X036603Y0396D02*
X03675Y039747D01*
X03585Y0396D02*
X036603D01*
X0358Y03955D02*
X03585Y0396D01*
X03715Y041122D02*
Y0412D01*
X037003Y040975D02*
X03715Y041122D01*
X036775Y040975D02*
X037003D01*
X03635Y04055D02*
X036775Y040975D01*
X0358Y04055D02*
X03635D01*
X045003Y031975D02*
X04515Y031828D01*
X030736Y042233D02*
X033753Y04525D01*
X04515Y03175D02*
Y031828D01*
X033753Y04525D02*
Y0471D01*
X030936Y04215D02*
X034298Y045512D01*
X030736Y038231D02*
Y042233D01*
X030936Y038314D02*
Y04215D01*
X0337Y04275D02*
X0346D01*
X03365Y0428D02*
X0337Y04275D01*
X0346Y04365D02*
X0355D01*
X0328Y04155D02*
X03455D01*
X0191Y0353D02*
Y0354D01*
X028635Y034085D02*
X029936Y035386D01*
X028635Y02925D02*
Y034085D01*
X02655Y02925D02*
Y0326D01*
X029391Y035441D01*
X0197Y0292D02*
Y0328D01*
X0207Y0338D01*
X02195Y0324D02*
X023Y03345D01*
X0262D01*
X0207Y0338D02*
X0258D01*
X02195Y0292D02*
Y0324D01*
X02495Y040171D02*
Y04025D01*
X024567Y039788D02*
X02495Y040171D01*
X024488Y039788D02*
X024567D01*
X02515Y03325D02*
X02675D01*
X0262Y03345D02*
X0283Y03555D01*
X0258Y0338D02*
X027755Y035755D01*
X0242Y0323D02*
X02515Y03325D01*
X0242Y02925D02*
Y0323D01*
X027755Y035755D02*
Y045982D01*
X0286Y029215D02*
X028635Y02925D01*
X0461Y029697D02*
Y03085D01*
X04325Y029697D02*
Y03085D01*
X0377Y03175D02*
Y03305D01*
X04055Y029697D02*
Y03075D01*
X04045Y03085D02*
X04055Y03075D01*
X03775Y029697D02*
Y03075D01*
X0377Y0308D02*
X03775Y03075D01*
X0348Y029697D02*
Y03075D01*
X0347Y03085D02*
X0348Y03075D01*
X0396Y03175D02*
X04045D01*
X0396Y03175D02*
X0396Y03175D01*
X0377Y0317D02*
Y03175D01*
X0375Y03325D02*
X0377Y03305D01*
X035151Y03325D02*
X0375D01*
X0368Y03175D02*
X03765D01*
X035234Y03345D02*
X03985D01*
X04045Y03285D01*
Y03175D02*
Y03285D01*
X04135Y03065D02*
Y03175D01*
Y03065D02*
X0414Y0306D01*
X04225Y03175D02*
X0432D01*
X04225Y03175D02*
X04225Y03175D01*
X03865Y0306D02*
Y0317D01*
X0387Y03175D01*
X03585Y0306D02*
Y0317D01*
X0359Y03175D01*
X0338D02*
X034472D01*
X034622Y0319D01*
X03295Y0307D02*
Y0317D01*
X0329Y03175D02*
X03295Y0317D01*
X0191Y0354D02*
X021342Y037642D01*
X02525Y02635D02*
Y027197D01*
X02065Y02665D02*
X02095Y02635D01*
X027394Y02825D02*
X0275Y028144D01*
X02525Y027197D02*
Y028094D01*
X025094Y02825D02*
X02525Y028094D01*
X0242Y02925D02*
X02425Y0292D01*
X01965Y02915D02*
X0197Y0292D01*
X0283Y03555D02*
Y0471D01*
X04515Y03175D02*
X045822D01*
X045972Y0319D01*
X04605D01*
Y0333D01*
X0455Y03385D02*
X04605Y0333D01*
X042837Y03385D02*
X0455D01*
X0432Y0319D02*
Y03275D01*
X0423Y03365D02*
X0432Y03275D01*
X035317Y03365D02*
X0423D01*
X030136Y037914D02*
Y042853D01*
X0354Y03385D02*
X042837D01*
X030536Y038148D02*
X035234Y03345D01*
X030936Y038314D02*
X0354Y03385D01*
X030736Y038231D02*
X035317Y03365D01*
X030336Y038066D02*
X035151Y03325D01*
X030536Y038148D02*
Y042434D01*
X030136Y042853D02*
X032117Y044834D01*
X030336Y042724D02*
X032662Y04505D01*
X030336Y038066D02*
Y042724D01*
X034298Y045512D02*
Y045982D01*
X019709Y044091D02*
X019791D01*
X032117Y044834D02*
Y045982D01*
X032662Y04505D02*
Y0471D01*
D19*
X03775Y027303D02*
D03*
X03675D02*
D03*
Y029697D02*
D03*
X03775D02*
D03*
X04055Y027303D02*
D03*
X03955D02*
D03*
Y029697D02*
D03*
X04055D02*
D03*
X04325Y027253D02*
D03*
X04225D02*
D03*
Y029647D02*
D03*
X04325D02*
D03*
X04615Y027303D02*
D03*
X04515D02*
D03*
Y029697D02*
D03*
X04615D02*
D03*
X0348Y027303D02*
D03*
X0338D02*
D03*
X0338Y029697D02*
D03*
X0348Y029697D02*
D03*
X02855Y027197D02*
D03*
X02955D02*
D03*
Y024803D02*
D03*
X02855D02*
D03*
X0265Y027247D02*
D03*
X0275D02*
D03*
Y024853D02*
D03*
X0265D02*
D03*
X02425Y027197D02*
D03*
X02525D02*
D03*
Y024803D02*
D03*
X02425D02*
D03*
X0219Y027297D02*
D03*
X0229D02*
D03*
Y024903D02*
D03*
X0219D02*
D03*
X0196Y027247D02*
D03*
X0206D02*
D03*
Y024853D02*
D03*
X0196D02*
D03*
D20*
X0355Y04365D02*
D03*
Y04275D02*
D03*
X04425Y0402D02*
D03*
Y0411D02*
D03*
X04235Y0358D02*
D03*
Y0367D02*
D03*
X0348Y03175D02*
D03*
Y03085D02*
D03*
X0461Y03175D02*
D03*
Y03085D02*
D03*
X04325Y03175D02*
D03*
Y03085D02*
D03*
X03775Y0317D02*
D03*
Y0308D02*
D03*
X04055Y03175D02*
D03*
Y03085D02*
D03*
X0346Y04365D02*
D03*
Y04275D02*
D03*
D21*
X01885Y04325D02*
D03*
Y04415D02*
D03*
X04425Y0306D02*
D03*
Y0297D02*
D03*
X0414Y0306D02*
D03*
Y0297D02*
D03*
X03865Y0306D02*
D03*
Y0297D02*
D03*
X03585Y0306D02*
D03*
Y0297D02*
D03*
X03295Y0307D02*
D03*
Y0298D02*
D03*
D22*
X019058Y03965D02*
D03*
D23*
X021342Y040556D02*
D03*
X021342Y03965D02*
D03*
X021342Y038744D02*
D03*
D24*
X0195Y0421D02*
D03*
X0186D02*
D03*
X03675Y0398D02*
D03*
X03765D02*
D03*
X03675Y0388D02*
D03*
X03765D02*
D03*
X03815Y041D02*
D03*
X03725D02*
D03*
X0393Y04265D02*
D03*
X0402D02*
D03*
X03815Y0427D02*
D03*
X03725D02*
D03*
X04515Y02635D02*
D03*
X04605D02*
D03*
X0338D02*
D03*
X0347D02*
D03*
X03675Y0263D02*
D03*
X03765D02*
D03*
X04235Y02635D02*
D03*
X04325D02*
D03*
X0397D02*
D03*
X0406D02*
D03*
X0242Y02925D02*
D03*
X0251D02*
D03*
X0338Y03175D02*
D03*
X0329D02*
D03*
X0368D02*
D03*
X0359D02*
D03*
X0396D02*
D03*
X0387D02*
D03*
X04225D02*
D03*
X04135D02*
D03*
X04515D02*
D03*
X04425D02*
D03*
X0197Y0292D02*
D03*
X0206D02*
D03*
X02195D02*
D03*
X02285D02*
D03*
X02655Y02925D02*
D03*
X02745D02*
D03*
X028635D02*
D03*
X029535D02*
D03*
D25*
X02495Y038282D02*
D03*
Y04025D02*
D03*
D26*
X0434Y041044D02*
D03*
Y040256D02*
D03*
X03835Y038906D02*
D03*
Y039694D02*
D03*
X03285Y023544D02*
D03*
Y022756D02*
D03*
X0227Y039544D02*
D03*
Y038756D02*
D03*
D27*
X037306Y04185D02*
D03*
X038094D02*
D03*
X041044Y0435D02*
D03*
X040256D02*
D03*
X041044Y04455D02*
D03*
X040256D02*
D03*
X046044Y02555D02*
D03*
X045256D02*
D03*
X034694D02*
D03*
X033906D02*
D03*
X037644D02*
D03*
X036856D02*
D03*
X043237D02*
D03*
X04245D02*
D03*
X040594D02*
D03*
X039806D02*
D03*
X0198Y02825D02*
D03*
X020587D02*
D03*
X022056Y0282D02*
D03*
X022844D02*
D03*
X024306Y02825D02*
D03*
X025094D02*
D03*
X026606D02*
D03*
X027394D02*
D03*
X028706D02*
D03*
X029494D02*
D03*
X021144Y0421D02*
D03*
X020356D02*
D03*
D28*
X03925Y04375D02*
D03*
Y044498D02*
D03*
D29*
X037624Y024642D02*
D03*
X03725Y023658D02*
D03*
X036876Y024642D02*
D03*
X046024Y024642D02*
D03*
X04565Y023658D02*
D03*
X045276Y024642D02*
D03*
X040574Y024542D02*
D03*
X0402Y023558D02*
D03*
X039826Y024542D02*
D03*
X043174Y024642D02*
D03*
X0428Y023658D02*
D03*
X042426Y024642D02*
D03*
X034674D02*
D03*
X0343Y023658D02*
D03*
X033926Y024642D02*
D03*
D30*
X0318Y02375D02*
D03*
D31*
Y02255D02*
D03*
D32*
X03365Y0428D02*
D03*
X03275D02*
D03*
X02871Y02351D02*
D03*
X02961D02*
D03*
X02655Y0234D02*
D03*
X02745D02*
D03*
X02425Y02345D02*
D03*
X02515D02*
D03*
X0219D02*
D03*
X0228D02*
D03*
X0198D02*
D03*
X0207D02*
D03*
D33*
X022276Y042D02*
D03*
X023024D02*
D03*
D65*
X02553Y04673D02*
X026205Y047405D01*
X027164D02*
X027178Y047419D01*
X026205Y047405D02*
X027164D01*
X019196Y02635D02*
X0206D01*
X02525D02*
X02755D01*
X01895Y04405D02*
X02005D01*
X02025Y042156D02*
X020406Y042D01*
X02005Y04405D02*
X02025Y04385D01*
Y039096D02*
X020596Y03875D01*
X02025Y039096D02*
Y042D01*
X021342Y038744D02*
X022885D01*
X02025Y042156D02*
Y04385D01*
X020596Y03875D02*
X021165D01*
X0186Y04295D02*
X01885Y0432D01*
X0186Y0421D02*
Y04295D01*
X01885Y0432D02*
Y04325D01*
X02005Y04405D02*
X02015D01*
X01885Y04415D02*
X01895Y04405D01*
X021194Y042D02*
X021194Y042D01*
X022276D01*
X026669Y042346D02*
Y04598D01*
X023202Y042D02*
X026323D01*
X026669Y042346D01*
X02955Y027197D02*
Y028194D01*
Y02635D02*
Y027197D01*
X0315Y040896D02*
Y042D01*
X031846Y04055D02*
X0328D01*
X0315Y040896D02*
X031846Y04055D01*
X0315Y042D02*
X0323Y0428D01*
X03275D01*
X022885Y038744D02*
X023348Y038282D01*
X02495D01*
X025009Y0449D02*
X02553Y04542D01*
Y04673D01*
X0205Y0449D02*
X025009D01*
X021194Y040654D02*
Y042D01*
Y040654D02*
X021292Y040556D01*
X021342D01*
X02005Y04445D02*
X0205Y0449D01*
X0184Y027146D02*
X019196Y02635D01*
X02755D02*
X02955D01*
X029494Y02825D02*
X02955Y028194D01*
X021342Y037542D02*
Y037642D01*
X0191Y0353D02*
X021342Y037542D01*
X0184Y0346D02*
X0191Y0353D01*
X0229Y02635D02*
X02525D01*
X02095D02*
X0229D01*
X0184Y027146D02*
Y0346D01*
X021342Y037642D02*
Y038744D01*
D66*
X0206Y027247D02*
Y028237D01*
Y02635D02*
Y027247D01*
X022844Y026406D02*
Y0282D01*
Y026406D02*
X0229Y02635D01*
X0275Y0264D02*
Y027247D01*
Y0264D02*
X02755Y02635D01*
X01785Y04095D02*
X0179Y0409D01*
X018903D01*
X0195Y041497D01*
Y0421D01*
X034032Y02885D02*
X044869D01*
X04235Y037994D02*
Y038294D01*
X043334Y039184D02*
Y040237D01*
X042445Y038389D02*
X042539D01*
X042456Y038512D02*
Y039605D01*
X04235Y038294D02*
X042445Y038389D01*
X042539D02*
X043334Y039184D01*
X043353Y040256D02*
X0434D01*
X043334Y040237D02*
X043353Y040256D01*
X037881Y039942D02*
X03835D01*
X042428Y036902D02*
X042456Y036931D01*
X03765Y039878D02*
X037817D01*
X04235Y037994D02*
X042456Y037888D01*
X04235Y0367D02*
X042428D01*
X042226Y039835D02*
X042456Y039605D01*
X03835Y039694D02*
Y039942D01*
X03765Y0398D02*
Y039878D01*
X042428Y0367D02*
Y036902D01*
X037817Y039878D02*
X037881Y039942D01*
X038492Y039835D02*
X042226D01*
X042456Y036931D02*
Y037888D01*
X041044Y045304D02*
X04205Y046311D01*
X041653Y046695D02*
X042037Y046311D01*
X043826Y043826D02*
Y046276D01*
X04305Y04305D02*
X043826Y043826D01*
X04215Y04305D02*
X04305D01*
X04135Y04225D02*
X04215Y04305D01*
X04135Y0412D02*
Y04225D01*
X04035Y0412D02*
X04135D01*
X037306Y04185D02*
Y043406D01*
X0385Y0446D02*
Y047D01*
X037306Y043406D02*
X0385Y0446D01*
Y047D02*
X0394Y0479D01*
X04125D01*
X041653Y047497D01*
X042037Y046311D02*
X04205D01*
X041653Y046695D02*
Y047497D01*
X041044Y04455D02*
Y045304D01*
Y0435D02*
Y04455D01*
X03815Y0412D02*
Y04265D01*
Y041D02*
X039244D01*
X03935Y041106D01*
Y0412D01*
X03815Y04265D02*
X0393D01*
X03815Y041D02*
Y0412D01*
Y04265D02*
Y0427D01*
X0402Y04265D02*
Y043385D01*
X040256Y043441D01*
Y0435D01*
X03925Y04375D02*
X040065D01*
X040256Y043558D01*
Y0435D02*
Y043558D01*
X039289Y044498D02*
X040204D01*
X03965Y0461D02*
X0398Y04595D01*
Y045009D02*
Y04595D01*
X039289Y044498D02*
X0398Y045009D01*
X03925Y044498D02*
X039289D01*
X03965Y0461D02*
X0398Y04625D01*
X02515Y02345D02*
Y024066D01*
X02602Y02343D02*
X02652D01*
X02655Y0234D01*
X026Y02345D02*
X02602Y02343D01*
X02867Y02347D02*
X02871Y02351D01*
X02822Y02347D02*
X02867D01*
X0282Y02345D02*
X02822Y02347D01*
X0228Y02345D02*
X02285Y0234D01*
Y0223D02*
Y0234D01*
Y0223D02*
X023265Y021885D01*
X0228Y02345D02*
Y023475D01*
X0229Y023575D02*
Y024903D01*
X0228Y023475D02*
X0229Y023575D01*
X023265Y021186D02*
X0234Y021051D01*
X023265Y021186D02*
Y021885D01*
X04325Y02805D02*
X043421D01*
X0324Y023544D02*
X03285D01*
X02515Y021548D02*
Y0232D01*
Y021548D02*
X025403Y021295D01*
Y021054D02*
Y021295D01*
X025169Y024722D02*
X02525Y024803D01*
X025169Y024085D02*
Y024722D01*
X02515Y024066D02*
X025169Y024085D01*
X02515Y0232D02*
Y02345D01*
X02065Y0232D02*
Y024803D01*
Y021964D02*
Y0232D01*
X021399Y02105D02*
Y021214D01*
X02065Y021964D02*
X021399Y021214D01*
X02955Y02225D02*
Y0232D01*
X029435Y022135D02*
X02955Y02225D01*
X029299Y02105D02*
X029435Y021185D01*
Y022135D01*
X02955Y0232D02*
X029575Y023225D01*
Y024778D01*
X0296Y024803D01*
X0314Y02885D02*
X034032D01*
X029494Y02825D02*
Y02828D01*
X029513Y0283D01*
X03085D01*
X0314Y02885D01*
X03625Y02485D02*
X036458Y024642D01*
X036876D01*
X03325Y0248D02*
X033408Y024642D01*
X033926D01*
X0418Y02485D02*
X042008Y024642D01*
X042426D01*
X03925Y02485D02*
X039558Y024542D01*
X039826D01*
X045256Y025491D02*
Y02555D01*
X045237Y025472D02*
X045256Y025491D01*
X045178Y025472D02*
X045237D01*
X04482Y025114D02*
X045178Y025472D01*
X04482Y02497D02*
Y025114D01*
X0448Y02495D02*
X04482Y02497D01*
X033906Y024662D02*
Y02555D01*
X043804Y021081D02*
Y021131D01*
X04565Y022977D01*
Y023658D01*
X0343Y0226D02*
X0358Y0211D01*
X0343Y0226D02*
Y023658D01*
X03725Y022763D02*
Y023658D01*
Y022763D02*
X037745Y022268D01*
Y021132D02*
Y022268D01*
Y021132D02*
X0378Y021077D01*
X0402Y022638D02*
Y023558D01*
X03983Y022268D02*
X0402Y022638D01*
X03983Y021107D02*
Y022268D01*
X0398Y021077D02*
X03983Y021107D01*
X0428Y022127D02*
Y023658D01*
X041801Y021128D02*
X0428Y022127D01*
X041801Y021078D02*
Y021128D01*
X031915Y023544D02*
X0324D01*
Y0237D02*
X03245D01*
X0408Y02805D02*
X04325D01*
X031709Y02375D02*
X031915Y023544D01*
X03285Y0221D02*
Y022756D01*
Y0221D02*
X033774Y021176D01*
Y021074D02*
Y021176D01*
X03485Y02805D02*
X038D01*
X03235D02*
X03485D01*
X0348Y027303D02*
Y028D01*
X03485Y02805D01*
X033801Y029081D02*
Y029696D01*
Y029081D02*
X034032Y02885D01*
X0451Y029081D02*
Y029697D01*
X044869Y02885D02*
X0451Y029081D01*
X03585Y0297D02*
X036747D01*
X036751Y028853D02*
Y029696D01*
X039551Y028853D02*
Y029696D01*
X039547Y0297D02*
X039551Y029696D01*
X033719Y029803D02*
X0338Y029722D01*
X042251Y028903D02*
Y029696D01*
X03865Y0297D02*
X039547D01*
X042247D02*
X042251Y029696D01*
X03295Y0298D02*
X032953Y029803D01*
X0338Y029697D02*
X033801Y029696D01*
X0338Y029697D02*
Y029722D01*
X044251Y028928D02*
Y029699D01*
X032953Y029803D02*
X033719D01*
X036747Y0297D02*
X036751Y029696D01*
X0414Y0297D02*
X042247D01*
X04425D02*
X044251Y029699D01*
X043421Y02805D02*
X046041D01*
X04325Y027303D02*
Y027879D01*
X043421Y02805D01*
X031774Y021074D02*
Y022426D01*
X03165Y02375D02*
X031709D01*
X03165D02*
Y02735D01*
X03235Y02805D01*
X038D02*
X0408D01*
X03775Y027303D02*
Y0278D01*
X038Y02805D01*
X0461Y027303D02*
Y027991D01*
X046041Y02805D02*
X0461Y027991D01*
X04055Y0278D02*
X0408Y02805D01*
X04055Y027303D02*
Y0278D01*
X021342Y03965D02*
X0239D01*
X02745Y02925D02*
Y0305D01*
X0239Y03965D02*
X0245Y04025D01*
X0206Y0306D02*
X0206Y0306D01*
X0206Y0292D02*
Y0306D01*
X02285Y0292D02*
Y0305D01*
X0251Y02925D02*
Y03055D01*
X029535Y02925D02*
Y030464D01*
X029621Y03055D01*
Y030579D01*
D67*
X0251Y0354D02*
X0267Y037D01*
X0226Y0354D02*
X0251D01*
X0245Y04025D02*
X02495D01*
X026239D01*
X0267Y037D02*
Y039789D01*
X026239Y04025D02*
X0267Y039789D01*
D68*
X037009Y04686D02*
D03*
X023891D02*
D03*
D69*
X033722Y047419D02*
D03*
X033176Y046301D02*
D03*
X032631Y047419D02*
D03*
X032086Y046301D02*
D03*
X031541Y047419D02*
D03*
X030995Y046301D02*
D03*
X03045Y047419D02*
D03*
X029905Y046301D02*
D03*
X029359Y047419D02*
D03*
X028814Y046301D02*
D03*
X028269Y047419D02*
D03*
X027724Y046301D02*
D03*
X027178Y047419D02*
D03*
X026638Y046299D02*
D03*
D70*
X034267Y046301D02*
D03*
D71*
X029299Y02105D02*
D03*
X019399D02*
D03*
X025403Y021054D02*
D03*
X0234Y021051D02*
D03*
X021399Y02105D02*
D03*
X027293Y021054D02*
D03*
X0192Y0463D02*
D03*
X0212D02*
D03*
X0378Y021077D02*
D03*
X043804Y021081D02*
D03*
X041801Y021078D02*
D03*
X0398Y021077D02*
D03*
D72*
X041826Y046276D02*
D03*
X043826D02*
D03*
X0398Y04625D02*
D03*
X033774Y021074D02*
D03*
X031774D02*
D03*
X0358Y0211D02*
D03*
D73*
X03865Y03595D02*
D03*
X03965D02*
D03*
D74*
X04065D02*
D03*
D75*
X03935Y0382D02*
D03*
D76*
X04035D02*
D03*
X04135D02*
D03*
X04235D02*
D03*
X03935Y0412D02*
D03*
X04035D02*
D03*
X04135D02*
D03*
X04235D02*
D03*
D77*
X0358Y04055D02*
D03*
Y04155D02*
D03*
Y03955D02*
D03*
X0328D02*
D03*
Y04055D02*
D03*
D78*
Y04155D02*
D03*
D79*
X02115Y04405D02*
D03*
D80*
X02015D02*
D03*
D81*
X014881Y04986D02*
D03*
X014831Y01836D02*
D03*
X048181D02*
D03*
X0483Y04995D02*
D03*
D82*
X01785Y04095D02*
D03*
X0226Y0354D02*
D03*
X01925Y0235D02*
D03*
X02602Y02353D02*
D03*
X0282Y02495D02*
D03*
X02365Y02485D02*
D03*
X0213Y02495D02*
D03*
X0236Y0235D02*
D03*
X02819D02*
D03*
X02135Y02355D02*
D03*
X026Y02495D02*
D03*
X0188Y02485D02*
D03*
X03625D02*
D03*
X03325Y0248D02*
D03*
X0418Y02485D02*
D03*
X03925D02*
D03*
X0448Y02495D02*
D03*
X0324Y0237D02*
D03*
X02745Y0305D02*
D03*
X0206Y0306D02*
D03*
X02285Y0305D02*
D03*
X0251Y03055D02*
D03*
X029621Y030579D02*
D03*
D83*
X02245Y03625D02*
D03*
X0233Y03545D02*
D03*
X0232Y0363D02*
D03*
M02*
