G04*
G04 #@! TF.GenerationSoftware,Altium Limited,Altium Designer,20.1.12 (249)*
G04*
G04 Layer_Physical_Order=2*
G04 Layer_Color=16711680*
%FSTAX24Y24*%
%MOIN*%
G70*
G04*
G04 #@! TF.SameCoordinates,16AA3A95-E13F-4B7F-BF52-5902ACF92DE2*
G04*
G04*
G04 #@! TF.FilePolarity,Positive*
G04*
G01*
G75*
%ADD17C,0.0100*%
%ADD20R,0.0550X0.0394*%
%ADD30R,0.0472X0.0354*%
%ADD31R,0.0472X0.0354*%
%ADD65C,0.0591*%
%ADD66C,0.0394*%
%ADD67C,0.0787*%
%ADD68C,0.1890*%
%ADD69C,0.0665*%
%ADD70R,0.0665X0.0665*%
%ADD71O,0.1100X0.1200*%
%ADD72C,0.1300*%
%ADD73O,0.0650X0.0900*%
%ADD74R,0.0650X0.0900*%
%ADD75R,0.0600X0.0900*%
%ADD76O,0.0600X0.0900*%
%ADD77O,0.0900X0.0600*%
%ADD78R,0.0900X0.0600*%
%ADD79C,0.0591*%
%ADD80R,0.0591X0.0591*%
%ADD81C,0.1378*%
%ADD82C,0.0500*%
%ADD83C,0.0394*%
G36*
X045372Y047806D02*
Y034806D01*
X037744D01*
X037723Y03483D01*
X037734Y034887D01*
X037772Y034906D01*
X037675D01*
X037675Y034906D01*
X037674Y034906D01*
X036272D01*
X035022Y036156D01*
Y040756D01*
X03539Y041124D01*
X035399Y041116D01*
X035493Y041077D01*
Y041023D01*
X035399Y040984D01*
X035296Y040904D01*
X035216Y040801D01*
X035166Y04068D01*
X035149Y04055D01*
X035166Y04042D01*
X035216Y040299D01*
X035296Y040196D01*
X035399Y040116D01*
X035493Y040077D01*
Y040023D01*
X035399Y039984D01*
X035296Y039904D01*
X035216Y039801D01*
X035166Y03968D01*
X035149Y03955D01*
X035166Y03942D01*
X035216Y039299D01*
X035296Y039196D01*
X035399Y039116D01*
X03552Y039066D01*
X03565Y039049D01*
X03595D01*
X03608Y039066D01*
X036201Y039116D01*
X036304Y039196D01*
X036384Y039299D01*
X036434Y03942D01*
X036451Y03955D01*
X036434Y03968D01*
X036384Y039801D01*
X036304Y039904D01*
X036201Y039984D01*
X036107Y040023D01*
Y040077D01*
X036201Y040116D01*
X036304Y040196D01*
X036384Y040299D01*
X036434Y04042D01*
X036451Y04055D01*
X036434Y04068D01*
X036384Y040801D01*
X036304Y040904D01*
X036201Y040984D01*
X036107Y041023D01*
Y041077D01*
X036201Y041116D01*
X036304Y041196D01*
X036384Y041299D01*
X036434Y04142D01*
X036451Y04155D01*
X036434Y04168D01*
X036384Y041801D01*
X036304Y041904D01*
X036259Y041939D01*
X036255Y041989D01*
X036661Y042395D01*
Y043395D01*
X038222Y044956D01*
Y047656D01*
X038922Y048356D01*
X044822D01*
X045372Y047806D01*
D02*
G37*
G36*
X0358Y04845D02*
Y0429D01*
X0343Y0414D01*
Y03595D01*
X03425Y0359D01*
X0357Y03445D01*
X04605D01*
X0465Y034D01*
Y02915D01*
X04605Y0287D01*
X0313D01*
X03035Y02775D01*
Y0266D01*
X02995Y0262D01*
X01915D01*
X0191Y02615D01*
X0167D01*
X01635Y0265D01*
Y0467D01*
X01885Y0492D01*
X03505D01*
X0358Y04845D01*
D02*
G37*
G36*
X022027Y024519D02*
X021127D01*
X021077Y024569D01*
Y025269D01*
X021127Y025319D01*
X022027D01*
Y024519D01*
D02*
G37*
G36*
X026627Y024469D02*
X025727D01*
X025677Y024519D01*
Y025219D01*
X025727Y025269D01*
X026627D01*
Y024469D01*
D02*
G37*
G36*
X019577D02*
X018677D01*
X018627Y024519D01*
Y025219D01*
X018677Y025269D01*
X019577D01*
Y024469D01*
D02*
G37*
G36*
X028777Y024419D02*
X027877D01*
X027827Y024469D01*
Y025169D01*
X027877Y025219D01*
X028777D01*
Y024419D01*
D02*
G37*
G36*
X02435Y0244D02*
X02345D01*
X0234Y02445D01*
Y02515D01*
X02345Y0252D01*
X02435D01*
Y0244D01*
D02*
G37*
G36*
X018Y0241D02*
X0171D01*
X01705Y02415D01*
Y02485D01*
X0171Y0249D01*
X018D01*
Y0241D01*
D02*
G37*
G36*
X029798Y024065D02*
X029809Y023887D01*
X029816Y023844D01*
X029825Y023809D01*
X029835Y023781D01*
X029846Y023761D01*
X029859Y02375D01*
X029874Y023746D01*
X029326D01*
X029341Y02375D01*
X029354Y023761D01*
X029365Y023781D01*
X029375Y023809D01*
X029384Y023844D01*
X029391Y023887D01*
X029396Y023939D01*
X029402Y024065D01*
X029403Y024139D01*
X029797D01*
X029798Y024065D01*
D02*
G37*
G36*
X027698D02*
X027709Y023887D01*
X027716Y023844D01*
X027725Y023809D01*
X027735Y023781D01*
X027746Y023761D01*
X027759Y02375D01*
X027774Y023746D01*
X027226D01*
X027241Y02375D01*
X027254Y023761D01*
X027265Y023781D01*
X027275Y023809D01*
X027284Y023844D01*
X027291Y023887D01*
X027296Y023939D01*
X027302Y024065D01*
X027303Y024139D01*
X027697D01*
X027698Y024065D01*
D02*
G37*
G36*
X022998D02*
X023009Y023887D01*
X023016Y023844D01*
X023025Y023809D01*
X023035Y023781D01*
X023046Y023761D01*
X023059Y02375D01*
X023074Y023746D01*
X022526D01*
X022541Y02375D01*
X022554Y023761D01*
X022565Y023781D01*
X022575Y023809D01*
X022584Y023844D01*
X022591Y023887D01*
X022596Y023939D01*
X022602Y024065D01*
X022603Y024139D01*
X022997D01*
X022998Y024065D01*
D02*
G37*
G36*
X020848D02*
X020859Y023887D01*
X020866Y023844D01*
X020875Y023809D01*
X020885Y023781D01*
X020896Y023761D01*
X020909Y02375D01*
X020924Y023746D01*
X020376D01*
X020391Y02375D01*
X020404Y023761D01*
X020415Y023781D01*
X020425Y023809D01*
X020434Y023844D01*
X020441Y023887D01*
X020446Y023939D01*
X020452Y024065D01*
X020453Y024139D01*
X020847D01*
X020848Y024065D01*
D02*
G37*
G36*
X025398Y024015D02*
X025409Y023837D01*
X025416Y023794D01*
X025425Y023759D01*
X025435Y023731D01*
X025446Y023711D01*
X025459Y0237D01*
X025474Y023696D01*
X024926D01*
X024941Y0237D01*
X024954Y023711D01*
X024965Y023731D01*
X024975Y023759D01*
X024984Y023794D01*
X024991Y023837D01*
X024996Y023889D01*
X025002Y024015D01*
X025003Y024089D01*
X025397D01*
X025398Y024015D01*
D02*
G37*
G36*
X01995Y0232D02*
X01905D01*
X019Y02325D01*
Y02395D01*
X01905Y024D01*
X01995D01*
Y0232D01*
D02*
G37*
G36*
X02895Y02315D02*
X02805D01*
X028Y0232D01*
Y0239D01*
X02805Y02395D01*
X02895D01*
Y02315D01*
D02*
G37*
G36*
X02445D02*
X02355D01*
X0235Y0232D01*
Y0239D01*
X02355Y02395D01*
X02445D01*
Y02315D01*
D02*
G37*
G36*
X02215D02*
X02125D01*
X0212Y0232D01*
Y0239D01*
X02125Y02395D01*
X02215D01*
Y02315D01*
D02*
G37*
G36*
X0268Y0231D02*
X0259D01*
X02585Y02315D01*
Y02385D01*
X0259Y0239D01*
X0268D01*
Y0231D01*
D02*
G37*
G36*
X019076Y020555D02*
X019007Y020611D01*
X018875Y020707D01*
X018812Y020746D01*
X018751Y020779D01*
X018692Y020805D01*
X018635Y020826D01*
X01858Y020841D01*
X018527Y02085D01*
X018477Y020853D01*
Y021247D01*
X018527Y02125D01*
X01858Y021259D01*
X018635Y021274D01*
X018692Y021295D01*
X018751Y021321D01*
X018812Y021354D01*
X018875Y021393D01*
X019007Y021489D01*
X019076Y021545D01*
Y020555D01*
D02*
G37*
G36*
X0467Y02795D02*
Y02075D01*
X0458Y01985D01*
X0312D01*
X031192Y020397D01*
X031237Y020419D01*
X031301Y020366D01*
X031448Y020288D01*
X031608Y020239D01*
X031774Y020223D01*
X03194Y020239D01*
X032099Y020288D01*
X032247Y020366D01*
X032376Y020472D01*
X032481Y020601D01*
X03256Y020748D01*
X032608Y020908D01*
X032625Y021074D01*
X032608Y02124D01*
X03256Y021399D01*
X032481Y021547D01*
X032376Y021676D01*
X032247Y021781D01*
X032099Y02186D01*
X03194Y021908D01*
X031774Y021925D01*
X031608Y021908D01*
X031448Y02186D01*
X031301Y021781D01*
X031218Y021714D01*
X031173Y021735D01*
X0311Y02685D01*
Y02755D01*
X0318Y02825D01*
X0464D01*
X0467Y02795D01*
D02*
G37*
%LPC*%
G36*
X041876Y047025D02*
Y046326D01*
X042575D01*
X042565Y046423D01*
X042522Y046565D01*
X042453Y046695D01*
X042359Y046809D01*
X042245Y046903D01*
X042115Y046972D01*
X041973Y047015D01*
X041876Y047025D01*
D02*
G37*
G36*
X041776Y047025D02*
X041679Y047015D01*
X041538Y046972D01*
X041407Y046903D01*
X041293Y046809D01*
X0412Y046695D01*
X04113Y046565D01*
X041087Y046423D01*
X041077Y046326D01*
X041776D01*
Y047025D01*
D02*
G37*
G36*
X042575Y046226D02*
X041876D01*
Y045817D01*
X042286D01*
X042236Y045755D01*
X042191Y045674D01*
X042165Y045607D01*
X042245Y04565D01*
X042359Y045743D01*
X042453Y045858D01*
X042522Y045988D01*
X042565Y046129D01*
X042575Y046226D01*
D02*
G37*
G36*
X041776D02*
X041077D01*
X041087Y046129D01*
X04113Y045988D01*
X0412Y045858D01*
X041293Y045743D01*
X041407Y04565D01*
X041488Y045607D01*
X041461Y045674D01*
X041416Y045755D01*
X041366Y045817D01*
X041776D01*
Y046226D01*
D02*
G37*
G36*
X043826Y047127D02*
X04366Y047111D01*
X043501Y047062D01*
X043353Y046984D01*
X043224Y046878D01*
X043119Y046749D01*
X04304Y046602D01*
X042992Y046442D01*
X042975Y046276D01*
X042992Y04611D01*
X04304Y045951D01*
X043119Y045803D01*
X043224Y045674D01*
X043353Y045569D01*
X043501Y04549D01*
X04366Y045442D01*
X043826Y045425D01*
X043992Y045442D01*
X044152Y04549D01*
X044299Y045569D01*
X044428Y045674D01*
X044534Y045803D01*
X044612Y045951D01*
X044661Y04611D01*
X044677Y046276D01*
X044661Y046442D01*
X044612Y046602D01*
X044534Y046749D01*
X044428Y046878D01*
X044299Y046984D01*
X044152Y047062D01*
X043992Y047111D01*
X043826Y047127D01*
D02*
G37*
G36*
X0398Y047101D02*
X039634Y047085D01*
X039474Y047036D01*
X039327Y046958D01*
X039198Y046852D01*
X039092Y046723D01*
X039014Y046576D01*
X038965Y046416D01*
X038949Y04625D01*
X038965Y046084D01*
X039014Y045924D01*
X039092Y045777D01*
X039198Y045648D01*
X039327Y045542D01*
X039474Y045464D01*
X039634Y045415D01*
X0398Y045399D01*
X039966Y045415D01*
X040126Y045464D01*
X040273Y045542D01*
X040402Y045648D01*
X040508Y045777D01*
X040586Y045924D01*
X040635Y046084D01*
X040651Y04625D01*
X040635Y046416D01*
X040586Y046576D01*
X040508Y046723D01*
X040402Y046852D01*
X040273Y046958D01*
X040126Y047036D01*
X039966Y047085D01*
X0398Y047101D01*
D02*
G37*
G36*
X04235Y041851D02*
X04222Y041834D01*
X042099Y041784D01*
X041996Y041704D01*
X041916Y041601D01*
X041877Y041507D01*
X041823D01*
X041784Y041601D01*
X041704Y041704D01*
X041601Y041784D01*
X04148Y041834D01*
X04135Y041851D01*
X04122Y041834D01*
X041099Y041784D01*
X040996Y041704D01*
X040916Y041601D01*
X040877Y041507D01*
X040823D01*
X040784Y041601D01*
X040704Y041704D01*
X040601Y041784D01*
X04048Y041834D01*
X04035Y041851D01*
X04022Y041834D01*
X040099Y041784D01*
X039996Y041704D01*
X039916Y041601D01*
X039877Y041507D01*
X039823D01*
X039784Y041601D01*
X039704Y041704D01*
X039601Y041784D01*
X03948Y041834D01*
X03935Y041851D01*
X03922Y041834D01*
X039099Y041784D01*
X038996Y041704D01*
X038916Y041601D01*
X038866Y04148D01*
X038849Y04135D01*
Y04105D01*
X038866Y04092D01*
X038916Y040799D01*
X038996Y040696D01*
X039099Y040616D01*
X03922Y040566D01*
X03935Y040549D01*
X03948Y040566D01*
X039601Y040616D01*
X039704Y040696D01*
X039784Y040799D01*
X039823Y040893D01*
X039877D01*
X039916Y040799D01*
X039996Y040696D01*
X040099Y040616D01*
X04022Y040566D01*
X04035Y040549D01*
X04048Y040566D01*
X040601Y040616D01*
X040704Y040696D01*
X040784Y040799D01*
X040823Y040893D01*
X040877D01*
X040916Y040799D01*
X040996Y040696D01*
X041099Y040616D01*
X04122Y040566D01*
X04135Y040549D01*
X04148Y040566D01*
X041601Y040616D01*
X041704Y040696D01*
X041784Y040799D01*
X041823Y040893D01*
X041877D01*
X041916Y040799D01*
X041996Y040696D01*
X042099Y040616D01*
X04222Y040566D01*
X04235Y040549D01*
X04248Y040566D01*
X042601Y040616D01*
X042704Y040696D01*
X042784Y040799D01*
X042834Y04092D01*
X042851Y04105D01*
Y04135D01*
X042834Y04148D01*
X042784Y041601D01*
X042704Y041704D01*
X042601Y041784D01*
X04248Y041834D01*
X04235Y041851D01*
D02*
G37*
G36*
X04135Y038851D02*
X04122Y038834D01*
X041099Y038784D01*
X040996Y038704D01*
X040916Y038601D01*
X040877Y038507D01*
X040823D01*
X040784Y038601D01*
X040704Y038704D01*
X040601Y038784D01*
X04048Y038834D01*
X04035Y038851D01*
X04022Y038834D01*
X040099Y038784D01*
X039996Y038704D01*
X039916Y038601D01*
X039897Y038554D01*
X039847Y038564D01*
Y038847D01*
X038853D01*
Y037553D01*
X039847D01*
Y037836D01*
X039897Y037846D01*
X039916Y037799D01*
X039996Y037696D01*
X040099Y037616D01*
X04022Y037566D01*
X04035Y037549D01*
X04048Y037566D01*
X040601Y037616D01*
X040704Y037696D01*
X040784Y037799D01*
X040823Y037893D01*
X040877D01*
X040916Y037799D01*
X040996Y037696D01*
X041099Y037616D01*
X04122Y037566D01*
X04135Y037549D01*
X04148Y037566D01*
X041601Y037616D01*
X041704Y037696D01*
X041784Y037799D01*
X041834Y03792D01*
X041851Y03805D01*
Y03835D01*
X041834Y03848D01*
X041784Y038601D01*
X041704Y038704D01*
X041601Y038784D01*
X04148Y038834D01*
X04135Y038851D01*
D02*
G37*
G36*
X0424Y038747D02*
Y03825D01*
X042562D01*
Y038562D01*
X04259Y038531D01*
X04262Y038503D01*
X042651Y038478D01*
X042685Y038456D01*
X042719Y038438D01*
X042743Y038429D01*
X04274Y038454D01*
X042699Y038552D01*
X042635Y038635D01*
X042552Y038699D01*
X042454Y03874D01*
X0424Y038747D01*
D02*
G37*
G36*
X0423D02*
X042246Y03874D01*
X042148Y038699D01*
X042065Y038635D01*
X042001Y038552D01*
X04196Y038454D01*
X041947Y03835D01*
Y03825D01*
X0423D01*
Y038747D01*
D02*
G37*
G36*
X042562Y03815D02*
X0424D01*
Y037653D01*
X042454Y03766D01*
X042552Y037701D01*
X042635Y037765D01*
X042699Y037848D01*
X04274Y037946D01*
X042743Y037971D01*
X042719Y037962D01*
X042685Y037944D01*
X042651Y037922D01*
X04262Y037897D01*
X04259Y037869D01*
X042562Y037838D01*
Y03815D01*
D02*
G37*
G36*
X0423D02*
X041947D01*
Y03805D01*
X04196Y037946D01*
X042001Y037848D01*
X042065Y037765D01*
X042148Y037701D01*
X042246Y03766D01*
X0423Y037653D01*
Y03815D01*
D02*
G37*
G36*
X03965Y036601D02*
X039514Y036583D01*
X039387Y036531D01*
X039278Y036447D01*
X039194Y036338D01*
X039175Y036292D01*
X039125D01*
X039106Y036338D01*
X039022Y036447D01*
X038913Y036531D01*
X038786Y036583D01*
X03865Y036601D01*
X038514Y036583D01*
X038387Y036531D01*
X038278Y036447D01*
X038194Y036338D01*
X038142Y036211D01*
X038124Y036075D01*
Y035825D01*
X038142Y035689D01*
X038194Y035562D01*
X038278Y035453D01*
X038387Y035369D01*
X038514Y035317D01*
X03865Y035299D01*
X038786Y035317D01*
X038913Y035369D01*
X039022Y035453D01*
X039106Y035562D01*
X039125Y035608D01*
X039175D01*
X039194Y035562D01*
X039278Y035453D01*
X039387Y035369D01*
X039514Y035317D01*
X03965Y035299D01*
X039786Y035317D01*
X039913Y035369D01*
X040022Y035453D01*
X040078Y035526D01*
X040128Y035509D01*
Y035303D01*
X041172D01*
Y036597D01*
X040128D01*
Y036391D01*
X040078Y036374D01*
X040022Y036447D01*
X039913Y036531D01*
X039786Y036583D01*
X03965Y036601D01*
D02*
G37*
G36*
X027608Y047369D02*
X027228D01*
Y046989D01*
X027291Y046997D01*
X027397Y047041D01*
X027487Y04711D01*
X027556Y047201D01*
X0276Y047306D01*
X027608Y047369D01*
D02*
G37*
G36*
X027128D02*
X026749D01*
X026757Y047306D01*
X0268Y047201D01*
X02687Y04711D01*
X02696Y047041D01*
X027065Y046997D01*
X027128Y046989D01*
Y047369D01*
D02*
G37*
G36*
X0308Y048452D02*
X02035D01*
X020254Y048433D01*
X020172Y048378D01*
X019022Y047228D01*
X018967Y047146D01*
X018949Y047054D01*
X018913Y047043D01*
X018881Y047026D01*
X018874Y047025D01*
X01887Y047023D01*
X018866Y047022D01*
X01885Y04701D01*
X018783Y046974D01*
X018669Y046881D01*
X018576Y046767D01*
X018507Y046637D01*
X018464Y046496D01*
X01845Y04635D01*
Y04625D01*
X018464Y046104D01*
X018507Y045963D01*
X018576Y045833D01*
X018669Y045719D01*
X018783Y045626D01*
X018913Y045557D01*
X019054Y045514D01*
X0192Y0455D01*
X019346Y045514D01*
X019487Y045557D01*
X019617Y045626D01*
X019731Y045719D01*
X019824Y045833D01*
X019893Y045963D01*
X019936Y046104D01*
X01995Y04625D01*
Y04635D01*
X019936Y046496D01*
X019893Y046637D01*
X019824Y046767D01*
X019731Y046881D01*
X019617Y046974D01*
X019574Y046997D01*
X019562Y047049D01*
X019566Y04706D01*
X020454Y047948D01*
X021427D01*
X021446Y047902D01*
X021022Y047478D01*
X020967Y047396D01*
X020948Y0473D01*
Y047054D01*
X020913Y047043D01*
X020881Y047026D01*
X020874Y047025D01*
X02087Y047023D01*
X020866Y047022D01*
X02085Y04701D01*
X020783Y046974D01*
X020669Y046881D01*
X020576Y046767D01*
X020507Y046637D01*
X020464Y046496D01*
X02045Y04635D01*
Y04625D01*
X020464Y046104D01*
X020507Y045963D01*
X020576Y045833D01*
X020669Y045719D01*
X020783Y045626D01*
X020913Y045557D01*
X021054Y045514D01*
X0212Y0455D01*
X021346Y045514D01*
X021487Y045557D01*
X021617Y045626D01*
X021731Y045719D01*
X021824Y045833D01*
X021893Y045963D01*
X021936Y046104D01*
X02195Y04625D01*
Y04635D01*
X021936Y046496D01*
X021893Y046637D01*
X021824Y046767D01*
X021731Y046881D01*
X021617Y046974D01*
X02155Y04701D01*
X021534Y047021D01*
X02153Y047022D01*
X021526Y047025D01*
X021519Y047026D01*
X021487Y047043D01*
X021452Y047054D01*
Y047196D01*
X022004Y047748D01*
X023101D01*
X023118Y047701D01*
X023081Y04767D01*
X022964Y047533D01*
X022871Y04738D01*
X022802Y047214D01*
X02276Y047039D01*
X022746Y04686D01*
X02276Y046681D01*
X022802Y046506D01*
X022871Y04634D01*
X022964Y046187D01*
X023081Y04605D01*
X023218Y045933D01*
X023371Y045839D01*
X023537Y045771D01*
X023712Y045729D01*
X023891Y045715D01*
X02407Y045729D01*
X024245Y045771D01*
X024411Y045839D01*
X024564Y045933D01*
X024701Y04605D01*
X024817Y046187D01*
X024911Y04634D01*
X02498Y046506D01*
X025022Y046681D01*
X025036Y04686D01*
X025022Y047039D01*
X02498Y047214D01*
X024911Y04738D01*
X024817Y047533D01*
X024701Y04767D01*
X024664Y047701D01*
X024681Y047748D01*
X026823D01*
X026847Y047698D01*
X0268Y047637D01*
X026757Y047532D01*
X026749Y047469D01*
X027178D01*
X027608D01*
X0276Y047532D01*
X027556Y047637D01*
X027509Y047698D01*
X027534Y047748D01*
X027798D01*
X02782Y047703D01*
X027806Y047686D01*
X027753Y047557D01*
X027735Y047419D01*
X027753Y047281D01*
X027806Y047152D01*
X027891Y047041D01*
X028002Y046956D01*
X028131Y046903D01*
X028269Y046885D01*
X028407Y046903D01*
X028536Y046956D01*
X028647Y047041D01*
X028731Y047152D01*
X028785Y047281D01*
X028789Y047312D01*
X028839D01*
X028844Y047281D01*
X028897Y047152D01*
X028982Y047041D01*
X029092Y046956D01*
X029221Y046903D01*
X029359Y046885D01*
X029498Y046903D01*
X029626Y046956D01*
X029737Y047041D01*
X029822Y047152D01*
X029875Y047281D01*
X02988Y047312D01*
X02993D01*
X029934Y047281D01*
X029987Y047152D01*
X030072Y047041D01*
X030183Y046956D01*
X030312Y046903D01*
X030336Y0469D01*
X030385Y046867D01*
X030481Y046848D01*
X030577Y046867D01*
X030659Y046922D01*
X030691Y046927D01*
X030731Y046886D01*
X030731Y046884D01*
X030713Y046828D01*
X030693Y046781D01*
X030672Y046743D01*
X030651Y046713D01*
X030623Y046682D01*
X030618Y046678D01*
X030533Y046568D01*
X030479Y046439D01*
X030475Y046407D01*
X030425D01*
X030421Y046439D01*
X030367Y046568D01*
X030282Y046678D01*
X030172Y046763D01*
X030043Y046817D01*
X029905Y046835D01*
X029766Y046817D01*
X029638Y046763D01*
X029527Y046678D01*
X029442Y046568D01*
X029389Y046439D01*
X029385Y046407D01*
X029334D01*
X02933Y046439D01*
X029277Y046568D01*
X029192Y046678D01*
X029081Y046763D01*
X028952Y046817D01*
X028814Y046835D01*
X028676Y046817D01*
X028547Y046763D01*
X028437Y046678D01*
X028352Y046568D01*
X028298Y046439D01*
X028294Y046407D01*
X028244D01*
X02824Y046439D01*
X028186Y046568D01*
X028101Y046678D01*
X027991Y046763D01*
X027862Y046817D01*
X027724Y046835D01*
X027585Y046817D01*
X027457Y046763D01*
X027346Y046678D01*
X027261Y046568D01*
X027208Y046439D01*
X027206Y046424D01*
X027155D01*
X027154Y046437D01*
X0271Y046566D01*
X027015Y046676D01*
X026905Y046761D01*
X026776Y046815D01*
X026638Y046833D01*
X0265Y046815D01*
X026371Y046761D01*
X02626Y046676D01*
X026175Y046566D01*
X026122Y046437D01*
X026104Y046299D01*
X026122Y046161D01*
X026175Y046032D01*
X02626Y045921D01*
X026371Y045836D01*
X0265Y045783D01*
X026638Y045765D01*
X026776Y045783D01*
X026905Y045836D01*
X027015Y045921D01*
X0271Y046032D01*
X027154Y046161D01*
X027156Y046175D01*
X027206D01*
X027208Y046163D01*
X027261Y046034D01*
X027346Y045923D01*
X027457Y045838D01*
X027585Y045785D01*
X027724Y045767D01*
X027862Y045785D01*
X027991Y045838D01*
X028101Y045923D01*
X028186Y046034D01*
X02824Y046163D01*
X028244Y046194D01*
X028294D01*
X028298Y046163D01*
X028352Y046034D01*
X028437Y045923D01*
X028547Y045838D01*
X028676Y045785D01*
X028814Y045767D01*
X028952Y045785D01*
X029081Y045838D01*
X029192Y045923D01*
X029277Y046034D01*
X02933Y046163D01*
X029334Y046194D01*
X029385D01*
X029389Y046163D01*
X029442Y046034D01*
X029527Y045923D01*
X029638Y045838D01*
X029766Y045785D01*
X029905Y045767D01*
X030043Y045785D01*
X030172Y045838D01*
X030282Y045923D01*
X030367Y046034D01*
X030421Y046163D01*
X030425Y046194D01*
X030475D01*
X030479Y046163D01*
X030533Y046034D01*
X030618Y045923D01*
X030728Y045838D01*
X030857Y045785D01*
X030882Y045782D01*
X03093Y045749D01*
X031026Y04573D01*
X031123Y045749D01*
X031204Y045804D01*
X031214Y045818D01*
X031262Y045838D01*
X031373Y045923D01*
X031458Y046034D01*
X031511Y046163D01*
X031515Y046194D01*
X031566D01*
X03157Y046163D01*
X031623Y046034D01*
X031708Y045923D01*
X031819Y045838D01*
X031948Y045785D01*
X032086Y045767D01*
X032224Y045785D01*
X032353Y045838D01*
X032463Y045923D01*
X032548Y046034D01*
X032602Y046163D01*
X032606Y046194D01*
X032656D01*
X03266Y046163D01*
X032714Y046034D01*
X032799Y045923D01*
X032909Y045838D01*
X033038Y045785D01*
X033176Y045767D01*
X033315Y045785D01*
X033443Y045838D01*
X033554Y045923D01*
X033639Y046034D01*
X033687Y046151D01*
X033737Y046141D01*
Y045771D01*
X034796D01*
Y04683D01*
X033737D01*
Y046461D01*
X033687Y046451D01*
X033639Y046568D01*
X033554Y046678D01*
X033443Y046763D01*
X033315Y046817D01*
X033176Y046835D01*
X033038Y046817D01*
X032909Y046763D01*
X032799Y046678D01*
X032714Y046568D01*
X03266Y046439D01*
X032656Y046407D01*
X032606D01*
X032602Y046439D01*
X032548Y046568D01*
X032463Y046678D01*
X032353Y046763D01*
X032224Y046817D01*
X032086Y046835D01*
X031948Y046817D01*
X031819Y046763D01*
X031708Y046678D01*
X031623Y046568D01*
X03157Y046439D01*
X031566Y046407D01*
X031515D01*
X031511Y046439D01*
X031458Y046568D01*
X031401Y046642D01*
X031395Y046653D01*
X031373Y046681D01*
X031359Y046705D01*
X031343Y046741D01*
X031328Y046788D01*
X031313Y046847D01*
X031305Y046889D01*
X031347Y046926D01*
X031402Y046903D01*
X031541Y046885D01*
X031679Y046903D01*
X031808Y046956D01*
X031918Y047041D01*
X032003Y047152D01*
X032056Y047281D01*
X032061Y047312D01*
X032111D01*
X032115Y047281D01*
X032169Y047152D01*
X032253Y047041D01*
X032364Y046956D01*
X032493Y046903D01*
X032631Y046885D01*
X032769Y046903D01*
X032898Y046956D01*
X033009Y047041D01*
X033094Y047152D01*
X033147Y047281D01*
X033151Y047312D01*
X033202D01*
X033206Y047281D01*
X033259Y047152D01*
X033344Y047041D01*
X033455Y046956D01*
X033583Y046903D01*
X033722Y046885D01*
X03386Y046903D01*
X033989Y046956D01*
X034099Y047041D01*
X034184Y047152D01*
X034238Y047281D01*
X034256Y047419D01*
X034238Y047557D01*
X034184Y047686D01*
X034099Y047797D01*
X033989Y047881D01*
X03386Y047935D01*
X033722Y047953D01*
X033583Y047935D01*
X033455Y047881D01*
X033344Y047797D01*
X033259Y047686D01*
X033206Y047557D01*
X033202Y047526D01*
X033151D01*
X033147Y047557D01*
X033094Y047686D01*
X033009Y047797D01*
X032898Y047881D01*
X032769Y047935D01*
X032631Y047953D01*
X032493Y047935D01*
X032364Y047881D01*
X032253Y047797D01*
X032169Y047686D01*
X032115Y047557D01*
X032111Y047525D01*
X032061D01*
X032056Y047557D01*
X032003Y047686D01*
X031918Y047797D01*
X031808Y047881D01*
X031679Y047935D01*
X031541Y047953D01*
X031402Y047935D01*
X03132Y047901D01*
X031278Y047928D01*
Y047974D01*
X031259Y04807D01*
X031204Y048152D01*
X030978Y048378D01*
X030896Y048433D01*
X0308Y048452D01*
D02*
G37*
G36*
X02105Y044643D02*
X020934Y044632D01*
X020823Y044598D01*
X02072Y044543D01*
X02063Y04447D01*
X020595Y044427D01*
X020545Y044445D01*
Y044445D01*
X0202D01*
Y04405D01*
Y043655D01*
X020457D01*
Y041347D01*
X018059D01*
X017967Y041385D01*
X01785Y041401D01*
X017733Y041385D01*
X017625Y04134D01*
X017531Y041269D01*
X01746Y041175D01*
X017415Y041067D01*
X017399Y04095D01*
X017415Y040833D01*
X01746Y040725D01*
X017531Y040631D01*
X017625Y04056D01*
X017733Y040515D01*
X01785Y040499D01*
X017967Y040515D01*
X018059Y040553D01*
X020457D01*
Y03695D01*
X020468Y036834D01*
X020502Y036723D01*
X020557Y03662D01*
X02063Y03653D01*
X021586Y035575D01*
X02023Y03422D01*
X020157Y03413D01*
X020102Y034027D01*
X020068Y033916D01*
X020057Y0338D01*
Y03165D01*
X020068Y031534D01*
X020102Y031423D01*
X020157Y03132D01*
X02021Y031255D01*
X020203Y0312D01*
Y030809D01*
X020165Y030717D01*
X020149Y0306D01*
X020165Y030483D01*
X02021Y030375D01*
X020281Y030281D01*
X020375Y03021D01*
X020483Y030165D01*
X0206Y030149D01*
X020717Y030165D01*
X020825Y03021D01*
X020919Y030281D01*
X02099Y030375D01*
X021001Y030401D01*
X02105Y030411D01*
X021301Y030159D01*
X021391Y030086D01*
X021494Y030031D01*
X021605Y029997D01*
X021721Y029986D01*
X0274D01*
X027425Y029988D01*
X02745Y029986D01*
X029621D01*
X029737Y029997D01*
X029848Y030031D01*
X029951Y030086D01*
X030041Y030159D01*
X030114Y030249D01*
X030169Y030352D01*
X030203Y030463D01*
X030214Y030579D01*
X030203Y030695D01*
X030169Y030806D01*
X030114Y030909D01*
X030041Y030999D01*
X029951Y031072D01*
X029848Y031127D01*
X029737Y031161D01*
X029621Y031172D01*
X02745D01*
X027425Y03117D01*
X0274Y031172D01*
X021967D01*
X021243Y031896D01*
Y033554D01*
X022438Y034749D01*
X02355D01*
X023627Y034765D01*
X023692Y034808D01*
X023735Y034873D01*
X023751Y03495D01*
Y03655D01*
Y03665D01*
X023735Y036727D01*
X023692Y036792D01*
X023627Y036835D01*
X02355Y036851D01*
X0221D01*
X022023Y036835D01*
X022012Y036828D01*
X021643Y037196D01*
Y0411D01*
Y044027D01*
X021646Y04405D01*
X021635Y044139D01*
X021632Y044166D01*
X02163Y044171D01*
X021629Y044178D01*
X021625Y04419D01*
X021598Y044277D01*
X021543Y04438D01*
X02147Y04447D01*
X02138Y044543D01*
X021277Y044598D01*
X021166Y044632D01*
X02105Y044643D01*
D02*
G37*
G36*
X0201Y044445D02*
X019755D01*
Y0441D01*
X0201D01*
Y044445D01*
D02*
G37*
G36*
Y044D02*
X019755D01*
Y043655D01*
X0201D01*
Y044D01*
D02*
G37*
G36*
X033447Y042047D02*
X032153D01*
Y041053D01*
X033447D01*
Y042047D01*
D02*
G37*
G36*
X03295Y040953D02*
X03285D01*
Y0406D01*
X033347D01*
X03334Y040654D01*
X033299Y040752D01*
X033235Y040835D01*
X033152Y040899D01*
X033054Y04094D01*
X03295Y040953D01*
D02*
G37*
G36*
X03275D02*
X03265D01*
X032546Y04094D01*
X032448Y040899D01*
X032365Y040835D01*
X032301Y040752D01*
X03226Y040654D01*
X032253Y0406D01*
X03275D01*
Y040953D01*
D02*
G37*
G36*
X033347Y0405D02*
X03285D01*
Y040147D01*
X03295D01*
X033054Y04016D01*
X033152Y040201D01*
X033235Y040265D01*
X033299Y040348D01*
X03334Y040446D01*
X033347Y0405D01*
D02*
G37*
G36*
X03275D02*
X032253D01*
X03226Y040446D01*
X032301Y040348D01*
X032365Y040265D01*
X032448Y040201D01*
X032546Y04016D01*
X03265Y040147D01*
X03275D01*
Y0405D01*
D02*
G37*
G36*
X03295Y040051D02*
X03265D01*
X03252Y040034D01*
X032399Y039984D01*
X032296Y039904D01*
X032216Y039801D01*
X032166Y03968D01*
X032149Y03955D01*
X032166Y03942D01*
X032216Y039299D01*
X032296Y039196D01*
X032399Y039116D01*
X03252Y039066D01*
X03265Y039049D01*
X03295D01*
X03308Y039066D01*
X033201Y039116D01*
X033304Y039196D01*
X033384Y039299D01*
X033434Y03942D01*
X033451Y03955D01*
X033434Y03968D01*
X033384Y039801D01*
X033304Y039904D01*
X033201Y039984D01*
X03308Y040034D01*
X03295Y040051D01*
D02*
G37*
%LPD*%
G36*
X0305Y047905D02*
X030507Y047817D01*
X030511Y047795D01*
X030516Y047777D01*
X030522Y047762D01*
X030529Y04775D01*
X030536Y047742D01*
X030545Y047738D01*
X030355D01*
X030364Y047742D01*
X030371Y04775D01*
X030378Y047762D01*
X030384Y047777D01*
X030389Y047795D01*
X030393Y047817D01*
X030396Y047843D01*
X0304Y047905D01*
X0304Y047941D01*
X0305D01*
X0305Y047905D01*
D02*
G37*
G36*
X021252Y046967D02*
X021258Y04694D01*
X021268Y046916D01*
X021282Y046896D01*
X0213Y046879D01*
X021322Y046865D01*
X021348Y046854D01*
X021378Y046846D01*
X021412Y046841D01*
X021449Y046839D01*
X020951Y046839D01*
X020989Y046841D01*
X021022Y046846D01*
X021052Y046854D01*
X021078Y046865D01*
X0211Y046879D01*
X021118Y046896D01*
X021132Y046916D01*
X021142Y04694D01*
X021148Y046967D01*
X02115Y046997D01*
X02125D01*
X021252Y046967D01*
D02*
G37*
G36*
X019252D02*
X019258Y04694D01*
X019268Y046916D01*
X019282Y046896D01*
X0193Y046879D01*
X019322Y046865D01*
X019348Y046854D01*
X019378Y046846D01*
X019412Y046841D01*
X019449Y046839D01*
X018951Y046839D01*
X018989Y046841D01*
X019022Y046846D01*
X019052Y046854D01*
X019078Y046865D01*
X0191Y046879D01*
X019118Y046896D01*
X019132Y046916D01*
X019142Y04694D01*
X019148Y046967D01*
X01915Y046997D01*
X01925D01*
X019252Y046967D01*
D02*
G37*
G36*
X031076Y047289D02*
X031078Y047175D01*
X031102Y046885D01*
X031117Y046805D01*
X031135Y046733D01*
X031156Y046669D01*
X03118Y046614D01*
X031207Y046567D01*
X031238Y046528D01*
X030767Y046543D01*
X030807Y046586D01*
X030843Y046636D01*
X030874Y046694D01*
X030901Y046758D01*
X030924Y04683D01*
X030943Y046909D01*
X030958Y046996D01*
X030968Y047089D01*
X030976Y047298D01*
X031076Y047289D01*
D02*
G37*
G36*
X02355Y03655D02*
Y03495D01*
X0221D01*
Y03665D01*
X02355D01*
Y03655D01*
D02*
G37*
%LPC*%
G36*
X044551Y0252D02*
X04455Y0252D01*
X044494Y025127D01*
X044459Y025041D01*
X044454Y025D01*
X044551D01*
X044551Y0252D01*
D02*
G37*
G36*
X041651Y025167D02*
X041623Y025156D01*
X04155Y0251D01*
X041494Y025027D01*
X041459Y024941D01*
X041454Y0249D01*
X041651D01*
X041651Y025167D01*
D02*
G37*
G36*
X039051Y025138D02*
X039Y0251D01*
X038944Y025027D01*
X038909Y024941D01*
X038904Y0249D01*
X039051D01*
X039051Y025138D01*
D02*
G37*
G36*
X036001Y0251D02*
X036Y0251D01*
X035944Y025027D01*
X035909Y024941D01*
X035904Y0249D01*
X036001D01*
X036001Y0251D01*
D02*
G37*
G36*
X033101Y025117D02*
X033073Y025106D01*
X033Y02505D01*
X032944Y024977D01*
X032909Y024891D01*
X032904Y02485D01*
X033101D01*
Y025117D01*
D02*
G37*
G36*
X044551Y0249D02*
X044454D01*
X044459Y024859D01*
X044494Y024773D01*
X04455Y0247D01*
X044551Y0247D01*
Y0249D01*
D02*
G37*
G36*
X036001Y0248D02*
X035904D01*
X035909Y024759D01*
X035944Y024673D01*
X036Y0246D01*
X036001Y0246D01*
Y0248D01*
D02*
G37*
G36*
X039051D02*
X038904D01*
X038909Y024759D01*
X038944Y024673D01*
X039Y0246D01*
X039051Y024562D01*
Y0248D01*
D02*
G37*
G36*
X041651D02*
X041454D01*
X041459Y024759D01*
X041494Y024673D01*
X04155Y0246D01*
X041623Y024544D01*
X041651Y024533D01*
Y0248D01*
D02*
G37*
G36*
X033468Y024526D02*
X0333D01*
Y024454D01*
X033341Y024459D01*
X033427Y024494D01*
X033468Y024526D01*
D02*
G37*
G36*
X033101Y02475D02*
X032904D01*
X032909Y024709D01*
X032944Y024623D01*
X033Y02455D01*
X033073Y024494D01*
X033159Y024459D01*
X0332Y024454D01*
Y024526D01*
X033101D01*
Y02475D01*
D02*
G37*
G36*
X0324Y024151D02*
X032283Y024135D01*
X032175Y02409D01*
X032081Y024019D01*
X03201Y023925D01*
X031965Y023817D01*
X031949Y0237D01*
X031965Y023583D01*
X03201Y023475D01*
X032081Y023381D01*
X032175Y02331D01*
X032267Y023271D01*
X032269Y023269D01*
X032351Y023206D01*
X032447Y023166D01*
X03255Y023153D01*
X035317D01*
Y023076D01*
X036183D01*
Y023153D01*
X037217D01*
Y023076D01*
X038083D01*
Y023153D01*
X041367D01*
Y023076D01*
X042233D01*
Y023153D01*
X0439D01*
X044003Y023166D01*
X044026Y023176D01*
X044333D01*
Y023924D01*
X044026D01*
X044003Y023934D01*
X0439Y023947D01*
X032774D01*
X032719Y024019D01*
X032625Y02409D01*
X032517Y024135D01*
X0324Y024151D01*
D02*
G37*
G36*
X033824Y021823D02*
Y021124D01*
X034523D01*
X034513Y021221D01*
X03447Y021362D01*
X0344Y021493D01*
X034307Y021607D01*
X034193Y0217D01*
X034062Y02177D01*
X033921Y021813D01*
X033824Y021823D01*
D02*
G37*
G36*
X033724D02*
X033627Y021813D01*
X033485Y02177D01*
X033355Y0217D01*
X033241Y021607D01*
X033147Y021493D01*
X033078Y021362D01*
X033035Y021221D01*
X033025Y021124D01*
X033724D01*
Y021823D01*
D02*
G37*
G36*
X034523Y021024D02*
X033824D01*
Y020325D01*
X033921Y020335D01*
X034062Y020378D01*
X034193Y020447D01*
X034307Y020541D01*
X0344Y020655D01*
X03447Y020785D01*
X034513Y020927D01*
X034523Y021024D01*
D02*
G37*
G36*
X033724D02*
X033025D01*
X033035Y020927D01*
X033078Y020785D01*
X033147Y020655D01*
X033241Y020541D01*
X033355Y020447D01*
X033485Y020378D01*
X033627Y020335D01*
X033724Y020325D01*
Y021024D01*
D02*
G37*
G36*
X0439Y022747D02*
X04388D01*
X043778Y022734D01*
X043754Y022724D01*
X043467D01*
Y022356D01*
X043464Y02233D01*
Y022068D01*
X043463Y022068D01*
X043461Y022029D01*
X043456Y021998D01*
X043445Y021962D01*
X04343Y02192D01*
X043408Y021874D01*
X043381Y021824D01*
X043348Y021771D01*
X043258Y021648D01*
X043204Y021582D01*
X043195Y021567D01*
X04318Y021548D01*
X043111Y021418D01*
X043068Y021278D01*
X043053Y021131D01*
Y021031D01*
X043068Y020885D01*
X043111Y020744D01*
X04318Y020614D01*
X043273Y0205D01*
X043387Y020407D01*
X043517Y020338D01*
X043658Y020295D01*
X043804Y020281D01*
X04395Y020295D01*
X044091Y020338D01*
X044221Y020407D01*
X044335Y0205D01*
X044428Y020614D01*
X044497Y020744D01*
X04454Y020885D01*
X044554Y021031D01*
Y021131D01*
X04454Y021278D01*
X044497Y021418D01*
X044428Y021548D01*
X044414Y021565D01*
X044407Y021579D01*
X044375Y021619D01*
X044351Y021655D01*
X04433Y021692D01*
X044311Y021731D01*
X044295Y021772D01*
X044282Y021815D01*
X044272Y02186D01*
X044264Y021909D01*
X044263Y021927D01*
X044265Y021966D01*
X044266Y021976D01*
X044333D01*
Y022145D01*
X044334Y022148D01*
X044333Y022161D01*
X044336Y022174D01*
X044333Y022187D01*
Y022724D01*
X044026D01*
X044003Y022734D01*
X0439Y022747D01*
D02*
G37*
G36*
X0418Y022647D02*
X041697Y022634D01*
X041674Y022624D01*
X041367D01*
Y0221D01*
X041365Y022094D01*
X041366Y022084D01*
X041364Y022074D01*
X041367Y022061D01*
Y021876D01*
X041367Y021876D01*
X041367D01*
X04136Y021829D01*
X041357Y021821D01*
X041335Y021775D01*
X041309Y021729D01*
X041279Y021681D01*
X041243Y021632D01*
X041199Y021578D01*
X041192Y021563D01*
X041177Y021545D01*
X041107Y021415D01*
X041065Y021274D01*
X04105Y021128D01*
Y021028D01*
X041065Y020881D01*
X041107Y020741D01*
X041177Y020611D01*
X04127Y020497D01*
X041384Y020404D01*
X041513Y020334D01*
X041654Y020292D01*
X041801Y020277D01*
X041947Y020292D01*
X042088Y020334D01*
X042218Y020404D01*
X042331Y020497D01*
X042425Y020611D01*
X042494Y020741D01*
X042537Y020881D01*
X042551Y021028D01*
Y021128D01*
X042537Y021274D01*
X042494Y021415D01*
X042425Y021545D01*
X04241Y021563D01*
X042402Y021578D01*
X042358Y021632D01*
X042322Y021681D01*
X042291Y021729D01*
X042266Y021776D01*
X042244Y021822D01*
X042241Y021829D01*
X042233Y021876D01*
X042233Y021876D01*
Y022061D01*
X042236Y022074D01*
X042234Y022085D01*
X042235Y022096D01*
X042233Y0221D01*
Y022624D01*
X041926D01*
X041903Y022634D01*
X0418Y022647D01*
D02*
G37*
G36*
X03985Y022747D02*
X039845D01*
X039742Y022734D01*
X039719Y022724D01*
X039417D01*
Y022187D01*
X039414Y022174D01*
X039415Y022171D01*
X039414Y022167D01*
X039417Y022091D01*
Y021976D01*
X039417D01*
X03941Y021929D01*
X039396Y021888D01*
X039377Y021843D01*
X039353Y021795D01*
X039325Y021747D01*
X039247Y021636D01*
X039199Y021578D01*
X039191Y021563D01*
X039176Y021544D01*
X039107Y021414D01*
X039064Y021274D01*
X03905Y021127D01*
Y021027D01*
X039064Y020881D01*
X039107Y02074D01*
X039176Y02061D01*
X039269Y020497D01*
X039383Y020403D01*
X039513Y020334D01*
X039654Y020291D01*
X0398Y020277D01*
X039946Y020291D01*
X040087Y020334D01*
X040217Y020403D01*
X040331Y020497D01*
X040424Y02061D01*
X040493Y02074D01*
X040536Y020881D01*
X04055Y021027D01*
Y021127D01*
X040536Y021274D01*
X040493Y021414D01*
X040424Y021544D01*
X040409Y021562D01*
X040402Y021577D01*
X040363Y021624D01*
X040333Y021668D01*
X040306Y021711D01*
X040284Y021754D01*
X040265Y021798D01*
X04025Y021841D01*
X040238Y021885D01*
X04023Y021926D01*
X040231Y021932D01*
X040265Y021976D01*
X040283D01*
Y022151D01*
X040285Y022159D01*
X040284Y022166D01*
X040286Y022174D01*
X040283Y022187D01*
Y022724D01*
X039976D01*
X039953Y022734D01*
X03985Y022747D01*
D02*
G37*
G36*
X03767Y022647D02*
X03765D01*
X037547Y022634D01*
X037524Y022624D01*
X037217D01*
Y022101D01*
X037215Y022096D01*
X037216Y022085D01*
X037214Y022074D01*
X037217Y022061D01*
Y021876D01*
X037324D01*
X037358Y021826D01*
X037356Y021821D01*
X037335Y021775D01*
X037309Y021728D01*
X037278Y02168D01*
X037243Y021631D01*
X037199Y021577D01*
X037191Y021562D01*
X037176Y021544D01*
X037107Y021414D01*
X037064Y021274D01*
X03705Y021127D01*
Y021027D01*
X037064Y020881D01*
X037107Y02074D01*
X037176Y02061D01*
X037269Y020497D01*
X037383Y020403D01*
X037513Y020334D01*
X037654Y020291D01*
X0378Y020277D01*
X037946Y020291D01*
X038087Y020334D01*
X038217Y020403D01*
X038331Y020497D01*
X038424Y02061D01*
X038493Y02074D01*
X038536Y020881D01*
X03855Y021027D01*
Y021127D01*
X038536Y021274D01*
X038493Y021414D01*
X038424Y021544D01*
X038409Y021562D01*
X038401Y021577D01*
X038357Y021631D01*
X038322Y02168D01*
X038291Y021728D01*
X038265Y021775D01*
X038244Y021821D01*
X038227Y021865D01*
X038214Y021908D01*
X038205Y02195D01*
X0382Y021992D01*
X038197Y022042D01*
X038197Y022043D01*
Y02212D01*
X038184Y022222D01*
X038144Y022318D01*
X038083Y022397D01*
Y022624D01*
X037796D01*
X037772Y022634D01*
X03767Y022647D01*
D02*
G37*
G36*
X035755D02*
X03575D01*
X035647Y022634D01*
X035624Y022624D01*
X035317D01*
Y022087D01*
X035314Y022074D01*
X035316Y022066D01*
X035315Y022059D01*
X035317Y022051D01*
Y021876D01*
X035317D01*
X035332Y021832D01*
X035332Y02183D01*
X03532Y021802D01*
X035198Y021702D01*
X035092Y021573D01*
X035014Y021426D01*
X034965Y021266D01*
X034949Y0211D01*
X034965Y020934D01*
X035014Y020774D01*
X035092Y020627D01*
X035198Y020498D01*
X035327Y020392D01*
X035474Y020314D01*
X035634Y020265D01*
X0358Y020249D01*
X035966Y020265D01*
X036126Y020314D01*
X036273Y020392D01*
X036402Y020498D01*
X036508Y020627D01*
X036586Y020774D01*
X036635Y020934D01*
X036651Y0211D01*
X036635Y021266D01*
X036586Y021426D01*
X036508Y021573D01*
X036402Y021702D01*
X036273Y021808D01*
X03619Y021852D01*
X036183Y021969D01*
Y022061D01*
X036186Y022074D01*
X036183Y022087D01*
Y022624D01*
X035881D01*
X035858Y022634D01*
X035755Y022647D01*
D02*
G37*
%LPD*%
G36*
X04412Y02217D02*
X044107Y022158D01*
X044095Y022139D01*
X044085Y022111D01*
X044077Y022076D01*
X04407Y022032D01*
X044064Y021981D01*
X044062Y021923D01*
X044065Y021884D01*
X044075Y021823D01*
X044088Y021764D01*
X044105Y021707D01*
X044127Y021652D01*
X044151Y021599D01*
X04418Y021549D01*
X044213Y021501D01*
X044249Y021455D01*
X043359D01*
X043417Y021525D01*
X043514Y021659D01*
X043554Y021722D01*
X043587Y021784D01*
X043615Y021843D01*
X043636Y021899D01*
X043652Y021954D01*
X043661Y022006D01*
X043664Y022056D01*
X043665Y022055D01*
X043665Y022174D01*
X044135D01*
X04412Y02217D01*
D02*
G37*
G36*
X042028Y02207D02*
X042021Y022058D01*
X042016Y022039D01*
X042011Y022011D01*
X042007Y021976D01*
X042004Y021939D01*
X042007Y021918D01*
X04202Y021859D01*
X042037Y021801D01*
X042059Y021743D01*
X042087Y021684D01*
X042119Y021626D01*
X042156Y021568D01*
X042199Y02151D01*
X042246Y021451D01*
X041355D01*
X041402Y02151D01*
X041445Y021568D01*
X041482Y021626D01*
X041514Y021684D01*
X041541Y021742D01*
X041564Y021801D01*
X041581Y021859D01*
X041593Y021914D01*
X041585Y022039D01*
X041579Y022058D01*
X041572Y02207D01*
X041565Y022074D01*
X042035D01*
X042028Y02207D01*
D02*
G37*
G36*
X040073Y02217D02*
X040062Y022158D01*
X040053Y022139D01*
X040045Y022111D01*
X040038Y022076D01*
X040032Y022032D01*
X040026Y021945D01*
X040031Y021901D01*
X040042Y021841D01*
X040058Y021782D01*
X040078Y021725D01*
X040102Y021668D01*
X040131Y021612D01*
X040165Y021557D01*
X040203Y021504D01*
X040245Y021451D01*
X039355D01*
X039407Y021514D01*
X039494Y021639D01*
X03953Y021699D01*
X03956Y021759D01*
X039584Y021818D01*
X039604Y021876D01*
X039617Y021933D01*
X039622Y021965D01*
X039615Y022174D01*
X040085D01*
X040073Y02217D01*
D02*
G37*
G36*
X037897Y022033D02*
X037997D01*
X037999Y021975D01*
X038007Y021917D01*
X038019Y021858D01*
X038037Y0218D01*
X038059Y021742D01*
X038086Y021684D01*
X038119Y021625D01*
X038156Y021567D01*
X038198Y021509D01*
X038245Y021451D01*
X037355D01*
X037402Y021509D01*
X037444Y021567D01*
X037481Y021625D01*
X037514Y021684D01*
X037541Y021742D01*
X037563Y0218D01*
X037581Y021858D01*
X037586Y021882D01*
X037573Y021932D01*
X037556Y021976D01*
X037535Y022011D01*
X037511Y022039D01*
X037483Y022058D01*
X037451Y02207D01*
X037415Y022074D01*
X037885D01*
X037897Y022033D01*
D02*
G37*
G36*
X035972Y022135D02*
X035976Y022074D01*
X035985D01*
X035983Y02207D01*
X03598Y022058D01*
X035978Y022039D01*
X035978Y022035D01*
X035994Y021766D01*
X036001Y021739D01*
X036008Y021721D01*
X036017Y021713D01*
X035972Y021711D01*
X035972Y02168D01*
X035578D01*
X035578Y021696D01*
X035537Y021694D01*
X035544Y021703D01*
X035552Y021722D01*
X035558Y02175D01*
X035563Y021789D01*
X03557Y021871D01*
X035562Y021976D01*
X035555Y022011D01*
X035547Y022039D01*
X035538Y022058D01*
X035527Y02207D01*
X035515Y022074D01*
X035575D01*
X035578Y02223D01*
X035972D01*
X035972Y022135D01*
D02*
G37*
D17*
X0188Y02485D02*
X01915D01*
X02065Y0235D02*
Y02355D01*
X02035Y0482D02*
X0308D01*
X031026Y045982D02*
Y047974D01*
X0308Y0482D02*
X031026Y047974D01*
X03045Y047131D02*
Y047941D01*
X0212Y0473D02*
X0219Y048D01*
X030391D01*
X03045Y047941D01*
X0192Y04705D02*
X02035Y0482D01*
X0212Y0463D02*
Y0473D01*
X03045Y047131D02*
X030481Y0471D01*
X0192Y0463D02*
Y04705D01*
X01965Y0235D02*
X0197Y02355D01*
X019135Y0235D02*
X01965D01*
X02415Y02345D02*
X02425Y02355D01*
X0236Y02345D02*
X02415D01*
X02145Y02355D02*
X02195D01*
D20*
X0296Y02265D02*
D03*
Y02355D02*
D03*
X02865Y02265D02*
D03*
Y02355D02*
D03*
X0275Y02265D02*
D03*
Y02355D02*
D03*
X02655Y02265D02*
D03*
Y02355D02*
D03*
X02425Y02265D02*
D03*
Y02355D02*
D03*
X0252Y0226D02*
D03*
Y0235D02*
D03*
X02195Y02265D02*
D03*
Y02355D02*
D03*
X0228Y02265D02*
D03*
Y02355D02*
D03*
X02065Y02265D02*
D03*
Y02355D02*
D03*
X0197Y02265D02*
D03*
Y02355D02*
D03*
D30*
X0418Y02345D02*
D03*
X03985Y02355D02*
D03*
X03575Y02345D02*
D03*
X03765D02*
D03*
X01835Y0222D02*
D03*
X0439Y02355D02*
D03*
D31*
X0418Y02225D02*
D03*
X03985Y02235D02*
D03*
X03575Y02225D02*
D03*
X03765D02*
D03*
X01835Y021D02*
D03*
X0439Y02235D02*
D03*
D65*
X02575Y04365D02*
Y047054D01*
X027146Y047405D02*
X027151Y0474D01*
X027111Y047405D02*
X027146D01*
X027107Y0474D02*
X027111Y047405D01*
X026096Y0474D02*
X027107D01*
X02575Y047054D02*
X026096Y0474D01*
X02575Y04365D02*
X02885Y04055D01*
X0328D01*
D66*
X01785Y04095D02*
X0209D01*
X02105Y0411D01*
X0228Y02355D02*
Y02455D01*
X0213Y02495D02*
X0224D01*
X0228Y02455D01*
X01915Y02485D02*
X0193Y0247D01*
X0205D01*
X02065Y02355D02*
Y02455D01*
X0205Y0247D02*
X02065Y02455D01*
X0434Y038681D02*
Y04215D01*
X042919Y0382D02*
X0434Y038681D01*
X04235Y0382D02*
X042919D01*
X041826Y046229D02*
X04185Y046252D01*
X041826Y043724D02*
X0434Y04215D01*
X041826Y043724D02*
Y046229D01*
Y046276D02*
X04185Y046252D01*
X0282Y02495D02*
X0292D01*
X0296Y02355D02*
Y02455D01*
X0292Y02495D02*
X0296Y02455D01*
X0248Y02485D02*
X0252Y02445D01*
X02365Y02485D02*
X0248D01*
X0252Y0235D02*
Y02445D01*
X0197Y02265D02*
X02065D01*
X018581D02*
X0197D01*
X01835Y0222D02*
Y022419D01*
X018581Y02265D01*
X0228D02*
X029372D01*
X02065D02*
X02195D01*
X0228D01*
X029372D02*
X029472Y02255D01*
X02955D01*
X02602Y02347D02*
Y02353D01*
X026472Y02355D02*
X02655D01*
X026392Y02347D02*
X026472Y02355D01*
X02602Y02347D02*
X026392D01*
X026Y02495D02*
X02725D01*
X0275Y0247D01*
Y02355D02*
Y0247D01*
X02814Y02355D02*
X02865D01*
X02865Y02355D01*
X01842Y02105D02*
X019399D01*
X01837Y021D02*
X01842Y02105D01*
X01835Y021D02*
X01837D01*
X03625Y02495D02*
X0448D01*
X031631D02*
X0362D01*
Y02485D02*
X03625D01*
X03325Y0248D02*
Y02485D01*
X0314Y024719D02*
X031631Y02495D01*
X0314Y02305D02*
Y024719D01*
Y02305D02*
X0319Y02255D01*
X0329D01*
X033136Y022314D01*
X033584D01*
X03575Y02225D02*
X035755D01*
X035775Y02223D01*
Y021125D02*
Y02223D01*
Y021125D02*
X0358Y0211D01*
X03765Y02225D02*
X03767D01*
X0378Y02212D01*
Y021077D02*
Y02212D01*
X039845Y02235D02*
X03985D01*
X039825Y02233D02*
X039845Y02235D01*
X039825Y021102D02*
Y02233D01*
X0398Y021077D02*
X039825Y021102D01*
X0418Y02225D02*
X0418Y02225D01*
Y021078D02*
Y02225D01*
Y021078D02*
X041801Y021078D01*
X04388Y02235D02*
X0439D01*
X043861Y02233D02*
X04388Y02235D01*
X043861Y021138D02*
Y02233D01*
X043804Y021081D02*
X043861Y021138D01*
X0324Y0237D02*
X03255Y02355D01*
X03985D01*
X0439D01*
X033814Y021114D02*
Y022084D01*
X033584Y022314D02*
X033814Y022084D01*
X033774Y021074D02*
X033814Y021114D01*
X0274Y03055D02*
X02745Y0305D01*
X0206Y0306D02*
Y0312D01*
X02285Y0305D02*
X02285Y0305D01*
X0251Y03055D02*
X025129Y030579D01*
D67*
X02105Y0411D02*
Y04405D01*
Y03695D02*
Y0411D01*
X02065Y03165D02*
Y0338D01*
X0226Y03575D01*
X02105Y03695D02*
X0226Y0354D01*
X02065Y03165D02*
X021721Y030579D01*
X025129D01*
X02745D02*
X029621D01*
X025129D02*
X0274D01*
D68*
X037009Y04686D02*
D03*
X023891D02*
D03*
D69*
X033722Y047419D02*
D03*
X033176Y046301D02*
D03*
X032631Y047419D02*
D03*
X032086Y046301D02*
D03*
X031541Y047419D02*
D03*
X030995Y046301D02*
D03*
X03045Y047419D02*
D03*
X029905Y046301D02*
D03*
X029359Y047419D02*
D03*
X028814Y046301D02*
D03*
X028269Y047419D02*
D03*
X027724Y046301D02*
D03*
X027178Y047419D02*
D03*
X026638Y046299D02*
D03*
D70*
X034267Y046301D02*
D03*
D71*
X029299Y02105D02*
D03*
X019399D02*
D03*
X025403Y021054D02*
D03*
X0234Y021051D02*
D03*
X021399Y02105D02*
D03*
X027293Y021054D02*
D03*
X0192Y0463D02*
D03*
X0212D02*
D03*
X0378Y021077D02*
D03*
X043804Y021081D02*
D03*
X041801Y021078D02*
D03*
X0398Y021077D02*
D03*
D72*
X041826Y046276D02*
D03*
X043826D02*
D03*
X0398Y04625D02*
D03*
X033774Y021074D02*
D03*
X031774D02*
D03*
X0358Y0211D02*
D03*
D73*
X03865Y03595D02*
D03*
X03965D02*
D03*
D74*
X04065D02*
D03*
D75*
X03935Y0382D02*
D03*
D76*
X04035D02*
D03*
X04135D02*
D03*
X04235D02*
D03*
X03935Y0412D02*
D03*
X04035D02*
D03*
X04135D02*
D03*
X04235D02*
D03*
D77*
X0358Y04055D02*
D03*
Y04155D02*
D03*
Y03955D02*
D03*
X0328D02*
D03*
Y04055D02*
D03*
D78*
Y04155D02*
D03*
D79*
X02115Y04405D02*
D03*
D80*
X02015D02*
D03*
D81*
X014881Y04986D02*
D03*
X014831Y01836D02*
D03*
X048181D02*
D03*
X0483Y04995D02*
D03*
D82*
X01785Y04095D02*
D03*
X0226Y0354D02*
D03*
X01925Y0235D02*
D03*
X02602Y02353D02*
D03*
X0282Y02495D02*
D03*
X02365Y02485D02*
D03*
X0213Y02495D02*
D03*
X0236Y0235D02*
D03*
X02819D02*
D03*
X02135Y02355D02*
D03*
X026Y02495D02*
D03*
X0188Y02485D02*
D03*
X03625D02*
D03*
X03325Y0248D02*
D03*
X0418Y02485D02*
D03*
X03925D02*
D03*
X0448Y02495D02*
D03*
X0324Y0237D02*
D03*
X02745Y0305D02*
D03*
X0206Y0306D02*
D03*
X02285Y0305D02*
D03*
X0251Y03055D02*
D03*
X029621Y030579D02*
D03*
D83*
X02245Y03625D02*
D03*
X0233Y03545D02*
D03*
X0232Y0363D02*
D03*
M02*
