G04*
G04 #@! TF.GenerationSoftware,Altium Limited,Altium Designer,20.1.12 (249)*
G04*
G04 Layer_Color=16711935*
%FSTAX24Y24*%
%MOIN*%
G70*
G04*
G04 #@! TF.SameCoordinates,16AA3A95-E13F-4B7F-BF52-5902ACF92DE2*
G04*
G04*
G04 #@! TF.FilePolarity,Positive*
G04*
G01*
G75*
%ADD10C,0.0079*%
%ADD14C,0.0050*%
%ADD85C,0.0039*%
D10*
X038089Y02995D02*
G03*
X038089Y02995I-000039J0D01*
G01*
X040889D02*
G03*
X040889Y02995I-000039J0D01*
G01*
X043589Y0299D02*
G03*
X043589Y0299I-000039J0D01*
G01*
X046489Y02995D02*
G03*
X046489Y02995I-000039J0D01*
G01*
X035139Y02995D02*
G03*
X035139Y02995I-000039J0D01*
G01*
X028289Y02455D02*
G03*
X028289Y02455I-000039J0D01*
G01*
X026239Y0246D02*
G03*
X026239Y0246I-000039J0D01*
G01*
X023989Y02455D02*
G03*
X023989Y02455I-000039J0D01*
G01*
X021639Y02465D02*
G03*
X021639Y02465I-000039J0D01*
G01*
X019339Y0246D02*
G03*
X019339Y0246I-000039J0D01*
G01*
D14*
X036443Y027634D02*
X038057D01*
X036443Y029366D02*
X038057D01*
X036443Y027634D02*
Y029366D01*
X038057Y027634D02*
Y029366D01*
X039243Y027634D02*
X040857D01*
X039243Y029366D02*
X040857D01*
X039243Y027634D02*
Y029366D01*
X040857Y027634D02*
Y029366D01*
X041943Y027584D02*
X043557D01*
X041943Y029316D02*
X043557D01*
X041943Y027584D02*
Y029316D01*
X043557Y027584D02*
Y029316D01*
X044843Y027634D02*
X046457D01*
X044843Y029366D02*
X046457D01*
X044843Y027634D02*
Y029366D01*
X046457Y027634D02*
Y029366D01*
X033493Y027634D02*
X035107D01*
X033493Y029366D02*
X035107Y029366D01*
X033493Y027634D02*
X033493Y029366D01*
X035107Y027634D02*
Y029366D01*
X028243Y026866D02*
X029857D01*
X028243Y025134D02*
X029857D01*
Y026866D01*
X028243Y025134D02*
Y026866D01*
X026193Y026916D02*
X027807D01*
X026193Y025184D02*
X027807D01*
Y026916D01*
X026193Y025184D02*
Y026916D01*
X023943Y026866D02*
X025557D01*
X023943Y025134D02*
X025557D01*
Y026866D01*
X023943Y025134D02*
Y026866D01*
X021593Y026966D02*
X023207D01*
X021593Y025234D02*
X023207D01*
Y026966D01*
X021593Y025234D02*
Y026966D01*
X019293Y026916D02*
X020907D01*
X019293Y025184D02*
X020907D01*
Y026916D01*
X019293Y025184D02*
Y026916D01*
D85*
X019472Y040969D02*
X020928D01*
X019472Y038331D02*
X020928D01*
X019472D02*
Y040969D01*
X020928D02*
X020928Y038331D01*
M02*
