G04*
G04 #@! TF.GenerationSoftware,Altium Limited,Altium Designer,20.1.12 (249)*
G04*
G04 Layer_Color=32896*
%FSTAX24Y24*%
%MOIN*%
G70*
G04*
G04 #@! TF.SameCoordinates,16AA3A95-E13F-4B7F-BF52-5902ACF92DE2*
G04*
G04*
G04 #@! TF.FilePolarity,Positive*
G04*
G01*
G75*
%ADD10C,0.0079*%
%ADD14C,0.0050*%
%ADD15C,0.0040*%
%ADD17C,0.0100*%
D10*
X041603Y022951D02*
X041997D01*
X041682Y022754D02*
X041918D01*
X041603Y022715D02*
X041997D01*
X0418Y022912D02*
X041997Y022715D01*
X041603D02*
X0418Y022912D01*
X041741Y022813D02*
X041859D01*
X039653Y023051D02*
X040047D01*
X039732Y022854D02*
X039968D01*
X039653Y022815D02*
X040047D01*
X03985Y023012D02*
X040047Y022815D01*
X039653D02*
X03985Y023012D01*
X039791Y022913D02*
X039909D01*
X035553Y022951D02*
X035947D01*
X035632Y022754D02*
X035868D01*
X035553Y022715D02*
X035947D01*
X03575Y022912D02*
X035947Y022715D01*
X035553D02*
X03575Y022912D01*
X035691Y022813D02*
X035809D01*
X037453Y022951D02*
X037847D01*
X037532Y022754D02*
X037768D01*
X037453Y022715D02*
X037847D01*
X03765Y022912D02*
X037847Y022715D01*
X037453D02*
X03765Y022912D01*
X037591Y022813D02*
X037709D01*
X018153Y021701D02*
X018547D01*
X018232Y021504D02*
X018468D01*
X018153Y021465D02*
X018547D01*
X01835Y021662D02*
X018547Y021465D01*
X018153D02*
X01835Y021662D01*
X018291Y021563D02*
X018409D01*
X043703Y023051D02*
X044097D01*
X043782Y022854D02*
X044018D01*
X043703Y022815D02*
X044097D01*
X0439Y023012D02*
X044097Y022815D01*
X043703D02*
X0439Y023012D01*
X043841Y022913D02*
X043959D01*
D14*
X02926Y0224D02*
X02993D01*
Y0238D01*
X02926D02*
X02993D01*
X02926Y0224D02*
Y0238D01*
X02831Y0224D02*
X02898D01*
Y0238D01*
X02831D02*
X02898D01*
X02831Y0224D02*
Y0238D01*
X02716Y0224D02*
X02783Y0224D01*
Y0238D01*
X02716Y0238D02*
X02783Y0238D01*
X02716Y0224D02*
Y0238D01*
X02621Y0224D02*
X02688D01*
Y0238D01*
X02621D02*
X02688D01*
X02621Y0224D02*
Y0238D01*
X02391Y0224D02*
X02458Y0224D01*
Y0238D01*
X02391Y0238D02*
X02458Y0238D01*
X02391Y0224D02*
Y0238D01*
X02486Y02235D02*
X02553D01*
Y02375D01*
X02486D02*
X02553D01*
X02486Y02235D02*
Y02375D01*
X02161Y0224D02*
X02228D01*
Y0238D01*
X02161D02*
X02228D01*
X02161Y0224D02*
Y0238D01*
X02246Y0224D02*
X02313D01*
Y0238D01*
X02246D02*
X02313D01*
X02246Y0224D02*
Y0238D01*
X02031Y0224D02*
X02098D01*
Y0238D01*
X02031D02*
X02098D01*
X02031Y0224D02*
Y0238D01*
X01936Y0224D02*
X02003D01*
Y0238D01*
X01936D02*
X02003D01*
X01936Y0224D02*
Y0238D01*
D15*
X02935Y02293D02*
Y02327D01*
X02985Y02293D02*
Y02327D01*
X0284Y02293D02*
Y02327D01*
X0289Y02293D02*
Y02327D01*
X02725Y02293D02*
Y02327D01*
X02775Y02293D02*
Y02327D01*
X0263Y02293D02*
Y02327D01*
X0268Y02293D02*
Y02327D01*
X024Y02293D02*
Y02327D01*
X0245Y02293D02*
Y02327D01*
X02495Y02288D02*
Y02322D01*
X02545Y02288D02*
Y02322D01*
X0217Y02293D02*
Y02327D01*
X0222Y02293D02*
Y02327D01*
X02255Y02293D02*
Y02327D01*
X02305Y02293D02*
Y02327D01*
X0204Y02293D02*
Y02327D01*
X0209Y02293D02*
Y02327D01*
X01945Y02293D02*
Y02327D01*
X01995Y02293D02*
Y02327D01*
X0414Y0237D02*
X0422D01*
X0414Y022D02*
Y0237D01*
Y022D02*
X0422D01*
Y0237D01*
X03945Y0238D02*
X04025D01*
X03945Y0221D02*
Y0238D01*
Y0221D02*
X04025D01*
Y0238D01*
X03535Y0237D02*
X03615D01*
X03535Y022D02*
Y0237D01*
Y022D02*
X03615D01*
Y0237D01*
X03725D02*
X03805D01*
X03725Y022D02*
Y0237D01*
Y022D02*
X03805D01*
Y0237D01*
X01795Y02245D02*
X01875D01*
X01795Y02075D02*
Y02245D01*
Y02075D02*
X01875D01*
Y02245D01*
X0435Y0238D02*
X0443D01*
X0435Y0221D02*
Y0238D01*
Y0221D02*
X0443D01*
Y0238D01*
D17*
X0299Y02565D02*
X0293D01*
Y02535D01*
X0294Y02525D01*
X0296D01*
X0297Y02535D01*
Y02565D01*
Y02545D02*
X0299Y02525D01*
Y02465D02*
Y02505D01*
X0295Y02465D01*
X0294D01*
X0293Y02475D01*
Y02495D01*
X0294Y02505D01*
X0299Y02415D02*
X0293D01*
X0296Y02445D01*
Y02405D01*
X02894Y02565D02*
X02834D01*
Y02535D01*
X02844Y02525D01*
X02864D01*
X02874Y02535D01*
Y02565D01*
Y02545D02*
X02894Y02525D01*
Y02465D02*
Y02505D01*
X02854Y02465D01*
X02844D01*
X02834Y02475D01*
Y02495D01*
X02844Y02505D01*
Y02445D02*
X02834Y02435D01*
Y02415D01*
X02844Y02405D01*
X02854D01*
X02864Y02415D01*
Y02425D01*
Y02415D01*
X02874Y02405D01*
X02884D01*
X02894Y02415D01*
Y02435D01*
X02884Y02445D01*
X02785Y02545D02*
X02725D01*
Y02515D01*
X02735Y02505D01*
X02755D01*
X02765Y02515D01*
Y02545D01*
Y02525D02*
X02785Y02505D01*
Y02445D02*
Y02485D01*
X02745Y02445D01*
X02735D01*
X02725Y02455D01*
Y02475D01*
X02735Y02485D01*
X02785Y02425D02*
Y02405D01*
Y02415D01*
X02725D01*
X02735Y02425D01*
X02685Y02555D02*
X02625D01*
Y02525D01*
X02635Y02515D01*
X02655D01*
X02665Y02525D01*
Y02555D01*
Y02535D02*
X02685Y02515D01*
Y02455D02*
Y02495D01*
X02645Y02455D01*
X02635D01*
X02625Y02465D01*
Y02485D01*
X02635Y02495D01*
Y02435D02*
X02625Y02425D01*
Y02405D01*
X02635Y02395D01*
X02675D01*
X02685Y02405D01*
Y02425D01*
X02675Y02435D01*
X02635D01*
X0246Y02545D02*
X024D01*
Y02515D01*
X0241Y02505D01*
X0243D01*
X0244Y02515D01*
Y02545D01*
Y02525D02*
X0246Y02505D01*
Y02485D02*
Y02465D01*
Y02475D01*
X024D01*
X0241Y02485D01*
X024Y02435D02*
Y02395D01*
X0241D01*
X0245Y02435D01*
X0246D01*
X02535Y0255D02*
X02475D01*
Y0252D01*
X02485Y0251D01*
X02505D01*
X02515Y0252D01*
Y0255D01*
Y0253D02*
X02535Y0251D01*
Y0249D02*
Y0247D01*
Y0248D01*
X02475D01*
X02485Y0249D01*
Y0244D02*
X02475Y0243D01*
Y0241D01*
X02485Y024D01*
X02495D01*
X02505Y0241D01*
X02515Y024D01*
X02525D01*
X02535Y0241D01*
Y0243D01*
X02525Y0244D01*
X02515D01*
X02505Y0243D01*
X02495Y0244D01*
X02485D01*
X02505Y0243D02*
Y0241D01*
X0222Y0259D02*
X0216D01*
Y0256D01*
X0217Y0255D01*
X0219D01*
X022Y0256D01*
Y0259D01*
Y0257D02*
X0222Y0255D01*
Y0253D02*
Y0251D01*
Y0252D01*
X0216D01*
X0217Y0253D01*
X0222Y0245D02*
X0216D01*
X0219Y0248D01*
Y0244D01*
X0231Y026D02*
X0225D01*
Y0257D01*
X0226Y0256D01*
X0228D01*
X0229Y0257D01*
Y026D01*
Y0258D02*
X0231Y0256D01*
Y0254D02*
Y0252D01*
Y0253D01*
X0225D01*
X0226Y0254D01*
X0225Y0245D02*
Y0249D01*
X0228D01*
X0227Y0247D01*
Y0246D01*
X0228Y0245D01*
X023D01*
X0231Y0246D01*
Y0248D01*
X023Y0249D01*
X0211Y0259D02*
X0205D01*
Y0256D01*
X0206Y0255D01*
X0208D01*
X0209Y0256D01*
Y0259D01*
Y0257D02*
X0211Y0255D01*
Y0253D02*
Y0251D01*
Y0252D01*
X0205D01*
X0206Y0253D01*
X0211Y0244D02*
Y0248D01*
X0207Y0244D01*
X0206D01*
X0205Y0245D01*
Y0247D01*
X0206Y0248D01*
X02015Y0259D02*
X01955D01*
Y0256D01*
X01965Y0255D01*
X01985D01*
X01995Y0256D01*
Y0259D01*
Y0257D02*
X02015Y0255D01*
Y0253D02*
Y0251D01*
Y0252D01*
X01955D01*
X01965Y0253D01*
X02015Y0248D02*
Y0246D01*
Y0247D01*
X01955D01*
X01965Y0248D01*
X0423Y02325D02*
X0429D01*
Y02295D01*
X0428Y02285D01*
X0424D01*
X0423Y02295D01*
Y02325D01*
X0429Y02235D02*
X0423D01*
X0426Y02265D01*
Y02225D01*
X0404Y02335D02*
X041D01*
Y02305D01*
X0409Y02295D01*
X0405D01*
X0404Y02305D01*
Y02335D01*
X0405Y02275D02*
X0404Y02265D01*
Y02245D01*
X0405Y02235D01*
X0406D01*
X0407Y02245D01*
Y02255D01*
Y02245D01*
X0408Y02235D01*
X0409D01*
X041Y02245D01*
Y02265D01*
X0409Y02275D01*
X03625Y0232D02*
X03685D01*
Y0229D01*
X03675Y0228D01*
X03635D01*
X03625Y0229D01*
Y0232D01*
X03685Y0226D02*
Y0224D01*
Y0225D01*
X03625D01*
X03635Y0226D01*
X03825Y0235D02*
X03885D01*
Y0232D01*
X03875Y0231D01*
X03835D01*
X03825Y0232D01*
Y0235D01*
X03885Y0225D02*
Y0229D01*
X03845Y0225D01*
X03835D01*
X03825Y0226D01*
Y0228D01*
X03835Y0229D01*
X01903Y02337D02*
Y02277D01*
X01873D01*
X01863Y02287D01*
Y02327D01*
X01873Y02337D01*
X01903D01*
X01843D02*
X01803D01*
Y02327D01*
X01843Y02287D01*
Y02277D01*
X0451Y0224D02*
X0445D01*
Y0227D01*
X0446Y0228D01*
X045D01*
X0451Y0227D01*
Y0224D01*
Y0234D02*
Y023D01*
X0448D01*
X0449Y0232D01*
Y0233D01*
X0448Y0234D01*
X0446D01*
X0445Y0233D01*
Y0231D01*
X0446Y023D01*
M02*
