G04*
G04 #@! TF.GenerationSoftware,Altium Limited,Altium Designer,20.1.12 (249)*
G04*
G04 Layer_Color=32768*
%FSTAX24Y24*%
%MOIN*%
G70*
G04*
G04 #@! TF.SameCoordinates,16AA3A95-E13F-4B7F-BF52-5902ACF92DE2*
G04*
G04*
G04 #@! TF.FilePolarity,Positive*
G04*
G01*
G75*
%ADD85C,0.0039*%
%ADD86R,0.0236X0.0098*%
G36*
X037588Y023855D02*
Y023854D01*
Y023853D01*
X037588Y023851D01*
X037588Y02385D01*
X037587Y023848D01*
X037587Y023846D01*
X037586Y023844D01*
Y023844D01*
X037586Y023844D01*
X037586Y023843D01*
X037585Y023841D01*
X037584Y023839D01*
X037582Y023836D01*
X037581Y023833D01*
X037579Y02383D01*
X037576Y023827D01*
Y023827D01*
X037576Y023827D01*
X037575Y023826D01*
X037573Y023824D01*
X037571Y023822D01*
X037568Y023819D01*
X037565Y023816D01*
X03756Y023812D01*
X037556Y023808D01*
X037556Y023808D01*
X037555Y023808D01*
X037554Y023807D01*
X037553Y023806D01*
X037551Y023804D01*
X037549Y023802D01*
X037547Y023801D01*
X037545Y023799D01*
X03754Y023794D01*
X037536Y02379D01*
X037533Y023788D01*
X037531Y023786D01*
X03753Y023784D01*
X037528Y023782D01*
Y023781D01*
X037528Y023781D01*
X037527Y023781D01*
X037527Y02378D01*
X037526Y023778D01*
X037524Y023776D01*
X037523Y023773D01*
X037522Y02377D01*
X037521Y023766D01*
X037521Y023763D01*
Y023763D01*
Y023762D01*
X037521Y023761D01*
X037521Y02376D01*
X037522Y023758D01*
X037522Y023755D01*
X037524Y023752D01*
X037525Y02375D01*
X037527Y023747D01*
X037528Y023747D01*
X037529Y023746D01*
X03753Y023745D01*
X037532Y023744D01*
X037534Y023743D01*
X037537Y023742D01*
X037541Y023741D01*
X037545Y023741D01*
X037546D01*
X037546Y023741D01*
X037549Y023741D01*
X037551Y023742D01*
X037554Y023743D01*
X037557Y023744D01*
X03756Y023746D01*
X037563Y023748D01*
X037563Y023748D01*
X037564Y023749D01*
X037565Y02375D01*
X037566Y023753D01*
X037567Y023755D01*
X037568Y023758D01*
X037569Y023762D01*
X037569Y023766D01*
X037585Y023765D01*
Y023764D01*
X037585Y023764D01*
Y023763D01*
X037585Y023762D01*
X037584Y02376D01*
X037584Y023759D01*
X037584Y023757D01*
X037583Y023755D01*
X037582Y02375D01*
X037579Y023746D01*
X037578Y023744D01*
X037576Y023742D01*
X037575Y02374D01*
X037573Y023738D01*
X037573Y023738D01*
X037572Y023737D01*
X037572Y023737D01*
X037571Y023736D01*
X03757Y023736D01*
X037569Y023735D01*
X037567Y023734D01*
X037565Y023733D01*
X037563Y023732D01*
X037561Y023731D01*
X037559Y02373D01*
X037556Y02373D01*
X037554Y023729D01*
X037551Y023729D01*
X037548Y023728D01*
X037544Y023728D01*
X037542D01*
X037541Y023728D01*
X03754Y023729D01*
X037538Y023729D01*
X037536Y023729D01*
X037534Y02373D01*
X037529Y023731D01*
X037524Y023733D01*
X037522Y023734D01*
X03752Y023735D01*
X037518Y023737D01*
X037516Y023738D01*
X037515Y023739D01*
X037515Y023739D01*
X037515Y02374D01*
X037514Y02374D01*
X037513Y023741D01*
X037512Y023742D01*
X037511Y023744D01*
X03751Y023745D01*
X037508Y023749D01*
X037506Y023753D01*
X037506Y023755D01*
X037505Y023758D01*
X037505Y02376D01*
X037505Y023763D01*
Y023764D01*
Y023764D01*
X037505Y023766D01*
X037505Y023768D01*
X037506Y02377D01*
X037506Y023773D01*
X037507Y023775D01*
X037508Y023778D01*
X037508Y023778D01*
X037509Y023779D01*
X037509Y023781D01*
X03751Y023783D01*
X037512Y023785D01*
X037514Y023788D01*
X037516Y02379D01*
X037518Y023794D01*
X037519Y023794D01*
X03752Y023795D01*
X037521Y023796D01*
X037522Y023797D01*
X037523Y023798D01*
X037524Y023799D01*
X037526Y023801D01*
X037527Y023802D01*
X037529Y023804D01*
X037531Y023806D01*
X037534Y023808D01*
X037536Y023811D01*
X037539Y023813D01*
X037542Y023816D01*
X037542Y023816D01*
X037543Y023816D01*
X037543Y023817D01*
X037544Y023817D01*
X037545Y023819D01*
X037547Y02382D01*
X03755Y023822D01*
X037553Y023825D01*
X037556Y023827D01*
X037558Y02383D01*
X037559Y023831D01*
X03756Y023832D01*
X03756Y023832D01*
X037561Y023832D01*
X037562Y023833D01*
X037562Y023834D01*
X037563Y023835D01*
X037564Y023837D01*
X037567Y02384D01*
X037505D01*
Y023855D01*
X037588D01*
Y023855D01*
D02*
G37*
G36*
X037605Y023864D02*
X037606Y023864D01*
X037607Y023864D01*
X037608Y023863D01*
X03761Y023862D01*
X037611Y023862D01*
X037613Y023861D01*
X037617Y023859D01*
X037622Y023856D01*
X037627Y023853D01*
X037632Y023849D01*
X037632D01*
X037632Y023849D01*
X037633Y02385D01*
X037634Y02385D01*
X037635Y023851D01*
X037637Y023852D01*
X037639Y023852D01*
X037641Y023853D01*
X037643Y023854D01*
X037645Y023854D01*
X037651Y023856D01*
X037656Y023857D01*
X037659Y023857D01*
X037663Y023857D01*
X037664D01*
X037665Y023857D01*
X037667D01*
X037669Y023857D01*
X037671Y023856D01*
X037673Y023856D01*
X037678Y023855D01*
X037683Y023853D01*
X037688Y023851D01*
X037691Y02385D01*
X037694Y023849D01*
X037694Y023849D01*
X037694Y023848D01*
X037695Y023848D01*
X037696Y023847D01*
X037697Y023846D01*
X037698Y023845D01*
X037702Y023843D01*
X037705Y023839D01*
X037708Y023835D01*
X037712Y023831D01*
X037715Y023826D01*
Y023825D01*
X037715Y023825D01*
X037716Y023824D01*
X037716Y023823D01*
X037717Y023822D01*
X037717Y02382D01*
X037718Y023818D01*
X037719Y023816D01*
X037719Y023813D01*
X03772Y023811D01*
X037721Y023808D01*
X037721Y023805D01*
X037722Y023799D01*
X037722Y023792D01*
Y023792D01*
Y023791D01*
Y02379D01*
X037722Y023789D01*
Y023787D01*
X037722Y023785D01*
X037722Y023783D01*
X037722Y023781D01*
X037721Y023775D01*
X037719Y02377D01*
X037718Y023764D01*
X037715Y023758D01*
X037715Y023758D01*
X037715Y023757D01*
X037714Y023756D01*
X037714Y023755D01*
X037713Y023754D01*
X037712Y023753D01*
X037709Y023749D01*
X037706Y023746D01*
X037703Y023742D01*
X037698Y023738D01*
X037694Y023735D01*
X037693Y023734D01*
X037693Y023734D01*
X037692Y023734D01*
X037691Y023733D01*
X03769Y023733D01*
X037688Y023732D01*
X037686Y023731D01*
X037684Y023731D01*
X037682Y02373D01*
X03768Y023729D01*
X037674Y023728D01*
X037669Y023727D01*
X037665Y023727D01*
X037661D01*
X037659Y023727D01*
X037658D01*
X037656Y023727D01*
X037654Y023727D01*
X037652Y023728D01*
X037647Y023729D01*
X037641Y02373D01*
X037636Y023732D01*
X037633Y023734D01*
X037631Y023735D01*
X037631Y023735D01*
X03763Y023735D01*
X037629Y023736D01*
X037628Y023736D01*
X037627Y023737D01*
X037626Y023738D01*
X037623Y023741D01*
X037619Y023744D01*
X037616Y023748D01*
X037612Y023753D01*
X037609Y023758D01*
Y023758D01*
X037609Y023759D01*
X037609Y02376D01*
X037608Y023761D01*
X037608Y023762D01*
X037607Y023764D01*
X037606Y023766D01*
X037606Y023768D01*
X037605Y02377D01*
X037604Y023773D01*
X037604Y023776D01*
X037603Y023779D01*
X037602Y023785D01*
X037602Y023792D01*
Y023792D01*
Y023792D01*
Y023793D01*
Y023794D01*
X037602Y023796D01*
Y023797D01*
X037602Y023799D01*
X037603Y023801D01*
X037603Y023805D01*
X037604Y02381D01*
X037605Y023815D01*
X037607Y02382D01*
Y02382D01*
X037607Y02382D01*
X037607Y023821D01*
X037608Y023822D01*
X037608Y023823D01*
X037609Y023824D01*
X03761Y023827D01*
X037612Y023831D01*
X037615Y023834D01*
X037618Y023838D01*
X037621Y023841D01*
X037621D01*
X03762Y023842D01*
X03762Y023842D01*
X037619Y023843D01*
X037618Y023843D01*
X037617Y023844D01*
X037614Y023846D01*
X037611Y023848D01*
X037607Y02385D01*
X037603Y023851D01*
X0376Y023853D01*
X037604Y023865D01*
X037605D01*
X037605Y023864D01*
D02*
G37*
G36*
X037046Y024024D02*
X037048Y024024D01*
X03705Y024024D01*
X037052Y024023D01*
X037054Y024023D01*
X037058Y024022D01*
X037063Y02402D01*
X037065Y024019D01*
X037067Y024018D01*
X03707Y024016D01*
X037072Y024015D01*
X037072Y024015D01*
X037072Y024014D01*
X037073Y024014D01*
X037073Y024013D01*
X037074Y024012D01*
X037075Y024011D01*
X037076Y024009D01*
X037077Y024008D01*
X037078Y024006D01*
X037079Y024004D01*
X037081Y024D01*
X037083Y023995D01*
X037084Y023992D01*
X037084Y023989D01*
X037068Y023988D01*
Y023988D01*
Y023988D01*
X037068Y023989D01*
X037067Y02399D01*
X037067Y023992D01*
X037066Y023995D01*
X037065Y023997D01*
X037064Y024D01*
X037062Y024003D01*
X03706Y024006D01*
X037059Y024006D01*
X037059Y024007D01*
X037057Y024007D01*
X037055Y024009D01*
X037053Y02401D01*
X03705Y024011D01*
X037047Y024011D01*
X037044Y024011D01*
X037042D01*
X037042Y024011D01*
X03704Y024011D01*
X037037Y02401D01*
X037034Y024009D01*
X037031Y024008D01*
X037028Y024006D01*
X037026Y024005D01*
X037025Y024003D01*
X037024Y024003D01*
X037024Y024003D01*
X037024Y024002D01*
X037023Y024002D01*
X037022Y024D01*
X037021Y023997D01*
X037019Y023994D01*
X037018Y02399D01*
X037017Y023986D01*
X037017Y023983D01*
Y023981D01*
Y023981D01*
Y02398D01*
Y023979D01*
X037017Y023979D01*
Y023977D01*
X037017Y023976D01*
X037018Y023973D01*
X037019Y02397D01*
X03702Y023966D01*
X037022Y023963D01*
X037024Y02396D01*
Y02396D01*
X037025Y02396D01*
X037026Y023959D01*
X037027Y023957D01*
X037029Y023956D01*
X037032Y023955D01*
X037036Y023953D01*
X037039Y023953D01*
X037042Y023952D01*
X037045D01*
X037046Y023952D01*
X037048Y023953D01*
X03705Y023953D01*
X037053Y023954D01*
X037055Y023955D01*
X037057Y023956D01*
X037058Y023956D01*
X037058Y023956D01*
X037059Y023957D01*
X037061Y023958D01*
X037062Y023959D01*
X037064Y023961D01*
X037065Y023963D01*
X037067Y023965D01*
X037081Y023963D01*
X037069Y023898D01*
X037006D01*
Y023912D01*
X037057D01*
X037064Y023947D01*
X037063Y023946D01*
X037063Y023946D01*
X037063Y023946D01*
X037062Y023945D01*
X037061Y023945D01*
X037059Y023944D01*
X037056Y023943D01*
X037053Y023941D01*
X037049Y02394D01*
X037044Y023939D01*
X037042Y023939D01*
X037038D01*
X037037Y023939D01*
X037036Y023939D01*
X037034Y023939D01*
X037032Y023939D01*
X03703Y02394D01*
X037026Y023941D01*
X037023Y023942D01*
X037021Y023943D01*
X037019Y023945D01*
X037016Y023946D01*
X037014Y023948D01*
X037012Y02395D01*
X037012Y02395D01*
X037011Y023951D01*
X037011Y023951D01*
X03701Y023952D01*
X037009Y023953D01*
X037008Y023955D01*
X037007Y023956D01*
X037006Y023958D01*
X037005Y02396D01*
X037004Y023962D01*
X037003Y023965D01*
X037002Y023967D01*
X037002Y02397D01*
X037001Y023973D01*
X037001Y023976D01*
X037Y023979D01*
Y02398D01*
Y02398D01*
Y023981D01*
X037001Y023982D01*
X037001Y023984D01*
X037001Y023985D01*
X037001Y023987D01*
X037002Y023989D01*
X037003Y023994D01*
X037005Y023999D01*
X037006Y024002D01*
X037007Y024004D01*
X037009Y024007D01*
X03701Y024009D01*
X037011Y024009D01*
X037011Y02401D01*
X037012Y02401D01*
X037013Y024011D01*
X037014Y024012D01*
X037015Y024014D01*
X037017Y024015D01*
X037019Y024017D01*
X037021Y024018D01*
X037024Y024019D01*
X037027Y024021D01*
X03703Y024022D01*
X037033Y024023D01*
X037036Y024023D01*
X03704Y024024D01*
X037044Y024024D01*
X037045D01*
X037046Y024024D01*
D02*
G37*
G36*
X037572D02*
X037574D01*
X037576Y024024D01*
X037578Y024024D01*
X037582Y024023D01*
X037587Y024022D01*
X037592Y024021D01*
X037596Y024019D01*
X037597D01*
X037597Y024019D01*
X037598Y024019D01*
X037598Y024018D01*
X037601Y024017D01*
X037603Y024016D01*
X037606Y024013D01*
X037609Y024011D01*
X037612Y024008D01*
X037615Y024004D01*
Y024004D01*
X037615Y024004D01*
X037615Y024003D01*
X037616Y024003D01*
X037616Y024002D01*
X037617Y024001D01*
X037618Y023998D01*
X037619Y023994D01*
X03762Y023991D01*
X037621Y023986D01*
X037621Y023982D01*
X037606Y02398D01*
Y02398D01*
Y023981D01*
X037606Y023981D01*
Y023982D01*
X037605Y023983D01*
X037605Y023986D01*
X037604Y023988D01*
X037603Y023991D01*
X037602Y023993D01*
X037601Y023996D01*
X037601Y023996D01*
X0376Y023997D01*
X037599Y023998D01*
X037598Y023999D01*
X037596Y024001D01*
X037594Y024003D01*
X037591Y024004D01*
X037588Y024006D01*
X037588D01*
X037588Y024006D01*
X037587Y024006D01*
X037587Y024006D01*
X037585Y024007D01*
X037582Y024007D01*
X03758Y024008D01*
X037576Y024009D01*
X037573Y024009D01*
X037569Y024009D01*
X037567D01*
X037565Y024009D01*
X037563Y024009D01*
X03756Y024009D01*
X037558Y024008D01*
X037555Y024007D01*
X037552Y024007D01*
X037552Y024006D01*
X037551Y024006D01*
X037549Y024005D01*
X037548Y024005D01*
X037546Y024003D01*
X037544Y024002D01*
X037542Y024001D01*
X037541Y023999D01*
X037541Y023999D01*
X03754Y023998D01*
X03754Y023997D01*
X037539Y023995D01*
X037538Y023994D01*
X037538Y023992D01*
X037538Y02399D01*
X037537Y023988D01*
Y023988D01*
Y023987D01*
X037538Y023986D01*
X037538Y023984D01*
X037538Y023983D01*
X037539Y023981D01*
X03754Y023979D01*
X037541Y023978D01*
X037541Y023977D01*
X037542Y023977D01*
X037542Y023976D01*
X037544Y023975D01*
X037545Y023974D01*
X037547Y023973D01*
X03755Y023971D01*
X037552Y02397D01*
X037552Y02397D01*
X037553Y02397D01*
X037555Y023969D01*
X037556Y023969D01*
X037557Y023969D01*
X037558Y023968D01*
X03756Y023968D01*
X037562Y023967D01*
X037564Y023967D01*
X037566Y023966D01*
X037569Y023966D01*
X037572Y023965D01*
X037575Y023964D01*
X037575D01*
X037575Y023964D01*
X037576Y023964D01*
X037577Y023963D01*
X037579Y023963D01*
X03758Y023963D01*
X037584Y023962D01*
X037588Y02396D01*
X037592Y023959D01*
X037596Y023958D01*
X037598Y023957D01*
X037599Y023956D01*
X037599D01*
X037599Y023956D01*
X037601Y023955D01*
X037602Y023955D01*
X037604Y023953D01*
X037606Y023951D01*
X037608Y023949D01*
X037611Y023947D01*
X037612Y023945D01*
X037613Y023944D01*
X037613Y023943D01*
X037614Y023942D01*
X037615Y02394D01*
X037615Y023938D01*
X037616Y023935D01*
X037617Y023932D01*
X037617Y023929D01*
Y023929D01*
Y023928D01*
Y023928D01*
Y023927D01*
X037616Y023925D01*
X037616Y023923D01*
X037615Y02392D01*
X037615Y023917D01*
X037613Y023914D01*
X037611Y023911D01*
Y023911D01*
X037611Y023911D01*
X03761Y02391D01*
X037609Y023908D01*
X037607Y023906D01*
X037605Y023904D01*
X037603Y023902D01*
X037599Y0239D01*
X037596Y023898D01*
X037595D01*
X037595Y023898D01*
X037594Y023898D01*
X037594Y023898D01*
X037593Y023897D01*
X037592Y023897D01*
X037589Y023896D01*
X037585Y023895D01*
X037581Y023895D01*
X037577Y023894D01*
X037572Y023894D01*
X03757D01*
X037569Y023894D01*
X037568D01*
X037564Y023894D01*
X03756Y023895D01*
X037556Y023896D01*
X037552Y023897D01*
X037548Y023898D01*
X037548D01*
X037547Y023899D01*
X037547Y023899D01*
X037546Y023899D01*
X037544Y0239D01*
X037542Y023902D01*
X037539Y023904D01*
X037536Y023906D01*
X037534Y023909D01*
X037532Y023912D01*
Y023912D01*
X037531Y023912D01*
X037531Y023913D01*
X037531Y023913D01*
X03753Y023915D01*
X037529Y023918D01*
X037527Y02392D01*
X037526Y023924D01*
X037526Y023928D01*
X037525Y023932D01*
X037541Y023933D01*
Y023933D01*
Y023932D01*
X037541Y023932D01*
X037542Y023931D01*
X037542Y023929D01*
X037543Y023926D01*
X037544Y023923D01*
X037546Y02392D01*
X037548Y023918D01*
X03755Y023915D01*
X03755Y023915D01*
X037551Y023914D01*
X037553Y023913D01*
X037556Y023912D01*
X037559Y023911D01*
X037562Y02391D01*
X037567Y023909D01*
X037572Y023909D01*
X037574D01*
X037576Y023909D01*
X037577Y023909D01*
X03758Y02391D01*
X037584Y02391D01*
X037588Y023911D01*
X037591Y023913D01*
X037592Y023914D01*
X037594Y023914D01*
X037594Y023915D01*
X037595Y023915D01*
X037596Y023917D01*
X037597Y023918D01*
X037599Y02392D01*
X0376Y023922D01*
X0376Y023925D01*
X037601Y023928D01*
Y023928D01*
Y023929D01*
X037601Y02393D01*
X0376Y023932D01*
X0376Y023933D01*
X037599Y023935D01*
X037598Y023937D01*
X037596Y023939D01*
X037596Y023939D01*
X037595Y02394D01*
X037594Y02394D01*
X037593Y023941D01*
X037592Y023941D01*
X037591Y023942D01*
X037589Y023942D01*
X037588Y023943D01*
X037586Y023944D01*
X037583Y023945D01*
X037581Y023945D01*
X037578Y023946D01*
X037574Y023947D01*
X037571Y023948D01*
X037571D01*
X03757Y023948D01*
X037569Y023948D01*
X037568Y023949D01*
X037566Y023949D01*
X037564Y02395D01*
X037562Y02395D01*
X03756Y023951D01*
X037555Y023952D01*
X03755Y023953D01*
X037548Y023954D01*
X037546Y023955D01*
X037544Y023955D01*
X037543Y023956D01*
X037543D01*
X037542Y023956D01*
X037542Y023957D01*
X037541Y023957D01*
X037539Y023958D01*
X037537Y023959D01*
X037534Y023961D01*
X037531Y023964D01*
X037529Y023966D01*
X037527Y023969D01*
X037526Y023969D01*
X037526Y02397D01*
X037525Y023972D01*
X037524Y023974D01*
X037523Y023977D01*
X037522Y02398D01*
X037522Y023983D01*
X037521Y023987D01*
Y023987D01*
Y023987D01*
Y023988D01*
Y023988D01*
X037522Y02399D01*
X037522Y023993D01*
X037523Y023996D01*
X037524Y023999D01*
X037525Y024002D01*
X037527Y024006D01*
Y024006D01*
X037527Y024006D01*
X037528Y024007D01*
X03753Y024009D01*
X037531Y024011D01*
X037534Y024013D01*
X037537Y024015D01*
X03754Y024017D01*
X037544Y024019D01*
X037544D01*
X037544Y024019D01*
X037545Y02402D01*
X037546Y02402D01*
X037547Y02402D01*
X037548Y024021D01*
X037551Y024022D01*
X037554Y024023D01*
X037558Y024023D01*
X037563Y024024D01*
X037568Y024024D01*
X037571D01*
X037572Y024024D01*
D02*
G37*
G36*
X037448D02*
X037449D01*
X037451Y024024D01*
X037453Y024023D01*
X037456Y024023D01*
X037461Y024022D01*
X037467Y024021D01*
X037472Y024019D01*
X037475Y024018D01*
X037477Y024016D01*
X037477Y024016D01*
X037478Y024016D01*
X037479Y024015D01*
X037479Y024014D01*
X03748Y024014D01*
X037482Y024013D01*
X037483Y024011D01*
X037485Y02401D01*
X037486Y024008D01*
X037488Y024007D01*
X037491Y024002D01*
X037494Y023997D01*
X037497Y023992D01*
Y023992D01*
X037497Y023991D01*
X037497Y02399D01*
X037498Y023989D01*
X037498Y023988D01*
X037499Y023986D01*
X037499Y023984D01*
X0375Y023982D01*
X037501Y023979D01*
X037501Y023977D01*
X037502Y023971D01*
X037503Y023965D01*
X037503Y023958D01*
Y023958D01*
Y023957D01*
Y023956D01*
X037503Y023955D01*
Y023953D01*
X037503Y023951D01*
X037503Y023949D01*
X037502Y023947D01*
X037501Y023941D01*
X0375Y023935D01*
X037498Y02393D01*
X037496Y023924D01*
X037496Y023924D01*
X037495Y023923D01*
X037495Y023922D01*
X037494Y023922D01*
X037494Y02392D01*
X037493Y023919D01*
X03749Y023916D01*
X037487Y023912D01*
X037484Y023908D01*
X037479Y023905D01*
X037475Y023902D01*
X037474Y023901D01*
X037474Y023901D01*
X037473Y023901D01*
X037472Y0239D01*
X037471Y0239D01*
X037469Y023899D01*
X037467Y023898D01*
X037465Y023898D01*
X037463Y023897D01*
X037461Y023896D01*
X037456Y023895D01*
X03745Y023894D01*
X037444Y023894D01*
X037442D01*
X037441Y023894D01*
X037439Y023894D01*
X037437Y023894D01*
X037435Y023895D01*
X037433Y023895D01*
X037428Y023896D01*
X037423Y023898D01*
X03742Y023899D01*
X037417Y0239D01*
X037415Y023902D01*
X037412Y023904D01*
X037412Y023904D01*
X037412Y023904D01*
X037411Y023904D01*
X03741Y023905D01*
X037409Y023906D01*
X037408Y023908D01*
X037406Y023909D01*
X037405Y02391D01*
X037404Y023912D01*
X037402Y023914D01*
X0374Y023917D01*
X037399Y023919D01*
X037398Y023922D01*
X037396Y023925D01*
X037395Y023927D01*
X037394Y023931D01*
X03741Y023935D01*
Y023934D01*
X037411Y023934D01*
X037411Y023933D01*
X037411Y023932D01*
X037412Y023931D01*
X037412Y02393D01*
X037414Y023927D01*
X037416Y023924D01*
X037418Y02392D01*
X03742Y023917D01*
X037423Y023914D01*
X037424Y023914D01*
X037425Y023913D01*
X037427Y023912D01*
X037429Y023911D01*
X037432Y02391D01*
X037436Y023909D01*
X03744Y023908D01*
X037444Y023908D01*
X037446D01*
X037447Y023908D01*
X037448D01*
X037449Y023908D01*
X037453Y023909D01*
X037457Y02391D01*
X037461Y023911D01*
X037465Y023913D01*
X037469Y023915D01*
X037469D01*
X037469Y023916D01*
X03747Y023916D01*
X037472Y023918D01*
X037474Y02392D01*
X037476Y023923D01*
X037479Y023926D01*
X037481Y02393D01*
X037482Y023934D01*
Y023934D01*
X037483Y023935D01*
X037483Y023935D01*
X037483Y023936D01*
X037483Y023937D01*
X037484Y023938D01*
X037484Y023941D01*
X037485Y023945D01*
X037486Y023949D01*
X037486Y023953D01*
X037486Y023958D01*
Y023958D01*
Y023959D01*
Y02396D01*
Y023961D01*
X037486Y023962D01*
Y023964D01*
X037486Y023966D01*
X037486Y023968D01*
X037485Y023972D01*
X037484Y023977D01*
X037483Y023981D01*
X037482Y023986D01*
Y023986D01*
X037481Y023987D01*
X037481Y023987D01*
X037481Y023988D01*
X03748Y02399D01*
X037478Y023993D01*
X037476Y023996D01*
X037473Y023999D01*
X037471Y024002D01*
X037467Y024004D01*
X037467D01*
X037467Y024004D01*
X037466Y024005D01*
X037465Y024005D01*
X037464Y024005D01*
X037463Y024006D01*
X037461Y024007D01*
X037457Y024008D01*
X037454Y024009D01*
X03745Y02401D01*
X037446Y02401D01*
X037444D01*
X037443Y02401D01*
X037442D01*
X037441Y02401D01*
X037437Y024009D01*
X037434Y024008D01*
X03743Y024007D01*
X037426Y024005D01*
X037424Y024003D01*
X037422Y024002D01*
X037422Y024002D01*
X037422Y024002D01*
X037421Y024001D01*
X03742Y024001D01*
X03742Y024D01*
X037419Y023999D01*
X037418Y023997D01*
X037417Y023996D01*
X037416Y023994D01*
X037414Y023993D01*
X037413Y023991D01*
X037412Y023989D01*
X037411Y023986D01*
X03741Y023984D01*
X037409Y023981D01*
X037409Y023978D01*
X037392Y023982D01*
Y023982D01*
X037392Y023983D01*
X037392Y023984D01*
X037393Y023986D01*
X037394Y023987D01*
X037394Y023989D01*
X037395Y023991D01*
X037396Y023994D01*
X037399Y023999D01*
X037402Y024004D01*
X037404Y024007D01*
X037406Y024009D01*
X037408Y024011D01*
X037411Y024013D01*
X037411Y024014D01*
X037411Y024014D01*
X037412Y024014D01*
X037413Y024015D01*
X037415Y024016D01*
X037416Y024017D01*
X037418Y024018D01*
X03742Y024019D01*
X037423Y02402D01*
X037425Y024021D01*
X037428Y024022D01*
X037431Y024023D01*
X037434Y024023D01*
X037437Y024024D01*
X037441Y024024D01*
X037444Y024024D01*
X037446D01*
X037448Y024024D01*
D02*
G37*
G36*
X037722Y024022D02*
Y024021D01*
Y02402D01*
X037722Y024019D01*
X037722Y024017D01*
X037722Y024015D01*
X037721Y024013D01*
X03772Y024011D01*
Y024011D01*
X03772Y024011D01*
X03772Y02401D01*
X037719Y024008D01*
X037718Y024006D01*
X037717Y024003D01*
X037715Y024001D01*
X037713Y023998D01*
X03771Y023995D01*
Y023994D01*
X03771Y023994D01*
X037709Y023993D01*
X037707Y023991D01*
X037705Y023989D01*
X037702Y023986D01*
X037699Y023983D01*
X037695Y023979D01*
X03769Y023976D01*
X03769Y023975D01*
X037689Y023975D01*
X037688Y023974D01*
X037687Y023973D01*
X037685Y023971D01*
X037683Y02397D01*
X037681Y023968D01*
X037679Y023966D01*
X037674Y023962D01*
X03767Y023957D01*
X037667Y023955D01*
X037665Y023953D01*
X037664Y023951D01*
X037662Y023949D01*
Y023949D01*
X037662Y023949D01*
X037661Y023948D01*
X037661Y023947D01*
X03766Y023945D01*
X037658Y023943D01*
X037657Y02394D01*
X037656Y023937D01*
X037655Y023933D01*
X037655Y02393D01*
Y02393D01*
Y02393D01*
X037655Y023929D01*
X037655Y023927D01*
X037656Y023925D01*
X037656Y023922D01*
X037658Y02392D01*
X037659Y023917D01*
X037661Y023915D01*
X037662Y023914D01*
X037663Y023914D01*
X037664Y023913D01*
X037666Y023911D01*
X037669Y02391D01*
X037671Y023909D01*
X037675Y023908D01*
X037679Y023908D01*
X03768D01*
X037681Y023908D01*
X037683Y023909D01*
X037685Y023909D01*
X037688Y02391D01*
X037691Y023911D01*
X037694Y023913D01*
X037697Y023915D01*
X037697Y023915D01*
X037698Y023916D01*
X037699Y023918D01*
X0377Y02392D01*
X037701Y023922D01*
X037702Y023926D01*
X037703Y023929D01*
X037704Y023934D01*
X037719Y023932D01*
Y023932D01*
X037719Y023931D01*
Y02393D01*
X037719Y023929D01*
X037719Y023928D01*
X037718Y023926D01*
X037718Y023924D01*
X037717Y023922D01*
X037716Y023918D01*
X037714Y023913D01*
X037712Y023911D01*
X037711Y023909D01*
X037709Y023907D01*
X037707Y023905D01*
X037707Y023905D01*
X037707Y023905D01*
X037706Y023904D01*
X037705Y023904D01*
X037704Y023903D01*
X037703Y023902D01*
X037701Y023901D01*
X0377Y0239D01*
X037698Y023899D01*
X037695Y023898D01*
X037693Y023898D01*
X03769Y023897D01*
X037688Y023896D01*
X037685Y023896D01*
X037682Y023896D01*
X037678Y023896D01*
X037677D01*
X037675Y023896D01*
X037674Y023896D01*
X037672Y023896D01*
X03767Y023896D01*
X037668Y023897D01*
X037663Y023898D01*
X037659Y0239D01*
X037656Y023901D01*
X037654Y023902D01*
X037652Y023904D01*
X03765Y023906D01*
X037649Y023906D01*
X037649Y023906D01*
X037649Y023907D01*
X037648Y023908D01*
X037647Y023908D01*
X037646Y02391D01*
X037645Y023911D01*
X037644Y023913D01*
X037642Y023916D01*
X037641Y02392D01*
X03764Y023923D01*
X037639Y023925D01*
X037639Y023928D01*
X037639Y02393D01*
Y023931D01*
Y023932D01*
X037639Y023933D01*
X037639Y023935D01*
X03764Y023937D01*
X03764Y02394D01*
X037641Y023943D01*
X037642Y023945D01*
X037642Y023946D01*
X037643Y023947D01*
X037643Y023948D01*
X037645Y02395D01*
X037646Y023952D01*
X037648Y023955D01*
X03765Y023958D01*
X037653Y023961D01*
X037653Y023961D01*
X037654Y023962D01*
X037655Y023963D01*
X037656Y023964D01*
X037657Y023965D01*
X037658Y023967D01*
X03766Y023968D01*
X037661Y02397D01*
X037663Y023972D01*
X037665Y023974D01*
X037668Y023976D01*
X03767Y023978D01*
X037673Y02398D01*
X037676Y023983D01*
X037676Y023983D01*
X037677Y023983D01*
X037677Y023984D01*
X037678Y023985D01*
X037679Y023986D01*
X037681Y023987D01*
X037684Y023989D01*
X037687Y023992D01*
X03769Y023995D01*
X037692Y023997D01*
X037693Y023998D01*
X037694Y023999D01*
X037694Y023999D01*
X037695Y024D01*
X037696Y024D01*
X037697Y024001D01*
X037698Y024003D01*
X037699Y024004D01*
X037701Y024007D01*
X037639D01*
Y024022D01*
X037722D01*
Y024022D01*
D02*
G37*
G36*
X037335Y023924D02*
X037335Y023924D01*
X037336Y023925D01*
X037337Y023926D01*
X037339Y023927D01*
X037341Y023928D01*
X037344Y02393D01*
X037346Y023932D01*
X03735Y023934D01*
X03735D01*
X03735Y023935D01*
X037351Y023935D01*
X037353Y023936D01*
X037355Y023937D01*
X037358Y023939D01*
X03736Y02394D01*
X037363Y023941D01*
X037366Y023942D01*
Y023927D01*
X037366D01*
X037365Y023927D01*
X037365Y023927D01*
X037364Y023926D01*
X037363Y023926D01*
X037361Y023925D01*
X037358Y023923D01*
X037355Y023921D01*
X037351Y023918D01*
X037347Y023916D01*
X037343Y023912D01*
X037343Y023912D01*
X037343Y023912D01*
X037342Y023912D01*
X037342Y023911D01*
X03734Y023909D01*
X037338Y023907D01*
X037336Y023904D01*
X037333Y023902D01*
X037331Y023899D01*
X037329Y023896D01*
X037319D01*
Y024022D01*
X037335D01*
Y023924D01*
D02*
G37*
G36*
X037242Y024024D02*
X037243Y024024D01*
X037245Y024024D01*
X037247Y024023D01*
X037249Y024023D01*
X037254Y024021D01*
X037257Y024021D01*
X037259Y02402D01*
X037262Y024018D01*
X037264Y024017D01*
X037267Y024015D01*
X037269Y024013D01*
X037269Y024013D01*
X037269Y024013D01*
X03727Y024012D01*
X037271Y024011D01*
X037271Y02401D01*
X037272Y024009D01*
X037273Y024007D01*
X037274Y024006D01*
X037275Y024004D01*
X037276Y024002D01*
X037278Y023997D01*
X037279Y023994D01*
X037279Y023992D01*
X03728Y023989D01*
X03728Y023986D01*
Y023986D01*
Y023985D01*
Y023985D01*
X03728Y023984D01*
Y023983D01*
X03728Y023981D01*
X037279Y023979D01*
X037279Y023975D01*
X037277Y023972D01*
X037276Y023969D01*
X037274Y023965D01*
Y023965D01*
X037273Y023965D01*
X037273Y023964D01*
X037271Y023963D01*
X037269Y023961D01*
X037267Y023959D01*
X037264Y023957D01*
X03726Y023955D01*
X037256Y023954D01*
X037256D01*
X037256Y023954D01*
X037257Y023954D01*
X037258Y023953D01*
X037259Y023953D01*
X037261Y023951D01*
X037264Y02395D01*
X037266Y023948D01*
X037268Y023946D01*
X03727Y023944D01*
X037271Y023944D01*
X037271Y023943D01*
X037272Y023941D01*
X037273Y02394D01*
X037273Y023937D01*
X037274Y023935D01*
X037275Y023931D01*
X037275Y023928D01*
Y023928D01*
Y023928D01*
Y023927D01*
X037275Y023926D01*
X037275Y023925D01*
X037274Y023923D01*
X037274Y02392D01*
X037273Y023916D01*
X037271Y023913D01*
X03727Y023911D01*
X037268Y023909D01*
X037267Y023907D01*
X037265Y023905D01*
X037265Y023905D01*
X037265Y023905D01*
X037264Y023904D01*
X037263Y023904D01*
X037262Y023903D01*
X037261Y023902D01*
X03726Y023901D01*
X037258Y0239D01*
X037256Y023899D01*
X037254Y023898D01*
X037252Y023898D01*
X03725Y023897D01*
X037245Y023896D01*
X037242Y023896D01*
X037239Y023896D01*
X037237D01*
X037236Y023896D01*
X037235Y023896D01*
X037233Y023896D01*
X037231Y023896D01*
X037229Y023897D01*
X037225Y023898D01*
X037221Y0239D01*
X037218Y023901D01*
X037216Y023902D01*
X037214Y023904D01*
X037212Y023905D01*
X037212Y023905D01*
X037212Y023906D01*
X037211Y023906D01*
X037211Y023907D01*
X03721Y023908D01*
X037209Y023909D01*
X037207Y023912D01*
X037205Y023915D01*
X037204Y023919D01*
X037202Y023924D01*
X037202Y023926D01*
X037202Y023929D01*
Y023929D01*
Y023929D01*
Y02393D01*
X037202Y023932D01*
X037203Y023934D01*
X037203Y023936D01*
X037204Y023939D01*
X037205Y023941D01*
X037207Y023944D01*
X037207Y023944D01*
X037208Y023945D01*
X037209Y023946D01*
X03721Y023948D01*
X037212Y023949D01*
X037215Y023951D01*
X037217Y023953D01*
X037221Y023954D01*
X03722D01*
X03722Y023954D01*
X03722Y023954D01*
X037219Y023955D01*
X037217Y023956D01*
X037214Y023957D01*
X037211Y023959D01*
X037208Y023961D01*
X037206Y023963D01*
X037203Y023966D01*
Y023966D01*
X037203Y023967D01*
X037202Y023968D01*
X037201Y023969D01*
X0372Y023972D01*
X037199Y023975D01*
X037198Y023978D01*
X037197Y023982D01*
X037197Y023986D01*
Y023986D01*
Y023987D01*
Y023988D01*
X037197Y023989D01*
X037197Y02399D01*
X037198Y023992D01*
X037198Y023994D01*
X037198Y023996D01*
X0372Y024D01*
X037201Y024002D01*
X037202Y024004D01*
X037203Y024007D01*
X037205Y024009D01*
X037206Y024011D01*
X037208Y024013D01*
X037209Y024013D01*
X037209Y024014D01*
X03721Y024014D01*
X03721Y024015D01*
X037212Y024016D01*
X037213Y024017D01*
X037215Y024018D01*
X037216Y024019D01*
X037218Y02402D01*
X037221Y024021D01*
X037223Y024022D01*
X037226Y024023D01*
X037229Y024023D01*
X037232Y024024D01*
X037235Y024024D01*
X037239Y024024D01*
X03724D01*
X037242Y024024D01*
D02*
G37*
G36*
X037139Y023924D02*
X037139Y023924D01*
X03714Y023925D01*
X037141Y023926D01*
X037143Y023927D01*
X037145Y023928D01*
X037148Y02393D01*
X037151Y023932D01*
X037154Y023934D01*
X037154D01*
X037154Y023935D01*
X037155Y023935D01*
X037157Y023936D01*
X037159Y023937D01*
X037162Y023939D01*
X037165Y02394D01*
X037167Y023941D01*
X03717Y023942D01*
Y023927D01*
X03717D01*
X03717Y023927D01*
X037169Y023927D01*
X037168Y023926D01*
X037167Y023926D01*
X037166Y023925D01*
X037162Y023923D01*
X037159Y023921D01*
X037155Y023918D01*
X037151Y023916D01*
X037148Y023912D01*
X037147Y023912D01*
X037147Y023912D01*
X037147Y023912D01*
X037146Y023911D01*
X037144Y023909D01*
X037142Y023907D01*
X03714Y023904D01*
X037137Y023902D01*
X037135Y023899D01*
X037134Y023896D01*
X037124D01*
Y024022D01*
X037139D01*
Y023924D01*
D02*
G37*
G36*
X045948Y023857D02*
X04595Y023857D01*
X045952Y023856D01*
X045954Y023856D01*
X045956Y023856D01*
X04596Y023855D01*
X045965Y023853D01*
X045967Y023852D01*
X045969Y023851D01*
X045972Y023849D01*
X045974Y023847D01*
X045974Y023847D01*
X045974Y023847D01*
X045975Y023846D01*
X045975Y023846D01*
X045976Y023845D01*
X045977Y023844D01*
X045978Y023842D01*
X045979Y023841D01*
X04598Y023839D01*
X045981Y023837D01*
X045983Y023833D01*
X045985Y023827D01*
X045986Y023825D01*
X045986Y023822D01*
X04597Y023821D01*
Y023821D01*
Y023821D01*
X04597Y023822D01*
X045969Y023823D01*
X045969Y023825D01*
X045968Y023827D01*
X045967Y02383D01*
X045966Y023833D01*
X045964Y023836D01*
X045962Y023838D01*
X045961Y023839D01*
X04596Y023839D01*
X045959Y02384D01*
X045957Y023841D01*
X045955Y023842D01*
X045952Y023843D01*
X045949Y023844D01*
X045946Y023844D01*
X045944D01*
X045944Y023844D01*
X045942Y023844D01*
X045939Y023843D01*
X045936Y023842D01*
X045933Y023841D01*
X04593Y023839D01*
X045928Y023837D01*
X045927Y023836D01*
X045926Y023836D01*
X045926Y023835D01*
X045926Y023835D01*
X045925Y023834D01*
X045924Y023832D01*
X045923Y02383D01*
X045921Y023827D01*
X04592Y023823D01*
X045919Y023818D01*
X045919Y023816D01*
Y023813D01*
Y023813D01*
Y023813D01*
Y023812D01*
X045919Y023811D01*
Y02381D01*
X045919Y023809D01*
X04592Y023806D01*
X045921Y023802D01*
X045922Y023799D01*
X045924Y023796D01*
X045926Y023793D01*
Y023792D01*
X045927Y023792D01*
X045928Y023791D01*
X045929Y02379D01*
X045931Y023789D01*
X045934Y023787D01*
X045938Y023786D01*
X045941Y023785D01*
X045944Y023785D01*
X045947D01*
X045948Y023785D01*
X04595Y023785D01*
X045952Y023786D01*
X045955Y023786D01*
X045957Y023787D01*
X045959Y023788D01*
X04596Y023788D01*
X04596Y023789D01*
X045961Y02379D01*
X045963Y023791D01*
X045964Y023792D01*
X045966Y023794D01*
X045967Y023795D01*
X045969Y023797D01*
X045983Y023795D01*
X045971Y02373D01*
X045908D01*
Y023745D01*
X045959D01*
X045966Y023779D01*
X045965Y023779D01*
X045965Y023779D01*
X045964Y023778D01*
X045964Y023778D01*
X045962Y023777D01*
X045961Y023777D01*
X045958Y023775D01*
X045955Y023774D01*
X045951Y023772D01*
X045946Y023772D01*
X045944Y023771D01*
X04594D01*
X045939Y023771D01*
X045938Y023772D01*
X045936Y023772D01*
X045934Y023772D01*
X045932Y023773D01*
X045928Y023774D01*
X045925Y023775D01*
X045923Y023776D01*
X045921Y023777D01*
X045918Y023779D01*
X045916Y023781D01*
X045914Y023783D01*
X045914Y023783D01*
X045913Y023783D01*
X045913Y023784D01*
X045912Y023785D01*
X045911Y023786D01*
X04591Y023787D01*
X045909Y023789D01*
X045908Y023791D01*
X045907Y023793D01*
X045906Y023795D01*
X045905Y023797D01*
X045904Y0238D01*
X045904Y023803D01*
X045903Y023806D01*
X045903Y023809D01*
X045902Y023812D01*
Y023812D01*
Y023813D01*
Y023814D01*
X045903Y023815D01*
X045903Y023816D01*
X045903Y023818D01*
X045903Y02382D01*
X045904Y023822D01*
X045905Y023827D01*
X045907Y023832D01*
X045908Y023834D01*
X045909Y023837D01*
X045911Y023839D01*
X045912Y023842D01*
X045913Y023842D01*
X045913Y023842D01*
X045914Y023843D01*
X045915Y023844D01*
X045916Y023845D01*
X045917Y023847D01*
X045919Y023848D01*
X045921Y023849D01*
X045923Y023851D01*
X045926Y023852D01*
X045929Y023853D01*
X045932Y023855D01*
X045935Y023855D01*
X045938Y023856D01*
X045942Y023857D01*
X045946Y023857D01*
X045947D01*
X045948Y023857D01*
D02*
G37*
G36*
X046005Y023864D02*
X046006Y023864D01*
X046007Y023864D01*
X046008Y023863D01*
X04601Y023862D01*
X046011Y023862D01*
X046013Y023861D01*
X046017Y023859D01*
X046022Y023856D01*
X046027Y023853D01*
X046032Y023849D01*
X046032D01*
X046032Y023849D01*
X046033Y02385D01*
X046034Y02385D01*
X046035Y023851D01*
X046037Y023852D01*
X046039Y023852D01*
X046041Y023853D01*
X046043Y023854D01*
X046045Y023854D01*
X046051Y023856D01*
X046056Y023857D01*
X046059Y023857D01*
X046063Y023857D01*
X046064D01*
X046065Y023857D01*
X046067D01*
X046069Y023857D01*
X046071Y023856D01*
X046073Y023856D01*
X046078Y023855D01*
X046083Y023853D01*
X046088Y023851D01*
X046091Y02385D01*
X046094Y023849D01*
X046094Y023849D01*
X046094Y023848D01*
X046095Y023848D01*
X046096Y023847D01*
X046097Y023846D01*
X046098Y023845D01*
X046102Y023843D01*
X046105Y023839D01*
X046108Y023835D01*
X046112Y023831D01*
X046115Y023826D01*
Y023825D01*
X046115Y023825D01*
X046116Y023824D01*
X046116Y023823D01*
X046117Y023822D01*
X046117Y02382D01*
X046118Y023818D01*
X046119Y023816D01*
X046119Y023813D01*
X04612Y023811D01*
X046121Y023808D01*
X046121Y023805D01*
X046122Y023799D01*
X046122Y023792D01*
Y023792D01*
Y023791D01*
Y02379D01*
X046122Y023789D01*
Y023787D01*
X046122Y023785D01*
X046122Y023783D01*
X046122Y023781D01*
X046121Y023775D01*
X046119Y02377D01*
X046118Y023764D01*
X046115Y023758D01*
X046115Y023758D01*
X046115Y023757D01*
X046114Y023756D01*
X046114Y023755D01*
X046113Y023754D01*
X046112Y023753D01*
X046109Y023749D01*
X046106Y023746D01*
X046103Y023742D01*
X046098Y023738D01*
X046094Y023735D01*
X046093Y023734D01*
X046093Y023734D01*
X046092Y023734D01*
X046091Y023733D01*
X04609Y023733D01*
X046088Y023732D01*
X046086Y023731D01*
X046084Y023731D01*
X046082Y02373D01*
X04608Y023729D01*
X046074Y023728D01*
X046069Y023727D01*
X046065Y023727D01*
X046061D01*
X046059Y023727D01*
X046058D01*
X046056Y023727D01*
X046054Y023727D01*
X046052Y023728D01*
X046047Y023729D01*
X046041Y02373D01*
X046036Y023732D01*
X046033Y023734D01*
X046031Y023735D01*
X046031Y023735D01*
X04603Y023735D01*
X046029Y023736D01*
X046028Y023736D01*
X046027Y023737D01*
X046026Y023738D01*
X046023Y023741D01*
X046019Y023744D01*
X046016Y023748D01*
X046012Y023753D01*
X046009Y023758D01*
Y023758D01*
X046009Y023759D01*
X046009Y02376D01*
X046008Y023761D01*
X046008Y023762D01*
X046007Y023764D01*
X046006Y023766D01*
X046006Y023768D01*
X046005Y02377D01*
X046004Y023773D01*
X046004Y023776D01*
X046003Y023779D01*
X046002Y023785D01*
X046002Y023792D01*
Y023792D01*
Y023792D01*
Y023793D01*
Y023794D01*
X046002Y023796D01*
Y023797D01*
X046002Y023799D01*
X046002Y023801D01*
X046003Y023805D01*
X046004Y02381D01*
X046005Y023815D01*
X046007Y02382D01*
Y02382D01*
X046007Y02382D01*
X046007Y023821D01*
X046008Y023822D01*
X046008Y023823D01*
X046009Y023824D01*
X04601Y023827D01*
X046012Y023831D01*
X046015Y023834D01*
X046018Y023838D01*
X046021Y023841D01*
X046021D01*
X04602Y023842D01*
X04602Y023842D01*
X046019Y023843D01*
X046018Y023843D01*
X046017Y023844D01*
X046014Y023846D01*
X046011Y023848D01*
X046007Y02385D01*
X046003Y023851D01*
X046Y023853D01*
X046005Y023865D01*
X046005D01*
X046005Y023864D01*
D02*
G37*
G36*
X045446Y024024D02*
X045448Y024024D01*
X04545Y024024D01*
X045452Y024023D01*
X045454Y024023D01*
X045458Y024022D01*
X045463Y02402D01*
X045465Y024019D01*
X045467Y024018D01*
X04547Y024016D01*
X045472Y024015D01*
X045472Y024015D01*
X045472Y024014D01*
X045473Y024014D01*
X045473Y024013D01*
X045474Y024012D01*
X045475Y024011D01*
X045476Y024009D01*
X045477Y024008D01*
X045478Y024006D01*
X045479Y024004D01*
X045481Y024D01*
X045483Y023995D01*
X045484Y023992D01*
X045484Y023989D01*
X045468Y023988D01*
Y023988D01*
Y023988D01*
X045468Y023989D01*
X045467Y02399D01*
X045467Y023992D01*
X045466Y023995D01*
X045465Y023997D01*
X045464Y024D01*
X045462Y024003D01*
X04546Y024006D01*
X045459Y024006D01*
X045458Y024007D01*
X045457Y024007D01*
X045455Y024009D01*
X045453Y02401D01*
X04545Y024011D01*
X045447Y024011D01*
X045444Y024011D01*
X045442D01*
X045442Y024011D01*
X04544Y024011D01*
X045437Y02401D01*
X045434Y024009D01*
X045431Y024008D01*
X045428Y024006D01*
X045426Y024005D01*
X045425Y024003D01*
X045424Y024003D01*
X045424Y024003D01*
X045424Y024002D01*
X045423Y024002D01*
X045422Y024D01*
X045421Y023997D01*
X045419Y023994D01*
X045418Y02399D01*
X045417Y023986D01*
X045417Y023983D01*
Y023981D01*
Y023981D01*
Y02398D01*
Y023979D01*
X045417Y023979D01*
Y023977D01*
X045417Y023976D01*
X045418Y023973D01*
X045419Y02397D01*
X04542Y023966D01*
X045422Y023963D01*
X045424Y02396D01*
Y02396D01*
X045425Y02396D01*
X045426Y023959D01*
X045427Y023957D01*
X045429Y023956D01*
X045432Y023955D01*
X045436Y023953D01*
X045439Y023953D01*
X045442Y023952D01*
X045445D01*
X045446Y023952D01*
X045448Y023953D01*
X045451Y023953D01*
X045453Y023954D01*
X045455Y023955D01*
X045457Y023956D01*
X045458Y023956D01*
X045458Y023956D01*
X045459Y023957D01*
X045461Y023958D01*
X045462Y023959D01*
X045464Y023961D01*
X045465Y023963D01*
X045467Y023965D01*
X045481Y023963D01*
X045469Y023898D01*
X045406D01*
Y023912D01*
X045457D01*
X045464Y023947D01*
X045463Y023946D01*
X045463Y023946D01*
X045463Y023946D01*
X045462Y023945D01*
X045461Y023945D01*
X045459Y023944D01*
X045456Y023943D01*
X045453Y023941D01*
X045449Y02394D01*
X045444Y023939D01*
X045442Y023939D01*
X045438D01*
X045437Y023939D01*
X045436Y023939D01*
X045434Y023939D01*
X045432Y023939D01*
X04543Y02394D01*
X045426Y023941D01*
X045423Y023942D01*
X045421Y023943D01*
X045419Y023945D01*
X045416Y023946D01*
X045414Y023948D01*
X045412Y02395D01*
X045412Y02395D01*
X045411Y023951D01*
X045411Y023951D01*
X04541Y023952D01*
X045409Y023953D01*
X045408Y023955D01*
X045407Y023956D01*
X045406Y023958D01*
X045405Y02396D01*
X045404Y023962D01*
X045403Y023965D01*
X045402Y023967D01*
X045402Y02397D01*
X045401Y023973D01*
X045401Y023976D01*
X0454Y023979D01*
Y02398D01*
Y02398D01*
Y023981D01*
X045401Y023982D01*
X045401Y023984D01*
X045401Y023985D01*
X045401Y023987D01*
X045402Y023989D01*
X045403Y023994D01*
X045405Y023999D01*
X045406Y024002D01*
X045407Y024004D01*
X045409Y024007D01*
X04541Y024009D01*
X045411Y024009D01*
X045411Y02401D01*
X045412Y02401D01*
X045413Y024011D01*
X045414Y024012D01*
X045415Y024014D01*
X045417Y024015D01*
X045419Y024017D01*
X045421Y024018D01*
X045424Y024019D01*
X045427Y024021D01*
X04543Y024022D01*
X045433Y024023D01*
X045436Y024023D01*
X04544Y024024D01*
X045444Y024024D01*
X045445D01*
X045446Y024024D01*
D02*
G37*
G36*
X045972D02*
X045974D01*
X045976Y024024D01*
X045978Y024024D01*
X045982Y024023D01*
X045987Y024022D01*
X045992Y024021D01*
X045996Y024019D01*
X045997D01*
X045997Y024019D01*
X045998Y024019D01*
X045998Y024018D01*
X046Y024017D01*
X046003Y024016D01*
X046006Y024013D01*
X046009Y024011D01*
X046012Y024008D01*
X046015Y024004D01*
Y024004D01*
X046015Y024004D01*
X046015Y024003D01*
X046016Y024003D01*
X046016Y024002D01*
X046017Y024001D01*
X046018Y023998D01*
X046019Y023994D01*
X04602Y023991D01*
X046021Y023986D01*
X046021Y023982D01*
X046006Y02398D01*
Y02398D01*
Y023981D01*
X046006Y023981D01*
Y023982D01*
X046005Y023983D01*
X046005Y023986D01*
X046004Y023988D01*
X046003Y023991D01*
X046002Y023993D01*
X046001Y023996D01*
X046Y023996D01*
X046Y023997D01*
X045999Y023998D01*
X045998Y023999D01*
X045996Y024001D01*
X045994Y024003D01*
X045991Y024004D01*
X045988Y024006D01*
X045988D01*
X045988Y024006D01*
X045987Y024006D01*
X045987Y024006D01*
X045985Y024007D01*
X045982Y024007D01*
X04598Y024008D01*
X045976Y024009D01*
X045973Y024009D01*
X045969Y024009D01*
X045967D01*
X045965Y024009D01*
X045963Y024009D01*
X04596Y024009D01*
X045958Y024008D01*
X045955Y024007D01*
X045952Y024007D01*
X045952Y024006D01*
X045951Y024006D01*
X045949Y024005D01*
X045948Y024005D01*
X045946Y024003D01*
X045944Y024002D01*
X045942Y024001D01*
X045941Y023999D01*
X045941Y023999D01*
X04594Y023998D01*
X04594Y023997D01*
X045939Y023995D01*
X045938Y023994D01*
X045938Y023992D01*
X045938Y02399D01*
X045937Y023988D01*
Y023988D01*
Y023987D01*
X045938Y023986D01*
X045938Y023984D01*
X045938Y023983D01*
X045939Y023981D01*
X04594Y023979D01*
X045941Y023978D01*
X045941Y023977D01*
X045942Y023977D01*
X045942Y023976D01*
X045944Y023975D01*
X045945Y023974D01*
X045947Y023973D01*
X04595Y023971D01*
X045952Y02397D01*
X045952Y02397D01*
X045953Y02397D01*
X045955Y023969D01*
X045956Y023969D01*
X045957Y023969D01*
X045958Y023968D01*
X04596Y023968D01*
X045962Y023967D01*
X045964Y023967D01*
X045966Y023966D01*
X045969Y023966D01*
X045972Y023965D01*
X045975Y023964D01*
X045975D01*
X045975Y023964D01*
X045976Y023964D01*
X045977Y023963D01*
X045979Y023963D01*
X04598Y023963D01*
X045984Y023962D01*
X045988Y02396D01*
X045992Y023959D01*
X045996Y023958D01*
X045998Y023957D01*
X045999Y023956D01*
X045999D01*
X045999Y023956D01*
X046Y023955D01*
X046002Y023955D01*
X046004Y023953D01*
X046006Y023951D01*
X046008Y023949D01*
X046011Y023947D01*
X046012Y023945D01*
X046013Y023944D01*
X046013Y023943D01*
X046014Y023942D01*
X046015Y02394D01*
X046015Y023938D01*
X046016Y023935D01*
X046017Y023932D01*
X046017Y023929D01*
Y023929D01*
Y023928D01*
Y023928D01*
Y023927D01*
X046016Y023925D01*
X046016Y023923D01*
X046015Y02392D01*
X046015Y023917D01*
X046013Y023914D01*
X046011Y023911D01*
Y023911D01*
X046011Y023911D01*
X04601Y02391D01*
X046009Y023908D01*
X046007Y023906D01*
X046005Y023904D01*
X046002Y023902D01*
X045999Y0239D01*
X045996Y023898D01*
X045995D01*
X045995Y023898D01*
X045994Y023898D01*
X045994Y023898D01*
X045993Y023897D01*
X045992Y023897D01*
X045989Y023896D01*
X045985Y023895D01*
X045981Y023895D01*
X045977Y023894D01*
X045972Y023894D01*
X04597D01*
X045969Y023894D01*
X045968D01*
X045964Y023894D01*
X04596Y023895D01*
X045956Y023896D01*
X045952Y023897D01*
X045948Y023898D01*
X045948D01*
X045947Y023899D01*
X045947Y023899D01*
X045946Y023899D01*
X045944Y0239D01*
X045942Y023902D01*
X045939Y023904D01*
X045936Y023906D01*
X045934Y023909D01*
X045932Y023912D01*
Y023912D01*
X045931Y023912D01*
X045931Y023913D01*
X045931Y023913D01*
X04593Y023915D01*
X045929Y023918D01*
X045927Y02392D01*
X045926Y023924D01*
X045926Y023928D01*
X045925Y023932D01*
X045941Y023933D01*
Y023933D01*
Y023932D01*
X045941Y023932D01*
X045942Y023931D01*
X045942Y023929D01*
X045943Y023926D01*
X045944Y023923D01*
X045946Y02392D01*
X045948Y023918D01*
X04595Y023915D01*
X04595Y023915D01*
X045951Y023914D01*
X045953Y023913D01*
X045956Y023912D01*
X045959Y023911D01*
X045962Y02391D01*
X045967Y023909D01*
X045972Y023909D01*
X045974D01*
X045976Y023909D01*
X045977Y023909D01*
X04598Y02391D01*
X045984Y02391D01*
X045988Y023911D01*
X045991Y023913D01*
X045992Y023914D01*
X045994Y023914D01*
X045994Y023915D01*
X045995Y023915D01*
X045996Y023917D01*
X045997Y023918D01*
X045999Y02392D01*
X046Y023922D01*
X046Y023925D01*
X046001Y023928D01*
Y023928D01*
Y023929D01*
X046Y02393D01*
X046Y023932D01*
X046Y023933D01*
X045999Y023935D01*
X045998Y023937D01*
X045996Y023939D01*
X045996Y023939D01*
X045995Y02394D01*
X045994Y02394D01*
X045993Y023941D01*
X045992Y023941D01*
X045991Y023942D01*
X045989Y023942D01*
X045988Y023943D01*
X045986Y023944D01*
X045983Y023945D01*
X045981Y023945D01*
X045978Y023946D01*
X045974Y023947D01*
X045971Y023948D01*
X045971D01*
X04597Y023948D01*
X045969Y023948D01*
X045968Y023949D01*
X045966Y023949D01*
X045964Y02395D01*
X045962Y02395D01*
X04596Y023951D01*
X045955Y023952D01*
X04595Y023953D01*
X045948Y023954D01*
X045946Y023955D01*
X045944Y023955D01*
X045943Y023956D01*
X045943D01*
X045942Y023956D01*
X045942Y023957D01*
X045941Y023957D01*
X045939Y023958D01*
X045937Y023959D01*
X045934Y023961D01*
X045931Y023964D01*
X045929Y023966D01*
X045927Y023969D01*
X045926Y023969D01*
X045926Y02397D01*
X045925Y023972D01*
X045924Y023974D01*
X045923Y023977D01*
X045922Y02398D01*
X045922Y023983D01*
X045921Y023987D01*
Y023987D01*
Y023987D01*
Y023988D01*
Y023988D01*
X045922Y02399D01*
X045922Y023993D01*
X045923Y023996D01*
X045924Y023999D01*
X045925Y024002D01*
X045927Y024006D01*
Y024006D01*
X045927Y024006D01*
X045928Y024007D01*
X04593Y024009D01*
X045931Y024011D01*
X045934Y024013D01*
X045937Y024015D01*
X04594Y024017D01*
X045944Y024019D01*
X045944D01*
X045944Y024019D01*
X045945Y02402D01*
X045946Y02402D01*
X045947Y02402D01*
X045948Y024021D01*
X045951Y024022D01*
X045954Y024023D01*
X045958Y024023D01*
X045963Y024024D01*
X045968Y024024D01*
X045971D01*
X045972Y024024D01*
D02*
G37*
G36*
X045848D02*
X045849D01*
X045851Y024024D01*
X045853Y024023D01*
X045856Y024023D01*
X045861Y024022D01*
X045867Y024021D01*
X045872Y024019D01*
X045875Y024018D01*
X045877Y024016D01*
X045877Y024016D01*
X045878Y024016D01*
X045879Y024015D01*
X045879Y024014D01*
X04588Y024014D01*
X045882Y024013D01*
X045883Y024011D01*
X045885Y02401D01*
X045886Y024008D01*
X045888Y024007D01*
X045891Y024002D01*
X045894Y023997D01*
X045897Y023992D01*
Y023992D01*
X045897Y023991D01*
X045897Y02399D01*
X045898Y023989D01*
X045898Y023988D01*
X045899Y023986D01*
X045899Y023984D01*
X0459Y023982D01*
X045901Y023979D01*
X045901Y023977D01*
X045902Y023971D01*
X045903Y023965D01*
X045903Y023958D01*
Y023958D01*
Y023957D01*
Y023956D01*
X045903Y023955D01*
Y023953D01*
X045903Y023951D01*
X045903Y023949D01*
X045902Y023947D01*
X045901Y023941D01*
X0459Y023935D01*
X045898Y02393D01*
X045896Y023924D01*
X045896Y023924D01*
X045895Y023923D01*
X045895Y023922D01*
X045894Y023922D01*
X045894Y02392D01*
X045893Y023919D01*
X04589Y023916D01*
X045887Y023912D01*
X045884Y023908D01*
X045879Y023905D01*
X045875Y023902D01*
X045874Y023901D01*
X045874Y023901D01*
X045873Y023901D01*
X045872Y0239D01*
X045871Y0239D01*
X045869Y023899D01*
X045867Y023898D01*
X045865Y023898D01*
X045863Y023897D01*
X045861Y023896D01*
X045856Y023895D01*
X04585Y023894D01*
X045844Y023894D01*
X045842D01*
X045841Y023894D01*
X045839Y023894D01*
X045837Y023894D01*
X045835Y023895D01*
X045833Y023895D01*
X045828Y023896D01*
X045823Y023898D01*
X04582Y023899D01*
X045817Y0239D01*
X045815Y023902D01*
X045812Y023904D01*
X045812Y023904D01*
X045812Y023904D01*
X045811Y023904D01*
X04581Y023905D01*
X045809Y023906D01*
X045808Y023908D01*
X045806Y023909D01*
X045805Y02391D01*
X045804Y023912D01*
X045802Y023914D01*
X0458Y023917D01*
X045799Y023919D01*
X045798Y023922D01*
X045796Y023924D01*
X045795Y023927D01*
X045794Y023931D01*
X04581Y023935D01*
Y023934D01*
X045811Y023934D01*
X045811Y023933D01*
X045811Y023932D01*
X045812Y023931D01*
X045812Y02393D01*
X045814Y023927D01*
X045816Y023924D01*
X045818Y02392D01*
X04582Y023917D01*
X045823Y023914D01*
X045824Y023914D01*
X045825Y023913D01*
X045827Y023912D01*
X045829Y023911D01*
X045832Y02391D01*
X045836Y023909D01*
X04584Y023908D01*
X045844Y023908D01*
X045846D01*
X045847Y023908D01*
X045848D01*
X045849Y023908D01*
X045853Y023909D01*
X045857Y02391D01*
X045861Y023911D01*
X045865Y023913D01*
X045869Y023915D01*
X045869D01*
X045869Y023916D01*
X04587Y023916D01*
X045872Y023918D01*
X045874Y02392D01*
X045876Y023923D01*
X045879Y023926D01*
X045881Y02393D01*
X045882Y023934D01*
Y023934D01*
X045883Y023935D01*
X045883Y023935D01*
X045883Y023936D01*
X045883Y023937D01*
X045884Y023938D01*
X045884Y023941D01*
X045885Y023945D01*
X045886Y023949D01*
X045886Y023953D01*
X045886Y023958D01*
Y023958D01*
Y023959D01*
Y02396D01*
Y023961D01*
X045886Y023962D01*
Y023964D01*
X045886Y023966D01*
X045886Y023968D01*
X045885Y023972D01*
X045884Y023977D01*
X045883Y023981D01*
X045882Y023986D01*
Y023986D01*
X045881Y023987D01*
X045881Y023987D01*
X045881Y023988D01*
X04588Y02399D01*
X045878Y023993D01*
X045876Y023996D01*
X045873Y023999D01*
X045871Y024002D01*
X045867Y024004D01*
X045867D01*
X045867Y024004D01*
X045866Y024005D01*
X045865Y024005D01*
X045864Y024005D01*
X045863Y024006D01*
X045861Y024007D01*
X045857Y024008D01*
X045854Y024009D01*
X04585Y02401D01*
X045846Y02401D01*
X045844D01*
X045843Y02401D01*
X045842D01*
X045841Y02401D01*
X045837Y024009D01*
X045834Y024008D01*
X04583Y024007D01*
X045826Y024005D01*
X045824Y024003D01*
X045822Y024002D01*
X045822Y024002D01*
X045822Y024002D01*
X045821Y024001D01*
X04582Y024001D01*
X04582Y024D01*
X045819Y023999D01*
X045818Y023997D01*
X045817Y023996D01*
X045816Y023994D01*
X045814Y023993D01*
X045813Y023991D01*
X045812Y023989D01*
X045811Y023986D01*
X04581Y023984D01*
X045809Y023981D01*
X045809Y023978D01*
X045792Y023982D01*
Y023982D01*
X045792Y023983D01*
X045792Y023984D01*
X045793Y023986D01*
X045794Y023987D01*
X045794Y023989D01*
X045795Y023991D01*
X045796Y023994D01*
X045799Y023999D01*
X045802Y024004D01*
X045804Y024007D01*
X045806Y024009D01*
X045808Y024011D01*
X045811Y024013D01*
X045811Y024014D01*
X045811Y024014D01*
X045812Y024014D01*
X045813Y024015D01*
X045815Y024016D01*
X045816Y024017D01*
X045818Y024018D01*
X04582Y024019D01*
X045823Y02402D01*
X045825Y024021D01*
X045828Y024022D01*
X045831Y024023D01*
X045834Y024023D01*
X045837Y024024D01*
X045841Y024024D01*
X045844Y024024D01*
X045846D01*
X045848Y024024D01*
D02*
G37*
G36*
X046122Y024022D02*
Y024021D01*
Y02402D01*
X046122Y024019D01*
X046122Y024017D01*
X046122Y024015D01*
X046121Y024013D01*
X04612Y024011D01*
Y024011D01*
X04612Y024011D01*
X04612Y02401D01*
X046119Y024008D01*
X046118Y024006D01*
X046117Y024003D01*
X046115Y024001D01*
X046113Y023998D01*
X04611Y023995D01*
Y023994D01*
X04611Y023994D01*
X046109Y023993D01*
X046107Y023991D01*
X046105Y023989D01*
X046102Y023986D01*
X046099Y023983D01*
X046095Y023979D01*
X04609Y023976D01*
X04609Y023975D01*
X046089Y023975D01*
X046088Y023974D01*
X046087Y023973D01*
X046085Y023971D01*
X046083Y02397D01*
X046081Y023968D01*
X046079Y023966D01*
X046074Y023962D01*
X04607Y023957D01*
X046067Y023955D01*
X046065Y023953D01*
X046064Y023951D01*
X046062Y023949D01*
Y023949D01*
X046062Y023949D01*
X046061Y023948D01*
X046061Y023947D01*
X04606Y023945D01*
X046058Y023943D01*
X046057Y02394D01*
X046056Y023937D01*
X046055Y023933D01*
X046055Y02393D01*
Y02393D01*
Y02393D01*
X046055Y023929D01*
X046055Y023927D01*
X046056Y023925D01*
X046056Y023922D01*
X046058Y02392D01*
X046059Y023917D01*
X046061Y023915D01*
X046062Y023914D01*
X046063Y023914D01*
X046064Y023913D01*
X046066Y023911D01*
X046069Y02391D01*
X046071Y023909D01*
X046075Y023908D01*
X046079Y023908D01*
X04608D01*
X046081Y023908D01*
X046083Y023909D01*
X046085Y023909D01*
X046088Y02391D01*
X046091Y023911D01*
X046094Y023913D01*
X046097Y023915D01*
X046097Y023915D01*
X046098Y023916D01*
X046099Y023918D01*
X0461Y02392D01*
X046101Y023922D01*
X046102Y023926D01*
X046103Y023929D01*
X046104Y023934D01*
X046119Y023932D01*
Y023932D01*
X046119Y023931D01*
Y02393D01*
X046119Y023929D01*
X046119Y023928D01*
X046118Y023926D01*
X046118Y023924D01*
X046117Y023922D01*
X046116Y023918D01*
X046114Y023913D01*
X046112Y023911D01*
X046111Y023909D01*
X046109Y023907D01*
X046107Y023905D01*
X046107Y023905D01*
X046107Y023905D01*
X046106Y023904D01*
X046105Y023904D01*
X046104Y023903D01*
X046103Y023902D01*
X046101Y023901D01*
X0461Y0239D01*
X046098Y023899D01*
X046095Y023898D01*
X046093Y023898D01*
X04609Y023897D01*
X046088Y023896D01*
X046085Y023896D01*
X046082Y023896D01*
X046078Y023896D01*
X046077D01*
X046075Y023896D01*
X046074Y023896D01*
X046072Y023896D01*
X04607Y023896D01*
X046068Y023897D01*
X046063Y023898D01*
X046059Y0239D01*
X046056Y023901D01*
X046054Y023902D01*
X046052Y023904D01*
X04605Y023906D01*
X046049Y023906D01*
X046049Y023906D01*
X046049Y023907D01*
X046048Y023908D01*
X046047Y023908D01*
X046046Y02391D01*
X046045Y023911D01*
X046044Y023913D01*
X046042Y023916D01*
X046041Y02392D01*
X04604Y023923D01*
X046039Y023925D01*
X046039Y023928D01*
X046039Y02393D01*
Y023931D01*
Y023932D01*
X046039Y023933D01*
X046039Y023935D01*
X04604Y023937D01*
X04604Y02394D01*
X046041Y023943D01*
X046042Y023945D01*
X046042Y023946D01*
X046043Y023947D01*
X046043Y023948D01*
X046045Y02395D01*
X046046Y023952D01*
X046048Y023955D01*
X04605Y023958D01*
X046053Y023961D01*
X046053Y023961D01*
X046054Y023962D01*
X046055Y023963D01*
X046056Y023964D01*
X046057Y023965D01*
X046058Y023967D01*
X04606Y023968D01*
X046061Y02397D01*
X046063Y023972D01*
X046065Y023974D01*
X046068Y023976D01*
X04607Y023978D01*
X046073Y02398D01*
X046076Y023983D01*
X046076Y023983D01*
X046077Y023983D01*
X046077Y023984D01*
X046078Y023985D01*
X046079Y023986D01*
X046081Y023987D01*
X046084Y023989D01*
X046087Y023992D01*
X04609Y023995D01*
X046092Y023997D01*
X046093Y023998D01*
X046094Y023999D01*
X046094Y023999D01*
X046095Y024D01*
X046096Y024D01*
X046097Y024001D01*
X046098Y024003D01*
X046099Y024004D01*
X046101Y024007D01*
X046039D01*
Y024022D01*
X046122D01*
Y024022D01*
D02*
G37*
G36*
X045735Y023924D02*
X045735Y023924D01*
X045736Y023924D01*
X045737Y023926D01*
X045739Y023927D01*
X045741Y023928D01*
X045744Y02393D01*
X045746Y023932D01*
X04575Y023934D01*
X04575D01*
X04575Y023935D01*
X045751Y023935D01*
X045753Y023936D01*
X045755Y023937D01*
X045758Y023939D01*
X04576Y02394D01*
X045763Y023941D01*
X045766Y023942D01*
Y023927D01*
X045766D01*
X045765Y023927D01*
X045765Y023927D01*
X045764Y023926D01*
X045763Y023926D01*
X045761Y023925D01*
X045758Y023923D01*
X045755Y023921D01*
X045751Y023918D01*
X045747Y023916D01*
X045743Y023912D01*
X045743Y023912D01*
X045743Y023912D01*
X045742Y023912D01*
X045742Y023911D01*
X04574Y023909D01*
X045738Y023907D01*
X045736Y023904D01*
X045733Y023902D01*
X045731Y023899D01*
X045729Y023896D01*
X045719D01*
Y024022D01*
X045735D01*
Y023924D01*
D02*
G37*
G36*
X045642Y024024D02*
X045643Y024024D01*
X045645Y024024D01*
X045647Y024023D01*
X045649Y024023D01*
X045654Y024021D01*
X045657Y024021D01*
X045659Y02402D01*
X045662Y024018D01*
X045664Y024017D01*
X045667Y024015D01*
X045669Y024013D01*
X045669Y024013D01*
X045669Y024013D01*
X04567Y024012D01*
X045671Y024011D01*
X045671Y02401D01*
X045672Y024009D01*
X045673Y024007D01*
X045674Y024006D01*
X045675Y024004D01*
X045676Y024002D01*
X045678Y023997D01*
X045679Y023994D01*
X045679Y023992D01*
X04568Y023989D01*
X04568Y023986D01*
Y023986D01*
Y023985D01*
Y023985D01*
X04568Y023984D01*
Y023983D01*
X04568Y023981D01*
X045679Y023979D01*
X045679Y023975D01*
X045677Y023972D01*
X045676Y023969D01*
X045674Y023965D01*
Y023965D01*
X045673Y023965D01*
X045673Y023964D01*
X045671Y023963D01*
X045669Y023961D01*
X045667Y023959D01*
X045664Y023957D01*
X04566Y023955D01*
X045656Y023954D01*
X045656D01*
X045656Y023954D01*
X045657Y023954D01*
X045658Y023953D01*
X045659Y023953D01*
X045661Y023951D01*
X045664Y02395D01*
X045666Y023948D01*
X045668Y023946D01*
X04567Y023944D01*
X045671Y023944D01*
X045671Y023943D01*
X045672Y023941D01*
X045673Y02394D01*
X045673Y023937D01*
X045674Y023935D01*
X045675Y023931D01*
X045675Y023928D01*
Y023928D01*
Y023928D01*
Y023927D01*
X045675Y023926D01*
X045675Y023925D01*
X045674Y023923D01*
X045674Y02392D01*
X045673Y023916D01*
X045671Y023913D01*
X04567Y023911D01*
X045668Y023909D01*
X045667Y023907D01*
X045665Y023905D01*
X045665Y023905D01*
X045665Y023905D01*
X045664Y023904D01*
X045663Y023904D01*
X045662Y023903D01*
X045661Y023902D01*
X04566Y023901D01*
X045658Y0239D01*
X045656Y023899D01*
X045654Y023898D01*
X045652Y023898D01*
X04565Y023897D01*
X045645Y023896D01*
X045642Y023896D01*
X045639Y023896D01*
X045637D01*
X045636Y023896D01*
X045635Y023896D01*
X045633Y023896D01*
X045631Y023896D01*
X045629Y023897D01*
X045625Y023898D01*
X045621Y0239D01*
X045618Y023901D01*
X045616Y023902D01*
X045614Y023904D01*
X045612Y023905D01*
X045612Y023905D01*
X045612Y023906D01*
X045611Y023906D01*
X045611Y023907D01*
X04561Y023908D01*
X045609Y023909D01*
X045607Y023912D01*
X045605Y023915D01*
X045604Y023919D01*
X045602Y023924D01*
X045602Y023926D01*
X045602Y023929D01*
Y023929D01*
Y023929D01*
Y02393D01*
X045602Y023932D01*
X045603Y023934D01*
X045603Y023936D01*
X045604Y023939D01*
X045605Y023941D01*
X045607Y023944D01*
X045607Y023944D01*
X045608Y023945D01*
X045609Y023946D01*
X04561Y023948D01*
X045612Y023949D01*
X045615Y023951D01*
X045617Y023953D01*
X045621Y023954D01*
X04562D01*
X04562Y023954D01*
X04562Y023954D01*
X045619Y023955D01*
X045617Y023956D01*
X045614Y023957D01*
X045611Y023959D01*
X045608Y023961D01*
X045606Y023963D01*
X045603Y023966D01*
Y023966D01*
X045603Y023967D01*
X045602Y023968D01*
X045601Y023969D01*
X0456Y023972D01*
X045599Y023975D01*
X045598Y023978D01*
X045597Y023982D01*
X045597Y023986D01*
Y023986D01*
Y023987D01*
Y023988D01*
X045597Y023989D01*
X045597Y02399D01*
X045598Y023992D01*
X045598Y023994D01*
X045598Y023996D01*
X0456Y024D01*
X045601Y024002D01*
X045602Y024004D01*
X045603Y024007D01*
X045605Y024009D01*
X045606Y024011D01*
X045608Y024013D01*
X045609Y024013D01*
X045609Y024014D01*
X04561Y024014D01*
X04561Y024015D01*
X045612Y024016D01*
X045613Y024017D01*
X045615Y024018D01*
X045616Y024019D01*
X045618Y02402D01*
X045621Y024021D01*
X045623Y024022D01*
X045626Y024023D01*
X045629Y024023D01*
X045632Y024024D01*
X045635Y024024D01*
X045638Y024024D01*
X04564D01*
X045642Y024024D01*
D02*
G37*
G36*
X045539Y023924D02*
X045539Y023924D01*
X04554Y023924D01*
X045541Y023926D01*
X045543Y023927D01*
X045545Y023928D01*
X045548Y02393D01*
X045551Y023932D01*
X045554Y023934D01*
X045554D01*
X045554Y023935D01*
X045555Y023935D01*
X045557Y023936D01*
X045559Y023937D01*
X045562Y023939D01*
X045565Y02394D01*
X045567Y023941D01*
X04557Y023942D01*
Y023927D01*
X04557D01*
X04557Y023927D01*
X045569Y023927D01*
X045568Y023926D01*
X045567Y023926D01*
X045566Y023925D01*
X045562Y023923D01*
X045559Y023921D01*
X045555Y023918D01*
X045551Y023916D01*
X045547Y023912D01*
X045547Y023912D01*
X045547Y023912D01*
X045547Y023912D01*
X045546Y023911D01*
X045544Y023909D01*
X045542Y023907D01*
X04554Y023904D01*
X045537Y023902D01*
X045535Y023899D01*
X045534Y023896D01*
X045524D01*
Y024022D01*
X045539D01*
Y023924D01*
D02*
G37*
G36*
X040499Y023757D02*
X0405Y023757D01*
X040502Y023756D01*
X040504Y023756D01*
X040506Y023756D01*
X04051Y023755D01*
X040514Y023753D01*
X040517Y023752D01*
X040519Y02375D01*
X040521Y023749D01*
X040523Y023747D01*
X040524Y023747D01*
X040524Y023747D01*
X040524Y023746D01*
X040525Y023745D01*
X040526Y023744D01*
X040527Y023743D01*
X040528Y023742D01*
X040529Y02374D01*
X04053Y023738D01*
X040531Y023737D01*
X040533Y023732D01*
X040535Y023727D01*
X040535Y023724D01*
X040536Y023721D01*
X04052Y023719D01*
Y02372D01*
X04052Y02372D01*
X04052Y023721D01*
X04052Y023722D01*
X04052Y023723D01*
X040519Y023724D01*
X040518Y023727D01*
X040517Y02373D01*
X040515Y023733D01*
X040514Y023736D01*
X040511Y023739D01*
X040511Y023739D01*
X04051Y023739D01*
X040509Y02374D01*
X040507Y023741D01*
X040505Y023742D01*
X040502Y023743D01*
X040499Y023744D01*
X040496Y023744D01*
X040495D01*
X040494Y023744D01*
X040492Y023744D01*
X040489Y023743D01*
X040486Y023742D01*
X040483Y023741D01*
X04048Y023739D01*
X040477Y023737D01*
X040477Y023736D01*
X040476Y023735D01*
X040475Y023734D01*
X040474Y023731D01*
X040472Y023729D01*
X040471Y023726D01*
X04047Y023722D01*
X04047Y023718D01*
Y023718D01*
Y023717D01*
Y023717D01*
X04047Y023716D01*
X04047Y023714D01*
X040471Y023712D01*
X040471Y023709D01*
X040473Y023706D01*
X040474Y023703D01*
X040477Y0237D01*
X040477Y0237D01*
X040478Y023699D01*
X04048Y023698D01*
X040482Y023697D01*
X040484Y023696D01*
X040487Y023694D01*
X040491Y023694D01*
X040494Y023693D01*
X040496D01*
X040497Y023694D01*
X040499Y023694D01*
X040501Y023694D01*
X040503Y023694D01*
X040505Y023695D01*
X040504Y023681D01*
X040503D01*
X040502Y023682D01*
X0405D01*
X040498Y023681D01*
X040495Y023681D01*
X040492Y02368D01*
X040489Y023679D01*
X040486Y023678D01*
X040483Y023676D01*
X040483D01*
X040483Y023676D01*
X040482Y023676D01*
X040481Y023674D01*
X040479Y023673D01*
X040478Y02367D01*
X040477Y023668D01*
X040476Y023664D01*
X040475Y023663D01*
Y023661D01*
Y02366D01*
Y02366D01*
Y023659D01*
X040476Y023658D01*
X040476Y023656D01*
X040477Y023654D01*
X040478Y023651D01*
X040479Y023649D01*
X040481Y023647D01*
X040481Y023646D01*
X040482Y023646D01*
X040484Y023645D01*
X040485Y023644D01*
X040487Y023643D01*
X04049Y023642D01*
X040493Y023641D01*
X040496Y023641D01*
X040498D01*
X040499Y023641D01*
X040501Y023642D01*
X040504Y023642D01*
X040506Y023643D01*
X040509Y023645D01*
X040511Y023647D01*
X040511Y023647D01*
X040512Y023648D01*
X040513Y023649D01*
X040514Y023651D01*
X040516Y023653D01*
X040517Y023656D01*
X040518Y02366D01*
X040519Y023664D01*
X040534Y023661D01*
Y023661D01*
X040534Y02366D01*
X040534Y023659D01*
X040534Y023658D01*
X040533Y023657D01*
X040533Y023656D01*
X040532Y023652D01*
X04053Y023648D01*
X040528Y023644D01*
X040525Y02364D01*
X040521Y023637D01*
X040521Y023637D01*
X040521Y023636D01*
X04052Y023636D01*
X04052Y023636D01*
X040519Y023635D01*
X040517Y023634D01*
X040516Y023633D01*
X040514Y023632D01*
X040511Y023631D01*
X040507Y02363D01*
X040502Y023629D01*
X040499Y023628D01*
X040495D01*
X040493Y023628D01*
X04049Y023629D01*
X040487Y023629D01*
X040484Y02363D01*
X040481Y023631D01*
X040478Y023633D01*
X040477D01*
X040477Y023633D01*
X040476Y023634D01*
X040474Y023635D01*
X040473Y023636D01*
X04047Y023638D01*
X040468Y02364D01*
X040466Y023642D01*
X040464Y023645D01*
X040464Y023645D01*
X040464Y023646D01*
X040463Y023648D01*
X040462Y02365D01*
X040461Y023652D01*
X04046Y023655D01*
X04046Y023658D01*
X040459Y023661D01*
Y023661D01*
Y023662D01*
X04046Y023664D01*
X04046Y023666D01*
X040461Y023668D01*
X040462Y023671D01*
X040463Y023673D01*
X040464Y023676D01*
X040464Y023676D01*
X040465Y023677D01*
X040466Y023678D01*
X040467Y02368D01*
X040469Y023681D01*
X040471Y023683D01*
X040474Y023685D01*
X040477Y023686D01*
X040477D01*
X040476Y023687D01*
X040476Y023687D01*
X040475Y023687D01*
X040473Y023688D01*
X040471Y023689D01*
X040468Y02369D01*
X040465Y023692D01*
X040462Y023694D01*
X040459Y023697D01*
X040459Y023698D01*
X040459Y023699D01*
X040458Y0237D01*
X040456Y023703D01*
X040455Y023706D01*
X040454Y023709D01*
X040453Y023713D01*
X040453Y023718D01*
Y023718D01*
Y023718D01*
Y023719D01*
X040453Y02372D01*
X040454Y023722D01*
X040454Y023723D01*
X040454Y023725D01*
X040455Y023727D01*
X040456Y023732D01*
X040457Y023734D01*
X040458Y023736D01*
X04046Y023739D01*
X040462Y023741D01*
X040463Y023743D01*
X040466Y023745D01*
X040466Y023746D01*
X040466Y023746D01*
X040467Y023747D01*
X040468Y023747D01*
X040469Y023748D01*
X04047Y023749D01*
X040472Y02375D01*
X040474Y023751D01*
X040476Y023752D01*
X040478Y023753D01*
X040481Y023754D01*
X040483Y023755D01*
X040486Y023756D01*
X040489Y023756D01*
X040492Y023757D01*
X040496Y023757D01*
X040498D01*
X040499Y023757D01*
D02*
G37*
G36*
X040555Y023764D02*
X040556Y023764D01*
X040557Y023764D01*
X040558Y023763D01*
X04056Y023762D01*
X040561Y023762D01*
X040563Y023761D01*
X040567Y023759D01*
X040572Y023756D01*
X040577Y023753D01*
X040582Y023749D01*
X040582D01*
X040582Y023749D01*
X040583Y02375D01*
X040584Y02375D01*
X040585Y023751D01*
X040587Y023752D01*
X040589Y023752D01*
X040591Y023753D01*
X040593Y023754D01*
X040595Y023754D01*
X040601Y023756D01*
X040606Y023757D01*
X040609Y023757D01*
X040613Y023757D01*
X040614D01*
X040615Y023757D01*
X040617D01*
X040619Y023757D01*
X040621Y023756D01*
X040623Y023756D01*
X040628Y023755D01*
X040633Y023753D01*
X040638Y023751D01*
X040641Y02375D01*
X040644Y023749D01*
X040644Y023749D01*
X040644Y023748D01*
X040645Y023748D01*
X040646Y023747D01*
X040647Y023746D01*
X040648Y023745D01*
X040652Y023743D01*
X040655Y023739D01*
X040658Y023735D01*
X040662Y023731D01*
X040665Y023726D01*
Y023725D01*
X040665Y023725D01*
X040666Y023724D01*
X040666Y023723D01*
X040667Y023722D01*
X040667Y02372D01*
X040668Y023718D01*
X040669Y023716D01*
X040669Y023713D01*
X04067Y023711D01*
X040671Y023708D01*
X040671Y023705D01*
X040672Y023699D01*
X040672Y023692D01*
Y023692D01*
Y023691D01*
Y02369D01*
X040672Y023689D01*
Y023687D01*
X040672Y023685D01*
X040672Y023683D01*
X040672Y023681D01*
X040671Y023675D01*
X040669Y02367D01*
X040668Y023664D01*
X040665Y023658D01*
X040665Y023658D01*
X040665Y023657D01*
X040664Y023656D01*
X040664Y023655D01*
X040663Y023654D01*
X040662Y023653D01*
X040659Y023649D01*
X040656Y023646D01*
X040653Y023642D01*
X040648Y023638D01*
X040644Y023635D01*
X040643Y023634D01*
X040643Y023634D01*
X040642Y023634D01*
X040641Y023633D01*
X04064Y023633D01*
X040638Y023632D01*
X040636Y023631D01*
X040634Y023631D01*
X040632Y02363D01*
X04063Y023629D01*
X040624Y023628D01*
X040619Y023627D01*
X040615Y023627D01*
X040611D01*
X040609Y023627D01*
X040608D01*
X040606Y023627D01*
X040604Y023627D01*
X040602Y023628D01*
X040597Y023629D01*
X040591Y02363D01*
X040586Y023632D01*
X040583Y023634D01*
X040581Y023635D01*
X040581Y023635D01*
X04058Y023635D01*
X040579Y023636D01*
X040578Y023636D01*
X040577Y023637D01*
X040576Y023638D01*
X040573Y023641D01*
X040569Y023644D01*
X040566Y023648D01*
X040562Y023653D01*
X040559Y023658D01*
Y023658D01*
X040559Y023659D01*
X040559Y02366D01*
X040558Y023661D01*
X040558Y023662D01*
X040557Y023664D01*
X040556Y023666D01*
X040556Y023668D01*
X040555Y02367D01*
X040554Y023673D01*
X040554Y023676D01*
X040553Y023679D01*
X040552Y023685D01*
X040552Y023692D01*
Y023692D01*
Y023692D01*
Y023693D01*
Y023694D01*
X040552Y023696D01*
Y023697D01*
X040552Y023699D01*
X040553Y023701D01*
X040553Y023705D01*
X040554Y02371D01*
X040555Y023715D01*
X040557Y02372D01*
Y02372D01*
X040557Y02372D01*
X040557Y023721D01*
X040558Y023722D01*
X040558Y023723D01*
X040559Y023724D01*
X04056Y023727D01*
X040562Y023731D01*
X040565Y023734D01*
X040568Y023738D01*
X040571Y023741D01*
X040571D01*
X04057Y023742D01*
X04057Y023742D01*
X040569Y023743D01*
X040568Y023743D01*
X040567Y023744D01*
X040564Y023746D01*
X040561Y023748D01*
X040557Y02375D01*
X040553Y023751D01*
X04055Y023753D01*
X040554Y023765D01*
X040555D01*
X040555Y023764D01*
D02*
G37*
G36*
X039996Y023924D02*
X039998Y023924D01*
X04Y023924D01*
X040002Y023923D01*
X040004Y023923D01*
X040008Y023922D01*
X040013Y02392D01*
X040015Y023919D01*
X040017Y023918D01*
X04002Y023916D01*
X040022Y023915D01*
X040022Y023915D01*
X040022Y023914D01*
X040023Y023914D01*
X040023Y023913D01*
X040024Y023912D01*
X040025Y023911D01*
X040026Y023909D01*
X040027Y023908D01*
X040028Y023906D01*
X040029Y023904D01*
X040031Y0239D01*
X040033Y023895D01*
X040034Y023892D01*
X040034Y023889D01*
X040018Y023888D01*
Y023888D01*
Y023888D01*
X040018Y023889D01*
X040017Y02389D01*
X040017Y023892D01*
X040016Y023895D01*
X040015Y023897D01*
X040014Y0239D01*
X040012Y023903D01*
X04001Y023906D01*
X040009Y023906D01*
X040009Y023907D01*
X040007Y023907D01*
X040005Y023909D01*
X040003Y02391D01*
X04Y023911D01*
X039997Y023911D01*
X039994Y023911D01*
X039992D01*
X039992Y023911D01*
X03999Y023911D01*
X039987Y02391D01*
X039984Y023909D01*
X039981Y023908D01*
X039978Y023906D01*
X039976Y023905D01*
X039975Y023903D01*
X039974Y023903D01*
X039974Y023903D01*
X039974Y023902D01*
X039973Y023902D01*
X039972Y0239D01*
X039971Y023897D01*
X039969Y023894D01*
X039968Y02389D01*
X039967Y023886D01*
X039967Y023883D01*
Y023881D01*
Y023881D01*
Y02388D01*
Y023879D01*
X039967Y023879D01*
Y023877D01*
X039967Y023876D01*
X039968Y023873D01*
X039969Y02387D01*
X03997Y023866D01*
X039972Y023863D01*
X039974Y02386D01*
Y02386D01*
X039975Y02386D01*
X039976Y023859D01*
X039977Y023857D01*
X039979Y023856D01*
X039982Y023855D01*
X039986Y023853D01*
X039989Y023853D01*
X039992Y023852D01*
X039995D01*
X039996Y023852D01*
X039998Y023853D01*
X040001Y023853D01*
X040003Y023854D01*
X040005Y023855D01*
X040007Y023856D01*
X040008Y023856D01*
X040008Y023856D01*
X040009Y023857D01*
X040011Y023858D01*
X040012Y023859D01*
X040014Y023861D01*
X040015Y023863D01*
X040017Y023865D01*
X040031Y023863D01*
X040019Y023798D01*
X039956D01*
Y023812D01*
X040007D01*
X040014Y023847D01*
X040013Y023846D01*
X040013Y023846D01*
X040013Y023846D01*
X040012Y023845D01*
X040011Y023845D01*
X040009Y023844D01*
X040006Y023843D01*
X040003Y023841D01*
X039999Y02384D01*
X039994Y023839D01*
X039992Y023839D01*
X039988D01*
X039987Y023839D01*
X039986Y023839D01*
X039984Y023839D01*
X039982Y023839D01*
X03998Y02384D01*
X039976Y023841D01*
X039973Y023842D01*
X039971Y023843D01*
X039969Y023845D01*
X039966Y023846D01*
X039964Y023848D01*
X039962Y02385D01*
X039962Y02385D01*
X039961Y023851D01*
X039961Y023851D01*
X03996Y023852D01*
X039959Y023853D01*
X039958Y023855D01*
X039957Y023856D01*
X039956Y023858D01*
X039955Y02386D01*
X039954Y023862D01*
X039953Y023865D01*
X039952Y023867D01*
X039952Y02387D01*
X039951Y023873D01*
X039951Y023876D01*
X03995Y023879D01*
Y02388D01*
Y02388D01*
Y023881D01*
X039951Y023882D01*
X039951Y023884D01*
X039951Y023885D01*
X039951Y023887D01*
X039952Y023889D01*
X039953Y023894D01*
X039955Y023899D01*
X039956Y023902D01*
X039957Y023904D01*
X039959Y023907D01*
X03996Y023909D01*
X039961Y023909D01*
X039961Y02391D01*
X039962Y02391D01*
X039963Y023911D01*
X039964Y023912D01*
X039965Y023914D01*
X039967Y023915D01*
X039969Y023917D01*
X039971Y023918D01*
X039974Y023919D01*
X039977Y023921D01*
X03998Y023922D01*
X039983Y023923D01*
X039986Y023923D01*
X03999Y023924D01*
X039994Y023924D01*
X039995D01*
X039996Y023924D01*
D02*
G37*
G36*
X040522D02*
X040524D01*
X040526Y023924D01*
X040528Y023924D01*
X040532Y023923D01*
X040537Y023922D01*
X040542Y023921D01*
X040546Y023919D01*
X040547D01*
X040547Y023919D01*
X040548Y023919D01*
X040548Y023918D01*
X04055Y023917D01*
X040553Y023916D01*
X040556Y023913D01*
X040559Y023911D01*
X040562Y023908D01*
X040565Y023904D01*
Y023904D01*
X040565Y023904D01*
X040565Y023903D01*
X040566Y023903D01*
X040566Y023902D01*
X040567Y023901D01*
X040568Y023898D01*
X040569Y023894D01*
X04057Y023891D01*
X040571Y023886D01*
X040571Y023882D01*
X040556Y02388D01*
Y02388D01*
Y023881D01*
X040556Y023881D01*
Y023882D01*
X040555Y023883D01*
X040555Y023886D01*
X040554Y023888D01*
X040553Y023891D01*
X040552Y023893D01*
X040551Y023896D01*
X04055Y023896D01*
X04055Y023897D01*
X040549Y023898D01*
X040548Y023899D01*
X040546Y023901D01*
X040544Y023903D01*
X040541Y023904D01*
X040538Y023906D01*
X040538D01*
X040538Y023906D01*
X040537Y023906D01*
X040537Y023906D01*
X040535Y023907D01*
X040532Y023907D01*
X04053Y023908D01*
X040526Y023909D01*
X040523Y023909D01*
X040519Y023909D01*
X040517D01*
X040515Y023909D01*
X040513Y023909D01*
X04051Y023909D01*
X040508Y023908D01*
X040505Y023907D01*
X040502Y023907D01*
X040502Y023906D01*
X040501Y023906D01*
X040499Y023905D01*
X040498Y023905D01*
X040496Y023903D01*
X040494Y023902D01*
X040492Y023901D01*
X040491Y023899D01*
X040491Y023899D01*
X04049Y023898D01*
X04049Y023897D01*
X040489Y023895D01*
X040488Y023894D01*
X040488Y023892D01*
X040488Y02389D01*
X040487Y023888D01*
Y023888D01*
Y023887D01*
X040488Y023886D01*
X040488Y023884D01*
X040488Y023883D01*
X040489Y023881D01*
X04049Y023879D01*
X040491Y023878D01*
X040491Y023877D01*
X040492Y023877D01*
X040492Y023876D01*
X040494Y023875D01*
X040495Y023874D01*
X040497Y023873D01*
X0405Y023871D01*
X040502Y02387D01*
X040502Y02387D01*
X040503Y02387D01*
X040505Y023869D01*
X040506Y023869D01*
X040507Y023869D01*
X040508Y023868D01*
X04051Y023868D01*
X040512Y023867D01*
X040514Y023867D01*
X040516Y023866D01*
X040519Y023866D01*
X040522Y023865D01*
X040525Y023864D01*
X040525D01*
X040525Y023864D01*
X040526Y023864D01*
X040527Y023863D01*
X040529Y023863D01*
X04053Y023863D01*
X040534Y023862D01*
X040538Y02386D01*
X040542Y023859D01*
X040546Y023858D01*
X040548Y023857D01*
X040549Y023856D01*
X040549D01*
X040549Y023856D01*
X04055Y023855D01*
X040552Y023855D01*
X040554Y023853D01*
X040556Y023851D01*
X040558Y023849D01*
X040561Y023847D01*
X040562Y023845D01*
X040563Y023844D01*
X040563Y023843D01*
X040564Y023842D01*
X040565Y02384D01*
X040565Y023838D01*
X040566Y023835D01*
X040567Y023832D01*
X040567Y023829D01*
Y023829D01*
Y023828D01*
Y023828D01*
Y023827D01*
X040566Y023825D01*
X040566Y023823D01*
X040565Y02382D01*
X040565Y023817D01*
X040563Y023814D01*
X040561Y023811D01*
Y023811D01*
X040561Y023811D01*
X04056Y02381D01*
X040559Y023808D01*
X040557Y023806D01*
X040555Y023804D01*
X040553Y023802D01*
X040549Y0238D01*
X040546Y023798D01*
X040545D01*
X040545Y023798D01*
X040545Y023798D01*
X040544Y023798D01*
X040543Y023797D01*
X040542Y023797D01*
X040539Y023796D01*
X040535Y023795D01*
X040531Y023795D01*
X040527Y023794D01*
X040522Y023794D01*
X04052D01*
X040519Y023794D01*
X040518D01*
X040514Y023794D01*
X04051Y023795D01*
X040506Y023796D01*
X040502Y023797D01*
X040498Y023798D01*
X040498D01*
X040497Y023799D01*
X040497Y023799D01*
X040496Y023799D01*
X040494Y0238D01*
X040492Y023802D01*
X040489Y023804D01*
X040486Y023806D01*
X040484Y023809D01*
X040482Y023812D01*
Y023812D01*
X040481Y023812D01*
X040481Y023813D01*
X040481Y023813D01*
X04048Y023815D01*
X040479Y023818D01*
X040477Y02382D01*
X040476Y023824D01*
X040476Y023828D01*
X040475Y023832D01*
X040491Y023833D01*
Y023833D01*
Y023832D01*
X040491Y023832D01*
X040492Y023831D01*
X040492Y023829D01*
X040493Y023826D01*
X040494Y023823D01*
X040496Y02382D01*
X040498Y023818D01*
X0405Y023815D01*
X0405Y023815D01*
X040501Y023814D01*
X040503Y023813D01*
X040506Y023812D01*
X040509Y023811D01*
X040512Y02381D01*
X040517Y023809D01*
X040522Y023809D01*
X040524D01*
X040526Y023809D01*
X040527Y023809D01*
X04053Y02381D01*
X040534Y02381D01*
X040538Y023811D01*
X040541Y023813D01*
X040542Y023814D01*
X040544Y023814D01*
X040544Y023815D01*
X040545Y023815D01*
X040546Y023817D01*
X040547Y023818D01*
X040549Y02382D01*
X04055Y023822D01*
X04055Y023825D01*
X040551Y023828D01*
Y023828D01*
Y023829D01*
X04055Y02383D01*
X04055Y023832D01*
X04055Y023833D01*
X040549Y023835D01*
X040548Y023837D01*
X040546Y023839D01*
X040546Y023839D01*
X040545Y02384D01*
X040544Y02384D01*
X040543Y023841D01*
X040542Y023841D01*
X040541Y023842D01*
X040539Y023842D01*
X040538Y023843D01*
X040536Y023844D01*
X040533Y023845D01*
X040531Y023845D01*
X040528Y023846D01*
X040524Y023847D01*
X040521Y023848D01*
X040521D01*
X04052Y023848D01*
X040519Y023848D01*
X040518Y023849D01*
X040516Y023849D01*
X040514Y02385D01*
X040512Y02385D01*
X04051Y023851D01*
X040505Y023852D01*
X0405Y023853D01*
X040498Y023854D01*
X040496Y023855D01*
X040494Y023855D01*
X040493Y023856D01*
X040493D01*
X040492Y023856D01*
X040492Y023857D01*
X040491Y023857D01*
X040489Y023858D01*
X040487Y023859D01*
X040484Y023861D01*
X040481Y023864D01*
X040479Y023866D01*
X040477Y023869D01*
X040476Y023869D01*
X040476Y02387D01*
X040475Y023872D01*
X040474Y023874D01*
X040473Y023877D01*
X040472Y02388D01*
X040472Y023883D01*
X040471Y023887D01*
Y023887D01*
Y023887D01*
Y023888D01*
Y023888D01*
X040472Y02389D01*
X040472Y023893D01*
X040473Y023896D01*
X040474Y023899D01*
X040475Y023902D01*
X040477Y023906D01*
Y023906D01*
X040477Y023906D01*
X040478Y023907D01*
X04048Y023909D01*
X040481Y023911D01*
X040484Y023913D01*
X040487Y023915D01*
X04049Y023917D01*
X040494Y023919D01*
X040494D01*
X040494Y023919D01*
X040495Y02392D01*
X040496Y02392D01*
X040497Y02392D01*
X040498Y023921D01*
X040501Y023922D01*
X040504Y023923D01*
X040508Y023923D01*
X040513Y023924D01*
X040518Y023924D01*
X040521D01*
X040522Y023924D01*
D02*
G37*
G36*
X040398D02*
X040399D01*
X040401Y023924D01*
X040403Y023923D01*
X040406Y023923D01*
X040411Y023922D01*
X040417Y023921D01*
X040422Y023919D01*
X040425Y023918D01*
X040427Y023916D01*
X040427Y023916D01*
X040428Y023916D01*
X040429Y023915D01*
X040429Y023914D01*
X04043Y023914D01*
X040432Y023913D01*
X040433Y023911D01*
X040435Y02391D01*
X040436Y023908D01*
X040438Y023907D01*
X040441Y023902D01*
X040444Y023897D01*
X040447Y023892D01*
Y023892D01*
X040447Y023891D01*
X040447Y02389D01*
X040448Y023889D01*
X040448Y023888D01*
X040449Y023886D01*
X040449Y023884D01*
X04045Y023882D01*
X040451Y023879D01*
X040451Y023877D01*
X040452Y023871D01*
X040453Y023865D01*
X040453Y023858D01*
Y023858D01*
Y023857D01*
Y023856D01*
X040453Y023855D01*
Y023853D01*
X040453Y023851D01*
X040453Y023849D01*
X040452Y023847D01*
X040451Y023841D01*
X04045Y023835D01*
X040448Y02383D01*
X040446Y023824D01*
X040446Y023824D01*
X040445Y023823D01*
X040445Y023822D01*
X040444Y023822D01*
X040444Y02382D01*
X040443Y023819D01*
X04044Y023816D01*
X040437Y023812D01*
X040434Y023808D01*
X040429Y023805D01*
X040425Y023802D01*
X040424Y023801D01*
X040424Y023801D01*
X040423Y023801D01*
X040422Y0238D01*
X040421Y0238D01*
X040419Y023799D01*
X040417Y023798D01*
X040415Y023798D01*
X040413Y023797D01*
X040411Y023796D01*
X040406Y023795D01*
X0404Y023794D01*
X040394Y023794D01*
X040392D01*
X040391Y023794D01*
X040389Y023794D01*
X040387Y023794D01*
X040385Y023795D01*
X040383Y023795D01*
X040378Y023796D01*
X040373Y023798D01*
X04037Y023799D01*
X040367Y0238D01*
X040365Y023802D01*
X040362Y023804D01*
X040362Y023804D01*
X040362Y023804D01*
X040361Y023804D01*
X04036Y023805D01*
X040359Y023806D01*
X040358Y023808D01*
X040356Y023809D01*
X040355Y02381D01*
X040354Y023812D01*
X040352Y023814D01*
X04035Y023817D01*
X040349Y023819D01*
X040348Y023822D01*
X040346Y023824D01*
X040345Y023827D01*
X040344Y023831D01*
X04036Y023835D01*
Y023834D01*
X040361Y023834D01*
X040361Y023833D01*
X040361Y023832D01*
X040362Y023831D01*
X040362Y02383D01*
X040364Y023827D01*
X040366Y023824D01*
X040368Y02382D01*
X04037Y023817D01*
X040373Y023814D01*
X040374Y023814D01*
X040375Y023813D01*
X040377Y023812D01*
X040379Y023811D01*
X040382Y02381D01*
X040386Y023809D01*
X04039Y023808D01*
X040394Y023808D01*
X040396D01*
X040397Y023808D01*
X040398D01*
X040399Y023808D01*
X040403Y023809D01*
X040407Y02381D01*
X040411Y023811D01*
X040415Y023813D01*
X040419Y023815D01*
X040419D01*
X040419Y023816D01*
X04042Y023816D01*
X040422Y023818D01*
X040424Y02382D01*
X040426Y023823D01*
X040429Y023826D01*
X040431Y02383D01*
X040432Y023834D01*
Y023834D01*
X040433Y023835D01*
X040433Y023835D01*
X040433Y023836D01*
X040433Y023837D01*
X040434Y023838D01*
X040434Y023841D01*
X040435Y023845D01*
X040436Y023849D01*
X040436Y023853D01*
X040436Y023858D01*
Y023858D01*
Y023859D01*
Y02386D01*
Y023861D01*
X040436Y023862D01*
Y023864D01*
X040436Y023866D01*
X040436Y023868D01*
X040435Y023872D01*
X040434Y023877D01*
X040433Y023881D01*
X040432Y023886D01*
Y023886D01*
X040431Y023887D01*
X040431Y023887D01*
X040431Y023888D01*
X04043Y02389D01*
X040428Y023893D01*
X040426Y023896D01*
X040423Y023899D01*
X040421Y023902D01*
X040417Y023904D01*
X040417D01*
X040417Y023904D01*
X040416Y023905D01*
X040415Y023905D01*
X040414Y023905D01*
X040413Y023906D01*
X040411Y023907D01*
X040407Y023908D01*
X040404Y023909D01*
X0404Y02391D01*
X040396Y02391D01*
X040394D01*
X040393Y02391D01*
X040392D01*
X040391Y02391D01*
X040387Y023909D01*
X040384Y023908D01*
X04038Y023907D01*
X040376Y023905D01*
X040374Y023903D01*
X040372Y023902D01*
X040372Y023902D01*
X040372Y023902D01*
X040371Y023901D01*
X04037Y023901D01*
X04037Y0239D01*
X040369Y023899D01*
X040368Y023897D01*
X040367Y023896D01*
X040366Y023894D01*
X040364Y023893D01*
X040363Y023891D01*
X040362Y023889D01*
X040361Y023886D01*
X04036Y023884D01*
X040359Y023881D01*
X040359Y023878D01*
X040342Y023882D01*
Y023882D01*
X040342Y023883D01*
X040342Y023884D01*
X040343Y023886D01*
X040344Y023887D01*
X040344Y023889D01*
X040345Y023891D01*
X040346Y023894D01*
X040349Y023899D01*
X040352Y023904D01*
X040354Y023907D01*
X040356Y023909D01*
X040358Y023911D01*
X040361Y023913D01*
X040361Y023914D01*
X040361Y023914D01*
X040362Y023914D01*
X040363Y023915D01*
X040365Y023916D01*
X040366Y023917D01*
X040368Y023918D01*
X04037Y023919D01*
X040373Y02392D01*
X040375Y023921D01*
X040378Y023922D01*
X040381Y023923D01*
X040384Y023923D01*
X040387Y023924D01*
X040391Y023924D01*
X040394Y023924D01*
X040396D01*
X040398Y023924D01*
D02*
G37*
G36*
X040672Y023922D02*
Y023921D01*
Y02392D01*
X040672Y023919D01*
X040672Y023917D01*
X040672Y023915D01*
X040671Y023913D01*
X04067Y023911D01*
Y023911D01*
X04067Y023911D01*
X04067Y02391D01*
X040669Y023908D01*
X040668Y023906D01*
X040667Y023903D01*
X040665Y023901D01*
X040663Y023898D01*
X04066Y023895D01*
Y023894D01*
X04066Y023894D01*
X040659Y023893D01*
X040657Y023891D01*
X040655Y023889D01*
X040652Y023886D01*
X040649Y023883D01*
X040645Y023879D01*
X04064Y023876D01*
X04064Y023875D01*
X040639Y023875D01*
X040638Y023874D01*
X040637Y023873D01*
X040635Y023871D01*
X040633Y02387D01*
X040631Y023868D01*
X040629Y023866D01*
X040624Y023862D01*
X04062Y023857D01*
X040617Y023855D01*
X040615Y023853D01*
X040614Y023851D01*
X040612Y023849D01*
Y023849D01*
X040612Y023849D01*
X040611Y023848D01*
X040611Y023847D01*
X04061Y023845D01*
X040608Y023843D01*
X040607Y02384D01*
X040606Y023837D01*
X040605Y023833D01*
X040605Y02383D01*
Y02383D01*
Y02383D01*
X040605Y023829D01*
X040605Y023827D01*
X040606Y023825D01*
X040606Y023822D01*
X040608Y02382D01*
X040609Y023817D01*
X040611Y023815D01*
X040612Y023814D01*
X040613Y023814D01*
X040614Y023813D01*
X040616Y023811D01*
X040619Y02381D01*
X040621Y023809D01*
X040625Y023808D01*
X040629Y023808D01*
X04063D01*
X040631Y023808D01*
X040633Y023809D01*
X040635Y023809D01*
X040638Y02381D01*
X040641Y023811D01*
X040644Y023813D01*
X040647Y023815D01*
X040647Y023815D01*
X040648Y023816D01*
X040649Y023818D01*
X04065Y02382D01*
X040651Y023822D01*
X040652Y023826D01*
X040653Y023829D01*
X040654Y023834D01*
X040669Y023832D01*
Y023832D01*
X040669Y023831D01*
Y02383D01*
X040669Y023829D01*
X040669Y023828D01*
X040668Y023826D01*
X040668Y023824D01*
X040667Y023822D01*
X040666Y023818D01*
X040664Y023813D01*
X040662Y023811D01*
X040661Y023809D01*
X040659Y023807D01*
X040657Y023805D01*
X040657Y023805D01*
X040657Y023805D01*
X040656Y023804D01*
X040655Y023804D01*
X040654Y023803D01*
X040653Y023802D01*
X040651Y023801D01*
X04065Y0238D01*
X040648Y023799D01*
X040645Y023798D01*
X040643Y023798D01*
X04064Y023797D01*
X040638Y023796D01*
X040635Y023796D01*
X040632Y023796D01*
X040628Y023796D01*
X040627D01*
X040625Y023796D01*
X040624Y023796D01*
X040622Y023796D01*
X04062Y023796D01*
X040618Y023797D01*
X040613Y023798D01*
X040609Y0238D01*
X040606Y023801D01*
X040604Y023802D01*
X040602Y023804D01*
X0406Y023806D01*
X040599Y023806D01*
X040599Y023806D01*
X040599Y023807D01*
X040598Y023808D01*
X040597Y023808D01*
X040596Y02381D01*
X040595Y023811D01*
X040594Y023813D01*
X040592Y023816D01*
X040591Y02382D01*
X04059Y023823D01*
X040589Y023825D01*
X040589Y023828D01*
X040589Y02383D01*
Y023831D01*
Y023832D01*
X040589Y023833D01*
X040589Y023835D01*
X04059Y023837D01*
X04059Y02384D01*
X040591Y023843D01*
X040592Y023845D01*
X040592Y023846D01*
X040593Y023847D01*
X040593Y023848D01*
X040595Y02385D01*
X040596Y023852D01*
X040598Y023855D01*
X0406Y023858D01*
X040603Y023861D01*
X040603Y023861D01*
X040604Y023862D01*
X040605Y023863D01*
X040606Y023864D01*
X040607Y023865D01*
X040608Y023867D01*
X04061Y023868D01*
X040611Y02387D01*
X040613Y023872D01*
X040615Y023874D01*
X040618Y023876D01*
X04062Y023878D01*
X040623Y02388D01*
X040626Y023883D01*
X040626Y023883D01*
X040627Y023883D01*
X040627Y023884D01*
X040628Y023885D01*
X040629Y023886D01*
X040631Y023887D01*
X040634Y023889D01*
X040637Y023892D01*
X04064Y023895D01*
X040642Y023897D01*
X040643Y023898D01*
X040644Y023899D01*
X040644Y023899D01*
X040645Y0239D01*
X040646Y0239D01*
X040647Y023901D01*
X040648Y023903D01*
X040649Y023904D01*
X040651Y023907D01*
X040589D01*
Y023922D01*
X040672D01*
Y023922D01*
D02*
G37*
G36*
X040285Y023824D02*
X040285Y023824D01*
X040286Y023824D01*
X040287Y023826D01*
X040289Y023827D01*
X040291Y023828D01*
X040294Y02383D01*
X040296Y023832D01*
X0403Y023834D01*
X0403D01*
X0403Y023835D01*
X040301Y023835D01*
X040303Y023836D01*
X040305Y023837D01*
X040308Y023839D01*
X04031Y02384D01*
X040313Y023841D01*
X040316Y023842D01*
Y023827D01*
X040316D01*
X040315Y023827D01*
X040315Y023827D01*
X040314Y023826D01*
X040313Y023826D01*
X040311Y023825D01*
X040308Y023823D01*
X040305Y023821D01*
X040301Y023818D01*
X040297Y023816D01*
X040293Y023812D01*
X040293Y023812D01*
X040293Y023812D01*
X040292Y023812D01*
X040292Y023811D01*
X04029Y023809D01*
X040288Y023807D01*
X040286Y023804D01*
X040283Y023802D01*
X040281Y023799D01*
X040279Y023796D01*
X040269D01*
Y023922D01*
X040285D01*
Y023824D01*
D02*
G37*
G36*
X040192Y023924D02*
X040193Y023924D01*
X040195Y023924D01*
X040197Y023923D01*
X040199Y023923D01*
X040204Y023921D01*
X040207Y023921D01*
X040209Y02392D01*
X040212Y023918D01*
X040214Y023917D01*
X040217Y023915D01*
X040219Y023913D01*
X040219Y023913D01*
X040219Y023913D01*
X04022Y023912D01*
X040221Y023911D01*
X040221Y02391D01*
X040222Y023909D01*
X040223Y023907D01*
X040224Y023906D01*
X040225Y023904D01*
X040226Y023902D01*
X040228Y023897D01*
X040229Y023894D01*
X040229Y023892D01*
X04023Y023889D01*
X04023Y023886D01*
Y023886D01*
Y023885D01*
Y023885D01*
X04023Y023884D01*
Y023883D01*
X04023Y023881D01*
X040229Y023879D01*
X040229Y023875D01*
X040227Y023872D01*
X040226Y023869D01*
X040224Y023865D01*
Y023865D01*
X040223Y023865D01*
X040223Y023864D01*
X040221Y023863D01*
X040219Y023861D01*
X040217Y023859D01*
X040214Y023857D01*
X04021Y023855D01*
X040206Y023854D01*
X040206D01*
X040206Y023854D01*
X040207Y023854D01*
X040208Y023853D01*
X040209Y023853D01*
X040211Y023851D01*
X040214Y02385D01*
X040216Y023848D01*
X040218Y023846D01*
X04022Y023844D01*
X040221Y023844D01*
X040221Y023843D01*
X040222Y023841D01*
X040223Y02384D01*
X040223Y023837D01*
X040224Y023835D01*
X040225Y023831D01*
X040225Y023828D01*
Y023828D01*
Y023828D01*
Y023827D01*
X040225Y023826D01*
X040225Y023825D01*
X040224Y023823D01*
X040224Y02382D01*
X040223Y023816D01*
X040221Y023813D01*
X04022Y023811D01*
X040218Y023809D01*
X040217Y023807D01*
X040215Y023805D01*
X040215Y023805D01*
X040215Y023805D01*
X040214Y023804D01*
X040213Y023804D01*
X040212Y023803D01*
X040211Y023802D01*
X04021Y023801D01*
X040208Y0238D01*
X040206Y023799D01*
X040204Y023798D01*
X040202Y023798D01*
X0402Y023797D01*
X040195Y023796D01*
X040192Y023796D01*
X040189Y023796D01*
X040187D01*
X040186Y023796D01*
X040185Y023796D01*
X040183Y023796D01*
X040181Y023796D01*
X040179Y023797D01*
X040175Y023798D01*
X040171Y0238D01*
X040168Y023801D01*
X040166Y023802D01*
X040164Y023804D01*
X040162Y023805D01*
X040162Y023805D01*
X040162Y023806D01*
X040161Y023806D01*
X040161Y023807D01*
X04016Y023808D01*
X040159Y023809D01*
X040157Y023812D01*
X040155Y023815D01*
X040154Y023819D01*
X040152Y023824D01*
X040152Y023826D01*
X040152Y023829D01*
Y023829D01*
Y023829D01*
Y02383D01*
X040152Y023832D01*
X040153Y023834D01*
X040153Y023836D01*
X040154Y023839D01*
X040155Y023841D01*
X040157Y023844D01*
X040157Y023844D01*
X040158Y023845D01*
X040159Y023846D01*
X04016Y023848D01*
X040162Y023849D01*
X040165Y023851D01*
X040167Y023853D01*
X040171Y023854D01*
X04017D01*
X04017Y023854D01*
X04017Y023854D01*
X040169Y023855D01*
X040167Y023856D01*
X040164Y023857D01*
X040161Y023859D01*
X040158Y023861D01*
X040156Y023863D01*
X040153Y023866D01*
Y023866D01*
X040153Y023867D01*
X040152Y023868D01*
X040151Y023869D01*
X04015Y023872D01*
X040149Y023875D01*
X040148Y023878D01*
X040147Y023882D01*
X040147Y023886D01*
Y023886D01*
Y023887D01*
Y023888D01*
X040147Y023889D01*
X040147Y02389D01*
X040148Y023892D01*
X040148Y023894D01*
X040148Y023896D01*
X04015Y0239D01*
X040151Y023902D01*
X040152Y023904D01*
X040153Y023907D01*
X040155Y023909D01*
X040156Y023911D01*
X040158Y023913D01*
X040159Y023913D01*
X040159Y023914D01*
X04016Y023914D01*
X04016Y023915D01*
X040162Y023916D01*
X040163Y023917D01*
X040165Y023918D01*
X040166Y023919D01*
X040168Y02392D01*
X040171Y023921D01*
X040173Y023922D01*
X040176Y023923D01*
X040179Y023923D01*
X040182Y023924D01*
X040185Y023924D01*
X040188Y023924D01*
X04019D01*
X040192Y023924D01*
D02*
G37*
G36*
X040089Y023824D02*
X040089Y023824D01*
X04009Y023824D01*
X040091Y023826D01*
X040093Y023827D01*
X040095Y023828D01*
X040098Y02383D01*
X040101Y023832D01*
X040104Y023834D01*
X040104D01*
X040104Y023835D01*
X040105Y023835D01*
X040107Y023836D01*
X040109Y023837D01*
X040112Y023839D01*
X040115Y02384D01*
X040117Y023841D01*
X04012Y023842D01*
Y023827D01*
X04012D01*
X04012Y023827D01*
X040119Y023827D01*
X040118Y023826D01*
X040117Y023826D01*
X040116Y023825D01*
X040112Y023823D01*
X040109Y023821D01*
X040105Y023818D01*
X040101Y023816D01*
X040097Y023812D01*
X040097Y023812D01*
X040097Y023812D01*
X040097Y023812D01*
X040096Y023811D01*
X040094Y023809D01*
X040092Y023807D01*
X04009Y023804D01*
X040087Y023802D01*
X040085Y023799D01*
X040084Y023796D01*
X040074D01*
Y023922D01*
X040089D01*
Y023824D01*
D02*
G37*
G36*
X043086Y023825D02*
X043141D01*
Y02381D01*
X043084Y023729D01*
X043071D01*
Y02381D01*
X043054D01*
Y023825D01*
X043071D01*
Y023855D01*
X043086D01*
Y023825D01*
D02*
G37*
G36*
X043155Y023864D02*
X043156Y023864D01*
X043157Y023864D01*
X043158Y023863D01*
X04316Y023862D01*
X043161Y023862D01*
X043163Y023861D01*
X043167Y023859D01*
X043172Y023856D01*
X043177Y023853D01*
X043182Y023849D01*
X043182D01*
X043182Y023849D01*
X043183Y02385D01*
X043184Y02385D01*
X043185Y023851D01*
X043187Y023852D01*
X043189Y023852D01*
X043191Y023853D01*
X043193Y023854D01*
X043195Y023854D01*
X043201Y023856D01*
X043206Y023857D01*
X043209Y023857D01*
X043213Y023857D01*
X043214D01*
X043215Y023857D01*
X043217D01*
X043219Y023857D01*
X043221Y023856D01*
X043223Y023856D01*
X043228Y023855D01*
X043233Y023853D01*
X043238Y023851D01*
X043241Y02385D01*
X043244Y023849D01*
X043244Y023849D01*
X043244Y023848D01*
X043245Y023848D01*
X043246Y023847D01*
X043247Y023846D01*
X043248Y023845D01*
X043252Y023843D01*
X043255Y023839D01*
X043258Y023835D01*
X043262Y023831D01*
X043265Y023826D01*
Y023825D01*
X043265Y023825D01*
X043266Y023824D01*
X043266Y023823D01*
X043267Y023822D01*
X043267Y02382D01*
X043268Y023818D01*
X043269Y023816D01*
X043269Y023813D01*
X04327Y023811D01*
X043271Y023808D01*
X043271Y023805D01*
X043272Y023799D01*
X043272Y023792D01*
Y023792D01*
Y023791D01*
Y02379D01*
X043272Y023789D01*
Y023787D01*
X043272Y023785D01*
X043272Y023783D01*
X043272Y023781D01*
X043271Y023775D01*
X043269Y02377D01*
X043268Y023764D01*
X043265Y023758D01*
X043265Y023758D01*
X043265Y023757D01*
X043264Y023756D01*
X043264Y023755D01*
X043263Y023754D01*
X043262Y023753D01*
X043259Y023749D01*
X043256Y023746D01*
X043253Y023742D01*
X043248Y023738D01*
X043243Y023735D01*
X043243Y023734D01*
X043243Y023734D01*
X043242Y023734D01*
X043241Y023733D01*
X04324Y023733D01*
X043238Y023732D01*
X043236Y023731D01*
X043234Y023731D01*
X043232Y02373D01*
X04323Y023729D01*
X043224Y023728D01*
X043219Y023727D01*
X043215Y023727D01*
X043211D01*
X043209Y023727D01*
X043208D01*
X043206Y023727D01*
X043204Y023727D01*
X043202Y023728D01*
X043197Y023729D01*
X043191Y02373D01*
X043186Y023732D01*
X043183Y023734D01*
X043181Y023735D01*
X043181Y023735D01*
X04318Y023735D01*
X043179Y023736D01*
X043178Y023736D01*
X043177Y023737D01*
X043176Y023738D01*
X043173Y023741D01*
X043169Y023744D01*
X043166Y023748D01*
X043162Y023753D01*
X043159Y023758D01*
Y023758D01*
X043159Y023759D01*
X043159Y02376D01*
X043158Y023761D01*
X043158Y023762D01*
X043157Y023764D01*
X043156Y023766D01*
X043156Y023768D01*
X043155Y02377D01*
X043154Y023773D01*
X043154Y023776D01*
X043153Y023779D01*
X043152Y023785D01*
X043152Y023792D01*
Y023792D01*
Y023792D01*
Y023793D01*
Y023794D01*
X043152Y023796D01*
Y023797D01*
X043152Y023799D01*
X043152Y023801D01*
X043153Y023805D01*
X043154Y02381D01*
X043155Y023815D01*
X043157Y02382D01*
Y02382D01*
X043157Y02382D01*
X043157Y023821D01*
X043158Y023822D01*
X043158Y023823D01*
X043159Y023824D01*
X04316Y023827D01*
X043162Y023831D01*
X043165Y023834D01*
X043168Y023838D01*
X043171Y023841D01*
X043171D01*
X04317Y023842D01*
X04317Y023842D01*
X043169Y023843D01*
X043168Y023843D01*
X043167Y023844D01*
X043164Y023846D01*
X043161Y023848D01*
X043157Y02385D01*
X043153Y023851D01*
X04315Y023853D01*
X043155Y023865D01*
X043155D01*
X043155Y023864D01*
D02*
G37*
G36*
X042596Y024024D02*
X042598Y024024D01*
X0426Y024024D01*
X042602Y024023D01*
X042604Y024023D01*
X042608Y024022D01*
X042613Y02402D01*
X042615Y024019D01*
X042617Y024018D01*
X04262Y024016D01*
X042622Y024015D01*
X042622Y024015D01*
X042622Y024014D01*
X042623Y024014D01*
X042623Y024013D01*
X042624Y024012D01*
X042625Y024011D01*
X042626Y024009D01*
X042627Y024008D01*
X042628Y024006D01*
X042629Y024004D01*
X042631Y024D01*
X042633Y023995D01*
X042634Y023992D01*
X042634Y023989D01*
X042618Y023988D01*
Y023988D01*
Y023988D01*
X042618Y023989D01*
X042617Y02399D01*
X042617Y023992D01*
X042616Y023995D01*
X042615Y023997D01*
X042614Y024D01*
X042612Y024003D01*
X04261Y024006D01*
X042609Y024006D01*
X042608Y024007D01*
X042607Y024007D01*
X042605Y024009D01*
X042603Y02401D01*
X0426Y024011D01*
X042597Y024011D01*
X042594Y024011D01*
X042592D01*
X042592Y024011D01*
X04259Y024011D01*
X042587Y02401D01*
X042584Y024009D01*
X042581Y024008D01*
X042578Y024006D01*
X042576Y024005D01*
X042575Y024003D01*
X042574Y024003D01*
X042574Y024003D01*
X042574Y024002D01*
X042573Y024002D01*
X042572Y024D01*
X042571Y023997D01*
X042569Y023994D01*
X042568Y02399D01*
X042567Y023986D01*
X042567Y023983D01*
Y023981D01*
Y023981D01*
Y02398D01*
Y023979D01*
X042567Y023979D01*
Y023977D01*
X042567Y023976D01*
X042568Y023973D01*
X042569Y02397D01*
X04257Y023966D01*
X042572Y023963D01*
X042574Y02396D01*
Y02396D01*
X042575Y02396D01*
X042576Y023959D01*
X042577Y023957D01*
X042579Y023956D01*
X042582Y023955D01*
X042586Y023953D01*
X042589Y023953D01*
X042592Y023952D01*
X042595D01*
X042596Y023952D01*
X042598Y023953D01*
X0426Y023953D01*
X042603Y023954D01*
X042605Y023955D01*
X042607Y023956D01*
X042608Y023956D01*
X042608Y023956D01*
X042609Y023957D01*
X042611Y023958D01*
X042612Y023959D01*
X042614Y023961D01*
X042615Y023963D01*
X042617Y023965D01*
X042631Y023963D01*
X042619Y023898D01*
X042556D01*
Y023912D01*
X042607D01*
X042614Y023947D01*
X042613Y023946D01*
X042613Y023946D01*
X042613Y023946D01*
X042612Y023945D01*
X042611Y023945D01*
X042609Y023944D01*
X042606Y023943D01*
X042603Y023941D01*
X042599Y02394D01*
X042594Y023939D01*
X042592Y023939D01*
X042588D01*
X042587Y023939D01*
X042586Y023939D01*
X042584Y023939D01*
X042582Y023939D01*
X04258Y02394D01*
X042576Y023941D01*
X042573Y023942D01*
X042571Y023943D01*
X042569Y023945D01*
X042566Y023946D01*
X042564Y023948D01*
X042562Y02395D01*
X042562Y02395D01*
X042561Y023951D01*
X042561Y023951D01*
X04256Y023952D01*
X042559Y023953D01*
X042558Y023955D01*
X042557Y023956D01*
X042556Y023958D01*
X042555Y02396D01*
X042554Y023962D01*
X042553Y023965D01*
X042552Y023967D01*
X042552Y02397D01*
X042551Y023973D01*
X042551Y023976D01*
X04255Y023979D01*
Y02398D01*
Y02398D01*
Y023981D01*
X042551Y023982D01*
X042551Y023984D01*
X042551Y023985D01*
X042551Y023987D01*
X042552Y023989D01*
X042553Y023994D01*
X042555Y023999D01*
X042556Y024002D01*
X042557Y024004D01*
X042559Y024007D01*
X04256Y024009D01*
X042561Y024009D01*
X042561Y02401D01*
X042562Y02401D01*
X042563Y024011D01*
X042564Y024012D01*
X042565Y024014D01*
X042567Y024015D01*
X042569Y024017D01*
X042571Y024018D01*
X042574Y024019D01*
X042577Y024021D01*
X04258Y024022D01*
X042583Y024023D01*
X042586Y024023D01*
X04259Y024024D01*
X042594Y024024D01*
X042595D01*
X042596Y024024D01*
D02*
G37*
G36*
X043122D02*
X043124D01*
X043126Y024024D01*
X043128Y024024D01*
X043132Y024023D01*
X043137Y024022D01*
X043142Y024021D01*
X043147Y024019D01*
X043147D01*
X043147Y024019D01*
X043148Y024019D01*
X043148Y024018D01*
X043151Y024017D01*
X043153Y024016D01*
X043156Y024013D01*
X043159Y024011D01*
X043162Y024008D01*
X043165Y024004D01*
Y024004D01*
X043165Y024004D01*
X043165Y024003D01*
X043166Y024003D01*
X043166Y024002D01*
X043167Y024001D01*
X043168Y023998D01*
X043169Y023994D01*
X04317Y023991D01*
X043171Y023986D01*
X043171Y023982D01*
X043156Y02398D01*
Y02398D01*
Y023981D01*
X043156Y023981D01*
Y023982D01*
X043155Y023983D01*
X043155Y023986D01*
X043154Y023988D01*
X043153Y023991D01*
X043152Y023993D01*
X043151Y023996D01*
X043151Y023996D01*
X04315Y023997D01*
X043149Y023998D01*
X043148Y023999D01*
X043146Y024001D01*
X043144Y024003D01*
X043141Y024004D01*
X043138Y024006D01*
X043138D01*
X043138Y024006D01*
X043137Y024006D01*
X043137Y024006D01*
X043135Y024007D01*
X043132Y024007D01*
X04313Y024008D01*
X043126Y024009D01*
X043123Y024009D01*
X043119Y024009D01*
X043117D01*
X043115Y024009D01*
X043113Y024009D01*
X04311Y024009D01*
X043108Y024008D01*
X043105Y024007D01*
X043102Y024007D01*
X043102Y024006D01*
X043101Y024006D01*
X043099Y024005D01*
X043098Y024005D01*
X043096Y024003D01*
X043094Y024002D01*
X043092Y024001D01*
X043091Y023999D01*
X043091Y023999D01*
X04309Y023998D01*
X04309Y023997D01*
X043089Y023995D01*
X043088Y023994D01*
X043088Y023992D01*
X043088Y02399D01*
X043087Y023988D01*
Y023988D01*
Y023987D01*
X043088Y023986D01*
X043088Y023984D01*
X043088Y023983D01*
X043089Y023981D01*
X04309Y023979D01*
X043091Y023978D01*
X043091Y023977D01*
X043092Y023977D01*
X043092Y023976D01*
X043094Y023975D01*
X043095Y023974D01*
X043097Y023973D01*
X0431Y023971D01*
X043102Y02397D01*
X043102Y02397D01*
X043103Y02397D01*
X043105Y023969D01*
X043106Y023969D01*
X043107Y023969D01*
X043108Y023968D01*
X04311Y023968D01*
X043112Y023967D01*
X043114Y023967D01*
X043116Y023966D01*
X043119Y023966D01*
X043122Y023965D01*
X043125Y023964D01*
X043125D01*
X043125Y023964D01*
X043126Y023964D01*
X043127Y023963D01*
X043129Y023963D01*
X04313Y023963D01*
X043134Y023962D01*
X043138Y02396D01*
X043142Y023959D01*
X043146Y023958D01*
X043148Y023957D01*
X043149Y023956D01*
X043149D01*
X043149Y023956D01*
X043151Y023955D01*
X043152Y023955D01*
X043154Y023953D01*
X043156Y023951D01*
X043158Y023949D01*
X043161Y023947D01*
X043162Y023945D01*
X043163Y023944D01*
X043163Y023943D01*
X043164Y023942D01*
X043165Y02394D01*
X043165Y023938D01*
X043166Y023935D01*
X043167Y023932D01*
X043167Y023929D01*
Y023929D01*
Y023928D01*
Y023928D01*
Y023927D01*
X043166Y023925D01*
X043166Y023923D01*
X043165Y02392D01*
X043165Y023917D01*
X043163Y023914D01*
X043161Y023911D01*
Y023911D01*
X043161Y023911D01*
X04316Y02391D01*
X043159Y023908D01*
X043157Y023906D01*
X043155Y023904D01*
X043152Y023902D01*
X043149Y0239D01*
X043146Y023898D01*
X043145D01*
X043145Y023898D01*
X043144Y023898D01*
X043144Y023898D01*
X043143Y023897D01*
X043142Y023897D01*
X043139Y023896D01*
X043135Y023895D01*
X043131Y023895D01*
X043127Y023894D01*
X043122Y023894D01*
X04312D01*
X043119Y023894D01*
X043118D01*
X043114Y023894D01*
X04311Y023895D01*
X043106Y023896D01*
X043102Y023897D01*
X043098Y023898D01*
X043098D01*
X043097Y023899D01*
X043097Y023899D01*
X043096Y023899D01*
X043094Y0239D01*
X043092Y023902D01*
X043089Y023904D01*
X043086Y023906D01*
X043084Y023909D01*
X043082Y023912D01*
Y023912D01*
X043081Y023912D01*
X043081Y023913D01*
X043081Y023913D01*
X04308Y023915D01*
X043079Y023918D01*
X043077Y02392D01*
X043076Y023924D01*
X043076Y023928D01*
X043075Y023932D01*
X043091Y023933D01*
Y023933D01*
Y023932D01*
X043091Y023932D01*
X043092Y023931D01*
X043092Y023929D01*
X043093Y023926D01*
X043094Y023923D01*
X043096Y02392D01*
X043098Y023918D01*
X0431Y023915D01*
X0431Y023915D01*
X043101Y023914D01*
X043103Y023913D01*
X043106Y023912D01*
X043109Y023911D01*
X043112Y02391D01*
X043117Y023909D01*
X043122Y023909D01*
X043124D01*
X043126Y023909D01*
X043127Y023909D01*
X04313Y02391D01*
X043134Y02391D01*
X043138Y023911D01*
X043141Y023913D01*
X043142Y023914D01*
X043144Y023914D01*
X043144Y023915D01*
X043145Y023915D01*
X043146Y023917D01*
X043147Y023918D01*
X043148Y02392D01*
X04315Y023922D01*
X04315Y023925D01*
X043151Y023928D01*
Y023928D01*
Y023929D01*
X043151Y02393D01*
X04315Y023932D01*
X04315Y023933D01*
X043149Y023935D01*
X043148Y023937D01*
X043146Y023939D01*
X043146Y023939D01*
X043145Y02394D01*
X043144Y02394D01*
X043143Y023941D01*
X043142Y023941D01*
X043141Y023942D01*
X043139Y023942D01*
X043138Y023943D01*
X043136Y023944D01*
X043133Y023945D01*
X043131Y023945D01*
X043128Y023946D01*
X043124Y023947D01*
X043121Y023948D01*
X043121D01*
X04312Y023948D01*
X043119Y023948D01*
X043118Y023949D01*
X043116Y023949D01*
X043114Y02395D01*
X043112Y02395D01*
X04311Y023951D01*
X043105Y023952D01*
X0431Y023953D01*
X043098Y023954D01*
X043096Y023955D01*
X043094Y023955D01*
X043093Y023956D01*
X043093D01*
X043092Y023956D01*
X043092Y023957D01*
X043091Y023957D01*
X043089Y023958D01*
X043087Y023959D01*
X043084Y023961D01*
X043081Y023964D01*
X043079Y023966D01*
X043077Y023969D01*
X043076Y023969D01*
X043076Y02397D01*
X043075Y023972D01*
X043074Y023974D01*
X043073Y023977D01*
X043072Y02398D01*
X043072Y023983D01*
X043071Y023987D01*
Y023987D01*
Y023987D01*
Y023988D01*
Y023988D01*
X043072Y02399D01*
X043072Y023993D01*
X043073Y023996D01*
X043074Y023999D01*
X043075Y024002D01*
X043077Y024006D01*
Y024006D01*
X043077Y024006D01*
X043078Y024007D01*
X04308Y024009D01*
X043081Y024011D01*
X043084Y024013D01*
X043087Y024015D01*
X04309Y024017D01*
X043094Y024019D01*
X043094D01*
X043094Y024019D01*
X043095Y02402D01*
X043096Y02402D01*
X043097Y02402D01*
X043098Y024021D01*
X043101Y024022D01*
X043104Y024023D01*
X043108Y024023D01*
X043113Y024024D01*
X043118Y024024D01*
X043121D01*
X043122Y024024D01*
D02*
G37*
G36*
X042998D02*
X042999D01*
X043001Y024024D01*
X043003Y024023D01*
X043006Y024023D01*
X043011Y024022D01*
X043017Y024021D01*
X043022Y024019D01*
X043025Y024018D01*
X043027Y024016D01*
X043027Y024016D01*
X043028Y024016D01*
X043029Y024015D01*
X043029Y024014D01*
X04303Y024014D01*
X043032Y024013D01*
X043033Y024011D01*
X043035Y02401D01*
X043036Y024008D01*
X043038Y024007D01*
X043041Y024002D01*
X043044Y023997D01*
X043047Y023992D01*
Y023992D01*
X043047Y023991D01*
X043047Y02399D01*
X043048Y023989D01*
X043048Y023988D01*
X043049Y023986D01*
X043049Y023984D01*
X04305Y023982D01*
X043051Y023979D01*
X043051Y023977D01*
X043052Y023971D01*
X043053Y023965D01*
X043053Y023958D01*
Y023958D01*
Y023957D01*
Y023956D01*
X043053Y023955D01*
Y023953D01*
X043053Y023951D01*
X043053Y023949D01*
X043052Y023947D01*
X043051Y023941D01*
X04305Y023935D01*
X043048Y02393D01*
X043046Y023924D01*
X043046Y023924D01*
X043045Y023923D01*
X043045Y023922D01*
X043044Y023922D01*
X043044Y02392D01*
X043043Y023919D01*
X04304Y023916D01*
X043037Y023912D01*
X043034Y023908D01*
X043029Y023905D01*
X043025Y023902D01*
X043024Y023901D01*
X043024Y023901D01*
X043023Y023901D01*
X043022Y0239D01*
X043021Y0239D01*
X043019Y023899D01*
X043017Y023898D01*
X043015Y023898D01*
X043013Y023897D01*
X043011Y023896D01*
X043006Y023895D01*
X043Y023894D01*
X042994Y023894D01*
X042992D01*
X042991Y023894D01*
X042989Y023894D01*
X042987Y023894D01*
X042985Y023895D01*
X042983Y023895D01*
X042978Y023896D01*
X042973Y023898D01*
X04297Y023899D01*
X042967Y0239D01*
X042965Y023902D01*
X042962Y023904D01*
X042962Y023904D01*
X042962Y023904D01*
X042961Y023904D01*
X04296Y023905D01*
X042959Y023906D01*
X042958Y023908D01*
X042956Y023909D01*
X042955Y02391D01*
X042954Y023912D01*
X042952Y023914D01*
X04295Y023917D01*
X042949Y023919D01*
X042948Y023922D01*
X042946Y023925D01*
X042945Y023927D01*
X042944Y023931D01*
X04296Y023935D01*
Y023934D01*
X042961Y023934D01*
X042961Y023933D01*
X042961Y023932D01*
X042962Y023931D01*
X042962Y02393D01*
X042964Y023927D01*
X042966Y023924D01*
X042968Y02392D01*
X04297Y023917D01*
X042973Y023914D01*
X042974Y023914D01*
X042975Y023913D01*
X042977Y023912D01*
X042979Y023911D01*
X042982Y02391D01*
X042986Y023909D01*
X04299Y023908D01*
X042994Y023908D01*
X042996D01*
X042997Y023908D01*
X042998D01*
X042999Y023908D01*
X043003Y023909D01*
X043007Y02391D01*
X043011Y023911D01*
X043015Y023913D01*
X043019Y023915D01*
X043019D01*
X043019Y023916D01*
X04302Y023916D01*
X043022Y023918D01*
X043024Y02392D01*
X043026Y023923D01*
X043029Y023926D01*
X043031Y02393D01*
X043032Y023934D01*
Y023934D01*
X043033Y023935D01*
X043033Y023935D01*
X043033Y023936D01*
X043033Y023937D01*
X043034Y023938D01*
X043034Y023941D01*
X043035Y023945D01*
X043036Y023949D01*
X043036Y023953D01*
X043036Y023958D01*
Y023958D01*
Y023959D01*
Y02396D01*
Y023961D01*
X043036Y023962D01*
Y023964D01*
X043036Y023966D01*
X043036Y023968D01*
X043035Y023972D01*
X043034Y023977D01*
X043033Y023981D01*
X043032Y023986D01*
Y023986D01*
X043031Y023987D01*
X043031Y023987D01*
X043031Y023988D01*
X04303Y02399D01*
X043028Y023993D01*
X043026Y023996D01*
X043023Y023999D01*
X043021Y024002D01*
X043017Y024004D01*
X043017D01*
X043017Y024004D01*
X043016Y024005D01*
X043015Y024005D01*
X043014Y024005D01*
X043013Y024006D01*
X043011Y024007D01*
X043007Y024008D01*
X043004Y024009D01*
X043Y02401D01*
X042996Y02401D01*
X042994D01*
X042993Y02401D01*
X042992D01*
X042991Y02401D01*
X042987Y024009D01*
X042984Y024008D01*
X04298Y024007D01*
X042976Y024005D01*
X042974Y024003D01*
X042972Y024002D01*
X042972Y024002D01*
X042972Y024002D01*
X042971Y024001D01*
X04297Y024001D01*
X04297Y024D01*
X042969Y023999D01*
X042968Y023997D01*
X042967Y023996D01*
X042966Y023994D01*
X042964Y023993D01*
X042963Y023991D01*
X042962Y023989D01*
X042961Y023986D01*
X04296Y023984D01*
X042959Y023981D01*
X042959Y023978D01*
X042942Y023982D01*
Y023982D01*
X042942Y023983D01*
X042942Y023984D01*
X042943Y023986D01*
X042944Y023987D01*
X042944Y023989D01*
X042945Y023991D01*
X042946Y023994D01*
X042949Y023999D01*
X042952Y024004D01*
X042954Y024007D01*
X042956Y024009D01*
X042958Y024011D01*
X042961Y024013D01*
X042961Y024014D01*
X042961Y024014D01*
X042962Y024014D01*
X042963Y024015D01*
X042965Y024016D01*
X042966Y024017D01*
X042968Y024018D01*
X04297Y024019D01*
X042973Y02402D01*
X042975Y024021D01*
X042978Y024022D01*
X042981Y024023D01*
X042984Y024023D01*
X042987Y024024D01*
X042991Y024024D01*
X042994Y024024D01*
X042996D01*
X042998Y024024D01*
D02*
G37*
G36*
X043272Y024022D02*
Y024021D01*
Y02402D01*
X043272Y024019D01*
X043272Y024017D01*
X043272Y024015D01*
X043271Y024013D01*
X04327Y024011D01*
Y024011D01*
X04327Y024011D01*
X04327Y02401D01*
X043269Y024008D01*
X043268Y024006D01*
X043267Y024003D01*
X043265Y024001D01*
X043263Y023998D01*
X04326Y023995D01*
Y023994D01*
X04326Y023994D01*
X043259Y023993D01*
X043257Y023991D01*
X043255Y023989D01*
X043252Y023986D01*
X043249Y023983D01*
X043245Y023979D01*
X04324Y023976D01*
X04324Y023975D01*
X043239Y023975D01*
X043238Y023974D01*
X043237Y023973D01*
X043235Y023971D01*
X043233Y02397D01*
X043231Y023968D01*
X043229Y023966D01*
X043224Y023962D01*
X04322Y023957D01*
X043217Y023955D01*
X043215Y023953D01*
X043214Y023951D01*
X043212Y023949D01*
Y023949D01*
X043212Y023949D01*
X043211Y023948D01*
X043211Y023947D01*
X04321Y023945D01*
X043208Y023943D01*
X043207Y02394D01*
X043206Y023937D01*
X043205Y023933D01*
X043205Y02393D01*
Y02393D01*
Y02393D01*
X043205Y023929D01*
X043205Y023927D01*
X043206Y023925D01*
X043206Y023922D01*
X043208Y02392D01*
X043209Y023917D01*
X043211Y023915D01*
X043212Y023914D01*
X043213Y023914D01*
X043214Y023913D01*
X043216Y023911D01*
X043219Y02391D01*
X043221Y023909D01*
X043225Y023908D01*
X043229Y023908D01*
X04323D01*
X043231Y023908D01*
X043233Y023909D01*
X043235Y023909D01*
X043238Y02391D01*
X043241Y023911D01*
X043244Y023913D01*
X043247Y023915D01*
X043247Y023915D01*
X043248Y023916D01*
X043249Y023918D01*
X04325Y02392D01*
X043251Y023922D01*
X043252Y023926D01*
X043253Y023929D01*
X043254Y023934D01*
X043269Y023932D01*
Y023932D01*
X043269Y023931D01*
Y02393D01*
X043269Y023929D01*
X043269Y023928D01*
X043268Y023926D01*
X043268Y023924D01*
X043267Y023922D01*
X043266Y023918D01*
X043264Y023913D01*
X043262Y023911D01*
X043261Y023909D01*
X043259Y023907D01*
X043257Y023905D01*
X043257Y023905D01*
X043257Y023905D01*
X043256Y023904D01*
X043255Y023904D01*
X043254Y023903D01*
X043253Y023902D01*
X043251Y023901D01*
X04325Y0239D01*
X043248Y023899D01*
X043245Y023898D01*
X043243Y023898D01*
X04324Y023897D01*
X043238Y023896D01*
X043235Y023896D01*
X043232Y023896D01*
X043228Y023896D01*
X043227D01*
X043225Y023896D01*
X043224Y023896D01*
X043222Y023896D01*
X04322Y023896D01*
X043218Y023897D01*
X043213Y023898D01*
X043209Y0239D01*
X043206Y023901D01*
X043204Y023902D01*
X043202Y023904D01*
X0432Y023906D01*
X043199Y023906D01*
X043199Y023906D01*
X043199Y023907D01*
X043198Y023908D01*
X043197Y023908D01*
X043196Y02391D01*
X043195Y023911D01*
X043194Y023913D01*
X043192Y023916D01*
X043191Y02392D01*
X04319Y023923D01*
X043189Y023925D01*
X043189Y023928D01*
X043189Y02393D01*
Y023931D01*
Y023932D01*
X043189Y023933D01*
X043189Y023935D01*
X04319Y023937D01*
X04319Y02394D01*
X043191Y023943D01*
X043192Y023945D01*
X043192Y023946D01*
X043193Y023947D01*
X043193Y023948D01*
X043195Y02395D01*
X043196Y023952D01*
X043198Y023955D01*
X0432Y023958D01*
X043203Y023961D01*
X043203Y023961D01*
X043204Y023962D01*
X043205Y023963D01*
X043206Y023964D01*
X043207Y023965D01*
X043208Y023967D01*
X04321Y023968D01*
X043211Y02397D01*
X043213Y023972D01*
X043215Y023974D01*
X043218Y023976D01*
X04322Y023978D01*
X043223Y02398D01*
X043226Y023983D01*
X043226Y023983D01*
X043227Y023983D01*
X043227Y023984D01*
X043228Y023985D01*
X043229Y023986D01*
X043231Y023987D01*
X043234Y023989D01*
X043237Y023992D01*
X04324Y023995D01*
X043242Y023997D01*
X043243Y023998D01*
X043244Y023999D01*
X043244Y023999D01*
X043245Y024D01*
X043246Y024D01*
X043247Y024001D01*
X043248Y024003D01*
X043249Y024004D01*
X043251Y024007D01*
X043189D01*
Y024022D01*
X043272D01*
Y024022D01*
D02*
G37*
G36*
X042885Y023924D02*
X042885Y023924D01*
X042886Y023925D01*
X042887Y023926D01*
X042889Y023927D01*
X042891Y023928D01*
X042894Y02393D01*
X042896Y023932D01*
X0429Y023934D01*
X0429D01*
X0429Y023935D01*
X042901Y023935D01*
X042903Y023936D01*
X042905Y023937D01*
X042908Y023939D01*
X04291Y02394D01*
X042913Y023941D01*
X042916Y023942D01*
Y023927D01*
X042916D01*
X042915Y023927D01*
X042915Y023927D01*
X042914Y023926D01*
X042913Y023926D01*
X042911Y023925D01*
X042908Y023923D01*
X042905Y023921D01*
X042901Y023918D01*
X042897Y023916D01*
X042893Y023912D01*
X042893Y023912D01*
X042893Y023912D01*
X042892Y023912D01*
X042892Y023911D01*
X04289Y023909D01*
X042888Y023907D01*
X042886Y023904D01*
X042883Y023902D01*
X042881Y023899D01*
X04288Y023896D01*
X042869D01*
Y024022D01*
X042885D01*
Y023924D01*
D02*
G37*
G36*
X042792Y024024D02*
X042793Y024024D01*
X042795Y024024D01*
X042797Y024023D01*
X042799Y024023D01*
X042804Y024021D01*
X042807Y024021D01*
X042809Y02402D01*
X042812Y024018D01*
X042814Y024017D01*
X042817Y024015D01*
X042819Y024013D01*
X042819Y024013D01*
X042819Y024013D01*
X04282Y024012D01*
X042821Y024011D01*
X042821Y02401D01*
X042822Y024009D01*
X042823Y024007D01*
X042824Y024006D01*
X042825Y024004D01*
X042826Y024002D01*
X042828Y023997D01*
X042829Y023994D01*
X042829Y023992D01*
X04283Y023989D01*
X04283Y023986D01*
Y023986D01*
Y023985D01*
Y023985D01*
X04283Y023984D01*
Y023983D01*
X04283Y023981D01*
X042829Y023979D01*
X042829Y023975D01*
X042827Y023972D01*
X042826Y023969D01*
X042824Y023965D01*
Y023965D01*
X042823Y023965D01*
X042823Y023964D01*
X042821Y023963D01*
X042819Y023961D01*
X042817Y023959D01*
X042814Y023957D01*
X04281Y023955D01*
X042806Y023954D01*
X042806D01*
X042806Y023954D01*
X042807Y023954D01*
X042808Y023953D01*
X042809Y023953D01*
X042811Y023951D01*
X042814Y02395D01*
X042816Y023948D01*
X042818Y023946D01*
X04282Y023944D01*
X042821Y023944D01*
X042821Y023943D01*
X042822Y023941D01*
X042823Y02394D01*
X042823Y023937D01*
X042824Y023935D01*
X042825Y023931D01*
X042825Y023928D01*
Y023928D01*
Y023928D01*
Y023927D01*
X042825Y023926D01*
X042825Y023925D01*
X042824Y023923D01*
X042824Y02392D01*
X042823Y023916D01*
X042821Y023913D01*
X04282Y023911D01*
X042818Y023909D01*
X042817Y023907D01*
X042815Y023905D01*
X042815Y023905D01*
X042815Y023905D01*
X042814Y023904D01*
X042813Y023904D01*
X042812Y023903D01*
X042811Y023902D01*
X04281Y023901D01*
X042808Y0239D01*
X042806Y023899D01*
X042804Y023898D01*
X042802Y023898D01*
X0428Y023897D01*
X042795Y023896D01*
X042792Y023896D01*
X042789Y023896D01*
X042787D01*
X042786Y023896D01*
X042785Y023896D01*
X042783Y023896D01*
X042781Y023896D01*
X042779Y023897D01*
X042775Y023898D01*
X042771Y0239D01*
X042768Y023901D01*
X042766Y023902D01*
X042764Y023904D01*
X042762Y023905D01*
X042762Y023905D01*
X042762Y023906D01*
X042761Y023906D01*
X042761Y023907D01*
X04276Y023908D01*
X042759Y023909D01*
X042757Y023912D01*
X042755Y023915D01*
X042754Y023919D01*
X042752Y023924D01*
X042752Y023926D01*
X042752Y023929D01*
Y023929D01*
Y023929D01*
Y02393D01*
X042752Y023932D01*
X042753Y023934D01*
X042753Y023936D01*
X042754Y023939D01*
X042755Y023941D01*
X042757Y023944D01*
X042757Y023944D01*
X042758Y023945D01*
X042759Y023946D01*
X04276Y023948D01*
X042762Y023949D01*
X042765Y023951D01*
X042767Y023953D01*
X042771Y023954D01*
X04277D01*
X04277Y023954D01*
X04277Y023954D01*
X042769Y023955D01*
X042767Y023956D01*
X042764Y023957D01*
X042761Y023959D01*
X042758Y023961D01*
X042756Y023963D01*
X042753Y023966D01*
Y023966D01*
X042753Y023967D01*
X042752Y023968D01*
X042751Y023969D01*
X04275Y023972D01*
X042749Y023975D01*
X042748Y023978D01*
X042747Y023982D01*
X042747Y023986D01*
Y023986D01*
Y023987D01*
Y023988D01*
X042747Y023989D01*
X042747Y02399D01*
X042748Y023992D01*
X042748Y023994D01*
X042748Y023996D01*
X04275Y024D01*
X042751Y024002D01*
X042752Y024004D01*
X042753Y024007D01*
X042755Y024009D01*
X042756Y024011D01*
X042758Y024013D01*
X042759Y024013D01*
X042759Y024014D01*
X04276Y024014D01*
X04276Y024015D01*
X042762Y024016D01*
X042763Y024017D01*
X042765Y024018D01*
X042766Y024019D01*
X042768Y02402D01*
X042771Y024021D01*
X042773Y024022D01*
X042776Y024023D01*
X042779Y024023D01*
X042782Y024024D01*
X042785Y024024D01*
X042789Y024024D01*
X04279D01*
X042792Y024024D01*
D02*
G37*
G36*
X042689Y023924D02*
X042689Y023924D01*
X04269Y023925D01*
X042691Y023926D01*
X042693Y023927D01*
X042695Y023928D01*
X042698Y02393D01*
X042701Y023932D01*
X042704Y023934D01*
X042704D01*
X042704Y023935D01*
X042705Y023935D01*
X042707Y023936D01*
X042709Y023937D01*
X042712Y023939D01*
X042715Y02394D01*
X042717Y023941D01*
X04272Y023942D01*
Y023927D01*
X04272D01*
X04272Y023927D01*
X042719Y023927D01*
X042718Y023926D01*
X042717Y023926D01*
X042716Y023925D01*
X042712Y023923D01*
X042709Y023921D01*
X042705Y023918D01*
X042701Y023916D01*
X042698Y023912D01*
X042697Y023912D01*
X042697Y023912D01*
X042697Y023912D01*
X042696Y023911D01*
X042694Y023909D01*
X042692Y023907D01*
X04269Y023904D01*
X042687Y023902D01*
X042685Y023899D01*
X042684Y023896D01*
X042674D01*
Y024022D01*
X042689D01*
Y023924D01*
D02*
G37*
G36*
X034593Y023756D02*
X034593Y023756D01*
X034594Y023757D01*
X034595Y023758D01*
X034597Y02376D01*
X034599Y023761D01*
X034602Y023763D01*
X034605Y023765D01*
X034608Y023767D01*
X034608D01*
X034608Y023767D01*
X034609Y023768D01*
X034611Y023769D01*
X034613Y02377D01*
X034616Y023771D01*
X034619Y023772D01*
X034621Y023774D01*
X034624Y023775D01*
Y02376D01*
X034624D01*
X034624Y02376D01*
X034623Y023759D01*
X034622Y023759D01*
X034621Y023758D01*
X03462Y023758D01*
X034616Y023756D01*
X034613Y023754D01*
X034609Y023751D01*
X034605Y023748D01*
X034602Y023745D01*
X034601Y023745D01*
X034601Y023745D01*
X034601Y023744D01*
X0346Y023744D01*
X034598Y023742D01*
X034596Y02374D01*
X034594Y023737D01*
X034592Y023734D01*
X03459Y023731D01*
X034588Y023728D01*
X034578D01*
Y023855D01*
X034593D01*
Y023756D01*
D02*
G37*
G36*
X034655Y023864D02*
X034656Y023864D01*
X034657Y023864D01*
X034658Y023863D01*
X03466Y023862D01*
X034661Y023862D01*
X034663Y023861D01*
X034667Y023859D01*
X034672Y023856D01*
X034677Y023853D01*
X034682Y023849D01*
X034682D01*
X034682Y023849D01*
X034683Y02385D01*
X034684Y02385D01*
X034685Y023851D01*
X034687Y023852D01*
X034689Y023852D01*
X034691Y023853D01*
X034693Y023854D01*
X034695Y023854D01*
X034701Y023856D01*
X034706Y023857D01*
X034709Y023857D01*
X034713Y023857D01*
X034714D01*
X034715Y023857D01*
X034717D01*
X034719Y023857D01*
X034721Y023856D01*
X034723Y023856D01*
X034728Y023855D01*
X034733Y023853D01*
X034738Y023851D01*
X034741Y02385D01*
X034744Y023849D01*
X034744Y023849D01*
X034744Y023848D01*
X034745Y023848D01*
X034746Y023847D01*
X034747Y023846D01*
X034748Y023845D01*
X034752Y023843D01*
X034755Y023839D01*
X034758Y023835D01*
X034762Y023831D01*
X034765Y023826D01*
Y023825D01*
X034765Y023825D01*
X034766Y023824D01*
X034766Y023823D01*
X034767Y023822D01*
X034767Y02382D01*
X034768Y023818D01*
X034769Y023816D01*
X034769Y023813D01*
X03477Y023811D01*
X034771Y023808D01*
X034771Y023805D01*
X034772Y023799D01*
X034772Y023792D01*
Y023792D01*
Y023791D01*
Y02379D01*
X034772Y023789D01*
Y023787D01*
X034772Y023785D01*
X034772Y023783D01*
X034772Y023781D01*
X034771Y023775D01*
X034769Y02377D01*
X034768Y023764D01*
X034765Y023758D01*
X034765Y023758D01*
X034765Y023757D01*
X034764Y023756D01*
X034764Y023755D01*
X034763Y023754D01*
X034762Y023753D01*
X034759Y023749D01*
X034756Y023746D01*
X034753Y023742D01*
X034748Y023738D01*
X034743Y023735D01*
X034743Y023734D01*
X034743Y023734D01*
X034742Y023734D01*
X034741Y023733D01*
X03474Y023733D01*
X034738Y023732D01*
X034736Y023731D01*
X034734Y023731D01*
X034732Y02373D01*
X03473Y023729D01*
X034724Y023728D01*
X034719Y023727D01*
X034715Y023727D01*
X034711D01*
X034709Y023727D01*
X034708D01*
X034706Y023727D01*
X034704Y023727D01*
X034702Y023728D01*
X034697Y023729D01*
X034691Y02373D01*
X034686Y023732D01*
X034683Y023734D01*
X034681Y023735D01*
X034681Y023735D01*
X03468Y023735D01*
X034679Y023736D01*
X034678Y023736D01*
X034677Y023737D01*
X034676Y023738D01*
X034673Y023741D01*
X034669Y023744D01*
X034666Y023748D01*
X034662Y023753D01*
X034659Y023758D01*
Y023758D01*
X034659Y023759D01*
X034659Y02376D01*
X034658Y023761D01*
X034658Y023762D01*
X034657Y023764D01*
X034656Y023766D01*
X034656Y023768D01*
X034655Y02377D01*
X034654Y023773D01*
X034654Y023776D01*
X034653Y023779D01*
X034652Y023785D01*
X034652Y023792D01*
Y023792D01*
Y023792D01*
Y023793D01*
Y023794D01*
X034652Y023796D01*
Y023797D01*
X034652Y023799D01*
X034653Y023801D01*
X034653Y023805D01*
X034654Y02381D01*
X034655Y023815D01*
X034657Y02382D01*
Y02382D01*
X034657Y02382D01*
X034657Y023821D01*
X034658Y023822D01*
X034658Y023823D01*
X034659Y023824D01*
X03466Y023827D01*
X034662Y023831D01*
X034665Y023834D01*
X034668Y023838D01*
X034671Y023841D01*
X034671D01*
X03467Y023842D01*
X03467Y023842D01*
X034669Y023843D01*
X034668Y023843D01*
X034667Y023844D01*
X034664Y023846D01*
X034661Y023848D01*
X034657Y02385D01*
X034653Y023851D01*
X03465Y023853D01*
X034655Y023865D01*
X034655D01*
X034655Y023864D01*
D02*
G37*
G36*
X034096Y024024D02*
X034098Y024024D01*
X0341Y024024D01*
X034102Y024023D01*
X034104Y024023D01*
X034108Y024022D01*
X034113Y02402D01*
X034115Y024019D01*
X034117Y024018D01*
X03412Y024016D01*
X034122Y024015D01*
X034122Y024015D01*
X034122Y024014D01*
X034123Y024014D01*
X034123Y024013D01*
X034124Y024012D01*
X034125Y024011D01*
X034126Y024009D01*
X034127Y024008D01*
X034128Y024006D01*
X034129Y024004D01*
X034131Y024D01*
X034133Y023995D01*
X034134Y023992D01*
X034134Y023989D01*
X034118Y023988D01*
Y023988D01*
Y023988D01*
X034118Y023989D01*
X034117Y02399D01*
X034117Y023992D01*
X034116Y023995D01*
X034115Y023997D01*
X034114Y024D01*
X034112Y024003D01*
X03411Y024006D01*
X034109Y024006D01*
X034109Y024007D01*
X034107Y024007D01*
X034105Y024009D01*
X034103Y02401D01*
X0341Y024011D01*
X034097Y024011D01*
X034094Y024011D01*
X034092D01*
X034092Y024011D01*
X03409Y024011D01*
X034087Y02401D01*
X034084Y024009D01*
X034081Y024008D01*
X034078Y024006D01*
X034076Y024005D01*
X034075Y024003D01*
X034074Y024003D01*
X034074Y024003D01*
X034074Y024002D01*
X034073Y024002D01*
X034072Y024D01*
X034071Y023997D01*
X034069Y023994D01*
X034068Y02399D01*
X034067Y023986D01*
X034067Y023983D01*
Y023981D01*
Y023981D01*
Y02398D01*
Y023979D01*
X034067Y023979D01*
Y023977D01*
X034067Y023976D01*
X034068Y023973D01*
X034069Y02397D01*
X03407Y023966D01*
X034072Y023963D01*
X034074Y02396D01*
Y02396D01*
X034075Y02396D01*
X034076Y023959D01*
X034077Y023957D01*
X034079Y023956D01*
X034082Y023955D01*
X034086Y023953D01*
X034089Y023953D01*
X034092Y023952D01*
X034095D01*
X034096Y023952D01*
X034098Y023953D01*
X0341Y023953D01*
X034103Y023954D01*
X034105Y023955D01*
X034107Y023956D01*
X034108Y023956D01*
X034108Y023956D01*
X034109Y023957D01*
X034111Y023958D01*
X034112Y023959D01*
X034114Y023961D01*
X034115Y023963D01*
X034117Y023965D01*
X034131Y023963D01*
X034119Y023898D01*
X034056D01*
Y023912D01*
X034107D01*
X034114Y023947D01*
X034113Y023946D01*
X034113Y023946D01*
X034113Y023946D01*
X034112Y023945D01*
X034111Y023945D01*
X034109Y023944D01*
X034106Y023943D01*
X034103Y023941D01*
X034099Y02394D01*
X034094Y023939D01*
X034092Y023939D01*
X034088D01*
X034087Y023939D01*
X034086Y023939D01*
X034084Y023939D01*
X034082Y023939D01*
X03408Y02394D01*
X034076Y023941D01*
X034073Y023942D01*
X034071Y023943D01*
X034069Y023945D01*
X034066Y023946D01*
X034064Y023948D01*
X034062Y02395D01*
X034062Y02395D01*
X034061Y023951D01*
X034061Y023951D01*
X03406Y023952D01*
X034059Y023953D01*
X034058Y023955D01*
X034057Y023956D01*
X034056Y023958D01*
X034055Y02396D01*
X034054Y023962D01*
X034053Y023965D01*
X034052Y023967D01*
X034052Y02397D01*
X034051Y023973D01*
X034051Y023976D01*
X03405Y023979D01*
Y02398D01*
Y02398D01*
Y023981D01*
X034051Y023982D01*
X034051Y023984D01*
X034051Y023985D01*
X034051Y023987D01*
X034052Y023989D01*
X034053Y023994D01*
X034055Y023999D01*
X034056Y024002D01*
X034057Y024004D01*
X034059Y024007D01*
X03406Y024009D01*
X034061Y024009D01*
X034061Y02401D01*
X034062Y02401D01*
X034063Y024011D01*
X034064Y024012D01*
X034065Y024014D01*
X034067Y024015D01*
X034069Y024017D01*
X034071Y024018D01*
X034074Y024019D01*
X034077Y024021D01*
X03408Y024022D01*
X034083Y024023D01*
X034086Y024023D01*
X03409Y024024D01*
X034094Y024024D01*
X034095D01*
X034096Y024024D01*
D02*
G37*
G36*
X034622D02*
X034624D01*
X034626Y024024D01*
X034628Y024024D01*
X034632Y024023D01*
X034637Y024022D01*
X034642Y024021D01*
X034646Y024019D01*
X034647D01*
X034647Y024019D01*
X034648Y024019D01*
X034648Y024018D01*
X03465Y024017D01*
X034653Y024016D01*
X034656Y024013D01*
X034659Y024011D01*
X034662Y024008D01*
X034665Y024004D01*
Y024004D01*
X034665Y024004D01*
X034665Y024003D01*
X034666Y024003D01*
X034666Y024002D01*
X034667Y024001D01*
X034668Y023998D01*
X034669Y023994D01*
X03467Y023991D01*
X034671Y023986D01*
X034671Y023982D01*
X034656Y02398D01*
Y02398D01*
Y023981D01*
X034656Y023981D01*
Y023982D01*
X034655Y023983D01*
X034655Y023986D01*
X034654Y023988D01*
X034653Y023991D01*
X034652Y023993D01*
X034651Y023996D01*
X03465Y023996D01*
X03465Y023997D01*
X034649Y023998D01*
X034648Y023999D01*
X034646Y024001D01*
X034644Y024003D01*
X034641Y024004D01*
X034638Y024006D01*
X034638D01*
X034638Y024006D01*
X034637Y024006D01*
X034637Y024006D01*
X034635Y024007D01*
X034632Y024007D01*
X03463Y024008D01*
X034626Y024009D01*
X034623Y024009D01*
X034619Y024009D01*
X034617D01*
X034615Y024009D01*
X034613Y024009D01*
X03461Y024009D01*
X034608Y024008D01*
X034605Y024007D01*
X034602Y024007D01*
X034602Y024006D01*
X034601Y024006D01*
X034599Y024005D01*
X034598Y024005D01*
X034596Y024003D01*
X034594Y024002D01*
X034592Y024001D01*
X034591Y023999D01*
X034591Y023999D01*
X03459Y023998D01*
X03459Y023997D01*
X034589Y023995D01*
X034588Y023994D01*
X034588Y023992D01*
X034588Y02399D01*
X034587Y023988D01*
Y023988D01*
Y023987D01*
X034588Y023986D01*
X034588Y023984D01*
X034588Y023983D01*
X034589Y023981D01*
X03459Y023979D01*
X034591Y023978D01*
X034591Y023977D01*
X034592Y023977D01*
X034592Y023976D01*
X034594Y023975D01*
X034595Y023974D01*
X034597Y023973D01*
X0346Y023971D01*
X034602Y02397D01*
X034602Y02397D01*
X034603Y02397D01*
X034605Y023969D01*
X034606Y023969D01*
X034607Y023969D01*
X034608Y023968D01*
X03461Y023968D01*
X034612Y023967D01*
X034614Y023967D01*
X034616Y023966D01*
X034619Y023966D01*
X034622Y023965D01*
X034625Y023964D01*
X034625D01*
X034625Y023964D01*
X034626Y023964D01*
X034627Y023963D01*
X034629Y023963D01*
X03463Y023963D01*
X034634Y023962D01*
X034638Y02396D01*
X034642Y023959D01*
X034646Y023958D01*
X034648Y023957D01*
X034649Y023956D01*
X034649D01*
X034649Y023956D01*
X03465Y023955D01*
X034652Y023955D01*
X034654Y023953D01*
X034656Y023951D01*
X034658Y023949D01*
X034661Y023947D01*
X034662Y023945D01*
X034663Y023944D01*
X034663Y023943D01*
X034664Y023942D01*
X034665Y02394D01*
X034665Y023938D01*
X034666Y023935D01*
X034667Y023932D01*
X034667Y023929D01*
Y023929D01*
Y023928D01*
Y023928D01*
Y023927D01*
X034666Y023925D01*
X034666Y023923D01*
X034665Y02392D01*
X034665Y023917D01*
X034663Y023914D01*
X034661Y023911D01*
Y023911D01*
X034661Y023911D01*
X03466Y02391D01*
X034659Y023908D01*
X034657Y023906D01*
X034655Y023904D01*
X034653Y023902D01*
X034649Y0239D01*
X034646Y023898D01*
X034645D01*
X034645Y023898D01*
X034644Y023898D01*
X034644Y023898D01*
X034643Y023897D01*
X034642Y023897D01*
X034639Y023896D01*
X034635Y023895D01*
X034631Y023895D01*
X034627Y023894D01*
X034622Y023894D01*
X03462D01*
X034619Y023894D01*
X034618D01*
X034614Y023894D01*
X03461Y023895D01*
X034606Y023896D01*
X034602Y023897D01*
X034598Y023898D01*
X034598D01*
X034597Y023899D01*
X034597Y023899D01*
X034596Y023899D01*
X034594Y0239D01*
X034592Y023902D01*
X034589Y023904D01*
X034586Y023906D01*
X034584Y023909D01*
X034582Y023912D01*
Y023912D01*
X034581Y023912D01*
X034581Y023913D01*
X034581Y023913D01*
X03458Y023915D01*
X034579Y023918D01*
X034577Y02392D01*
X034576Y023924D01*
X034576Y023928D01*
X034575Y023932D01*
X034591Y023933D01*
Y023933D01*
Y023932D01*
X034591Y023932D01*
X034592Y023931D01*
X034592Y023929D01*
X034593Y023926D01*
X034594Y023923D01*
X034596Y02392D01*
X034598Y023918D01*
X0346Y023915D01*
X0346Y023915D01*
X034601Y023914D01*
X034603Y023913D01*
X034606Y023912D01*
X034609Y023911D01*
X034612Y02391D01*
X034617Y023909D01*
X034622Y023909D01*
X034624D01*
X034626Y023909D01*
X034627Y023909D01*
X03463Y02391D01*
X034634Y02391D01*
X034638Y023911D01*
X034641Y023913D01*
X034642Y023914D01*
X034644Y023914D01*
X034644Y023915D01*
X034645Y023915D01*
X034646Y023917D01*
X034647Y023918D01*
X034648Y02392D01*
X03465Y023922D01*
X03465Y023925D01*
X034651Y023928D01*
Y023928D01*
Y023929D01*
X03465Y02393D01*
X03465Y023932D01*
X03465Y023933D01*
X034649Y023935D01*
X034648Y023937D01*
X034646Y023939D01*
X034646Y023939D01*
X034645Y02394D01*
X034644Y02394D01*
X034643Y023941D01*
X034642Y023941D01*
X034641Y023942D01*
X034639Y023942D01*
X034638Y023943D01*
X034636Y023944D01*
X034633Y023945D01*
X034631Y023945D01*
X034628Y023946D01*
X034624Y023947D01*
X034621Y023948D01*
X034621D01*
X03462Y023948D01*
X034619Y023948D01*
X034618Y023949D01*
X034616Y023949D01*
X034614Y02395D01*
X034612Y02395D01*
X03461Y023951D01*
X034605Y023952D01*
X0346Y023953D01*
X034598Y023954D01*
X034596Y023955D01*
X034594Y023955D01*
X034593Y023956D01*
X034593D01*
X034592Y023956D01*
X034592Y023957D01*
X034591Y023957D01*
X034589Y023958D01*
X034587Y023959D01*
X034584Y023961D01*
X034581Y023964D01*
X034579Y023966D01*
X034577Y023969D01*
X034576Y023969D01*
X034576Y02397D01*
X034575Y023972D01*
X034574Y023974D01*
X034573Y023977D01*
X034572Y02398D01*
X034572Y023983D01*
X034571Y023987D01*
Y023987D01*
Y023987D01*
Y023988D01*
Y023988D01*
X034572Y02399D01*
X034572Y023993D01*
X034573Y023996D01*
X034574Y023999D01*
X034575Y024002D01*
X034577Y024006D01*
Y024006D01*
X034577Y024006D01*
X034578Y024007D01*
X03458Y024009D01*
X034581Y024011D01*
X034584Y024013D01*
X034587Y024015D01*
X03459Y024017D01*
X034594Y024019D01*
X034594D01*
X034594Y024019D01*
X034595Y02402D01*
X034596Y02402D01*
X034597Y02402D01*
X034598Y024021D01*
X034601Y024022D01*
X034604Y024023D01*
X034608Y024023D01*
X034613Y024024D01*
X034618Y024024D01*
X034621D01*
X034622Y024024D01*
D02*
G37*
G36*
X034498D02*
X034499D01*
X034501Y024024D01*
X034503Y024023D01*
X034506Y024023D01*
X034511Y024022D01*
X034517Y024021D01*
X034522Y024019D01*
X034525Y024018D01*
X034527Y024016D01*
X034527Y024016D01*
X034528Y024016D01*
X034529Y024015D01*
X034529Y024014D01*
X03453Y024014D01*
X034532Y024013D01*
X034533Y024011D01*
X034535Y02401D01*
X034536Y024008D01*
X034538Y024007D01*
X034541Y024002D01*
X034544Y023997D01*
X034547Y023992D01*
Y023992D01*
X034547Y023991D01*
X034547Y02399D01*
X034548Y023989D01*
X034548Y023988D01*
X034549Y023986D01*
X034549Y023984D01*
X03455Y023982D01*
X034551Y023979D01*
X034551Y023977D01*
X034552Y023971D01*
X034553Y023965D01*
X034553Y023958D01*
Y023958D01*
Y023957D01*
Y023956D01*
X034553Y023955D01*
Y023953D01*
X034553Y023951D01*
X034553Y023949D01*
X034552Y023947D01*
X034551Y023941D01*
X03455Y023935D01*
X034548Y02393D01*
X034546Y023924D01*
X034546Y023924D01*
X034545Y023923D01*
X034545Y023922D01*
X034544Y023922D01*
X034544Y02392D01*
X034543Y023919D01*
X03454Y023916D01*
X034537Y023912D01*
X034534Y023908D01*
X034529Y023905D01*
X034525Y023902D01*
X034524Y023901D01*
X034524Y023901D01*
X034523Y023901D01*
X034522Y0239D01*
X034521Y0239D01*
X034519Y023899D01*
X034517Y023898D01*
X034515Y023898D01*
X034513Y023897D01*
X034511Y023896D01*
X034506Y023895D01*
X0345Y023894D01*
X034494Y023894D01*
X034492D01*
X034491Y023894D01*
X034489Y023894D01*
X034487Y023894D01*
X034485Y023895D01*
X034483Y023895D01*
X034478Y023896D01*
X034473Y023898D01*
X03447Y023899D01*
X034467Y0239D01*
X034465Y023902D01*
X034462Y023904D01*
X034462Y023904D01*
X034462Y023904D01*
X034461Y023904D01*
X03446Y023905D01*
X034459Y023906D01*
X034458Y023908D01*
X034456Y023909D01*
X034455Y02391D01*
X034454Y023912D01*
X034452Y023914D01*
X03445Y023917D01*
X034449Y023919D01*
X034448Y023922D01*
X034446Y023925D01*
X034445Y023927D01*
X034444Y023931D01*
X03446Y023935D01*
Y023934D01*
X034461Y023934D01*
X034461Y023933D01*
X034461Y023932D01*
X034462Y023931D01*
X034462Y02393D01*
X034464Y023927D01*
X034466Y023924D01*
X034468Y02392D01*
X034471Y023917D01*
X034473Y023914D01*
X034474Y023914D01*
X034475Y023913D01*
X034477Y023912D01*
X034479Y023911D01*
X034482Y02391D01*
X034486Y023909D01*
X03449Y023908D01*
X034494Y023908D01*
X034496D01*
X034497Y023908D01*
X034498D01*
X034499Y023908D01*
X034503Y023909D01*
X034507Y02391D01*
X034511Y023911D01*
X034515Y023913D01*
X034519Y023915D01*
X034519D01*
X034519Y023916D01*
X03452Y023916D01*
X034522Y023918D01*
X034524Y02392D01*
X034526Y023923D01*
X034529Y023926D01*
X034531Y02393D01*
X034532Y023934D01*
Y023934D01*
X034533Y023935D01*
X034533Y023935D01*
X034533Y023936D01*
X034533Y023937D01*
X034534Y023938D01*
X034534Y023941D01*
X034535Y023945D01*
X034536Y023949D01*
X034536Y023953D01*
X034536Y023958D01*
Y023958D01*
Y023959D01*
Y02396D01*
Y023961D01*
X034536Y023962D01*
Y023964D01*
X034536Y023966D01*
X034536Y023968D01*
X034535Y023972D01*
X034534Y023977D01*
X034533Y023981D01*
X034532Y023986D01*
Y023986D01*
X034531Y023987D01*
X034531Y023987D01*
X034531Y023988D01*
X03453Y02399D01*
X034528Y023993D01*
X034526Y023996D01*
X034523Y023999D01*
X034521Y024002D01*
X034517Y024004D01*
X034517D01*
X034517Y024004D01*
X034516Y024005D01*
X034515Y024005D01*
X034514Y024005D01*
X034513Y024006D01*
X034511Y024007D01*
X034507Y024008D01*
X034504Y024009D01*
X0345Y02401D01*
X034496Y02401D01*
X034494D01*
X034493Y02401D01*
X034492D01*
X034491Y02401D01*
X034487Y024009D01*
X034484Y024008D01*
X03448Y024007D01*
X034476Y024005D01*
X034474Y024003D01*
X034472Y024002D01*
X034472Y024002D01*
X034472Y024002D01*
X034471Y024001D01*
X03447Y024001D01*
X03447Y024D01*
X034469Y023999D01*
X034468Y023997D01*
X034467Y023996D01*
X034466Y023994D01*
X034464Y023993D01*
X034463Y023991D01*
X034462Y023989D01*
X034461Y023986D01*
X03446Y023984D01*
X034459Y023981D01*
X034459Y023978D01*
X034442Y023982D01*
Y023982D01*
X034442Y023983D01*
X034442Y023984D01*
X034443Y023986D01*
X034444Y023987D01*
X034444Y023989D01*
X034445Y023991D01*
X034446Y023994D01*
X034449Y023999D01*
X034452Y024004D01*
X034454Y024007D01*
X034456Y024009D01*
X034458Y024011D01*
X034461Y024013D01*
X034461Y024014D01*
X034461Y024014D01*
X034462Y024014D01*
X034463Y024015D01*
X034465Y024016D01*
X034466Y024017D01*
X034468Y024018D01*
X03447Y024019D01*
X034473Y02402D01*
X034475Y024021D01*
X034478Y024022D01*
X034481Y024023D01*
X034484Y024023D01*
X034487Y024024D01*
X034491Y024024D01*
X034494Y024024D01*
X034496D01*
X034498Y024024D01*
D02*
G37*
G36*
X034772Y024022D02*
Y024021D01*
Y02402D01*
X034772Y024019D01*
X034772Y024017D01*
X034772Y024015D01*
X034771Y024013D01*
X03477Y024011D01*
Y024011D01*
X03477Y024011D01*
X03477Y02401D01*
X034769Y024008D01*
X034768Y024006D01*
X034767Y024003D01*
X034765Y024001D01*
X034763Y023998D01*
X03476Y023995D01*
Y023994D01*
X03476Y023994D01*
X034759Y023993D01*
X034757Y023991D01*
X034755Y023989D01*
X034752Y023986D01*
X034749Y023983D01*
X034745Y023979D01*
X03474Y023976D01*
X03474Y023975D01*
X034739Y023975D01*
X034738Y023974D01*
X034737Y023973D01*
X034735Y023971D01*
X034733Y02397D01*
X034731Y023968D01*
X034729Y023966D01*
X034724Y023962D01*
X03472Y023957D01*
X034717Y023955D01*
X034715Y023953D01*
X034714Y023951D01*
X034712Y023949D01*
Y023949D01*
X034712Y023949D01*
X034711Y023948D01*
X034711Y023947D01*
X03471Y023945D01*
X034708Y023943D01*
X034707Y02394D01*
X034706Y023937D01*
X034705Y023933D01*
X034705Y02393D01*
Y02393D01*
Y02393D01*
X034705Y023929D01*
X034705Y023927D01*
X034706Y023925D01*
X034706Y023922D01*
X034708Y02392D01*
X034709Y023917D01*
X034711Y023915D01*
X034712Y023914D01*
X034713Y023914D01*
X034714Y023913D01*
X034716Y023911D01*
X034719Y02391D01*
X034721Y023909D01*
X034725Y023908D01*
X034729Y023908D01*
X03473D01*
X034731Y023908D01*
X034733Y023909D01*
X034735Y023909D01*
X034738Y02391D01*
X034741Y023911D01*
X034744Y023913D01*
X034747Y023915D01*
X034747Y023915D01*
X034748Y023916D01*
X034749Y023918D01*
X03475Y02392D01*
X034751Y023922D01*
X034752Y023926D01*
X034753Y023929D01*
X034754Y023934D01*
X034769Y023932D01*
Y023932D01*
X034769Y023931D01*
Y02393D01*
X034769Y023929D01*
X034769Y023928D01*
X034768Y023926D01*
X034768Y023924D01*
X034767Y023922D01*
X034766Y023918D01*
X034764Y023913D01*
X034762Y023911D01*
X034761Y023909D01*
X034759Y023907D01*
X034757Y023905D01*
X034757Y023905D01*
X034757Y023905D01*
X034756Y023904D01*
X034755Y023904D01*
X034754Y023903D01*
X034753Y023902D01*
X034751Y023901D01*
X03475Y0239D01*
X034748Y023899D01*
X034745Y023898D01*
X034743Y023898D01*
X03474Y023897D01*
X034738Y023896D01*
X034735Y023896D01*
X034732Y023896D01*
X034728Y023896D01*
X034727D01*
X034725Y023896D01*
X034724Y023896D01*
X034722Y023896D01*
X03472Y023896D01*
X034718Y023897D01*
X034713Y023898D01*
X034709Y0239D01*
X034706Y023901D01*
X034704Y023902D01*
X034702Y023904D01*
X0347Y023906D01*
X034699Y023906D01*
X034699Y023906D01*
X034699Y023907D01*
X034698Y023908D01*
X034697Y023908D01*
X034696Y02391D01*
X034695Y023911D01*
X034694Y023913D01*
X034692Y023916D01*
X034691Y02392D01*
X03469Y023923D01*
X034689Y023925D01*
X034689Y023928D01*
X034689Y02393D01*
Y023931D01*
Y023932D01*
X034689Y023933D01*
X034689Y023935D01*
X03469Y023937D01*
X03469Y02394D01*
X034691Y023943D01*
X034692Y023945D01*
X034692Y023946D01*
X034693Y023947D01*
X034693Y023948D01*
X034695Y02395D01*
X034696Y023952D01*
X034698Y023955D01*
X0347Y023958D01*
X034703Y023961D01*
X034703Y023961D01*
X034704Y023962D01*
X034705Y023963D01*
X034706Y023964D01*
X034707Y023965D01*
X034708Y023967D01*
X03471Y023968D01*
X034711Y02397D01*
X034713Y023972D01*
X034715Y023974D01*
X034718Y023976D01*
X03472Y023978D01*
X034723Y02398D01*
X034726Y023983D01*
X034726Y023983D01*
X034727Y023983D01*
X034727Y023984D01*
X034728Y023985D01*
X034729Y023986D01*
X034731Y023987D01*
X034734Y023989D01*
X034737Y023992D01*
X03474Y023995D01*
X034742Y023997D01*
X034743Y023998D01*
X034744Y023999D01*
X034744Y023999D01*
X034745Y024D01*
X034746Y024D01*
X034747Y024001D01*
X034748Y024003D01*
X034749Y024004D01*
X034751Y024007D01*
X034689D01*
Y024022D01*
X034772D01*
Y024022D01*
D02*
G37*
G36*
X034385Y023924D02*
X034385Y023924D01*
X034386Y023925D01*
X034387Y023926D01*
X034389Y023927D01*
X034391Y023928D01*
X034394Y02393D01*
X034396Y023932D01*
X0344Y023934D01*
X0344D01*
X0344Y023935D01*
X034401Y023935D01*
X034403Y023936D01*
X034405Y023937D01*
X034408Y023939D01*
X03441Y02394D01*
X034413Y023941D01*
X034416Y023942D01*
Y023927D01*
X034416D01*
X034415Y023927D01*
X034415Y023927D01*
X034414Y023926D01*
X034413Y023926D01*
X034411Y023925D01*
X034408Y023923D01*
X034405Y023921D01*
X034401Y023918D01*
X034397Y023916D01*
X034393Y023912D01*
X034393Y023912D01*
X034393Y023912D01*
X034392Y023912D01*
X034392Y023911D01*
X03439Y023909D01*
X034388Y023907D01*
X034386Y023904D01*
X034383Y023902D01*
X034381Y023899D01*
X034379Y023896D01*
X034369D01*
Y024022D01*
X034385D01*
Y023924D01*
D02*
G37*
G36*
X034292Y024024D02*
X034293Y024024D01*
X034295Y024024D01*
X034297Y024023D01*
X034299Y024023D01*
X034304Y024021D01*
X034307Y024021D01*
X034309Y02402D01*
X034312Y024018D01*
X034314Y024017D01*
X034317Y024015D01*
X034319Y024013D01*
X034319Y024013D01*
X034319Y024013D01*
X03432Y024012D01*
X034321Y024011D01*
X034321Y02401D01*
X034322Y024009D01*
X034323Y024007D01*
X034324Y024006D01*
X034325Y024004D01*
X034326Y024002D01*
X034328Y023997D01*
X034329Y023994D01*
X034329Y023992D01*
X03433Y023989D01*
X03433Y023986D01*
Y023986D01*
Y023985D01*
Y023985D01*
X03433Y023984D01*
Y023983D01*
X03433Y023981D01*
X034329Y023979D01*
X034329Y023975D01*
X034327Y023972D01*
X034326Y023969D01*
X034324Y023965D01*
Y023965D01*
X034323Y023965D01*
X034323Y023964D01*
X034321Y023963D01*
X034319Y023961D01*
X034317Y023959D01*
X034314Y023957D01*
X03431Y023955D01*
X034306Y023954D01*
X034306D01*
X034306Y023954D01*
X034307Y023954D01*
X034308Y023953D01*
X034309Y023953D01*
X034311Y023951D01*
X034314Y02395D01*
X034316Y023948D01*
X034318Y023946D01*
X03432Y023944D01*
X034321Y023944D01*
X034321Y023943D01*
X034322Y023941D01*
X034323Y02394D01*
X034323Y023937D01*
X034324Y023935D01*
X034325Y023931D01*
X034325Y023928D01*
Y023928D01*
Y023928D01*
Y023927D01*
X034325Y023926D01*
X034325Y023925D01*
X034324Y023923D01*
X034324Y02392D01*
X034323Y023916D01*
X034321Y023913D01*
X03432Y023911D01*
X034318Y023909D01*
X034317Y023907D01*
X034315Y023905D01*
X034315Y023905D01*
X034315Y023905D01*
X034314Y023904D01*
X034313Y023904D01*
X034312Y023903D01*
X034311Y023902D01*
X03431Y023901D01*
X034308Y0239D01*
X034306Y023899D01*
X034304Y023898D01*
X034302Y023898D01*
X0343Y023897D01*
X034295Y023896D01*
X034292Y023896D01*
X034289Y023896D01*
X034287D01*
X034286Y023896D01*
X034285Y023896D01*
X034283Y023896D01*
X034281Y023896D01*
X034279Y023897D01*
X034275Y023898D01*
X034271Y0239D01*
X034268Y023901D01*
X034266Y023902D01*
X034264Y023904D01*
X034262Y023905D01*
X034262Y023905D01*
X034262Y023906D01*
X034261Y023906D01*
X034261Y023907D01*
X03426Y023908D01*
X034259Y023909D01*
X034257Y023912D01*
X034255Y023915D01*
X034254Y023919D01*
X034252Y023924D01*
X034252Y023926D01*
X034252Y023929D01*
Y023929D01*
Y023929D01*
Y02393D01*
X034252Y023932D01*
X034253Y023934D01*
X034253Y023936D01*
X034254Y023939D01*
X034255Y023941D01*
X034257Y023944D01*
X034257Y023944D01*
X034258Y023945D01*
X034259Y023946D01*
X03426Y023948D01*
X034262Y023949D01*
X034265Y023951D01*
X034267Y023953D01*
X034271Y023954D01*
X03427D01*
X03427Y023954D01*
X03427Y023954D01*
X034269Y023955D01*
X034267Y023956D01*
X034264Y023957D01*
X034261Y023959D01*
X034258Y023961D01*
X034256Y023963D01*
X034253Y023966D01*
Y023966D01*
X034253Y023967D01*
X034252Y023968D01*
X034251Y023969D01*
X03425Y023972D01*
X034249Y023975D01*
X034248Y023978D01*
X034247Y023982D01*
X034247Y023986D01*
Y023986D01*
Y023987D01*
Y023988D01*
X034247Y023989D01*
X034247Y02399D01*
X034248Y023992D01*
X034248Y023994D01*
X034248Y023996D01*
X03425Y024D01*
X034251Y024002D01*
X034252Y024004D01*
X034253Y024007D01*
X034255Y024009D01*
X034256Y024011D01*
X034258Y024013D01*
X034259Y024013D01*
X034259Y024014D01*
X03426Y024014D01*
X03426Y024015D01*
X034262Y024016D01*
X034263Y024017D01*
X034265Y024018D01*
X034266Y024019D01*
X034268Y02402D01*
X034271Y024021D01*
X034273Y024022D01*
X034276Y024023D01*
X034279Y024023D01*
X034282Y024024D01*
X034285Y024024D01*
X034288Y024024D01*
X03429D01*
X034292Y024024D01*
D02*
G37*
G36*
X034189Y023924D02*
X034189Y023924D01*
X03419Y023925D01*
X034191Y023926D01*
X034193Y023927D01*
X034195Y023928D01*
X034198Y02393D01*
X034201Y023932D01*
X034204Y023934D01*
X034204D01*
X034204Y023935D01*
X034205Y023935D01*
X034207Y023936D01*
X034209Y023937D01*
X034212Y023939D01*
X034215Y02394D01*
X034217Y023941D01*
X03422Y023942D01*
Y023927D01*
X03422D01*
X03422Y023927D01*
X034219Y023927D01*
X034218Y023926D01*
X034217Y023926D01*
X034216Y023925D01*
X034212Y023923D01*
X034209Y023921D01*
X034205Y023918D01*
X034201Y023916D01*
X034197Y023912D01*
X034197Y023912D01*
X034197Y023912D01*
X034197Y023912D01*
X034196Y023911D01*
X034194Y023909D01*
X034192Y023907D01*
X03419Y023904D01*
X034187Y023902D01*
X034185Y023899D01*
X034184Y023896D01*
X034174D01*
Y024022D01*
X034189D01*
Y023924D01*
D02*
G37*
%LPC*%
G36*
X037662Y023843D02*
X037661D01*
X037659Y023843D01*
X037657Y023842D01*
X037654Y023842D01*
X037651Y023841D01*
X037648Y023841D01*
X037645Y023839D01*
X037646Y023839D01*
X037647Y023839D01*
X037648Y023838D01*
X03765Y023837D01*
X037653Y023835D01*
X037655Y023834D01*
X037659Y023833D01*
X037662Y023832D01*
X037658Y02382D01*
X037657D01*
X037657Y02382D01*
X037656Y023821D01*
X037655Y023821D01*
X037654Y023821D01*
X037653Y023822D01*
X037649Y023823D01*
X037645Y023825D01*
X037641Y023827D01*
X037638Y023829D01*
X037634Y023832D01*
X037634Y023832D01*
X037633Y023832D01*
X037632Y023831D01*
X037631Y02383D01*
X03763Y023828D01*
X037629Y023827D01*
X037628Y023825D01*
X037626Y023822D01*
X037625Y023819D01*
X037624Y023816D01*
X037623Y023813D01*
X037621Y02381D01*
X03762Y023806D01*
X03762Y023801D01*
X037619Y023797D01*
X037619Y023792D01*
Y023792D01*
Y023791D01*
Y02379D01*
Y023789D01*
X037619Y023788D01*
Y023786D01*
X037619Y023785D01*
X03762Y023783D01*
X03762Y023779D01*
X037621Y023774D01*
X037623Y02377D01*
X037624Y023765D01*
Y023765D01*
X037625Y023765D01*
X037625Y023764D01*
X037625Y023763D01*
X037627Y023761D01*
X037628Y023759D01*
X03763Y023756D01*
X037633Y023753D01*
X037636Y02375D01*
X03764Y023747D01*
X03764D01*
X03764Y023747D01*
X037641Y023747D01*
X037641Y023746D01*
X037642Y023746D01*
X037643Y023745D01*
X037646Y023744D01*
X037649Y023743D01*
X037653Y023742D01*
X037658Y023741D01*
X037662Y023741D01*
X037664D01*
X037665Y023741D01*
X037667Y023741D01*
X037669Y023742D01*
X037671Y023742D01*
X037673Y023743D01*
X037675Y023743D01*
X037678Y023744D01*
X03768Y023745D01*
X037683Y023746D01*
X037686Y023748D01*
X037688Y02375D01*
X037691Y023752D01*
X037693Y023754D01*
X037693Y023754D01*
X037694Y023754D01*
X037694Y023755D01*
X037695Y023756D01*
X037696Y023758D01*
X037697Y023759D01*
X037698Y023761D01*
X037699Y023763D01*
X0377Y023766D01*
X037702Y023769D01*
X037702Y023772D01*
X037703Y023775D01*
X037704Y023779D01*
X037705Y023783D01*
X037705Y023787D01*
X037705Y023792D01*
Y023792D01*
Y023793D01*
Y023794D01*
X037705Y023796D01*
X037705Y023798D01*
X037705Y0238D01*
X037704Y023803D01*
X037704Y023806D01*
X037702Y023812D01*
X037702Y023815D01*
X0377Y023818D01*
X037699Y023821D01*
X037697Y023824D01*
X037696Y023827D01*
X037693Y02383D01*
X037693Y02383D01*
X037693Y02383D01*
X037692Y023831D01*
X037691Y023832D01*
X03769Y023833D01*
X037688Y023834D01*
X037687Y023835D01*
X037685Y023836D01*
X037683Y023837D01*
X03768Y023839D01*
X037678Y02384D01*
X037675Y023841D01*
X037672Y023841D01*
X037669Y023842D01*
X037666Y023843D01*
X037662Y023843D01*
D02*
G37*
G36*
X037239Y024011D02*
X037237D01*
X037237Y024011D01*
X037234Y024011D01*
X037232Y024011D01*
X037229Y02401D01*
X037226Y024009D01*
X037223Y024007D01*
X03722Y024004D01*
X03722Y024004D01*
X037219Y024003D01*
X037218Y024001D01*
X037216Y023999D01*
X037215Y023997D01*
X037214Y023994D01*
X037213Y02399D01*
X037213Y023986D01*
Y023986D01*
Y023986D01*
Y023985D01*
X037213Y023985D01*
X037213Y023983D01*
X037214Y02398D01*
X037215Y023977D01*
X037216Y023974D01*
X037218Y023971D01*
X03722Y023968D01*
X037221Y023968D01*
X037222Y023967D01*
X037223Y023966D01*
X037225Y023964D01*
X037228Y023963D01*
X037231Y023962D01*
X037235Y023961D01*
X037239Y023961D01*
X03724D01*
X037241Y023961D01*
X037243Y023961D01*
X037245Y023961D01*
X037248Y023962D01*
X037251Y023964D01*
X037254Y023965D01*
X037257Y023968D01*
X037257Y023968D01*
X037258Y023969D01*
X037259Y023971D01*
X037261Y023973D01*
X037262Y023975D01*
X037263Y023979D01*
X037264Y023982D01*
X037264Y023986D01*
Y023986D01*
Y023987D01*
X037264Y023988D01*
X037264Y02399D01*
X037263Y023992D01*
X037263Y023994D01*
X037262Y023996D01*
X037261Y023999D01*
X037261Y023999D01*
X037261Y024D01*
X03726Y024001D01*
X037259Y024002D01*
X037258Y024004D01*
X037256Y024005D01*
X037254Y024007D01*
X037252Y024008D01*
X037252Y024008D01*
X037251Y024009D01*
X03725Y024009D01*
X037248Y02401D01*
X037246Y02401D01*
X037244Y024011D01*
X037241Y024011D01*
X037239Y024011D01*
D02*
G37*
G36*
Y023948D02*
X037238D01*
X037237Y023948D01*
X037235Y023948D01*
X037233Y023947D01*
X037231Y023947D01*
X037228Y023946D01*
X037226Y023944D01*
X037224Y023942D01*
X037224Y023942D01*
X037223Y023941D01*
X037222Y02394D01*
X037221Y023939D01*
X03722Y023937D01*
X037219Y023934D01*
X037218Y023931D01*
X037218Y023928D01*
Y023928D01*
Y023928D01*
Y023927D01*
X037218Y023925D01*
X037219Y023923D01*
X037219Y023921D01*
X03722Y023919D01*
X037222Y023916D01*
X037224Y023914D01*
X037224Y023914D01*
X037225Y023913D01*
X037226Y023912D01*
X037228Y023911D01*
X03723Y02391D01*
X037232Y023909D01*
X037235Y023908D01*
X037239Y023908D01*
X03724D01*
X037242Y023909D01*
X037244Y023909D01*
X037246Y02391D01*
X037249Y023911D01*
X037251Y023912D01*
X037253Y023914D01*
X037254Y023914D01*
X037254Y023915D01*
X037255Y023916D01*
X037256Y023918D01*
X037257Y02392D01*
X037258Y023922D01*
X037259Y023925D01*
X037259Y023928D01*
Y023928D01*
Y023928D01*
X037259Y023929D01*
X037259Y023931D01*
X037258Y023933D01*
X037258Y023935D01*
X037257Y023938D01*
X037255Y02394D01*
X037253Y023942D01*
X037253Y023943D01*
X037252Y023943D01*
X037251Y023944D01*
X037249Y023945D01*
X037247Y023946D01*
X037245Y023947D01*
X037242Y023948D01*
X037239Y023948D01*
D02*
G37*
G36*
X046062Y023843D02*
X046061D01*
X046059Y023843D01*
X046057Y023842D01*
X046054Y023842D01*
X046051Y023841D01*
X046048Y023841D01*
X046045Y023839D01*
X046046Y023839D01*
X046047Y023839D01*
X046048Y023838D01*
X04605Y023837D01*
X046053Y023835D01*
X046055Y023834D01*
X046059Y023833D01*
X046062Y023832D01*
X046058Y02382D01*
X046057D01*
X046057Y02382D01*
X046056Y023821D01*
X046055Y023821D01*
X046054Y023821D01*
X046053Y023822D01*
X046049Y023823D01*
X046045Y023825D01*
X046041Y023827D01*
X046038Y023829D01*
X046034Y023832D01*
X046034Y023832D01*
X046033Y023832D01*
X046032Y023831D01*
X046031Y02383D01*
X04603Y023828D01*
X046029Y023827D01*
X046028Y023825D01*
X046026Y023822D01*
X046025Y023819D01*
X046024Y023816D01*
X046023Y023813D01*
X046021Y02381D01*
X04602Y023806D01*
X04602Y023801D01*
X046019Y023797D01*
X046019Y023792D01*
Y023792D01*
Y023791D01*
Y02379D01*
Y023789D01*
X046019Y023788D01*
Y023786D01*
X046019Y023785D01*
X04602Y023783D01*
X04602Y023779D01*
X046021Y023774D01*
X046023Y02377D01*
X046024Y023765D01*
Y023765D01*
X046025Y023765D01*
X046025Y023764D01*
X046025Y023763D01*
X046027Y023761D01*
X046028Y023759D01*
X04603Y023756D01*
X046033Y023753D01*
X046036Y02375D01*
X04604Y023747D01*
X04604D01*
X04604Y023747D01*
X046041Y023747D01*
X046041Y023746D01*
X046042Y023746D01*
X046043Y023745D01*
X046046Y023744D01*
X046049Y023743D01*
X046053Y023742D01*
X046058Y023741D01*
X046062Y023741D01*
X046064D01*
X046065Y023741D01*
X046067Y023741D01*
X046069Y023742D01*
X046071Y023742D01*
X046073Y023743D01*
X046075Y023743D01*
X046078Y023744D01*
X04608Y023745D01*
X046083Y023746D01*
X046086Y023748D01*
X046088Y02375D01*
X046091Y023752D01*
X046093Y023754D01*
X046093Y023754D01*
X046094Y023754D01*
X046094Y023755D01*
X046095Y023756D01*
X046096Y023758D01*
X046097Y023759D01*
X046098Y023761D01*
X046099Y023763D01*
X0461Y023766D01*
X046102Y023769D01*
X046102Y023772D01*
X046103Y023775D01*
X046104Y023779D01*
X046105Y023783D01*
X046105Y023787D01*
X046105Y023792D01*
Y023792D01*
Y023793D01*
Y023794D01*
X046105Y023796D01*
X046105Y023798D01*
X046105Y0238D01*
X046104Y023803D01*
X046104Y023806D01*
X046102Y023812D01*
X046102Y023815D01*
X0461Y023818D01*
X046099Y023821D01*
X046097Y023824D01*
X046096Y023827D01*
X046093Y02383D01*
X046093Y02383D01*
X046093Y02383D01*
X046092Y023831D01*
X046091Y023832D01*
X04609Y023833D01*
X046088Y023834D01*
X046087Y023835D01*
X046085Y023836D01*
X046083Y023837D01*
X04608Y023839D01*
X046078Y02384D01*
X046075Y023841D01*
X046072Y023841D01*
X046069Y023842D01*
X046066Y023843D01*
X046062Y023843D01*
D02*
G37*
G36*
X045638Y024011D02*
X045637D01*
X045637Y024011D01*
X045634Y024011D01*
X045632Y024011D01*
X045629Y02401D01*
X045626Y024009D01*
X045623Y024007D01*
X04562Y024004D01*
X04562Y024004D01*
X045619Y024003D01*
X045618Y024001D01*
X045616Y023999D01*
X045615Y023997D01*
X045614Y023994D01*
X045613Y02399D01*
X045613Y023986D01*
Y023986D01*
Y023986D01*
Y023985D01*
X045613Y023985D01*
X045613Y023983D01*
X045614Y02398D01*
X045615Y023977D01*
X045616Y023974D01*
X045618Y023971D01*
X04562Y023968D01*
X045621Y023968D01*
X045622Y023967D01*
X045623Y023966D01*
X045625Y023964D01*
X045628Y023963D01*
X045631Y023962D01*
X045635Y023961D01*
X045639Y023961D01*
X04564D01*
X045641Y023961D01*
X045643Y023961D01*
X045645Y023961D01*
X045648Y023962D01*
X045651Y023964D01*
X045654Y023965D01*
X045657Y023968D01*
X045657Y023968D01*
X045658Y023969D01*
X045659Y023971D01*
X045661Y023973D01*
X045662Y023975D01*
X045663Y023979D01*
X045664Y023982D01*
X045664Y023986D01*
Y023986D01*
Y023987D01*
X045664Y023988D01*
X045664Y02399D01*
X045663Y023992D01*
X045663Y023994D01*
X045662Y023996D01*
X045661Y023999D01*
X045661Y023999D01*
X045661Y024D01*
X04566Y024001D01*
X045659Y024002D01*
X045658Y024004D01*
X045656Y024005D01*
X045654Y024007D01*
X045652Y024008D01*
X045652Y024008D01*
X045651Y024009D01*
X04565Y024009D01*
X045648Y02401D01*
X045646Y02401D01*
X045644Y024011D01*
X045641Y024011D01*
X045638Y024011D01*
D02*
G37*
G36*
Y023948D02*
X045638D01*
X045637Y023948D01*
X045635Y023948D01*
X045633Y023947D01*
X045631Y023947D01*
X045628Y023946D01*
X045626Y023944D01*
X045624Y023942D01*
X045624Y023942D01*
X045623Y023941D01*
X045622Y02394D01*
X045621Y023939D01*
X04562Y023937D01*
X045619Y023934D01*
X045618Y023931D01*
X045618Y023928D01*
Y023928D01*
Y023928D01*
Y023927D01*
X045618Y023925D01*
X045619Y023923D01*
X045619Y023921D01*
X04562Y023919D01*
X045622Y023916D01*
X045624Y023914D01*
X045624Y023914D01*
X045625Y023913D01*
X045626Y023912D01*
X045628Y023911D01*
X04563Y02391D01*
X045633Y023909D01*
X045635Y023908D01*
X045638Y023908D01*
X04564D01*
X045642Y023909D01*
X045644Y023909D01*
X045646Y02391D01*
X045649Y023911D01*
X045651Y023912D01*
X045653Y023914D01*
X045654Y023914D01*
X045654Y023915D01*
X045655Y023916D01*
X045656Y023918D01*
X045657Y02392D01*
X045658Y023922D01*
X045659Y023925D01*
X045659Y023928D01*
Y023928D01*
Y023928D01*
X045659Y023929D01*
X045659Y023931D01*
X045658Y023933D01*
X045658Y023935D01*
X045657Y023938D01*
X045655Y02394D01*
X045653Y023942D01*
X045653Y023943D01*
X045652Y023943D01*
X045651Y023944D01*
X045649Y023945D01*
X045647Y023946D01*
X045645Y023947D01*
X045642Y023948D01*
X045638Y023948D01*
D02*
G37*
G36*
X040612Y023743D02*
X040611D01*
X040609Y023743D01*
X040607Y023742D01*
X040604Y023742D01*
X040601Y023741D01*
X040598Y023741D01*
X040595Y023739D01*
X040596Y023739D01*
X040597Y023739D01*
X040598Y023738D01*
X0406Y023737D01*
X040603Y023735D01*
X040605Y023734D01*
X040609Y023733D01*
X040612Y023732D01*
X040608Y02372D01*
X040607D01*
X040607Y02372D01*
X040606Y023721D01*
X040605Y023721D01*
X040604Y023721D01*
X040603Y023722D01*
X040599Y023723D01*
X040595Y023725D01*
X040591Y023727D01*
X040588Y023729D01*
X040584Y023732D01*
X040584Y023732D01*
X040583Y023732D01*
X040582Y023731D01*
X040581Y02373D01*
X04058Y023728D01*
X040579Y023727D01*
X040578Y023725D01*
X040576Y023722D01*
X040575Y023719D01*
X040574Y023716D01*
X040573Y023713D01*
X040571Y02371D01*
X04057Y023706D01*
X04057Y023701D01*
X040569Y023697D01*
X040569Y023692D01*
Y023692D01*
Y023691D01*
Y02369D01*
Y023689D01*
X040569Y023688D01*
Y023686D01*
X040569Y023685D01*
X04057Y023683D01*
X04057Y023679D01*
X040571Y023674D01*
X040573Y02367D01*
X040574Y023665D01*
Y023665D01*
X040575Y023665D01*
X040575Y023664D01*
X040575Y023663D01*
X040577Y023661D01*
X040578Y023659D01*
X04058Y023656D01*
X040583Y023653D01*
X040586Y02365D01*
X04059Y023647D01*
X04059D01*
X04059Y023647D01*
X040591Y023647D01*
X040591Y023646D01*
X040592Y023646D01*
X040593Y023645D01*
X040596Y023644D01*
X040599Y023643D01*
X040603Y023642D01*
X040608Y023641D01*
X040612Y023641D01*
X040614D01*
X040615Y023641D01*
X040617Y023641D01*
X040619Y023642D01*
X040621Y023642D01*
X040623Y023643D01*
X040625Y023643D01*
X040628Y023644D01*
X04063Y023645D01*
X040633Y023646D01*
X040636Y023648D01*
X040638Y02365D01*
X040641Y023652D01*
X040643Y023654D01*
X040643Y023654D01*
X040644Y023654D01*
X040644Y023655D01*
X040645Y023656D01*
X040646Y023658D01*
X040647Y023659D01*
X040648Y023661D01*
X040649Y023663D01*
X04065Y023666D01*
X040652Y023669D01*
X040652Y023672D01*
X040653Y023675D01*
X040654Y023679D01*
X040655Y023683D01*
X040655Y023687D01*
X040655Y023692D01*
Y023692D01*
Y023693D01*
Y023694D01*
X040655Y023696D01*
X040655Y023698D01*
X040655Y0237D01*
X040654Y023703D01*
X040654Y023706D01*
X040652Y023712D01*
X040652Y023715D01*
X04065Y023718D01*
X040649Y023721D01*
X040647Y023724D01*
X040645Y023727D01*
X040643Y02373D01*
X040643Y02373D01*
X040643Y02373D01*
X040642Y023731D01*
X040641Y023732D01*
X04064Y023733D01*
X040638Y023734D01*
X040637Y023735D01*
X040635Y023736D01*
X040633Y023737D01*
X04063Y023739D01*
X040628Y02374D01*
X040625Y023741D01*
X040622Y023741D01*
X040619Y023742D01*
X040616Y023743D01*
X040612Y023743D01*
D02*
G37*
G36*
X040188Y023911D02*
X040187D01*
X040187Y023911D01*
X040184Y023911D01*
X040182Y023911D01*
X040179Y02391D01*
X040176Y023909D01*
X040173Y023907D01*
X04017Y023904D01*
X04017Y023904D01*
X040169Y023903D01*
X040168Y023901D01*
X040166Y023899D01*
X040165Y023897D01*
X040164Y023894D01*
X040163Y02389D01*
X040163Y023886D01*
Y023886D01*
Y023886D01*
Y023885D01*
X040163Y023885D01*
X040163Y023883D01*
X040164Y02388D01*
X040165Y023877D01*
X040166Y023874D01*
X040168Y023871D01*
X04017Y023868D01*
X040171Y023868D01*
X040172Y023867D01*
X040173Y023866D01*
X040175Y023864D01*
X040178Y023863D01*
X040181Y023862D01*
X040185Y023861D01*
X040189Y023861D01*
X04019D01*
X040191Y023861D01*
X040193Y023861D01*
X040195Y023861D01*
X040198Y023862D01*
X040201Y023864D01*
X040204Y023865D01*
X040207Y023868D01*
X040207Y023868D01*
X040208Y023869D01*
X040209Y023871D01*
X040211Y023873D01*
X040212Y023875D01*
X040213Y023879D01*
X040214Y023882D01*
X040214Y023886D01*
Y023886D01*
Y023887D01*
X040214Y023888D01*
X040214Y02389D01*
X040213Y023892D01*
X040213Y023894D01*
X040212Y023896D01*
X040211Y023899D01*
X040211Y023899D01*
X040211Y0239D01*
X04021Y023901D01*
X040209Y023902D01*
X040208Y023904D01*
X040206Y023905D01*
X040204Y023907D01*
X040202Y023908D01*
X040202Y023908D01*
X040201Y023909D01*
X0402Y023909D01*
X040198Y02391D01*
X040196Y02391D01*
X040194Y023911D01*
X040191Y023911D01*
X040188Y023911D01*
D02*
G37*
G36*
Y023848D02*
X040188D01*
X040187Y023848D01*
X040185Y023848D01*
X040183Y023847D01*
X040181Y023847D01*
X040178Y023846D01*
X040176Y023844D01*
X040174Y023842D01*
X040174Y023842D01*
X040173Y023841D01*
X040172Y02384D01*
X040171Y023839D01*
X04017Y023837D01*
X040169Y023834D01*
X040168Y023831D01*
X040168Y023828D01*
Y023828D01*
Y023828D01*
Y023827D01*
X040168Y023825D01*
X040169Y023823D01*
X040169Y023821D01*
X04017Y023819D01*
X040172Y023816D01*
X040174Y023814D01*
X040174Y023814D01*
X040175Y023813D01*
X040176Y023812D01*
X040178Y023811D01*
X04018Y02381D01*
X040182Y023809D01*
X040185Y023808D01*
X040188Y023808D01*
X04019D01*
X040192Y023809D01*
X040194Y023809D01*
X040196Y02381D01*
X040199Y023811D01*
X040201Y023812D01*
X040203Y023814D01*
X040204Y023814D01*
X040204Y023815D01*
X040205Y023816D01*
X040206Y023818D01*
X040207Y02382D01*
X040208Y023822D01*
X040209Y023825D01*
X040209Y023828D01*
Y023828D01*
Y023828D01*
X040209Y023829D01*
X040209Y023831D01*
X040208Y023833D01*
X040208Y023835D01*
X040207Y023838D01*
X040205Y02384D01*
X040203Y023842D01*
X040203Y023843D01*
X040202Y023843D01*
X040201Y023844D01*
X040199Y023845D01*
X040197Y023846D01*
X040195Y023847D01*
X040192Y023848D01*
X040188Y023848D01*
D02*
G37*
G36*
X043126Y02381D02*
X043086D01*
Y023754D01*
X043126Y02381D01*
D02*
G37*
G36*
X043212Y023843D02*
X043211D01*
X043209Y023843D01*
X043207Y023842D01*
X043204Y023842D01*
X043201Y023841D01*
X043198Y023841D01*
X043195Y023839D01*
X043196Y023839D01*
X043197Y023839D01*
X043198Y023838D01*
X0432Y023837D01*
X043203Y023835D01*
X043205Y023834D01*
X043209Y023833D01*
X043212Y023832D01*
X043208Y02382D01*
X043207D01*
X043207Y02382D01*
X043206Y023821D01*
X043205Y023821D01*
X043204Y023821D01*
X043203Y023822D01*
X043199Y023823D01*
X043195Y023825D01*
X043191Y023827D01*
X043188Y023829D01*
X043184Y023832D01*
X043184Y023832D01*
X043183Y023832D01*
X043182Y023831D01*
X043181Y02383D01*
X04318Y023828D01*
X043179Y023827D01*
X043178Y023825D01*
X043176Y023822D01*
X043175Y023819D01*
X043174Y023816D01*
X043173Y023813D01*
X043171Y02381D01*
X04317Y023806D01*
X04317Y023801D01*
X043169Y023797D01*
X043169Y023792D01*
Y023792D01*
Y023791D01*
Y02379D01*
Y023789D01*
X043169Y023788D01*
Y023786D01*
X043169Y023785D01*
X04317Y023783D01*
X04317Y023779D01*
X043171Y023774D01*
X043173Y02377D01*
X043174Y023765D01*
Y023765D01*
X043175Y023765D01*
X043175Y023764D01*
X043175Y023763D01*
X043177Y023761D01*
X043178Y023759D01*
X04318Y023756D01*
X043183Y023753D01*
X043186Y02375D01*
X04319Y023747D01*
X04319D01*
X04319Y023747D01*
X043191Y023747D01*
X043191Y023746D01*
X043192Y023746D01*
X043193Y023745D01*
X043196Y023744D01*
X043199Y023743D01*
X043203Y023742D01*
X043208Y023741D01*
X043212Y023741D01*
X043214D01*
X043215Y023741D01*
X043217Y023741D01*
X043219Y023742D01*
X043221Y023742D01*
X043223Y023743D01*
X043225Y023743D01*
X043228Y023744D01*
X04323Y023745D01*
X043233Y023746D01*
X043236Y023748D01*
X043238Y02375D01*
X043241Y023752D01*
X043243Y023754D01*
X043243Y023754D01*
X043244Y023754D01*
X043244Y023755D01*
X043245Y023756D01*
X043246Y023758D01*
X043247Y023759D01*
X043248Y023761D01*
X043249Y023763D01*
X04325Y023766D01*
X043252Y023769D01*
X043252Y023772D01*
X043253Y023775D01*
X043254Y023779D01*
X043255Y023783D01*
X043255Y023787D01*
X043255Y023792D01*
Y023792D01*
Y023793D01*
Y023794D01*
X043255Y023796D01*
X043255Y023798D01*
X043255Y0238D01*
X043254Y023803D01*
X043254Y023806D01*
X043252Y023812D01*
X043252Y023815D01*
X04325Y023818D01*
X043249Y023821D01*
X043247Y023824D01*
X043246Y023827D01*
X043243Y02383D01*
X043243Y02383D01*
X043243Y02383D01*
X043242Y023831D01*
X043241Y023832D01*
X04324Y023833D01*
X043238Y023834D01*
X043237Y023835D01*
X043235Y023836D01*
X043233Y023837D01*
X04323Y023839D01*
X043228Y02384D01*
X043225Y023841D01*
X043222Y023841D01*
X043219Y023842D01*
X043216Y023843D01*
X043212Y023843D01*
D02*
G37*
G36*
X042789Y024011D02*
X042787D01*
X042787Y024011D01*
X042785Y024011D01*
X042782Y024011D01*
X042779Y02401D01*
X042776Y024009D01*
X042773Y024007D01*
X04277Y024004D01*
X04277Y024004D01*
X042769Y024003D01*
X042768Y024001D01*
X042766Y023999D01*
X042765Y023997D01*
X042764Y023994D01*
X042763Y02399D01*
X042763Y023986D01*
Y023986D01*
Y023986D01*
Y023985D01*
X042763Y023985D01*
X042763Y023983D01*
X042764Y02398D01*
X042765Y023977D01*
X042766Y023974D01*
X042768Y023971D01*
X04277Y023968D01*
X042771Y023968D01*
X042772Y023967D01*
X042773Y023966D01*
X042775Y023964D01*
X042778Y023963D01*
X042781Y023962D01*
X042785Y023961D01*
X042789Y023961D01*
X04279D01*
X042791Y023961D01*
X042793Y023961D01*
X042795Y023961D01*
X042798Y023962D01*
X042801Y023964D01*
X042804Y023965D01*
X042807Y023968D01*
X042807Y023968D01*
X042808Y023969D01*
X042809Y023971D01*
X042811Y023973D01*
X042812Y023975D01*
X042813Y023979D01*
X042814Y023982D01*
X042814Y023986D01*
Y023986D01*
Y023987D01*
X042814Y023988D01*
X042814Y02399D01*
X042813Y023992D01*
X042813Y023994D01*
X042812Y023996D01*
X042811Y023999D01*
X042811Y023999D01*
X042811Y024D01*
X04281Y024001D01*
X042809Y024002D01*
X042808Y024004D01*
X042806Y024005D01*
X042804Y024007D01*
X042802Y024008D01*
X042802Y024008D01*
X042801Y024009D01*
X0428Y024009D01*
X042798Y02401D01*
X042796Y02401D01*
X042794Y024011D01*
X042791Y024011D01*
X042789Y024011D01*
D02*
G37*
G36*
Y023948D02*
X042788D01*
X042787Y023948D01*
X042785Y023948D01*
X042783Y023947D01*
X042781Y023947D01*
X042778Y023946D01*
X042776Y023944D01*
X042774Y023942D01*
X042774Y023942D01*
X042773Y023941D01*
X042772Y02394D01*
X042771Y023939D01*
X04277Y023937D01*
X042769Y023934D01*
X042768Y023931D01*
X042768Y023928D01*
Y023928D01*
Y023928D01*
Y023927D01*
X042768Y023925D01*
X042769Y023923D01*
X042769Y023921D01*
X04277Y023919D01*
X042772Y023916D01*
X042774Y023914D01*
X042774Y023914D01*
X042775Y023913D01*
X042776Y023912D01*
X042778Y023911D01*
X04278Y02391D01*
X042783Y023909D01*
X042785Y023908D01*
X042789Y023908D01*
X04279D01*
X042792Y023909D01*
X042794Y023909D01*
X042796Y02391D01*
X042799Y023911D01*
X042801Y023912D01*
X042803Y023914D01*
X042804Y023914D01*
X042804Y023915D01*
X042805Y023916D01*
X042806Y023918D01*
X042807Y02392D01*
X042808Y023922D01*
X042809Y023925D01*
X042809Y023928D01*
Y023928D01*
Y023928D01*
X042809Y023929D01*
X042809Y023931D01*
X042808Y023933D01*
X042808Y023935D01*
X042807Y023938D01*
X042805Y02394D01*
X042803Y023942D01*
X042803Y023943D01*
X042802Y023943D01*
X042801Y023944D01*
X042799Y023945D01*
X042797Y023946D01*
X042795Y023947D01*
X042792Y023948D01*
X042789Y023948D01*
D02*
G37*
G36*
X034712Y023843D02*
X034711D01*
X034709Y023843D01*
X034707Y023842D01*
X034704Y023842D01*
X034701Y023841D01*
X034698Y023841D01*
X034695Y023839D01*
X034696Y023839D01*
X034697Y023839D01*
X034698Y023838D01*
X0347Y023837D01*
X034703Y023835D01*
X034705Y023834D01*
X034709Y023833D01*
X034712Y023832D01*
X034708Y02382D01*
X034707D01*
X034707Y02382D01*
X034706Y023821D01*
X034705Y023821D01*
X034704Y023821D01*
X034703Y023822D01*
X034699Y023823D01*
X034695Y023825D01*
X034691Y023827D01*
X034688Y023829D01*
X034684Y023832D01*
X034684Y023832D01*
X034683Y023832D01*
X034682Y023831D01*
X034681Y02383D01*
X03468Y023828D01*
X034679Y023827D01*
X034678Y023825D01*
X034676Y023822D01*
X034675Y023819D01*
X034674Y023816D01*
X034673Y023813D01*
X034671Y02381D01*
X03467Y023806D01*
X03467Y023801D01*
X034669Y023797D01*
X034669Y023792D01*
Y023792D01*
Y023791D01*
Y02379D01*
Y023789D01*
X034669Y023788D01*
Y023786D01*
X034669Y023785D01*
X03467Y023783D01*
X03467Y023779D01*
X034671Y023774D01*
X034673Y02377D01*
X034674Y023765D01*
Y023765D01*
X034675Y023765D01*
X034675Y023764D01*
X034675Y023763D01*
X034677Y023761D01*
X034678Y023759D01*
X03468Y023756D01*
X034683Y023753D01*
X034686Y02375D01*
X03469Y023747D01*
X03469D01*
X03469Y023747D01*
X034691Y023747D01*
X034691Y023746D01*
X034692Y023746D01*
X034693Y023745D01*
X034696Y023744D01*
X034699Y023743D01*
X034703Y023742D01*
X034708Y023741D01*
X034712Y023741D01*
X034714D01*
X034715Y023741D01*
X034717Y023741D01*
X034719Y023742D01*
X034721Y023742D01*
X034723Y023743D01*
X034725Y023743D01*
X034728Y023744D01*
X03473Y023745D01*
X034733Y023746D01*
X034736Y023748D01*
X034738Y02375D01*
X034741Y023752D01*
X034743Y023754D01*
X034743Y023754D01*
X034744Y023754D01*
X034744Y023755D01*
X034745Y023756D01*
X034746Y023758D01*
X034747Y023759D01*
X034748Y023761D01*
X034749Y023763D01*
X03475Y023766D01*
X034752Y023769D01*
X034752Y023772D01*
X034753Y023775D01*
X034754Y023779D01*
X034755Y023783D01*
X034755Y023787D01*
X034755Y023792D01*
Y023792D01*
Y023793D01*
Y023794D01*
X034755Y023796D01*
X034755Y023798D01*
X034755Y0238D01*
X034754Y023803D01*
X034754Y023806D01*
X034752Y023812D01*
X034752Y023815D01*
X03475Y023818D01*
X034749Y023821D01*
X034747Y023824D01*
X034746Y023827D01*
X034743Y02383D01*
X034743Y02383D01*
X034743Y02383D01*
X034742Y023831D01*
X034741Y023832D01*
X03474Y023833D01*
X034738Y023834D01*
X034737Y023835D01*
X034735Y023836D01*
X034733Y023837D01*
X03473Y023839D01*
X034728Y02384D01*
X034725Y023841D01*
X034722Y023841D01*
X034719Y023842D01*
X034716Y023843D01*
X034712Y023843D01*
D02*
G37*
G36*
X034288Y024011D02*
X034287D01*
X034287Y024011D01*
X034285Y024011D01*
X034282Y024011D01*
X034279Y02401D01*
X034276Y024009D01*
X034273Y024007D01*
X03427Y024004D01*
X03427Y024004D01*
X034269Y024003D01*
X034268Y024001D01*
X034266Y023999D01*
X034265Y023997D01*
X034264Y023994D01*
X034263Y02399D01*
X034263Y023986D01*
Y023986D01*
Y023986D01*
Y023985D01*
X034263Y023985D01*
X034263Y023983D01*
X034264Y02398D01*
X034265Y023977D01*
X034266Y023974D01*
X034268Y023971D01*
X03427Y023968D01*
X034271Y023968D01*
X034272Y023967D01*
X034273Y023966D01*
X034275Y023964D01*
X034278Y023963D01*
X034281Y023962D01*
X034285Y023961D01*
X034289Y023961D01*
X03429D01*
X034291Y023961D01*
X034293Y023961D01*
X034295Y023961D01*
X034298Y023962D01*
X034301Y023964D01*
X034304Y023965D01*
X034307Y023968D01*
X034307Y023968D01*
X034308Y023969D01*
X034309Y023971D01*
X034311Y023973D01*
X034312Y023975D01*
X034313Y023979D01*
X034314Y023982D01*
X034314Y023986D01*
Y023986D01*
Y023987D01*
X034314Y023988D01*
X034314Y02399D01*
X034313Y023992D01*
X034313Y023994D01*
X034312Y023996D01*
X034311Y023999D01*
X034311Y023999D01*
X034311Y024D01*
X03431Y024001D01*
X034309Y024002D01*
X034308Y024004D01*
X034306Y024005D01*
X034304Y024007D01*
X034302Y024008D01*
X034302Y024008D01*
X034301Y024009D01*
X0343Y024009D01*
X034298Y02401D01*
X034296Y02401D01*
X034294Y024011D01*
X034291Y024011D01*
X034288Y024011D01*
D02*
G37*
G36*
Y023948D02*
X034288D01*
X034287Y023948D01*
X034285Y023948D01*
X034283Y023947D01*
X034281Y023947D01*
X034278Y023946D01*
X034276Y023944D01*
X034274Y023942D01*
X034274Y023942D01*
X034273Y023941D01*
X034272Y02394D01*
X034271Y023939D01*
X03427Y023937D01*
X034269Y023934D01*
X034268Y023931D01*
X034268Y023928D01*
Y023928D01*
Y023928D01*
Y023927D01*
X034268Y023925D01*
X034269Y023923D01*
X034269Y023921D01*
X03427Y023919D01*
X034272Y023916D01*
X034274Y023914D01*
X034274Y023914D01*
X034275Y023913D01*
X034276Y023912D01*
X034278Y023911D01*
X03428Y02391D01*
X034283Y023909D01*
X034285Y023908D01*
X034288Y023908D01*
X03429D01*
X034292Y023909D01*
X034294Y023909D01*
X034296Y02391D01*
X034299Y023911D01*
X034301Y023912D01*
X034303Y023914D01*
X034304Y023914D01*
X034304Y023915D01*
X034305Y023916D01*
X034306Y023918D01*
X034307Y02392D01*
X034308Y023922D01*
X034309Y023925D01*
X034309Y023928D01*
Y023928D01*
Y023928D01*
X034309Y023929D01*
X034309Y023931D01*
X034308Y023933D01*
X034308Y023935D01*
X034307Y023938D01*
X034305Y02394D01*
X034303Y023942D01*
X034303Y023943D01*
X034302Y023943D01*
X034301Y023944D01*
X034299Y023945D01*
X034297Y023946D01*
X034295Y023947D01*
X034292Y023948D01*
X034288Y023948D01*
D02*
G37*
%LPD*%
D85*
X036738Y024662D02*
X037762D01*
X036738Y023658D02*
X037762D01*
Y024662D01*
X036738Y023658D02*
Y024662D01*
X045138Y024662D02*
X046162D01*
X045138Y023658D02*
X046162D01*
Y024662D01*
X045138Y023658D02*
Y024662D01*
X039688Y024562D02*
X040712D01*
X039688Y023558D02*
X040712D01*
Y024562D01*
X039688Y023558D02*
Y024562D01*
X042288Y024662D02*
X043312D01*
X042288Y023658D02*
X043312D01*
Y024662D01*
X042288Y023658D02*
Y024662D01*
X033788D02*
X034812D01*
X033788Y023658D02*
X034812D01*
Y024662D01*
X033788Y023658D02*
Y024662D01*
D86*
X036886Y024701D02*
D03*
X037614Y024701D02*
D03*
X03725Y023609D02*
D03*
X045286Y024701D02*
D03*
X046014Y024701D02*
D03*
X04565Y023609D02*
D03*
X039836Y024601D02*
D03*
X040564Y024601D02*
D03*
X0402Y023509D02*
D03*
X042436Y024701D02*
D03*
X043164Y024701D02*
D03*
X0428Y023609D02*
D03*
X033936Y024701D02*
D03*
X034664Y024701D02*
D03*
X0343Y023609D02*
D03*
M02*
