G04*
G04 #@! TF.GenerationSoftware,Altium Limited,Altium Designer,20.1.12 (249)*
G04*
G04 Layer_Color=255*
%FSTAX24Y24*%
%MOIN*%
G70*
G04*
G04 #@! TF.SameCoordinates,16AA3A95-E13F-4B7F-BF52-5902ACF92DE2*
G04*
G04*
G04 #@! TF.FilePolarity,Positive*
G04*
G01*
G75*
%ADD20R,0.0550X0.0394*%
%ADD30R,0.0472X0.0354*%
%ADD31R,0.0472X0.0354*%
%ADD68C,0.1890*%
%ADD69C,0.0665*%
%ADD70R,0.0665X0.0665*%
%ADD71O,0.1100X0.1200*%
%ADD72C,0.1300*%
%ADD73O,0.0650X0.0900*%
%ADD74R,0.0650X0.0900*%
%ADD75R,0.0600X0.0900*%
%ADD76O,0.0600X0.0900*%
%ADD77O,0.0900X0.0600*%
%ADD78R,0.0900X0.0600*%
%ADD79C,0.0591*%
%ADD80R,0.0591X0.0591*%
D20*
X0296Y02265D02*
D03*
Y02355D02*
D03*
X02865Y02265D02*
D03*
Y02355D02*
D03*
X0275Y02265D02*
D03*
Y02355D02*
D03*
X02655Y02265D02*
D03*
Y02355D02*
D03*
X02425Y02265D02*
D03*
Y02355D02*
D03*
X0252Y0226D02*
D03*
Y0235D02*
D03*
X02195Y02265D02*
D03*
Y02355D02*
D03*
X0228Y02265D02*
D03*
Y02355D02*
D03*
X02065Y02265D02*
D03*
Y02355D02*
D03*
X0197Y02265D02*
D03*
Y02355D02*
D03*
D30*
X0418Y02345D02*
D03*
X03985Y02355D02*
D03*
X03575Y02345D02*
D03*
X03765D02*
D03*
X01835Y0222D02*
D03*
X0439Y02355D02*
D03*
D31*
X0418Y02225D02*
D03*
X03985Y02235D02*
D03*
X03575Y02225D02*
D03*
X03765D02*
D03*
X01835Y021D02*
D03*
X0439Y02235D02*
D03*
D68*
X037009Y04686D02*
D03*
X023891D02*
D03*
D69*
X033722Y047419D02*
D03*
X033176Y046301D02*
D03*
X032631Y047419D02*
D03*
X032086Y046301D02*
D03*
X031541Y047419D02*
D03*
X030995Y046301D02*
D03*
X03045Y047419D02*
D03*
X029905Y046301D02*
D03*
X029359Y047419D02*
D03*
X028814Y046301D02*
D03*
X028269Y047419D02*
D03*
X027724Y046301D02*
D03*
X027178Y047419D02*
D03*
X026638Y046299D02*
D03*
D70*
X034267Y046301D02*
D03*
D71*
X029299Y02105D02*
D03*
X019399D02*
D03*
X025403Y021054D02*
D03*
X0234Y021051D02*
D03*
X021399Y02105D02*
D03*
X027293Y021054D02*
D03*
X0192Y0463D02*
D03*
X0212D02*
D03*
X0378Y021077D02*
D03*
X043804Y021081D02*
D03*
X041801Y021078D02*
D03*
X0398Y021077D02*
D03*
D72*
X041826Y046276D02*
D03*
X043826D02*
D03*
X0398Y04625D02*
D03*
X033774Y021074D02*
D03*
X031774D02*
D03*
X0358Y0211D02*
D03*
D73*
X03865Y03595D02*
D03*
X03965D02*
D03*
D74*
X04065D02*
D03*
D75*
X03935Y0382D02*
D03*
D76*
X04035D02*
D03*
X04135D02*
D03*
X04235D02*
D03*
X03935Y0412D02*
D03*
X04035D02*
D03*
X04135D02*
D03*
X04235D02*
D03*
D77*
X0358Y04055D02*
D03*
Y04155D02*
D03*
Y03955D02*
D03*
X0328D02*
D03*
Y04055D02*
D03*
D78*
Y04155D02*
D03*
D79*
X02115Y04405D02*
D03*
D80*
X02015D02*
D03*
M02*
